M48
;Layer_Color=9474304
;FILE_FORMAT=4:4
METRIC,LZ
;TYPE=PLATED
T1F00S00C0.2540
T3F00S00C0.6000
T4F00S00C4.2000
;TYPE=NON_PLATED
T5F00S00C0.6500
%
T01
X0074Y00989
X0075
X0076
X0077
Y00997
Y01005
Y01013
X0076
X0075
X0074
X00755Y01158
X0085Y01187
X00857Y01182
X00878Y01175
Y01167
X00899Y01175
X00905Y01158
X00899Y01147
Y01005
X00905Y0101
X00892Y01
X00885
X00878
X00871
X00864
X00857
X0085
X00932Y01018
X00942
X00952
X00962
X00972Y01018
Y01008
X00962
X00995Y00905
X01005
X01015
X01025
X01035
X01045
X01055
X01065
X01075
X01085
X01095
X01125
X01135
X01145
X01155
X01165
X01175
X01185
X01174Y00988
X01164
X01154
X01144
Y00996
Y01004
Y01012
X01154
X01164
X01174
X01186Y01147
X01178Y01163
X01072Y01146
X01052Y01176
X01373
X01379Y01169
X01394Y01163
Y01153
X01389Y01158
X01395Y01127
X01403Y01119
X0136Y01135
X01353Y01135
X01404Y01182
X01409Y01187
X01381Y01013
X01375
Y00987
X01381
X01554Y00986
Y00996
Y01006
Y01016
X01564
X01574
X01584
Y01006
X01577
Y00997
X01204Y00996
X012Y01002
X01205Y00905
X01195
X01215
X01225
X01235
X01245
X01605Y00978
Y00985
X01741067Y01003
Y01011
X01749067Y01017
X01757067
X01765067Y01011
Y01003
Y00995
X01815Y009055
X01825
X0196Y00995
X01960067Y01003
Y01011
X01968067Y01016
X01976067
X01984067Y01011
Y01003
X01772Y01153
X01766Y01148
X0176Y01143
X01754Y01138
X01748Y01133
X01742Y01128
X01736Y01123
X0173Y01118
X01709Y0112
X01714Y01126
X02146067Y01011
Y01003
X02154067Y01017
X02162067
X02170067Y01011
Y01003
Y00995
X02365Y00995
X02365067Y01003
Y01011
X02373067Y01017
X02381067
X02389067Y01011
Y01003
X02551067
Y01011
X02559067Y01017
X02567067
X02575067Y01011
Y01003
Y00995
X0277Y00995
X02770067Y01003
Y01011
X02778067Y01017
X02786067
X02794067Y01011
Y01003
X02956067
Y01011
X02964067Y01017
X02972067
X02980067Y01011
Y01003
Y00995
X03175Y00995
X03175067Y01003
Y01011
X03183067Y01017
X03191067
X03199067Y01011
Y01003
X03365067Y01003
Y01011
X03373067Y01017
X03381067
X03389067Y01011
Y01003
X03389Y00995
X01507Y01515
X01325Y01508
X01279Y01506
X01274Y01523
X01264Y01517
X01256
Y01489
X0121Y01488
X01202
X01207933Y01538
X01214933Y01542
X01222933
X01227933Y01536
X01230933Y01566
X01237933
X01245Y01566
X01266Y01563
X01195933Y01556
X01209Y01413
X01202Y01397
X01243Y01353
X01264Y01319
X01216Y01261
X01221Y01251
X01226Y01246
X01196Y01256
X01256Y01438
X01353Y01586
X01171Y01556
X01109Y01551
X01107Y01524
Y01514
X01113Y01519
X01097Y01508
X01047933Y01509
Y01502
X01036933
X01048Y01474
X01015Y01463
X00965Y01465
X0096Y01449
X00928Y01421
X00923Y01406
X00918Y01411
X00913Y01416
X00903Y01391
X00898Y01386
X00868Y01361
X00856Y01355
X00855433Y013385
X00855933Y01326
X00836Y01318
X00838Y01287
Y01279
Y01271
X00846Y01272
X00828Y01265
X00813933Y01264
X00809933Y01298
Y01305
X00803Y01302
Y0132
X00796933Y01373
X00794826Y01421
X008515Y014395
X008785
X00879Y01478
X00851
X00916Y01507
X01017Y01576
X01081Y01438
Y01431
X01112Y01438
X01122
X01136547Y01449
X01141933Y01419
X01137Y01411
X01136933Y01386
X01131933Y01391
X01146933Y01371
X01151933Y01376
X01163Y01384
X01168Y01358
X01158Y01334
X01127Y01351
X01097Y01346
X01092Y01341
X01087Y01319
Y01306
X01067Y01314
X01076Y01324
X01049Y01298
X01076Y01271
X01081Y01266
X01076Y01229
X01067
X01087
X01112Y01278
Y01288
X01117Y01283
X01122Y01293
X01102Y01361
X01107Y01366
X01173Y01412
X01183Y01406
X01188Y01424
X01178Y01443
X01158Y01501
X00975Y01336
X00965
Y01326
X0097Y01314
X00983Y01326
X00955Y01336
Y01346
X00947
Y01306
X00905Y01286
X00887Y01298
X00886Y01341
X00834Y01353
X00893933Y01241
X00899Y01204
X00906
X00913
X00885Y01192
X00857Y012
X0096Y01246
X00965Y01251
Y01261
X00972
X00977Y01256
X00975Y01271
X0096Y01256
X00782Y01236
X00775
X00768
X00761
X00753
X00739Y01269
X00725Y013
X00698
X00693Y01335
Y01345
X00698Y0134
X00718Y01357
X00727Y01328
X0075Y01324
X00755933Y01318
X00765
X00788Y01334
X00789933Y01375
X00753Y01373
X00746Y01347
X00779933Y01293
X00774933Y01287
X00780933Y0128
X00627Y01282
X00597Y01283
X00596Y01298
X00583Y01304
X00592Y01268
X00583Y01257
X00575826Y01418
X00550826Y01429
Y015
X00575826Y01488
Y01558
X00550826Y0157
X00765Y01496
X00764933Y01809
Y01817
X00765Y01825
X00756933Y01803
X00748933
X00740933Y01809
Y01817
X00934933
Y01809
X00942933Y01803
X00950933
X00958933Y01809
Y01817
X00935Y01825
X01145933Y01817
Y01809
X01153933Y01803
X01161933
X01169933Y01809
Y01817
X0117Y01825
X0118Y0175
X01165Y01744
X01118Y01738
X01097Y01732
X01108Y01656
X01075
X01061Y01658
X01055Y01661
X0104Y01666
X01039933Y0161
X01032933Y01607
X01025933Y0161
X01019Y01607
X01011933Y0161
X01004933Y01607
X00998Y0161
X00991Y01607
X00984Y0161
X00977Y01607
X0097Y0161
X00963Y01607
X00956Y0161
X01055Y01617
X01061Y01628
X01154Y01656
X01172
X0119
X01160933Y01599
X01195Y01602
X01259Y01656
X01281
X01303
Y01626
X01319
X01361
X01357Y0162
X01361Y01614
X01357Y01632
X01361Y01638
X0136Y01592
X01399Y01672
X01419
X01429
X01439
X01449
X01459
X01454Y01666
X01444
X01434
X01424
X01414
X01465Y01638
X01471Y01632
X01477Y01626
X01483Y0162
X01489Y01614
X01550933Y01809
Y01817
X01558933Y01803
X01566933
X01574933Y01809
Y01817
X01575Y01825
X01363933Y01817
Y01809
X01355933Y01803
X01347933
X01339933Y01809
Y01817
Y01825
X01255Y01763
X01248Y01756
X01292Y01718
X01744933Y01809
Y01817
Y01825
X01752933Y01803
X01760933
X01768933Y01809
Y01817
X01955933
Y01809
X01963933Y01803
X01971933
X01979933Y01809
Y01817
X0198Y01825
X02149933Y01825
Y01817
Y01809
X02157933Y01803
X02165933
X02173933Y01809
Y01817
X02360933
Y01809
X02368933Y01803
X02376933
X02384933Y01809
Y01817
X02385Y01825
X02554933Y01825
Y01817
Y01809
X02562933Y01803
X02570933
X02578933Y01809
Y01817
X02765933
Y01809
X02773933Y01803
X02781933
X02789933Y01809
Y01817
X0279Y01825
X02959933Y01825
Y01817
Y01809
X02967933Y01803
X02975933
X02983933Y01809
Y01817
X03170933
Y01809
X03178933Y01803
X03186933
X03194933Y01809
Y01817
X03195Y01825
X03364933Y01825
Y01817
Y01809
X03372933Y01803
X03380933
X03388933Y01809
Y01817
X03389Y01825
T03
X00679Y01041
X00699
X00719
X00739
X00759
X00779
X00789Y01056
X00769
X00749
X00729
X00709
X00689
X00699Y01071
X00679
X00689Y01086
X00709
X00729
X00749
X00769
X00789
X00779Y01071
X00759
X00739
X00719
Y01101
X00739
X00759
X00779
X00769Y01116
X00749
X00729
X00709
X00689
X00699Y01131
X00679
Y01101
X00699
X00719Y01131
X00739
X00759
X00779
X00789Y01116
X0073Y0117
X0068
X00799Y01131
X00819
X00809Y01116
X00829
X00819Y01101
X00799
X00809Y01086
X00829
X00819Y01071
X00799
X00809Y01056
X00829
X00819Y01041
X00799
X01033Y01015
X01023Y01
X01033Y00985
X01108
X01098Y01
X01108Y01015
X0129Y0102
X013Y01035
X0129Y0105
X013Y01065
X0129Y0108
X013Y01095
X0129Y0111
X013Y01005
X0129Y0099
X013Y00975
X0129Y0096
X0131
X0133
X0135
X0137
X0138Y00945
X0136
X0134
X0132
X013
X0129Y0093
X0131
X0133
X0135
X0137
X0136Y00915
X0134
X0132
X013
X0128
X0138
X0142
X0144
X0146
X0148
X015
X0152
X0151Y0093
X0149
X0147
X0145
X0143
X0144Y00945
X0142
X0143Y0096
X0145
X0147
X0149
X0151
X0152Y00945
X015
X0148
X0146
X0175Y0104
X01765
X0181Y0103
Y01015
Y01
X01915
Y01015
Y0103
X0196Y0104
X01975
X02155
X0217
X02215Y0103
Y01015
Y01
X0232
Y01015
Y0103
X02365Y0104
X0238
X0256
X02575
X0262Y0103
Y01015
Y01
X02725
Y01015
Y0103
X0277Y0104
X02785
X02965
X0298
X03025Y0103
Y01015
Y01
X0313
Y01015
Y0103
X03175Y0104
X0319
X03266Y01055
Y01085
Y01115
Y01145
X03296
X03326
X03356
X03386
Y01115
Y01085
Y01055
X03356
X03326
X03296
Y01085
Y01115
X03326
X03356
Y01085
X03326
X0228Y01565
X0225
X0222
X0219
X0216
X0213
X021
X0207
X0204
X0201
X0198
X0195
X0192
X0189
X0186
X0183
X018
X0177
X0174
X0171
X0168
X0165
X0162
X0159
X0156
X01338Y01484
X0131Y0144
Y0138
Y0132
Y0126
Y0121
X0115Y0129
X01073Y01197
X01Y0121
X0096
X00882Y01205
X00797Y01192
X00805Y01448
Y01465
Y01481
X00947Y01432
X01066Y01431
Y01465
X0071Y014
X00656Y01422
Y01314
Y01237
X007Y0122
X00783Y01192
X00765Y0178
X0075
X0081Y0179
Y01805
Y0182
X0089
Y01805
Y0179
X00935Y0178
X0095
X01155
X0117
X009Y0159
X01356Y01603
X01355Y0178
X0134
X01295Y0179
Y01805
Y0182
X01215
Y01805
Y0179
X0156Y0178
X01575
X0156Y01655
Y01625
Y01595
X0159
X0162
Y01625
X0159
Y01655
X0162
X0165
X0168
Y01625
Y01595
X0165
Y01625
X0171
Y01595
X0174
Y01625
X0177
Y01595
X018
Y01625
X0183
Y01595
X0186
Y01625
X0189
Y01595
X0192
X0195
X0198
Y01625
X0195
X0192
Y01655
X0195
X0198
X0189
X0186
X0183
X018
X0177
X0174
X0171
X017Y0179
Y01805
Y0182
X0162
Y01805
Y0179
X01745Y0178
X0176
X01965
X0198
X02025Y0179
Y01805
Y0182
X02105
Y01805
Y0179
X0215Y0178
X02165
X0216Y01655
X0213
Y01625
X0216
Y01595
X0213
X021
X0207
Y01625
X021
Y01655
X0207
X0204
X0201
Y01625
Y01595
X0204
Y01625
X0219
Y01595
X0222
X0225
Y01625
X0222
Y01655
X0225
X0228
Y01625
Y01595
X0219Y01655
X0237Y0178
X02385
X0243Y0179
Y01805
Y0182
X0251
Y01805
Y0179
X02555Y0178
X0257
X02775
X0279
X02835Y0179
Y01805
Y0182
X02915
Y01805
Y0179
X0296Y0178
X02975
X0318
X03195
X0324Y0179
Y01805
Y0182
X0332
Y01805
Y0179
X03365Y0178
X0338
T04
X00596Y00932
X03441
X00596Y01786
T05
X00602Y0125
Y0125
Y0131
Y0131
M30
