G04 EAGLE Gerber RS-274X export*
G75*
%MOMM*%
%FSLAX34Y34*%
%LPD*%
%INTop Copper*%
%IPPOS*%
%AMOC8*
5,1,8,0,0,1.08239X$1,22.5*%
G01*
%ADD10R,1.600000X1.800000*%
%ADD11R,1.900000X3.400000*%
%ADD12R,1.520000X0.600000*%
%ADD13R,2.540000X2.540000*%
%ADD14R,1.114600X1.361200*%
%ADD15R,3.810000X2.082800*%
%ADD16R,8.890000X11.430000*%
%ADD17R,1.600000X1.803000*%
%ADD18R,1.803000X1.600000*%
%ADD19R,1.850000X5.500000*%
%ADD20R,1.500000X1.500000*%
%ADD21C,2.760000*%
%ADD22C,1.879600*%
%ADD23R,1.300000X1.500000*%
%ADD24C,0.225000*%
%ADD25C,0.812800*%
%ADD26C,0.656400*%
%ADD27C,0.756400*%
%ADD28C,0.406400*%
%ADD29C,0.609600*%
%ADD30C,0.304800*%
%ADD31C,0.152400*%
%ADD32C,0.200000*%
%ADD33C,0.508000*%
%ADD34C,0.150000*%

G36*
X80794Y16010D02*
X80794Y16010D01*
X80858Y16009D01*
X80933Y16030D01*
X81009Y16041D01*
X81068Y16067D01*
X81130Y16084D01*
X81196Y16125D01*
X81266Y16157D01*
X81315Y16199D01*
X81370Y16232D01*
X81422Y16290D01*
X81480Y16340D01*
X81516Y16394D01*
X81559Y16442D01*
X81592Y16511D01*
X81635Y16576D01*
X81654Y16638D01*
X81682Y16695D01*
X81693Y16765D01*
X81717Y16846D01*
X81718Y16931D01*
X81729Y17000D01*
X81729Y77526D01*
X86707Y82504D01*
X86764Y82581D01*
X86829Y82652D01*
X86849Y82693D01*
X86876Y82729D01*
X86910Y82819D01*
X86952Y82906D01*
X86958Y82948D01*
X86975Y82993D01*
X86985Y83121D01*
X86999Y83210D01*
X86999Y91586D01*
X100033Y104620D01*
X104349Y104620D01*
X104399Y104631D01*
X104450Y104633D01*
X104482Y104651D01*
X104518Y104659D01*
X104557Y104692D01*
X104602Y104716D01*
X104623Y104746D01*
X104651Y104769D01*
X104672Y104816D01*
X104702Y104858D01*
X104710Y104900D01*
X104722Y104928D01*
X104721Y104958D01*
X104729Y105000D01*
X104729Y134769D01*
X107231Y137271D01*
X107455Y137271D01*
X107529Y137288D01*
X107604Y137301D01*
X107614Y137308D01*
X107624Y137310D01*
X107653Y137334D01*
X107724Y137382D01*
X125618Y155276D01*
X125658Y155340D01*
X125702Y155402D01*
X125704Y155415D01*
X125709Y155423D01*
X125713Y155460D01*
X125720Y155495D01*
X125722Y155501D01*
X125722Y155507D01*
X125729Y155545D01*
X125729Y158769D01*
X159231Y192271D01*
X166769Y192271D01*
X174731Y184309D01*
X174753Y184295D01*
X174769Y184275D01*
X174826Y184250D01*
X174878Y184217D01*
X174904Y184215D01*
X174928Y184204D01*
X174989Y184207D01*
X175051Y184201D01*
X175075Y184210D01*
X175101Y184211D01*
X175155Y184240D01*
X175213Y184262D01*
X175230Y184281D01*
X175253Y184294D01*
X175288Y184344D01*
X175330Y184389D01*
X175338Y184414D01*
X175353Y184435D01*
X175369Y184520D01*
X175380Y184556D01*
X175378Y184565D01*
X175380Y184577D01*
X175380Y193559D01*
X184208Y184731D01*
X184273Y184691D01*
X184335Y184647D01*
X184347Y184645D01*
X184355Y184640D01*
X184392Y184636D01*
X184477Y184620D01*
X206349Y184620D01*
X206399Y184631D01*
X206450Y184633D01*
X206482Y184651D01*
X206518Y184659D01*
X206557Y184692D01*
X206602Y184716D01*
X206623Y184746D01*
X206651Y184769D01*
X206672Y184816D01*
X206702Y184858D01*
X206710Y184900D01*
X206722Y184928D01*
X206721Y184958D01*
X206729Y185000D01*
X206729Y542459D01*
X206718Y542509D01*
X206716Y542560D01*
X206698Y542592D01*
X206690Y542628D01*
X206657Y542667D01*
X206633Y542712D01*
X206603Y542733D01*
X206580Y542761D01*
X206533Y542782D01*
X206491Y542812D01*
X206449Y542820D01*
X206421Y542832D01*
X206391Y542831D01*
X206349Y542839D01*
X79651Y542839D01*
X79601Y542828D01*
X79550Y542826D01*
X79518Y542808D01*
X79482Y542800D01*
X79443Y542767D01*
X79398Y542743D01*
X79377Y542713D01*
X79349Y542690D01*
X79328Y542643D01*
X79298Y542601D01*
X79290Y542559D01*
X79278Y542531D01*
X79279Y542509D01*
X79278Y542507D01*
X79278Y542497D01*
X79271Y542459D01*
X79271Y185000D01*
X79282Y184950D01*
X79284Y184899D01*
X79302Y184867D01*
X79310Y184831D01*
X79343Y184792D01*
X79367Y184747D01*
X79397Y184726D01*
X79420Y184698D01*
X79467Y184677D01*
X79509Y184647D01*
X79551Y184639D01*
X79579Y184627D01*
X79609Y184628D01*
X79651Y184620D01*
X84271Y184620D01*
X84271Y179764D01*
X81794Y173783D01*
X77217Y169206D01*
X71236Y166729D01*
X46881Y166729D01*
X46831Y166718D01*
X46780Y166716D01*
X46748Y166698D01*
X46712Y166690D01*
X46673Y166657D01*
X46628Y166633D01*
X46607Y166603D01*
X46579Y166580D01*
X46558Y166533D01*
X46528Y166491D01*
X46520Y166449D01*
X46508Y166421D01*
X46509Y166391D01*
X46501Y166349D01*
X46501Y160937D01*
X46501Y160935D01*
X46501Y160933D01*
X46530Y160791D01*
X48016Y157204D01*
X48016Y135236D01*
X45732Y129723D01*
X41512Y125503D01*
X35999Y123219D01*
X16381Y123219D01*
X16331Y123208D01*
X16280Y123206D01*
X16248Y123188D01*
X16212Y123180D01*
X16173Y123147D01*
X16128Y123123D01*
X16107Y123093D01*
X16079Y123070D01*
X16058Y123023D01*
X16028Y122981D01*
X16020Y122939D01*
X16008Y122911D01*
X16009Y122881D01*
X16001Y122839D01*
X16001Y20000D01*
X16001Y19000D01*
X16011Y18926D01*
X16011Y18871D01*
X16017Y18846D01*
X16019Y18809D01*
X16034Y18766D01*
X16041Y18721D01*
X16070Y18656D01*
X16086Y18599D01*
X16100Y18575D01*
X16112Y18542D01*
X16137Y18508D01*
X16157Y18464D01*
X16201Y18413D01*
X16234Y18359D01*
X16269Y18327D01*
X16293Y18293D01*
X16553Y18034D01*
X16800Y17607D01*
X16826Y17579D01*
X16860Y17528D01*
X17528Y16860D01*
X17560Y16840D01*
X17607Y16800D01*
X18034Y16553D01*
X18293Y16293D01*
X18370Y16236D01*
X18442Y16171D01*
X18483Y16151D01*
X18519Y16124D01*
X18609Y16090D01*
X18695Y16048D01*
X18737Y16042D01*
X18783Y16025D01*
X18911Y16015D01*
X19000Y16001D01*
X20000Y16001D01*
X80730Y16001D01*
X80794Y16010D01*
G37*
G36*
X274288Y189631D02*
X274288Y189631D01*
X274339Y189633D01*
X274371Y189651D01*
X274407Y189659D01*
X274446Y189692D01*
X274491Y189716D01*
X274512Y189746D01*
X274540Y189769D01*
X274561Y189816D01*
X274591Y189858D01*
X274599Y189900D01*
X274611Y189928D01*
X274610Y189958D01*
X274618Y190000D01*
X274618Y190604D01*
X274607Y190654D01*
X274605Y190705D01*
X274587Y190737D01*
X274579Y190773D01*
X274546Y190812D01*
X274522Y190857D01*
X274492Y190878D01*
X274469Y190906D01*
X274422Y190927D01*
X274380Y190957D01*
X274338Y190965D01*
X274310Y190977D01*
X274280Y190976D01*
X274238Y190984D01*
X264231Y190984D01*
X260555Y192507D01*
X257742Y195320D01*
X256219Y198996D01*
X256219Y221004D01*
X257057Y223028D01*
X257066Y223078D01*
X257083Y223126D01*
X257080Y223162D01*
X257086Y223199D01*
X257071Y223248D01*
X257065Y223298D01*
X257046Y223329D01*
X257035Y223364D01*
X257000Y223401D01*
X256972Y223445D01*
X256937Y223468D01*
X256916Y223490D01*
X256887Y223501D01*
X256852Y223525D01*
X255685Y224008D01*
X252872Y226821D01*
X251349Y230497D01*
X251349Y255303D01*
X252872Y258979D01*
X255685Y261792D01*
X259361Y263315D01*
X299238Y263315D01*
X299288Y263326D01*
X299339Y263328D01*
X299371Y263346D01*
X299407Y263354D01*
X299446Y263387D01*
X299491Y263411D01*
X299512Y263441D01*
X299540Y263464D01*
X299561Y263511D01*
X299591Y263553D01*
X299599Y263595D01*
X299611Y263623D01*
X299610Y263653D01*
X299618Y263695D01*
X299618Y334238D01*
X299607Y334288D01*
X299605Y334339D01*
X299587Y334371D01*
X299579Y334407D01*
X299546Y334446D01*
X299522Y334491D01*
X299492Y334512D01*
X299469Y334540D01*
X299422Y334561D01*
X299380Y334591D01*
X299338Y334599D01*
X299310Y334611D01*
X299280Y334610D01*
X299238Y334618D01*
X277935Y334618D01*
X274119Y336199D01*
X271199Y339119D01*
X269618Y342935D01*
X269618Y362105D01*
X269607Y362155D01*
X269605Y362206D01*
X269587Y362238D01*
X269579Y362274D01*
X269546Y362313D01*
X269522Y362358D01*
X269492Y362379D01*
X269469Y362407D01*
X269422Y362428D01*
X269380Y362458D01*
X269338Y362466D01*
X269310Y362478D01*
X269280Y362477D01*
X269238Y362485D01*
X259361Y362485D01*
X255685Y364008D01*
X252872Y366821D01*
X251349Y370497D01*
X251349Y395303D01*
X251987Y396844D01*
X252000Y396919D01*
X252016Y396993D01*
X252014Y397005D01*
X252016Y397015D01*
X252005Y397050D01*
X251987Y397135D01*
X251729Y397758D01*
X251729Y402242D01*
X253445Y406384D01*
X256616Y409555D01*
X260758Y411271D01*
X337242Y411271D01*
X341384Y409555D01*
X350555Y400384D01*
X352271Y396242D01*
X352271Y206651D01*
X352282Y206601D01*
X352284Y206550D01*
X352302Y206518D01*
X352310Y206482D01*
X352343Y206443D01*
X352367Y206398D01*
X352397Y206377D01*
X352420Y206349D01*
X352467Y206328D01*
X352509Y206298D01*
X352551Y206290D01*
X352579Y206278D01*
X352609Y206279D01*
X352651Y206271D01*
X442349Y206271D01*
X442399Y206282D01*
X442450Y206284D01*
X442482Y206302D01*
X442518Y206310D01*
X442557Y206343D01*
X442602Y206367D01*
X442623Y206397D01*
X442651Y206420D01*
X442672Y206467D01*
X442702Y206509D01*
X442710Y206551D01*
X442722Y206579D01*
X442721Y206609D01*
X442729Y206651D01*
X442729Y492860D01*
X442729Y492861D01*
X442729Y492863D01*
X442700Y493005D01*
X441401Y496141D01*
X441401Y503859D01*
X442700Y506995D01*
X442701Y506997D01*
X442702Y506998D01*
X442709Y507038D01*
X442717Y507056D01*
X442717Y507075D01*
X442729Y507140D01*
X442729Y518260D01*
X442729Y518261D01*
X442729Y518263D01*
X442700Y518405D01*
X441401Y521541D01*
X441401Y529259D01*
X442700Y532395D01*
X442701Y532397D01*
X442702Y532398D01*
X442729Y532540D01*
X442729Y542459D01*
X442718Y542509D01*
X442716Y542560D01*
X442698Y542592D01*
X442690Y542628D01*
X442657Y542667D01*
X442633Y542712D01*
X442603Y542733D01*
X442580Y542761D01*
X442533Y542782D01*
X442491Y542812D01*
X442449Y542820D01*
X442421Y542832D01*
X442391Y542831D01*
X442349Y542839D01*
X230762Y542839D01*
X230712Y542828D01*
X230661Y542826D01*
X230629Y542808D01*
X230593Y542800D01*
X230554Y542767D01*
X230509Y542743D01*
X230488Y542713D01*
X230460Y542690D01*
X230439Y542643D01*
X230409Y542601D01*
X230401Y542559D01*
X230389Y542531D01*
X230390Y542501D01*
X230382Y542459D01*
X230382Y190000D01*
X230393Y189950D01*
X230395Y189899D01*
X230413Y189867D01*
X230421Y189831D01*
X230454Y189792D01*
X230478Y189747D01*
X230508Y189726D01*
X230531Y189698D01*
X230578Y189677D01*
X230620Y189647D01*
X230662Y189639D01*
X230690Y189627D01*
X230720Y189628D01*
X230762Y189620D01*
X274238Y189620D01*
X274288Y189631D01*
G37*
G36*
X535050Y274631D02*
X535050Y274631D01*
X535101Y274633D01*
X535133Y274651D01*
X535169Y274659D01*
X535208Y274692D01*
X535253Y274716D01*
X535274Y274746D01*
X535302Y274769D01*
X535323Y274816D01*
X535353Y274858D01*
X535361Y274900D01*
X535373Y274928D01*
X535372Y274958D01*
X535380Y275000D01*
X535380Y340000D01*
X535369Y340050D01*
X535367Y340101D01*
X535349Y340133D01*
X535341Y340169D01*
X535308Y340208D01*
X535284Y340253D01*
X535254Y340274D01*
X535231Y340302D01*
X535184Y340323D01*
X535142Y340353D01*
X535100Y340361D01*
X535072Y340373D01*
X535042Y340372D01*
X535000Y340380D01*
X495380Y340380D01*
X495380Y367594D01*
X495363Y367668D01*
X495350Y367743D01*
X495343Y367753D01*
X495341Y367763D01*
X495317Y367792D01*
X495269Y367863D01*
X494684Y368448D01*
X493729Y370753D01*
X493729Y403247D01*
X494684Y405552D01*
X496448Y407316D01*
X498753Y408271D01*
X595000Y408271D01*
X595050Y408282D01*
X595101Y408284D01*
X595133Y408302D01*
X595169Y408310D01*
X595208Y408343D01*
X595253Y408367D01*
X595274Y408397D01*
X595302Y408420D01*
X595323Y408467D01*
X595353Y408509D01*
X595361Y408551D01*
X595373Y408579D01*
X595372Y408609D01*
X595380Y408651D01*
X595380Y542459D01*
X595369Y542509D01*
X595367Y542560D01*
X595349Y542592D01*
X595341Y542628D01*
X595308Y542667D01*
X595284Y542712D01*
X595254Y542733D01*
X595231Y542761D01*
X595184Y542782D01*
X595142Y542812D01*
X595100Y542820D01*
X595072Y542832D01*
X595042Y542831D01*
X595000Y542839D01*
X475000Y542839D01*
X474950Y542828D01*
X474899Y542826D01*
X474867Y542808D01*
X474831Y542800D01*
X474792Y542767D01*
X474747Y542743D01*
X474726Y542713D01*
X474698Y542690D01*
X474677Y542643D01*
X474647Y542601D01*
X474639Y542559D01*
X474627Y542531D01*
X474628Y542501D01*
X474620Y542459D01*
X474620Y535101D01*
X474626Y535076D01*
X474623Y535050D01*
X474645Y534992D01*
X474659Y534932D01*
X474676Y534912D01*
X474685Y534888D01*
X474730Y534846D01*
X474769Y534798D01*
X474793Y534788D01*
X474812Y534770D01*
X474871Y534753D01*
X474928Y534727D01*
X474953Y534728D01*
X474978Y534721D01*
X475039Y534732D01*
X475101Y534734D01*
X475123Y534746D01*
X475149Y534751D01*
X475220Y534799D01*
X475253Y534817D01*
X475259Y534825D01*
X475269Y534832D01*
X478044Y537607D01*
X483336Y539799D01*
X489064Y539799D01*
X494356Y537607D01*
X498407Y533556D01*
X500599Y528264D01*
X500599Y522536D01*
X498407Y517244D01*
X494356Y513193D01*
X494013Y513051D01*
X493992Y513036D01*
X493968Y513029D01*
X493923Y512986D01*
X493873Y512950D01*
X493860Y512927D01*
X493842Y512910D01*
X493820Y512852D01*
X493791Y512797D01*
X493790Y512772D01*
X493782Y512747D01*
X493788Y512686D01*
X493786Y512624D01*
X493797Y512601D01*
X493800Y512575D01*
X493833Y512523D01*
X493859Y512467D01*
X493879Y512450D01*
X493892Y512429D01*
X493965Y512381D01*
X493993Y512358D01*
X494003Y512355D01*
X494013Y512349D01*
X494356Y512207D01*
X498407Y508156D01*
X500599Y502864D01*
X500599Y497136D01*
X498407Y491844D01*
X494356Y487793D01*
X489064Y485601D01*
X483336Y485601D01*
X478044Y487793D01*
X475269Y490568D01*
X475247Y490582D01*
X475231Y490602D01*
X475174Y490627D01*
X475122Y490660D01*
X475096Y490662D01*
X475072Y490673D01*
X475011Y490670D01*
X474949Y490676D01*
X474925Y490667D01*
X474899Y490666D01*
X474845Y490637D01*
X474787Y490615D01*
X474770Y490596D01*
X474747Y490583D01*
X474712Y490533D01*
X474670Y490487D01*
X474662Y490463D01*
X474647Y490442D01*
X474631Y490357D01*
X474620Y490321D01*
X474622Y490311D01*
X474620Y490299D01*
X474620Y275000D01*
X474631Y274950D01*
X474633Y274899D01*
X474651Y274867D01*
X474659Y274831D01*
X474692Y274792D01*
X474716Y274747D01*
X474746Y274726D01*
X474769Y274698D01*
X474816Y274677D01*
X474858Y274647D01*
X474900Y274639D01*
X474928Y274627D01*
X474958Y274628D01*
X475000Y274620D01*
X535000Y274620D01*
X535050Y274631D01*
G37*
G36*
X593074Y129637D02*
X593074Y129637D01*
X593149Y129650D01*
X593159Y129657D01*
X593169Y129659D01*
X593198Y129683D01*
X593269Y129731D01*
X595269Y131731D01*
X595309Y131796D01*
X595353Y131858D01*
X595355Y131870D01*
X595360Y131878D01*
X595364Y131915D01*
X595380Y132000D01*
X595380Y365000D01*
X595369Y365050D01*
X595367Y365101D01*
X595349Y365133D01*
X595341Y365169D01*
X595308Y365208D01*
X595284Y365253D01*
X595254Y365274D01*
X595231Y365302D01*
X595184Y365323D01*
X595142Y365353D01*
X595100Y365361D01*
X595072Y365373D01*
X595042Y365372D01*
X595000Y365380D01*
X545000Y365380D01*
X544950Y365369D01*
X544899Y365367D01*
X544867Y365349D01*
X544831Y365341D01*
X544792Y365308D01*
X544747Y365284D01*
X544726Y365254D01*
X544698Y365231D01*
X544677Y365184D01*
X544647Y365142D01*
X544639Y365100D01*
X544627Y365072D01*
X544627Y365057D01*
X544627Y365055D01*
X544627Y365039D01*
X544620Y365000D01*
X544620Y190158D01*
X519843Y165380D01*
X507251Y165380D01*
X507177Y165363D01*
X507103Y165350D01*
X507092Y165343D01*
X507083Y165341D01*
X507054Y165317D01*
X506982Y165269D01*
X504692Y162978D01*
X501648Y161717D01*
X498352Y161717D01*
X495308Y162978D01*
X493018Y165269D01*
X492953Y165309D01*
X492891Y165353D01*
X492879Y165355D01*
X492870Y165360D01*
X492833Y165364D01*
X492749Y165380D01*
X445000Y165380D01*
X444926Y165363D01*
X444851Y165350D01*
X444841Y165343D01*
X444831Y165341D01*
X444802Y165317D01*
X444731Y165269D01*
X434731Y155269D01*
X434691Y155204D01*
X434647Y155142D01*
X434645Y155130D01*
X434640Y155122D01*
X434636Y155085D01*
X434620Y155000D01*
X434620Y130000D01*
X434631Y129950D01*
X434633Y129899D01*
X434651Y129867D01*
X434659Y129831D01*
X434692Y129792D01*
X434716Y129747D01*
X434746Y129726D01*
X434769Y129698D01*
X434816Y129677D01*
X434858Y129647D01*
X434900Y129639D01*
X434928Y129627D01*
X434958Y129628D01*
X435000Y129620D01*
X593000Y129620D01*
X593074Y129637D01*
G37*
G36*
X50050Y189631D02*
X50050Y189631D01*
X50101Y189633D01*
X50133Y189651D01*
X50169Y189659D01*
X50208Y189692D01*
X50253Y189716D01*
X50274Y189746D01*
X50302Y189769D01*
X50323Y189816D01*
X50353Y189858D01*
X50361Y189900D01*
X50373Y189928D01*
X50372Y189958D01*
X50380Y190000D01*
X50380Y470000D01*
X50369Y470050D01*
X50367Y470101D01*
X50349Y470133D01*
X50341Y470169D01*
X50308Y470208D01*
X50284Y470253D01*
X50254Y470274D01*
X50231Y470302D01*
X50184Y470323D01*
X50142Y470353D01*
X50100Y470361D01*
X50072Y470373D01*
X50042Y470372D01*
X50000Y470380D01*
X11541Y470380D01*
X11491Y470369D01*
X11440Y470367D01*
X11408Y470349D01*
X11372Y470341D01*
X11333Y470308D01*
X11288Y470284D01*
X11267Y470254D01*
X11239Y470231D01*
X11218Y470184D01*
X11188Y470142D01*
X11180Y470100D01*
X11168Y470072D01*
X11169Y470042D01*
X11161Y470000D01*
X11161Y190000D01*
X11172Y189950D01*
X11174Y189899D01*
X11192Y189867D01*
X11200Y189831D01*
X11233Y189792D01*
X11257Y189747D01*
X11287Y189726D01*
X11310Y189698D01*
X11357Y189677D01*
X11399Y189647D01*
X11441Y189639D01*
X11469Y189627D01*
X11499Y189628D01*
X11541Y189620D01*
X50000Y189620D01*
X50050Y189631D01*
G37*
G36*
X431050Y25012D02*
X431050Y25012D01*
X431101Y25014D01*
X431133Y25032D01*
X431169Y25040D01*
X431208Y25073D01*
X431253Y25097D01*
X431274Y25127D01*
X431302Y25150D01*
X431323Y25197D01*
X431353Y25239D01*
X431361Y25281D01*
X431373Y25309D01*
X431372Y25339D01*
X431380Y25381D01*
X431380Y50000D01*
X431374Y50025D01*
X431377Y50051D01*
X431355Y50109D01*
X431341Y50169D01*
X431324Y50189D01*
X431315Y50213D01*
X431270Y50255D01*
X431231Y50302D01*
X431207Y50313D01*
X431188Y50330D01*
X431129Y50348D01*
X431072Y50373D01*
X431047Y50372D01*
X431022Y50380D01*
X430961Y50369D01*
X430899Y50367D01*
X430877Y50354D01*
X430851Y50350D01*
X430780Y50302D01*
X430747Y50284D01*
X430741Y50276D01*
X430731Y50269D01*
X430380Y49918D01*
X430380Y87569D01*
X430369Y87619D01*
X430367Y87670D01*
X430349Y87702D01*
X430341Y87738D01*
X430308Y87777D01*
X430284Y87822D01*
X430254Y87843D01*
X430231Y87871D01*
X430184Y87892D01*
X430142Y87922D01*
X430100Y87930D01*
X430072Y87942D01*
X430042Y87941D01*
X430000Y87949D01*
X424929Y87949D01*
X421999Y90879D01*
X421999Y98381D01*
X421982Y98455D01*
X421969Y98530D01*
X421962Y98540D01*
X421960Y98550D01*
X421936Y98579D01*
X421888Y98650D01*
X405380Y115158D01*
X405380Y188349D01*
X405369Y188399D01*
X405367Y188450D01*
X405349Y188482D01*
X405341Y188518D01*
X405308Y188557D01*
X405284Y188602D01*
X405254Y188623D01*
X405231Y188651D01*
X405184Y188672D01*
X405142Y188702D01*
X405100Y188710D01*
X405072Y188722D01*
X405042Y188721D01*
X405000Y188729D01*
X395000Y188729D01*
X394950Y188718D01*
X394899Y188716D01*
X394867Y188698D01*
X394831Y188690D01*
X394792Y188657D01*
X394747Y188633D01*
X394726Y188603D01*
X394698Y188580D01*
X394677Y188533D01*
X394647Y188491D01*
X394639Y188449D01*
X394627Y188421D01*
X394628Y188391D01*
X394620Y188349D01*
X394620Y185380D01*
X370000Y185380D01*
X369950Y185369D01*
X369899Y185367D01*
X369867Y185349D01*
X369831Y185341D01*
X369792Y185308D01*
X369747Y185284D01*
X369726Y185254D01*
X369698Y185231D01*
X369677Y185184D01*
X369647Y185142D01*
X369639Y185100D01*
X369627Y185072D01*
X369628Y185042D01*
X369620Y185000D01*
X369620Y130000D01*
X369631Y129950D01*
X369633Y129899D01*
X369651Y129867D01*
X369659Y129831D01*
X369692Y129792D01*
X369716Y129747D01*
X369746Y129726D01*
X369769Y129698D01*
X369816Y129677D01*
X369858Y129647D01*
X369900Y129639D01*
X369928Y129627D01*
X369958Y129628D01*
X370000Y129620D01*
X394620Y129620D01*
X394620Y49380D01*
X180269Y49380D01*
X180267Y49380D01*
X180265Y49380D01*
X180123Y49351D01*
X176864Y48001D01*
X171136Y48001D01*
X167877Y49351D01*
X167875Y49352D01*
X167873Y49353D01*
X167731Y49380D01*
X166903Y49380D01*
X166853Y49369D01*
X166802Y49367D01*
X166770Y49349D01*
X166734Y49341D01*
X166695Y49308D01*
X166650Y49284D01*
X166629Y49254D01*
X166601Y49231D01*
X166580Y49184D01*
X166550Y49142D01*
X166542Y49100D01*
X166530Y49072D01*
X166531Y49042D01*
X166523Y49000D01*
X166523Y30868D01*
X166030Y29678D01*
X166029Y29676D01*
X166028Y29674D01*
X166021Y29637D01*
X166021Y29636D01*
X166021Y29635D01*
X166001Y29532D01*
X166001Y25381D01*
X166012Y25331D01*
X166014Y25280D01*
X166032Y25248D01*
X166040Y25212D01*
X166073Y25173D01*
X166097Y25128D01*
X166127Y25107D01*
X166150Y25079D01*
X166197Y25058D01*
X166239Y25028D01*
X166281Y25020D01*
X166309Y25008D01*
X166339Y25009D01*
X166381Y25001D01*
X431000Y25001D01*
X431050Y25012D01*
G37*
G36*
X385050Y103962D02*
X385050Y103962D01*
X385101Y103964D01*
X385133Y103982D01*
X385169Y103990D01*
X385208Y104023D01*
X385253Y104047D01*
X385274Y104077D01*
X385302Y104100D01*
X385323Y104147D01*
X385353Y104189D01*
X385361Y104231D01*
X385373Y104259D01*
X385372Y104289D01*
X385380Y104331D01*
X385380Y112969D01*
X385369Y113019D01*
X385367Y113070D01*
X385349Y113102D01*
X385341Y113138D01*
X385308Y113177D01*
X385284Y113222D01*
X385254Y113243D01*
X385231Y113271D01*
X385184Y113292D01*
X385142Y113322D01*
X385100Y113330D01*
X385072Y113342D01*
X385042Y113341D01*
X385000Y113349D01*
X381193Y113349D01*
X381191Y113349D01*
X381189Y113349D01*
X381047Y113320D01*
X381001Y113301D01*
X358626Y113301D01*
X355883Y114437D01*
X355820Y114448D01*
X355760Y114466D01*
X355736Y114462D01*
X355712Y114466D01*
X355651Y114447D01*
X355589Y114436D01*
X355567Y114421D01*
X355546Y114415D01*
X355519Y114389D01*
X355469Y114355D01*
X353163Y112050D01*
X349020Y112050D01*
X335269Y125801D01*
X326378Y134692D01*
X322050Y139020D01*
X322050Y143163D01*
X327764Y148877D01*
X335269Y156383D01*
X335309Y156447D01*
X335353Y156509D01*
X335355Y156521D01*
X335360Y156530D01*
X335364Y156567D01*
X335380Y156651D01*
X335380Y370000D01*
X335369Y370050D01*
X335367Y370101D01*
X335349Y370133D01*
X335341Y370169D01*
X335308Y370208D01*
X335284Y370253D01*
X335254Y370274D01*
X335231Y370302D01*
X335184Y370323D01*
X335142Y370353D01*
X335100Y370361D01*
X335072Y370373D01*
X335042Y370372D01*
X335000Y370380D01*
X310000Y370380D01*
X309950Y370369D01*
X309899Y370367D01*
X309867Y370349D01*
X309831Y370341D01*
X309792Y370308D01*
X309747Y370284D01*
X309726Y370254D01*
X309698Y370231D01*
X309677Y370184D01*
X309647Y370142D01*
X309639Y370100D01*
X309627Y370072D01*
X309628Y370042D01*
X309620Y370000D01*
X309620Y200380D01*
X309161Y200380D01*
X309111Y200369D01*
X309060Y200367D01*
X309028Y200349D01*
X308992Y200341D01*
X308953Y200308D01*
X308908Y200284D01*
X308887Y200254D01*
X308859Y200231D01*
X308838Y200184D01*
X308808Y200142D01*
X308800Y200100D01*
X308788Y200072D01*
X308789Y200042D01*
X308781Y200000D01*
X308781Y198914D01*
X305851Y195984D01*
X285709Y195984D01*
X285269Y196424D01*
X285247Y196438D01*
X285231Y196458D01*
X285174Y196483D01*
X285122Y196515D01*
X285096Y196518D01*
X285072Y196528D01*
X285011Y196526D01*
X284949Y196532D01*
X284925Y196523D01*
X284899Y196522D01*
X284845Y196492D01*
X284787Y196470D01*
X284770Y196451D01*
X284747Y196439D01*
X284712Y196389D01*
X284670Y196343D01*
X284662Y196318D01*
X284647Y196297D01*
X284631Y196213D01*
X284620Y196177D01*
X284622Y196167D01*
X284620Y196155D01*
X284620Y151985D01*
X284626Y151960D01*
X284623Y151934D01*
X284645Y151876D01*
X284659Y151816D01*
X284676Y151796D01*
X284685Y151772D01*
X284730Y151730D01*
X284769Y151682D01*
X284793Y151672D01*
X284812Y151654D01*
X284871Y151637D01*
X284928Y151612D01*
X284953Y151613D01*
X284978Y151605D01*
X285039Y151616D01*
X285101Y151618D01*
X285123Y151631D01*
X285149Y151635D01*
X285220Y151683D01*
X285253Y151701D01*
X285259Y151709D01*
X285269Y151716D01*
X285360Y151807D01*
X300648Y151807D01*
X303578Y148877D01*
X303578Y138811D01*
X303595Y138737D01*
X303608Y138662D01*
X303615Y138652D01*
X303617Y138642D01*
X303641Y138614D01*
X303689Y138542D01*
X305531Y136700D01*
X305869Y135886D01*
X305870Y135884D01*
X305870Y135883D01*
X305951Y135763D01*
X307022Y134692D01*
X308283Y131648D01*
X308283Y130314D01*
X308289Y130289D01*
X308286Y130264D01*
X308308Y130206D01*
X308322Y130146D01*
X308339Y130126D01*
X308348Y130102D01*
X308393Y130060D01*
X308432Y130012D01*
X308456Y130001D01*
X308475Y129984D01*
X308534Y129966D01*
X308591Y129941D01*
X308616Y129942D01*
X308641Y129935D01*
X308702Y129945D01*
X308764Y129948D01*
X308786Y129960D01*
X308812Y129964D01*
X308883Y130013D01*
X308916Y130030D01*
X308922Y130039D01*
X308932Y130046D01*
X310837Y131950D01*
X314980Y131950D01*
X341950Y104980D01*
X341950Y104379D01*
X341962Y104329D01*
X341964Y104278D01*
X341982Y104246D01*
X341990Y104210D01*
X342022Y104171D01*
X342047Y104126D01*
X342077Y104105D01*
X342100Y104077D01*
X342147Y104056D01*
X342188Y104026D01*
X342230Y104018D01*
X342258Y104006D01*
X342289Y104007D01*
X342331Y103999D01*
X381001Y103999D01*
X381047Y103980D01*
X381049Y103979D01*
X381050Y103978D01*
X381193Y103951D01*
X385000Y103951D01*
X385050Y103962D01*
G37*
G36*
X375050Y59631D02*
X375050Y59631D01*
X375101Y59633D01*
X375133Y59651D01*
X375169Y59659D01*
X375208Y59692D01*
X375253Y59716D01*
X375274Y59746D01*
X375302Y59769D01*
X375323Y59816D01*
X375353Y59858D01*
X375361Y59900D01*
X375373Y59928D01*
X375372Y59958D01*
X375380Y60000D01*
X375380Y95000D01*
X375369Y95050D01*
X375367Y95101D01*
X375349Y95133D01*
X375341Y95169D01*
X375308Y95208D01*
X375284Y95253D01*
X375254Y95274D01*
X375231Y95302D01*
X375184Y95323D01*
X375142Y95353D01*
X375100Y95361D01*
X375072Y95373D01*
X375042Y95372D01*
X375000Y95380D01*
X330158Y95380D01*
X310269Y115269D01*
X310204Y115309D01*
X310142Y115353D01*
X310130Y115355D01*
X310122Y115360D01*
X310085Y115364D01*
X310000Y115380D01*
X305000Y115380D01*
X304950Y115369D01*
X304899Y115367D01*
X304867Y115349D01*
X304831Y115341D01*
X304792Y115308D01*
X304747Y115284D01*
X304726Y115254D01*
X304698Y115231D01*
X304677Y115184D01*
X304647Y115142D01*
X304639Y115100D01*
X304627Y115072D01*
X304628Y115042D01*
X304620Y115000D01*
X304620Y73958D01*
X304637Y73884D01*
X304650Y73810D01*
X304657Y73799D01*
X304659Y73790D01*
X304683Y73761D01*
X304731Y73690D01*
X305446Y72975D01*
X306783Y69747D01*
X306783Y66253D01*
X305446Y63025D01*
X304731Y62310D01*
X304691Y62246D01*
X304647Y62184D01*
X304645Y62172D01*
X304640Y62163D01*
X304636Y62126D01*
X304620Y62042D01*
X304620Y60000D01*
X304631Y59950D01*
X304633Y59899D01*
X304651Y59867D01*
X304659Y59831D01*
X304692Y59792D01*
X304716Y59747D01*
X304746Y59726D01*
X304769Y59698D01*
X304816Y59677D01*
X304858Y59647D01*
X304900Y59639D01*
X304928Y59627D01*
X304958Y59628D01*
X305000Y59620D01*
X375000Y59620D01*
X375050Y59631D01*
G37*
G36*
X525050Y174631D02*
X525050Y174631D01*
X525101Y174633D01*
X525133Y174651D01*
X525169Y174659D01*
X525208Y174692D01*
X525253Y174716D01*
X525274Y174746D01*
X525302Y174769D01*
X525323Y174816D01*
X525353Y174858D01*
X525361Y174900D01*
X525373Y174928D01*
X525372Y174958D01*
X525380Y175000D01*
X525380Y234620D01*
X535000Y234620D01*
X535050Y234631D01*
X535101Y234633D01*
X535133Y234651D01*
X535169Y234659D01*
X535208Y234692D01*
X535253Y234716D01*
X535274Y234746D01*
X535302Y234769D01*
X535323Y234816D01*
X535353Y234858D01*
X535361Y234900D01*
X535373Y234928D01*
X535372Y234958D01*
X535380Y235000D01*
X535380Y255000D01*
X535369Y255050D01*
X535367Y255101D01*
X535349Y255133D01*
X535341Y255169D01*
X535308Y255208D01*
X535284Y255253D01*
X535254Y255274D01*
X535231Y255302D01*
X535184Y255323D01*
X535142Y255353D01*
X535100Y255361D01*
X535072Y255373D01*
X535042Y255372D01*
X535000Y255380D01*
X505000Y255380D01*
X504950Y255369D01*
X504899Y255367D01*
X504867Y255349D01*
X504831Y255341D01*
X504792Y255308D01*
X504747Y255284D01*
X504726Y255254D01*
X504698Y255231D01*
X504677Y255184D01*
X504647Y255142D01*
X504639Y255100D01*
X504627Y255072D01*
X504628Y255042D01*
X504620Y255000D01*
X504620Y175000D01*
X504631Y174950D01*
X504633Y174899D01*
X504651Y174867D01*
X504659Y174831D01*
X504692Y174792D01*
X504716Y174747D01*
X504746Y174726D01*
X504769Y174698D01*
X504816Y174677D01*
X504858Y174647D01*
X504900Y174639D01*
X504928Y174627D01*
X504958Y174628D01*
X505000Y174620D01*
X525000Y174620D01*
X525050Y174631D01*
G37*
G36*
X535050Y344631D02*
X535050Y344631D01*
X535101Y344633D01*
X535133Y344651D01*
X535169Y344659D01*
X535208Y344692D01*
X535253Y344716D01*
X535274Y344746D01*
X535302Y344769D01*
X535323Y344816D01*
X535353Y344858D01*
X535361Y344900D01*
X535373Y344928D01*
X535372Y344958D01*
X535380Y345000D01*
X535380Y374620D01*
X565000Y374620D01*
X565050Y374631D01*
X565101Y374633D01*
X565133Y374651D01*
X565169Y374659D01*
X565208Y374692D01*
X565253Y374716D01*
X565274Y374746D01*
X565302Y374769D01*
X565323Y374816D01*
X565353Y374858D01*
X565361Y374900D01*
X565373Y374928D01*
X565372Y374958D01*
X565380Y375000D01*
X565380Y395000D01*
X565369Y395050D01*
X565367Y395101D01*
X565349Y395133D01*
X565341Y395169D01*
X565308Y395208D01*
X565284Y395253D01*
X565254Y395274D01*
X565231Y395302D01*
X565184Y395323D01*
X565142Y395353D01*
X565100Y395361D01*
X565072Y395373D01*
X565042Y395372D01*
X565000Y395380D01*
X515000Y395380D01*
X514950Y395369D01*
X514899Y395367D01*
X514867Y395349D01*
X514831Y395341D01*
X514792Y395308D01*
X514747Y395284D01*
X514726Y395254D01*
X514698Y395231D01*
X514677Y395184D01*
X514647Y395142D01*
X514639Y395100D01*
X514627Y395072D01*
X514628Y395042D01*
X514620Y395000D01*
X514620Y345000D01*
X514631Y344950D01*
X514633Y344899D01*
X514651Y344867D01*
X514659Y344831D01*
X514692Y344792D01*
X514716Y344747D01*
X514746Y344726D01*
X514769Y344698D01*
X514816Y344677D01*
X514858Y344647D01*
X514900Y344639D01*
X514928Y344627D01*
X514958Y344628D01*
X515000Y344620D01*
X535000Y344620D01*
X535050Y344631D01*
G37*
G36*
X424814Y116637D02*
X424814Y116637D01*
X424889Y116650D01*
X424890Y116651D01*
X444313Y116651D01*
X444318Y116647D01*
X444330Y116645D01*
X444338Y116640D01*
X444375Y116636D01*
X444460Y116620D01*
X454619Y116620D01*
X454669Y116631D01*
X454720Y116633D01*
X454752Y116651D01*
X454788Y116659D01*
X454827Y116692D01*
X454872Y116716D01*
X454893Y116746D01*
X454921Y116769D01*
X454942Y116816D01*
X454972Y116858D01*
X454980Y116900D01*
X454992Y116928D01*
X454991Y116958D01*
X454999Y117000D01*
X454999Y122593D01*
X455351Y123443D01*
X455352Y123445D01*
X455353Y123447D01*
X455380Y123589D01*
X455380Y127000D01*
X455369Y127050D01*
X455367Y127101D01*
X455349Y127133D01*
X455341Y127169D01*
X455308Y127208D01*
X455284Y127253D01*
X455254Y127274D01*
X455231Y127302D01*
X455184Y127323D01*
X455142Y127353D01*
X455100Y127361D01*
X455072Y127373D01*
X455042Y127372D01*
X455000Y127380D01*
X445760Y127380D01*
X445686Y127363D01*
X445611Y127350D01*
X445601Y127343D01*
X445591Y127341D01*
X445562Y127317D01*
X445491Y127269D01*
X444271Y126049D01*
X424929Y126049D01*
X423709Y127269D01*
X423644Y127309D01*
X423582Y127353D01*
X423570Y127355D01*
X423562Y127360D01*
X423525Y127364D01*
X423440Y127380D01*
X420380Y127380D01*
X420380Y146620D01*
X430000Y146620D01*
X430050Y146631D01*
X430101Y146633D01*
X430133Y146651D01*
X430169Y146659D01*
X430208Y146692D01*
X430253Y146716D01*
X430274Y146746D01*
X430302Y146769D01*
X430323Y146816D01*
X430353Y146858D01*
X430361Y146900D01*
X430373Y146928D01*
X430372Y146958D01*
X430380Y147000D01*
X430380Y187000D01*
X430369Y187050D01*
X430367Y187101D01*
X430349Y187133D01*
X430341Y187169D01*
X430308Y187208D01*
X430284Y187253D01*
X430254Y187274D01*
X430231Y187302D01*
X430184Y187323D01*
X430142Y187353D01*
X430100Y187361D01*
X430072Y187373D01*
X430042Y187372D01*
X430000Y187380D01*
X410000Y187380D01*
X409950Y187369D01*
X409899Y187367D01*
X409867Y187349D01*
X409831Y187341D01*
X409792Y187308D01*
X409747Y187284D01*
X409726Y187254D01*
X409698Y187231D01*
X409677Y187184D01*
X409647Y187142D01*
X409639Y187100D01*
X409627Y187072D01*
X409628Y187042D01*
X409628Y187040D01*
X409627Y187038D01*
X409627Y187036D01*
X409620Y187000D01*
X409620Y117000D01*
X409631Y116950D01*
X409633Y116899D01*
X409651Y116867D01*
X409659Y116831D01*
X409692Y116792D01*
X409716Y116747D01*
X409746Y116726D01*
X409769Y116698D01*
X409816Y116677D01*
X409858Y116647D01*
X409900Y116639D01*
X409928Y116627D01*
X409958Y116628D01*
X410000Y116620D01*
X424740Y116620D01*
X424814Y116637D01*
G37*
G36*
X300050Y344631D02*
X300050Y344631D01*
X300101Y344633D01*
X300133Y344651D01*
X300169Y344659D01*
X300208Y344692D01*
X300253Y344716D01*
X300274Y344746D01*
X300302Y344769D01*
X300323Y344816D01*
X300353Y344858D01*
X300361Y344900D01*
X300373Y344928D01*
X300372Y344958D01*
X300380Y345000D01*
X300380Y374620D01*
X320000Y374620D01*
X320050Y374631D01*
X320101Y374633D01*
X320133Y374651D01*
X320169Y374659D01*
X320208Y374692D01*
X320253Y374716D01*
X320274Y374746D01*
X320302Y374769D01*
X320323Y374816D01*
X320353Y374858D01*
X320361Y374900D01*
X320373Y374928D01*
X320372Y374958D01*
X320380Y375000D01*
X320380Y390000D01*
X320369Y390050D01*
X320367Y390101D01*
X320349Y390133D01*
X320341Y390169D01*
X320308Y390208D01*
X320284Y390253D01*
X320254Y390274D01*
X320231Y390302D01*
X320184Y390323D01*
X320142Y390353D01*
X320100Y390361D01*
X320072Y390373D01*
X320042Y390372D01*
X320000Y390380D01*
X280000Y390380D01*
X279950Y390369D01*
X279899Y390367D01*
X279867Y390349D01*
X279831Y390341D01*
X279792Y390308D01*
X279747Y390284D01*
X279726Y390254D01*
X279698Y390231D01*
X279677Y390184D01*
X279647Y390142D01*
X279639Y390100D01*
X279627Y390072D01*
X279628Y390042D01*
X279620Y390000D01*
X279620Y345000D01*
X279631Y344950D01*
X279633Y344899D01*
X279651Y344867D01*
X279659Y344831D01*
X279692Y344792D01*
X279716Y344747D01*
X279746Y344726D01*
X279769Y344698D01*
X279816Y344677D01*
X279858Y344647D01*
X279900Y344639D01*
X279928Y344627D01*
X279958Y344628D01*
X280000Y344620D01*
X300000Y344620D01*
X300050Y344631D01*
G37*
G36*
X355074Y124637D02*
X355074Y124637D01*
X355149Y124650D01*
X355159Y124657D01*
X355169Y124659D01*
X355198Y124683D01*
X355269Y124731D01*
X360269Y129731D01*
X360309Y129796D01*
X360353Y129858D01*
X360355Y129870D01*
X360360Y129878D01*
X360364Y129915D01*
X360380Y130000D01*
X360380Y175000D01*
X360369Y175050D01*
X360367Y175101D01*
X360349Y175133D01*
X360341Y175169D01*
X360308Y175208D01*
X360284Y175253D01*
X360254Y175274D01*
X360231Y175302D01*
X360184Y175323D01*
X360142Y175353D01*
X360100Y175361D01*
X360072Y175373D01*
X360042Y175372D01*
X360000Y175380D01*
X340000Y175380D01*
X339950Y175369D01*
X339899Y175367D01*
X339867Y175349D01*
X339831Y175341D01*
X339792Y175308D01*
X339747Y175284D01*
X339726Y175254D01*
X339698Y175231D01*
X339677Y175184D01*
X339647Y175142D01*
X339639Y175100D01*
X339627Y175072D01*
X339628Y175042D01*
X339620Y175000D01*
X339620Y135000D01*
X339637Y134926D01*
X339650Y134851D01*
X339657Y134841D01*
X339659Y134831D01*
X339683Y134802D01*
X339731Y134731D01*
X349731Y124731D01*
X349796Y124691D01*
X349858Y124647D01*
X349870Y124645D01*
X349878Y124640D01*
X349915Y124636D01*
X350000Y124620D01*
X355000Y124620D01*
X355074Y124637D01*
G37*
G36*
X295050Y204631D02*
X295050Y204631D01*
X295101Y204633D01*
X295133Y204651D01*
X295169Y204659D01*
X295208Y204692D01*
X295253Y204716D01*
X295274Y204746D01*
X295302Y204769D01*
X295323Y204816D01*
X295353Y204858D01*
X295361Y204900D01*
X295373Y204928D01*
X295372Y204958D01*
X295380Y205000D01*
X295380Y250000D01*
X295369Y250050D01*
X295367Y250101D01*
X295349Y250133D01*
X295341Y250169D01*
X295308Y250208D01*
X295284Y250253D01*
X295254Y250274D01*
X295231Y250302D01*
X295184Y250323D01*
X295142Y250353D01*
X295100Y250361D01*
X295072Y250373D01*
X295042Y250372D01*
X295000Y250380D01*
X280000Y250380D01*
X279950Y250369D01*
X279899Y250367D01*
X279867Y250349D01*
X279831Y250341D01*
X279792Y250308D01*
X279747Y250284D01*
X279726Y250254D01*
X279698Y250231D01*
X279677Y250184D01*
X279647Y250142D01*
X279639Y250100D01*
X279627Y250072D01*
X279628Y250042D01*
X279620Y250000D01*
X279620Y205000D01*
X279631Y204950D01*
X279633Y204899D01*
X279651Y204867D01*
X279659Y204831D01*
X279692Y204792D01*
X279716Y204747D01*
X279746Y204726D01*
X279769Y204698D01*
X279816Y204677D01*
X279858Y204647D01*
X279900Y204639D01*
X279928Y204627D01*
X279958Y204628D01*
X280000Y204620D01*
X295000Y204620D01*
X295050Y204631D01*
G37*
D10*
X393000Y177000D03*
X421000Y177000D03*
X393000Y152000D03*
X421000Y152000D03*
D11*
G36*
X336949Y102908D02*
X323514Y89473D01*
X299473Y113514D01*
X312908Y126949D01*
X336949Y102908D01*
G37*
G36*
X364527Y130486D02*
X351092Y117051D01*
X327051Y141092D01*
X340486Y154527D01*
X364527Y130486D01*
G37*
D12*
X379400Y108650D03*
X379400Y121350D03*
X379400Y134050D03*
X379400Y95950D03*
X434600Y108650D03*
X434600Y121350D03*
X434600Y134050D03*
X434600Y95950D03*
D13*
X366505Y73000D03*
X413495Y73000D03*
D14*
X531996Y75000D03*
X564004Y75000D03*
X531996Y51000D03*
X564004Y51000D03*
D15*
X520400Y242900D03*
X520400Y293700D03*
D16*
X406100Y268300D03*
D17*
X548160Y213000D03*
X519720Y213000D03*
X480780Y186380D03*
X509220Y186380D03*
D15*
X520400Y382900D03*
X520400Y433700D03*
D16*
X406100Y408300D03*
D18*
X553000Y355840D03*
X553000Y384280D03*
D17*
X500780Y355380D03*
X529220Y355380D03*
D14*
X260996Y165000D03*
X293004Y165000D03*
X260996Y140000D03*
X293004Y140000D03*
D15*
X280400Y242900D03*
X280400Y293700D03*
D16*
X166100Y268300D03*
D17*
X324220Y210000D03*
X295780Y210000D03*
X245780Y210000D03*
X274220Y210000D03*
D15*
X280400Y382900D03*
X280400Y433700D03*
D16*
X166100Y408300D03*
D18*
X317680Y354840D03*
X317680Y383280D03*
D17*
X260920Y354380D03*
X289360Y354380D03*
D19*
X87000Y369000D03*
X36000Y369000D03*
X87000Y433000D03*
X36000Y433000D03*
X87000Y305000D03*
X36000Y305000D03*
X87000Y241000D03*
X36000Y241000D03*
D13*
X198000Y104505D03*
X198000Y151495D03*
X621000Y255495D03*
X621000Y208505D03*
D18*
X24000Y117780D03*
X24000Y146220D03*
D17*
X473780Y75000D03*
X502220Y75000D03*
D20*
X24000Y201500D03*
X24000Y166500D03*
X505500Y50000D03*
X470500Y50000D03*
D21*
X315000Y170000D03*
X570000Y315000D03*
X629000Y436000D03*
X599000Y93000D03*
D22*
X47000Y37000D03*
X47000Y62400D03*
X72400Y37000D03*
X72400Y62400D03*
X97800Y37000D03*
X97800Y62400D03*
X123200Y37000D03*
X123200Y62400D03*
X148600Y37000D03*
X148600Y62400D03*
X174000Y37000D03*
X174000Y62400D03*
X410000Y500000D03*
X410000Y525400D03*
X435400Y500000D03*
X435400Y525400D03*
X460800Y500000D03*
X460800Y525400D03*
X486200Y500000D03*
X486200Y525400D03*
X511600Y500000D03*
X511600Y525400D03*
X537000Y500000D03*
X537000Y525400D03*
D23*
G36*
X161181Y161575D02*
X151989Y152383D01*
X141383Y162989D01*
X150575Y172181D01*
X161181Y161575D01*
G37*
G36*
X174617Y175011D02*
X165425Y165819D01*
X154819Y176425D01*
X164011Y185617D01*
X174617Y175011D01*
G37*
D24*
X461125Y121375D02*
X488875Y121375D01*
X488875Y108625D01*
X461125Y108625D01*
X461125Y121375D01*
X461125Y110762D02*
X488875Y110762D01*
X488875Y112899D02*
X461125Y112899D01*
X461125Y115036D02*
X488875Y115036D01*
X488875Y117173D02*
X461125Y117173D01*
X461125Y119310D02*
X488875Y119310D01*
X158875Y88625D02*
X131125Y88625D01*
X131125Y101375D01*
X158875Y101375D01*
X158875Y88625D01*
X158875Y90762D02*
X131125Y90762D01*
X131125Y92899D02*
X158875Y92899D01*
X158875Y95036D02*
X131125Y95036D01*
X131125Y97173D02*
X158875Y97173D01*
X158875Y99310D02*
X131125Y99310D01*
X328625Y411125D02*
X328625Y438875D01*
X341375Y438875D01*
X341375Y411125D01*
X328625Y411125D01*
X328625Y413262D02*
X341375Y413262D01*
X341375Y415399D02*
X328625Y415399D01*
X328625Y417536D02*
X341375Y417536D01*
X341375Y419673D02*
X328625Y419673D01*
X328625Y421810D02*
X341375Y421810D01*
X341375Y423947D02*
X328625Y423947D01*
X328625Y426084D02*
X341375Y426084D01*
X341375Y428221D02*
X328625Y428221D01*
X328625Y430358D02*
X341375Y430358D01*
X341375Y432495D02*
X328625Y432495D01*
X328625Y434632D02*
X341375Y434632D01*
X341375Y436769D02*
X328625Y436769D01*
X568625Y443875D02*
X568625Y416125D01*
X568625Y443875D02*
X581375Y443875D01*
X581375Y416125D01*
X568625Y416125D01*
X568625Y418262D02*
X581375Y418262D01*
X581375Y420399D02*
X568625Y420399D01*
X568625Y422536D02*
X581375Y422536D01*
X581375Y424673D02*
X568625Y424673D01*
X568625Y426810D02*
X581375Y426810D01*
X581375Y428947D02*
X568625Y428947D01*
X568625Y431084D02*
X581375Y431084D01*
X581375Y433221D02*
X568625Y433221D01*
X568625Y435358D02*
X581375Y435358D01*
X581375Y437495D02*
X568625Y437495D01*
X568625Y439632D02*
X581375Y439632D01*
X581375Y441769D02*
X568625Y441769D01*
X591375Y363875D02*
X591375Y336125D01*
X578625Y336125D01*
X578625Y363875D01*
X591375Y363875D01*
X591375Y338262D02*
X578625Y338262D01*
X578625Y340399D02*
X591375Y340399D01*
X591375Y342536D02*
X578625Y342536D01*
X578625Y344673D02*
X591375Y344673D01*
X591375Y346810D02*
X578625Y346810D01*
X578625Y348947D02*
X591375Y348947D01*
X591375Y351084D02*
X578625Y351084D01*
X578625Y353221D02*
X591375Y353221D01*
X591375Y355358D02*
X578625Y355358D01*
X578625Y357495D02*
X591375Y357495D01*
X591375Y359632D02*
X578625Y359632D01*
X578625Y361769D02*
X591375Y361769D01*
X331375Y338875D02*
X331375Y311125D01*
X318625Y311125D01*
X318625Y338875D01*
X331375Y338875D01*
X331375Y313262D02*
X318625Y313262D01*
X318625Y315399D02*
X331375Y315399D01*
X331375Y317536D02*
X318625Y317536D01*
X318625Y319673D02*
X331375Y319673D01*
X331375Y321810D02*
X318625Y321810D01*
X318625Y323947D02*
X331375Y323947D01*
X331375Y326084D02*
X318625Y326084D01*
X318625Y328221D02*
X331375Y328221D01*
X331375Y330358D02*
X318625Y330358D01*
X318625Y332495D02*
X331375Y332495D01*
X331375Y334632D02*
X318625Y334632D01*
X318625Y336769D02*
X331375Y336769D01*
X521125Y121375D02*
X548875Y121375D01*
X548875Y108625D01*
X521125Y108625D01*
X521125Y121375D01*
X521125Y110762D02*
X548875Y110762D01*
X548875Y112899D02*
X521125Y112899D01*
X521125Y115036D02*
X548875Y115036D01*
X548875Y117173D02*
X521125Y117173D01*
X521125Y119310D02*
X548875Y119310D01*
X158875Y121625D02*
X131125Y121625D01*
X131125Y134375D01*
X158875Y134375D01*
X158875Y121625D01*
X158875Y123762D02*
X131125Y123762D01*
X131125Y125899D02*
X158875Y125899D01*
X158875Y128036D02*
X131125Y128036D01*
X131125Y130173D02*
X158875Y130173D01*
X158875Y132310D02*
X131125Y132310D01*
X613625Y316125D02*
X613625Y343875D01*
X626375Y343875D01*
X626375Y316125D01*
X613625Y316125D01*
X613625Y318262D02*
X626375Y318262D01*
X626375Y320399D02*
X613625Y320399D01*
X613625Y322536D02*
X626375Y322536D01*
X626375Y324673D02*
X613625Y324673D01*
X613625Y326810D02*
X626375Y326810D01*
X626375Y328947D02*
X613625Y328947D01*
X613625Y331084D02*
X626375Y331084D01*
X626375Y333221D02*
X613625Y333221D01*
X613625Y335358D02*
X626375Y335358D01*
X626375Y337495D02*
X613625Y337495D01*
X613625Y339632D02*
X626375Y339632D01*
X626375Y341769D02*
X613625Y341769D01*
D13*
X233505Y69000D03*
X280495Y69000D03*
X233505Y104000D03*
X280495Y104000D03*
X660000Y172495D03*
X660000Y125505D03*
X659000Y255495D03*
X659000Y208505D03*
D25*
X415000Y275000D02*
X411000Y275000D01*
X415000Y275000D02*
X415000Y271000D01*
X411000Y281000D02*
X398300Y293700D01*
X411000Y281000D02*
X411000Y275000D01*
X233000Y295000D02*
X233000Y347000D01*
X233000Y354380D01*
X234300Y293700D02*
X280400Y293700D01*
X234300Y293700D02*
X233000Y295000D01*
X233000Y354380D02*
X260920Y354380D01*
X233080Y347080D02*
X233000Y347000D01*
X275000Y140000D02*
X293004Y140000D01*
X275000Y178160D02*
X245780Y210000D01*
X275000Y178160D02*
X275000Y140000D01*
D26*
X360000Y460000D03*
X360000Y450000D03*
X360000Y440000D03*
X360000Y430000D03*
X360000Y420000D03*
X360000Y410000D03*
X360000Y400000D03*
X360000Y390000D03*
X360000Y380000D03*
X360000Y370000D03*
X360000Y360000D03*
X360000Y350000D03*
X370000Y360000D03*
X370000Y370000D03*
X370000Y380000D03*
X370000Y390000D03*
X370000Y400000D03*
X370000Y410000D03*
X370000Y420000D03*
X370000Y430000D03*
X370000Y440000D03*
X370000Y450000D03*
X370000Y460000D03*
X380000Y460000D03*
X380000Y450000D03*
X380000Y440000D03*
X380000Y430000D03*
X380000Y420000D03*
X380000Y410000D03*
X380000Y400000D03*
X380000Y390000D03*
X380000Y380000D03*
X380000Y370000D03*
X380000Y360000D03*
X380000Y350000D03*
X390000Y460000D03*
X390000Y450000D03*
X390000Y440000D03*
X390000Y430000D03*
X390000Y420000D03*
X390000Y410000D03*
X390000Y400000D03*
X390000Y390000D03*
X390000Y380000D03*
X390000Y370000D03*
X390000Y360000D03*
X390000Y350000D03*
X390000Y340000D03*
X400000Y340000D03*
X400000Y350000D03*
X400000Y360000D03*
X400000Y370000D03*
X400000Y380000D03*
X400000Y390000D03*
X400000Y400000D03*
X400000Y410000D03*
X400000Y420000D03*
X400000Y430000D03*
X400000Y440000D03*
X400000Y450000D03*
X400000Y460000D03*
X410000Y460000D03*
X410000Y450000D03*
X410000Y440000D03*
X410000Y430000D03*
X410000Y420000D03*
X410000Y410000D03*
X410000Y400000D03*
X410000Y390000D03*
X410000Y380000D03*
X410000Y370000D03*
X410000Y360000D03*
X410000Y350000D03*
X410000Y340000D03*
X420000Y460000D03*
X420000Y450000D03*
X420000Y440000D03*
X420000Y430000D03*
X420000Y420000D03*
X420000Y410000D03*
X420000Y400000D03*
X420000Y390000D03*
X420000Y380000D03*
X420000Y370000D03*
X420000Y360000D03*
X420000Y350000D03*
X420000Y340000D03*
X430000Y340000D03*
X430000Y350000D03*
X430000Y360000D03*
X430000Y370000D03*
X430000Y380000D03*
X430000Y390000D03*
X430000Y400000D03*
X430000Y410000D03*
X430000Y420000D03*
X430000Y430000D03*
X430000Y440000D03*
X430000Y450000D03*
X430000Y460000D03*
X440000Y460000D03*
X440000Y450000D03*
X440000Y440000D03*
X440000Y430000D03*
X440000Y420000D03*
X440000Y410000D03*
X440000Y400000D03*
X440000Y390000D03*
X440000Y380000D03*
X440000Y370000D03*
X440000Y360000D03*
X440000Y350000D03*
X440000Y340000D03*
X360000Y320000D03*
X360000Y310000D03*
X360000Y300000D03*
X360000Y290000D03*
X360000Y280000D03*
X360000Y270000D03*
X360000Y260000D03*
X360000Y250000D03*
X360000Y240000D03*
X360000Y230000D03*
X360000Y220000D03*
X360000Y210000D03*
X370000Y210000D03*
X370000Y220000D03*
X370000Y230000D03*
X370000Y240000D03*
X370000Y250000D03*
X370000Y260000D03*
X370000Y270000D03*
X370000Y280000D03*
X370000Y290000D03*
X370000Y300000D03*
X370000Y310000D03*
X380000Y320000D03*
X380000Y310000D03*
X380000Y300000D03*
X380000Y290000D03*
X380000Y280000D03*
X380000Y270000D03*
X380000Y260000D03*
X380000Y250000D03*
X380000Y240000D03*
X380000Y230000D03*
X380000Y220000D03*
X380000Y210000D03*
X390000Y330000D03*
X390000Y320000D03*
X390000Y310000D03*
X390000Y300000D03*
X390000Y290000D03*
X390000Y280000D03*
X390000Y270000D03*
X390000Y260000D03*
X390000Y250000D03*
X390000Y240000D03*
X390000Y230000D03*
X390000Y220000D03*
X390000Y210000D03*
X400000Y210000D03*
X400000Y220000D03*
X400000Y230000D03*
X400000Y240000D03*
X400000Y250000D03*
X400000Y260000D03*
X400000Y270000D03*
X400000Y280000D03*
X400000Y290000D03*
X400000Y300000D03*
X400000Y310000D03*
X400000Y320000D03*
X400000Y330000D03*
X410000Y330000D03*
X410000Y320000D03*
X410000Y310000D03*
X410000Y300000D03*
X410000Y290000D03*
X410000Y280000D03*
X410000Y270000D03*
X410000Y260000D03*
X410000Y250000D03*
X410000Y240000D03*
X410000Y230000D03*
X410000Y220000D03*
X410000Y210000D03*
X420000Y330000D03*
X420000Y320000D03*
X420000Y310000D03*
X420000Y300000D03*
X420000Y290000D03*
X420000Y280000D03*
X420000Y270000D03*
X420000Y260000D03*
X420000Y250000D03*
X420000Y240000D03*
X420000Y230000D03*
X420000Y220000D03*
X420000Y210000D03*
X430000Y210000D03*
X430000Y220000D03*
X430000Y230000D03*
X430000Y240000D03*
X430000Y250000D03*
X430000Y260000D03*
X430000Y270000D03*
X430000Y280000D03*
X430000Y290000D03*
X430000Y300000D03*
X430000Y310000D03*
X430000Y320000D03*
X430000Y330000D03*
X440000Y330000D03*
X440000Y320000D03*
X440000Y310000D03*
X440000Y300000D03*
X440000Y290000D03*
X440000Y280000D03*
X440000Y270000D03*
X440000Y260000D03*
X440000Y250000D03*
X440000Y240000D03*
X440000Y230000D03*
X440000Y220000D03*
X440000Y210000D03*
D27*
X610000Y210000D03*
D28*
X619505Y210000D01*
X621000Y208505D01*
D29*
X379400Y121350D02*
X360227Y121350D01*
X345789Y135789D01*
D26*
X290000Y330000D03*
X280000Y330000D03*
X270000Y330000D03*
X270000Y320000D03*
X280000Y320000D03*
X290000Y320000D03*
X290000Y310000D03*
X280000Y310000D03*
X270000Y310000D03*
X270000Y420000D03*
X280000Y420000D03*
X290000Y420000D03*
X300000Y420000D03*
X310000Y420000D03*
X310000Y430000D03*
X310000Y440000D03*
X310000Y450000D03*
X300000Y450000D03*
X290000Y450000D03*
X280000Y450000D03*
X270000Y450000D03*
X270000Y460000D03*
X280000Y460000D03*
X290000Y460000D03*
X300000Y460000D03*
X310000Y460000D03*
X320000Y460000D03*
X320000Y450000D03*
X320000Y440000D03*
X320000Y430000D03*
X320000Y420000D03*
X290000Y280000D03*
X280000Y280000D03*
X270000Y280000D03*
X260000Y280000D03*
X250000Y280000D03*
X250000Y290000D03*
X250000Y300000D03*
X250000Y310000D03*
X260000Y310000D03*
X260000Y320000D03*
X250000Y320000D03*
X250000Y330000D03*
X260000Y330000D03*
X345000Y150000D03*
X355000Y150000D03*
X355000Y160000D03*
X345000Y160000D03*
X345000Y170000D03*
X355000Y170000D03*
X300000Y130000D03*
D30*
X300000Y133004D02*
X293004Y140000D01*
X300000Y133004D02*
X300000Y130000D01*
D25*
X177000Y259000D02*
X167700Y268300D01*
X166100Y268300D01*
X177000Y259000D02*
X154000Y259000D01*
X129200Y234200D01*
D26*
X120000Y460000D03*
X120000Y450000D03*
X120000Y440000D03*
X120000Y430000D03*
X120000Y420000D03*
X120000Y410000D03*
X120000Y400000D03*
X120000Y390000D03*
X120000Y380000D03*
X120000Y370000D03*
X120000Y360000D03*
X130000Y340000D03*
X130000Y350000D03*
X130000Y360000D03*
X130000Y370000D03*
X130000Y380000D03*
X130000Y390000D03*
X130000Y400000D03*
X130000Y410000D03*
X130000Y420000D03*
X130000Y430000D03*
X130000Y440000D03*
X130000Y450000D03*
X130000Y460000D03*
X140000Y460000D03*
X140000Y450000D03*
X140000Y440000D03*
X140000Y430000D03*
X140000Y420000D03*
X140000Y410000D03*
X140000Y400000D03*
X140000Y390000D03*
X140000Y380000D03*
X140000Y370000D03*
X140000Y360000D03*
X140000Y350000D03*
X140000Y340000D03*
X150000Y460000D03*
X150000Y450000D03*
X150000Y440000D03*
X150000Y430000D03*
X150000Y420000D03*
X150000Y410000D03*
X150000Y400000D03*
X150000Y390000D03*
X150000Y380000D03*
X150000Y370000D03*
X150000Y360000D03*
X150000Y350000D03*
X150000Y340000D03*
X160000Y340000D03*
X160000Y350000D03*
X160000Y360000D03*
X160000Y370000D03*
X160000Y380000D03*
X160000Y390000D03*
X160000Y400000D03*
X160000Y410000D03*
X160000Y420000D03*
X160000Y430000D03*
X160000Y440000D03*
X160000Y450000D03*
X160000Y460000D03*
X170000Y460000D03*
X170000Y450000D03*
X170000Y440000D03*
X170000Y430000D03*
X170000Y420000D03*
X170000Y410000D03*
X170000Y400000D03*
X170000Y390000D03*
X170000Y380000D03*
X170000Y370000D03*
X170000Y360000D03*
X170000Y350000D03*
X170000Y340000D03*
X180000Y460000D03*
X180000Y450000D03*
X180000Y440000D03*
X180000Y430000D03*
X180000Y420000D03*
X180000Y410000D03*
X180000Y400000D03*
X180000Y390000D03*
X180000Y380000D03*
X180000Y370000D03*
X180000Y360000D03*
X180000Y350000D03*
X180000Y340000D03*
X190000Y340000D03*
X190000Y350000D03*
X190000Y360000D03*
X190000Y370000D03*
X190000Y380000D03*
X190000Y390000D03*
X190000Y400000D03*
X190000Y410000D03*
X190000Y420000D03*
X190000Y430000D03*
X190000Y440000D03*
X190000Y450000D03*
X190000Y460000D03*
X200000Y460000D03*
X200000Y450000D03*
X200000Y440000D03*
X200000Y430000D03*
X200000Y420000D03*
X200000Y410000D03*
X200000Y400000D03*
X200000Y390000D03*
X200000Y380000D03*
X200000Y370000D03*
X200000Y360000D03*
X200000Y350000D03*
X200000Y340000D03*
X120000Y320000D03*
X120000Y310000D03*
X120000Y300000D03*
X120000Y290000D03*
X120000Y280000D03*
X120000Y270000D03*
X120000Y260000D03*
X120000Y250000D03*
X120000Y240000D03*
X120000Y230000D03*
X120000Y220000D03*
X120000Y210000D03*
X130000Y210000D03*
X130000Y220000D03*
X130000Y230000D03*
X130000Y240000D03*
X130000Y250000D03*
X130000Y260000D03*
X130000Y270000D03*
X130000Y280000D03*
X130000Y290000D03*
X130000Y300000D03*
X130000Y310000D03*
X130000Y320000D03*
X130000Y330000D03*
X140000Y330000D03*
X140000Y320000D03*
X140000Y310000D03*
X140000Y300000D03*
X140000Y290000D03*
X140000Y280000D03*
X140000Y270000D03*
X140000Y260000D03*
X140000Y250000D03*
X140000Y240000D03*
X140000Y230000D03*
X140000Y220000D03*
X140000Y210000D03*
X150000Y330000D03*
X150000Y320000D03*
X150000Y310000D03*
X150000Y300000D03*
X150000Y290000D03*
X150000Y280000D03*
X150000Y270000D03*
X150000Y260000D03*
X150000Y250000D03*
X150000Y240000D03*
X150000Y230000D03*
X150000Y220000D03*
X150000Y210000D03*
X160000Y210000D03*
X160000Y220000D03*
X160000Y230000D03*
X160000Y240000D03*
X160000Y250000D03*
X160000Y260000D03*
X160000Y270000D03*
X160000Y280000D03*
X160000Y290000D03*
X160000Y300000D03*
X160000Y310000D03*
X160000Y320000D03*
X160000Y330000D03*
X170000Y330000D03*
X170000Y320000D03*
X170000Y310000D03*
X170000Y300000D03*
X170000Y290000D03*
X170000Y280000D03*
X170000Y270000D03*
X170000Y260000D03*
X170000Y250000D03*
X170000Y240000D03*
X170000Y230000D03*
X170000Y220000D03*
X170000Y210000D03*
X180000Y330000D03*
X180000Y320000D03*
X180000Y310000D03*
X180000Y300000D03*
X180000Y290000D03*
X180000Y280000D03*
X180000Y270000D03*
X180000Y260000D03*
X180000Y250000D03*
X180000Y240000D03*
X180000Y230000D03*
X180000Y220000D03*
X180000Y210000D03*
X190000Y210000D03*
X190000Y220000D03*
X190000Y230000D03*
X190000Y240000D03*
X190000Y250000D03*
X190000Y260000D03*
X190000Y270000D03*
X190000Y280000D03*
X190000Y290000D03*
X190000Y300000D03*
X190000Y310000D03*
X190000Y320000D03*
X190000Y330000D03*
X200000Y330000D03*
X200000Y320000D03*
X200000Y310000D03*
X200000Y300000D03*
X200000Y290000D03*
X200000Y280000D03*
X200000Y270000D03*
X200000Y260000D03*
X200000Y250000D03*
X200000Y240000D03*
X200000Y230000D03*
X200000Y220000D03*
X200000Y210000D03*
D30*
X24220Y117780D02*
X24000Y117780D01*
X24220Y117780D02*
X36000Y106000D01*
D27*
X36000Y106000D03*
D25*
X200000Y203000D02*
X200000Y210000D01*
D28*
X198000Y151495D02*
X209505Y151495D01*
D25*
X198000Y182000D02*
X198000Y201000D01*
X200000Y203000D01*
X198000Y170000D02*
X198000Y151495D01*
X198000Y182000D02*
X189000Y182000D01*
X187000Y182000D01*
X187000Y186000D02*
X182000Y186000D01*
X179000Y186000D01*
X171000Y194000D01*
X182000Y186000D02*
X189000Y179000D01*
X198000Y170000D01*
X187000Y182000D02*
X187000Y186000D01*
X189000Y182000D02*
X189000Y179000D01*
X198000Y182000D02*
X198000Y170000D01*
X204000Y157495D02*
X198000Y151495D01*
X204000Y157495D02*
X204000Y193000D01*
X293004Y187000D02*
X293004Y165000D01*
D27*
X298000Y68000D03*
D25*
X316000Y195000D02*
X325000Y195000D01*
D29*
X360000Y108650D02*
X379400Y108650D01*
X360000Y108650D02*
X345350Y108650D01*
X316000Y138000D01*
D27*
X360000Y108650D03*
D28*
X297000Y69000D02*
X280495Y69000D01*
X297000Y69000D02*
X298000Y68000D01*
D25*
X647661Y135000D02*
X660000Y125505D01*
X647661Y135000D02*
X564000Y135000D01*
X541000Y135000D01*
X541000Y158000D01*
D28*
X564004Y134996D02*
X564004Y75000D01*
X564004Y134996D02*
X564000Y135000D01*
D26*
X500000Y170000D03*
D25*
X480780Y186380D02*
X480300Y187000D01*
D28*
X434600Y121350D02*
X418350Y121350D01*
X416220Y119220D01*
D27*
X25000Y268000D03*
X25000Y278000D03*
X25000Y334000D03*
X25000Y344000D03*
X25000Y397000D03*
X25000Y407000D03*
X25000Y460000D03*
X24000Y213000D03*
D25*
X505500Y50000D02*
X515000Y50000D01*
D27*
X515000Y50000D03*
X572000Y55000D03*
D26*
X420000Y121000D03*
X451000Y121000D03*
X428000Y171000D03*
X420000Y171000D03*
X470000Y187000D03*
X495000Y364000D03*
X572000Y47000D03*
D27*
X550000Y425000D03*
X560000Y425000D03*
X560000Y435000D03*
X550000Y435000D03*
X550000Y415000D03*
X540000Y415000D03*
X530000Y415000D03*
X520000Y415000D03*
X510000Y415000D03*
X500000Y415000D03*
X560000Y445000D03*
X560000Y455000D03*
X550000Y445000D03*
X550000Y455000D03*
X560000Y415000D03*
X540000Y455000D03*
X530000Y455000D03*
X520000Y455000D03*
X510000Y455000D03*
X500000Y455000D03*
X500000Y465000D03*
X510000Y465000D03*
X520000Y465000D03*
X530000Y465000D03*
X540000Y465000D03*
X550000Y465000D03*
X560000Y465000D03*
X500000Y280000D03*
X510000Y280000D03*
X520000Y280000D03*
X530000Y280000D03*
X500000Y290000D03*
X500000Y300000D03*
X500000Y310000D03*
X510000Y310000D03*
X520000Y310000D03*
X530000Y310000D03*
X530000Y320000D03*
X520000Y320000D03*
X510000Y320000D03*
X500000Y320000D03*
X500000Y330000D03*
X510000Y330000D03*
X520000Y330000D03*
X530000Y330000D03*
D31*
X535000Y115000D02*
X550000Y115000D01*
D27*
X550000Y115000D03*
D31*
X160000Y128000D02*
X145000Y128000D01*
D27*
X160000Y128000D03*
D32*
X619000Y308000D02*
X621000Y310000D01*
X621000Y324000D01*
X620000Y324024D01*
X620000Y330000D01*
D27*
X619000Y308000D03*
D25*
X480160Y187000D02*
X470000Y187000D01*
X480160Y187000D02*
X480780Y186380D01*
D28*
X568004Y55000D02*
X564004Y51000D01*
X568004Y55000D02*
X572000Y55000D01*
X568000Y51000D02*
X564004Y51000D01*
X568000Y51000D02*
X572000Y47000D01*
D33*
X380000Y134650D02*
X379400Y134050D01*
D25*
X400000Y170000D02*
X393000Y177000D01*
X400000Y70000D02*
X400000Y48495D01*
X400000Y70000D02*
X400000Y170000D01*
X393000Y177000D02*
X393000Y152000D01*
D32*
X469111Y77111D02*
X473780Y75000D01*
X469111Y77111D02*
X462000Y70000D01*
D27*
X462000Y70000D03*
X400000Y70000D03*
D25*
X181412Y29588D02*
X174000Y37000D01*
X181412Y29588D02*
X361093Y29588D01*
D28*
X531996Y51000D02*
X531996Y75000D01*
D25*
X260996Y140000D02*
X260996Y165000D01*
X289360Y373940D02*
X280400Y382900D01*
X289360Y373940D02*
X289360Y354380D01*
X280400Y242900D02*
X283360Y239940D01*
X504400Y191340D02*
X509220Y186380D01*
D28*
X201000Y105504D02*
X198999Y105504D01*
X198000Y104505D01*
D25*
X202504Y104000D02*
X233505Y104000D01*
X202504Y104000D02*
X201000Y105504D01*
D30*
X24000Y146220D02*
X24000Y166500D01*
X487220Y50000D02*
X502220Y75000D01*
X487220Y50000D02*
X470500Y50000D01*
D32*
X148600Y37000D02*
X148600Y13560D01*
X150000Y12160D01*
X443160Y12160D01*
X435250Y108000D02*
X434600Y108650D01*
X435250Y108000D02*
X454000Y108000D01*
X454000Y23000D01*
X443160Y12160D01*
D31*
X454000Y108000D02*
X468000Y108000D01*
X475000Y115000D01*
D32*
X160522Y32062D02*
X160000Y31540D01*
X160000Y19000D01*
X160522Y50478D02*
X148600Y62400D01*
X160522Y50478D02*
X160522Y32062D01*
X160000Y19000D02*
X436000Y19000D01*
X434600Y95950D02*
X442000Y95950D01*
X442000Y25000D01*
X436000Y19000D01*
D31*
X148600Y62400D02*
X148600Y91400D01*
X145000Y95000D01*
D34*
X111000Y49200D02*
X123200Y37000D01*
D32*
X111000Y49200D02*
X110000Y50200D01*
D34*
X110000Y105000D01*
D32*
X151782Y161782D02*
X151282Y162282D01*
X110000Y134000D02*
X110000Y105000D01*
X137782Y161782D02*
X151782Y161782D01*
X137782Y161782D02*
X110000Y134000D01*
D31*
X164944Y174983D02*
X164718Y175718D01*
D34*
X123200Y106200D02*
X123200Y62400D01*
D28*
X164944Y169983D02*
X164944Y174983D01*
D32*
X172000Y167927D01*
X123200Y136200D02*
X123200Y106200D01*
X151073Y147000D02*
X172000Y167927D01*
X134000Y147000D02*
X123200Y136200D01*
X134000Y147000D02*
X151073Y147000D01*
D33*
X318462Y105941D02*
X319124Y99950D01*
X318462Y105941D02*
X318211Y108211D01*
D29*
X328453Y95950D02*
X379400Y95950D01*
X328453Y95950D02*
X318462Y105941D01*
D25*
X240000Y69000D02*
X233505Y69000D01*
X275000Y104000D02*
X280495Y104000D01*
X275000Y104000D02*
X240000Y69000D01*
X659000Y255495D02*
X661257Y257752D01*
X660212Y259015D01*
X623257Y257752D02*
X621000Y255495D01*
X623257Y257752D02*
X661257Y257752D01*
X660000Y207505D02*
X660000Y172495D01*
X660000Y207505D02*
X659000Y208505D01*
M02*
