G04 EAGLE Gerber RS-274X export*
G75*
%MOMM*%
%FSLAX34Y34*%
%LPD*%
%INCopper Layer 2*%
%IPPOS*%
%AMOC8*
5,1,8,0,0,1.08239X$1,22.5*%
G01*
%ADD10C,2.760000*%
%ADD11C,1.524000*%
%ADD12C,0.656400*%
%ADD13C,0.756400*%
%ADD14C,0.812800*%
%ADD15C,0.152400*%

G36*
X641135Y11165D02*
X641135Y11165D01*
X641159Y11162D01*
X641256Y11184D01*
X641354Y11200D01*
X641375Y11212D01*
X641398Y11217D01*
X641483Y11269D01*
X641571Y11316D01*
X641588Y11333D01*
X641608Y11346D01*
X641672Y11422D01*
X641740Y11494D01*
X641751Y11516D01*
X641766Y11534D01*
X641802Y11627D01*
X641844Y11717D01*
X641847Y11741D01*
X641855Y11763D01*
X641860Y11863D01*
X641871Y11961D01*
X641866Y11985D01*
X641867Y12009D01*
X641840Y12105D01*
X641819Y12202D01*
X641806Y12222D01*
X641800Y12246D01*
X641744Y12328D01*
X641693Y12413D01*
X641674Y12429D01*
X641661Y12448D01*
X641581Y12508D01*
X641506Y12573D01*
X641483Y12582D01*
X641464Y12596D01*
X641308Y12657D01*
X638937Y13292D01*
X632402Y17066D01*
X627066Y22402D01*
X623292Y28937D01*
X621339Y36227D01*
X621339Y43773D01*
X623292Y51063D01*
X627066Y57598D01*
X632402Y62934D01*
X638937Y66708D01*
X646227Y68661D01*
X653773Y68661D01*
X661063Y66708D01*
X667598Y62934D01*
X672934Y57598D01*
X676708Y51063D01*
X677343Y48692D01*
X677353Y48670D01*
X677357Y48646D01*
X677403Y48559D01*
X677444Y48468D01*
X677460Y48450D01*
X677472Y48429D01*
X677544Y48360D01*
X677611Y48288D01*
X677632Y48276D01*
X677650Y48260D01*
X677740Y48218D01*
X677827Y48170D01*
X677851Y48166D01*
X677873Y48156D01*
X677972Y48145D01*
X678070Y48128D01*
X678094Y48132D01*
X678117Y48129D01*
X678214Y48150D01*
X678313Y48165D01*
X678334Y48176D01*
X678358Y48181D01*
X678443Y48232D01*
X678532Y48278D01*
X678548Y48295D01*
X678569Y48307D01*
X678634Y48383D01*
X678703Y48454D01*
X678713Y48476D01*
X678729Y48494D01*
X678766Y48587D01*
X678809Y48676D01*
X678812Y48700D01*
X678821Y48722D01*
X678839Y48889D01*
X678839Y506111D01*
X678835Y506135D01*
X678838Y506159D01*
X678816Y506256D01*
X678800Y506354D01*
X678788Y506375D01*
X678783Y506398D01*
X678731Y506483D01*
X678684Y506571D01*
X678667Y506588D01*
X678654Y506608D01*
X678578Y506672D01*
X678506Y506740D01*
X678484Y506751D01*
X678466Y506766D01*
X678373Y506802D01*
X678283Y506844D01*
X678259Y506847D01*
X678237Y506855D01*
X678137Y506860D01*
X678039Y506871D01*
X678015Y506866D01*
X677991Y506867D01*
X677895Y506840D01*
X677798Y506819D01*
X677778Y506806D01*
X677754Y506800D01*
X677672Y506744D01*
X677587Y506693D01*
X677571Y506674D01*
X677552Y506661D01*
X677492Y506581D01*
X677427Y506506D01*
X677418Y506483D01*
X677404Y506464D01*
X677343Y506308D01*
X676708Y503937D01*
X672934Y497402D01*
X667598Y492066D01*
X661063Y488292D01*
X653773Y486339D01*
X646227Y486339D01*
X638937Y488292D01*
X635381Y490346D01*
X632402Y492066D01*
X627066Y497402D01*
X623292Y503937D01*
X621339Y511227D01*
X621339Y518773D01*
X623292Y526063D01*
X627066Y532598D01*
X632402Y537934D01*
X638437Y541419D01*
X638474Y541449D01*
X638517Y541472D01*
X638569Y541527D01*
X638628Y541575D01*
X638653Y541615D01*
X638686Y541650D01*
X638718Y541719D01*
X638758Y541783D01*
X638770Y541830D01*
X638790Y541873D01*
X638798Y541948D01*
X638816Y542022D01*
X638812Y542070D01*
X638817Y542117D01*
X638801Y542192D01*
X638794Y542267D01*
X638775Y542311D01*
X638765Y542358D01*
X638726Y542423D01*
X638695Y542492D01*
X638663Y542528D01*
X638638Y542569D01*
X638581Y542618D01*
X638530Y542674D01*
X638488Y542698D01*
X638451Y542729D01*
X638381Y542757D01*
X638315Y542794D01*
X638268Y542803D01*
X638223Y542821D01*
X638095Y542835D01*
X638073Y542839D01*
X638067Y542838D01*
X638057Y542839D01*
X460000Y542839D01*
X459980Y542836D01*
X459961Y542838D01*
X459859Y542816D01*
X459757Y542800D01*
X459740Y542790D01*
X459720Y542786D01*
X459631Y542733D01*
X459540Y542684D01*
X459526Y542670D01*
X459509Y542660D01*
X459442Y542581D01*
X459371Y542506D01*
X459362Y542488D01*
X459349Y542473D01*
X459310Y542377D01*
X459267Y542283D01*
X459265Y542263D01*
X459257Y542245D01*
X459239Y542078D01*
X459239Y538782D01*
X459242Y538762D01*
X459240Y538743D01*
X459262Y538641D01*
X459279Y538539D01*
X459288Y538522D01*
X459292Y538502D01*
X459345Y538413D01*
X459394Y538322D01*
X459408Y538308D01*
X459418Y538291D01*
X459497Y538224D01*
X459572Y538152D01*
X459590Y538144D01*
X459605Y538131D01*
X459701Y538092D01*
X459795Y538049D01*
X459815Y538047D01*
X459833Y538039D01*
X460000Y538021D01*
X463310Y538021D01*
X467949Y536099D01*
X471499Y532549D01*
X472797Y529417D01*
X472835Y529356D01*
X472864Y529291D01*
X472899Y529252D01*
X472926Y529208D01*
X472982Y529162D01*
X473030Y529109D01*
X473076Y529084D01*
X473116Y529051D01*
X473183Y529025D01*
X473246Y528991D01*
X473297Y528982D01*
X473345Y528963D01*
X473417Y528960D01*
X473488Y528947D01*
X473539Y528955D01*
X473591Y528952D01*
X473660Y528972D01*
X473731Y528983D01*
X473777Y529007D01*
X473827Y529021D01*
X473886Y529062D01*
X473950Y529094D01*
X473987Y529132D01*
X474029Y529161D01*
X474072Y529219D01*
X474122Y529270D01*
X474157Y529333D01*
X474176Y529359D01*
X474183Y529381D01*
X474203Y529417D01*
X475501Y532549D01*
X479051Y536099D01*
X483690Y538021D01*
X488710Y538021D01*
X493349Y536099D01*
X496899Y532549D01*
X498821Y527910D01*
X498821Y522890D01*
X496899Y518251D01*
X493349Y514701D01*
X490217Y513403D01*
X490156Y513365D01*
X490091Y513336D01*
X490052Y513301D01*
X490008Y513274D01*
X489962Y513218D01*
X489909Y513170D01*
X489884Y513124D01*
X489851Y513084D01*
X489825Y513017D01*
X489791Y512954D01*
X489782Y512903D01*
X489763Y512855D01*
X489760Y512783D01*
X489747Y512712D01*
X489755Y512661D01*
X489752Y512609D01*
X489772Y512540D01*
X489783Y512469D01*
X489807Y512423D01*
X489821Y512373D01*
X489862Y512314D01*
X489894Y512250D01*
X489932Y512213D01*
X489961Y512171D01*
X490019Y512128D01*
X490070Y512078D01*
X490133Y512043D01*
X490159Y512024D01*
X490181Y512017D01*
X490217Y511997D01*
X493349Y510699D01*
X496899Y507149D01*
X498821Y502510D01*
X498821Y497490D01*
X496899Y492851D01*
X493349Y489301D01*
X488710Y487379D01*
X483690Y487379D01*
X479051Y489301D01*
X475501Y492851D01*
X474203Y495983D01*
X474165Y496044D01*
X474136Y496109D01*
X474101Y496148D01*
X474074Y496192D01*
X474018Y496238D01*
X473970Y496291D01*
X473924Y496316D01*
X473884Y496349D01*
X473817Y496375D01*
X473754Y496409D01*
X473703Y496418D01*
X473655Y496437D01*
X473583Y496440D01*
X473512Y496453D01*
X473461Y496445D01*
X473409Y496448D01*
X473340Y496428D01*
X473269Y496417D01*
X473223Y496393D01*
X473173Y496379D01*
X473114Y496338D01*
X473050Y496306D01*
X473013Y496268D01*
X472971Y496239D01*
X472928Y496181D01*
X472878Y496130D01*
X472843Y496067D01*
X472824Y496041D01*
X472817Y496019D01*
X472797Y495983D01*
X471499Y492851D01*
X467949Y489301D01*
X463310Y487379D01*
X460000Y487379D01*
X459980Y487376D01*
X459961Y487378D01*
X459859Y487356D01*
X459757Y487340D01*
X459740Y487330D01*
X459720Y487326D01*
X459631Y487273D01*
X459540Y487224D01*
X459526Y487210D01*
X459509Y487200D01*
X459442Y487121D01*
X459371Y487046D01*
X459362Y487028D01*
X459349Y487013D01*
X459310Y486917D01*
X459267Y486823D01*
X459265Y486803D01*
X459257Y486785D01*
X459239Y486618D01*
X459239Y195761D01*
X410000Y195761D01*
X409980Y195758D01*
X409961Y195760D01*
X409859Y195738D01*
X409757Y195722D01*
X409740Y195712D01*
X409720Y195708D01*
X409631Y195655D01*
X409540Y195606D01*
X409526Y195592D01*
X409509Y195582D01*
X409442Y195503D01*
X409371Y195428D01*
X409362Y195410D01*
X409349Y195395D01*
X409310Y195299D01*
X409267Y195205D01*
X409265Y195185D01*
X409257Y195167D01*
X409239Y195000D01*
X409239Y140000D01*
X409242Y139980D01*
X409240Y139961D01*
X409262Y139859D01*
X409279Y139757D01*
X409288Y139740D01*
X409292Y139720D01*
X409345Y139631D01*
X409394Y139540D01*
X409408Y139526D01*
X409418Y139509D01*
X409497Y139442D01*
X409572Y139371D01*
X409590Y139362D01*
X409605Y139349D01*
X409701Y139310D01*
X409795Y139267D01*
X409815Y139265D01*
X409833Y139257D01*
X410000Y139239D01*
X475000Y139239D01*
X475090Y139254D01*
X475181Y139261D01*
X475211Y139273D01*
X475243Y139279D01*
X475323Y139321D01*
X475407Y139357D01*
X475439Y139383D01*
X475460Y139394D01*
X475482Y139417D01*
X475538Y139462D01*
X530538Y194462D01*
X530580Y194520D01*
X530630Y194572D01*
X530638Y194590D01*
X530651Y194605D01*
X530663Y194635D01*
X530682Y194661D01*
X530703Y194730D01*
X530733Y194795D01*
X530735Y194815D01*
X530743Y194833D01*
X530747Y194874D01*
X530754Y194897D01*
X530753Y194929D01*
X530761Y195000D01*
X530761Y414239D01*
X634239Y414239D01*
X634239Y175315D01*
X559685Y100761D01*
X410000Y100761D01*
X409980Y100758D01*
X409961Y100760D01*
X409859Y100738D01*
X409757Y100722D01*
X409740Y100712D01*
X409720Y100708D01*
X409631Y100655D01*
X409540Y100606D01*
X409526Y100592D01*
X409509Y100582D01*
X409442Y100503D01*
X409371Y100428D01*
X409362Y100410D01*
X409349Y100395D01*
X409310Y100299D01*
X409267Y100205D01*
X409265Y100185D01*
X409257Y100167D01*
X409239Y100000D01*
X409239Y11922D01*
X409242Y11902D01*
X409240Y11883D01*
X409262Y11781D01*
X409279Y11679D01*
X409288Y11662D01*
X409292Y11642D01*
X409345Y11553D01*
X409394Y11462D01*
X409408Y11448D01*
X409418Y11431D01*
X409497Y11364D01*
X409572Y11292D01*
X409590Y11284D01*
X409605Y11271D01*
X409701Y11232D01*
X409795Y11189D01*
X409815Y11187D01*
X409833Y11179D01*
X410000Y11161D01*
X641111Y11161D01*
X641135Y11165D01*
G37*
G36*
X445020Y204242D02*
X445020Y204242D01*
X445039Y204240D01*
X445141Y204262D01*
X445243Y204279D01*
X445260Y204288D01*
X445280Y204292D01*
X445369Y204345D01*
X445460Y204394D01*
X445474Y204408D01*
X445491Y204418D01*
X445558Y204497D01*
X445630Y204572D01*
X445638Y204590D01*
X445651Y204605D01*
X445690Y204701D01*
X445733Y204795D01*
X445735Y204815D01*
X445743Y204833D01*
X445761Y205000D01*
X445761Y476349D01*
X445750Y476416D01*
X445749Y476484D01*
X445731Y476537D01*
X445722Y476592D01*
X445690Y476652D01*
X445667Y476716D01*
X445633Y476760D01*
X445606Y476810D01*
X445558Y476856D01*
X445516Y476909D01*
X445452Y476956D01*
X445428Y476979D01*
X445409Y476988D01*
X445381Y477009D01*
X443840Y477898D01*
X438698Y483040D01*
X435062Y489339D01*
X433179Y496364D01*
X433179Y503636D01*
X435062Y510661D01*
X436019Y512319D01*
X436043Y512383D01*
X436076Y512442D01*
X436086Y512497D01*
X436106Y512549D01*
X436108Y512617D01*
X436121Y512683D01*
X436113Y512739D01*
X436115Y512795D01*
X436096Y512860D01*
X436086Y512927D01*
X436054Y513000D01*
X436045Y513031D01*
X436033Y513048D01*
X436019Y513081D01*
X435062Y514739D01*
X433179Y521764D01*
X433179Y529036D01*
X433984Y532041D01*
X433996Y532160D01*
X434009Y532277D01*
X434008Y532282D01*
X434009Y532286D01*
X433982Y532401D01*
X433957Y532518D01*
X433955Y532521D01*
X433954Y532526D01*
X433892Y532627D01*
X433831Y532729D01*
X433828Y532732D01*
X433825Y532735D01*
X433734Y532812D01*
X433644Y532889D01*
X433640Y532890D01*
X433637Y532893D01*
X433527Y532936D01*
X433416Y532981D01*
X433411Y532981D01*
X433408Y532983D01*
X433394Y532983D01*
X433249Y532999D01*
X230000Y532999D01*
X229980Y532996D01*
X229961Y532998D01*
X229859Y532976D01*
X229757Y532960D01*
X229740Y532950D01*
X229720Y532946D01*
X229631Y532893D01*
X229540Y532844D01*
X229526Y532830D01*
X229509Y532820D01*
X229442Y532741D01*
X229371Y532666D01*
X229362Y532648D01*
X229349Y532633D01*
X229310Y532537D01*
X229267Y532443D01*
X229265Y532423D01*
X229257Y532405D01*
X229239Y532238D01*
X229239Y275000D01*
X229242Y274980D01*
X229240Y274961D01*
X229262Y274859D01*
X229279Y274757D01*
X229288Y274740D01*
X229292Y274720D01*
X229345Y274631D01*
X229394Y274540D01*
X229408Y274526D01*
X229418Y274509D01*
X229497Y274442D01*
X229572Y274371D01*
X229590Y274362D01*
X229605Y274349D01*
X229701Y274310D01*
X229795Y274267D01*
X229815Y274265D01*
X229833Y274257D01*
X230000Y274239D01*
X290000Y274239D01*
X290090Y274254D01*
X290181Y274261D01*
X290211Y274273D01*
X290243Y274279D01*
X290323Y274321D01*
X290407Y274357D01*
X290439Y274383D01*
X290460Y274394D01*
X290482Y274417D01*
X290538Y274462D01*
X295538Y279462D01*
X295591Y279536D01*
X295651Y279605D01*
X295663Y279635D01*
X295682Y279661D01*
X295709Y279748D01*
X295743Y279833D01*
X295747Y279874D01*
X295754Y279897D01*
X295753Y279929D01*
X295761Y280000D01*
X295761Y335000D01*
X295747Y335090D01*
X295739Y335181D01*
X295727Y335211D01*
X295722Y335243D01*
X295679Y335323D01*
X295643Y335407D01*
X295617Y335439D01*
X295606Y335460D01*
X295583Y335482D01*
X295538Y335538D01*
X255761Y375315D01*
X255761Y404239D01*
X354239Y404239D01*
X354239Y205000D01*
X354242Y204980D01*
X354240Y204961D01*
X354262Y204859D01*
X354279Y204757D01*
X354288Y204740D01*
X354292Y204720D01*
X354345Y204631D01*
X354394Y204540D01*
X354408Y204526D01*
X354418Y204509D01*
X354497Y204442D01*
X354572Y204371D01*
X354590Y204362D01*
X354605Y204349D01*
X354701Y204310D01*
X354795Y204267D01*
X354815Y204265D01*
X354833Y204257D01*
X355000Y204239D01*
X445000Y204239D01*
X445020Y204242D01*
G37*
G36*
X351227Y104246D02*
X351227Y104246D01*
X351273Y104244D01*
X351348Y104266D01*
X351424Y104279D01*
X351465Y104300D01*
X351509Y104313D01*
X351573Y104357D01*
X351642Y104394D01*
X351673Y104427D01*
X351711Y104453D01*
X351757Y104516D01*
X351811Y104572D01*
X351830Y104614D01*
X351858Y104650D01*
X351882Y104724D01*
X351915Y104795D01*
X351920Y104841D01*
X351934Y104884D01*
X351933Y104962D01*
X351942Y105039D01*
X351932Y105084D01*
X351932Y105130D01*
X351893Y105262D01*
X351890Y105280D01*
X351887Y105284D01*
X351885Y105291D01*
X351217Y106903D01*
X351217Y110397D01*
X352554Y113625D01*
X355025Y116096D01*
X358253Y117433D01*
X361747Y117433D01*
X364975Y116096D01*
X367446Y113625D01*
X368783Y110397D01*
X368783Y106903D01*
X368115Y105291D01*
X368105Y105247D01*
X368085Y105205D01*
X368077Y105128D01*
X368059Y105052D01*
X368063Y105006D01*
X368058Y104961D01*
X368075Y104884D01*
X368082Y104807D01*
X368101Y104765D01*
X368110Y104720D01*
X368150Y104653D01*
X368182Y104582D01*
X368213Y104548D01*
X368237Y104509D01*
X368296Y104459D01*
X368348Y104401D01*
X368389Y104379D01*
X368424Y104349D01*
X368496Y104320D01*
X368564Y104283D01*
X368609Y104274D01*
X368652Y104257D01*
X368788Y104242D01*
X368806Y104239D01*
X368811Y104240D01*
X368818Y104239D01*
X390000Y104239D01*
X390020Y104242D01*
X390039Y104240D01*
X390141Y104262D01*
X390243Y104279D01*
X390260Y104288D01*
X390280Y104292D01*
X390369Y104345D01*
X390460Y104394D01*
X390474Y104408D01*
X390491Y104418D01*
X390558Y104497D01*
X390630Y104572D01*
X390638Y104590D01*
X390651Y104605D01*
X390690Y104701D01*
X390733Y104795D01*
X390735Y104815D01*
X390743Y104833D01*
X390761Y105000D01*
X390761Y195000D01*
X390758Y195020D01*
X390760Y195039D01*
X390738Y195141D01*
X390722Y195243D01*
X390712Y195260D01*
X390708Y195280D01*
X390655Y195369D01*
X390606Y195460D01*
X390592Y195474D01*
X390582Y195491D01*
X390503Y195558D01*
X390428Y195630D01*
X390410Y195638D01*
X390395Y195651D01*
X390299Y195690D01*
X390205Y195733D01*
X390185Y195735D01*
X390167Y195743D01*
X390000Y195761D01*
X340380Y195761D01*
X340380Y395000D01*
X340369Y395050D01*
X340367Y395101D01*
X340349Y395133D01*
X340341Y395169D01*
X340308Y395208D01*
X340284Y395253D01*
X340254Y395274D01*
X340231Y395302D01*
X340184Y395323D01*
X340142Y395353D01*
X340100Y395361D01*
X340072Y395373D01*
X340042Y395372D01*
X340000Y395380D01*
X265000Y395380D01*
X264950Y395369D01*
X264899Y395367D01*
X264867Y395349D01*
X264831Y395341D01*
X264792Y395308D01*
X264747Y395284D01*
X264726Y395254D01*
X264698Y395231D01*
X264677Y395184D01*
X264647Y395142D01*
X264639Y395100D01*
X264627Y395072D01*
X264628Y395042D01*
X264620Y395000D01*
X264620Y380000D01*
X264637Y379926D01*
X264650Y379851D01*
X264657Y379841D01*
X264659Y379831D01*
X264683Y379802D01*
X264731Y379731D01*
X304620Y339843D01*
X304620Y275158D01*
X295224Y265761D01*
X230000Y265761D01*
X229980Y265758D01*
X229961Y265760D01*
X229859Y265738D01*
X229757Y265722D01*
X229740Y265712D01*
X229720Y265708D01*
X229631Y265655D01*
X229540Y265606D01*
X229526Y265592D01*
X229509Y265582D01*
X229442Y265503D01*
X229371Y265428D01*
X229362Y265410D01*
X229349Y265395D01*
X229310Y265299D01*
X229267Y265205D01*
X229265Y265185D01*
X229257Y265167D01*
X229239Y265000D01*
X229239Y105000D01*
X229242Y104980D01*
X229240Y104961D01*
X229262Y104859D01*
X229279Y104757D01*
X229288Y104740D01*
X229292Y104720D01*
X229345Y104631D01*
X229394Y104540D01*
X229408Y104526D01*
X229418Y104509D01*
X229497Y104442D01*
X229572Y104371D01*
X229590Y104362D01*
X229605Y104349D01*
X229701Y104310D01*
X229795Y104267D01*
X229815Y104265D01*
X229833Y104257D01*
X230000Y104239D01*
X351182Y104239D01*
X351227Y104246D01*
G37*
G36*
X550074Y114637D02*
X550074Y114637D01*
X550149Y114650D01*
X550159Y114657D01*
X550169Y114659D01*
X550198Y114683D01*
X550269Y114731D01*
X620269Y184731D01*
X620309Y184796D01*
X620353Y184858D01*
X620355Y184870D01*
X620360Y184878D01*
X620364Y184915D01*
X620380Y185000D01*
X620380Y400000D01*
X620369Y400050D01*
X620367Y400101D01*
X620349Y400133D01*
X620341Y400169D01*
X620308Y400208D01*
X620284Y400253D01*
X620254Y400274D01*
X620231Y400302D01*
X620184Y400323D01*
X620142Y400353D01*
X620100Y400361D01*
X620072Y400373D01*
X620042Y400372D01*
X620000Y400380D01*
X545000Y400380D01*
X544950Y400369D01*
X544899Y400367D01*
X544867Y400349D01*
X544831Y400341D01*
X544792Y400308D01*
X544747Y400284D01*
X544726Y400254D01*
X544698Y400231D01*
X544677Y400184D01*
X544647Y400142D01*
X544639Y400100D01*
X544627Y400072D01*
X544628Y400042D01*
X544620Y400000D01*
X544620Y190158D01*
X484843Y130380D01*
X410000Y130380D01*
X409950Y130369D01*
X409899Y130367D01*
X409867Y130349D01*
X409831Y130341D01*
X409792Y130308D01*
X409747Y130284D01*
X409726Y130254D01*
X409698Y130231D01*
X409677Y130184D01*
X409647Y130142D01*
X409639Y130100D01*
X409627Y130072D01*
X409628Y130042D01*
X409620Y130000D01*
X409620Y115000D01*
X409631Y114950D01*
X409633Y114899D01*
X409651Y114867D01*
X409659Y114831D01*
X409692Y114792D01*
X409716Y114747D01*
X409746Y114726D01*
X409769Y114698D01*
X409816Y114677D01*
X409858Y114647D01*
X409900Y114639D01*
X409928Y114627D01*
X409958Y114628D01*
X410000Y114620D01*
X550000Y114620D01*
X550074Y114637D01*
G37*
%LPC*%
G36*
X566260Y296199D02*
X566260Y296199D01*
X559350Y299062D01*
X554062Y304350D01*
X551199Y311260D01*
X551199Y318740D01*
X554062Y325650D01*
X559350Y330938D01*
X566260Y333801D01*
X573740Y333801D01*
X580650Y330938D01*
X585938Y325650D01*
X588801Y318740D01*
X588801Y311260D01*
X585938Y304350D01*
X580650Y299062D01*
X573740Y296199D01*
X566260Y296199D01*
G37*
%LPD*%
%LPC*%
G36*
X311260Y151199D02*
X311260Y151199D01*
X304350Y154062D01*
X299062Y159350D01*
X296199Y166260D01*
X296199Y173740D01*
X299062Y180650D01*
X304350Y185938D01*
X311260Y188801D01*
X318740Y188801D01*
X325650Y185938D01*
X330938Y180650D01*
X333801Y173740D01*
X333801Y166260D01*
X330938Y159350D01*
X325650Y154062D01*
X318740Y151199D01*
X311260Y151199D01*
G37*
%LPD*%
%LPC*%
G36*
X608253Y201217D02*
X608253Y201217D01*
X605025Y202554D01*
X602554Y205025D01*
X601217Y208253D01*
X601217Y211747D01*
X602554Y214975D01*
X605025Y217446D01*
X608253Y218783D01*
X611747Y218783D01*
X614975Y217446D01*
X617446Y214975D01*
X618783Y211747D01*
X618783Y208253D01*
X617446Y205025D01*
X614975Y202554D01*
X611747Y201217D01*
X608253Y201217D01*
G37*
%LPD*%
%LPC*%
G36*
X460253Y61217D02*
X460253Y61217D01*
X457025Y62554D01*
X454554Y65025D01*
X453217Y68253D01*
X453217Y71747D01*
X454554Y74975D01*
X457025Y77446D01*
X460253Y78783D01*
X463747Y78783D01*
X466975Y77446D01*
X469446Y74975D01*
X470783Y71747D01*
X470783Y68253D01*
X469446Y65025D01*
X466975Y62554D01*
X463747Y61217D01*
X460253Y61217D01*
G37*
%LPD*%
D10*
X315000Y170000D03*
X570000Y315000D03*
X629000Y436000D03*
X599000Y93000D03*
D11*
X47000Y37000D03*
X47000Y62400D03*
X72400Y37000D03*
X72400Y62400D03*
X97800Y37000D03*
X97800Y62400D03*
X123200Y37000D03*
X123200Y62400D03*
X148600Y37000D03*
X148600Y62400D03*
X174000Y37000D03*
X174000Y62400D03*
X410000Y500000D03*
X410000Y525400D03*
X435400Y500000D03*
X435400Y525400D03*
X460800Y500000D03*
X460800Y525400D03*
X486200Y500000D03*
X486200Y525400D03*
X511600Y500000D03*
X511600Y525400D03*
X537000Y500000D03*
X537000Y525400D03*
D12*
X360000Y460000D03*
X360000Y450000D03*
X360000Y440000D03*
X360000Y430000D03*
X360000Y420000D03*
X360000Y410000D03*
X360000Y400000D03*
X360000Y390000D03*
X360000Y380000D03*
X360000Y370000D03*
X360000Y360000D03*
X360000Y350000D03*
X370000Y360000D03*
X370000Y370000D03*
X370000Y380000D03*
X370000Y390000D03*
X370000Y400000D03*
X370000Y410000D03*
X370000Y420000D03*
X370000Y430000D03*
X370000Y440000D03*
X370000Y450000D03*
X370000Y460000D03*
X380000Y460000D03*
X380000Y450000D03*
X380000Y440000D03*
X380000Y430000D03*
X380000Y420000D03*
X380000Y410000D03*
X380000Y400000D03*
X380000Y390000D03*
X380000Y380000D03*
X380000Y370000D03*
X380000Y360000D03*
X380000Y350000D03*
X390000Y460000D03*
X390000Y450000D03*
X390000Y440000D03*
X390000Y430000D03*
X390000Y420000D03*
X390000Y410000D03*
X390000Y400000D03*
X390000Y390000D03*
X390000Y380000D03*
X390000Y370000D03*
X390000Y360000D03*
X390000Y350000D03*
X390000Y340000D03*
X400000Y340000D03*
X400000Y350000D03*
X400000Y360000D03*
X400000Y370000D03*
X400000Y380000D03*
X400000Y390000D03*
X400000Y400000D03*
X400000Y410000D03*
X400000Y420000D03*
X400000Y430000D03*
X400000Y440000D03*
X400000Y450000D03*
X400000Y460000D03*
X410000Y460000D03*
X410000Y450000D03*
X410000Y440000D03*
X410000Y430000D03*
X410000Y420000D03*
X410000Y410000D03*
X410000Y400000D03*
X410000Y390000D03*
X410000Y380000D03*
X410000Y370000D03*
X410000Y360000D03*
X410000Y350000D03*
X410000Y340000D03*
X420000Y460000D03*
X420000Y450000D03*
X420000Y440000D03*
X420000Y430000D03*
X420000Y420000D03*
X420000Y410000D03*
X420000Y400000D03*
X420000Y390000D03*
X420000Y380000D03*
X420000Y370000D03*
X420000Y360000D03*
X420000Y350000D03*
X420000Y340000D03*
X430000Y340000D03*
X430000Y350000D03*
X430000Y360000D03*
X430000Y370000D03*
X430000Y380000D03*
X430000Y390000D03*
X430000Y400000D03*
X430000Y410000D03*
X430000Y420000D03*
X430000Y430000D03*
X430000Y440000D03*
X430000Y450000D03*
X430000Y460000D03*
X440000Y460000D03*
X440000Y450000D03*
X440000Y440000D03*
X440000Y430000D03*
X440000Y420000D03*
X440000Y410000D03*
X440000Y400000D03*
X440000Y390000D03*
X440000Y380000D03*
X440000Y370000D03*
X440000Y360000D03*
X440000Y350000D03*
X440000Y340000D03*
X360000Y320000D03*
X360000Y310000D03*
X360000Y300000D03*
X360000Y290000D03*
X360000Y280000D03*
X360000Y270000D03*
X360000Y260000D03*
X360000Y250000D03*
X360000Y240000D03*
X360000Y230000D03*
X360000Y220000D03*
X360000Y210000D03*
X370000Y210000D03*
X370000Y220000D03*
X370000Y230000D03*
X370000Y240000D03*
X370000Y250000D03*
X370000Y260000D03*
X370000Y270000D03*
X370000Y280000D03*
X370000Y290000D03*
X370000Y300000D03*
X370000Y310000D03*
X380000Y320000D03*
X380000Y310000D03*
X380000Y300000D03*
X380000Y290000D03*
X380000Y280000D03*
X380000Y270000D03*
X380000Y260000D03*
X380000Y250000D03*
X380000Y240000D03*
X380000Y230000D03*
X380000Y220000D03*
X380000Y210000D03*
X390000Y330000D03*
X390000Y320000D03*
X390000Y310000D03*
X390000Y300000D03*
X390000Y290000D03*
X390000Y280000D03*
X390000Y270000D03*
X390000Y260000D03*
X390000Y250000D03*
X390000Y240000D03*
X390000Y230000D03*
X390000Y220000D03*
X390000Y210000D03*
X400000Y210000D03*
X400000Y220000D03*
X400000Y230000D03*
X400000Y240000D03*
X400000Y250000D03*
X400000Y260000D03*
X400000Y270000D03*
X400000Y280000D03*
X400000Y290000D03*
X400000Y300000D03*
X400000Y310000D03*
X400000Y320000D03*
X400000Y330000D03*
X410000Y330000D03*
X410000Y320000D03*
X410000Y310000D03*
X410000Y300000D03*
X410000Y290000D03*
X410000Y280000D03*
X410000Y270000D03*
X410000Y260000D03*
X410000Y250000D03*
X410000Y240000D03*
X410000Y230000D03*
X410000Y220000D03*
X410000Y210000D03*
X420000Y330000D03*
X420000Y320000D03*
X420000Y310000D03*
X420000Y300000D03*
X420000Y290000D03*
X420000Y280000D03*
X420000Y270000D03*
X420000Y260000D03*
X420000Y250000D03*
X420000Y240000D03*
X420000Y230000D03*
X420000Y220000D03*
X420000Y210000D03*
X430000Y210000D03*
X430000Y220000D03*
X430000Y230000D03*
X430000Y240000D03*
X430000Y250000D03*
X430000Y260000D03*
X430000Y270000D03*
X430000Y280000D03*
X430000Y290000D03*
X430000Y300000D03*
X430000Y310000D03*
X430000Y320000D03*
X430000Y330000D03*
X440000Y330000D03*
X440000Y320000D03*
X440000Y310000D03*
X440000Y300000D03*
X440000Y290000D03*
X440000Y280000D03*
X440000Y270000D03*
X440000Y260000D03*
X440000Y250000D03*
X440000Y240000D03*
X440000Y230000D03*
X440000Y220000D03*
X440000Y210000D03*
D13*
X610000Y210000D03*
D12*
X290000Y330000D03*
X280000Y330000D03*
X270000Y330000D03*
X270000Y320000D03*
X280000Y320000D03*
X290000Y320000D03*
X290000Y310000D03*
X280000Y310000D03*
X270000Y310000D03*
X270000Y420000D03*
X280000Y420000D03*
X290000Y420000D03*
X300000Y420000D03*
X310000Y420000D03*
X310000Y430000D03*
X310000Y440000D03*
X310000Y450000D03*
X300000Y450000D03*
X290000Y450000D03*
X280000Y450000D03*
X270000Y450000D03*
X270000Y460000D03*
X280000Y460000D03*
X290000Y460000D03*
X300000Y460000D03*
X310000Y460000D03*
X320000Y460000D03*
X320000Y450000D03*
X320000Y440000D03*
X320000Y430000D03*
X320000Y420000D03*
X290000Y280000D03*
X280000Y280000D03*
X270000Y280000D03*
X260000Y280000D03*
X250000Y280000D03*
X250000Y290000D03*
X250000Y300000D03*
X250000Y310000D03*
X260000Y310000D03*
X260000Y320000D03*
X250000Y320000D03*
X250000Y330000D03*
X260000Y330000D03*
X345000Y150000D03*
X355000Y150000D03*
X355000Y160000D03*
X345000Y160000D03*
X345000Y170000D03*
X355000Y170000D03*
X300000Y130000D03*
D14*
X410000Y525400D02*
X435400Y525400D01*
X435400Y500000D02*
X410000Y500000D01*
X435400Y525400D02*
X435400Y470400D01*
X435000Y470000D01*
D12*
X120000Y460000D03*
X120000Y450000D03*
X120000Y440000D03*
X120000Y430000D03*
X120000Y420000D03*
X120000Y410000D03*
X120000Y400000D03*
X120000Y390000D03*
X120000Y380000D03*
X120000Y370000D03*
X120000Y360000D03*
X130000Y340000D03*
X130000Y350000D03*
X130000Y360000D03*
X130000Y370000D03*
X130000Y380000D03*
X130000Y390000D03*
X130000Y400000D03*
X130000Y410000D03*
X130000Y420000D03*
X130000Y430000D03*
X130000Y440000D03*
X130000Y450000D03*
X130000Y460000D03*
X140000Y460000D03*
X140000Y450000D03*
X140000Y440000D03*
X140000Y430000D03*
X140000Y420000D03*
X140000Y410000D03*
X140000Y400000D03*
X140000Y390000D03*
X140000Y380000D03*
X140000Y370000D03*
X140000Y360000D03*
X140000Y350000D03*
X140000Y340000D03*
X150000Y460000D03*
X150000Y450000D03*
X150000Y440000D03*
X150000Y430000D03*
X150000Y420000D03*
X150000Y410000D03*
X150000Y400000D03*
X150000Y390000D03*
X150000Y380000D03*
X150000Y370000D03*
X150000Y360000D03*
X150000Y350000D03*
X150000Y340000D03*
X160000Y340000D03*
X160000Y350000D03*
X160000Y360000D03*
X160000Y370000D03*
X160000Y380000D03*
X160000Y390000D03*
X160000Y400000D03*
X160000Y410000D03*
X160000Y420000D03*
X160000Y430000D03*
X160000Y440000D03*
X160000Y450000D03*
X160000Y460000D03*
X170000Y460000D03*
X170000Y450000D03*
X170000Y440000D03*
X170000Y430000D03*
X170000Y420000D03*
X170000Y410000D03*
X170000Y400000D03*
X170000Y390000D03*
X170000Y380000D03*
X170000Y370000D03*
X170000Y360000D03*
X170000Y350000D03*
X170000Y340000D03*
X180000Y460000D03*
X180000Y450000D03*
X180000Y440000D03*
X180000Y430000D03*
X180000Y420000D03*
X180000Y410000D03*
X180000Y400000D03*
X180000Y390000D03*
X180000Y380000D03*
X180000Y370000D03*
X180000Y360000D03*
X180000Y350000D03*
X180000Y340000D03*
X190000Y340000D03*
X190000Y350000D03*
X190000Y360000D03*
X190000Y370000D03*
X190000Y380000D03*
X190000Y390000D03*
X190000Y400000D03*
X190000Y410000D03*
X190000Y420000D03*
X190000Y430000D03*
X190000Y440000D03*
X190000Y450000D03*
X190000Y460000D03*
X200000Y460000D03*
X200000Y450000D03*
X200000Y440000D03*
X200000Y430000D03*
X200000Y420000D03*
X200000Y410000D03*
X200000Y400000D03*
X200000Y390000D03*
X200000Y380000D03*
X200000Y370000D03*
X200000Y360000D03*
X200000Y350000D03*
X200000Y340000D03*
X120000Y320000D03*
X120000Y310000D03*
X120000Y300000D03*
X120000Y290000D03*
X120000Y280000D03*
X120000Y270000D03*
X120000Y260000D03*
X120000Y250000D03*
X120000Y240000D03*
X120000Y230000D03*
X120000Y220000D03*
X120000Y210000D03*
X130000Y210000D03*
X130000Y220000D03*
X130000Y230000D03*
X130000Y240000D03*
X130000Y250000D03*
X130000Y260000D03*
X130000Y270000D03*
X130000Y280000D03*
X130000Y290000D03*
X130000Y300000D03*
X130000Y310000D03*
X130000Y320000D03*
X130000Y330000D03*
X140000Y330000D03*
X140000Y320000D03*
X140000Y310000D03*
X140000Y300000D03*
X140000Y290000D03*
X140000Y280000D03*
X140000Y270000D03*
X140000Y260000D03*
X140000Y250000D03*
X140000Y240000D03*
X140000Y230000D03*
X140000Y220000D03*
X140000Y210000D03*
X150000Y330000D03*
X150000Y320000D03*
X150000Y310000D03*
X150000Y300000D03*
X150000Y290000D03*
X150000Y280000D03*
X150000Y270000D03*
X150000Y260000D03*
X150000Y250000D03*
X150000Y240000D03*
X150000Y230000D03*
X150000Y220000D03*
X150000Y210000D03*
X160000Y210000D03*
X160000Y220000D03*
X160000Y230000D03*
X160000Y240000D03*
X160000Y250000D03*
X160000Y260000D03*
X160000Y270000D03*
X160000Y280000D03*
X160000Y290000D03*
X160000Y300000D03*
X160000Y310000D03*
X160000Y320000D03*
X160000Y330000D03*
X170000Y330000D03*
X170000Y320000D03*
X170000Y310000D03*
X170000Y300000D03*
X170000Y290000D03*
X170000Y280000D03*
X170000Y270000D03*
X170000Y260000D03*
X170000Y250000D03*
X170000Y240000D03*
X170000Y230000D03*
X170000Y220000D03*
X170000Y210000D03*
X180000Y330000D03*
X180000Y320000D03*
X180000Y310000D03*
X180000Y300000D03*
X180000Y290000D03*
X180000Y280000D03*
X180000Y270000D03*
X180000Y260000D03*
X180000Y250000D03*
X180000Y240000D03*
X180000Y230000D03*
X180000Y220000D03*
X180000Y210000D03*
X190000Y210000D03*
X190000Y220000D03*
X190000Y230000D03*
X190000Y240000D03*
X190000Y250000D03*
X190000Y260000D03*
X190000Y270000D03*
X190000Y280000D03*
X190000Y290000D03*
X190000Y300000D03*
X190000Y310000D03*
X190000Y320000D03*
X190000Y330000D03*
X200000Y330000D03*
X200000Y320000D03*
X200000Y310000D03*
X200000Y300000D03*
X200000Y290000D03*
X200000Y280000D03*
X200000Y270000D03*
X200000Y260000D03*
X200000Y250000D03*
X200000Y240000D03*
X200000Y230000D03*
X200000Y220000D03*
X200000Y210000D03*
D13*
X36000Y106000D03*
X298000Y68000D03*
X360000Y108650D03*
D12*
X500000Y170000D03*
D13*
X25000Y268000D03*
X25000Y278000D03*
X25000Y334000D03*
X25000Y344000D03*
X25000Y397000D03*
X25000Y407000D03*
X25000Y460000D03*
X24000Y213000D03*
X515000Y50000D03*
X572000Y55000D03*
D12*
X420000Y121000D03*
X451000Y121000D03*
X428000Y171000D03*
X420000Y171000D03*
X470000Y187000D03*
X495000Y364000D03*
X572000Y47000D03*
D13*
X550000Y425000D03*
X560000Y425000D03*
X560000Y435000D03*
X550000Y435000D03*
X550000Y415000D03*
X540000Y415000D03*
X530000Y415000D03*
X520000Y415000D03*
X510000Y415000D03*
X500000Y415000D03*
X560000Y445000D03*
X560000Y455000D03*
X550000Y445000D03*
X550000Y455000D03*
X560000Y415000D03*
X540000Y455000D03*
X530000Y455000D03*
X520000Y455000D03*
X510000Y455000D03*
X500000Y455000D03*
X500000Y465000D03*
X510000Y465000D03*
X520000Y465000D03*
X530000Y465000D03*
X540000Y465000D03*
X550000Y465000D03*
X560000Y465000D03*
X500000Y280000D03*
X510000Y280000D03*
X520000Y280000D03*
X530000Y280000D03*
X500000Y290000D03*
X500000Y300000D03*
X500000Y310000D03*
X510000Y310000D03*
X520000Y310000D03*
X530000Y310000D03*
X530000Y320000D03*
X520000Y320000D03*
X510000Y320000D03*
X500000Y320000D03*
X500000Y330000D03*
X510000Y330000D03*
X520000Y330000D03*
X530000Y330000D03*
D15*
X550000Y395000D02*
X550000Y415000D01*
D13*
X550000Y115000D03*
X160000Y128000D03*
X619000Y308000D03*
X462000Y70000D03*
X400000Y70000D03*
M02*
