G04 EAGLE Gerber RS-274X export*
G75*
%MOMM*%
%FSLAX34Y34*%
%LPD*%
%INSolderpaste Bottom*%
%IPPOS*%
%AMOC8*
5,1,8,0,0,1.08239X$1,22.5*%
G01*

G36*
X36797Y485987D02*
X36797Y485987D01*
X36792Y485994D01*
X36799Y486000D01*
X36799Y496300D01*
X36763Y496347D01*
X36756Y496342D01*
X36750Y496349D01*
X36653Y496349D01*
X36309Y496398D01*
X35662Y496548D01*
X34514Y496847D01*
X33767Y497096D01*
X32868Y497446D01*
X32370Y497645D01*
X31423Y498094D01*
X30674Y498493D01*
X29527Y499191D01*
X28879Y499640D01*
X28431Y499988D01*
X27682Y500588D01*
X27133Y501086D01*
X27133Y501087D01*
X26685Y501485D01*
X26337Y501882D01*
X26336Y501883D01*
X26336Y501884D01*
X25587Y502683D01*
X25139Y503231D01*
X24789Y503680D01*
X24391Y504228D01*
X24042Y504776D01*
X23642Y505425D01*
X23244Y506123D01*
X22845Y506921D01*
X22495Y507720D01*
X22146Y508567D01*
X21897Y509314D01*
X21698Y510062D01*
X21498Y510861D01*
X21349Y511605D01*
X21349Y511750D01*
X21313Y511797D01*
X21306Y511792D01*
X21300Y511799D01*
X10950Y511799D01*
X10903Y511763D01*
X10912Y511751D01*
X10902Y511740D01*
X10951Y511492D01*
X11051Y510793D01*
X11052Y510792D01*
X11051Y510792D01*
X11201Y509892D01*
X11202Y509891D01*
X11352Y509091D01*
X11352Y509090D01*
X11502Y508340D01*
X11503Y508339D01*
X11502Y508338D01*
X11752Y507338D01*
X11753Y507337D01*
X11753Y507336D01*
X12003Y506486D01*
X12004Y506485D01*
X12003Y506484D01*
X12303Y505584D01*
X12304Y505584D01*
X12304Y505583D01*
X12554Y504883D01*
X12854Y504083D01*
X12855Y504082D01*
X12854Y504081D01*
X13204Y503231D01*
X13206Y503230D01*
X13205Y503229D01*
X13555Y502479D01*
X13556Y502479D01*
X13556Y502478D01*
X14156Y501278D01*
X14158Y501277D01*
X14157Y501276D01*
X14957Y499876D01*
X14959Y499875D01*
X14959Y499873D01*
X15409Y499173D01*
X15658Y498774D01*
X15660Y498773D01*
X15660Y498772D01*
X16110Y498122D01*
X16460Y497622D01*
X16462Y497621D01*
X16461Y497620D01*
X16811Y497170D01*
X17311Y496520D01*
X17313Y496520D01*
X17312Y496518D01*
X17862Y495868D01*
X17863Y495868D01*
X18213Y495468D01*
X18214Y495467D01*
X18814Y494817D01*
X18815Y494816D01*
X18815Y494815D01*
X19915Y493715D01*
X19917Y493715D01*
X19917Y493713D01*
X20817Y492913D01*
X20818Y492913D01*
X20818Y492912D01*
X21468Y492362D01*
X21469Y492362D01*
X21969Y491962D01*
X21970Y491962D01*
X21970Y491961D01*
X22570Y491511D01*
X22571Y491511D01*
X22571Y491510D01*
X23271Y491010D01*
X23272Y491010D01*
X23922Y490560D01*
X23924Y490560D01*
X23924Y490558D01*
X24724Y490058D01*
X25274Y489708D01*
X25277Y489709D01*
X25277Y489706D01*
X26126Y489257D01*
X26826Y488857D01*
X26829Y488858D01*
X26829Y488855D01*
X27679Y488455D01*
X27680Y488456D01*
X27681Y488455D01*
X29431Y487705D01*
X29433Y487705D01*
X29434Y487704D01*
X30434Y487354D01*
X30434Y487353D01*
X31184Y487103D01*
X31185Y487104D01*
X31185Y487103D01*
X31985Y486853D01*
X31987Y486854D01*
X31988Y486852D01*
X33188Y486552D01*
X33189Y486552D01*
X34039Y486352D01*
X34040Y486353D01*
X34041Y486352D01*
X34841Y486202D01*
X35691Y486052D01*
X35693Y486052D01*
X35694Y486051D01*
X36494Y485951D01*
X36498Y485953D01*
X36500Y485951D01*
X36750Y485951D01*
X36797Y485987D01*
G37*
G36*
X43508Y485951D02*
X43508Y485951D01*
X44207Y486051D01*
X44208Y486052D01*
X44208Y486051D01*
X45108Y486201D01*
X45109Y486202D01*
X45909Y486352D01*
X45910Y486352D01*
X46660Y486502D01*
X46661Y486503D01*
X46662Y486502D01*
X47662Y486752D01*
X47663Y486753D01*
X47664Y486753D01*
X48514Y487003D01*
X48515Y487004D01*
X48516Y487003D01*
X49416Y487303D01*
X49416Y487304D01*
X49417Y487304D01*
X50117Y487554D01*
X50917Y487854D01*
X50918Y487855D01*
X50919Y487854D01*
X51769Y488204D01*
X51770Y488206D01*
X51771Y488205D01*
X52521Y488555D01*
X52521Y488556D01*
X52522Y488556D01*
X53722Y489156D01*
X53723Y489158D01*
X53724Y489157D01*
X55124Y489957D01*
X55125Y489959D01*
X55127Y489959D01*
X55827Y490409D01*
X56226Y490658D01*
X56227Y490660D01*
X56228Y490660D01*
X56878Y491110D01*
X57378Y491460D01*
X57379Y491462D01*
X57380Y491461D01*
X57830Y491811D01*
X58480Y492311D01*
X58481Y492313D01*
X58482Y492312D01*
X59132Y492862D01*
X59132Y492863D01*
X59532Y493213D01*
X59533Y493214D01*
X60183Y493814D01*
X60184Y493815D01*
X60185Y493815D01*
X61285Y494915D01*
X61285Y494917D01*
X61287Y494917D01*
X62087Y495817D01*
X62087Y495818D01*
X62088Y495818D01*
X62638Y496468D01*
X62638Y496469D01*
X63038Y496969D01*
X63039Y496970D01*
X63489Y497570D01*
X63489Y497571D01*
X63490Y497571D01*
X63990Y498271D01*
X63990Y498272D01*
X63991Y498272D01*
X64441Y498922D01*
X64440Y498924D01*
X64442Y498924D01*
X64942Y499724D01*
X65292Y500274D01*
X65291Y500277D01*
X65294Y500277D01*
X65743Y501126D01*
X66143Y501826D01*
X66142Y501829D01*
X66145Y501829D01*
X66545Y502679D01*
X66544Y502680D01*
X66545Y502681D01*
X67295Y504431D01*
X67295Y504433D01*
X67297Y504434D01*
X67647Y505434D01*
X67646Y505434D01*
X67647Y505434D01*
X67897Y506184D01*
X67897Y506185D01*
X68147Y506985D01*
X68146Y506987D01*
X68148Y506988D01*
X68448Y508188D01*
X68448Y508189D01*
X68648Y509039D01*
X68647Y509040D01*
X68648Y509041D01*
X68798Y509841D01*
X68799Y509841D01*
X68949Y510691D01*
X68948Y510693D01*
X68949Y510694D01*
X69049Y511494D01*
X69047Y511497D01*
X69047Y511498D01*
X69049Y511500D01*
X69049Y511750D01*
X69013Y511797D01*
X69006Y511792D01*
X69000Y511799D01*
X58700Y511799D01*
X58653Y511763D01*
X58658Y511756D01*
X58651Y511750D01*
X58651Y511653D01*
X58602Y511309D01*
X58452Y510661D01*
X58153Y509514D01*
X57904Y508767D01*
X57554Y507868D01*
X57355Y507370D01*
X56906Y506423D01*
X56507Y505674D01*
X55809Y504527D01*
X55360Y503879D01*
X55012Y503431D01*
X54412Y502682D01*
X53914Y502133D01*
X53913Y502133D01*
X53515Y501685D01*
X53118Y501337D01*
X53117Y501336D01*
X53116Y501336D01*
X52318Y500587D01*
X51769Y500139D01*
X51320Y499789D01*
X50772Y499391D01*
X50224Y499042D01*
X49575Y498642D01*
X48877Y498244D01*
X48079Y497845D01*
X47280Y497495D01*
X46433Y497146D01*
X45686Y496897D01*
X44937Y496698D01*
X44139Y496498D01*
X43395Y496349D01*
X43250Y496349D01*
X43203Y496313D01*
X43206Y496309D01*
X43203Y496306D01*
X43205Y496303D01*
X43201Y496300D01*
X43201Y485950D01*
X43237Y485903D01*
X43249Y485912D01*
X43260Y485902D01*
X43508Y485951D01*
G37*
G36*
X653508Y485951D02*
X653508Y485951D01*
X654207Y486051D01*
X654208Y486052D01*
X654208Y486051D01*
X655108Y486201D01*
X655109Y486202D01*
X655909Y486352D01*
X655910Y486352D01*
X656660Y486502D01*
X656661Y486503D01*
X656662Y486502D01*
X657662Y486752D01*
X657663Y486753D01*
X657664Y486753D01*
X658514Y487003D01*
X658515Y487004D01*
X658516Y487003D01*
X659416Y487303D01*
X659416Y487304D01*
X659417Y487304D01*
X660117Y487554D01*
X660917Y487854D01*
X660918Y487855D01*
X660919Y487854D01*
X661769Y488204D01*
X661770Y488206D01*
X661771Y488205D01*
X662521Y488555D01*
X662521Y488556D01*
X662522Y488556D01*
X663722Y489156D01*
X663723Y489158D01*
X663724Y489157D01*
X665124Y489957D01*
X665125Y489959D01*
X665127Y489959D01*
X665827Y490409D01*
X666226Y490658D01*
X666227Y490660D01*
X666228Y490660D01*
X666878Y491110D01*
X667378Y491460D01*
X667379Y491462D01*
X667380Y491461D01*
X667830Y491811D01*
X668480Y492311D01*
X668481Y492313D01*
X668482Y492312D01*
X669132Y492862D01*
X669132Y492863D01*
X669532Y493213D01*
X669533Y493214D01*
X670183Y493814D01*
X670184Y493815D01*
X670185Y493815D01*
X671285Y494915D01*
X671285Y494917D01*
X671287Y494917D01*
X672087Y495817D01*
X672087Y495818D01*
X672088Y495818D01*
X672638Y496468D01*
X672638Y496469D01*
X673038Y496969D01*
X673039Y496970D01*
X673489Y497570D01*
X673489Y497571D01*
X673490Y497571D01*
X673990Y498271D01*
X673990Y498272D01*
X673991Y498272D01*
X674441Y498922D01*
X674440Y498924D01*
X674442Y498924D01*
X674942Y499724D01*
X675292Y500274D01*
X675291Y500277D01*
X675294Y500277D01*
X675743Y501126D01*
X676143Y501826D01*
X676142Y501829D01*
X676145Y501829D01*
X676545Y502679D01*
X676544Y502680D01*
X676545Y502681D01*
X677295Y504431D01*
X677295Y504433D01*
X677297Y504434D01*
X677647Y505434D01*
X677646Y505434D01*
X677647Y505434D01*
X677897Y506184D01*
X677897Y506185D01*
X678147Y506985D01*
X678146Y506987D01*
X678148Y506988D01*
X678448Y508188D01*
X678448Y508189D01*
X678648Y509039D01*
X678647Y509040D01*
X678648Y509041D01*
X678798Y509841D01*
X678799Y509841D01*
X678949Y510691D01*
X678948Y510693D01*
X678949Y510694D01*
X679049Y511494D01*
X679047Y511497D01*
X679047Y511498D01*
X679049Y511500D01*
X679049Y511750D01*
X679013Y511797D01*
X679006Y511792D01*
X679000Y511799D01*
X668700Y511799D01*
X668653Y511763D01*
X668658Y511756D01*
X668651Y511750D01*
X668651Y511653D01*
X668602Y511309D01*
X668452Y510661D01*
X668153Y509514D01*
X667904Y508767D01*
X667554Y507868D01*
X667355Y507370D01*
X666906Y506423D01*
X666507Y505674D01*
X665809Y504527D01*
X665360Y503879D01*
X665012Y503431D01*
X664412Y502682D01*
X663914Y502133D01*
X663913Y502133D01*
X663515Y501685D01*
X663118Y501337D01*
X663117Y501336D01*
X663116Y501336D01*
X662318Y500587D01*
X661769Y500139D01*
X661320Y499789D01*
X660772Y499391D01*
X660224Y499042D01*
X659575Y498642D01*
X658877Y498244D01*
X658079Y497845D01*
X657280Y497495D01*
X656433Y497146D01*
X655686Y496897D01*
X654937Y496698D01*
X654139Y496498D01*
X653395Y496349D01*
X653250Y496349D01*
X653203Y496313D01*
X653206Y496309D01*
X653203Y496306D01*
X653205Y496303D01*
X653201Y496300D01*
X653201Y485950D01*
X653237Y485903D01*
X653249Y485912D01*
X653260Y485902D01*
X653508Y485951D01*
G37*
G36*
X646797Y10987D02*
X646797Y10987D01*
X646792Y10994D01*
X646799Y11000D01*
X646799Y21300D01*
X646763Y21347D01*
X646756Y21342D01*
X646750Y21349D01*
X646653Y21349D01*
X646309Y21398D01*
X645662Y21548D01*
X644514Y21847D01*
X643767Y22096D01*
X642868Y22446D01*
X642370Y22645D01*
X641423Y23094D01*
X640674Y23493D01*
X639527Y24191D01*
X638879Y24640D01*
X638431Y24988D01*
X637682Y25588D01*
X637133Y26086D01*
X637133Y26087D01*
X636685Y26485D01*
X636337Y26882D01*
X636336Y26883D01*
X636336Y26884D01*
X635587Y27683D01*
X635139Y28231D01*
X634789Y28680D01*
X634391Y29228D01*
X634042Y29776D01*
X633642Y30425D01*
X633244Y31123D01*
X632845Y31921D01*
X632495Y32720D01*
X632146Y33567D01*
X631897Y34314D01*
X631698Y35062D01*
X631498Y35861D01*
X631349Y36605D01*
X631349Y36750D01*
X631313Y36797D01*
X631306Y36792D01*
X631300Y36799D01*
X620950Y36799D01*
X620903Y36763D01*
X620912Y36751D01*
X620902Y36740D01*
X620951Y36492D01*
X621051Y35793D01*
X621052Y35792D01*
X621051Y35792D01*
X621201Y34892D01*
X621202Y34891D01*
X621352Y34091D01*
X621352Y34090D01*
X621502Y33340D01*
X621503Y33339D01*
X621502Y33338D01*
X621752Y32338D01*
X621753Y32337D01*
X621753Y32336D01*
X622003Y31486D01*
X622004Y31485D01*
X622003Y31484D01*
X622303Y30584D01*
X622304Y30584D01*
X622304Y30583D01*
X622554Y29883D01*
X622854Y29083D01*
X622855Y29082D01*
X622854Y29081D01*
X623204Y28231D01*
X623206Y28230D01*
X623205Y28229D01*
X623555Y27479D01*
X623556Y27479D01*
X623556Y27478D01*
X624156Y26278D01*
X624158Y26277D01*
X624157Y26276D01*
X624957Y24876D01*
X624959Y24875D01*
X624959Y24873D01*
X625409Y24173D01*
X625658Y23774D01*
X625660Y23773D01*
X625660Y23772D01*
X626110Y23122D01*
X626460Y22622D01*
X626462Y22621D01*
X626461Y22620D01*
X626811Y22170D01*
X627311Y21520D01*
X627313Y21520D01*
X627312Y21518D01*
X627862Y20868D01*
X627863Y20868D01*
X628213Y20468D01*
X628214Y20467D01*
X628814Y19817D01*
X628815Y19816D01*
X628815Y19815D01*
X629915Y18715D01*
X629917Y18715D01*
X629917Y18713D01*
X630817Y17913D01*
X630818Y17913D01*
X630818Y17912D01*
X631468Y17362D01*
X631469Y17362D01*
X631969Y16962D01*
X631970Y16962D01*
X631970Y16961D01*
X632570Y16511D01*
X632571Y16511D01*
X632571Y16510D01*
X633271Y16010D01*
X633272Y16010D01*
X633922Y15560D01*
X633924Y15560D01*
X633924Y15558D01*
X634724Y15058D01*
X635274Y14708D01*
X635277Y14709D01*
X635277Y14706D01*
X636126Y14257D01*
X636826Y13857D01*
X636829Y13858D01*
X636829Y13855D01*
X637679Y13455D01*
X637680Y13456D01*
X637681Y13455D01*
X639431Y12705D01*
X639433Y12705D01*
X639434Y12704D01*
X640434Y12354D01*
X640434Y12353D01*
X641184Y12103D01*
X641185Y12104D01*
X641185Y12103D01*
X641985Y11853D01*
X641987Y11854D01*
X641988Y11852D01*
X643188Y11552D01*
X643189Y11552D01*
X644039Y11352D01*
X644040Y11353D01*
X644041Y11352D01*
X644841Y11202D01*
X645691Y11052D01*
X645693Y11052D01*
X645694Y11051D01*
X646494Y10951D01*
X646498Y10953D01*
X646500Y10951D01*
X646750Y10951D01*
X646797Y10987D01*
G37*
G36*
X646797Y485987D02*
X646797Y485987D01*
X646792Y485994D01*
X646799Y486000D01*
X646799Y496300D01*
X646763Y496347D01*
X646756Y496342D01*
X646750Y496349D01*
X646653Y496349D01*
X646309Y496398D01*
X645662Y496548D01*
X644514Y496847D01*
X643767Y497096D01*
X642868Y497446D01*
X642370Y497645D01*
X641423Y498094D01*
X640674Y498493D01*
X639527Y499191D01*
X638879Y499640D01*
X638431Y499988D01*
X637682Y500588D01*
X637133Y501086D01*
X637133Y501087D01*
X636685Y501485D01*
X636337Y501882D01*
X636336Y501883D01*
X636336Y501884D01*
X635587Y502683D01*
X635139Y503231D01*
X634789Y503680D01*
X634391Y504228D01*
X634042Y504776D01*
X633642Y505425D01*
X633244Y506123D01*
X632845Y506921D01*
X632495Y507720D01*
X632146Y508567D01*
X631897Y509314D01*
X631698Y510062D01*
X631498Y510861D01*
X631349Y511605D01*
X631349Y511750D01*
X631313Y511797D01*
X631306Y511792D01*
X631300Y511799D01*
X620950Y511799D01*
X620903Y511763D01*
X620912Y511751D01*
X620902Y511740D01*
X620951Y511492D01*
X621051Y510793D01*
X621052Y510792D01*
X621051Y510792D01*
X621201Y509892D01*
X621202Y509891D01*
X621352Y509091D01*
X621352Y509090D01*
X621502Y508340D01*
X621503Y508339D01*
X621502Y508338D01*
X621752Y507338D01*
X621753Y507337D01*
X621753Y507336D01*
X622003Y506486D01*
X622004Y506485D01*
X622003Y506484D01*
X622303Y505584D01*
X622304Y505584D01*
X622304Y505583D01*
X622554Y504883D01*
X622854Y504083D01*
X622855Y504082D01*
X622854Y504081D01*
X623204Y503231D01*
X623206Y503230D01*
X623205Y503229D01*
X623555Y502479D01*
X623556Y502479D01*
X623556Y502478D01*
X624156Y501278D01*
X624158Y501277D01*
X624157Y501276D01*
X624957Y499876D01*
X624959Y499875D01*
X624959Y499873D01*
X625409Y499173D01*
X625658Y498774D01*
X625660Y498773D01*
X625660Y498772D01*
X626110Y498122D01*
X626460Y497622D01*
X626462Y497621D01*
X626461Y497620D01*
X626811Y497170D01*
X627311Y496520D01*
X627313Y496520D01*
X627312Y496518D01*
X627862Y495868D01*
X627863Y495868D01*
X628213Y495468D01*
X628214Y495467D01*
X628814Y494817D01*
X628815Y494816D01*
X628815Y494815D01*
X629915Y493715D01*
X629917Y493715D01*
X629917Y493713D01*
X630817Y492913D01*
X630818Y492913D01*
X630818Y492912D01*
X631468Y492362D01*
X631469Y492362D01*
X631969Y491962D01*
X631970Y491962D01*
X631970Y491961D01*
X632570Y491511D01*
X632571Y491511D01*
X632571Y491510D01*
X633271Y491010D01*
X633272Y491010D01*
X633922Y490560D01*
X633924Y490560D01*
X633924Y490558D01*
X634724Y490058D01*
X635274Y489708D01*
X635277Y489709D01*
X635277Y489706D01*
X636126Y489257D01*
X636826Y488857D01*
X636829Y488858D01*
X636829Y488855D01*
X637679Y488455D01*
X637680Y488456D01*
X637681Y488455D01*
X639431Y487705D01*
X639433Y487705D01*
X639434Y487704D01*
X640434Y487354D01*
X640434Y487353D01*
X641184Y487103D01*
X641185Y487104D01*
X641185Y487103D01*
X641985Y486853D01*
X641987Y486854D01*
X641988Y486852D01*
X643188Y486552D01*
X643189Y486552D01*
X644039Y486352D01*
X644040Y486353D01*
X644041Y486352D01*
X644841Y486202D01*
X645691Y486052D01*
X645693Y486052D01*
X645694Y486051D01*
X646494Y485951D01*
X646498Y485953D01*
X646500Y485951D01*
X646750Y485951D01*
X646797Y485987D01*
G37*
G36*
X631347Y43237D02*
X631347Y43237D01*
X631342Y43244D01*
X631349Y43250D01*
X631349Y43347D01*
X631398Y43691D01*
X631548Y44338D01*
X631847Y45486D01*
X632096Y46233D01*
X632446Y47132D01*
X632645Y47630D01*
X633094Y48577D01*
X633493Y49326D01*
X634191Y50473D01*
X634640Y51121D01*
X634988Y51569D01*
X635588Y52318D01*
X636086Y52867D01*
X636087Y52867D01*
X636485Y53315D01*
X636882Y53663D01*
X636883Y53664D01*
X636884Y53664D01*
X637683Y54413D01*
X638231Y54861D01*
X638680Y55211D01*
X639228Y55609D01*
X639776Y55958D01*
X640425Y56358D01*
X641123Y56756D01*
X641921Y57155D01*
X642720Y57505D01*
X643567Y57854D01*
X644314Y58103D01*
X645063Y58302D01*
X645861Y58502D01*
X646605Y58651D01*
X646750Y58651D01*
X646797Y58687D01*
X646792Y58694D01*
X646799Y58700D01*
X646799Y69050D01*
X646763Y69097D01*
X646751Y69088D01*
X646740Y69098D01*
X646492Y69049D01*
X645793Y68949D01*
X645792Y68948D01*
X645792Y68949D01*
X644892Y68799D01*
X644891Y68798D01*
X644091Y68648D01*
X644090Y68648D01*
X643340Y68498D01*
X643339Y68497D01*
X643338Y68498D01*
X642338Y68248D01*
X642337Y68247D01*
X642336Y68247D01*
X641486Y67997D01*
X641485Y67996D01*
X641484Y67997D01*
X640584Y67697D01*
X640584Y67696D01*
X640583Y67696D01*
X639883Y67446D01*
X639083Y67146D01*
X639082Y67145D01*
X639081Y67146D01*
X638231Y66796D01*
X638230Y66794D01*
X638229Y66795D01*
X637479Y66445D01*
X637479Y66444D01*
X637478Y66444D01*
X636278Y65844D01*
X636277Y65842D01*
X636276Y65843D01*
X634876Y65043D01*
X634875Y65041D01*
X634873Y65041D01*
X634173Y64591D01*
X633774Y64342D01*
X633773Y64340D01*
X633772Y64341D01*
X633122Y63891D01*
X633122Y63890D01*
X632622Y63540D01*
X632621Y63539D01*
X632620Y63539D01*
X632170Y63189D01*
X631520Y62689D01*
X631520Y62687D01*
X631518Y62688D01*
X630868Y62138D01*
X630868Y62137D01*
X630468Y61787D01*
X630467Y61786D01*
X629817Y61186D01*
X629816Y61185D01*
X629815Y61185D01*
X628715Y60085D01*
X628715Y60083D01*
X628713Y60083D01*
X627913Y59183D01*
X627913Y59182D01*
X627912Y59182D01*
X627362Y58532D01*
X627362Y58531D01*
X626962Y58031D01*
X626962Y58030D01*
X626961Y58030D01*
X626511Y57430D01*
X626511Y57429D01*
X626510Y57429D01*
X626010Y56729D01*
X626010Y56728D01*
X625560Y56078D01*
X625560Y56076D01*
X625558Y56076D01*
X625058Y55276D01*
X624708Y54726D01*
X624709Y54723D01*
X624706Y54723D01*
X624257Y53874D01*
X623857Y53174D01*
X623858Y53171D01*
X623855Y53171D01*
X623455Y52321D01*
X623456Y52320D01*
X623455Y52319D01*
X622705Y50569D01*
X622705Y50567D01*
X622704Y50566D01*
X622354Y49566D01*
X622353Y49566D01*
X622103Y48816D01*
X622104Y48815D01*
X622103Y48815D01*
X621853Y48015D01*
X621854Y48013D01*
X621852Y48012D01*
X621552Y46812D01*
X621552Y46811D01*
X621352Y45961D01*
X621353Y45960D01*
X621352Y45959D01*
X621202Y45159D01*
X621052Y44309D01*
X621052Y44307D01*
X621051Y44306D01*
X620951Y43506D01*
X620953Y43502D01*
X620951Y43500D01*
X620951Y43250D01*
X620987Y43203D01*
X620994Y43208D01*
X621000Y43201D01*
X631300Y43201D01*
X631347Y43237D01*
G37*
G36*
X21347Y518237D02*
X21347Y518237D01*
X21342Y518244D01*
X21349Y518250D01*
X21349Y518347D01*
X21398Y518691D01*
X21548Y519338D01*
X21847Y520486D01*
X22096Y521233D01*
X22446Y522132D01*
X22645Y522630D01*
X23094Y523577D01*
X23493Y524326D01*
X24191Y525473D01*
X24640Y526121D01*
X24988Y526569D01*
X25588Y527318D01*
X26086Y527867D01*
X26087Y527867D01*
X26485Y528315D01*
X26882Y528663D01*
X26883Y528664D01*
X26884Y528664D01*
X27683Y529413D01*
X28231Y529861D01*
X28680Y530211D01*
X29228Y530609D01*
X29776Y530958D01*
X30425Y531358D01*
X31123Y531756D01*
X31921Y532155D01*
X32720Y532505D01*
X33567Y532854D01*
X34314Y533103D01*
X35063Y533302D01*
X35861Y533502D01*
X36605Y533651D01*
X36750Y533651D01*
X36797Y533687D01*
X36792Y533694D01*
X36799Y533700D01*
X36799Y544050D01*
X36763Y544097D01*
X36751Y544088D01*
X36740Y544098D01*
X36492Y544049D01*
X35793Y543949D01*
X35792Y543948D01*
X35792Y543949D01*
X34892Y543799D01*
X34891Y543798D01*
X34091Y543648D01*
X34090Y543648D01*
X33340Y543498D01*
X33339Y543497D01*
X33338Y543498D01*
X32338Y543248D01*
X32337Y543247D01*
X32336Y543247D01*
X31486Y542997D01*
X31485Y542996D01*
X31484Y542997D01*
X30584Y542697D01*
X30584Y542696D01*
X30583Y542696D01*
X29883Y542446D01*
X29083Y542146D01*
X29082Y542145D01*
X29081Y542146D01*
X28231Y541796D01*
X28230Y541794D01*
X28229Y541795D01*
X27479Y541445D01*
X27479Y541444D01*
X27478Y541444D01*
X26278Y540844D01*
X26277Y540842D01*
X26276Y540843D01*
X24876Y540043D01*
X24875Y540041D01*
X24873Y540041D01*
X24173Y539591D01*
X23774Y539342D01*
X23773Y539340D01*
X23772Y539341D01*
X23122Y538891D01*
X23122Y538890D01*
X22622Y538540D01*
X22621Y538539D01*
X22620Y538539D01*
X22170Y538189D01*
X21520Y537689D01*
X21520Y537687D01*
X21518Y537688D01*
X20868Y537138D01*
X20868Y537137D01*
X20468Y536787D01*
X20467Y536786D01*
X19817Y536186D01*
X19816Y536185D01*
X19815Y536185D01*
X18715Y535085D01*
X18715Y535083D01*
X18713Y535083D01*
X17913Y534183D01*
X17913Y534182D01*
X17912Y534182D01*
X17362Y533532D01*
X17362Y533531D01*
X16962Y533031D01*
X16962Y533030D01*
X16961Y533030D01*
X16511Y532430D01*
X16511Y532429D01*
X16510Y532429D01*
X16010Y531729D01*
X16010Y531728D01*
X15560Y531078D01*
X15560Y531076D01*
X15558Y531076D01*
X15058Y530276D01*
X14708Y529726D01*
X14709Y529723D01*
X14706Y529723D01*
X14257Y528874D01*
X13857Y528174D01*
X13858Y528171D01*
X13855Y528171D01*
X13455Y527321D01*
X13456Y527320D01*
X13455Y527319D01*
X12705Y525569D01*
X12705Y525567D01*
X12704Y525566D01*
X12354Y524566D01*
X12353Y524566D01*
X12103Y523816D01*
X12104Y523815D01*
X12103Y523815D01*
X11853Y523015D01*
X11854Y523013D01*
X11852Y523012D01*
X11552Y521812D01*
X11552Y521811D01*
X11352Y520961D01*
X11353Y520960D01*
X11352Y520959D01*
X11202Y520159D01*
X11052Y519309D01*
X11052Y519307D01*
X11051Y519306D01*
X10951Y518506D01*
X10953Y518502D01*
X10951Y518500D01*
X10951Y518250D01*
X10987Y518203D01*
X10994Y518208D01*
X11000Y518201D01*
X21300Y518201D01*
X21347Y518237D01*
G37*
G36*
X631347Y518237D02*
X631347Y518237D01*
X631342Y518244D01*
X631349Y518250D01*
X631349Y518347D01*
X631398Y518691D01*
X631548Y519338D01*
X631847Y520486D01*
X632096Y521233D01*
X632446Y522132D01*
X632645Y522630D01*
X633094Y523577D01*
X633493Y524326D01*
X634191Y525473D01*
X634640Y526121D01*
X634988Y526569D01*
X635588Y527318D01*
X636086Y527867D01*
X636087Y527867D01*
X636485Y528315D01*
X636882Y528663D01*
X636883Y528664D01*
X636884Y528664D01*
X637683Y529413D01*
X638231Y529861D01*
X638680Y530211D01*
X639228Y530609D01*
X639776Y530958D01*
X640425Y531358D01*
X641123Y531756D01*
X641921Y532155D01*
X642720Y532505D01*
X643567Y532854D01*
X644314Y533103D01*
X645063Y533302D01*
X645861Y533502D01*
X646605Y533651D01*
X646750Y533651D01*
X646797Y533687D01*
X646792Y533694D01*
X646799Y533700D01*
X646799Y544050D01*
X646763Y544097D01*
X646751Y544088D01*
X646740Y544098D01*
X646492Y544049D01*
X645793Y543949D01*
X645792Y543948D01*
X645792Y543949D01*
X644892Y543799D01*
X644891Y543798D01*
X644091Y543648D01*
X644090Y543648D01*
X643340Y543498D01*
X643339Y543497D01*
X643338Y543498D01*
X642338Y543248D01*
X642337Y543247D01*
X642336Y543247D01*
X641486Y542997D01*
X641485Y542996D01*
X641484Y542997D01*
X640584Y542697D01*
X640584Y542696D01*
X640583Y542696D01*
X639883Y542446D01*
X639083Y542146D01*
X639082Y542145D01*
X639081Y542146D01*
X638231Y541796D01*
X638230Y541794D01*
X638229Y541795D01*
X637479Y541445D01*
X637479Y541444D01*
X637478Y541444D01*
X636278Y540844D01*
X636277Y540842D01*
X636276Y540843D01*
X634876Y540043D01*
X634875Y540041D01*
X634873Y540041D01*
X634173Y539591D01*
X633774Y539342D01*
X633773Y539340D01*
X633772Y539341D01*
X633122Y538891D01*
X633122Y538890D01*
X632622Y538540D01*
X632621Y538539D01*
X632620Y538539D01*
X632170Y538189D01*
X631520Y537689D01*
X631520Y537687D01*
X631518Y537688D01*
X630868Y537138D01*
X630868Y537137D01*
X630468Y536787D01*
X630467Y536786D01*
X629817Y536186D01*
X629816Y536185D01*
X629815Y536185D01*
X628715Y535085D01*
X628715Y535083D01*
X628713Y535083D01*
X627913Y534183D01*
X627913Y534182D01*
X627912Y534182D01*
X627362Y533532D01*
X627362Y533531D01*
X626962Y533031D01*
X626962Y533030D01*
X626961Y533030D01*
X626511Y532430D01*
X626511Y532429D01*
X626510Y532429D01*
X626010Y531729D01*
X626010Y531728D01*
X625560Y531078D01*
X625560Y531076D01*
X625558Y531076D01*
X625058Y530276D01*
X624708Y529726D01*
X624709Y529723D01*
X624706Y529723D01*
X624257Y528874D01*
X623857Y528174D01*
X623858Y528171D01*
X623855Y528171D01*
X623455Y527321D01*
X623456Y527320D01*
X623455Y527319D01*
X622705Y525569D01*
X622705Y525567D01*
X622704Y525566D01*
X622354Y524566D01*
X622353Y524566D01*
X622103Y523816D01*
X622104Y523815D01*
X622103Y523815D01*
X621853Y523015D01*
X621854Y523013D01*
X621852Y523012D01*
X621552Y521812D01*
X621552Y521811D01*
X621352Y520961D01*
X621353Y520960D01*
X621352Y520959D01*
X621202Y520159D01*
X621052Y519309D01*
X621052Y519307D01*
X621051Y519306D01*
X620951Y518506D01*
X620953Y518502D01*
X620951Y518500D01*
X620951Y518250D01*
X620987Y518203D01*
X620994Y518208D01*
X621000Y518201D01*
X631300Y518201D01*
X631347Y518237D01*
G37*
G36*
X653508Y10951D02*
X653508Y10951D01*
X654207Y11051D01*
X654208Y11052D01*
X654208Y11051D01*
X655108Y11201D01*
X655109Y11202D01*
X655909Y11352D01*
X655910Y11352D01*
X656660Y11502D01*
X656661Y11503D01*
X656662Y11502D01*
X657662Y11752D01*
X657663Y11753D01*
X657664Y11753D01*
X658514Y12003D01*
X658515Y12004D01*
X658516Y12003D01*
X659416Y12303D01*
X659416Y12304D01*
X659417Y12304D01*
X660117Y12554D01*
X660917Y12854D01*
X660918Y12855D01*
X660919Y12854D01*
X661769Y13204D01*
X661770Y13206D01*
X661771Y13205D01*
X662521Y13555D01*
X662521Y13556D01*
X662522Y13556D01*
X663722Y14156D01*
X663723Y14158D01*
X663724Y14157D01*
X665124Y14957D01*
X665125Y14959D01*
X665127Y14959D01*
X665827Y15409D01*
X666226Y15658D01*
X666227Y15660D01*
X666228Y15660D01*
X666878Y16110D01*
X667378Y16460D01*
X667379Y16462D01*
X667380Y16461D01*
X667830Y16811D01*
X668480Y17311D01*
X668481Y17313D01*
X668482Y17312D01*
X669132Y17862D01*
X669132Y17863D01*
X669532Y18213D01*
X669533Y18214D01*
X670183Y18814D01*
X670184Y18815D01*
X670185Y18815D01*
X671285Y19915D01*
X671285Y19917D01*
X671287Y19917D01*
X672087Y20817D01*
X672087Y20818D01*
X672088Y20818D01*
X672638Y21468D01*
X672638Y21469D01*
X673038Y21969D01*
X673039Y21970D01*
X673489Y22570D01*
X673489Y22571D01*
X673490Y22571D01*
X673990Y23271D01*
X673990Y23272D01*
X673991Y23272D01*
X674441Y23922D01*
X674440Y23924D01*
X674442Y23924D01*
X674942Y24724D01*
X675292Y25274D01*
X675291Y25277D01*
X675294Y25277D01*
X675743Y26126D01*
X676143Y26826D01*
X676142Y26829D01*
X676145Y26829D01*
X676545Y27679D01*
X676544Y27680D01*
X676545Y27681D01*
X677295Y29431D01*
X677295Y29433D01*
X677297Y29434D01*
X677647Y30434D01*
X677646Y30434D01*
X677647Y30434D01*
X677897Y31184D01*
X677897Y31185D01*
X678147Y31985D01*
X678146Y31987D01*
X678148Y31988D01*
X678448Y33188D01*
X678448Y33189D01*
X678648Y34039D01*
X678647Y34040D01*
X678648Y34041D01*
X678798Y34841D01*
X678799Y34841D01*
X678949Y35691D01*
X678948Y35693D01*
X678949Y35694D01*
X679049Y36494D01*
X679047Y36497D01*
X679047Y36498D01*
X679049Y36500D01*
X679049Y36750D01*
X679013Y36797D01*
X679006Y36792D01*
X679000Y36799D01*
X668700Y36799D01*
X668653Y36763D01*
X668658Y36756D01*
X668651Y36750D01*
X668651Y36653D01*
X668602Y36309D01*
X668452Y35661D01*
X668153Y34514D01*
X667904Y33767D01*
X667554Y32868D01*
X667355Y32370D01*
X666906Y31423D01*
X666507Y30674D01*
X665809Y29527D01*
X665360Y28879D01*
X665012Y28431D01*
X664412Y27682D01*
X663914Y27133D01*
X663913Y27133D01*
X663515Y26685D01*
X663118Y26337D01*
X663117Y26336D01*
X663116Y26336D01*
X662318Y25587D01*
X661769Y25139D01*
X661320Y24789D01*
X660772Y24391D01*
X660224Y24042D01*
X659575Y23642D01*
X658877Y23244D01*
X658079Y22845D01*
X657280Y22495D01*
X656433Y22146D01*
X655686Y21897D01*
X654937Y21698D01*
X654139Y21498D01*
X653395Y21349D01*
X653250Y21349D01*
X653203Y21313D01*
X653206Y21309D01*
X653203Y21306D01*
X653205Y21303D01*
X653201Y21300D01*
X653201Y10950D01*
X653237Y10903D01*
X653249Y10912D01*
X653260Y10902D01*
X653508Y10951D01*
G37*
G36*
X679097Y43237D02*
X679097Y43237D01*
X679088Y43249D01*
X679098Y43260D01*
X679049Y43508D01*
X678949Y44207D01*
X678948Y44208D01*
X678949Y44208D01*
X678799Y45108D01*
X678798Y45109D01*
X678648Y45909D01*
X678648Y45910D01*
X678498Y46660D01*
X678497Y46661D01*
X678498Y46662D01*
X678248Y47662D01*
X678247Y47663D01*
X678247Y47664D01*
X677997Y48514D01*
X677996Y48515D01*
X677997Y48516D01*
X677697Y49416D01*
X677696Y49416D01*
X677696Y49417D01*
X677446Y50117D01*
X677146Y50917D01*
X677145Y50918D01*
X677146Y50919D01*
X676796Y51769D01*
X676794Y51770D01*
X676795Y51771D01*
X676445Y52521D01*
X676444Y52521D01*
X676444Y52522D01*
X675844Y53722D01*
X675842Y53723D01*
X675843Y53724D01*
X675043Y55124D01*
X675041Y55125D01*
X675041Y55127D01*
X674591Y55827D01*
X674342Y56226D01*
X674340Y56227D01*
X674341Y56228D01*
X673891Y56878D01*
X673890Y56878D01*
X673540Y57378D01*
X673539Y57379D01*
X673539Y57380D01*
X673189Y57830D01*
X672689Y58480D01*
X672687Y58481D01*
X672688Y58482D01*
X672138Y59132D01*
X672137Y59132D01*
X671787Y59532D01*
X671786Y59533D01*
X671186Y60183D01*
X671185Y60184D01*
X671185Y60185D01*
X670085Y61285D01*
X670083Y61285D01*
X670083Y61287D01*
X669183Y62087D01*
X669182Y62087D01*
X669182Y62088D01*
X668532Y62638D01*
X668531Y62638D01*
X668031Y63038D01*
X668030Y63039D01*
X667430Y63489D01*
X667429Y63489D01*
X667429Y63490D01*
X666729Y63990D01*
X666728Y63990D01*
X666728Y63991D01*
X666078Y64441D01*
X666076Y64440D01*
X666076Y64442D01*
X665276Y64942D01*
X664726Y65292D01*
X664723Y65291D01*
X664723Y65294D01*
X663874Y65743D01*
X663174Y66143D01*
X663171Y66142D01*
X663171Y66145D01*
X662321Y66545D01*
X662320Y66544D01*
X662319Y66545D01*
X660569Y67295D01*
X660567Y67295D01*
X660566Y67297D01*
X659566Y67647D01*
X659566Y67646D01*
X659566Y67647D01*
X658816Y67897D01*
X658815Y67897D01*
X658015Y68147D01*
X658013Y68146D01*
X658012Y68148D01*
X656812Y68448D01*
X656811Y68448D01*
X655961Y68648D01*
X655960Y68647D01*
X655959Y68648D01*
X655159Y68798D01*
X655159Y68799D01*
X654309Y68949D01*
X654307Y68948D01*
X654306Y68949D01*
X653506Y69049D01*
X653502Y69047D01*
X653500Y69049D01*
X653250Y69049D01*
X653203Y69013D01*
X653208Y69006D01*
X653201Y69000D01*
X653201Y58700D01*
X653237Y58653D01*
X653244Y58658D01*
X653250Y58651D01*
X653347Y58651D01*
X653691Y58602D01*
X654338Y58452D01*
X655486Y58153D01*
X656233Y57904D01*
X657132Y57554D01*
X657630Y57355D01*
X658577Y56906D01*
X659326Y56507D01*
X660473Y55809D01*
X661121Y55360D01*
X661569Y55012D01*
X662318Y54412D01*
X662867Y53914D01*
X662867Y53913D01*
X663315Y53515D01*
X663663Y53118D01*
X663664Y53117D01*
X663664Y53116D01*
X664413Y52318D01*
X664861Y51769D01*
X665211Y51320D01*
X665609Y50772D01*
X665958Y50224D01*
X666358Y49575D01*
X666756Y48877D01*
X667155Y48079D01*
X667505Y47280D01*
X667854Y46433D01*
X668103Y45686D01*
X668302Y44937D01*
X668502Y44139D01*
X668651Y43395D01*
X668651Y43250D01*
X668687Y43203D01*
X668694Y43208D01*
X668700Y43201D01*
X679050Y43201D01*
X679097Y43237D01*
G37*
G36*
X679097Y518237D02*
X679097Y518237D01*
X679088Y518249D01*
X679098Y518260D01*
X679049Y518508D01*
X678949Y519207D01*
X678948Y519208D01*
X678949Y519208D01*
X678799Y520108D01*
X678798Y520109D01*
X678648Y520909D01*
X678648Y520910D01*
X678498Y521660D01*
X678497Y521661D01*
X678498Y521662D01*
X678248Y522662D01*
X678247Y522663D01*
X678247Y522664D01*
X677997Y523514D01*
X677996Y523515D01*
X677997Y523516D01*
X677697Y524416D01*
X677696Y524416D01*
X677696Y524417D01*
X677446Y525117D01*
X677146Y525917D01*
X677145Y525918D01*
X677146Y525919D01*
X676796Y526769D01*
X676794Y526770D01*
X676795Y526771D01*
X676445Y527521D01*
X676444Y527521D01*
X676444Y527522D01*
X675844Y528722D01*
X675842Y528723D01*
X675843Y528724D01*
X675043Y530124D01*
X675041Y530125D01*
X675041Y530127D01*
X674591Y530827D01*
X674342Y531226D01*
X674340Y531227D01*
X674341Y531228D01*
X673891Y531878D01*
X673890Y531878D01*
X673540Y532378D01*
X673539Y532379D01*
X673539Y532380D01*
X673189Y532830D01*
X672689Y533480D01*
X672687Y533481D01*
X672688Y533482D01*
X672138Y534132D01*
X672137Y534132D01*
X671787Y534532D01*
X671786Y534533D01*
X671186Y535183D01*
X671185Y535184D01*
X671185Y535185D01*
X670085Y536285D01*
X670083Y536285D01*
X670083Y536287D01*
X669183Y537087D01*
X669182Y537087D01*
X669182Y537088D01*
X668532Y537638D01*
X668531Y537638D01*
X668031Y538038D01*
X668030Y538039D01*
X667430Y538489D01*
X667429Y538489D01*
X667429Y538490D01*
X666729Y538990D01*
X666728Y538990D01*
X666728Y538991D01*
X666078Y539441D01*
X666076Y539440D01*
X666076Y539442D01*
X665276Y539942D01*
X664726Y540292D01*
X664723Y540291D01*
X664723Y540294D01*
X663874Y540743D01*
X663174Y541143D01*
X663171Y541142D01*
X663171Y541145D01*
X662321Y541545D01*
X662320Y541544D01*
X662319Y541545D01*
X660569Y542295D01*
X660567Y542295D01*
X660566Y542297D01*
X659566Y542647D01*
X659566Y542646D01*
X659566Y542647D01*
X658816Y542897D01*
X658815Y542897D01*
X658015Y543147D01*
X658013Y543146D01*
X658012Y543148D01*
X656812Y543448D01*
X656811Y543448D01*
X655961Y543648D01*
X655960Y543647D01*
X655959Y543648D01*
X655159Y543798D01*
X655159Y543799D01*
X654309Y543949D01*
X654307Y543948D01*
X654306Y543949D01*
X653506Y544049D01*
X653502Y544047D01*
X653500Y544049D01*
X653250Y544049D01*
X653203Y544013D01*
X653208Y544006D01*
X653201Y544000D01*
X653201Y533700D01*
X653237Y533653D01*
X653244Y533658D01*
X653250Y533651D01*
X653347Y533651D01*
X653691Y533602D01*
X654338Y533452D01*
X655486Y533153D01*
X656233Y532904D01*
X657132Y532554D01*
X657630Y532355D01*
X658577Y531906D01*
X659326Y531507D01*
X660473Y530809D01*
X661121Y530360D01*
X661569Y530012D01*
X662318Y529412D01*
X662867Y528914D01*
X662867Y528913D01*
X663315Y528515D01*
X663663Y528118D01*
X663664Y528117D01*
X663664Y528116D01*
X664413Y527318D01*
X664861Y526769D01*
X665211Y526320D01*
X665609Y525772D01*
X665958Y525224D01*
X666358Y524575D01*
X666756Y523877D01*
X667155Y523079D01*
X667505Y522280D01*
X667854Y521433D01*
X668103Y520686D01*
X668302Y519937D01*
X668502Y519139D01*
X668651Y518395D01*
X668651Y518250D01*
X668687Y518203D01*
X668694Y518208D01*
X668700Y518201D01*
X679050Y518201D01*
X679097Y518237D01*
G37*
G36*
X69097Y518237D02*
X69097Y518237D01*
X69088Y518249D01*
X69098Y518260D01*
X69049Y518508D01*
X68949Y519207D01*
X68948Y519208D01*
X68949Y519208D01*
X68799Y520108D01*
X68798Y520109D01*
X68648Y520909D01*
X68648Y520910D01*
X68498Y521660D01*
X68497Y521661D01*
X68498Y521662D01*
X68248Y522662D01*
X68247Y522663D01*
X68247Y522664D01*
X67997Y523514D01*
X67996Y523515D01*
X67997Y523516D01*
X67697Y524416D01*
X67696Y524416D01*
X67696Y524417D01*
X67446Y525117D01*
X67146Y525917D01*
X67145Y525918D01*
X67146Y525919D01*
X66796Y526769D01*
X66794Y526770D01*
X66795Y526771D01*
X66445Y527521D01*
X66444Y527521D01*
X66444Y527522D01*
X65844Y528722D01*
X65842Y528723D01*
X65843Y528724D01*
X65043Y530124D01*
X65041Y530125D01*
X65041Y530127D01*
X64591Y530827D01*
X64342Y531226D01*
X64340Y531227D01*
X64341Y531228D01*
X63891Y531878D01*
X63890Y531878D01*
X63540Y532378D01*
X63539Y532379D01*
X63539Y532380D01*
X63189Y532830D01*
X62689Y533480D01*
X62687Y533481D01*
X62688Y533482D01*
X62138Y534132D01*
X62137Y534132D01*
X61787Y534532D01*
X61786Y534533D01*
X61186Y535183D01*
X61185Y535184D01*
X61185Y535185D01*
X60085Y536285D01*
X60083Y536285D01*
X60083Y536287D01*
X59183Y537087D01*
X59182Y537087D01*
X59182Y537088D01*
X58532Y537638D01*
X58531Y537638D01*
X58031Y538038D01*
X58030Y538039D01*
X57430Y538489D01*
X57429Y538489D01*
X57429Y538490D01*
X56729Y538990D01*
X56728Y538990D01*
X56728Y538991D01*
X56078Y539441D01*
X56076Y539440D01*
X56076Y539442D01*
X55276Y539942D01*
X54726Y540292D01*
X54723Y540291D01*
X54723Y540294D01*
X53874Y540743D01*
X53174Y541143D01*
X53171Y541142D01*
X53171Y541145D01*
X52321Y541545D01*
X52320Y541544D01*
X52319Y541545D01*
X50569Y542295D01*
X50567Y542295D01*
X50566Y542297D01*
X49566Y542647D01*
X49566Y542646D01*
X49566Y542647D01*
X48816Y542897D01*
X48815Y542897D01*
X48015Y543147D01*
X48013Y543146D01*
X48012Y543148D01*
X46812Y543448D01*
X46811Y543448D01*
X45961Y543648D01*
X45960Y543647D01*
X45959Y543648D01*
X45159Y543798D01*
X45159Y543799D01*
X44309Y543949D01*
X44307Y543948D01*
X44306Y543949D01*
X43506Y544049D01*
X43502Y544047D01*
X43500Y544049D01*
X43250Y544049D01*
X43203Y544013D01*
X43208Y544006D01*
X43201Y544000D01*
X43201Y533700D01*
X43237Y533653D01*
X43244Y533658D01*
X43250Y533651D01*
X43347Y533651D01*
X43691Y533602D01*
X44338Y533452D01*
X45486Y533153D01*
X46233Y532904D01*
X47132Y532554D01*
X47630Y532355D01*
X48577Y531906D01*
X49326Y531507D01*
X50473Y530809D01*
X51121Y530360D01*
X51569Y530012D01*
X52318Y529412D01*
X52867Y528914D01*
X52867Y528913D01*
X53315Y528515D01*
X53663Y528118D01*
X53664Y528117D01*
X53664Y528116D01*
X54413Y527318D01*
X54861Y526769D01*
X55211Y526320D01*
X55609Y525772D01*
X55958Y525224D01*
X56358Y524575D01*
X56756Y523877D01*
X57155Y523079D01*
X57505Y522280D01*
X57854Y521433D01*
X58103Y520686D01*
X58302Y519937D01*
X58502Y519139D01*
X58651Y518395D01*
X58651Y518250D01*
X58687Y518203D01*
X58694Y518208D01*
X58700Y518201D01*
X69050Y518201D01*
X69097Y518237D01*
G37*
M02*
