G04 EAGLE Gerber RS-274X export*
G75*
%MOMM*%
%FSLAX34Y34*%
%LPD*%
%INSolderpaste Top*%
%IPPOS*%
%AMOC8*
5,1,8,0,0,1.08239X$1,22.5*%
G01*
%ADD10R,1.600000X1.800000*%
%ADD11R,1.900000X3.400000*%
%ADD12R,1.520000X0.600000*%
%ADD13R,2.540000X2.540000*%
%ADD14R,1.114600X1.361200*%
%ADD15R,3.810000X2.082800*%
%ADD16R,8.890000X11.430000*%
%ADD17R,1.600000X1.803000*%
%ADD18R,1.803000X1.600000*%
%ADD19R,1.850000X5.500000*%
%ADD20R,1.500000X1.500000*%
%ADD21R,1.300000X1.500000*%
%ADD22C,0.225000*%


D10*
X393000Y177000D03*
X421000Y177000D03*
X393000Y152000D03*
X421000Y152000D03*
D11*
G36*
X336949Y102908D02*
X323514Y89473D01*
X299473Y113514D01*
X312908Y126949D01*
X336949Y102908D01*
G37*
G36*
X364527Y130486D02*
X351092Y117051D01*
X327051Y141092D01*
X340486Y154527D01*
X364527Y130486D01*
G37*
D12*
X379400Y108650D03*
X379400Y121350D03*
X379400Y134050D03*
X379400Y95950D03*
X434600Y108650D03*
X434600Y121350D03*
X434600Y134050D03*
X434600Y95950D03*
D13*
X366505Y73000D03*
X413495Y73000D03*
D14*
X531996Y75000D03*
X564004Y75000D03*
X531996Y51000D03*
X564004Y51000D03*
D15*
X520400Y242900D03*
X520400Y293700D03*
D16*
X406100Y268300D03*
D17*
X548160Y213000D03*
X519720Y213000D03*
X480780Y186380D03*
X509220Y186380D03*
D15*
X520400Y382900D03*
X520400Y433700D03*
D16*
X406100Y408300D03*
D18*
X553000Y355840D03*
X553000Y384280D03*
D17*
X500780Y355380D03*
X529220Y355380D03*
D14*
X260996Y165000D03*
X293004Y165000D03*
X260996Y140000D03*
X293004Y140000D03*
D15*
X280400Y242900D03*
X280400Y293700D03*
D16*
X166100Y268300D03*
D17*
X324220Y210000D03*
X295780Y210000D03*
X245780Y210000D03*
X274220Y210000D03*
D15*
X280400Y382900D03*
X280400Y433700D03*
D16*
X166100Y408300D03*
D18*
X317680Y354840D03*
X317680Y383280D03*
D17*
X260920Y354380D03*
X289360Y354380D03*
D19*
X87000Y369000D03*
X36000Y369000D03*
X87000Y433000D03*
X36000Y433000D03*
X87000Y305000D03*
X36000Y305000D03*
X87000Y241000D03*
X36000Y241000D03*
D13*
X198000Y104505D03*
X198000Y151495D03*
X621000Y255495D03*
X621000Y208505D03*
D18*
X24000Y117780D03*
X24000Y146220D03*
D17*
X473780Y75000D03*
X502220Y75000D03*
D20*
X24000Y201500D03*
X24000Y166500D03*
X505500Y50000D03*
X470500Y50000D03*
D21*
G36*
X161181Y161575D02*
X151989Y152383D01*
X141383Y162989D01*
X150575Y172181D01*
X161181Y161575D01*
G37*
G36*
X174617Y175011D02*
X165425Y165819D01*
X154819Y176425D01*
X164011Y185617D01*
X174617Y175011D01*
G37*
D22*
X461125Y121375D02*
X488875Y121375D01*
X488875Y108625D01*
X461125Y108625D01*
X461125Y121375D01*
X461125Y110762D02*
X488875Y110762D01*
X488875Y112899D02*
X461125Y112899D01*
X461125Y115036D02*
X488875Y115036D01*
X488875Y117173D02*
X461125Y117173D01*
X461125Y119310D02*
X488875Y119310D01*
X158875Y88625D02*
X131125Y88625D01*
X131125Y101375D01*
X158875Y101375D01*
X158875Y88625D01*
X158875Y90762D02*
X131125Y90762D01*
X131125Y92899D02*
X158875Y92899D01*
X158875Y95036D02*
X131125Y95036D01*
X131125Y97173D02*
X158875Y97173D01*
X158875Y99310D02*
X131125Y99310D01*
X328625Y411125D02*
X328625Y438875D01*
X341375Y438875D01*
X341375Y411125D01*
X328625Y411125D01*
X328625Y413262D02*
X341375Y413262D01*
X341375Y415399D02*
X328625Y415399D01*
X328625Y417536D02*
X341375Y417536D01*
X341375Y419673D02*
X328625Y419673D01*
X328625Y421810D02*
X341375Y421810D01*
X341375Y423947D02*
X328625Y423947D01*
X328625Y426084D02*
X341375Y426084D01*
X341375Y428221D02*
X328625Y428221D01*
X328625Y430358D02*
X341375Y430358D01*
X341375Y432495D02*
X328625Y432495D01*
X328625Y434632D02*
X341375Y434632D01*
X341375Y436769D02*
X328625Y436769D01*
X568625Y443875D02*
X568625Y416125D01*
X568625Y443875D02*
X581375Y443875D01*
X581375Y416125D01*
X568625Y416125D01*
X568625Y418262D02*
X581375Y418262D01*
X581375Y420399D02*
X568625Y420399D01*
X568625Y422536D02*
X581375Y422536D01*
X581375Y424673D02*
X568625Y424673D01*
X568625Y426810D02*
X581375Y426810D01*
X581375Y428947D02*
X568625Y428947D01*
X568625Y431084D02*
X581375Y431084D01*
X581375Y433221D02*
X568625Y433221D01*
X568625Y435358D02*
X581375Y435358D01*
X581375Y437495D02*
X568625Y437495D01*
X568625Y439632D02*
X581375Y439632D01*
X581375Y441769D02*
X568625Y441769D01*
X591375Y363875D02*
X591375Y336125D01*
X578625Y336125D01*
X578625Y363875D01*
X591375Y363875D01*
X591375Y338262D02*
X578625Y338262D01*
X578625Y340399D02*
X591375Y340399D01*
X591375Y342536D02*
X578625Y342536D01*
X578625Y344673D02*
X591375Y344673D01*
X591375Y346810D02*
X578625Y346810D01*
X578625Y348947D02*
X591375Y348947D01*
X591375Y351084D02*
X578625Y351084D01*
X578625Y353221D02*
X591375Y353221D01*
X591375Y355358D02*
X578625Y355358D01*
X578625Y357495D02*
X591375Y357495D01*
X591375Y359632D02*
X578625Y359632D01*
X578625Y361769D02*
X591375Y361769D01*
X331375Y338875D02*
X331375Y311125D01*
X318625Y311125D01*
X318625Y338875D01*
X331375Y338875D01*
X331375Y313262D02*
X318625Y313262D01*
X318625Y315399D02*
X331375Y315399D01*
X331375Y317536D02*
X318625Y317536D01*
X318625Y319673D02*
X331375Y319673D01*
X331375Y321810D02*
X318625Y321810D01*
X318625Y323947D02*
X331375Y323947D01*
X331375Y326084D02*
X318625Y326084D01*
X318625Y328221D02*
X331375Y328221D01*
X331375Y330358D02*
X318625Y330358D01*
X318625Y332495D02*
X331375Y332495D01*
X331375Y334632D02*
X318625Y334632D01*
X318625Y336769D02*
X331375Y336769D01*
X521125Y121375D02*
X548875Y121375D01*
X548875Y108625D01*
X521125Y108625D01*
X521125Y121375D01*
X521125Y110762D02*
X548875Y110762D01*
X548875Y112899D02*
X521125Y112899D01*
X521125Y115036D02*
X548875Y115036D01*
X548875Y117173D02*
X521125Y117173D01*
X521125Y119310D02*
X548875Y119310D01*
X158875Y121625D02*
X131125Y121625D01*
X131125Y134375D01*
X158875Y134375D01*
X158875Y121625D01*
X158875Y123762D02*
X131125Y123762D01*
X131125Y125899D02*
X158875Y125899D01*
X158875Y128036D02*
X131125Y128036D01*
X131125Y130173D02*
X158875Y130173D01*
X158875Y132310D02*
X131125Y132310D01*
X613625Y316125D02*
X613625Y343875D01*
X626375Y343875D01*
X626375Y316125D01*
X613625Y316125D01*
X613625Y318262D02*
X626375Y318262D01*
X626375Y320399D02*
X613625Y320399D01*
X613625Y322536D02*
X626375Y322536D01*
X626375Y324673D02*
X613625Y324673D01*
X613625Y326810D02*
X626375Y326810D01*
X626375Y328947D02*
X613625Y328947D01*
X613625Y331084D02*
X626375Y331084D01*
X626375Y333221D02*
X613625Y333221D01*
X613625Y335358D02*
X626375Y335358D01*
X626375Y337495D02*
X613625Y337495D01*
X613625Y339632D02*
X626375Y339632D01*
X626375Y341769D02*
X613625Y341769D01*
D13*
X233505Y69000D03*
X280495Y69000D03*
X233505Y104000D03*
X280495Y104000D03*
X660000Y172495D03*
X660000Y125505D03*
X659000Y255495D03*
X659000Y208505D03*
M02*
