G04*
G04 #@! TF.GenerationSoftware,Altium Limited,Altium Designer,18.1.7 (191)*
G04*
G04 Layer_Color=8388736*
%FSLAX44Y44*%
%MOMM*%
G71*
G01*
G75*
%ADD55R,1.2032X1.2032*%
%ADD56R,0.8032X0.8032*%
%ADD57R,0.8032X0.8032*%
%ADD58R,0.7532X1.0032*%
%ADD59R,1.2032X0.6532*%
%ADD60R,1.0032X0.7532*%
%ADD61R,0.6532X1.2032*%
%ADD62O,1.5532X0.5532*%
%ADD63R,2.2032X2.2032*%
%ADD64R,2.2032X2.2032*%
%ADD65R,2.2032X1.2032*%
G04:AMPARAMS|DCode=66|XSize=2.2032mm|YSize=1.2032mm|CornerRadius=0mm|HoleSize=0mm|Usage=FLASHONLY|Rotation=0.000|XOffset=0mm|YOffset=0mm|HoleType=Round|Shape=Octagon|*
%AMOCTAGOND66*
4,1,8,1.1016,-0.3008,1.1016,0.3008,0.8008,0.6016,-0.8008,0.6016,-1.1016,0.3008,-1.1016,-0.3008,-0.8008,-0.6016,0.8008,-0.6016,1.1016,-0.3008,0.0*
%
%ADD66OCTAGOND66*%

%ADD67R,6.2032X6.2032*%
%ADD68R,7.2032X5.2032*%
%ADD69R,1.4032X1.7032*%
%ADD70R,2.2032X1.3032*%
%ADD71R,5.6032X3.1032*%
%ADD72R,3.4032X1.9032*%
%ADD73R,1.1032X1.9032*%
%ADD74R,0.5532X1.2032*%
%ADD75R,0.5532X1.2032*%
G04:AMPARAMS|DCode=76|XSize=1.6732mm|YSize=0.6832mm|CornerRadius=0.1616mm|HoleSize=0mm|Usage=FLASHONLY|Rotation=90.000|XOffset=0mm|YOffset=0mm|HoleType=Round|Shape=RoundedRectangle|*
%AMROUNDEDRECTD76*
21,1,1.6732,0.3600,0,0,90.0*
21,1,1.3500,0.6832,0,0,90.0*
1,1,0.3232,0.1800,0.6750*
1,1,0.3232,0.1800,-0.6750*
1,1,0.3232,-0.1800,-0.6750*
1,1,0.3232,-0.1800,0.6750*
%
%ADD76ROUNDEDRECTD76*%
%ADD77R,2.4032X2.0032*%
G04:AMPARAMS|DCode=78|XSize=0.5032mm|YSize=1.0032mm|CornerRadius=0.1766mm|HoleSize=0mm|Usage=FLASHONLY|Rotation=0.000|XOffset=0mm|YOffset=0mm|HoleType=Round|Shape=RoundedRectangle|*
%AMROUNDEDRECTD78*
21,1,0.5032,0.6500,0,0,0.0*
21,1,0.1500,1.0032,0,0,0.0*
1,1,0.3532,0.0750,-0.3250*
1,1,0.3532,-0.0750,-0.3250*
1,1,0.3532,-0.0750,0.3250*
1,1,0.3532,0.0750,0.3250*
%
%ADD78ROUNDEDRECTD78*%
G04:AMPARAMS|DCode=79|XSize=0.5032mm|YSize=1.0032mm|CornerRadius=0.1766mm|HoleSize=0mm|Usage=FLASHONLY|Rotation=90.000|XOffset=0mm|YOffset=0mm|HoleType=Round|Shape=RoundedRectangle|*
%AMROUNDEDRECTD79*
21,1,0.5032,0.6500,0,0,90.0*
21,1,0.1500,1.0032,0,0,90.0*
1,1,0.3532,0.3250,0.0750*
1,1,0.3532,0.3250,-0.0750*
1,1,0.3532,-0.3250,-0.0750*
1,1,0.3532,-0.3250,0.0750*
%
%ADD79ROUNDEDRECTD79*%
%ADD80R,1.0032X1.0032*%
%ADD81R,1.6532X0.5032*%
%ADD82R,0.9032X1.3032*%
%ADD83R,1.1832X1.1332*%
%ADD84R,1.3532X0.8032*%
%ADD85R,1.3532X0.5032*%
%ADD86R,2.0032X3.6032*%
%ADD87R,1.9032X2.6032*%
%ADD88C,0.2032*%
%ADD89R,4.2032X4.2032*%
%ADD90O,3.2032X2.2032*%
%ADD91R,2.2032X1.4032*%
%ADD92R,2.5032X1.4032*%
D55*
X634000Y845000D02*
D03*
Y829000D02*
D03*
D56*
X564000Y561080D02*
D03*
Y550920D02*
D03*
X646000Y757080D02*
D03*
Y746920D02*
D03*
X644000Y977920D02*
D03*
Y988080D02*
D03*
X645000Y1146920D02*
D03*
Y1157080D02*
D03*
Y1125920D02*
D03*
Y1136080D02*
D03*
X644000Y1072920D02*
D03*
Y1083080D02*
D03*
Y1051920D02*
D03*
Y1062080D02*
D03*
X659000Y724920D02*
D03*
Y735080D02*
D03*
X663000Y692920D02*
D03*
Y703080D02*
D03*
X646000Y724920D02*
D03*
Y735080D02*
D03*
X574000Y975920D02*
D03*
Y986080D02*
D03*
X585000Y975920D02*
D03*
Y986080D02*
D03*
X719000Y1166080D02*
D03*
Y1155920D02*
D03*
Y1144080D02*
D03*
Y1133920D02*
D03*
Y1111920D02*
D03*
Y1122080D02*
D03*
Y1100080D02*
D03*
Y1089920D02*
D03*
Y1067920D02*
D03*
Y1078080D02*
D03*
Y1056080D02*
D03*
Y1045920D02*
D03*
Y1023920D02*
D03*
Y1034080D02*
D03*
Y1012080D02*
D03*
Y1001920D02*
D03*
Y979920D02*
D03*
Y990080D02*
D03*
Y968080D02*
D03*
Y957920D02*
D03*
Y935920D02*
D03*
Y946080D02*
D03*
Y924080D02*
D03*
Y913920D02*
D03*
Y891920D02*
D03*
Y902080D02*
D03*
Y880080D02*
D03*
Y869920D02*
D03*
Y847920D02*
D03*
Y858080D02*
D03*
Y836080D02*
D03*
Y825920D02*
D03*
Y803920D02*
D03*
Y814080D02*
D03*
Y792080D02*
D03*
Y781920D02*
D03*
Y759920D02*
D03*
Y770080D02*
D03*
X719000Y748080D02*
D03*
Y737920D02*
D03*
X719000Y715920D02*
D03*
Y726080D02*
D03*
Y704080D02*
D03*
Y693920D02*
D03*
Y671920D02*
D03*
Y682080D02*
D03*
Y660080D02*
D03*
Y649920D02*
D03*
X897000Y341080D02*
D03*
Y330920D02*
D03*
X1003000Y341080D02*
D03*
Y330920D02*
D03*
X1303000Y341080D02*
D03*
Y330920D02*
D03*
X1407000Y341080D02*
D03*
Y330920D02*
D03*
X1708000Y341080D02*
D03*
Y330920D02*
D03*
X1812000Y341080D02*
D03*
Y330920D02*
D03*
X2113000Y341080D02*
D03*
Y330920D02*
D03*
X2217000Y341080D02*
D03*
Y330920D02*
D03*
X2518000Y340080D02*
D03*
Y329920D02*
D03*
X2623000Y340080D02*
D03*
Y329920D02*
D03*
X2922000Y340080D02*
D03*
Y329920D02*
D03*
X3112000Y340080D02*
D03*
Y329920D02*
D03*
X812000Y1160080D02*
D03*
Y1149920D02*
D03*
X1088000Y1161080D02*
D03*
Y1150920D02*
D03*
X1217000Y1161080D02*
D03*
Y1150920D02*
D03*
X1493000Y1161080D02*
D03*
Y1150920D02*
D03*
X1622000Y1160080D02*
D03*
Y1149920D02*
D03*
X1899000Y1160080D02*
D03*
Y1149920D02*
D03*
X2026000Y1160080D02*
D03*
Y1149920D02*
D03*
X2304000Y1160080D02*
D03*
Y1149920D02*
D03*
X2431000Y1160080D02*
D03*
Y1149920D02*
D03*
X2709000Y1160080D02*
D03*
Y1149920D02*
D03*
X2836000Y1160080D02*
D03*
Y1149920D02*
D03*
X3113000Y1160080D02*
D03*
Y1149920D02*
D03*
X484000Y995080D02*
D03*
Y984920D02*
D03*
X474000Y995080D02*
D03*
Y984920D02*
D03*
X443000D02*
D03*
Y995080D02*
D03*
X433000Y984920D02*
D03*
Y995080D02*
D03*
X423000Y985000D02*
D03*
Y995160D02*
D03*
X413000Y984920D02*
D03*
Y995080D02*
D03*
X403000Y984920D02*
D03*
Y995080D02*
D03*
X596000Y1046920D02*
D03*
Y1057080D02*
D03*
X708000Y715080D02*
D03*
Y704920D02*
D03*
X422000Y692920D02*
D03*
Y703080D02*
D03*
X453000Y984920D02*
D03*
Y995080D02*
D03*
X512000Y1118920D02*
D03*
Y1129080D02*
D03*
X393000Y995080D02*
D03*
Y984920D02*
D03*
X373000Y995080D02*
D03*
Y984920D02*
D03*
X556000Y1102080D02*
D03*
Y1091920D02*
D03*
X545000Y1102080D02*
D03*
Y1091920D02*
D03*
X383000Y984920D02*
D03*
Y995080D02*
D03*
X708000Y660920D02*
D03*
Y671080D02*
D03*
Y748920D02*
D03*
Y759080D02*
D03*
Y792920D02*
D03*
Y803080D02*
D03*
Y836920D02*
D03*
Y847080D02*
D03*
Y880920D02*
D03*
Y891080D02*
D03*
Y924920D02*
D03*
Y935080D02*
D03*
Y968920D02*
D03*
Y979080D02*
D03*
Y1012920D02*
D03*
Y1023080D02*
D03*
Y1056920D02*
D03*
Y1067080D02*
D03*
Y1100920D02*
D03*
Y1111080D02*
D03*
X344000Y761920D02*
D03*
Y772080D02*
D03*
X344000Y869920D02*
D03*
Y880080D02*
D03*
Y969920D02*
D03*
Y980080D02*
D03*
Y1069920D02*
D03*
Y1080080D02*
D03*
X1059000Y257080D02*
D03*
Y246920D02*
D03*
X708000Y1155080D02*
D03*
Y1144920D02*
D03*
X573000Y794920D02*
D03*
Y805080D02*
D03*
X591000Y396176D02*
D03*
Y386017D02*
D03*
X555000Y838920D02*
D03*
Y849080D02*
D03*
X375000Y731080D02*
D03*
Y720920D02*
D03*
X433000Y703080D02*
D03*
Y692920D02*
D03*
X519000Y641920D02*
D03*
Y652080D02*
D03*
X529000Y641920D02*
D03*
Y652080D02*
D03*
X649000Y386017D02*
D03*
Y396176D02*
D03*
X478000Y834920D02*
D03*
Y845080D02*
D03*
X467000D02*
D03*
Y834920D02*
D03*
X406000Y482080D02*
D03*
Y471920D02*
D03*
X406000Y521920D02*
D03*
Y532080D02*
D03*
D57*
X549920Y896000D02*
D03*
X560080D02*
D03*
X549920Y876000D02*
D03*
X560080D02*
D03*
X549920Y946000D02*
D03*
X560080D02*
D03*
X695080Y660000D02*
D03*
X684920D02*
D03*
X695080Y672000D02*
D03*
X684920D02*
D03*
X695080Y704000D02*
D03*
X684920D02*
D03*
X695080Y748000D02*
D03*
X684920D02*
D03*
X695080Y791000D02*
D03*
X684920D02*
D03*
X695080Y804000D02*
D03*
X684920D02*
D03*
X695080Y836000D02*
D03*
X684920D02*
D03*
X695080Y848000D02*
D03*
X684920D02*
D03*
X560080Y936000D02*
D03*
X549920D02*
D03*
X695080Y880000D02*
D03*
X684920D02*
D03*
X549920Y906000D02*
D03*
X560080D02*
D03*
X695080Y892000D02*
D03*
X684920D02*
D03*
X549920Y886000D02*
D03*
X560080D02*
D03*
X695080Y936000D02*
D03*
X684920D02*
D03*
X695080Y980000D02*
D03*
X684920D02*
D03*
X560080Y916000D02*
D03*
X549920D02*
D03*
X560080Y926000D02*
D03*
X549920D02*
D03*
X695080Y1012000D02*
D03*
X684920D02*
D03*
X695080Y1024000D02*
D03*
X684920D02*
D03*
X695080Y1056000D02*
D03*
X684920D02*
D03*
X695080Y1100000D02*
D03*
X684920D02*
D03*
X695080Y1144000D02*
D03*
X684920D02*
D03*
X695080Y1156000D02*
D03*
X684920D02*
D03*
X720080Y461000D02*
D03*
X709920D02*
D03*
X568920Y463000D02*
D03*
X579080D02*
D03*
X568920Y453000D02*
D03*
X579080D02*
D03*
X568920Y483000D02*
D03*
X579080D02*
D03*
X568920Y473000D02*
D03*
X579080D02*
D03*
Y493000D02*
D03*
X568920D02*
D03*
X556920Y386000D02*
D03*
X567080D02*
D03*
X541920Y1010000D02*
D03*
X552080D02*
D03*
X581080Y1103000D02*
D03*
X570920D02*
D03*
X519920Y1010000D02*
D03*
X530080D02*
D03*
X582080Y682000D02*
D03*
X571920D02*
D03*
X555080Y1081000D02*
D03*
X544920D02*
D03*
X554080Y1053000D02*
D03*
X543920D02*
D03*
Y1065000D02*
D03*
X554080D02*
D03*
X545920Y1113000D02*
D03*
X556080D02*
D03*
X522920Y1118000D02*
D03*
X533080D02*
D03*
X555080Y1129000D02*
D03*
X544920D02*
D03*
X533080D02*
D03*
X522920D02*
D03*
X688920Y574000D02*
D03*
X699080D02*
D03*
X625080Y397096D02*
D03*
X614920D02*
D03*
X612080Y386096D02*
D03*
X601920D02*
D03*
X450080Y417000D02*
D03*
X439920D02*
D03*
X688920Y412000D02*
D03*
X699080D02*
D03*
X709920Y433000D02*
D03*
X720080D02*
D03*
X1080080Y233000D02*
D03*
X1069920D02*
D03*
X428080Y417000D02*
D03*
X417920D02*
D03*
X514920Y866000D02*
D03*
X525080D02*
D03*
X492920Y866000D02*
D03*
X503080D02*
D03*
X546920Y670000D02*
D03*
X557080D02*
D03*
X571920Y694000D02*
D03*
X582080D02*
D03*
X1096080Y282000D02*
D03*
X1085920D02*
D03*
X472080Y417000D02*
D03*
X461920D02*
D03*
X709920Y517000D02*
D03*
X720080D02*
D03*
X709920Y503000D02*
D03*
X720080D02*
D03*
X688920Y510000D02*
D03*
X699080D02*
D03*
X709920Y489190D02*
D03*
X720080D02*
D03*
X688920Y496000D02*
D03*
X699080D02*
D03*
X688920Y482000D02*
D03*
X699080D02*
D03*
X709920Y475000D02*
D03*
X720080D02*
D03*
X688920Y468000D02*
D03*
X699080D02*
D03*
X688920Y440000D02*
D03*
X699080D02*
D03*
X688920Y426000D02*
D03*
X699080D02*
D03*
X709920Y419000D02*
D03*
X720080D02*
D03*
X627920Y386096D02*
D03*
X638080D02*
D03*
D58*
X549000Y989500D02*
D03*
X558500Y966500D02*
D03*
X539500D02*
D03*
X631000Y996500D02*
D03*
X621500Y1019500D02*
D03*
X640500D02*
D03*
X654000Y650500D02*
D03*
X644500Y673500D02*
D03*
X663500D02*
D03*
X580000Y1114500D02*
D03*
X570500Y1137500D02*
D03*
X589500D02*
D03*
X690000Y538500D02*
D03*
X680500Y561500D02*
D03*
X699500D02*
D03*
X1096500Y269500D02*
D03*
X1077500D02*
D03*
X1087000Y246500D02*
D03*
X599500Y561500D02*
D03*
X580500D02*
D03*
X590000Y538500D02*
D03*
X639500Y561500D02*
D03*
X620500D02*
D03*
X630000Y538500D02*
D03*
D59*
X643000Y1109000D02*
D03*
X621000D02*
D03*
X642000Y1035000D02*
D03*
X620000D02*
D03*
X610000Y1163000D02*
D03*
X632000D02*
D03*
X610000Y1089000D02*
D03*
X632000D02*
D03*
X599000Y819000D02*
D03*
X621000D02*
D03*
X599000Y839000D02*
D03*
X621000D02*
D03*
X598000Y981000D02*
D03*
X620000D02*
D03*
X377000Y695000D02*
D03*
X399000D02*
D03*
D60*
X608500Y1136000D02*
D03*
X631500Y1145500D02*
D03*
Y1126500D02*
D03*
X608501Y1061993D02*
D03*
X631501Y1071493D02*
D03*
Y1052493D02*
D03*
X590000Y1022000D02*
D03*
X567000Y1012500D02*
D03*
Y1031500D02*
D03*
D61*
X647000Y688000D02*
D03*
Y710000D02*
D03*
X400000Y674000D02*
D03*
Y652000D02*
D03*
D62*
X579250Y962500D02*
D03*
Y957500D02*
D03*
Y952500D02*
D03*
Y947500D02*
D03*
Y942500D02*
D03*
Y937500D02*
D03*
Y932500D02*
D03*
Y927500D02*
D03*
Y922500D02*
D03*
Y917500D02*
D03*
Y912500D02*
D03*
Y907500D02*
D03*
Y902500D02*
D03*
Y897500D02*
D03*
Y892500D02*
D03*
Y887500D02*
D03*
Y882500D02*
D03*
Y877500D02*
D03*
Y872500D02*
D03*
Y867500D02*
D03*
Y862500D02*
D03*
Y857500D02*
D03*
X632750Y962500D02*
D03*
Y957500D02*
D03*
Y952500D02*
D03*
Y947500D02*
D03*
Y942500D02*
D03*
Y937500D02*
D03*
Y932500D02*
D03*
Y927500D02*
D03*
Y922500D02*
D03*
Y917500D02*
D03*
Y912500D02*
D03*
Y907500D02*
D03*
Y902500D02*
D03*
Y897500D02*
D03*
Y892500D02*
D03*
Y887500D02*
D03*
Y882500D02*
D03*
Y877500D02*
D03*
Y872500D02*
D03*
Y867500D02*
D03*
Y862500D02*
D03*
Y857500D02*
D03*
D63*
X485000Y475000D02*
D03*
X455000D02*
D03*
X425000D02*
D03*
D64*
X625000Y774000D02*
D03*
X595000D02*
D03*
D65*
X846500Y281998D02*
D03*
X883500Y235998D02*
D03*
X1288500Y235998D02*
D03*
X1251500Y281998D02*
D03*
X1693500Y235998D02*
D03*
X1656500Y281998D02*
D03*
X2098500Y235998D02*
D03*
X2061500Y281998D02*
D03*
X2503500Y235998D02*
D03*
X2466500Y281998D02*
D03*
X2908500Y235998D02*
D03*
X2871500Y281998D02*
D03*
D66*
X847500Y235998D02*
D03*
X882500Y281998D02*
D03*
X1287500Y281998D02*
D03*
X1252500Y235998D02*
D03*
X1692500Y281998D02*
D03*
X1657500Y235998D02*
D03*
X2097500Y281998D02*
D03*
X2062500Y235998D02*
D03*
X2502500Y281998D02*
D03*
X2467500Y235998D02*
D03*
X2907500Y281998D02*
D03*
X2872500Y235998D02*
D03*
D67*
X780000Y259998D02*
D03*
X950000Y257998D02*
D03*
X1355000Y257998D02*
D03*
X1185000Y259998D02*
D03*
X1760000Y257998D02*
D03*
X1590000Y259998D02*
D03*
X2165000Y257998D02*
D03*
X1995000Y259998D02*
D03*
X2570000Y257998D02*
D03*
X2400000Y259998D02*
D03*
X2975000Y257998D02*
D03*
X2805000Y259998D02*
D03*
D68*
X3070000Y1156352D02*
D03*
X3070000Y336352D02*
D03*
X2880000D02*
D03*
Y1156352D02*
D03*
X2665000Y1156000D02*
D03*
X2665000Y336000D02*
D03*
X2475000D02*
D03*
Y1156000D02*
D03*
X2260000D02*
D03*
X2260000Y336000D02*
D03*
X2070000D02*
D03*
Y1156000D02*
D03*
X1855000Y1156000D02*
D03*
X1855000Y336000D02*
D03*
X1665000D02*
D03*
Y1156000D02*
D03*
X1450000Y1156000D02*
D03*
X1450000Y336000D02*
D03*
X1260000D02*
D03*
Y1156000D02*
D03*
X1045000Y1156000D02*
D03*
X1045000Y336000D02*
D03*
X855000D02*
D03*
Y1156000D02*
D03*
D69*
X372092Y1163000D02*
D03*
X400000D02*
D03*
X558046Y1163000D02*
D03*
X585954D02*
D03*
X496046D02*
D03*
X523954D02*
D03*
X434046D02*
D03*
X461954D02*
D03*
D70*
X577000Y1050000D02*
D03*
Y1090000D02*
D03*
X1038000Y234000D02*
D03*
Y274000D02*
D03*
X1011000Y234000D02*
D03*
Y274000D02*
D03*
D71*
X429000Y1130000D02*
D03*
Y1030000D02*
D03*
D72*
X490000Y903000D02*
D03*
D73*
X467000Y964000D02*
D03*
X490000D02*
D03*
X513000D02*
D03*
D74*
X567404Y418500D02*
D03*
X560904Y399500D02*
D03*
X567404D02*
D03*
X560904Y418500D02*
D03*
X554404D02*
D03*
D75*
X554403Y399500D02*
D03*
D76*
X510250Y1059500D02*
D03*
X516750D02*
D03*
X523250D02*
D03*
X529750D02*
D03*
Y1102500D02*
D03*
X523250D02*
D03*
X516750D02*
D03*
X510250D02*
D03*
D77*
X547000Y1032000D02*
D03*
X509000Y1031000D02*
D03*
D78*
X531000Y691750D02*
D03*
X536000D02*
D03*
X526000D02*
D03*
X541000D02*
D03*
X516000D02*
D03*
X521000D02*
D03*
X506000D02*
D03*
X511000D02*
D03*
X491000D02*
D03*
X501000D02*
D03*
X496000D02*
D03*
X471000D02*
D03*
X476000D02*
D03*
X466000D02*
D03*
X486000D02*
D03*
X481000D02*
D03*
X541000Y806170D02*
D03*
X536000D02*
D03*
X531000D02*
D03*
X526000D02*
D03*
X506000D02*
D03*
X511000D02*
D03*
X501000D02*
D03*
X521000D02*
D03*
X516000D02*
D03*
X496000D02*
D03*
X491000D02*
D03*
X486000D02*
D03*
X471000D02*
D03*
X466000D02*
D03*
X481000D02*
D03*
X476000D02*
D03*
X531500Y790750D02*
D03*
X526500Y790750D02*
D03*
X521500Y790750D02*
D03*
X516500Y790750D02*
D03*
X511500D02*
D03*
X506500D02*
D03*
X501500D02*
D03*
X496500D02*
D03*
X491500Y790750D02*
D03*
X486500Y790750D02*
D03*
X481500D02*
D03*
X476500D02*
D03*
X531500Y707250D02*
D03*
X526500D02*
D03*
X521500D02*
D03*
X516500D02*
D03*
X511500D02*
D03*
X506500D02*
D03*
X501500D02*
D03*
X496500D02*
D03*
X491500D02*
D03*
X486500D02*
D03*
X481500D02*
D03*
X476500D02*
D03*
D79*
X560500Y711250D02*
D03*
Y721250D02*
D03*
Y726250D02*
D03*
Y716250D02*
D03*
Y736250D02*
D03*
Y731250D02*
D03*
Y741250D02*
D03*
Y746250D02*
D03*
Y751250D02*
D03*
X446500Y736250D02*
D03*
Y741250D02*
D03*
Y731250D02*
D03*
Y751250D02*
D03*
Y746250D02*
D03*
Y716250D02*
D03*
Y711250D02*
D03*
Y726250D02*
D03*
Y721250D02*
D03*
X560500Y761250D02*
D03*
Y766250D02*
D03*
Y756250D02*
D03*
Y786250D02*
D03*
Y771250D02*
D03*
Y776250D02*
D03*
Y781250D02*
D03*
X446500Y761250D02*
D03*
Y766250D02*
D03*
Y756250D02*
D03*
Y776250D02*
D03*
Y781250D02*
D03*
Y771250D02*
D03*
Y786250D02*
D03*
X462250Y776500D02*
D03*
Y771500D02*
D03*
Y766500D02*
D03*
Y761500D02*
D03*
Y756500D02*
D03*
Y751500D02*
D03*
Y746500D02*
D03*
Y741500D02*
D03*
Y736500D02*
D03*
Y731500D02*
D03*
Y726500D02*
D03*
Y721500D02*
D03*
X545750Y776500D02*
D03*
Y771500D02*
D03*
Y766500D02*
D03*
Y761500D02*
D03*
Y756500D02*
D03*
Y751500D02*
D03*
Y746500D02*
D03*
Y741500D02*
D03*
Y736500D02*
D03*
Y731500D02*
D03*
Y726500D02*
D03*
Y721500D02*
D03*
D80*
X344000Y807000D02*
D03*
Y793000D02*
D03*
X344000Y893000D02*
D03*
Y907000D02*
D03*
Y993000D02*
D03*
Y1007000D02*
D03*
Y1093000D02*
D03*
Y1107000D02*
D03*
D81*
X596500Y471373D02*
D03*
Y477873D02*
D03*
Y484373D02*
D03*
Y490873D02*
D03*
Y497373D02*
D03*
Y503873D02*
D03*
Y516873D02*
D03*
Y510373D02*
D03*
X651000Y510323D02*
D03*
Y516823D02*
D03*
Y503823D02*
D03*
Y497323D02*
D03*
Y490823D02*
D03*
Y484323D02*
D03*
Y477823D02*
D03*
Y471323D02*
D03*
Y464823D02*
D03*
Y458323D02*
D03*
Y451823D02*
D03*
Y445323D02*
D03*
X596500Y445373D02*
D03*
Y451873D02*
D03*
Y458373D02*
D03*
Y464873D02*
D03*
D82*
X337500Y672500D02*
D03*
Y613500D02*
D03*
X374500D02*
D03*
Y672500D02*
D03*
D83*
X449000Y843700D02*
D03*
Y828300D02*
D03*
D84*
X390160Y532000D02*
D03*
Y524500D02*
D03*
X390190Y477500D02*
D03*
X390160Y470000D02*
D03*
D85*
Y518500D02*
D03*
Y513500D02*
D03*
Y508500D02*
D03*
Y503500D02*
D03*
X390190Y498500D02*
D03*
X390160Y493500D02*
D03*
Y488500D02*
D03*
Y483500D02*
D03*
D86*
X646000Y350000D02*
D03*
X594000D02*
D03*
D87*
X537500Y840123D02*
D03*
X500500D02*
D03*
D88*
X2975000Y1022704D02*
D03*
Y470000D02*
D03*
X3151000Y470352D02*
D03*
X3152000Y1105352D02*
D03*
X2799000Y1022352D02*
D03*
X2570000Y1022352D02*
D03*
Y469648D02*
D03*
X2746000Y470000D02*
D03*
X2747000Y1105000D02*
D03*
X2394000Y1022000D02*
D03*
X2165000Y1022352D02*
D03*
Y469648D02*
D03*
X2341000Y470000D02*
D03*
X2342000Y1105000D02*
D03*
X1989000Y1022000D02*
D03*
X1760000Y1022352D02*
D03*
Y469648D02*
D03*
X1936000Y470000D02*
D03*
X1937000Y1105000D02*
D03*
X1584000Y1022000D02*
D03*
X1355000Y1022352D02*
D03*
Y469648D02*
D03*
X1531000Y470000D02*
D03*
X1532000Y1105000D02*
D03*
X1179000Y1022000D02*
D03*
X950000Y1022352D02*
D03*
Y469648D02*
D03*
X1126000Y470000D02*
D03*
X1127000Y1105000D02*
D03*
X774000Y1022000D02*
D03*
X379190Y531000D02*
D03*
Y471000D02*
D03*
D89*
X483000Y341500D02*
D03*
Y269500D02*
D03*
D90*
X423000Y373000D02*
D03*
Y238000D02*
D03*
D91*
X386360Y544200D02*
D03*
Y457700D02*
D03*
D92*
X347760Y544200D02*
D03*
Y457700D02*
D03*
M02*
