G04*
G04 #@! TF.GenerationSoftware,Altium Limited,Altium Designer,18.1.7 (191)*
G04*
G04 Layer_Physical_Order=2*
G04 Layer_Color=16711680*
%FSLAX44Y44*%
%MOMM*%
G71*
G01*
G75*
%ADD10C,0.2000*%
%ADD93C,0.4000*%
%ADD94C,0.5000*%
%ADD96C,1.0000*%
%ADD131R,4.0000X4.0000*%
%ADD132O,3.0000X2.0000*%
%ADD133R,2.0000X1.2000*%
%ADD134R,2.3000X1.2000*%
%ADD135C,0.5080*%
%ADD136C,0.4800*%
%ADD137C,1.2000*%
%ADD138C,1.2700*%
%ADD139R,19.5000X0.9000*%
%ADD140R,276.3000X1.1000*%
%ADD141R,270.7000X8.6000*%
G36*
X408918Y1178918D02*
Y1168507D01*
X408797Y1168327D01*
X408534Y1167000D01*
X408797Y1165673D01*
X408918Y1165493D01*
Y1164000D01*
X409235Y1163235D01*
X410000Y1162918D01*
X565431D01*
Y1130085D01*
X564007Y1128992D01*
X562886Y1127530D01*
X562180Y1125827D01*
X561940Y1124000D01*
X562180Y1122173D01*
X562886Y1120470D01*
X564007Y1119007D01*
X565470Y1117886D01*
X567173Y1117180D01*
X569000Y1116940D01*
X570827Y1117180D01*
X572530Y1117886D01*
X573992Y1119007D01*
X575114Y1120470D01*
X575671Y1121814D01*
X576941Y1121561D01*
Y1115059D01*
X477000D01*
X475830Y1114826D01*
X474837Y1114163D01*
X474174Y1113170D01*
X473941Y1112000D01*
Y1013310D01*
X473470Y1013114D01*
X472008Y1011992D01*
X470886Y1010530D01*
X470180Y1008827D01*
X469940Y1007000D01*
X470180Y1005173D01*
X470886Y1003470D01*
X472008Y1002008D01*
X473470Y1000885D01*
X475173Y1000180D01*
X477000Y999940D01*
X478827Y1000180D01*
X480530Y1000885D01*
X481992Y1002008D01*
X483115Y1003470D01*
X483820Y1005173D01*
X484060Y1007000D01*
X483820Y1008827D01*
X483115Y1010530D01*
X481992Y1011992D01*
X480530Y1013114D01*
X480059Y1013310D01*
Y1108941D01*
X580000D01*
X581171Y1109174D01*
X582163Y1109837D01*
X582826Y1110829D01*
X583059Y1112000D01*
Y1156941D01*
X662941D01*
X662941Y767039D01*
X648895D01*
X648552Y767552D01*
X647381Y768335D01*
X646000Y768609D01*
X644619Y768335D01*
X643448Y767552D01*
X642665Y766381D01*
X642391Y765000D01*
X642665Y763619D01*
X643448Y762448D01*
X644619Y761665D01*
X646000Y761391D01*
X647381Y761665D01*
X648552Y762448D01*
X648895Y762961D01*
X663105D01*
X663448Y762448D01*
X664619Y761665D01*
X666000Y761391D01*
X667381Y761665D01*
X667671Y761859D01*
X668941Y761180D01*
Y624267D01*
X578837Y534163D01*
X578174Y533171D01*
X577941Y532000D01*
X577941Y532000D01*
Y448651D01*
X576671Y447972D01*
X576327Y448203D01*
X575000Y448467D01*
X573673Y448203D01*
X572549Y447451D01*
X571797Y446327D01*
X571533Y445000D01*
X571797Y443673D01*
X572549Y442549D01*
X572961Y442273D01*
Y388727D01*
X572549Y388451D01*
X571797Y387327D01*
X571533Y386000D01*
X571797Y384673D01*
X572549Y383549D01*
X573673Y382797D01*
X575000Y382533D01*
X576327Y382797D01*
X576671Y383028D01*
X577941Y382349D01*
Y380000D01*
X517039D01*
Y385000D01*
X516884Y385780D01*
X516442Y386442D01*
X515780Y386884D01*
X515000Y387039D01*
X497039D01*
Y604000D01*
X496884Y604780D01*
X496442Y605442D01*
X495780Y605884D01*
X495000Y606039D01*
X389039D01*
Y723105D01*
X389552Y723448D01*
X390335Y724619D01*
X390609Y726000D01*
X390335Y727381D01*
X389552Y728552D01*
X388381Y729335D01*
X387000Y729609D01*
X385619Y729335D01*
X385309Y729128D01*
X384039Y729807D01*
Y793105D01*
X384552Y793448D01*
X385335Y794619D01*
X385609Y796000D01*
X385335Y797381D01*
X384552Y798552D01*
X383381Y799335D01*
X382000Y799609D01*
X380619Y799335D01*
X379448Y798552D01*
X378665Y797381D01*
X378391Y796000D01*
X378665Y794619D01*
X379448Y793448D01*
X379961Y793105D01*
Y708895D01*
X379448Y708552D01*
X378665Y707381D01*
X378391Y706000D01*
X378665Y704619D01*
X379448Y703448D01*
X380619Y702665D01*
X382000Y702391D01*
X383381Y702665D01*
X383691Y702872D01*
X384961Y702193D01*
Y604000D01*
X385116Y603220D01*
X385558Y602558D01*
X386220Y602116D01*
X387000Y601961D01*
X492961D01*
Y385000D01*
X493116Y384220D01*
X493558Y383558D01*
X494220Y383116D01*
X495000Y382961D01*
X512961D01*
Y380000D01*
X438435D01*
X436944Y381944D01*
X434324Y383954D01*
X431274Y385217D01*
X428000Y385648D01*
X424270D01*
Y373000D01*
X421730D01*
Y385648D01*
X418000D01*
X414726Y385217D01*
X411676Y383954D01*
X411139Y383542D01*
X410000Y384103D01*
X410000Y420000D01*
X330000Y420000D01*
Y1180000D01*
X407724Y1180185D01*
X408918Y1178918D01*
D02*
G37*
G36*
X750000Y1110059D02*
X720000D01*
X718829Y1109826D01*
X717837Y1109163D01*
X717174Y1108170D01*
X716941Y1107000D01*
X716941Y576267D01*
X683665Y542991D01*
X683648Y542991D01*
X682369Y543491D01*
X682203Y544327D01*
X681451Y545451D01*
X680327Y546203D01*
X679000Y546467D01*
X677673Y546203D01*
X676549Y545451D01*
X675797Y544327D01*
X675747Y544072D01*
X664928Y533253D01*
X664673Y533203D01*
X663549Y532451D01*
X662797Y531327D01*
X662533Y530000D01*
X662797Y528673D01*
X663549Y527549D01*
X664673Y526797D01*
X666000Y526533D01*
X667327Y526797D01*
X668451Y527549D01*
X669203Y528673D01*
X669253Y528927D01*
X677335Y537009D01*
X677352Y537009D01*
X678631Y536509D01*
X678797Y535673D01*
X679549Y534549D01*
X680673Y533797D01*
X682000Y533533D01*
X683327Y533797D01*
X684451Y534549D01*
X685203Y535673D01*
X685253Y535928D01*
X722163Y572837D01*
X722163Y572837D01*
X722826Y573829D01*
X723059Y575000D01*
X723059Y1103941D01*
X750000D01*
X750000Y519039D01*
X683727D01*
X683451Y519451D01*
X682327Y520203D01*
X681000Y520467D01*
X679673Y520203D01*
X678549Y519451D01*
X678273Y519039D01*
X663000D01*
X663000Y519039D01*
X662220Y518884D01*
X661558Y518442D01*
X661558Y518442D01*
X639558Y496442D01*
X639116Y495780D01*
X638961Y495000D01*
Y380000D01*
X620059D01*
Y485349D01*
X621329Y486028D01*
X621673Y485797D01*
X623000Y485533D01*
X624327Y485797D01*
X625451Y486549D01*
X626203Y487673D01*
X626467Y489000D01*
X626203Y490327D01*
X625451Y491451D01*
X625039Y491727D01*
Y504155D01*
X637395Y516511D01*
X638000Y516391D01*
X639381Y516665D01*
X640552Y517448D01*
X641335Y518619D01*
X641609Y520000D01*
X641335Y521381D01*
X640552Y522552D01*
X639381Y523335D01*
X638000Y523609D01*
X636619Y523335D01*
X635448Y522552D01*
X634665Y521381D01*
X634391Y520000D01*
X634511Y519395D01*
X621558Y506442D01*
X621329Y506099D01*
X620059Y506479D01*
Y518733D01*
X710163Y608837D01*
X710163Y608837D01*
X710826Y609830D01*
X711059Y611000D01*
X711059Y611000D01*
Y648458D01*
X711203Y648673D01*
X711467Y650000D01*
X711203Y651327D01*
X710451Y652451D01*
X709327Y653203D01*
X708000Y653467D01*
X706673Y653203D01*
X706329Y652972D01*
X705059Y653651D01*
X705059Y684349D01*
X706329Y685027D01*
X706673Y684797D01*
X708000Y684533D01*
X709327Y684797D01*
X710451Y685549D01*
X711203Y686673D01*
X711467Y688000D01*
X711203Y689327D01*
X711059Y689542D01*
Y1124941D01*
X750000D01*
Y1110059D01*
D02*
G37*
G36*
X750000Y435039D02*
X683727D01*
X683451Y435451D01*
X683021Y435739D01*
Y437261D01*
X683451Y437549D01*
X684203Y438673D01*
X684467Y440000D01*
X684203Y441327D01*
X683451Y442451D01*
X683021Y442739D01*
Y444261D01*
X683451Y444549D01*
X684203Y445673D01*
X684467Y447000D01*
X684203Y448327D01*
X683451Y449451D01*
X683021Y449739D01*
Y451261D01*
X683451Y451549D01*
X684203Y452673D01*
X684467Y454000D01*
X684203Y455327D01*
X683451Y456451D01*
X682327Y457203D01*
X681000Y457467D01*
X679673Y457203D01*
X678549Y456451D01*
X677797Y455327D01*
X677533Y454000D01*
X677797Y452673D01*
X678549Y451549D01*
X678979Y451261D01*
Y449739D01*
X678549Y449451D01*
X677797Y448327D01*
X677533Y447000D01*
X677797Y445673D01*
X678549Y444549D01*
X678979Y444261D01*
Y442739D01*
X678549Y442451D01*
X677797Y441327D01*
X677533Y440000D01*
X677797Y438673D01*
X678549Y437549D01*
X678979Y437261D01*
Y436017D01*
X677999Y435039D01*
X673000D01*
X672309Y434902D01*
X672181Y434908D01*
X671039Y435623D01*
Y465961D01*
X678273D01*
X678549Y465549D01*
X679673Y464797D01*
X681000Y464533D01*
X682327Y464797D01*
X683451Y465549D01*
X683727Y465961D01*
X750000D01*
Y435039D01*
D02*
G37*
G36*
Y408039D02*
X691727D01*
X691451Y408451D01*
X690327Y409203D01*
X689000Y409467D01*
X687673Y409203D01*
X686549Y408451D01*
X685797Y407327D01*
X685533Y406000D01*
X685797Y404673D01*
X686041Y404309D01*
X685362Y403039D01*
X684039D01*
Y416273D01*
X684451Y416549D01*
X684727Y416961D01*
X750000D01*
Y408039D01*
D02*
G37*
%LPC*%
G36*
X610000Y1148609D02*
X608619Y1148335D01*
X607448Y1147552D01*
X606665Y1146381D01*
X606391Y1145000D01*
X606511Y1144395D01*
X603558Y1141442D01*
X603116Y1140780D01*
X602961Y1140000D01*
X603060Y1139500D01*
X602961Y1139000D01*
Y994845D01*
X601605Y993489D01*
X601000Y993609D01*
X599619Y993335D01*
X598448Y992552D01*
X597665Y991381D01*
X597391Y990000D01*
X597665Y988619D01*
X598448Y987448D01*
X599619Y986665D01*
X600759Y986439D01*
X601141Y985730D01*
X601265Y985148D01*
X580309Y964193D01*
X579039Y964719D01*
Y995105D01*
X579552Y995448D01*
X580335Y996619D01*
X580609Y998000D01*
X580335Y999381D01*
X579552Y1000552D01*
X578381Y1001335D01*
X577000Y1001609D01*
X575619Y1001335D01*
X574448Y1000552D01*
X573665Y999381D01*
X573391Y998000D01*
X573665Y996619D01*
X574448Y995448D01*
X574961Y995105D01*
Y874000D01*
X575116Y873220D01*
X575558Y872558D01*
X589558Y858558D01*
X589558Y858558D01*
X589930Y858309D01*
X589619Y857039D01*
X579000D01*
X579000Y857039D01*
X578220Y856884D01*
X577558Y856442D01*
X577558Y856442D01*
X547605Y826489D01*
X547000Y826609D01*
X545619Y826335D01*
X544448Y825552D01*
X543665Y824381D01*
X543391Y823000D01*
X543665Y821619D01*
X544448Y820448D01*
X545619Y819665D01*
X547000Y819391D01*
X548381Y819665D01*
X549552Y820448D01*
X550335Y821619D01*
X550609Y823000D01*
X550489Y823605D01*
X579845Y852961D01*
X599270D01*
X599655Y851691D01*
X599448Y851552D01*
X598665Y850381D01*
X598391Y849000D01*
X598665Y847619D01*
X599448Y846448D01*
X600379Y845825D01*
X600558Y845558D01*
X601220Y845116D01*
X602000Y844961D01*
X602780Y845116D01*
X602912Y845204D01*
X607961Y840155D01*
Y754328D01*
X607309Y753825D01*
X606039Y754403D01*
Y767000D01*
X605884Y767780D01*
X605442Y768442D01*
X604780Y768884D01*
X604000Y769039D01*
X489000D01*
X489000Y769039D01*
X488220Y768884D01*
X487558Y768442D01*
X487558Y768442D01*
X474605Y755489D01*
X474000Y755609D01*
X472619Y755335D01*
X471448Y754552D01*
X470665Y753381D01*
X470391Y752000D01*
X470665Y750619D01*
X471448Y749448D01*
X472619Y748665D01*
X474000Y748391D01*
X475381Y748665D01*
X476552Y749448D01*
X477335Y750619D01*
X477609Y752000D01*
X477489Y752605D01*
X489845Y764961D01*
X494270D01*
X494655Y763691D01*
X494448Y763552D01*
X493665Y762381D01*
X493391Y761000D01*
X493665Y759619D01*
X493741Y759505D01*
X492937Y758423D01*
X492000Y758609D01*
X490619Y758335D01*
X489448Y757552D01*
X488665Y756381D01*
X488391Y755000D01*
X488665Y753619D01*
X489448Y752448D01*
X490619Y751665D01*
X492000Y751391D01*
X493381Y751665D01*
X494552Y752448D01*
X494895Y752961D01*
X591961D01*
Y742381D01*
X590691Y742069D01*
X590442Y742442D01*
X589780Y742884D01*
X589000Y743039D01*
X577895D01*
X577552Y743552D01*
X576381Y744335D01*
X575000Y744609D01*
X573619Y744335D01*
X572448Y743552D01*
X571665Y742381D01*
X571391Y741000D01*
X571665Y739619D01*
X572448Y738448D01*
X573619Y737665D01*
X575000Y737391D01*
X576381Y737665D01*
X577552Y738448D01*
X577895Y738961D01*
X586961D01*
Y612845D01*
X544558Y570442D01*
X544116Y569780D01*
X543961Y569000D01*
Y553727D01*
X543549Y553451D01*
X542797Y552327D01*
X542533Y551000D01*
X542797Y549673D01*
X543182Y549098D01*
X543191Y548824D01*
X542699Y547706D01*
X542384Y547664D01*
X541381Y548335D01*
X540000Y548609D01*
X538619Y548335D01*
X537448Y547552D01*
X536665Y546381D01*
X536391Y545000D01*
X536665Y543619D01*
X537448Y542448D01*
X538619Y541665D01*
X540000Y541391D01*
X541381Y541665D01*
X542552Y542448D01*
X542895Y542961D01*
X547281D01*
X547807Y541691D01*
X545558Y539442D01*
X545116Y538780D01*
X544961Y538000D01*
Y510000D01*
X545116Y509220D01*
X545558Y508558D01*
X546220Y508116D01*
X547000Y507961D01*
X554105D01*
X554448Y507448D01*
X555619Y506665D01*
X557000Y506391D01*
X558381Y506665D01*
X559552Y507448D01*
X560335Y508619D01*
X560609Y510000D01*
X560335Y511381D01*
X559552Y512552D01*
X558381Y513335D01*
X557000Y513609D01*
X556612Y513532D01*
X555532Y514612D01*
X555609Y515000D01*
X555532Y515388D01*
X556612Y516468D01*
X557000Y516391D01*
X558381Y516665D01*
X559552Y517448D01*
X560335Y518619D01*
X560609Y520000D01*
X560335Y521381D01*
X560259Y521495D01*
X561063Y522577D01*
X562000Y522391D01*
X563381Y522665D01*
X564552Y523448D01*
X565335Y524619D01*
X565609Y526000D01*
X565503Y526536D01*
X566583Y527616D01*
X567000Y527533D01*
X568327Y527797D01*
X569451Y528549D01*
X570203Y529673D01*
X570467Y531000D01*
X570203Y532327D01*
X569451Y533451D01*
X569441Y533557D01*
X630442Y594558D01*
X630442Y594558D01*
X630884Y595220D01*
X631039Y596000D01*
X631039Y596000D01*
Y656000D01*
X631039Y656000D01*
X630884Y656780D01*
X630442Y657442D01*
X630442Y657442D01*
X606039Y681845D01*
Y748270D01*
X607309Y748655D01*
X607448Y748448D01*
X608619Y747665D01*
X610000Y747391D01*
X610388Y747468D01*
X611468Y746388D01*
X611391Y746000D01*
X611665Y744619D01*
X612448Y743448D01*
X613619Y742665D01*
X615000Y742391D01*
X616381Y742665D01*
X617552Y743448D01*
X618335Y744619D01*
X618609Y746000D01*
X618335Y747381D01*
X617552Y748552D01*
X617039Y748895D01*
Y844155D01*
X622691Y849807D01*
X623961Y849281D01*
Y824000D01*
X624116Y823220D01*
X624558Y822558D01*
X639511Y807605D01*
X639391Y807000D01*
X639665Y805619D01*
X640448Y804448D01*
X641619Y803665D01*
X643000Y803391D01*
X644381Y803665D01*
X645552Y804448D01*
X646335Y805619D01*
X646609Y807000D01*
X646532Y807388D01*
X647612Y808468D01*
X648000Y808391D01*
X649381Y808665D01*
X650552Y809448D01*
X651335Y810619D01*
X651609Y812000D01*
X651335Y813381D01*
X650552Y814552D01*
X649381Y815335D01*
X648000Y815609D01*
X646619Y815335D01*
X646577Y815307D01*
X635736Y826148D01*
X635859Y826730D01*
X636241Y827439D01*
X637381Y827665D01*
X638552Y828448D01*
X638895Y828961D01*
X641000D01*
X641780Y829116D01*
X642442Y829558D01*
X642884Y830220D01*
X643039Y831000D01*
Y946155D01*
X645395Y948511D01*
X646000Y948391D01*
X647381Y948665D01*
X648552Y949448D01*
X649335Y950619D01*
X649609Y952000D01*
X649335Y953381D01*
X648552Y954552D01*
X647777Y955070D01*
X647578Y956289D01*
X647637Y956575D01*
X648335Y957619D01*
X648609Y959000D01*
X648335Y960381D01*
X647552Y961552D01*
X646381Y962335D01*
X645000Y962609D01*
X643619Y962335D01*
X642448Y961552D01*
X642105Y961039D01*
X636000D01*
X635220Y960884D01*
X634558Y960442D01*
X634116Y959780D01*
X633961Y959000D01*
Y850328D01*
X633309Y849825D01*
X632039Y850403D01*
Y888000D01*
X632039Y888000D01*
X631884Y888780D01*
X631442Y889442D01*
X604489Y916395D01*
X604609Y917000D01*
X604335Y918381D01*
X603552Y919552D01*
X602381Y920335D01*
X601000Y920609D01*
X599619Y920335D01*
X599267Y920100D01*
X599255Y920095D01*
X597837Y920671D01*
X597804Y920825D01*
X598335Y921619D01*
X598609Y923000D01*
X598335Y924381D01*
X597552Y925552D01*
X596381Y926335D01*
X595000Y926609D01*
X593619Y926335D01*
X592448Y925552D01*
X592309Y925345D01*
X591039Y925730D01*
Y927155D01*
X594395Y930511D01*
X595000Y930391D01*
X596381Y930665D01*
X597552Y931448D01*
X598335Y932619D01*
X598609Y934000D01*
X598335Y935381D01*
X597552Y936552D01*
X596381Y937335D01*
X596291Y937353D01*
Y938647D01*
X596381Y938665D01*
X597552Y939448D01*
X597895Y939961D01*
X609105D01*
X609448Y939448D01*
X610619Y938665D01*
X612000Y938391D01*
X613381Y938665D01*
X614552Y939448D01*
X615335Y940619D01*
X615609Y942000D01*
X615335Y943381D01*
X614552Y944552D01*
X613381Y945335D01*
X612000Y945609D01*
X610619Y945335D01*
X609448Y944552D01*
X609105Y944039D01*
X597895D01*
X597552Y944552D01*
X596381Y945335D01*
X595000Y945609D01*
X593619Y945335D01*
X592448Y944552D01*
X591665Y943381D01*
X591391Y942000D01*
X591665Y940619D01*
X592448Y939448D01*
X593619Y938665D01*
X593709Y938647D01*
Y937353D01*
X593619Y937335D01*
X592448Y936552D01*
X591665Y935381D01*
X591391Y934000D01*
X591511Y933395D01*
X588309Y930193D01*
X587039Y930719D01*
Y945193D01*
X588309Y945872D01*
X588619Y945665D01*
X590000Y945391D01*
X591381Y945665D01*
X592552Y946448D01*
X592895Y946961D01*
X604105D01*
X604448Y946448D01*
X605619Y945665D01*
X607000Y945391D01*
X608381Y945665D01*
X609552Y946448D01*
X610335Y947619D01*
X610609Y949000D01*
X610335Y950381D01*
X609552Y951552D01*
X608381Y952335D01*
X607000Y952609D01*
X605619Y952335D01*
X604448Y951552D01*
X604105Y951039D01*
X592895D01*
X592552Y951552D01*
X591381Y952335D01*
X590000Y952609D01*
X588619Y952335D01*
X588309Y952128D01*
X587039Y952807D01*
Y958155D01*
X615442Y986558D01*
X615884Y987220D01*
X616039Y988000D01*
X616039Y988000D01*
Y1073105D01*
X616552Y1073448D01*
X616895Y1073961D01*
X638000D01*
X638780Y1074116D01*
X639442Y1074558D01*
X639884Y1075220D01*
X640039Y1076000D01*
Y1130000D01*
X639884Y1130780D01*
X639442Y1131442D01*
X639442Y1131442D01*
X626489Y1144395D01*
X626609Y1145000D01*
X626335Y1146381D01*
X625552Y1147552D01*
X624381Y1148335D01*
X623000Y1148609D01*
X621619Y1148335D01*
X620448Y1147552D01*
X619665Y1146381D01*
X619391Y1145000D01*
X619665Y1143619D01*
X620448Y1142448D01*
X621619Y1141665D01*
X623000Y1141391D01*
X623605Y1141511D01*
X635961Y1129155D01*
Y1083730D01*
X634691Y1083345D01*
X634552Y1083552D01*
X633381Y1084335D01*
X632000Y1084609D01*
X630619Y1084335D01*
X629448Y1083552D01*
X629105Y1083039D01*
X609000D01*
X608309Y1082902D01*
X608181Y1082908D01*
X607039Y1083623D01*
Y1139000D01*
X607013Y1139130D01*
X609395Y1141511D01*
X610000Y1141391D01*
X611381Y1141665D01*
X612552Y1142448D01*
X613335Y1143619D01*
X613609Y1145000D01*
X613335Y1146381D01*
X612552Y1147552D01*
X611381Y1148335D01*
X610000Y1148609D01*
D02*
G37*
G36*
X633000Y973609D02*
X631619Y973335D01*
X630448Y972552D01*
X630105Y972039D01*
X619895D01*
X619552Y972552D01*
X618381Y973335D01*
X617000Y973609D01*
X615619Y973335D01*
X614448Y972552D01*
X613665Y971381D01*
X613391Y970000D01*
X613665Y968619D01*
X614448Y967448D01*
X615619Y966665D01*
X617000Y966391D01*
X618381Y966665D01*
X619552Y967448D01*
X619895Y967961D01*
X630105D01*
X630448Y967448D01*
X631619Y966665D01*
X633000Y966391D01*
X634381Y966665D01*
X635552Y967448D01*
X636335Y968619D01*
X636609Y970000D01*
X636335Y971381D01*
X635552Y972552D01*
X634381Y973335D01*
X633000Y973609D01*
D02*
G37*
G36*
X566000Y989609D02*
X564619Y989335D01*
X563448Y988552D01*
X562665Y987381D01*
X562391Y986000D01*
X562665Y984619D01*
X563448Y983448D01*
X563961Y983105D01*
Y955039D01*
X492895D01*
X492552Y955552D01*
X491381Y956335D01*
X490000Y956609D01*
X488619Y956335D01*
X487448Y955552D01*
X486665Y954381D01*
X486391Y953000D01*
X486665Y951619D01*
X487448Y950448D01*
X488619Y949665D01*
X490000Y949391D01*
X491381Y949665D01*
X492552Y950448D01*
X492895Y950961D01*
X565000D01*
X565780Y951116D01*
X566442Y951558D01*
X567442Y952558D01*
X567442Y952558D01*
X567884Y953220D01*
X568039Y954000D01*
Y983105D01*
X568552Y983448D01*
X569335Y984619D01*
X569609Y986000D01*
X569335Y987381D01*
X568552Y988552D01*
X567381Y989335D01*
X566000Y989609D01*
D02*
G37*
G36*
X530000Y928609D02*
X528619Y928335D01*
X527448Y927552D01*
X527105Y927039D01*
X489000D01*
X488220Y926884D01*
X487558Y926442D01*
X468558Y907442D01*
X468116Y906780D01*
X467961Y906000D01*
Y798039D01*
X461895D01*
X461552Y798552D01*
X460381Y799335D01*
X459000Y799609D01*
X457619Y799335D01*
X456448Y798552D01*
X455665Y797381D01*
X455391Y796000D01*
X455665Y794619D01*
X456448Y793448D01*
X457619Y792665D01*
X459000Y792391D01*
X460381Y792665D01*
X461552Y793448D01*
X461895Y793961D01*
X470000D01*
X470780Y794116D01*
X471442Y794558D01*
X471884Y795220D01*
X472039Y796000D01*
Y817270D01*
X473309Y817655D01*
X473448Y817448D01*
X474619Y816665D01*
X476000Y816391D01*
X477381Y816665D01*
X478552Y817448D01*
X479335Y818619D01*
X479609Y820000D01*
X479335Y821381D01*
X478552Y822552D01*
X478039Y822895D01*
Y880487D01*
X479309Y880918D01*
X480008Y880008D01*
X481470Y878885D01*
X481941Y878690D01*
Y799232D01*
X481837Y799163D01*
X481837Y799163D01*
X473733Y791059D01*
X452059D01*
Y817206D01*
X452335Y817619D01*
X452609Y819000D01*
X452335Y820381D01*
X451552Y821552D01*
X450381Y822335D01*
X449000Y822609D01*
X447619Y822335D01*
X446448Y821552D01*
X445665Y820381D01*
X445391Y819000D01*
X445665Y817619D01*
X445941Y817206D01*
Y788000D01*
X445941Y788000D01*
X445941Y788000D01*
Y779059D01*
X434794D01*
X434381Y779335D01*
X433000Y779609D01*
X431619Y779335D01*
X430448Y778552D01*
X429665Y777381D01*
X429391Y776000D01*
X429665Y774619D01*
X430448Y773448D01*
X431619Y772665D01*
X433000Y772391D01*
X434381Y772665D01*
X434794Y772941D01*
X445941D01*
Y721000D01*
X446174Y719829D01*
X446837Y718837D01*
X447830Y718174D01*
X449000Y717941D01*
X519206D01*
X519619Y717665D01*
X521000Y717391D01*
X522381Y717665D01*
X522794Y717941D01*
X530206D01*
X530619Y717665D01*
X532000Y717391D01*
X533381Y717665D01*
X533794Y717941D01*
X565941D01*
Y697059D01*
X559310D01*
X559114Y697530D01*
X557993Y698992D01*
X556530Y700115D01*
X554827Y700820D01*
X553000Y701060D01*
X551173Y700820D01*
X549470Y700115D01*
X548008Y698992D01*
X546885Y697530D01*
X546180Y695827D01*
X545940Y694000D01*
X546180Y692173D01*
X546885Y690470D01*
X548008Y689008D01*
X549470Y687886D01*
X551173Y687180D01*
X553000Y686940D01*
X554827Y687180D01*
X556530Y687886D01*
X557993Y689008D01*
X559114Y690470D01*
X559310Y690941D01*
X565941D01*
Y671794D01*
X565665Y671381D01*
X565391Y670000D01*
X565665Y668619D01*
X566448Y667448D01*
X567619Y666665D01*
X569000Y666391D01*
X570381Y666665D01*
X571552Y667448D01*
X572335Y668619D01*
X572609Y670000D01*
X572335Y671381D01*
X572059Y671794D01*
Y694000D01*
Y721000D01*
X571826Y722170D01*
X571163Y723163D01*
X570171Y723826D01*
X569000Y724059D01*
X533794D01*
X533381Y724335D01*
X532000Y724609D01*
X530619Y724335D01*
X530206Y724059D01*
X522794D01*
X522381Y724335D01*
X521000Y724609D01*
X519619Y724335D01*
X519206Y724059D01*
X452059D01*
Y784941D01*
X475000D01*
X475000Y784941D01*
X476171Y785174D01*
X477163Y785837D01*
X485267Y793941D01*
X559206D01*
X559619Y793665D01*
X561000Y793391D01*
X562381Y793665D01*
X563552Y794448D01*
X564335Y795619D01*
X564609Y797000D01*
X564335Y798381D01*
X563552Y799552D01*
X562381Y800335D01*
X561000Y800609D01*
X559619Y800335D01*
X559206Y800059D01*
X488059D01*
Y878690D01*
X488530Y878885D01*
X489992Y880008D01*
X491115Y881470D01*
X491820Y883173D01*
X492060Y885000D01*
X491820Y886827D01*
X491115Y888530D01*
X489992Y889993D01*
X488530Y891115D01*
X486827Y891820D01*
X485000Y892060D01*
X483173Y891820D01*
X481470Y891115D01*
X480008Y889993D01*
X479309Y889082D01*
X478039Y889513D01*
Y904155D01*
X491845Y917961D01*
X522105D01*
X522448Y917448D01*
X523619Y916665D01*
X525000Y916391D01*
X526381Y916665D01*
X527552Y917448D01*
X528335Y918619D01*
X528609Y920000D01*
X528532Y920388D01*
X529612Y921468D01*
X530000Y921391D01*
X531381Y921665D01*
X532552Y922448D01*
X533335Y923619D01*
X533609Y925000D01*
X533335Y926381D01*
X532552Y927552D01*
X531381Y928335D01*
X530000Y928609D01*
D02*
G37*
G36*
X542000Y909609D02*
X540619Y909335D01*
X539448Y908552D01*
X538665Y907381D01*
X538391Y906000D01*
X538665Y904619D01*
X539448Y903448D01*
X540619Y902665D01*
X542000Y902391D01*
X543381Y902665D01*
X544552Y903448D01*
X544895Y903961D01*
X563597D01*
X563665Y903619D01*
X564448Y902448D01*
X565619Y901665D01*
X567000Y901391D01*
X568381Y901665D01*
X569552Y902448D01*
X570335Y903619D01*
X570609Y905000D01*
X570335Y906381D01*
X569552Y907552D01*
X568381Y908335D01*
X567000Y908609D01*
X565619Y908335D01*
X565177Y908039D01*
X544895D01*
X544552Y908552D01*
X543381Y909335D01*
X542000Y909609D01*
D02*
G37*
G36*
Y889609D02*
X540619Y889335D01*
X539448Y888552D01*
X538665Y887381D01*
X538391Y886000D01*
X538665Y884619D01*
X539448Y883448D01*
X540619Y882665D01*
X542000Y882391D01*
X542605Y882511D01*
X543558Y881558D01*
X543558Y881558D01*
X544220Y881116D01*
X545000Y880961D01*
X545000Y880961D01*
X565105D01*
X565448Y880448D01*
X566619Y879665D01*
X568000Y879391D01*
X569381Y879665D01*
X570552Y880448D01*
X571335Y881619D01*
X571609Y883000D01*
X571335Y884381D01*
X570552Y885552D01*
X569381Y886335D01*
X568000Y886609D01*
X566619Y886335D01*
X565448Y885552D01*
X565105Y885039D01*
X546662D01*
X545609Y886000D01*
X545335Y887381D01*
X544552Y888552D01*
X543381Y889335D01*
X542000Y889609D01*
D02*
G37*
G36*
Y879609D02*
X540619Y879335D01*
X539448Y878552D01*
X538665Y877381D01*
X538391Y876000D01*
X538665Y874619D01*
X539448Y873448D01*
X540619Y872665D01*
X542000Y872391D01*
X543381Y872665D01*
X544552Y873448D01*
X545335Y874619D01*
X545609Y876000D01*
X545335Y877381D01*
X544552Y878552D01*
X543381Y879335D01*
X542000Y879609D01*
D02*
G37*
G36*
X514000Y860609D02*
X512619Y860335D01*
X511448Y859552D01*
X510665Y858381D01*
X510391Y857000D01*
X510665Y855619D01*
X511448Y854448D01*
X511961Y854105D01*
Y822663D01*
X511000Y821609D01*
X509619Y821335D01*
X508448Y820552D01*
X507665Y819381D01*
X507391Y818000D01*
X507665Y816619D01*
X508448Y815448D01*
X509619Y814665D01*
X511000Y814391D01*
X512381Y814665D01*
X513552Y815448D01*
X514335Y816619D01*
X514609Y818000D01*
X514489Y818605D01*
X515442Y819558D01*
X515884Y820220D01*
X516039Y821000D01*
Y854105D01*
X516552Y854448D01*
X517335Y855619D01*
X517609Y857000D01*
X517335Y858381D01*
X516552Y859552D01*
X515381Y860335D01*
X514000Y860609D01*
D02*
G37*
G36*
X521000Y781609D02*
X519619Y781335D01*
X518448Y780552D01*
X517665Y779381D01*
X517391Y778000D01*
X517665Y776619D01*
X518448Y775448D01*
X519619Y774665D01*
X521000Y774391D01*
X522381Y774665D01*
X523552Y775448D01*
X524335Y776619D01*
X524609Y778000D01*
X524335Y779381D01*
X523552Y780552D01*
X522381Y781335D01*
X521000Y781609D01*
D02*
G37*
G36*
X404000Y825609D02*
X402619Y825335D01*
X401448Y824552D01*
X400665Y823381D01*
X400391Y822000D01*
X400665Y820619D01*
X401448Y819448D01*
X401961Y819105D01*
Y765807D01*
X400691Y765128D01*
X400381Y765335D01*
X399000Y765609D01*
X397619Y765335D01*
X396448Y764552D01*
X395665Y763381D01*
X395391Y762000D01*
X395665Y760619D01*
X396448Y759448D01*
X396961Y759105D01*
Y615000D01*
X397116Y614220D01*
X397558Y613558D01*
X398220Y613116D01*
X399000Y612961D01*
X508105D01*
X508448Y612448D01*
X509619Y611665D01*
X511000Y611391D01*
X512381Y611665D01*
X512691Y611872D01*
X513961Y611193D01*
Y419895D01*
X513448Y419552D01*
X512665Y418381D01*
X512391Y417000D01*
X512665Y415619D01*
X513448Y414448D01*
X514619Y413665D01*
X516000Y413391D01*
X517381Y413665D01*
X518552Y414448D01*
X519335Y415619D01*
X519609Y417000D01*
X519335Y418381D01*
X519259Y418495D01*
X520063Y419577D01*
X521000Y419391D01*
X522381Y419665D01*
X523552Y420448D01*
X524335Y421619D01*
X524609Y423000D01*
X524335Y424381D01*
X523552Y425552D01*
X523039Y425895D01*
Y577362D01*
X524309Y578041D01*
X524673Y577797D01*
X526000Y577533D01*
X527327Y577797D01*
X528451Y578549D01*
X529203Y579673D01*
X529467Y581000D01*
X529203Y582327D01*
X528451Y583451D01*
X528039Y583727D01*
Y635000D01*
X527884Y635780D01*
X527442Y636442D01*
X527070Y636691D01*
X527381Y637961D01*
X550105D01*
X550448Y637448D01*
X551619Y636665D01*
X553000Y636391D01*
X554381Y636665D01*
X555552Y637448D01*
X556335Y638619D01*
X556609Y640000D01*
X556423Y640937D01*
X557505Y641741D01*
X557619Y641665D01*
X559000Y641391D01*
X560381Y641665D01*
X561552Y642448D01*
X562335Y643619D01*
X562609Y645000D01*
X562335Y646381D01*
X561552Y647552D01*
X560381Y648335D01*
X559000Y648609D01*
X557619Y648335D01*
X557505Y648259D01*
X556423Y649063D01*
X556609Y650000D01*
X556423Y650937D01*
X557505Y651741D01*
X557619Y651665D01*
X559000Y651391D01*
X560381Y651665D01*
X561552Y652448D01*
X562335Y653619D01*
X562609Y655000D01*
X562335Y656381D01*
X561552Y657552D01*
X560381Y658335D01*
X559000Y658609D01*
X557619Y658335D01*
X556448Y657552D01*
X556105Y657039D01*
X483895D01*
X483552Y657552D01*
X482381Y658335D01*
X481000Y658609D01*
X479619Y658335D01*
X478448Y657552D01*
X477665Y656381D01*
X477391Y655000D01*
X477468Y654612D01*
X476388Y653532D01*
X476000Y653609D01*
X474619Y653335D01*
X473448Y652552D01*
X472665Y651381D01*
X472391Y650000D01*
X472468Y649612D01*
X471388Y648532D01*
X471000Y648609D01*
X469619Y648335D01*
X468448Y647552D01*
X467665Y646381D01*
X467391Y645000D01*
X467468Y644612D01*
X466388Y643532D01*
X466000Y643609D01*
X464619Y643335D01*
X463448Y642552D01*
X462665Y641381D01*
X462391Y640000D01*
X462665Y638619D01*
X462872Y638309D01*
X462193Y637039D01*
X426039D01*
Y718105D01*
X426552Y718448D01*
X427335Y719619D01*
X427609Y721000D01*
X427335Y722381D01*
X426552Y723552D01*
X425381Y724335D01*
X424000Y724609D01*
X422619Y724335D01*
X422309Y724128D01*
X421039Y724807D01*
Y763105D01*
X421552Y763448D01*
X422335Y764619D01*
X422609Y766000D01*
X422335Y767381D01*
X421552Y768552D01*
X420381Y769335D01*
X419000Y769609D01*
X418612Y769532D01*
X417532Y770612D01*
X417609Y771000D01*
X417335Y772381D01*
X416552Y773552D01*
X415381Y774335D01*
X414000Y774609D01*
X412619Y774335D01*
X412309Y774128D01*
X411039Y774807D01*
Y783105D01*
X411552Y783448D01*
X412335Y784619D01*
X412609Y786000D01*
X412335Y787381D01*
X411552Y788552D01*
X410381Y789335D01*
X409000Y789609D01*
X407619Y789335D01*
X407309Y789128D01*
X406039Y789807D01*
Y819105D01*
X406552Y819448D01*
X407335Y820619D01*
X407609Y822000D01*
X407335Y823381D01*
X406552Y824552D01*
X405381Y825335D01*
X404000Y825609D01*
D02*
G37*
G36*
X546000Y716609D02*
X544619Y716335D01*
X543448Y715552D01*
X542665Y714381D01*
X542459Y713343D01*
X534558Y705442D01*
X534116Y704780D01*
X533961Y704000D01*
Y680895D01*
X533448Y680552D01*
X532665Y679381D01*
X532391Y678000D01*
X532665Y676619D01*
X533448Y675448D01*
X534619Y674665D01*
X536000Y674391D01*
X537381Y674665D01*
X538552Y675448D01*
X539335Y676619D01*
X539609Y678000D01*
X539335Y679381D01*
X538552Y680552D01*
X538039Y680895D01*
Y703155D01*
X544577Y709693D01*
X544619Y709665D01*
X546000Y709391D01*
X547381Y709665D01*
X548552Y710448D01*
X549335Y711619D01*
X549609Y713000D01*
X549335Y714381D01*
X548552Y715552D01*
X547381Y716335D01*
X546000Y716609D01*
D02*
G37*
G36*
X446000Y705609D02*
X444619Y705335D01*
X443448Y704552D01*
X442665Y703381D01*
X442391Y702000D01*
X442665Y700619D01*
X443448Y699448D01*
X444619Y698665D01*
X446000Y698391D01*
X447381Y698665D01*
X448552Y699448D01*
X449335Y700619D01*
X449609Y702000D01*
X449335Y703381D01*
X448552Y704552D01*
X447381Y705335D01*
X446000Y705609D01*
D02*
G37*
G36*
X547000Y681609D02*
X545619Y681335D01*
X544448Y680552D01*
X543665Y679381D01*
X543391Y678000D01*
X543511Y677395D01*
X538155Y672039D01*
X528895D01*
X528552Y672552D01*
X527381Y673335D01*
X526000Y673609D01*
X524619Y673335D01*
X523448Y672552D01*
X522665Y671381D01*
X522391Y670000D01*
X522665Y668619D01*
X523448Y667448D01*
X524619Y666665D01*
X526000Y666391D01*
X527381Y666665D01*
X528552Y667448D01*
X528895Y667961D01*
X539000D01*
X539780Y668116D01*
X540442Y668558D01*
X546395Y674511D01*
X547000Y674391D01*
X548381Y674665D01*
X549552Y675448D01*
X550335Y676619D01*
X550609Y678000D01*
X550335Y679381D01*
X549552Y680552D01*
X548381Y681335D01*
X547000Y681609D01*
D02*
G37*
G36*
X398900Y552740D02*
X387630D01*
Y545470D01*
X398900D01*
Y552740D01*
D02*
G37*
G36*
X385090D02*
X373820D01*
Y545470D01*
X385090D01*
Y552740D01*
D02*
G37*
G36*
X361800D02*
X349030D01*
Y545470D01*
X361800D01*
Y552740D01*
D02*
G37*
G36*
X346490D02*
X333720D01*
Y545470D01*
X346490D01*
Y552740D01*
D02*
G37*
G36*
X398900Y542930D02*
X387630D01*
Y535660D01*
X398900D01*
Y542930D01*
D02*
G37*
G36*
X361800D02*
X349030D01*
Y535660D01*
X361800D01*
Y542930D01*
D02*
G37*
G36*
X346490D02*
X333720D01*
Y535660D01*
X346490D01*
Y542930D01*
D02*
G37*
G36*
X385090D02*
X373820D01*
Y535660D01*
X376229D01*
X376614Y534390D01*
X376126Y534064D01*
X375187Y532658D01*
X374857Y531000D01*
X375187Y529342D01*
X376126Y527936D01*
X377532Y526997D01*
X379190Y526667D01*
X380849Y526997D01*
X382254Y527936D01*
X383194Y529342D01*
X383524Y531000D01*
X383194Y532658D01*
X382254Y534064D01*
X381767Y534390D01*
X382152Y535660D01*
X385090D01*
Y542930D01*
D02*
G37*
G36*
X425000Y497609D02*
X423619Y497335D01*
X422448Y496552D01*
X422105Y496039D01*
X377895D01*
X377552Y496552D01*
X376381Y497335D01*
X375000Y497609D01*
X373619Y497335D01*
X372448Y496552D01*
X371665Y495381D01*
X371391Y494000D01*
X371665Y492619D01*
X372448Y491448D01*
X373619Y490665D01*
X375000Y490391D01*
X376381Y490665D01*
X377552Y491448D01*
X377895Y491961D01*
X422105D01*
X422448Y491448D01*
X422961Y491105D01*
Y483895D01*
X422448Y483552D01*
X421665Y482381D01*
X421391Y481000D01*
X421665Y479619D01*
X422448Y478448D01*
X423619Y477665D01*
X425000Y477391D01*
X426381Y477665D01*
X427552Y478448D01*
X428335Y479619D01*
X428609Y481000D01*
X428335Y482381D01*
X427552Y483552D01*
X427039Y483895D01*
Y491105D01*
X427552Y491448D01*
X428335Y492619D01*
X428609Y494000D01*
X428335Y495381D01*
X427552Y496552D01*
X426381Y497335D01*
X425000Y497609D01*
D02*
G37*
G36*
X398900Y466240D02*
X387630D01*
Y458970D01*
X398900D01*
Y466240D01*
D02*
G37*
G36*
X379190Y475333D02*
X377532Y475004D01*
X376126Y474064D01*
X375187Y472658D01*
X374857Y471000D01*
X375187Y469342D01*
X376126Y467936D01*
X376764Y467510D01*
X376379Y466240D01*
X373820D01*
Y458970D01*
X385090D01*
Y466240D01*
X382002D01*
X381617Y467510D01*
X382254Y467936D01*
X383194Y469342D01*
X383524Y471000D01*
X383194Y472658D01*
X382254Y474064D01*
X380849Y475004D01*
X379190Y475333D01*
D02*
G37*
G36*
X361800Y466240D02*
X349030D01*
Y458970D01*
X361800D01*
Y466240D01*
D02*
G37*
G36*
X346490D02*
X333720D01*
Y458970D01*
X346490D01*
Y466240D01*
D02*
G37*
G36*
X398900Y456430D02*
X387630D01*
Y449160D01*
X398900D01*
Y456430D01*
D02*
G37*
G36*
X385090D02*
X373820D01*
Y449160D01*
X385090D01*
Y456430D01*
D02*
G37*
G36*
X361800D02*
X349030D01*
Y449160D01*
X361800D01*
Y456430D01*
D02*
G37*
G36*
X346490D02*
X333720D01*
Y449160D01*
X346490D01*
Y456430D01*
D02*
G37*
G36*
X419000Y592609D02*
X417619Y592335D01*
X416448Y591552D01*
X415665Y590381D01*
X415391Y589000D01*
X415665Y587619D01*
X416448Y586448D01*
X417619Y585665D01*
X419000Y585391D01*
X420381Y585665D01*
X421552Y586448D01*
X421895Y586961D01*
X447961D01*
Y431895D01*
X447448Y431552D01*
X446665Y430381D01*
X446391Y429000D01*
X446665Y427619D01*
X447448Y426448D01*
X448619Y425665D01*
X450000Y425391D01*
X451381Y425665D01*
X452552Y426448D01*
X453335Y427619D01*
X453609Y429000D01*
X453335Y430381D01*
X452552Y431552D01*
X452039Y431895D01*
Y589000D01*
X451884Y589780D01*
X451442Y590442D01*
X450780Y590884D01*
X450000Y591039D01*
X421895D01*
X421552Y591552D01*
X420381Y592335D01*
X419000Y592609D01*
D02*
G37*
G36*
X669000Y554467D02*
X667673Y554203D01*
X666549Y553451D01*
X665797Y552327D01*
X665747Y552072D01*
X647927Y534253D01*
X647673Y534203D01*
X646549Y533451D01*
X645797Y532327D01*
X645533Y531000D01*
X645797Y529673D01*
X646549Y528549D01*
X647673Y527797D01*
X649000Y527533D01*
X650327Y527797D01*
X651451Y528549D01*
X652203Y529673D01*
X652253Y529927D01*
X670072Y547747D01*
X670327Y547797D01*
X671451Y548549D01*
X672203Y549673D01*
X672467Y551000D01*
X672203Y552327D01*
X671451Y553451D01*
X670327Y554203D01*
X669000Y554467D01*
D02*
G37*
%LPD*%
D10*
X647000Y812000D02*
X648000D01*
X630000Y829000D02*
X647000Y812000D01*
X643000Y807000D02*
X643000D01*
X626000Y824000D02*
X643000Y807000D01*
X637000Y832000D02*
X638000Y831000D01*
X641000D02*
Y947000D01*
X638000Y831000D02*
X641000D01*
X636000Y847000D02*
Y959000D01*
X641000Y947000D02*
X646000Y952000D01*
X636000Y959000D02*
X645000D01*
X601000Y917000D02*
X630000Y888000D01*
Y829000D02*
Y888000D01*
X595000Y915000D02*
X626000Y884000D01*
Y824000D02*
Y884000D01*
X2118000Y391000D02*
X2120000D01*
X2118000Y391000D02*
X2118000Y391000D01*
X660000Y489000D02*
X819000D01*
X809000Y1069000D02*
X1218000D01*
X809000D02*
X809000D01*
X1218000D02*
Y1069000D01*
X1713000Y381000D02*
X1715000D01*
X1713000Y381000D02*
X1713000Y381000D01*
X890000Y386000D02*
X1805000Y386000D01*
X885000Y381000D02*
X890000Y386000D01*
X885000Y416000D02*
X2524000D01*
X382000Y706000D02*
Y796000D01*
X510000Y309000D02*
X1086000Y309000D01*
X423000Y382000D02*
X423000D01*
X480000Y390000D02*
Y400000D01*
X481000Y381000D02*
X510000D01*
X474000Y400000D02*
X480000D01*
X515000Y314000D02*
Y385000D01*
X495000D02*
X515000D01*
X495000D02*
Y604000D01*
X510000Y309000D02*
Y381000D01*
X623500Y1144500D02*
X624000Y1145000D01*
X614000Y988000D02*
Y1075000D01*
X585000Y959000D02*
X614000Y988000D01*
X585000Y904000D02*
Y959000D01*
X609000Y990000D02*
Y1081000D01*
X581000Y962000D02*
X609000Y990000D01*
X581000Y877000D02*
Y962000D01*
X638000Y1076000D02*
Y1130000D01*
X623500Y1144500D02*
X638000Y1130000D01*
X623000Y1145000D02*
X624000D01*
X591000Y860000D02*
X622000D01*
X577000Y874000D02*
X591000Y860000D01*
X577000Y874000D02*
Y998000D01*
X590000Y868000D02*
Y868000D01*
X581000Y877000D02*
X590000Y868000D01*
X646000Y765000D02*
X666000D01*
X399000Y615000D02*
Y762000D01*
X609000Y751000D02*
X610000Y752000D01*
X602000Y847000D02*
X603000Y848000D01*
X610000Y841000D01*
Y752000D02*
Y841000D01*
X450000Y431000D02*
Y589000D01*
X575000Y386000D02*
Y445000D01*
X489000Y925000D02*
X530000D01*
X470000Y906000D02*
X489000Y925000D01*
X470000Y796000D02*
Y906000D01*
X459000Y796000D02*
X470000D01*
X491000Y920000D02*
X525000D01*
X476000Y905000D02*
X491000Y920000D01*
X542000Y886000D02*
X545000Y883000D01*
X568000D01*
X566000Y906000D02*
X567000Y905000D01*
X542000Y906000D02*
X566000D01*
X579000Y855000D02*
X617000D01*
X547000Y823000D02*
X579000Y855000D01*
X547000Y823000D02*
X547000D01*
X622000Y852000D02*
Y860000D01*
X615000Y845000D02*
X622000Y852000D01*
X615000Y746000D02*
Y845000D01*
X566000Y954000D02*
X566000D01*
Y986000D01*
X565000Y953000D02*
X566000Y954000D01*
X490000Y953000D02*
X565000D01*
X601000Y917000D02*
X601000D01*
X614000Y1076000D02*
X638000D01*
X617000Y970000D02*
X633000D01*
Y969000D02*
Y970000D01*
X605000Y1140000D02*
X610000Y1145000D01*
X614000Y1076000D02*
Y1077000D01*
X605000Y994000D02*
Y1139000D01*
X601000Y990000D02*
X605000Y994000D01*
X609000Y1081000D02*
X632000D01*
X601000Y990000D02*
X601000D01*
X585000Y904000D02*
X596000Y893000D01*
X489000Y767000D02*
X604000D01*
X629000Y596000D02*
Y656000D01*
X604000Y681000D02*
Y767000D01*
Y681000D02*
X629000Y656000D01*
X595000Y915000D02*
Y923000D01*
X589000Y914000D02*
X602000Y901000D01*
X589000Y914000D02*
Y928000D01*
X595000Y934000D01*
Y942000D02*
X612000D01*
X589000Y612000D02*
Y741000D01*
X575000D02*
X589000D01*
X474000Y753000D02*
X475000D01*
X567000Y534000D02*
X629000Y596000D01*
X567000Y531000D02*
Y534000D01*
X624000Y643000D02*
X625000Y644000D01*
X624000Y643000D02*
X624000Y597000D01*
X562000Y535000D02*
X624000Y597000D01*
X562000Y526000D02*
Y535000D01*
X619000Y598000D02*
Y640000D01*
X557000Y536000D02*
X619000Y598000D01*
X557000Y520000D02*
Y536000D01*
X614000Y599000D02*
Y655000D01*
X552000Y537000D02*
X614000Y599000D01*
X552000Y515000D02*
Y537000D01*
X540000Y545000D02*
X548000D01*
X604000Y601000D02*
Y670000D01*
X548000Y545000D02*
X604000Y601000D01*
X609000Y648000D02*
X610000Y649000D01*
X551000Y650000D02*
X552000Y649000D01*
X553000D01*
X547000Y538000D02*
X609000Y600000D01*
X609000Y648000D02*
X609000Y600000D01*
X515000Y314000D02*
Y314000D01*
X1096000Y314000D01*
Y306000D02*
Y314000D01*
X419000Y589000D02*
X450000D01*
X418000D02*
X419000D01*
X387000Y604000D02*
X495000D01*
X590000Y949000D02*
X607000D01*
X546000Y569000D02*
X589000Y612000D01*
X546000Y551000D02*
Y569000D01*
X476000Y820000D02*
Y905000D01*
X526000Y581000D02*
Y635000D01*
X492000Y755000D02*
X594000D01*
X561000Y576000D02*
X594000Y609000D01*
Y755000D01*
X497000Y761000D02*
X599000D01*
Y605000D02*
Y761000D01*
X564000Y570000D02*
X599000Y605000D01*
X547000Y510000D02*
Y538000D01*
X638000Y520000D02*
Y520000D01*
X623000Y505000D02*
X638000Y520000D01*
X623000Y489000D02*
Y505000D01*
X547000Y510000D02*
X557000D01*
X424000Y635000D02*
X526000Y635000D01*
X516000Y417000D02*
Y625000D01*
X409000D02*
X516000D01*
X521000Y423000D02*
Y630000D01*
X414000D02*
X521000D01*
X854000Y406000D02*
X875000D01*
X689000D02*
X854000D01*
X875000D02*
X885000Y416000D01*
X804000Y1074000D02*
X804000Y510000D01*
X729000Y510000D02*
X804000Y510000D01*
X814000Y1064000D02*
X814000Y496000D01*
X681000D02*
X814000D01*
X799000Y1079000D02*
Y1079000D01*
Y1079000D02*
X799000Y517000D01*
X799000Y1079000D02*
X813000D01*
X663000Y517000D02*
X799000D01*
X681000Y510000D02*
X729000D01*
X662000D02*
X681000D01*
X804000Y1074000D02*
X1086000D01*
X661000Y503000D02*
X809000D01*
X809000Y1069000D02*
Y1069000D01*
X809000Y1069000D02*
X809000Y1069000D01*
Y1069000D02*
X809000Y503000D01*
X661000Y496000D02*
X681000D01*
X814000Y1064000D02*
X1492000D01*
X824000Y1053999D02*
X824000Y482000D01*
X681000D02*
X824000D01*
X819000Y1059000D02*
X1623000D01*
X819000D02*
X819000Y489000D01*
X824000Y1053999D02*
Y1054000D01*
X1897000Y1054000D01*
X661000Y482000D02*
X681000D01*
X829000Y1049000D02*
Y1049000D01*
Y1049000D02*
X829000Y475000D01*
X829000Y1049000D02*
X2028000D01*
X681000Y475000D02*
X829000D01*
X665000D02*
X681000D01*
X854000Y406000D02*
X854000Y955000D01*
X889000Y396000D02*
X2213000D01*
X681000Y468000D02*
X834000D01*
X669000D02*
X681000D01*
X834000Y990000D02*
X834000Y468000D01*
X834000Y990000D02*
X2302000D01*
X681000Y433000D02*
X839000D01*
X839000Y970000D02*
X839000Y433000D01*
X839000Y970000D02*
X3112000D01*
X677000Y426000D02*
X844000D01*
X844000Y965000D02*
X844000Y426000D01*
X844000Y965000D02*
X2838000D01*
X682000Y419000D02*
X849000D01*
X849000Y960000D02*
X849000Y419000D01*
X849000Y960000D02*
X2707000D01*
X854000Y955000D02*
X2433000D01*
X1086000Y306000D02*
Y309000D01*
X865000Y301000D02*
X1039000D01*
X1270000D01*
X673000Y433000D02*
X681000D01*
X682000Y401000D02*
Y419000D01*
Y401000D02*
X876000D01*
X677000Y397000D02*
Y426000D01*
Y397000D02*
X878000D01*
X673000Y393000D02*
Y433000D01*
Y393000D02*
X880000D01*
X669000Y389000D02*
Y468000D01*
Y389000D02*
X882000D01*
X665000Y385000D02*
Y475000D01*
Y385000D02*
X883000D01*
X657000Y377000D02*
Y486000D01*
X660000Y489000D01*
X661000Y381000D02*
Y482000D01*
Y381000D02*
X885000D01*
X657000Y377000D02*
X887000D01*
X653000Y488000D02*
X661000Y496000D01*
X653000Y373000D02*
Y488000D01*
Y373000D02*
X890000D01*
X649000Y491000D02*
X661000Y503000D01*
X649000Y369000D02*
Y491000D01*
Y369000D02*
X892000D01*
X645000Y493000D02*
X662000Y510000D01*
X645000Y365000D02*
Y493000D01*
Y365000D02*
X894000D01*
X641000Y495000D02*
X663000Y517000D01*
X641000Y361000D02*
Y495000D01*
Y361000D02*
X904000D01*
X536000Y678000D02*
Y704000D01*
X545000Y713000D01*
X546000D01*
X888000Y401000D02*
X3119000D01*
X887000Y406000D02*
X2928000D01*
X886000Y411000D02*
X2617000D01*
X876000Y401000D02*
X886000Y411000D01*
X878000Y397000D02*
X887000Y406000D01*
X880000Y393000D02*
X888000Y401000D01*
X882000Y389000D02*
X889000Y396000D01*
Y391000D02*
X2118000Y391000D01*
X883000Y385000D02*
X889000Y391000D01*
X891000Y381000D02*
X1713000Y381000D01*
X887000Y377000D02*
X891000Y381000D01*
X893000Y376000D02*
X1399000Y376000D01*
X890000Y373000D02*
X893000Y376000D01*
X894000Y371000D02*
X894000Y371000D01*
X892000Y369000D02*
X894000Y371000D01*
X1309000D01*
X894000Y365000D02*
X895000Y366000D01*
X996000D01*
X425000Y481000D02*
Y494000D01*
X375000D02*
X425000D01*
X526000Y749000D02*
X536000D01*
X404000Y620000D02*
Y822000D01*
X387000Y604000D02*
Y726000D01*
X404000Y620000D02*
X506000D01*
X399000Y615000D02*
X511000D01*
X409000Y625000D02*
Y786000D01*
X414000Y630000D02*
Y771000D01*
X419000Y636000D02*
Y766000D01*
X424000Y635000D02*
Y721000D01*
X2211000Y396000D02*
X2213000D01*
X2213000Y396000D01*
X2118000Y391000D02*
X2120000D01*
X2890000Y301000D02*
X2890000Y301000D01*
X2485000Y301000D02*
X2890000D01*
X2080000D02*
X2485000D01*
X1675000D02*
X2080000D01*
X1270000D02*
X1675000D01*
X512000Y1140000D02*
Y1159000D01*
X475000Y753000D02*
X489000Y767000D01*
X474000Y752000D02*
Y753000D01*
X511000Y818000D02*
X514000Y821000D01*
Y857000D01*
X539000Y670000D02*
X547000Y678000D01*
X526000Y670000D02*
X539000D01*
X471000Y645000D02*
X559000D01*
X466000Y640000D02*
X553000D01*
X476000Y650000D02*
X553000D01*
X481000Y655000D02*
X559000D01*
X471000Y645000D02*
Y645000D01*
X389190Y462000D02*
X390160Y462970D01*
Y543970D02*
X390190Y544000D01*
D93*
X897000Y422000D02*
X1003000D01*
X1302000D01*
X1408000D01*
X1707000D01*
X593000Y331000D02*
X1566000D01*
X449000Y721000D02*
X533000D01*
X714000Y1114000D02*
X747000D01*
X545000Y1160000D02*
X546000D01*
X512000D02*
X545000D01*
X666000D02*
X666000Y765000D01*
X580000Y1160000D02*
X666000D01*
X580000Y1112000D02*
Y1160000D01*
X477000Y1112000D02*
X580000D01*
X477000Y1007000D02*
Y1112000D01*
X666000Y530000D02*
X679000Y543000D01*
X672000Y1162000D02*
X672000Y623000D01*
X708000Y581000D02*
X714000Y587000D01*
X680000Y553000D02*
X708000Y581000D01*
X485000Y797000D02*
X561000D01*
X484000D02*
X485000D01*
Y880000D01*
X475000Y788000D02*
X484000Y797000D01*
X449000Y788000D02*
X475000D01*
X652000Y525000D02*
X680000Y553000D01*
X714000Y587000D02*
Y633000D01*
X629000Y410000D02*
Y502000D01*
X581000Y532000D02*
X672000Y623000D01*
X581000Y319000D02*
Y532000D01*
Y319000D02*
X855000D01*
X587000Y530000D02*
X678000Y621000D01*
X587000Y325000D02*
Y530000D01*
Y325000D02*
X1157000D01*
X593000Y528000D02*
X684000Y619000D01*
X593000Y331000D02*
Y528000D01*
X599000Y526000D02*
X690000Y617000D01*
X599000Y337000D02*
Y526000D01*
Y337000D02*
X1966000D01*
X605000Y524000D02*
X696000Y615000D01*
X605000Y343000D02*
Y524000D01*
Y343000D02*
X2369000D01*
X611000Y349000D02*
Y522000D01*
Y349000D02*
X2775000D01*
X611000Y522000D02*
X702000Y613000D01*
X617000Y520000D02*
X708000Y611000D01*
X617000Y355000D02*
Y520000D01*
Y355000D02*
X2981000D01*
X649000Y531000D02*
X669000Y551000D01*
X669000D01*
X629000Y502000D02*
X652000Y525000D01*
X569000Y670000D02*
Y694000D01*
X720000Y1107000D02*
X720000Y575000D01*
X682000Y537000D02*
X720000Y575000D01*
X682000Y537000D02*
X682000D01*
X708000Y611000D02*
Y650000D01*
X678000Y1084000D02*
X678000Y621000D01*
Y1158000D02*
X940000D01*
X678000D02*
Y1158000D01*
Y1128000D02*
Y1158000D01*
X684000Y1152000D02*
Y1152000D01*
Y1152000D02*
Y1152000D01*
Y1040000D02*
Y1152000D01*
X684000Y1152000D02*
X684000Y1152000D01*
X684000Y1152000D02*
X684000D01*
X684000Y996000D02*
X684000Y619000D01*
Y1152000D02*
X1355000Y1152000D01*
X690000Y1146000D02*
X1760000D01*
X690000Y952000D02*
X690000Y1146000D01*
Y617000D02*
Y908000D01*
X696000Y1140000D02*
X696000Y864000D01*
X696000Y1140000D02*
X2165000D01*
X702000Y1134000D02*
X702000Y776000D01*
X702000Y1134000D02*
X2569000D01*
X696000Y820000D02*
X696000Y615000D01*
X702000Y732000D02*
X702000Y613000D01*
X708000Y688000D02*
Y1128000D01*
X714000Y1114000D02*
X714000Y631000D01*
X569000Y694000D02*
Y721000D01*
X533000D02*
X569000D01*
X2921000Y422000D02*
X3112000D01*
X1707000D02*
X1813000D01*
X2517000D02*
X2624000D01*
X2218000D02*
X2517000D01*
X483000Y1160000D02*
X511000D01*
X422000D02*
X483000D01*
X720000Y1107000D02*
X759000D01*
X708000Y1128000D02*
X763000D01*
X449000Y721000D02*
Y788000D01*
X2624000Y422000D02*
X2921000D01*
X2112000D02*
X2218000D01*
X1813000D02*
X2112000D01*
X940000Y1158000D02*
X952000D01*
X775000Y1128000D02*
X1391000Y1128000D01*
X763000D02*
X775000Y1128000D01*
X1384000Y1128000D02*
X1391000D01*
X940000Y1158000D02*
X940000Y1158000D01*
X1095000Y1164000D02*
X1209000D01*
X1501000D01*
X1391000Y1128000D02*
X2975000D01*
X2423000Y1164000D02*
X2717000D01*
X2828000D01*
X803000D02*
X1095000D01*
X1501000D02*
X1613000D01*
X1907000D01*
X2018000D01*
X2312000D01*
X2423000D01*
X2828000D02*
X3122000D01*
X759000D02*
X803000D01*
X433000Y776000D02*
X448000D01*
X449000Y788000D02*
Y819000D01*
Y788000D02*
X449000Y788000D01*
X553000Y694000D02*
X569000D01*
X552000D02*
X553000D01*
X550000Y692000D02*
X552000Y694000D01*
X532000Y721000D02*
X533000D01*
X521000D02*
X532000D01*
X533000D02*
X533000Y721000D01*
D94*
X569000Y1124000D02*
Y1172000D01*
D96*
X423000Y373000D02*
Y382000D01*
Y248000D02*
Y373000D01*
D131*
X483000Y341500D02*
D03*
Y269500D02*
D03*
D132*
X423000Y373000D02*
D03*
Y238000D02*
D03*
D133*
X386360Y544200D02*
D03*
Y457700D02*
D03*
D134*
X347760Y544200D02*
D03*
Y457700D02*
D03*
D135*
X648000Y812000D02*
D03*
X643000Y807000D02*
D03*
X636000Y831000D02*
D03*
Y847000D02*
D03*
X645000Y959000D02*
D03*
X646000Y952000D02*
D03*
X382000Y706000D02*
D03*
X623000Y1145000D02*
D03*
X666000Y765000D02*
D03*
X646000D02*
D03*
X399000Y762000D02*
D03*
X450000Y429000D02*
D03*
X525000Y920000D02*
D03*
X530000Y925000D02*
D03*
X542000Y886000D02*
D03*
X568000Y883000D02*
D03*
X542000Y906000D02*
D03*
X567000Y905000D02*
D03*
X542000Y876000D02*
D03*
X577000Y998000D02*
D03*
X617000Y855000D02*
D03*
X547000Y823000D02*
D03*
X585000Y1064000D02*
D03*
X596000D02*
D03*
X566000Y986000D02*
D03*
X621000Y1010000D02*
D03*
X644000Y970000D02*
D03*
X617000D02*
D03*
X633000D02*
D03*
X614000Y1076000D02*
D03*
X610000Y1145000D02*
D03*
X601000Y990000D02*
D03*
X591000Y867000D02*
D03*
X596000Y893000D02*
D03*
X632000Y1081000D02*
D03*
X591000Y882000D02*
D03*
X615000Y746000D02*
D03*
X610000Y751000D02*
D03*
X602000Y849000D02*
D03*
Y901000D02*
D03*
X595000Y934000D02*
D03*
X612000Y942000D02*
D03*
X490000Y953000D02*
D03*
X601000Y917000D02*
D03*
X595000Y923000D02*
D03*
X575000Y741000D02*
D03*
X624000Y645000D02*
D03*
X619000Y640000D02*
D03*
X614000Y655000D02*
D03*
X609000Y650000D02*
D03*
X604000Y670000D02*
D03*
X607000Y949000D02*
D03*
X590000D02*
D03*
X595000Y942000D02*
D03*
X419000Y589000D02*
D03*
X415000Y807000D02*
D03*
X476000Y820000D02*
D03*
X540000Y545000D02*
D03*
X629000Y410000D02*
D03*
X638000Y520000D02*
D03*
X557000Y510000D02*
D03*
Y520000D02*
D03*
X562000Y526000D02*
D03*
X492000Y755000D02*
D03*
X497000Y761000D02*
D03*
X569000Y504000D02*
D03*
X552000Y515000D02*
D03*
X569000Y670000D02*
D03*
X516000Y417000D02*
D03*
X521000Y423000D02*
D03*
X1096000Y306000D02*
D03*
X1086000D02*
D03*
X425000Y494000D02*
D03*
Y481000D02*
D03*
X526000Y749000D02*
D03*
X537000D02*
D03*
X404000Y822000D02*
D03*
X419000Y636000D02*
D03*
X424000Y721000D02*
D03*
X419000Y766000D02*
D03*
X414000Y771000D02*
D03*
X409000Y786000D02*
D03*
X382000Y796000D02*
D03*
X387000Y726000D02*
D03*
X433000Y776000D02*
D03*
X474000Y752000D02*
D03*
X536000Y678000D02*
D03*
X449000Y819000D02*
D03*
X511000Y818000D02*
D03*
X514000Y857000D02*
D03*
X547000Y678000D02*
D03*
X526000Y670000D02*
D03*
X459000Y796000D02*
D03*
X433000Y684000D02*
D03*
X561000Y797000D02*
D03*
X446000Y702000D02*
D03*
X511000Y615000D02*
D03*
X506000Y620000D02*
D03*
X335000Y807000D02*
D03*
X521000Y778000D02*
D03*
X559000Y655000D02*
D03*
X553000Y650000D02*
D03*
X481000Y655000D02*
D03*
X476000Y650000D02*
D03*
X553000Y640000D02*
D03*
X559000Y645000D02*
D03*
X466000Y640000D02*
D03*
X471000Y645000D02*
D03*
X532000Y721000D02*
D03*
X521000D02*
D03*
X375000Y494000D02*
D03*
X546000Y713000D02*
D03*
D136*
X2120000Y391000D02*
D03*
X897000Y422000D02*
D03*
X1003000D02*
D03*
X1302000D02*
D03*
X1408000D02*
D03*
X1715000Y381000D02*
D03*
X1805000Y386000D02*
D03*
X2524000Y415000D02*
D03*
X547000Y386000D02*
D03*
X575000Y445000D02*
D03*
Y386000D02*
D03*
X744000Y439000D02*
D03*
X735000D02*
D03*
Y413000D02*
D03*
X744000D02*
D03*
X666000Y530000D02*
D03*
X598000Y1167000D02*
D03*
X672000Y1162000D02*
D03*
X526000Y581000D02*
D03*
X546000Y551000D02*
D03*
X561000Y576000D02*
D03*
X564000Y570000D02*
D03*
X708000Y581000D02*
D03*
X680000Y553000D02*
D03*
X669000Y551000D02*
D03*
X649000Y531000D02*
D03*
X623000Y489000D02*
D03*
X629000Y502000D02*
D03*
X652000Y525000D02*
D03*
X567000Y531000D02*
D03*
X745000Y545000D02*
D03*
X735000D02*
D03*
X740000Y550000D02*
D03*
X735000Y530000D02*
D03*
X745000D02*
D03*
X740000Y525000D02*
D03*
X735000Y1100000D02*
D03*
X745000D02*
D03*
X740000Y1095000D02*
D03*
Y1115000D02*
D03*
X745000Y1120000D02*
D03*
X735000D02*
D03*
X679000Y543000D02*
D03*
X682000Y537000D02*
D03*
X678000Y1084000D02*
D03*
Y1128000D02*
D03*
X684000Y996000D02*
D03*
Y1040000D02*
D03*
X690000Y952000D02*
D03*
Y908000D02*
D03*
X696000Y864000D02*
D03*
X702000Y776000D02*
D03*
X696000Y820000D02*
D03*
X702000Y732000D02*
D03*
X708000Y688000D02*
D03*
Y650000D02*
D03*
X1039000Y301000D02*
D03*
X682000Y419000D02*
D03*
X689000Y406000D02*
D03*
X3112000Y422000D02*
D03*
X3119000Y401000D02*
D03*
X2928000Y406000D02*
D03*
X2617000Y411000D02*
D03*
X1707000Y422000D02*
D03*
X681000Y489000D02*
D03*
Y482000D02*
D03*
Y454000D02*
D03*
Y447000D02*
D03*
X681000Y468000D02*
D03*
X681000Y503000D02*
D03*
Y496000D02*
D03*
Y475000D02*
D03*
Y510000D02*
D03*
Y517000D02*
D03*
Y426000D02*
D03*
Y433000D02*
D03*
X2517000Y422000D02*
D03*
X681000Y440000D02*
D03*
X1218000Y1069000D02*
D03*
X1086000Y1074000D02*
D03*
X2981000Y355000D02*
D03*
X2775000Y349000D02*
D03*
X2369000Y343000D02*
D03*
X1966000Y337000D02*
D03*
X1157000Y325000D02*
D03*
X545000Y1160000D02*
D03*
X483000D02*
D03*
X422000D02*
D03*
X360000D02*
D03*
X759000Y1164000D02*
D03*
X2921000Y422000D02*
D03*
X2624000D02*
D03*
X2218000D02*
D03*
X2112000D02*
D03*
X2211000Y396000D02*
D03*
X1813000Y422000D02*
D03*
X1400000Y376000D02*
D03*
X2890000Y301000D02*
D03*
X1566000Y331000D02*
D03*
X904000Y361000D02*
D03*
X996000Y366000D02*
D03*
X1309000Y371000D02*
D03*
X2569000Y1134000D02*
D03*
X1355000Y1152000D02*
D03*
X952000Y1158000D02*
D03*
X803000Y1164000D02*
D03*
X1209000D02*
D03*
X1095000D02*
D03*
X1501000D02*
D03*
X1613000D02*
D03*
X1907000D02*
D03*
X2018000D02*
D03*
X2423000D02*
D03*
X2312000D02*
D03*
X2717000D02*
D03*
X2828000D02*
D03*
X3122000D02*
D03*
X2975000Y1128000D02*
D03*
X855000Y319000D02*
D03*
X2485000Y301000D02*
D03*
X2080000D02*
D03*
X1675000D02*
D03*
X1270000D02*
D03*
X865000D02*
D03*
X1760000Y1146000D02*
D03*
X2165000Y1140000D02*
D03*
X759000Y1107000D02*
D03*
X813000Y1079000D02*
D03*
X1492000Y1064000D02*
D03*
X1623000Y1059000D02*
D03*
X1897000Y1054000D02*
D03*
X2028000Y1049000D02*
D03*
X2433000Y955000D02*
D03*
X2302000Y990000D02*
D03*
X2707000Y960000D02*
D03*
X2838000Y965000D02*
D03*
X3112000Y970000D02*
D03*
X512000Y1140000D02*
D03*
X412000Y1167000D02*
D03*
X474000D02*
D03*
X536000D02*
D03*
X755000Y280998D02*
D03*
Y240998D02*
D03*
Y250998D02*
D03*
Y260998D02*
D03*
Y270998D02*
D03*
X765000Y280998D02*
D03*
Y240998D02*
D03*
Y250998D02*
D03*
Y260998D02*
D03*
Y270998D02*
D03*
X775000Y280998D02*
D03*
Y240998D02*
D03*
Y250998D02*
D03*
Y260998D02*
D03*
Y270998D02*
D03*
X785000Y280998D02*
D03*
Y240998D02*
D03*
Y250998D02*
D03*
Y260998D02*
D03*
Y270998D02*
D03*
X795000Y280998D02*
D03*
Y240998D02*
D03*
Y250998D02*
D03*
Y260998D02*
D03*
Y270998D02*
D03*
X805000Y280998D02*
D03*
Y240998D02*
D03*
Y250998D02*
D03*
Y260998D02*
D03*
Y270998D02*
D03*
X1210000Y270998D02*
D03*
Y260998D02*
D03*
Y250998D02*
D03*
Y240998D02*
D03*
Y280998D02*
D03*
X1200000Y270998D02*
D03*
Y260998D02*
D03*
Y250998D02*
D03*
Y240998D02*
D03*
Y280998D02*
D03*
X1190000Y270998D02*
D03*
Y260998D02*
D03*
Y250998D02*
D03*
Y240998D02*
D03*
Y280998D02*
D03*
X1180000Y270998D02*
D03*
Y260998D02*
D03*
Y250998D02*
D03*
Y240998D02*
D03*
Y280998D02*
D03*
X1170000Y270998D02*
D03*
Y260998D02*
D03*
Y250998D02*
D03*
Y240998D02*
D03*
Y280998D02*
D03*
X1160000Y270998D02*
D03*
Y260998D02*
D03*
Y250998D02*
D03*
Y240998D02*
D03*
Y280998D02*
D03*
X1565000Y279998D02*
D03*
Y239998D02*
D03*
Y249998D02*
D03*
Y259998D02*
D03*
Y269998D02*
D03*
X1575000Y279998D02*
D03*
Y239998D02*
D03*
Y249998D02*
D03*
Y259998D02*
D03*
Y269998D02*
D03*
X1585000Y279998D02*
D03*
Y239998D02*
D03*
Y249998D02*
D03*
Y259998D02*
D03*
Y269998D02*
D03*
X1595000Y279998D02*
D03*
Y239998D02*
D03*
Y249998D02*
D03*
Y259998D02*
D03*
Y269998D02*
D03*
X1605000Y279998D02*
D03*
Y239998D02*
D03*
Y249998D02*
D03*
Y259998D02*
D03*
Y269998D02*
D03*
X1615000Y279998D02*
D03*
Y239998D02*
D03*
Y249998D02*
D03*
Y259998D02*
D03*
Y269998D02*
D03*
X1970000Y279998D02*
D03*
Y239998D02*
D03*
Y249998D02*
D03*
Y259998D02*
D03*
Y269998D02*
D03*
X1980000Y279998D02*
D03*
Y239998D02*
D03*
Y249998D02*
D03*
Y259998D02*
D03*
Y269998D02*
D03*
X1990000Y279998D02*
D03*
Y239998D02*
D03*
Y249998D02*
D03*
Y259998D02*
D03*
Y269998D02*
D03*
X2000000Y279998D02*
D03*
Y239998D02*
D03*
Y249998D02*
D03*
Y259998D02*
D03*
Y269998D02*
D03*
X2010000Y279998D02*
D03*
Y239998D02*
D03*
Y249998D02*
D03*
Y259998D02*
D03*
Y269998D02*
D03*
X2020000Y279998D02*
D03*
Y239998D02*
D03*
Y249998D02*
D03*
Y259998D02*
D03*
Y269998D02*
D03*
X2375000Y279998D02*
D03*
Y239998D02*
D03*
Y249998D02*
D03*
Y259998D02*
D03*
Y269998D02*
D03*
X2385000Y279998D02*
D03*
Y239998D02*
D03*
Y249998D02*
D03*
Y259998D02*
D03*
Y269998D02*
D03*
X2395000Y279998D02*
D03*
Y239998D02*
D03*
Y249998D02*
D03*
Y259998D02*
D03*
Y269998D02*
D03*
X2405000Y279998D02*
D03*
Y239998D02*
D03*
Y249998D02*
D03*
Y259998D02*
D03*
Y269998D02*
D03*
X2415000Y279998D02*
D03*
Y239998D02*
D03*
Y249998D02*
D03*
Y259998D02*
D03*
Y269998D02*
D03*
X2425000Y279998D02*
D03*
Y239998D02*
D03*
Y249998D02*
D03*
Y259998D02*
D03*
Y269998D02*
D03*
X2780000Y279998D02*
D03*
Y239998D02*
D03*
Y249998D02*
D03*
Y259998D02*
D03*
Y269998D02*
D03*
X2790000Y279998D02*
D03*
Y239998D02*
D03*
Y249998D02*
D03*
Y259998D02*
D03*
Y269998D02*
D03*
X2800000Y279998D02*
D03*
Y239998D02*
D03*
Y249998D02*
D03*
Y259998D02*
D03*
Y269998D02*
D03*
X2810000Y279998D02*
D03*
Y239998D02*
D03*
Y249998D02*
D03*
Y259998D02*
D03*
Y269998D02*
D03*
X2820000Y279998D02*
D03*
Y239998D02*
D03*
Y249998D02*
D03*
Y259998D02*
D03*
Y269998D02*
D03*
X2830000Y279998D02*
D03*
Y239998D02*
D03*
Y249998D02*
D03*
Y259998D02*
D03*
Y269998D02*
D03*
D137*
X360000Y715000D02*
D03*
Y745000D02*
D03*
X480000Y400000D02*
D03*
X510000D02*
D03*
X656000Y1151000D02*
D03*
X492000Y1068000D02*
D03*
X477000Y1007000D02*
D03*
X380000Y890000D02*
D03*
X360000Y780000D02*
D03*
X410000Y890000D02*
D03*
X458000Y1089000D02*
D03*
X410000Y1060000D02*
D03*
X440000Y960000D02*
D03*
X410000D02*
D03*
X735000Y620000D02*
D03*
X465000Y555000D02*
D03*
X645000Y620000D02*
D03*
X505000Y555000D02*
D03*
X560000Y620000D02*
D03*
X513000Y941000D02*
D03*
X595000Y797000D02*
D03*
X625000D02*
D03*
X549000Y977000D02*
D03*
X513000Y986000D02*
D03*
X485000Y885000D02*
D03*
X335000Y1175000D02*
D03*
X380000Y960000D02*
D03*
X531000Y1031000D02*
D03*
X553000Y694000D02*
D03*
X440000Y655000D02*
D03*
X503000Y744000D02*
D03*
X569000Y1124000D02*
D03*
D138*
X3167000Y1174000D02*
D03*
D139*
X507500Y1168500D02*
D03*
D140*
X1791500Y1174500D02*
D03*
D141*
X1816500Y253000D02*
D03*
M02*
