M48
;Layer_Color=9474304
;FILE_FORMAT=4:4
METRIC,LZ
;TYPE=PLATED
T1F00S00C0.2540
T3F00S00C0.6000
T5F00S00C2.8000
;TYPE=NON_PLATED
T6F00S00C0.6500
T7F00S00C2.3876
T8F00S00C3.1750
T9F00S00C3.4544
%
T01
X00547Y00386
X00575
X00755Y00280998
Y00270998
Y00260998
Y00250998
Y00240998
X00765
Y00250998
Y00260998
Y00270998
Y00280998
X00775
X00785
Y00270998
X00775
Y00260998
X00785
Y00250998
X00775
Y00240998
X00785
X00795
Y00250998
Y00260998
Y00270998
Y00280998
X00805
Y00270998
Y00260998
Y00250998
Y00240998
X00865Y00301
X00855Y00319
X00904Y00361
X00996Y00366
X01039Y00301
X01086Y00306
X01096
X01157Y00325
X0116Y00280998
X0117
X0118
X0119
Y00270998
Y00260998
X0118
Y00270998
X0117
Y00260998
Y00250998
X0118
X0119
Y00240998
X0118
X0117
X0116
Y00250998
Y00260998
Y00270998
X012
Y00260998
X0121
Y00270998
Y00280998
X012
Y00250998
X0121
Y00240998
X012
X0127Y00301
X01309Y00371
X014Y00376
X01566Y00331
X01565Y00279998
Y00269998
Y00259998
Y00249998
Y00239998
X01575
Y00249998
Y00259998
Y00269998
Y00279998
X01585
Y00269998
Y00259998
Y00249998
Y00239998
X01595
Y00249998
Y00259998
Y00269998
Y00279998
X01605
Y00269998
Y00259998
Y00249998
Y00239998
X01615
Y00249998
Y00259998
Y00269998
Y00279998
X01675Y00301
X01715Y00381
X01805Y00386
X01966Y00337
X0197Y00279998
Y00269998
Y00259998
Y00249998
Y00239998
X0198
Y00249998
Y00259998
Y00269998
Y00279998
X0199
X02
Y00269998
X0199
Y00259998
X02
Y00249998
X0199
Y00239998
X02
X0201
Y00249998
Y00259998
Y00269998
Y00279998
X0202
Y00269998
Y00259998
Y00249998
Y00239998
X0208Y00301
X0212Y00391
X02211Y00396
X02369Y00343
X02375Y00279998
Y00269998
Y00259998
Y00249998
Y00239998
X02385
Y00249998
Y00259998
Y00269998
Y00279998
X02395
X02405
Y00269998
X02395
Y00259998
X02405
Y00249998
X02395
Y00239998
X02405
X02415
Y00249998
Y00259998
Y00269998
Y00279998
X02425
Y00269998
Y00259998
Y00249998
Y00239998
X02485Y00301
X02775Y00349
X0278Y00279998
Y00269998
Y00259998
Y00249998
Y00239998
X0279
Y00249998
Y00259998
Y00269998
Y00279998
X028
X0281
Y00269998
X028
Y00259998
X0281
Y00249998
X028
Y00239998
X0281
X0282
Y00249998
Y00259998
Y00269998
Y00279998
X0283
Y00269998
Y00259998
Y00249998
Y00239998
X0289Y00301
X02981Y00355
X02928Y00406
X02921Y00422
X03112
X03119Y00401
X02617Y00411
X02624Y00422
X02524Y00415
X02517Y00422
X02218
X02112
X01813
X01707
X01408
X01302
X01003
X00897
X00744Y00413
X00735
Y00439
X00744
X00681Y0044
Y00433
Y00426
X00682Y00419
X00689Y00406
X00681Y00447
Y00454
X00681Y00468
X00681Y00475
Y00482
Y00489
Y00496
Y00503
Y0051
Y00517
X00682Y00537
X00679Y00543
X0068Y00553
X00669Y00551
X00666Y0053
X00649Y00531
X00652Y00525
X00638Y0052
X00629Y00502
X00623Y00489
X00569Y00504
X00557Y0051
Y0052
X00552Y00515
X00562Y00526
X00567Y00531
X00546Y00551
X0054Y00545
X00564Y0057
X00561Y00576
X00526Y00581
X00511Y00615
X00506Y0062
X00466Y0064
X00471Y00645
X00476Y0065
X00481Y00655
X00526Y0067
X00536Y00678
X00547
X00569Y0067
X00559Y00655
Y00645
X00553Y0064
Y0065
X00609Y0065
X00614Y00655
X00624Y00645
X00619Y0064
X00604Y0067
X00615Y00746
X0061Y00751
X00575Y00741
X00537Y00749
X00526
X00521Y00721
X00532
X00546Y00713
X00521Y00778
X00497Y00761
X00492Y00755
X00474Y00752
X00433Y00776
X00414Y00771
X00419Y00766
X00399Y00762
X00409Y00786
X00424Y00721
X00446Y00702
X00433Y00684
X00419Y00636
Y00589
X00425Y00494
Y00481
X0045Y00429
X00521Y00423
X00516Y00417
X00575Y00445
X00629Y0041
X00735Y0053
X0074Y00525
X00745Y0053
X00745Y00545
X0074Y0055
X00735Y00545
X00708Y00581
X00708Y0065
Y00688
X00702Y00732
Y00776
X00666Y00765
X00646
X00387Y00726
X00382Y00706
X00375Y00494
X00382Y00796
X00335Y00807
X0036Y0116
X00412Y01167
X00422Y0116
X00474Y01167
X00483Y0116
X00512Y0114
X00536Y01167
X00545Y0116
X00598Y01167
X0061Y01145
X00623Y01145
X00672Y01162
X00678Y01128
Y01084
X00632Y01081
X00614Y01076
X00596Y01064
X00585
X00577Y00998
X00566Y00986
X00601Y0099
X00617Y0097
X00633
X00644
X00645Y00959
X00646Y00952
X00607Y00949
X00612Y00942
X00595
Y00934
Y00923
X00601Y00917
X00602Y00901
X00596Y00893
X00591Y00882
Y00867
X00602Y00849
X00617Y00855
X00636Y00847
Y00831
X00648Y00812
X00643Y00807
X00696Y0082
Y00864
X0069Y00908
Y00952
X00684Y00996
Y0104
X00621Y0101
X0059Y00949
X00567Y00905
X00568Y00883
X00542Y00886
Y00876
Y00906
X00525Y0092
X0053Y00925
X0049Y00953
X00514Y00857
X00511Y00818
X00476Y0082
X00449Y00819
X00459Y00796
X00415Y00807
X00404Y00822
X00547Y00823
X00561Y00797
X00735Y011
X0074Y01095
X00745Y011
Y0112
X0074Y01115
X00735Y0112
X00759Y01107
X00759Y01164
X00803Y01164
X00813Y01079
X00952Y01158
X01095Y01164
X01086Y01074
X01218Y01069
X01209Y01164
X01355Y01152
X01501Y01164
X01492Y01064
X01623Y01059
X01613Y01164
X0176Y01146
X01907Y01164
X01897Y01054
X02028Y01049
X02018Y01164
X02165Y0114
X02312Y01164
X02302Y0099
X02433Y00955
X02423Y01164
X02569Y01134
X02717Y01164
X02707Y0096
X02838Y00965
X02828Y01164
X02975Y01128
X03122Y01164
X03112Y0097
T03
X0048Y004
X0051
X00505Y00555
X00465
X0044Y00655
X00553Y00694
X0056Y0062
X00645
X00735
X00503Y00744
X0036Y00745
Y00715
Y0078
X0038Y0089
Y0096
X00335Y01175
X0041Y0106
X00458Y01089
X00492Y01068
X00477Y01007
X00513Y00986
Y00941
X00549Y00977
X00531Y01031
X00569Y01124
X00656Y01151
X00625Y00797
X00595
X00485Y00885
X0041Y0089
Y0096
X0044
X03167Y01174
T05
X00483Y002695
Y003415
T06
X0037919Y00471
Y00531
T07
X01127Y01105
X01532Y01105
X01937Y01105
X02342Y01105
X02747
X03152Y01105352
T08
X02975Y0047
X0257Y00469648
X02165
X0176Y00469648
X01355Y00469648
X0095Y00469648
Y01022352
X01355Y01022352
X0176Y01022352
X02165Y01022352
X0257
X02975Y01022704
T09
X03151Y00470352
X02746Y0047
X02341
X01936Y0047
X01531Y0047
X01126Y0047
X00774Y01022
X01179Y01022
X01584Y01022
X01989Y01022
X02394
X02799Y01022352
M30
