G04*
G04 #@! TF.GenerationSoftware,Altium Limited,Altium Designer,18.1.7 (191)*
G04*
G04 Layer_Color=32896*
%FSLAX44Y44*%
%MOMM*%
G71*
G01*
G75*
G36*
X935686Y1003710D02*
X943742Y1002978D01*
X946672Y1002246D01*
X948869Y1001513D01*
X950334Y1000781D01*
X951066D01*
X960588Y997851D01*
X969377Y994921D01*
X977433Y991260D01*
X984757Y988330D01*
X990617Y985400D01*
X995011Y982471D01*
X997941Y981006D01*
X998673Y980273D01*
X1013321Y969287D01*
X1019913Y963428D01*
X1025772Y958301D01*
X1030167Y953907D01*
X1033829Y950245D01*
X1036026Y947315D01*
X1036758Y946582D01*
X1044815Y936329D01*
X1052139Y925343D01*
X1057998Y915089D01*
X1062393Y905568D01*
X1066055Y897511D01*
X1068252Y891652D01*
X1069717Y887257D01*
X1070449Y886525D01*
Y885793D01*
X1073379Y873342D01*
X1075576Y861623D01*
X1076308Y849904D01*
X1077041Y839651D01*
Y817679D01*
X1075576Y806692D01*
X1074111Y797171D01*
X1071914Y787650D01*
X1069717Y779593D01*
X1068252Y773002D01*
X1066055Y767875D01*
X1065322Y764945D01*
X1064590Y763480D01*
X1060195Y753959D01*
X1055069Y745170D01*
X1049209Y737113D01*
X1044082Y730522D01*
X1038956Y724663D01*
X1035294Y720268D01*
X1032364Y717338D01*
X1031631Y716606D01*
X1028702Y713676D01*
X1025772Y710747D01*
X1023575Y709282D01*
X1022842Y708550D01*
X1019913Y705620D01*
X1017716Y703423D01*
X1016251Y701958D01*
X1015518Y701226D01*
X1016251Y698296D01*
Y696831D01*
X1016983Y695366D01*
X1017716Y694634D01*
X1021378Y691704D01*
X1022110Y690972D01*
X1022842Y690239D01*
X1026505Y686577D01*
X1027237Y685845D01*
X1027969Y685113D01*
X1036026Y677056D01*
X1043350Y668267D01*
X1049942Y660211D01*
X1055069Y652154D01*
X1059463Y645562D01*
X1062393Y640435D01*
X1063857Y637506D01*
X1064590Y636041D01*
X1068984Y625787D01*
X1071914Y615534D01*
X1074844Y605280D01*
X1076308Y596491D01*
X1077041Y588434D01*
X1077773Y581843D01*
Y562068D01*
X1076308Y548152D01*
X1074111Y535701D01*
X1071914Y524715D01*
X1069717Y515926D01*
X1068252Y508602D01*
X1066787Y504207D01*
X1066055Y503475D01*
Y502743D01*
X1060928Y491024D01*
X1055069Y479306D01*
X1047744Y469052D01*
X1041153Y459530D01*
X1035294Y452206D01*
X1030167Y446347D01*
X1026505Y442685D01*
X1025040Y441220D01*
X1016251Y433164D01*
X1007462Y425840D01*
X998673Y419980D01*
X989884Y414121D01*
X973039Y404600D01*
X957658Y398008D01*
X944475Y393614D01*
X938615Y391417D01*
X934221Y390684D01*
X929827Y389219D01*
X926897D01*
X925432Y388487D01*
X924700D01*
X912249Y387022D01*
X906389Y386290D01*
X901263D01*
X896868Y385557D01*
X893206D01*
X891009D01*
X890276D01*
X876361Y386290D01*
X862445Y387754D01*
X849262Y389219D01*
X837543Y391417D01*
X827289Y393614D01*
X819233Y395811D01*
X816303Y396543D01*
X814106D01*
X813374Y397276D01*
X812641D01*
X800190Y401670D01*
X789204Y406797D01*
X778218Y411191D01*
X768697Y416318D01*
X760640Y419980D01*
X754781Y423643D01*
X751119Y425840D01*
X749654Y426572D01*
X729146Y440488D01*
X719625Y447080D01*
X710836Y452939D01*
X703512Y458798D01*
X698385Y462460D01*
X694723Y465390D01*
X693259Y466122D01*
X672751Y482235D01*
X652976Y497616D01*
X634666Y512996D01*
X618553Y526180D01*
X611229Y532771D01*
X604637Y537898D01*
X598778Y543025D01*
X593651Y547420D01*
X589989Y551082D01*
X587059Y553279D01*
X585594Y554744D01*
X584862Y555476D01*
X565819Y573054D01*
X547509Y590632D01*
X530664Y607477D01*
X515283Y622858D01*
X508691Y629449D01*
X502832Y635309D01*
X497705Y641168D01*
X493311Y645562D01*
X489649Y649224D01*
X486719Y652154D01*
X485254Y653619D01*
X484522Y654351D01*
X477198Y662408D01*
X470606Y669732D01*
X467677Y671929D01*
X465479Y674126D01*
X464747Y675591D01*
X464015Y676324D01*
X457423Y685113D01*
X451563Y692437D01*
X449366Y695366D01*
X447169Y697563D01*
X446437Y699028D01*
X445704Y699761D01*
X447901Y702690D01*
X448634Y704155D01*
X450099Y706352D01*
X450831Y707085D01*
X461817Y719536D01*
X472803Y731987D01*
X483057Y742973D01*
X492578Y752494D01*
X500635Y760551D01*
X507227Y767142D01*
X510889Y770804D01*
X512354Y772269D01*
X524804Y783988D01*
X536523Y794974D01*
X548242Y805228D01*
X557763Y814749D01*
X566552Y822073D01*
X573143Y827932D01*
X577538Y831594D01*
X579003Y833059D01*
X589256Y841848D01*
X598778Y849172D01*
X602440Y852102D01*
X605369Y854299D01*
X606834Y855764D01*
X607567Y856496D01*
X618553Y864553D01*
X628074Y871144D01*
X631736Y873342D01*
X634666Y875539D01*
X636863Y876271D01*
X637595Y877004D01*
X643455Y880666D01*
X648581Y882863D01*
X653708Y884328D01*
X657370Y885060D01*
X661032D01*
X663962D01*
X665427Y884328D01*
X666159D01*
X671286Y882863D01*
X676413Y880666D01*
X684470Y874806D01*
X688132Y871877D01*
X690329Y868947D01*
X691794Y867482D01*
X692526Y866750D01*
X697653Y860891D01*
X701315Y854299D01*
X704245Y848440D01*
X706442Y842580D01*
X707907Y838186D01*
X709371Y834524D01*
X710104Y831594D01*
Y830862D01*
X711569Y816214D01*
X712301Y808890D01*
X711569Y803030D01*
Y793509D01*
X710836Y790579D01*
Y789847D01*
X709371Y783255D01*
X707174Y778128D01*
X705709Y774466D01*
X704977Y773734D01*
Y773002D01*
X700583Y767875D01*
X695456Y764213D01*
X691794Y762748D01*
X691061Y762015D01*
X690329D01*
X685934Y760551D01*
X682272Y759818D01*
X679343Y759086D01*
X677878D01*
X673483Y759818D01*
X669089Y761283D01*
X666159Y762748D01*
X665427Y763480D01*
X661765Y766410D01*
X660300Y769340D01*
X659568Y772269D01*
Y781790D01*
X660300Y784720D01*
Y785452D01*
X661765Y789115D01*
X662497Y792044D01*
X663230Y794241D01*
Y794974D01*
X663962Y798636D01*
X664695Y802298D01*
Y805228D01*
X663962Y811087D01*
X661765Y815481D01*
X659568Y817679D01*
X658835Y818411D01*
X654441Y819876D01*
X649314D01*
X645652D01*
X644920Y819143D01*
X644187D01*
X639060Y816214D01*
X634666Y813284D01*
X626609Y805228D01*
X623680Y800833D01*
X622215Y797904D01*
X620750Y795706D01*
X620018Y794974D01*
X616356Y788382D01*
X614158Y781790D01*
X612693Y775931D01*
X611229Y771537D01*
Y761283D01*
X612693Y754691D01*
X614158Y748832D01*
X616356Y743705D01*
X619285Y739311D01*
X621482Y735649D01*
X622947Y732719D01*
X624412Y731254D01*
X625144Y730522D01*
X630271Y726127D01*
X635398Y723198D01*
X640525Y720268D01*
X644920Y718071D01*
X649314Y716606D01*
X652976Y715874D01*
X655173Y715141D01*
X655906D01*
X665427Y714409D01*
X674216D01*
X683005D01*
X690329Y715141D01*
X696188Y715874D01*
X700583Y717338D01*
X704245Y718071D01*
X704977D01*
X713766Y721001D01*
X721822Y723930D01*
X729146Y727592D01*
X736471Y731254D01*
X741598Y734184D01*
X745992Y737113D01*
X748922Y738578D01*
X749654Y739311D01*
X753316Y742240D01*
X755513Y745170D01*
X756978Y747367D01*
Y748100D01*
X756246Y751762D01*
X754781Y755424D01*
X753316Y758353D01*
X752584Y759086D01*
X747457Y767875D01*
X743062Y775931D01*
X740133Y783988D01*
X737935Y791312D01*
X737203Y797171D01*
X736471Y801565D01*
X735738Y805228D01*
Y814749D01*
X737203Y824270D01*
X738668Y832327D01*
X740133Y839651D01*
X742330Y846243D01*
X743795Y851369D01*
X744527Y854299D01*
X745259Y855764D01*
X749654Y863820D01*
X754048Y870412D01*
X757710Y874806D01*
X759175Y875539D01*
Y876271D01*
X762837Y879201D01*
X766499Y881398D01*
X773823Y884328D01*
X777486D01*
X780415Y885060D01*
X781880D01*
X782612D01*
X787007D01*
X791401Y883595D01*
X798725Y881398D01*
X803120Y878468D01*
X803852Y877736D01*
X804585Y877004D01*
X811176Y870412D01*
X816303Y864553D01*
X819233Y859426D01*
X820698Y858693D01*
Y857961D01*
X821430Y857229D01*
Y856496D01*
X822162Y855764D01*
Y855031D01*
X827289Y841116D01*
X828754Y834524D01*
X830219Y828665D01*
X831684Y824270D01*
Y820608D01*
X832416Y817679D01*
Y816946D01*
X833149Y809622D01*
Y796439D01*
X832416Y789847D01*
X831684Y784720D01*
X830951Y781058D01*
X830219Y778128D01*
Y777396D01*
X829487Y773002D01*
Y764213D01*
X830219Y761283D01*
Y760551D01*
X831684Y759086D01*
X833149Y757621D01*
X838276Y754691D01*
X843402Y752494D01*
X844867Y751762D01*
X845600D01*
X855853Y748832D01*
X866107Y746635D01*
X875628Y744438D01*
X883685Y743705D01*
X891009Y742973D01*
X896868Y742240D01*
X899798D01*
X901263D01*
X921770Y743705D01*
X931291Y744438D01*
X939348Y745902D01*
X946672Y747367D01*
X952531Y748100D01*
X955461Y749565D01*
X956926D01*
X970842Y753959D01*
X976701Y756889D01*
X981828Y759818D01*
X986222Y762015D01*
X989152Y764213D01*
X991349Y764945D01*
X992081Y765677D01*
X997208Y770072D01*
X1002335Y775199D01*
X1009659Y784720D01*
X1012589Y789115D01*
X1014786Y792777D01*
X1015518Y794974D01*
X1016251Y795706D01*
X1019181Y803030D01*
X1021378Y809622D01*
X1023575Y824270D01*
X1024307Y837454D01*
X1023575Y849904D01*
X1021378Y860891D01*
X1019181Y868947D01*
X1018448Y871877D01*
X1017716Y874074D01*
X1016983Y875539D01*
Y876271D01*
X1010392Y891652D01*
X1001603Y904103D01*
X992814Y915089D01*
X984025Y923145D01*
X975968Y929737D01*
X969377Y934132D01*
X964250Y936329D01*
X963517Y937061D01*
X962785D01*
X956926Y939258D01*
X951799Y939991D01*
X943010Y940723D01*
X939348Y939991D01*
X936418D01*
X934954Y939258D01*
X934221D01*
X929827Y937794D01*
X925432Y934864D01*
X918840Y929737D01*
X915178Y924610D01*
X913714Y923145D01*
Y922413D01*
X911516Y917286D01*
X910784Y912892D01*
X910051Y904103D01*
Y898243D01*
X910784Y896779D01*
Y896046D01*
X912981Y891652D01*
X915178Y887257D01*
X921770Y879933D01*
X924700Y877736D01*
X926897Y875539D01*
X928362Y874806D01*
X929094Y874074D01*
X933489Y871144D01*
X937883Y868947D01*
X940813Y866750D01*
X941545Y866018D01*
X945940Y863088D01*
X949602Y860891D01*
X951799Y858693D01*
X952531Y857961D01*
X958391Y852834D01*
X962785Y847707D01*
X964982Y843313D01*
X965715Y842580D01*
Y841848D01*
X967179Y838186D01*
X967912Y834524D01*
Y827932D01*
X967179Y825003D01*
Y822805D01*
X966447Y821341D01*
Y820608D01*
X962785Y812552D01*
X958391Y805960D01*
X954728Y802298D01*
X953996Y800833D01*
X953264D01*
X945940Y796439D01*
X937883Y793509D01*
X934954Y792777D01*
X932024D01*
X930559Y792044D01*
X929827D01*
X921038D01*
X913714Y792777D01*
X910784Y793509D01*
X908587Y794241D01*
X907122Y794974D01*
X906389D01*
X898333Y798636D01*
X891741Y802298D01*
X887347Y805960D01*
X886615Y807425D01*
X885882D01*
X875628Y816946D01*
X867572Y826467D01*
X860980Y835989D01*
X855853Y844778D01*
X851459Y852834D01*
X849262Y858693D01*
X847797Y862355D01*
X847064Y863820D01*
X844135Y875539D01*
X841937Y887990D01*
X841205Y898976D01*
Y909962D01*
X841937Y918751D01*
X842670Y926075D01*
Y928272D01*
X843402Y930470D01*
Y931934D01*
X847797Y945850D01*
X852924Y957569D01*
X859515Y967822D01*
X866107Y975879D01*
X872699Y982471D01*
X877825Y987597D01*
X881488Y990527D01*
X882952Y991260D01*
X891009Y995654D01*
X899065Y998584D01*
X906389Y1001513D01*
X912981Y1002978D01*
X918840Y1003710D01*
X923235Y1004443D01*
X926164D01*
X926897D01*
X935686Y1003710D01*
D02*
G37*
%LPC*%
G36*
X783345Y845510D02*
X781148Y844778D01*
X780415D01*
X776753Y842580D01*
X774556Y839651D01*
X773091Y837454D01*
X772359Y835989D01*
X771626Y831594D01*
X770894Y826467D01*
X772359Y817679D01*
X773091Y814016D01*
X773823Y811087D01*
X774556Y808890D01*
Y808157D01*
X779683Y797171D01*
X782612Y792777D01*
X785542Y789115D01*
X788472Y786185D01*
X789937Y783988D01*
X791401Y783255D01*
X792134Y782523D01*
X795796Y786917D01*
X797993Y792044D01*
X799458Y797171D01*
X800923Y802298D01*
X801655Y805960D01*
Y812552D01*
X800923Y819143D01*
X800190Y825003D01*
X797993Y829397D01*
X796528Y833792D01*
X794331Y836721D01*
X792134Y838918D01*
X791401Y840383D01*
X790669Y841116D01*
X788472Y843313D01*
X787007Y844045D01*
X783345Y845510D01*
D02*
G37*
G36*
X557030Y759086D02*
X548242Y750297D01*
X540917Y742240D01*
X537255Y739311D01*
X535058Y736381D01*
X533593Y734916D01*
X532861Y734184D01*
X523340Y724663D01*
X514551Y716606D01*
X511621Y713676D01*
X508691Y710747D01*
X507227Y709282D01*
X506494Y708550D01*
X504297Y705620D01*
Y701226D01*
X507227Y696831D01*
X507959Y695366D01*
X508691Y694634D01*
X517480Y685845D01*
X525537Y677788D01*
X528466Y674126D01*
X531396Y671929D01*
X532861Y670464D01*
X533593Y669732D01*
X543115Y659478D01*
X551903Y650689D01*
X555566Y647027D01*
X558495Y644098D01*
X559960Y641900D01*
X560692Y641168D01*
X562157Y648492D01*
X564355Y655816D01*
X565819Y661675D01*
X568017Y666070D01*
X569481Y670464D01*
X570946Y673394D01*
X572411Y674859D01*
Y675591D01*
X579003Y685113D01*
X586327Y693169D01*
X589256Y696099D01*
X592186Y698296D01*
X593651Y699028D01*
X594383Y699761D01*
X587059Y710747D01*
X581200Y720268D01*
X579003Y723930D01*
X576805Y726860D01*
X576073Y728325D01*
X575341Y729057D01*
X568749Y740043D01*
X562890Y749565D01*
X560692Y753226D01*
X558495Y756156D01*
X557763Y758353D01*
X557030Y759086D01*
D02*
G37*
G36*
X803120Y718071D02*
X801655D01*
X800923D01*
X798725D01*
X797261D01*
X796528Y717338D01*
X795796D01*
X785542Y712212D01*
X776753Y708550D01*
X773823Y706352D01*
X770894Y705620D01*
X769429Y704155D01*
X768697D01*
X758443Y699028D01*
X748922Y693901D01*
X745259Y692437D01*
X742330Y690972D01*
X740865Y689507D01*
X740133D01*
X743795Y686577D01*
X747457Y684380D01*
X749654Y682915D01*
X750386Y682183D01*
X754048Y679986D01*
X757710Y677788D01*
X759908Y676324D01*
X760640Y675591D01*
X774556Y664605D01*
X780415Y659478D01*
X785542Y654351D01*
X789204Y649957D01*
X792134Y646295D01*
X794331Y644098D01*
X795063Y643365D01*
X800190Y636041D01*
X804585Y628717D01*
X808247Y621393D01*
X811176Y614801D01*
X813374Y608942D01*
X814838Y604548D01*
X815571Y601618D01*
Y600153D01*
X817036Y589167D01*
X817768Y579646D01*
Y575984D01*
X817036Y573054D01*
Y570857D01*
X816303Y565730D01*
X814838Y560603D01*
X810444Y551814D01*
X808247Y548152D01*
X806049Y545222D01*
X805317Y543758D01*
X804585Y543025D01*
X796528Y535701D01*
X789204Y530574D01*
X785542Y529109D01*
X783345Y527645D01*
X781880Y526912D01*
X781148D01*
X771626Y524715D01*
X762837Y523983D01*
X759175D01*
X756246Y524715D01*
X754048D01*
X753316D01*
X747457Y526180D01*
X743062Y528377D01*
X739400Y531307D01*
X735738Y534236D01*
X733541Y536433D01*
X732076Y538631D01*
X730611Y540095D01*
Y540828D01*
X728414Y545955D01*
X726949Y551082D01*
X726217Y555476D01*
Y563533D01*
X726949Y566462D01*
X727682Y568660D01*
Y569392D01*
X728414Y573054D01*
X729146Y574519D01*
X730611Y577448D01*
X731344Y578913D01*
X734273Y586237D01*
X735738Y594294D01*
X736471Y601618D01*
X735738Y608942D01*
X734273Y614801D01*
X732809Y619196D01*
X732076Y622858D01*
X731344Y623590D01*
X726949Y632379D01*
X721822Y639703D01*
X716696Y645562D01*
X712301Y650689D01*
X707907Y653619D01*
X704245Y656548D01*
X702047Y657281D01*
X701315Y658013D01*
X692526Y661675D01*
X685202Y663873D01*
X682272Y664605D01*
X680075Y665338D01*
X678610Y666070D01*
X677878D01*
X669089Y667535D01*
X661765D01*
X658103D01*
X655906D01*
X654441D01*
X653708D01*
X644920Y666070D01*
X637595Y663140D01*
X631004Y659478D01*
X625877Y655816D01*
X621482Y651422D01*
X618553Y648492D01*
X617088Y645562D01*
X616356Y644830D01*
X612693Y636773D01*
X610496Y629449D01*
X609764Y622125D01*
X610496Y615534D01*
X611229Y609674D01*
X611961Y604548D01*
X613426Y601618D01*
Y600886D01*
X616356Y595759D01*
X619285Y590632D01*
X621482Y587702D01*
X622215Y586237D01*
X625877Y581110D01*
X628806Y576716D01*
X631004Y573786D01*
X631736Y572322D01*
X646384Y554744D01*
X661765Y538631D01*
X677145Y524715D01*
X690329Y512264D01*
X702780Y502010D01*
X707907Y498348D01*
X712301Y494686D01*
X715231Y492489D01*
X718160Y490292D01*
X719625Y489559D01*
X720358Y488827D01*
X738668Y477841D01*
X757710Y468319D01*
X776021Y460263D01*
X793598Y453671D01*
X800923Y450742D01*
X808247Y448544D01*
X814838Y447080D01*
X819965Y445615D01*
X824360Y444150D01*
X827289Y443418D01*
X829487Y442685D01*
X830219D01*
X841937Y440488D01*
X852924Y439023D01*
X863177Y438291D01*
X871966Y437558D01*
X880023D01*
X885882Y438291D01*
X889544D01*
X891009D01*
X901995Y439756D01*
X912981Y441953D01*
X922503Y444882D01*
X931291Y447812D01*
X938615Y450742D01*
X944475Y453671D01*
X947404Y455136D01*
X948869Y455868D01*
X958391Y461728D01*
X967179Y467587D01*
X975236Y472714D01*
X981828Y478573D01*
X987687Y482968D01*
X991349Y486630D01*
X994279Y488827D01*
X995011Y489559D01*
X1002335Y497616D01*
X1007462Y506405D01*
X1012589Y514461D01*
X1016251Y522518D01*
X1018448Y529842D01*
X1019913Y534969D01*
X1021378Y538631D01*
Y540095D01*
X1024307Y555476D01*
X1025040Y569392D01*
X1024307Y581843D01*
X1022842Y592097D01*
X1020645Y600886D01*
X1018448Y607477D01*
X1016983Y611872D01*
X1016251Y613336D01*
X1010392Y624323D01*
X1003067Y634576D01*
X995011Y644098D01*
X987687Y651422D01*
X980363Y658013D01*
X974503Y662408D01*
X970842Y665338D01*
X970109Y666070D01*
X969377D01*
X963517Y668999D01*
X957658Y671197D01*
X952531Y671929D01*
X948137Y672662D01*
X943742D01*
X940813D01*
X938615Y671929D01*
X937883D01*
X932756Y670464D01*
X928362Y668267D01*
X921038Y662408D01*
X918840Y659478D01*
X916643Y656548D01*
X915911Y655084D01*
X915178Y654351D01*
X913714Y649957D01*
X912249Y645562D01*
X911516Y638238D01*
Y634576D01*
X912249Y632379D01*
Y630182D01*
X913714Y625787D01*
X915911Y622125D01*
X920305Y615534D01*
X924700Y611139D01*
X925432Y610407D01*
X926164Y609674D01*
X931291Y606745D01*
X935686Y603815D01*
X938615Y601618D01*
X940080Y600886D01*
X945207Y597223D01*
X948869Y594294D01*
X951799Y592097D01*
X953264Y591364D01*
X959123Y586237D01*
X963517Y581110D01*
X966447Y577448D01*
X967179Y576716D01*
Y575984D01*
X968644Y572322D01*
X969377Y569392D01*
X970109Y562800D01*
X969377Y559871D01*
Y557673D01*
X968644Y556208D01*
Y555476D01*
X964982Y546687D01*
X961320Y540095D01*
X957658Y536433D01*
X956926Y534969D01*
X956193D01*
X948869Y529842D01*
X942278Y526912D01*
X938615Y526180D01*
X936418Y525447D01*
X934954Y524715D01*
X934221D01*
X926164Y523983D01*
X918840D01*
X916643Y524715D01*
X914446D01*
X912981Y525447D01*
X912249D01*
X904925Y528377D01*
X898333Y531307D01*
X893939Y534236D01*
X893206Y534969D01*
X892474D01*
X881488Y543758D01*
X872699Y554011D01*
X865375Y564265D01*
X858783Y573786D01*
X854389Y583308D01*
X851459Y590632D01*
X849994Y593561D01*
X849262Y595759D01*
X848529Y596491D01*
Y597223D01*
X846332Y605280D01*
X844867Y612604D01*
X844135Y627252D01*
X845600Y640435D01*
X848529Y652154D01*
X851459Y662408D01*
X854389Y669732D01*
X855853Y672662D01*
X857318Y674859D01*
X858051Y675591D01*
Y676324D01*
X860980Y680718D01*
X861713Y682183D01*
Y682915D01*
X863910Y687310D01*
X865375Y688774D01*
Y689507D01*
X853656Y694634D01*
X848529Y696831D01*
X844135Y699028D01*
X840473Y701226D01*
X837543Y701958D01*
X836078Y703423D01*
X835346D01*
X825092Y708550D01*
X815571Y712944D01*
X811909Y714409D01*
X808979Y715874D01*
X807514Y716606D01*
X806782D01*
X803120Y718071D01*
D02*
G37*
%LPD*%
M02*
