G04*
G04 #@! TF.GenerationSoftware,Altium Limited,Altium Designer,18.1.7 (191)*
G04*
G04 Layer_Color=32896*
%FSLAX44Y44*%
%MOMM*%
G71*
G01*
G75*
G36*
X936389Y1004024D02*
X940209Y1003677D01*
X944028Y1002982D01*
X947153Y1002288D01*
X949584Y1001593D01*
X950973Y1001246D01*
X951667Y1000899D01*
X961042Y998121D01*
X970070Y994996D01*
X978055Y991871D01*
X985000Y988399D01*
X988125Y987010D01*
X990903Y985621D01*
X993333Y984233D01*
X995069Y983191D01*
X996805Y982149D01*
X997847Y981455D01*
X998541Y980760D01*
X998889D01*
X1006875Y975205D01*
X1014166Y969649D01*
X1020416Y963747D01*
X1026319Y958539D01*
X1030833Y953677D01*
X1034305Y949858D01*
X1035694Y948469D01*
X1036735Y947428D01*
X1037083Y946733D01*
X1037430Y946386D01*
X1045763Y935969D01*
X1052707Y925553D01*
X1058610Y915483D01*
X1063124Y906109D01*
X1064860Y901942D01*
X1066596Y898122D01*
X1067985Y894650D01*
X1069027Y891873D01*
X1069721Y889442D01*
X1070415Y887706D01*
X1070763Y886664D01*
Y886317D01*
X1073540Y874165D01*
X1075624Y862012D01*
X1076665Y850207D01*
X1077013Y844998D01*
X1077360Y839790D01*
Y835276D01*
X1077707Y831109D01*
Y824165D01*
X1077360Y821387D01*
Y817915D01*
X1075971Y807151D01*
X1074235Y797082D01*
X1072499Y787707D01*
X1070068Y779721D01*
X1069027Y776249D01*
X1068332Y773124D01*
X1067291Y770346D01*
X1066596Y767916D01*
X1065902Y765833D01*
X1065207Y764444D01*
X1064860Y763749D01*
Y763402D01*
X1060346Y754027D01*
X1055138Y744999D01*
X1049930Y737361D01*
X1044374Y730416D01*
X1041944Y727291D01*
X1039860Y724861D01*
X1037777Y722430D01*
X1035694Y720347D01*
X1034305Y718958D01*
X1033263Y717916D01*
X1032569Y717222D01*
X1032222Y716875D01*
X1029097Y713750D01*
X1026319Y711319D01*
X1024236Y709583D01*
X1023888Y709236D01*
X1023541Y708889D01*
X1020416Y706458D01*
X1017986Y704028D01*
X1016249Y702292D01*
X1015555Y701944D01*
Y701597D01*
X1016249Y699861D01*
X1016944Y698472D01*
Y697430D01*
X1017638Y696389D01*
X1017986Y695694D01*
X1018333Y695000D01*
X1020069Y693611D01*
X1021805Y692222D01*
X1023194Y691181D01*
X1023541Y690833D01*
X1025277Y688750D01*
X1026666Y687014D01*
X1028055Y685972D01*
X1028402Y685625D01*
X1036735Y676945D01*
X1044027Y668264D01*
X1050277Y660278D01*
X1055485Y652639D01*
X1057568Y649167D01*
X1059305Y646042D01*
X1061041Y643264D01*
X1062430Y640834D01*
X1063471Y639098D01*
X1064166Y637362D01*
X1064860Y636667D01*
Y636320D01*
X1069374Y625904D01*
X1072499Y615487D01*
X1074929Y605418D01*
X1076318Y596390D01*
X1077013Y592224D01*
X1077360Y588404D01*
X1077707Y584932D01*
Y582154D01*
X1078054Y579724D01*
Y576599D01*
X1077707Y562363D01*
X1076665Y548474D01*
X1075624Y542224D01*
X1074582Y536321D01*
X1073540Y530419D01*
X1072499Y525210D01*
X1071457Y520349D01*
X1070068Y516183D01*
X1069027Y512363D01*
X1068332Y509238D01*
X1067291Y506808D01*
X1066943Y504725D01*
X1066249Y503683D01*
Y503336D01*
X1063818Y497086D01*
X1061388Y490836D01*
X1055138Y479378D01*
X1048541Y468614D01*
X1045069Y464100D01*
X1041596Y459586D01*
X1038472Y455420D01*
X1035347Y451947D01*
X1032916Y448822D01*
X1030485Y446045D01*
X1028402Y443961D01*
X1027013Y442573D01*
X1025972Y441531D01*
X1025624Y441184D01*
X1016944Y433198D01*
X1007916Y426253D01*
X999236Y419656D01*
X990208Y414101D01*
X981875Y409240D01*
X973542Y404726D01*
X965556Y401254D01*
X957917Y398129D01*
X950973Y395351D01*
X944723Y393268D01*
X939167Y391531D01*
X934306Y390143D01*
X930487Y389101D01*
X927709Y388406D01*
X925973Y388059D01*
X925278D01*
X918681Y387018D01*
X912431Y386323D01*
X906529Y385976D01*
X901320Y385629D01*
X896806Y385282D01*
X893682D01*
X892293D01*
X891251D01*
X890904D01*
X890557D01*
X876321Y385976D01*
X862432Y387365D01*
X849238Y389101D01*
X843335Y390143D01*
X837432Y391531D01*
X832224Y392573D01*
X827363Y393615D01*
X823196Y394656D01*
X819724Y395698D01*
X816599Y396393D01*
X814516Y397087D01*
X813127Y397434D01*
X812780D01*
X800627Y401948D01*
X789169Y406809D01*
X778752Y411670D01*
X773891Y413753D01*
X769378Y416184D01*
X765211Y418267D01*
X761392Y420351D01*
X758267Y422087D01*
X755489Y423475D01*
X753406Y424864D01*
X751669Y425906D01*
X750628Y426253D01*
X750281Y426600D01*
X739517Y433545D01*
X729100Y440489D01*
X719725Y447086D01*
X711045Y452989D01*
X707225Y455767D01*
X703753Y458197D01*
X700976Y460281D01*
X698545Y462364D01*
X696462Y463753D01*
X695073Y464795D01*
X694031Y465489D01*
X693684Y465836D01*
X672851Y481808D01*
X662782Y489794D01*
X653059Y497780D01*
X643685Y505419D01*
X635004Y513058D01*
X626324Y520002D01*
X618685Y526599D01*
X611393Y532849D01*
X604796Y538405D01*
X599241Y543613D01*
X594380Y547780D01*
X590560Y551252D01*
X587783Y553682D01*
X586046Y555071D01*
X585352Y555766D01*
X566255Y573474D01*
X547852Y591182D01*
X539172Y599515D01*
X530839Y607848D01*
X523200Y615487D01*
X515908Y622779D01*
X508964Y629376D01*
X503061Y635626D01*
X497853Y641181D01*
X493339Y645695D01*
X489867Y649167D01*
X487089Y651945D01*
X485700Y653681D01*
X485006Y654376D01*
X477714Y662709D01*
X474242Y666528D01*
X471117Y670000D01*
X468340Y672778D01*
X466256Y674861D01*
X464867Y676598D01*
X464520Y676945D01*
X457576Y685278D01*
X454451Y689445D01*
X451673Y692917D01*
X449243Y696042D01*
X447159Y698125D01*
X445770Y699861D01*
X445423Y700208D01*
X446465Y701944D01*
X447506Y703333D01*
X447854Y704375D01*
X448201Y704722D01*
X448895Y705764D01*
X449590Y706805D01*
X450284Y707153D01*
X450631Y707500D01*
X461742Y720000D01*
X472853Y732152D01*
X483270Y743263D01*
X488478Y748124D01*
X492992Y752985D01*
X497159Y757152D01*
X500978Y760971D01*
X504450Y764444D01*
X507228Y767221D01*
X509658Y769652D01*
X511395Y771388D01*
X512436Y772430D01*
X512783Y772777D01*
X524936Y784235D01*
X537089Y795346D01*
X548200Y805762D01*
X553408Y810276D01*
X558269Y814790D01*
X562783Y818610D01*
X566949Y822429D01*
X570422Y825554D01*
X573547Y828332D01*
X575977Y830415D01*
X578060Y831804D01*
X579102Y832846D01*
X579449Y833193D01*
X584658Y837707D01*
X589866Y842220D01*
X594727Y846040D01*
X598894Y849512D01*
X602713Y852290D01*
X605491Y854720D01*
X607227Y856109D01*
X607921Y856456D01*
X613477Y860623D01*
X618685Y864442D01*
X623893Y868262D01*
X628407Y871387D01*
X632226Y873817D01*
X635351Y875901D01*
X637087Y877290D01*
X637782Y877637D01*
X643685Y881109D01*
X648893Y883192D01*
X654101Y884581D01*
X658268Y885275D01*
X661740Y885623D01*
X664518Y885275D01*
X665907Y884928D01*
X666601D01*
X671809Y883192D01*
X676670Y880762D01*
X681184Y877984D01*
X685004Y874859D01*
X688476Y872081D01*
X690906Y869651D01*
X692295Y867915D01*
X692990Y867220D01*
X697503Y860970D01*
X701323Y854720D01*
X704448Y848470D01*
X706878Y842915D01*
X708267Y838054D01*
X709656Y834582D01*
X710003Y833193D01*
Y832151D01*
X710350Y831457D01*
Y831109D01*
X711392Y823818D01*
X712086Y816526D01*
Y803332D01*
X711739Y797776D01*
Y795693D01*
X711392Y793610D01*
Y792221D01*
X711045Y791179D01*
Y790138D01*
X709656Y783888D01*
X708614Y781110D01*
X707573Y778680D01*
X706531Y776596D01*
X705837Y774860D01*
X705489Y773819D01*
X705142Y773471D01*
X703059Y770694D01*
X700628Y768263D01*
X698198Y766180D01*
X695767Y764791D01*
X693684Y763402D01*
X691948Y762708D01*
X690906Y762360D01*
X690559Y762013D01*
X686392Y760277D01*
X682573Y759235D01*
X680837D01*
X679448Y758888D01*
X678754D01*
X678406D01*
X675976Y759235D01*
X673545Y759583D01*
X669726Y761319D01*
X667990Y762013D01*
X666948Y762708D01*
X666254Y763055D01*
X665907Y763402D01*
X663823Y765138D01*
X662434Y766874D01*
X661393Y768610D01*
X660698Y769999D01*
X660351Y771388D01*
X660004Y772430D01*
Y781805D01*
X660351Y783541D01*
Y784930D01*
X660698Y785624D01*
Y785971D01*
X662087Y789096D01*
X662782Y792221D01*
X663476Y794652D01*
X663823Y794999D01*
Y795346D01*
X664518Y799165D01*
X665212Y802290D01*
Y808540D01*
X664518Y811318D01*
X663823Y813401D01*
X662434Y815485D01*
X661393Y816873D01*
X660351Y817915D01*
X659657Y818262D01*
X659309Y818610D01*
X657226Y819651D01*
X654796Y820346D01*
X652365D01*
X649934D01*
X647851Y819998D01*
X646115Y819651D01*
X645073Y819304D01*
X644726D01*
X639518Y816526D01*
X635004Y813054D01*
X630838Y809235D01*
X627018Y805068D01*
X624240Y801249D01*
X621810Y798124D01*
X620421Y796040D01*
X620074Y795693D01*
Y795346D01*
X616602Y788749D01*
X614171Y782499D01*
X612435Y776596D01*
X611740Y771735D01*
X611393Y767221D01*
Y761319D01*
X612435Y754722D01*
X614518Y748819D01*
X616602Y743611D01*
X619032Y739097D01*
X621463Y735624D01*
X623546Y732847D01*
X624935Y731458D01*
X625282Y730763D01*
X630143Y726597D01*
X635351Y723125D01*
X640560Y720347D01*
X645768Y718611D01*
X649934Y716875D01*
X653407Y716180D01*
X654796Y715833D01*
X655837Y715486D01*
X656184D01*
X656532D01*
X665907Y714444D01*
X674934D01*
X682920Y714791D01*
X690212Y715486D01*
X693684Y715833D01*
X696462Y716527D01*
X698892Y716875D01*
X700976Y717222D01*
X702712Y717569D01*
X704100Y717916D01*
X704795Y718264D01*
X705142D01*
X713823Y721041D01*
X722156Y724513D01*
X729795Y727986D01*
X736392Y731458D01*
X742294Y734583D01*
X744378Y735972D01*
X746461Y737013D01*
X748197Y738055D01*
X749239Y738749D01*
X749933Y739444D01*
X750281D01*
X752364Y741180D01*
X754100Y742569D01*
X755489Y744305D01*
X756530Y745347D01*
X757225Y747430D01*
X757572Y747777D01*
Y748124D01*
X757225Y749861D01*
X756878Y751597D01*
X755489Y755069D01*
X754447Y756805D01*
X753753Y757847D01*
X753406Y758541D01*
X753058Y758888D01*
X750281Y763402D01*
X747503Y767569D01*
X743336Y776249D01*
X740211Y784235D01*
X738128Y791527D01*
X736739Y797429D01*
X736392Y800207D01*
X736045Y802290D01*
Y804026D01*
X735697Y805415D01*
Y806457D01*
X736045Y815485D01*
X737086Y824165D01*
X738475Y832498D01*
X740558Y840137D01*
X741600Y843609D01*
X742294Y846387D01*
X743336Y849165D01*
X744031Y851595D01*
X744725Y853331D01*
X745419Y854720D01*
X745767Y855415D01*
Y855762D01*
X747850Y859929D01*
X750281Y863748D01*
X752364Y867567D01*
X754794Y870692D01*
X756530Y873123D01*
X758267Y875206D01*
X759308Y876595D01*
X759655Y876942D01*
X763128Y879720D01*
X766600Y881803D01*
X770419Y883539D01*
X774239Y884581D01*
X777711Y885275D01*
X780489Y885623D01*
X782225D01*
X782919D01*
X787780Y885275D01*
X791947Y884234D01*
X795766Y883192D01*
X798891Y881803D01*
X801322Y880067D01*
X803405Y879025D01*
X804446Y877984D01*
X804794Y877637D01*
X811044Y870692D01*
X813821Y867567D01*
X815905Y864790D01*
X817988Y862359D01*
X819377Y860276D01*
X820419Y858887D01*
X820766Y858540D01*
X821113Y857151D01*
X821460Y856804D01*
Y856456D01*
X821807Y855415D01*
X822155Y855068D01*
X825280Y848123D01*
X827363Y841179D01*
X829446Y834582D01*
X830835Y829026D01*
X831877Y824165D01*
X832571Y820346D01*
Y818957D01*
X832918Y817915D01*
Y817221D01*
X833613Y809929D01*
X833960Y802985D01*
X833613Y796388D01*
X832918Y790485D01*
X832224Y785277D01*
X831877Y783193D01*
X831529Y781457D01*
X831182Y780068D01*
Y779027D01*
X830835Y778332D01*
Y777985D01*
X830141Y773124D01*
X829446Y769305D01*
Y764096D01*
X829793Y762360D01*
Y761319D01*
X830141Y760971D01*
Y760624D01*
X831529Y759235D01*
X833613Y757499D01*
X836043Y756110D01*
X838821Y754722D01*
X841599Y753680D01*
X844029Y752638D01*
X845418Y752291D01*
X846113Y751944D01*
X856529Y748819D01*
X866599Y746388D01*
X875626Y744652D01*
X884307Y743611D01*
X887779Y742916D01*
X891251D01*
X894029Y742569D01*
X896459Y742222D01*
X898543D01*
X899931D01*
X900973D01*
X901320D01*
X911737Y742569D01*
X922153Y743263D01*
X931528Y744652D01*
X939862Y746041D01*
X943681Y746388D01*
X947153Y747083D01*
X949931Y747777D01*
X952361Y748472D01*
X954445Y748819D01*
X955834Y749166D01*
X956875Y749513D01*
X957222D01*
X964167Y751597D01*
X970764Y754374D01*
X976667Y757152D01*
X981875Y759930D01*
X986389Y762360D01*
X989514Y764444D01*
X991597Y765833D01*
X992291Y766180D01*
X997847Y770694D01*
X1002708Y775555D01*
X1006875Y780416D01*
X1010347Y785277D01*
X1013124Y789443D01*
X1015208Y792915D01*
X1015902Y794304D01*
X1016597Y795346D01*
X1016944Y795693D01*
Y796040D01*
X1019722Y802985D01*
X1021805Y810276D01*
X1023541Y817221D01*
X1024236Y824512D01*
X1024930Y831109D01*
Y838054D01*
X1024583Y844304D01*
X1023888Y850554D01*
X1022847Y856109D01*
X1022152Y861317D01*
X1021111Y865831D01*
X1020069Y869651D01*
X1019027Y872776D01*
X1018333Y874859D01*
X1017986Y876595D01*
X1017638Y876942D01*
X1014166Y884928D01*
X1010694Y891873D01*
X1006527Y898470D01*
X1002014Y904720D01*
X997500Y910275D01*
X992986Y915136D01*
X988472Y919303D01*
X984305Y923122D01*
X979792Y926594D01*
X975972Y929372D01*
X972500Y931803D01*
X969375Y933886D01*
X966597Y935275D01*
X964861Y936317D01*
X963472Y936664D01*
X963125Y937011D01*
X957570Y939094D01*
X952361Y940136D01*
X947500Y940483D01*
X943334D01*
X939514Y940136D01*
X937084Y939789D01*
X935348Y939442D01*
X934653Y939094D01*
X929792Y937358D01*
X925626Y934928D01*
X922153Y932150D01*
X919028Y929372D01*
X916945Y926942D01*
X915209Y924511D01*
X914167Y923122D01*
X913820Y922428D01*
X911737Y917567D01*
X910695Y913053D01*
X910001Y908539D01*
X909654Y904720D01*
X910001Y901247D01*
X910348Y898817D01*
X910695Y897081D01*
Y896386D01*
X912778Y891525D01*
X915556Y887359D01*
X918681Y883539D01*
X921806Y880414D01*
X924931Y877984D01*
X927362Y876248D01*
X929098Y874859D01*
X929792Y874512D01*
X934306Y871734D01*
X938126Y869303D01*
X939514Y868262D01*
X940903Y867220D01*
X941598Y866873D01*
X941945Y866526D01*
X946112Y863748D01*
X949584Y861317D01*
X950973Y860276D01*
X952014Y859234D01*
X952709Y858887D01*
X953056Y858540D01*
X956181Y855762D01*
X958611Y852984D01*
X961042Y850207D01*
X962778Y847429D01*
X964167Y845345D01*
X965209Y843609D01*
X965556Y842220D01*
X965903Y841873D01*
X967292Y838401D01*
X967986Y834582D01*
X968333Y831109D01*
X967986Y827637D01*
Y824859D01*
X967292Y822776D01*
X966945Y821387D01*
Y820693D01*
X965209Y816526D01*
X963125Y812707D01*
X960695Y809235D01*
X958611Y806457D01*
X956875Y804374D01*
X955139Y802638D01*
X954098Y801596D01*
X953750Y801249D01*
X949931Y798818D01*
X946112Y796735D01*
X942292Y795346D01*
X938473Y794304D01*
X935348Y793263D01*
X932917Y792915D01*
X931181Y792568D01*
X930487D01*
X925973Y792221D01*
X921459Y792568D01*
X917292Y792915D01*
X913820Y793610D01*
X910695Y793957D01*
X908612Y794652D01*
X907223Y795346D01*
X906529D01*
X902362Y797082D01*
X898543Y798818D01*
X895070Y800901D01*
X892293Y802985D01*
X889515Y805068D01*
X887779Y806457D01*
X886390Y807499D01*
X886043Y807846D01*
X880835Y812707D01*
X875973Y817221D01*
X871807Y822082D01*
X867987Y826943D01*
X864515Y831804D01*
X861043Y836665D01*
X858265Y841179D01*
X855835Y845345D01*
X853752Y849512D01*
X852015Y852984D01*
X850627Y856456D01*
X849585Y859234D01*
X848543Y861317D01*
X847849Y863054D01*
X847502Y864095D01*
Y864442D01*
X845766Y870345D01*
X844377Y876248D01*
X842641Y888053D01*
X841946Y899511D01*
Y909928D01*
X842293Y914789D01*
X842641Y918956D01*
X842988Y922775D01*
X843335Y925900D01*
Y928678D01*
X843682Y930414D01*
X844029Y931803D01*
Y932150D01*
X845766Y939442D01*
X847849Y946039D01*
X850627Y952289D01*
X853404Y957844D01*
X856529Y963400D01*
X860001Y968261D01*
X863474Y972774D01*
X866599Y976594D01*
X869724Y980066D01*
X872849Y983191D01*
X875626Y985621D01*
X878404Y987705D01*
X880487Y989441D01*
X881876Y990482D01*
X882918Y991177D01*
X883265Y991524D01*
X891251Y996038D01*
X899237Y999163D01*
X906529Y1001593D01*
X913473Y1002982D01*
X919376Y1004024D01*
X921806Y1004371D01*
X923889D01*
X925278Y1004718D01*
X926667D01*
X927362D01*
X927709D01*
X931876D01*
X936389Y1004024D01*
D02*
G37*
%LPC*%
G36*
X785350Y844998D02*
X783961D01*
X782572D01*
X781530D01*
X781183Y844651D01*
X780836D01*
X779100Y843957D01*
X777364Y842568D01*
X774933Y839790D01*
X773891Y838401D01*
X773544Y837012D01*
X772850Y836318D01*
Y835971D01*
X771808Y831457D01*
X771461Y826596D01*
X771808Y822082D01*
X772503Y817568D01*
X773197Y814096D01*
X774239Y810971D01*
X774586Y809235D01*
X774933Y808887D01*
Y808540D01*
X777364Y802985D01*
X780141Y797776D01*
X782919Y793610D01*
X785697Y789790D01*
X788475Y787013D01*
X790558Y784930D01*
X791947Y783541D01*
X792294Y783193D01*
X795766Y787707D01*
X798197Y792568D01*
X799933Y797429D01*
X800974Y802290D01*
X801322Y806457D01*
X801669Y809582D01*
Y812707D01*
X801322Y819304D01*
X799933Y824859D01*
X798197Y829721D01*
X796460Y833887D01*
X794377Y837012D01*
X792641Y839443D01*
X791252Y840832D01*
X790905Y841179D01*
X788822Y842915D01*
X787086Y844304D01*
X785350Y844998D01*
D02*
G37*
G36*
X557575Y758888D02*
X548547Y750208D01*
X544380Y746041D01*
X540561Y742222D01*
X537436Y739097D01*
X535005Y736319D01*
X533616Y734930D01*
X532922Y734236D01*
X523200Y725208D01*
X519033Y721041D01*
X514867Y716875D01*
X511742Y713750D01*
X508964Y711319D01*
X507575Y709583D01*
X506881Y708889D01*
X505839Y707500D01*
X504797Y706458D01*
X504450Y705069D01*
Y702292D01*
X504797Y701944D01*
Y701597D01*
X506186Y699167D01*
X507575Y697083D01*
X508617Y695694D01*
X508964Y695000D01*
X517645Y685972D01*
X521811Y681806D01*
X525630Y677639D01*
X529103Y674514D01*
X531533Y672084D01*
X532922Y670348D01*
X533616Y669653D01*
X543339Y659584D01*
X547852Y654723D01*
X552366Y650556D01*
X555838Y646737D01*
X558963Y643959D01*
X560700Y641876D01*
X561394Y641528D01*
Y641181D01*
X562783Y648820D01*
X564519Y655764D01*
X566602Y661667D01*
X568338Y666528D01*
X570074Y670695D01*
X571463Y673820D01*
X572505Y675556D01*
X572852Y676250D01*
X575977Y681111D01*
X579796Y685972D01*
X583269Y689792D01*
X586741Y693611D01*
X589866Y696389D01*
X592296Y698472D01*
X594032Y699861D01*
X594727Y700208D01*
X587783Y710972D01*
X584658Y715833D01*
X581880Y720347D01*
X579449Y724166D01*
X577713Y726944D01*
X576324Y728680D01*
X575977Y729375D01*
X569380Y740138D01*
X566255Y744999D01*
X563477Y749513D01*
X561047Y753333D01*
X559311Y756458D01*
X557922Y758194D01*
X557575Y758888D01*
D02*
G37*
G36*
X798891Y718611D02*
X797502Y718264D01*
X796460Y717916D01*
X796113Y717569D01*
X790905Y715139D01*
X786044Y712708D01*
X781530Y710625D01*
X777364Y708541D01*
X773891Y707153D01*
X771461Y705764D01*
X769725Y705069D01*
X769030Y704722D01*
X758961Y699514D01*
X754100Y697083D01*
X749933Y694653D01*
X746114Y692917D01*
X743336Y691528D01*
X741600Y690486D01*
X740906Y690139D01*
X744378Y687014D01*
X747850Y684931D01*
X749239Y683889D01*
X749933Y683195D01*
X750628Y682847D01*
X750975D01*
X754794Y680070D01*
X757919Y677986D01*
X759308Y677292D01*
X760350Y676598D01*
X760697Y676250D01*
X761044D01*
X768336Y670695D01*
X774933Y665139D01*
X780489Y659584D01*
X785697Y654376D01*
X789863Y650209D01*
X792988Y646737D01*
X794030Y645348D01*
X794724Y644306D01*
X795419Y643959D01*
Y643612D01*
X800627Y636320D01*
X805141Y629029D01*
X808613Y622084D01*
X811391Y615140D01*
X813127Y609237D01*
X813821Y606807D01*
X814516Y604723D01*
X814863Y602987D01*
X815210Y601598D01*
X815557Y600904D01*
Y600557D01*
X816599Y595001D01*
X817294Y589446D01*
X817641Y584238D01*
Y576251D01*
X817294Y573126D01*
X816946Y571390D01*
Y570696D01*
X815905Y565488D01*
X814516Y560279D01*
X812432Y555766D01*
X810349Y551599D01*
X808266Y548127D01*
X806530Y545696D01*
X805141Y543960D01*
X804794Y543266D01*
X800974Y539099D01*
X796808Y535974D01*
X792988Y533196D01*
X789516Y530766D01*
X786391Y529377D01*
X783613Y527988D01*
X782225Y527641D01*
X781530Y527294D01*
X776669Y525905D01*
X771808Y525210D01*
X767294Y524516D01*
X763128D01*
X759308Y524863D01*
X756183D01*
X754447Y525210D01*
X754100D01*
X753753D01*
X748197Y526599D01*
X743336Y529030D01*
X739517Y531460D01*
X736045Y534238D01*
X733614Y537016D01*
X731878Y539099D01*
X730836Y540488D01*
X730489Y541182D01*
X728059Y546044D01*
X726670Y550905D01*
X725975Y555766D01*
Y559932D01*
X726322Y563752D01*
X727017Y566877D01*
X727364Y568613D01*
X727711Y569307D01*
X728406Y571390D01*
X728753Y573126D01*
X729100Y574168D01*
Y574515D01*
X730142Y575904D01*
X730836Y577293D01*
X731183Y578335D01*
Y578682D01*
X733267Y582501D01*
X734656Y586668D01*
X735697Y590487D01*
X736045Y594307D01*
X736392Y601946D01*
X735697Y608890D01*
X734308Y614793D01*
X733614Y617570D01*
X732920Y619654D01*
X732225Y621390D01*
X731531Y622779D01*
X731183Y623473D01*
Y623820D01*
X729100Y628334D01*
X726670Y632501D01*
X724586Y636320D01*
X722156Y639792D01*
X717295Y645695D01*
X712434Y650556D01*
X708267Y654028D01*
X704795Y656459D01*
X703406Y657153D01*
X702364Y657848D01*
X702017Y658195D01*
X701670D01*
X692990Y661667D01*
X689170Y662709D01*
X685698Y664098D01*
X682573Y664792D01*
X680490Y665487D01*
X679101Y666181D01*
X678406D01*
X669726Y667223D01*
X665559Y667570D01*
X662087D01*
X658962D01*
X656532D01*
X655143D01*
X654448D01*
X649934Y667223D01*
X645421Y666181D01*
X637782Y663403D01*
X631185Y659931D01*
X625976Y655764D01*
X621810Y651945D01*
X619032Y648473D01*
X617990Y647084D01*
X617296Y646042D01*
X616602Y645348D01*
Y645001D01*
X614518Y641181D01*
X612782Y637362D01*
X611740Y633195D01*
X610699Y629376D01*
X610004Y622084D01*
X610352Y615487D01*
X611046Y609584D01*
X611740Y607154D01*
X612088Y605070D01*
X612782Y603682D01*
X613129Y602293D01*
X613477Y601598D01*
Y601251D01*
X616602Y596043D01*
X619379Y591182D01*
X620768Y589446D01*
X621810Y588057D01*
X622157Y587015D01*
X622504Y586668D01*
X625629Y581113D01*
X627365Y578682D01*
X628754Y576599D01*
X630143Y574863D01*
X631185Y573474D01*
X631532Y572779D01*
X631879Y572432D01*
X639518Y563404D01*
X646810Y554724D01*
X654796Y546738D01*
X662434Y538752D01*
X669726Y531460D01*
X677018Y524516D01*
X684309Y518266D01*
X690906Y512711D01*
X697156Y507502D01*
X702712Y502641D01*
X707920Y498822D01*
X712086Y495697D01*
X715559Y492919D01*
X718336Y491183D01*
X719725Y489794D01*
X720420Y489447D01*
X729795Y483544D01*
X739169Y477989D01*
X748544Y472780D01*
X758267Y468267D01*
X767641Y464100D01*
X776669Y460281D01*
X785697Y456809D01*
X794030Y453684D01*
X801669Y450906D01*
X808613Y448822D01*
X814863Y446739D01*
X820419Y445350D01*
X824932Y443961D01*
X828057Y443267D01*
X830141Y442920D01*
X830835Y442573D01*
X842293Y440142D01*
X853057Y438753D01*
X863474Y438059D01*
X867987Y437711D01*
X872501D01*
X876668D01*
X880140D01*
X883265D01*
X886043D01*
X888473D01*
X889862Y438059D01*
X890904D01*
X891251D01*
X902362Y439448D01*
X913126Y441878D01*
X923195Y444656D01*
X927709Y446392D01*
X931876Y447781D01*
X935695Y449517D01*
X938820Y450906D01*
X941945Y452295D01*
X944375Y453336D01*
X946459Y454378D01*
X947848Y455072D01*
X948889Y455767D01*
X949236D01*
X958959Y461322D01*
X967639Y467225D01*
X975278Y473128D01*
X982222Y478336D01*
X987430Y483197D01*
X989861Y485280D01*
X991597Y486669D01*
X992986Y488058D01*
X994028Y489447D01*
X994722Y489794D01*
X995069Y490141D01*
X1002014Y498127D01*
X1007916Y506808D01*
X1012777Y515141D01*
X1016249Y523127D01*
X1017638Y526599D01*
X1019027Y530071D01*
X1020069Y532849D01*
X1020763Y535627D01*
X1021458Y537710D01*
X1021805Y539099D01*
X1022152Y540141D01*
Y540488D01*
X1023888Y548127D01*
X1024930Y555766D01*
X1025277Y562710D01*
X1025624Y569654D01*
X1025277Y576251D01*
X1024930Y582154D01*
X1024236Y587710D01*
X1023194Y592918D01*
X1022152Y597432D01*
X1021111Y601598D01*
X1020069Y605070D01*
X1019027Y608195D01*
X1018333Y610626D01*
X1017638Y612362D01*
X1017291Y613404D01*
X1016944Y613751D01*
X1013819Y619654D01*
X1010694Y624862D01*
X1003055Y635279D01*
X995416Y643959D01*
X991250Y648126D01*
X987778Y651598D01*
X983958Y655070D01*
X980486Y657848D01*
X977708Y660278D01*
X974931Y662362D01*
X972847Y664098D01*
X971111Y665139D01*
X970070Y665834D01*
X969722Y666181D01*
X964167Y669306D01*
X958264Y671389D01*
X953056Y672431D01*
X948542Y673125D01*
X944375D01*
X941250Y672778D01*
X939167Y672431D01*
X938820D01*
X938473D01*
X933264Y670695D01*
X928403Y668264D01*
X924237Y665139D01*
X921112Y662014D01*
X918681Y659237D01*
X916598Y656806D01*
X915556Y655070D01*
X915209Y654376D01*
X913473Y650209D01*
X912431Y645695D01*
X911737Y641876D01*
Y634931D01*
X912084Y632501D01*
X912431Y631112D01*
Y630418D01*
X913820Y626251D01*
X915903Y622431D01*
X918334Y618959D01*
X920765Y615834D01*
X922848Y613404D01*
X924931Y611668D01*
X926320Y610279D01*
X926667Y609932D01*
X931528Y606807D01*
X936042Y604029D01*
X937778Y602987D01*
X939167Y601946D01*
X940209Y601598D01*
X940556Y601251D01*
X945417Y598126D01*
X949584Y595001D01*
X951320Y593612D01*
X952709Y592918D01*
X953403Y592224D01*
X953750Y591876D01*
X956875Y589446D01*
X959653Y586668D01*
X962084Y583890D01*
X963820Y581460D01*
X965556Y579376D01*
X966597Y577640D01*
X967292Y576251D01*
X967639Y575904D01*
X969028Y572432D01*
X970070Y568960D01*
Y562710D01*
X969722Y559932D01*
X969375Y557849D01*
X969028Y556113D01*
Y555766D01*
X967292Y551252D01*
X965556Y547085D01*
X963472Y543613D01*
X961389Y540488D01*
X959653Y538405D01*
X957917Y536669D01*
X956875Y535627D01*
X956528Y535280D01*
X953056Y532502D01*
X949584Y530419D01*
X945764Y528683D01*
X942292Y527294D01*
X939167Y526252D01*
X936737Y525558D01*
X935348Y525210D01*
X934653D01*
X930487Y524516D01*
X926320Y524169D01*
X922501Y524516D01*
X919376D01*
X916598Y525210D01*
X914167Y525558D01*
X912778Y525905D01*
X912431D01*
X908612Y526946D01*
X904792Y528683D01*
X901668Y530071D01*
X898543Y531808D01*
X896112Y533196D01*
X894376Y534238D01*
X892987Y534933D01*
X892640Y535280D01*
X887084Y539446D01*
X881876Y543960D01*
X877362Y548821D01*
X872849Y554030D01*
X869029Y559238D01*
X865557Y564446D01*
X862432Y569654D01*
X859654Y574515D01*
X856876Y579376D01*
X854793Y583543D01*
X853057Y587710D01*
X851668Y590835D01*
X850627Y593960D01*
X849932Y596043D01*
X849238Y597432D01*
Y597779D01*
X847154Y605418D01*
X845766Y613057D01*
X845071Y620348D01*
Y627640D01*
X845418Y634584D01*
X846460Y640834D01*
X847502Y647084D01*
X848890Y652987D01*
X850627Y658195D01*
X852015Y662709D01*
X853752Y666875D01*
X855140Y670348D01*
X856529Y673125D01*
X857571Y675209D01*
X858265Y676598D01*
X858613Y676945D01*
X860001Y679375D01*
X861043Y681459D01*
X861738Y682847D01*
X862085Y683542D01*
X863126Y685625D01*
X864515Y688056D01*
X865557Y689445D01*
X865904Y690139D01*
X860001Y692917D01*
X854446Y695347D01*
X849585Y697778D01*
X845071Y699514D01*
X841252Y701250D01*
X838474Y702639D01*
X836738Y703333D01*
X836043Y703680D01*
X825280Y708889D01*
X820419Y710972D01*
X815905Y713055D01*
X812432Y714791D01*
X809308Y715833D01*
X807571Y716527D01*
X806877Y716875D01*
X805141Y717569D01*
X803058Y718264D01*
X801669D01*
X801322D01*
X800974D01*
X798891Y718611D01*
D02*
G37*
%LPD*%
M02*
