G04*
G04 #@! TF.GenerationSoftware,Altium Limited,Altium Designer,18.1.7 (191)*
G04*
G04 Layer_Color=65535*
%FSLAX44Y44*%
%MOMM*%
G71*
G01*
G75*
%ADD10C,0.2500*%
%ADD11C,0.2000*%
%ADD12C,0.1000*%
%ADD13C,0.1500*%
%ADD14C,0.2540*%
%ADD15C,0.1270*%
%ADD16C,0.2032*%
%ADD17R,8.0000X1.0000*%
%ADD18R,1.0000X21.0000*%
%ADD19R,4.0000X2.0000*%
%ADD20R,4.0000X1.0000*%
%ADD21R,1.0000X4.0000*%
D10*
X490250Y494000D02*
G03*
X490250Y494000I-1250J0D01*
G01*
X1047750Y247998D02*
G03*
X1047750Y247998I-1250J0D01*
G01*
X1084750Y269998D02*
G03*
X1084750Y269998I-1250J0D01*
G01*
X524250Y968000D02*
G03*
X524250Y968000I-1250J0D01*
G01*
X351750Y951000D02*
G03*
X351750Y951000I-1250J0D01*
G01*
X613250Y523500D02*
G03*
X613250Y523500I-1250J0D01*
G01*
X700250D02*
G03*
X700250Y523500I-1250J0D01*
G01*
X449250Y804750D02*
G03*
X449250Y804750I-1250J0D01*
G01*
X439750Y790750D02*
G03*
X439750Y790750I-1250J0D01*
G01*
X1489750Y269998D02*
G03*
X1489750Y269998I-1250J0D01*
G01*
X1452750Y247998D02*
G03*
X1452750Y247998I-1250J0D01*
G01*
X863250Y468623D02*
G03*
X863250Y468623I-1250J0D01*
G01*
X1894750Y269998D02*
G03*
X1894750Y269998I-1250J0D01*
G01*
X1857750Y247998D02*
G03*
X1857750Y247998I-1250J0D01*
G01*
X2299750Y269998D02*
G03*
X2299750Y269998I-1250J0D01*
G01*
X2262750Y247998D02*
G03*
X2262750Y247998I-1250J0D01*
G01*
X2704750Y269998D02*
G03*
X2704750Y269998I-1250J0D01*
G01*
X2667750Y247998D02*
G03*
X2667750Y247998I-1250J0D01*
G01*
X3109750Y269998D02*
G03*
X3109750Y269998I-1250J0D01*
G01*
X3072750Y247998D02*
G03*
X3072750Y247998I-1250J0D01*
G01*
D11*
X551500Y1140000D02*
G03*
X551500Y1140000I-500J0D01*
G01*
X520000Y1039000D02*
G03*
X520000Y1039000I-500J0D01*
G01*
X619500Y571000D02*
G03*
X619500Y571000I-500J0D01*
G01*
X655500D02*
G03*
X655500Y571000I-500J0D01*
G01*
X593500Y539000D02*
G03*
X593500Y539000I-500J0D01*
G01*
X463450Y1045800D02*
G03*
X463450Y1045800I-1000J0D01*
G01*
X781500Y677000D02*
G03*
X781500Y677000I-500J0D01*
G01*
Y720000D02*
G03*
X781500Y720000I-500J0D01*
G01*
Y764000D02*
G03*
X781500Y764000I-500J0D01*
G01*
Y808000D02*
G03*
X781500Y808000I-500J0D01*
G01*
Y852000D02*
G03*
X781500Y852000I-500J0D01*
G01*
Y896000D02*
G03*
X781500Y896000I-500J0D01*
G01*
Y940000D02*
G03*
X781500Y940000I-500J0D01*
G01*
Y984000D02*
G03*
X781500Y984000I-500J0D01*
G01*
Y1028000D02*
G03*
X781500Y1028000I-500J0D01*
G01*
Y1072000D02*
G03*
X781500Y1072000I-500J0D01*
G01*
Y1116000D02*
G03*
X781500Y1116000I-500J0D01*
G01*
Y1160000D02*
G03*
X781500Y1160000I-500J0D01*
G01*
X834500Y1137000D02*
G03*
X834500Y1137000I-500J0D01*
G01*
Y1093000D02*
G03*
X834500Y1093000I-500J0D01*
G01*
Y1049000D02*
G03*
X834500Y1049000I-500J0D01*
G01*
Y1005000D02*
G03*
X834500Y1005000I-500J0D01*
G01*
Y961000D02*
G03*
X834500Y961000I-500J0D01*
G01*
Y917000D02*
G03*
X834500Y917000I-500J0D01*
G01*
Y873000D02*
G03*
X834500Y873000I-500J0D01*
G01*
Y829000D02*
G03*
X834500Y829000I-500J0D01*
G01*
Y784000D02*
G03*
X834500Y784000I-500J0D01*
G01*
Y741000D02*
G03*
X834500Y741000I-500J0D01*
G01*
Y697000D02*
G03*
X834500Y697000I-500J0D01*
G01*
X834500Y654000D02*
G03*
X834500Y654000I-500J0D01*
G01*
X821500Y621000D02*
G03*
X821500Y621000I-500J0D01*
G01*
X511500Y400000D02*
G03*
X511500Y400000I-500J0D01*
G01*
X932500Y423000D02*
G03*
X932500Y423000I-500J0D01*
G01*
X893500D02*
G03*
X893500Y423000I-500J0D01*
G01*
X587500Y448000D02*
Y518000D01*
X481500Y448000D02*
X587500D01*
X481500Y518000D02*
X587500D01*
X948000Y223998D02*
X1054000D01*
X948000Y293998D02*
X1054000D01*
X948000Y223998D02*
Y293998D01*
X1076000Y293998D02*
X1182000D01*
X1076000Y223998D02*
X1182000D01*
Y293998D01*
X339000Y630000D02*
Y636000D01*
X353000Y630000D02*
Y636000D01*
Y648000D02*
Y654000D01*
X339000Y648000D02*
Y654000D01*
X826000Y654000D02*
Y660000D01*
X812000Y654000D02*
Y660000D01*
X826000Y698000D02*
Y704000D01*
X812000Y698000D02*
Y704000D01*
X826000Y742000D02*
Y748000D01*
X812000Y742000D02*
Y748000D01*
X826000Y786000D02*
Y792000D01*
X812000Y786000D02*
Y792000D01*
X826000Y830000D02*
Y836000D01*
X812000Y830000D02*
Y836000D01*
X826000Y874000D02*
Y880000D01*
X812000Y874000D02*
Y880000D01*
X826000Y918000D02*
Y924000D01*
X812000Y918000D02*
Y924000D01*
X826000Y962000D02*
Y968000D01*
X812000Y962000D02*
Y968000D01*
X826000Y1006000D02*
Y1012000D01*
X812000Y1006000D02*
Y1012000D01*
X826000Y1050000D02*
Y1056000D01*
X812000Y1050000D02*
Y1056000D01*
X826000Y1094000D02*
Y1100000D01*
X812000Y1094000D02*
Y1100000D01*
X826000Y1138000D02*
Y1144000D01*
X812000Y1138000D02*
Y1144000D01*
X338046Y1171000D02*
X344046D01*
X338046Y1155000D02*
X344046D01*
X338046D02*
Y1171000D01*
X339946Y1155000D02*
Y1171000D01*
X524000Y1171000D02*
X530000D01*
X524000Y1155000D02*
X530000D01*
X524000D02*
Y1171000D01*
X525900Y1155000D02*
Y1171000D01*
X462000D02*
X468000D01*
X462000Y1155000D02*
X468000D01*
X462000D02*
Y1171000D01*
X463900Y1155000D02*
Y1171000D01*
X400000D02*
X406000D01*
X400000Y1155000D02*
X406000D01*
X400000D02*
Y1171000D01*
X401900Y1155000D02*
Y1171000D01*
X523001Y1058000D02*
Y1082000D01*
X524000Y1078500D02*
X540500D01*
X541000Y1058000D02*
Y1082000D01*
X523001Y1058000D02*
X526500D01*
X537500D02*
X541000D01*
X523000Y1082000D02*
X541000D01*
X655000Y600000D02*
Y606000D01*
X671000Y600000D02*
Y606000D01*
X655000Y600000D02*
X671000D01*
X655000Y601900D02*
X671000D01*
X655000Y1145000D02*
Y1151000D01*
X671000Y1145000D02*
Y1151000D01*
X655000Y1145000D02*
X671000D01*
X655000Y1146900D02*
X671000D01*
X655000Y1101000D02*
Y1107000D01*
X671000Y1101000D02*
Y1107000D01*
X655000Y1101000D02*
X671000D01*
X655000Y1102900D02*
X671000D01*
X655000Y1057000D02*
Y1063000D01*
X671000Y1057000D02*
Y1063000D01*
X655000Y1057000D02*
X671000D01*
X655000Y1058900D02*
X671000D01*
X655000Y1013000D02*
Y1019000D01*
X671000Y1013000D02*
Y1019000D01*
X655000Y1013000D02*
X671000D01*
X655000Y1014900D02*
X671000D01*
X655000Y969000D02*
Y975000D01*
X671000Y969000D02*
Y975000D01*
X655000Y969000D02*
X671000D01*
X655000Y970900D02*
X671000D01*
X655000Y925000D02*
Y931000D01*
X671000Y925000D02*
Y931000D01*
X655000Y925000D02*
X671000D01*
X655000Y926900D02*
X671000D01*
X655000Y881000D02*
Y887000D01*
X671000Y881000D02*
Y887000D01*
X655000Y881000D02*
X671000D01*
X655000Y882900D02*
X671000D01*
X655000Y837000D02*
Y843000D01*
X671000Y837000D02*
Y843000D01*
X655000Y837000D02*
X671000D01*
X655000Y838900D02*
X671000D01*
X655000Y793000D02*
Y799000D01*
X671000Y793000D02*
Y799000D01*
X655000Y793000D02*
X671000D01*
X655000Y794900D02*
X671000D01*
X655000Y749000D02*
Y755000D01*
X671000Y749000D02*
Y755000D01*
X655000Y749000D02*
X671000D01*
X655000Y750900D02*
X671000D01*
X655000Y705000D02*
Y711000D01*
X671000Y705000D02*
Y711000D01*
X655000Y705000D02*
X671000D01*
X655000Y706900D02*
X671000D01*
X655000Y661000D02*
Y667000D01*
X671000Y661000D02*
Y667000D01*
X655000Y661000D02*
X671000D01*
X655000Y662900D02*
X671000D01*
X456500Y918500D02*
Y956500D01*
X523500Y918500D02*
Y956500D01*
X456500Y918500D02*
X523500D01*
X456500Y956500D02*
X523500D01*
X601500Y413000D02*
Y427000D01*
X578500Y413000D02*
Y427000D01*
X601000Y413000D02*
X601500D01*
X578500D02*
X579000D01*
X578500Y427000D02*
X579000D01*
X601000D02*
X601500D01*
X343000Y975000D02*
X449000D01*
X343000Y905000D02*
X449000D01*
Y975000D01*
X458000Y1047500D02*
X473000D01*
X458000Y1015000D02*
X473000D01*
X699000Y621000D02*
X705000D01*
X699000Y607000D02*
X705000D01*
X679000Y586000D02*
X685000D01*
X679000Y600000D02*
X685000D01*
X619000Y608000D02*
X625000D01*
X619000Y622000D02*
X625000D01*
X639000Y600000D02*
X645000D01*
X639000Y586000D02*
X645000D01*
X699000Y1166000D02*
X705000D01*
X699000Y1152000D02*
X705000D01*
X679000Y1131000D02*
X685000D01*
X679000Y1145000D02*
X685000D01*
X619000Y1153000D02*
X625000D01*
X619000Y1167000D02*
X625000D01*
X639000Y1145000D02*
X645000D01*
X639000Y1131000D02*
X645000D01*
X699000Y1122000D02*
X705000D01*
X699000Y1108000D02*
X705000D01*
X679000Y1087000D02*
X685000D01*
X679000Y1101000D02*
X685000D01*
X619000Y1109000D02*
X625000D01*
X619000Y1123000D02*
X625000D01*
X639000Y1101000D02*
X645000D01*
X639000Y1087000D02*
X645000D01*
X639000Y1057000D02*
X645000D01*
X639000Y1043000D02*
X645000D01*
X619000Y1065000D02*
X625000D01*
X619000Y1079000D02*
X625000D01*
X679000Y1043000D02*
X685000D01*
X679000Y1057000D02*
X685000D01*
X699000Y1078000D02*
X705000D01*
X699000Y1064000D02*
X705000D01*
X639000Y1013000D02*
X645000D01*
X639000Y999000D02*
X645000D01*
X619000Y1021000D02*
X625000D01*
X619000Y1035000D02*
X625000D01*
X679000Y999000D02*
X685000D01*
X679000Y1013000D02*
X685000D01*
X699000Y1034000D02*
X705000D01*
X699000Y1020000D02*
X705000D01*
X639000Y969000D02*
X645000D01*
X639000Y955000D02*
X645000D01*
X619000Y977000D02*
X625000D01*
X619000Y991000D02*
X625000D01*
X679000Y955000D02*
X685000D01*
X679000Y969000D02*
X685000D01*
X699000Y990000D02*
X705000D01*
X699000Y976000D02*
X705000D01*
X699000Y946000D02*
X705000D01*
X699000Y932000D02*
X705000D01*
X679000Y911000D02*
X685000D01*
X679000Y925000D02*
X685000D01*
X619000Y933000D02*
X625000D01*
X619000Y947000D02*
X625000D01*
X639000Y925000D02*
X645000D01*
X639000Y911000D02*
X645000D01*
X639000Y881000D02*
X645000D01*
X639000Y867000D02*
X645000D01*
X619000Y889000D02*
X625000D01*
X619000Y903000D02*
X625000D01*
X679000Y867000D02*
X685000D01*
X679000Y881000D02*
X685000D01*
X699000Y902000D02*
X705000D01*
X699000Y888000D02*
X705000D01*
X699000Y858000D02*
X705000D01*
X699000Y844000D02*
X705000D01*
X679000Y823000D02*
X685000D01*
X679000Y837000D02*
X685000D01*
X619000Y845000D02*
X625000D01*
X619000Y859000D02*
X625000D01*
X639000Y837000D02*
X645000D01*
X639000Y823000D02*
X645000D01*
X639000Y793000D02*
X645000D01*
X639000Y779000D02*
X645000D01*
X619000Y801000D02*
X625000D01*
X619000Y815000D02*
X625000D01*
X679000Y779000D02*
X685000D01*
X679000Y793000D02*
X685000D01*
X699000Y814000D02*
X705000D01*
X699000Y800000D02*
X705000D01*
X639000Y749000D02*
X645000D01*
X639000Y735000D02*
X645000D01*
X619000Y757000D02*
X625000D01*
X619000Y771000D02*
X625000D01*
X679000Y735000D02*
X685000D01*
X679000Y749000D02*
X685000D01*
X699000Y770000D02*
X705000D01*
X699000Y756000D02*
X705000D01*
X699000Y726000D02*
X705000D01*
X699000Y712000D02*
X705000D01*
X679000Y691000D02*
X685000D01*
X679000Y705000D02*
X685000D01*
X619000Y713000D02*
X625000D01*
X619000Y727000D02*
X625000D01*
X639000Y705000D02*
X645000D01*
X639000Y691000D02*
X645000D01*
X619000Y683000D02*
X625000D01*
X619000Y669000D02*
X625000D01*
X679000Y661000D02*
X685000D01*
X679000Y647000D02*
X685000D01*
X639000Y647000D02*
X645000D01*
X639000Y661000D02*
X645000D01*
X699000Y668000D02*
X705000D01*
X699000Y682000D02*
X705000D01*
X359500Y704750D02*
X447500D01*
Y792750D01*
X359500Y704750D02*
Y792750D01*
X447500D01*
X374000Y719000D02*
Y779000D01*
X434000Y719000D02*
Y779000D01*
X374000D02*
X434000D01*
X374000Y719000D02*
X434000D01*
X286000Y587000D02*
X292000D01*
X286000Y573000D02*
X292000D01*
X291500Y849000D02*
X296500D01*
X291500D02*
X294000Y851000D01*
X296500Y849000D01*
X1587000Y223998D02*
Y293998D01*
X1481000Y223998D02*
X1587000D01*
X1481000Y293998D02*
X1587000D01*
X1353000Y223998D02*
Y293998D01*
X1459000D01*
X1353000Y223998D02*
X1459000D01*
X1992000D02*
Y293998D01*
X1886000Y223998D02*
X1992000D01*
X1886000Y293998D02*
X1992000D01*
X1758000Y223998D02*
Y293998D01*
X1864000D01*
X1758000Y223998D02*
X1864000D01*
X2397000Y223998D02*
Y293998D01*
X2291000Y223998D02*
X2397000D01*
X2291000Y293998D02*
X2397000D01*
X2163000Y223998D02*
Y293998D01*
X2269000D01*
X2163000Y223998D02*
X2269000D01*
X2802000D02*
Y293998D01*
X2696000Y223998D02*
X2802000D01*
X2696000Y293998D02*
X2802000D01*
X2568000Y223998D02*
Y293998D01*
X2674000D01*
X2568000Y223998D02*
X2674000D01*
X3207000Y223998D02*
Y293998D01*
X3101000Y223998D02*
X3207000D01*
X3101000Y293998D02*
X3207000D01*
X2973000Y223998D02*
Y293998D01*
X3079000D01*
X2973000Y223998D02*
X3079000D01*
X491000Y563001D02*
X515000D01*
X494500Y564000D02*
Y580500D01*
X491000Y581000D02*
X515000D01*
Y563001D02*
Y566500D01*
Y577500D02*
Y581000D01*
X491000Y563000D02*
Y581000D01*
Y538001D02*
X515000D01*
X494500Y539000D02*
Y555500D01*
X491000Y556000D02*
X515000D01*
Y538001D02*
Y541500D01*
Y552500D02*
Y556000D01*
X491000Y538000D02*
Y556000D01*
X294000Y951000D02*
X296500Y949000D01*
X291500D02*
X294000Y951000D01*
X291500Y949000D02*
X296500D01*
X294000Y1051000D02*
X296500Y1049000D01*
X291500D02*
X294000Y1051000D01*
X291500Y1049000D02*
X296500D01*
X294000Y1151000D02*
X296500Y1149000D01*
X291500D02*
X294000Y1151000D01*
X291500Y1149000D02*
X296500D01*
D12*
X601750Y431000D02*
G03*
X601750Y431000I-500J0D01*
G01*
D13*
X635833Y521500D02*
G03*
X646167Y521500I5167J0D01*
G01*
X722833D02*
G03*
X733167Y521500I5167J0D01*
G01*
X838167Y470623D02*
G03*
X827833Y470623I-5167J0D01*
G01*
X519500Y1117000D02*
Y1135000D01*
X550500Y1117000D02*
Y1135000D01*
X550000Y1117000D02*
X550500D01*
X550000Y1135000D02*
X550500D01*
X519500Y1117000D02*
X520000D01*
X519500Y1135000D02*
X520000D01*
X524500Y1007500D02*
X542500D01*
X524500Y1038500D02*
X542500D01*
Y1038000D02*
Y1038500D01*
X524500Y1038000D02*
Y1038500D01*
X542500Y1007500D02*
Y1008000D01*
X524500Y1007500D02*
Y1008000D01*
X624000Y539500D02*
X642000D01*
X624000Y570500D02*
X642000D01*
Y570000D02*
Y570500D01*
X624000Y570000D02*
Y570500D01*
X642000Y539500D02*
Y540000D01*
X624000Y539500D02*
Y540000D01*
X660000Y539500D02*
X678000D01*
X660000Y570500D02*
X678000D01*
Y570000D02*
Y570500D01*
X660000Y570000D02*
Y570500D01*
X678000Y539500D02*
Y540000D01*
X660000Y539500D02*
Y540000D01*
X570000Y570500D02*
X588000D01*
X570000Y539500D02*
X588000D01*
X570000D02*
Y540000D01*
X588000Y539500D02*
Y540000D01*
X570000Y570000D02*
Y570500D01*
X588000Y570000D02*
Y570500D01*
X664000Y439500D02*
Y441000D01*
X619000Y439500D02*
Y441000D01*
Y520500D02*
Y521500D01*
X664000Y520500D02*
Y521500D01*
X619000Y439500D02*
X664000D01*
X646200Y521500D02*
X664000D01*
X619000D02*
X635800D01*
X751000Y439500D02*
Y441000D01*
X706000Y439500D02*
Y441000D01*
Y520500D02*
Y521500D01*
X751000Y520500D02*
Y521500D01*
X706000Y439500D02*
X751000D01*
X733200Y521500D02*
X751000D01*
X706000D02*
X722800D01*
X749500Y654000D02*
Y672000D01*
X780500Y654000D02*
Y672000D01*
X780000Y654000D02*
X780500D01*
X780000Y672000D02*
X780500D01*
X749500Y654000D02*
X750000D01*
X749500Y672000D02*
X750000D01*
X749500Y697000D02*
Y715000D01*
X780500Y697000D02*
Y715000D01*
X780000Y697000D02*
X780500D01*
X780000Y715000D02*
X780500D01*
X749500Y697000D02*
X750000D01*
X749500Y715000D02*
X750000D01*
X749500Y741000D02*
Y759000D01*
X780500Y741000D02*
Y759000D01*
X780000Y741000D02*
X780500D01*
X780000Y759000D02*
X780500D01*
X749500Y741000D02*
X750000D01*
X749500Y759000D02*
X750000D01*
X749500Y785000D02*
Y803000D01*
X780500Y785000D02*
Y803000D01*
X780000Y785000D02*
X780500D01*
X780000Y803000D02*
X780500D01*
X749500Y785000D02*
X750000D01*
X749500Y803000D02*
X750000D01*
X749500Y829000D02*
Y847000D01*
X780500Y829000D02*
Y847000D01*
X780000Y829000D02*
X780500D01*
X780000Y847000D02*
X780500D01*
X749500Y829000D02*
X750000D01*
X749500Y847000D02*
X750000D01*
X749500Y873000D02*
Y891000D01*
X780500Y873000D02*
Y891000D01*
X780000Y873000D02*
X780500D01*
X780000Y891000D02*
X780500D01*
X749500Y873000D02*
X750000D01*
X749500Y891000D02*
X750000D01*
X749500Y917000D02*
Y935000D01*
X780500Y917000D02*
Y935000D01*
X780000Y917000D02*
X780500D01*
X780000Y935000D02*
X780500D01*
X749500Y917000D02*
X750000D01*
X749500Y935000D02*
X750000D01*
X749500Y961000D02*
Y979000D01*
X780500Y961000D02*
Y979000D01*
X780000Y961000D02*
X780500D01*
X780000Y979000D02*
X780500D01*
X749500Y961000D02*
X750000D01*
X749500Y979000D02*
X750000D01*
X749500Y1005000D02*
Y1023000D01*
X780500Y1005000D02*
Y1023000D01*
X780000Y1005000D02*
X780500D01*
X780000Y1023000D02*
X780500D01*
X749500Y1005000D02*
X750000D01*
X749500Y1023000D02*
X750000D01*
X749500Y1049000D02*
Y1067000D01*
X780500Y1049000D02*
Y1067000D01*
X780000Y1049000D02*
X780500D01*
X780000Y1067000D02*
X780500D01*
X749500Y1049000D02*
X750000D01*
X749500Y1067000D02*
X750000D01*
X749500Y1093000D02*
Y1111000D01*
X780500Y1093000D02*
Y1111000D01*
X780000Y1093000D02*
X780500D01*
X780000Y1111000D02*
X780500D01*
X749500Y1093000D02*
X750000D01*
X749500Y1111000D02*
X750000D01*
X749500Y1137000D02*
Y1155000D01*
X780500Y1137000D02*
Y1155000D01*
X780000Y1137000D02*
X780500D01*
X780000Y1155000D02*
X780500D01*
X749500Y1137000D02*
X750000D01*
X749500Y1155000D02*
X750000D01*
X865500Y1142000D02*
Y1160000D01*
X834500Y1142000D02*
Y1160000D01*
X835000D01*
X834500Y1142000D02*
X835000D01*
X865000Y1160000D02*
X865500D01*
X865000Y1142000D02*
X865500D01*
Y1098000D02*
Y1116000D01*
X834500Y1098000D02*
Y1116000D01*
X835000D01*
X834500Y1098000D02*
X835000D01*
X865000Y1116000D02*
X865500D01*
X865000Y1098000D02*
X865500D01*
Y1054000D02*
Y1072000D01*
X834500Y1054000D02*
Y1072000D01*
X835000D01*
X834500Y1054000D02*
X835000D01*
X865000Y1072000D02*
X865500D01*
X865000Y1054000D02*
X865500D01*
Y1010000D02*
Y1028000D01*
X834500Y1010000D02*
Y1028000D01*
X835000D01*
X834500Y1010000D02*
X835000D01*
X865000Y1028000D02*
X865500D01*
X865000Y1010000D02*
X865500D01*
Y966000D02*
Y984000D01*
X834500Y966000D02*
Y984000D01*
X835000D01*
X834500Y966000D02*
X835000D01*
X865000Y984000D02*
X865500D01*
X865000Y966000D02*
X865500D01*
Y922000D02*
Y940000D01*
X834500Y922000D02*
Y940000D01*
X835000D01*
X834500Y922000D02*
X835000D01*
X865000Y940000D02*
X865500D01*
X865000Y922000D02*
X865500D01*
Y878000D02*
Y896000D01*
X834500Y878000D02*
Y896000D01*
X835000D01*
X834500Y878000D02*
X835000D01*
X865000Y896000D02*
X865500D01*
X865000Y878000D02*
X865500D01*
Y834000D02*
Y852000D01*
X834500Y834000D02*
Y852000D01*
X835000D01*
X834500Y834000D02*
X835000D01*
X865000Y852000D02*
X865500D01*
X865000Y834000D02*
X865500D01*
Y789000D02*
Y807000D01*
X834500Y789000D02*
Y807000D01*
X835000D01*
X834500Y789000D02*
X835000D01*
X865000Y807000D02*
X865500D01*
X865000Y789000D02*
X865500D01*
Y746000D02*
Y764000D01*
X834500Y746000D02*
Y764000D01*
X835000D01*
X834500Y746000D02*
X835000D01*
X865000Y764000D02*
X865500D01*
X865000Y746000D02*
X865500D01*
Y702000D02*
Y720000D01*
X834500Y702000D02*
Y720000D01*
X835000D01*
X834500Y702000D02*
X835000D01*
X865000Y720000D02*
X865500D01*
X865000Y702000D02*
X865500D01*
X865500Y659000D02*
Y677000D01*
X834500Y659000D02*
Y677000D01*
X835000D01*
X834500Y659000D02*
X835000D01*
X865000Y677000D02*
X865500D01*
X865000Y659000D02*
X865500D01*
X826000Y589500D02*
X844000D01*
X826000Y620500D02*
X844000D01*
Y620000D02*
Y620500D01*
X826000Y620000D02*
Y620500D01*
X844000Y589500D02*
Y590000D01*
X826000Y589500D02*
Y590000D01*
X810000Y551123D02*
Y552623D01*
X855000Y551123D02*
Y552623D01*
Y470623D02*
Y471623D01*
X810000Y470623D02*
Y471623D01*
Y552623D02*
X855000D01*
X810000Y470623D02*
X827800D01*
X838200D02*
X855000D01*
X294000Y617000D02*
X318000D01*
X294000Y669000D02*
X318000D01*
X332000Y630000D02*
Y656000D01*
X280000Y630000D02*
Y656000D01*
X542000Y405000D02*
X542500D01*
X542000Y423000D02*
X542500D01*
X511500Y405000D02*
X512000D01*
X511500Y423000D02*
X512000D01*
X511500Y405000D02*
Y423000D01*
X542500Y405000D02*
Y423000D01*
X900500Y418000D02*
X901000D01*
X900500Y400000D02*
X901000D01*
X931000Y418000D02*
X931500D01*
X931000Y400000D02*
X931500D01*
Y418000D01*
X900500Y400000D02*
Y418000D01*
X861500D02*
X862000D01*
X861500Y400000D02*
X862000D01*
X892000Y418000D02*
X892500D01*
X892000Y400000D02*
X892500D01*
Y418000D01*
X861500Y400000D02*
Y418000D01*
X445000Y824123D02*
X447000Y826123D01*
X445000Y856123D02*
X447000Y854123D01*
X392000D02*
X394000Y856123D01*
X392000Y826123D02*
X394000Y824123D01*
X445000D01*
X394000Y856123D02*
X445000D01*
D14*
X419000Y1144000D02*
X448000D01*
Y1016000D02*
Y1144000D01*
X419000Y1016000D02*
X448000D01*
X320000Y1144000D02*
X349000D01*
X320000Y1016000D02*
Y1144000D01*
Y1016000D02*
X349000D01*
X2943752Y586849D02*
Y582683D01*
Y584766D01*
X2954165D01*
X2956248Y582683D01*
Y580601D01*
X2954165Y578518D01*
X2943752Y591014D02*
X2956248D01*
Y599345D01*
X2945835Y611841D02*
X2943752Y609758D01*
Y605593D01*
X2945835Y603510D01*
X2954165D01*
X2956248Y605593D01*
Y609758D01*
X2954165Y611841D01*
X2943752Y624337D02*
Y620171D01*
Y622254D01*
X2954165D01*
X2956248Y620171D01*
Y618089D01*
X2954165Y616006D01*
X2943752Y628502D02*
X2956248D01*
Y636833D01*
X2945835Y649329D02*
X2943752Y647246D01*
Y643081D01*
X2945835Y640998D01*
X2954165D01*
X2956248Y643081D01*
Y647246D01*
X2954165Y649329D01*
X2943752Y661824D02*
Y657659D01*
Y659742D01*
X2954165D01*
X2956248Y657659D01*
Y655576D01*
X2954165Y653494D01*
X2943752Y665990D02*
X2956248D01*
Y674321D01*
X2945835Y686816D02*
X2943752Y684734D01*
Y680568D01*
X2945835Y678486D01*
X2954165D01*
X2956248Y680568D01*
Y684734D01*
X2954165Y686816D01*
X2943752Y699312D02*
Y695147D01*
Y697230D01*
X2954165D01*
X2956248Y695147D01*
Y693064D01*
X2954165Y690982D01*
X2943752Y703478D02*
X2956248D01*
Y711808D01*
X2945835Y724304D02*
X2943752Y722222D01*
Y718056D01*
X2945835Y715974D01*
X2954165D01*
X2956248Y718056D01*
Y722222D01*
X2954165Y724304D01*
D15*
X459650Y1066000D02*
Y1096000D01*
X490350Y1066000D02*
Y1096000D01*
D16*
X420000Y279500D02*
X446000D01*
X420000Y351500D02*
X446000D01*
D17*
X1054000Y655000D02*
D03*
Y855000D02*
D03*
X1245000Y655000D02*
D03*
Y855000D02*
D03*
X1458000Y855000D02*
D03*
Y655000D02*
D03*
X1650000D02*
D03*
Y855000D02*
D03*
X1864000Y655000D02*
D03*
Y855000D02*
D03*
X2055000D02*
D03*
Y655000D02*
D03*
X2269000D02*
D03*
Y855000D02*
D03*
X2460000D02*
D03*
Y655000D02*
D03*
X2674000Y655000D02*
D03*
Y855000D02*
D03*
X2865000D02*
D03*
Y655000D02*
D03*
X3079000Y655000D02*
D03*
Y855000D02*
D03*
X3270000Y855000D02*
D03*
Y655000D02*
D03*
D18*
X1019000Y755000D02*
D03*
X1089000D02*
D03*
X1210000Y755000D02*
D03*
X1280000D02*
D03*
X1493000Y755000D02*
D03*
X1423000D02*
D03*
X1615000Y755000D02*
D03*
X1685000D02*
D03*
X1829000Y755000D02*
D03*
X1899000D02*
D03*
X2090000Y755000D02*
D03*
X2020000D02*
D03*
X2234000Y755000D02*
D03*
X2304000D02*
D03*
X2495000Y755000D02*
D03*
X2425000D02*
D03*
X2639000Y755000D02*
D03*
X2709000D02*
D03*
X2900000Y755000D02*
D03*
X2830000D02*
D03*
X3044000Y755000D02*
D03*
X3114000D02*
D03*
X3305000Y755000D02*
D03*
X3235000D02*
D03*
D19*
X1054000Y860000D02*
D03*
Y680000D02*
D03*
Y710000D02*
D03*
Y740000D02*
D03*
Y770000D02*
D03*
Y800000D02*
D03*
Y830000D02*
D03*
X1245000Y680000D02*
D03*
Y710000D02*
D03*
X1245000Y740000D02*
D03*
Y770000D02*
D03*
Y800000D02*
D03*
X1245000Y830000D02*
D03*
Y650000D02*
D03*
X1458000Y830000D02*
D03*
Y800000D02*
D03*
Y770000D02*
D03*
Y740000D02*
D03*
Y710000D02*
D03*
Y680000D02*
D03*
Y860000D02*
D03*
X1650000Y680000D02*
D03*
Y710000D02*
D03*
X1650000Y740000D02*
D03*
Y770000D02*
D03*
Y800000D02*
D03*
X1650000Y830000D02*
D03*
Y650000D02*
D03*
X1864000Y860000D02*
D03*
Y680000D02*
D03*
Y710000D02*
D03*
Y740000D02*
D03*
Y770000D02*
D03*
Y800000D02*
D03*
Y830000D02*
D03*
X2055000Y650000D02*
D03*
Y830000D02*
D03*
Y800000D02*
D03*
Y770000D02*
D03*
Y740000D02*
D03*
Y710000D02*
D03*
Y680000D02*
D03*
X2269000Y860000D02*
D03*
Y680000D02*
D03*
Y710000D02*
D03*
Y740000D02*
D03*
Y770000D02*
D03*
Y800000D02*
D03*
Y830000D02*
D03*
X2460000Y650000D02*
D03*
Y830000D02*
D03*
Y800000D02*
D03*
Y770000D02*
D03*
Y740000D02*
D03*
Y710000D02*
D03*
Y680000D02*
D03*
X2674000Y860000D02*
D03*
Y680000D02*
D03*
Y710000D02*
D03*
Y740000D02*
D03*
Y770000D02*
D03*
Y800000D02*
D03*
Y830000D02*
D03*
X2865000Y650000D02*
D03*
Y830000D02*
D03*
X2865000Y800000D02*
D03*
Y770000D02*
D03*
Y740000D02*
D03*
X2865000Y710000D02*
D03*
Y680000D02*
D03*
X3079000Y860000D02*
D03*
Y680000D02*
D03*
Y710000D02*
D03*
Y740000D02*
D03*
Y770000D02*
D03*
Y800000D02*
D03*
Y830000D02*
D03*
X3270000Y650000D02*
D03*
Y830000D02*
D03*
Y800000D02*
D03*
Y770000D02*
D03*
Y740000D02*
D03*
Y710000D02*
D03*
Y680000D02*
D03*
D20*
X1054000Y945000D02*
D03*
Y565000D02*
D03*
X1245000Y945000D02*
D03*
Y565000D02*
D03*
X1458000D02*
D03*
Y945000D02*
D03*
X1650000D02*
D03*
Y565000D02*
D03*
X1864000Y945000D02*
D03*
Y565000D02*
D03*
X2055000Y565000D02*
D03*
Y945000D02*
D03*
X2269000Y945000D02*
D03*
Y565000D02*
D03*
X2460000Y565000D02*
D03*
Y945000D02*
D03*
X2674000D02*
D03*
Y565000D02*
D03*
X2865000D02*
D03*
Y945000D02*
D03*
X3079000Y945000D02*
D03*
Y565000D02*
D03*
X3270000Y565000D02*
D03*
Y945000D02*
D03*
D21*
X1054000Y945000D02*
D03*
X1245000Y565000D02*
D03*
X1458000Y945000D02*
D03*
X1650000Y565000D02*
D03*
X1864000Y945000D02*
D03*
X2055000Y565000D02*
D03*
X2269000Y945000D02*
D03*
X2460000Y565000D02*
D03*
X2674000Y945000D02*
D03*
X2865000Y565000D02*
D03*
X3079000Y945000D02*
D03*
X3270000Y565000D02*
D03*
M02*
