G04*
G04 #@! TF.GenerationSoftware,Altium Limited,Altium Designer,18.1.7 (191)*
G04*
G04 Layer_Color=16711935*
%FSLAX44Y44*%
%MOMM*%
G71*
G01*
G75*
%ADD91C,0.2032*%
%ADD92R,4.2032X4.2032*%
%ADD93O,3.2032X2.2032*%
%ADD94R,2.2032X1.4032*%
%ADD95R,2.5032X1.4032*%
D91*
X3175000Y1022704D02*
D03*
Y470000D02*
D03*
X3351000Y470352D02*
D03*
X3352000Y1105352D02*
D03*
X2999000Y1022352D02*
D03*
X2770000Y1022352D02*
D03*
Y469648D02*
D03*
X2946000Y470000D02*
D03*
X2947000Y1105000D02*
D03*
X2594000Y1022000D02*
D03*
X2365000Y1022352D02*
D03*
Y469648D02*
D03*
X2541000Y470000D02*
D03*
X2542000Y1105000D02*
D03*
X2189000Y1022000D02*
D03*
X1960000Y1022352D02*
D03*
Y469648D02*
D03*
X2136000Y470000D02*
D03*
X2137000Y1105000D02*
D03*
X1784000Y1022000D02*
D03*
X1555000Y1022352D02*
D03*
Y469648D02*
D03*
X1731000Y470000D02*
D03*
X1732000Y1105000D02*
D03*
X1379000Y1022000D02*
D03*
X1150000Y1022352D02*
D03*
Y469648D02*
D03*
X1326000Y470000D02*
D03*
X1327000Y1105000D02*
D03*
X974000Y1022000D02*
D03*
X329190Y531000D02*
D03*
Y471000D02*
D03*
D92*
X433000Y351500D02*
D03*
Y279500D02*
D03*
D93*
X373000Y383000D02*
D03*
Y248000D02*
D03*
D94*
X336360Y544200D02*
D03*
Y457700D02*
D03*
D95*
X297760Y544200D02*
D03*
Y457700D02*
D03*
M02*
