G04 EAGLE Gerber RS-274X export*
G75*
%MOMM*%
%FSLAX34Y34*%
%LPD*%
%INSilkscreen Top*%
%IPPOS*%
%AMOC8*
5,1,8,0,0,1.08239X$1,22.5*%
G01*
%ADD10C,0.076200*%
%ADD11C,0.152400*%
%ADD12C,0.508000*%
%ADD13C,0.200000*%
%ADD14C,0.127000*%
%ADD15C,0.101600*%
%ADD16R,0.425000X0.325000*%
%ADD17R,0.350000X0.350000*%
%ADD18C,0.050800*%
%ADD19C,0.203200*%


D10*
X183069Y192305D02*
X183069Y190668D01*
X183067Y190590D01*
X183062Y190512D01*
X183052Y190435D01*
X183039Y190358D01*
X183023Y190282D01*
X183003Y190207D01*
X182979Y190133D01*
X182952Y190060D01*
X182921Y189988D01*
X182887Y189918D01*
X182850Y189850D01*
X182809Y189783D01*
X182765Y189718D01*
X182719Y189656D01*
X182669Y189596D01*
X182617Y189538D01*
X182562Y189483D01*
X182504Y189431D01*
X182444Y189381D01*
X182382Y189335D01*
X182317Y189291D01*
X182251Y189250D01*
X182182Y189213D01*
X182112Y189179D01*
X182040Y189148D01*
X181967Y189121D01*
X181893Y189097D01*
X181818Y189077D01*
X181742Y189061D01*
X181665Y189048D01*
X181588Y189038D01*
X181510Y189033D01*
X181432Y189031D01*
X177340Y189031D01*
X177260Y189033D01*
X177180Y189039D01*
X177100Y189049D01*
X177021Y189062D01*
X176942Y189080D01*
X176865Y189101D01*
X176789Y189127D01*
X176714Y189156D01*
X176640Y189188D01*
X176568Y189224D01*
X176498Y189264D01*
X176431Y189307D01*
X176365Y189353D01*
X176302Y189403D01*
X176241Y189455D01*
X176182Y189510D01*
X176127Y189569D01*
X176075Y189629D01*
X176025Y189693D01*
X175979Y189758D01*
X175936Y189826D01*
X175896Y189896D01*
X175860Y189968D01*
X175828Y190042D01*
X175799Y190116D01*
X175774Y190193D01*
X175752Y190270D01*
X175734Y190349D01*
X175721Y190428D01*
X175711Y190507D01*
X175705Y190588D01*
X175703Y190668D01*
X175703Y192305D01*
X175703Y195410D02*
X183069Y195410D01*
X175703Y195410D02*
X175703Y198683D01*
X178977Y198683D02*
X178977Y195410D01*
X181432Y201490D02*
X175703Y203127D01*
X181432Y201490D02*
X181432Y205582D01*
X179795Y204354D02*
X183069Y204354D01*
X203269Y192305D02*
X203269Y190668D01*
X203267Y190590D01*
X203262Y190512D01*
X203252Y190435D01*
X203239Y190358D01*
X203223Y190282D01*
X203203Y190207D01*
X203179Y190133D01*
X203152Y190060D01*
X203121Y189988D01*
X203087Y189918D01*
X203050Y189850D01*
X203009Y189783D01*
X202965Y189718D01*
X202919Y189656D01*
X202869Y189596D01*
X202817Y189538D01*
X202762Y189483D01*
X202704Y189431D01*
X202644Y189381D01*
X202582Y189335D01*
X202517Y189291D01*
X202451Y189250D01*
X202382Y189213D01*
X202312Y189179D01*
X202240Y189148D01*
X202167Y189121D01*
X202093Y189097D01*
X202018Y189077D01*
X201942Y189061D01*
X201865Y189048D01*
X201788Y189038D01*
X201710Y189033D01*
X201632Y189031D01*
X197540Y189031D01*
X197460Y189033D01*
X197380Y189039D01*
X197300Y189049D01*
X197221Y189062D01*
X197142Y189080D01*
X197065Y189101D01*
X196989Y189127D01*
X196914Y189156D01*
X196840Y189188D01*
X196768Y189224D01*
X196698Y189264D01*
X196631Y189307D01*
X196565Y189353D01*
X196502Y189403D01*
X196441Y189455D01*
X196382Y189510D01*
X196327Y189569D01*
X196275Y189629D01*
X196225Y189693D01*
X196179Y189758D01*
X196136Y189826D01*
X196096Y189896D01*
X196060Y189968D01*
X196028Y190042D01*
X195999Y190116D01*
X195974Y190193D01*
X195952Y190270D01*
X195934Y190349D01*
X195921Y190428D01*
X195911Y190507D01*
X195905Y190588D01*
X195903Y190668D01*
X195903Y192305D01*
X195903Y195410D02*
X203269Y195410D01*
X195903Y195410D02*
X195903Y198683D01*
X199177Y198683D02*
X199177Y195410D01*
X203269Y201490D02*
X203269Y203945D01*
X203267Y204023D01*
X203262Y204101D01*
X203252Y204178D01*
X203239Y204255D01*
X203223Y204331D01*
X203203Y204406D01*
X203179Y204480D01*
X203152Y204553D01*
X203121Y204625D01*
X203087Y204695D01*
X203050Y204764D01*
X203009Y204830D01*
X202965Y204895D01*
X202919Y204957D01*
X202869Y205017D01*
X202817Y205075D01*
X202762Y205130D01*
X202704Y205182D01*
X202644Y205232D01*
X202582Y205278D01*
X202517Y205322D01*
X202451Y205363D01*
X202382Y205400D01*
X202312Y205434D01*
X202240Y205465D01*
X202167Y205492D01*
X202093Y205516D01*
X202018Y205536D01*
X201942Y205552D01*
X201865Y205565D01*
X201788Y205575D01*
X201710Y205580D01*
X201632Y205582D01*
X200814Y205582D01*
X200734Y205580D01*
X200654Y205574D01*
X200574Y205564D01*
X200495Y205551D01*
X200416Y205533D01*
X200339Y205512D01*
X200263Y205486D01*
X200188Y205457D01*
X200114Y205425D01*
X200042Y205389D01*
X199972Y205349D01*
X199905Y205306D01*
X199839Y205260D01*
X199776Y205210D01*
X199715Y205158D01*
X199656Y205103D01*
X199601Y205044D01*
X199549Y204984D01*
X199499Y204920D01*
X199453Y204854D01*
X199410Y204787D01*
X199370Y204717D01*
X199334Y204645D01*
X199302Y204571D01*
X199273Y204497D01*
X199247Y204420D01*
X199226Y204343D01*
X199208Y204264D01*
X199195Y204185D01*
X199185Y204105D01*
X199179Y204025D01*
X199177Y203945D01*
X199177Y201490D01*
X195903Y201490D01*
X195903Y205582D01*
X143869Y193305D02*
X143869Y191668D01*
X143867Y191590D01*
X143862Y191512D01*
X143852Y191435D01*
X143839Y191358D01*
X143823Y191282D01*
X143803Y191207D01*
X143779Y191133D01*
X143752Y191060D01*
X143721Y190988D01*
X143687Y190918D01*
X143650Y190850D01*
X143609Y190783D01*
X143565Y190718D01*
X143519Y190656D01*
X143469Y190596D01*
X143417Y190538D01*
X143362Y190483D01*
X143304Y190431D01*
X143244Y190381D01*
X143182Y190335D01*
X143117Y190291D01*
X143051Y190250D01*
X142982Y190213D01*
X142912Y190179D01*
X142840Y190148D01*
X142767Y190121D01*
X142693Y190097D01*
X142618Y190077D01*
X142542Y190061D01*
X142465Y190048D01*
X142388Y190038D01*
X142310Y190033D01*
X142232Y190031D01*
X138140Y190031D01*
X138060Y190033D01*
X137980Y190039D01*
X137900Y190049D01*
X137821Y190062D01*
X137742Y190080D01*
X137665Y190101D01*
X137589Y190127D01*
X137514Y190156D01*
X137440Y190188D01*
X137368Y190224D01*
X137298Y190264D01*
X137231Y190307D01*
X137165Y190353D01*
X137102Y190403D01*
X137041Y190455D01*
X136982Y190510D01*
X136927Y190569D01*
X136875Y190629D01*
X136825Y190693D01*
X136779Y190758D01*
X136736Y190826D01*
X136696Y190896D01*
X136660Y190968D01*
X136628Y191042D01*
X136599Y191116D01*
X136574Y191193D01*
X136552Y191270D01*
X136534Y191349D01*
X136521Y191428D01*
X136511Y191507D01*
X136505Y191588D01*
X136503Y191668D01*
X136503Y193305D01*
X136503Y196410D02*
X143869Y196410D01*
X136503Y196410D02*
X136503Y199683D01*
X139777Y199683D02*
X139777Y196410D01*
X139777Y202490D02*
X139777Y204945D01*
X139779Y205023D01*
X139784Y205101D01*
X139794Y205178D01*
X139807Y205255D01*
X139823Y205331D01*
X139843Y205406D01*
X139867Y205480D01*
X139894Y205553D01*
X139925Y205625D01*
X139959Y205695D01*
X139996Y205764D01*
X140037Y205830D01*
X140081Y205895D01*
X140127Y205957D01*
X140177Y206017D01*
X140229Y206075D01*
X140284Y206130D01*
X140342Y206182D01*
X140402Y206232D01*
X140464Y206278D01*
X140529Y206322D01*
X140596Y206363D01*
X140664Y206400D01*
X140734Y206434D01*
X140806Y206465D01*
X140879Y206492D01*
X140953Y206516D01*
X141028Y206536D01*
X141104Y206552D01*
X141181Y206565D01*
X141258Y206575D01*
X141336Y206580D01*
X141414Y206582D01*
X141823Y206582D01*
X141912Y206580D01*
X142001Y206574D01*
X142090Y206564D01*
X142178Y206551D01*
X142266Y206534D01*
X142353Y206512D01*
X142438Y206487D01*
X142523Y206459D01*
X142606Y206426D01*
X142688Y206390D01*
X142768Y206351D01*
X142846Y206308D01*
X142922Y206262D01*
X142997Y206212D01*
X143069Y206159D01*
X143138Y206103D01*
X143205Y206044D01*
X143270Y205983D01*
X143331Y205918D01*
X143390Y205851D01*
X143446Y205782D01*
X143499Y205710D01*
X143549Y205635D01*
X143595Y205559D01*
X143638Y205481D01*
X143677Y205401D01*
X143713Y205319D01*
X143746Y205236D01*
X143774Y205151D01*
X143799Y205066D01*
X143821Y204979D01*
X143838Y204891D01*
X143851Y204803D01*
X143861Y204714D01*
X143867Y204625D01*
X143869Y204536D01*
X143867Y204447D01*
X143861Y204358D01*
X143851Y204269D01*
X143838Y204181D01*
X143821Y204093D01*
X143799Y204006D01*
X143774Y203921D01*
X143746Y203836D01*
X143713Y203753D01*
X143677Y203671D01*
X143638Y203591D01*
X143595Y203513D01*
X143549Y203437D01*
X143499Y203362D01*
X143446Y203290D01*
X143390Y203221D01*
X143331Y203154D01*
X143270Y203089D01*
X143205Y203028D01*
X143138Y202969D01*
X143069Y202913D01*
X142997Y202860D01*
X142922Y202810D01*
X142846Y202764D01*
X142768Y202721D01*
X142688Y202682D01*
X142606Y202646D01*
X142523Y202613D01*
X142438Y202585D01*
X142353Y202560D01*
X142266Y202538D01*
X142178Y202521D01*
X142090Y202508D01*
X142001Y202498D01*
X141912Y202492D01*
X141823Y202490D01*
X139777Y202490D01*
X139663Y202492D01*
X139549Y202498D01*
X139435Y202508D01*
X139321Y202522D01*
X139208Y202540D01*
X139096Y202562D01*
X138985Y202587D01*
X138875Y202617D01*
X138765Y202650D01*
X138657Y202687D01*
X138551Y202728D01*
X138445Y202773D01*
X138342Y202821D01*
X138240Y202873D01*
X138140Y202929D01*
X138042Y202987D01*
X137946Y203050D01*
X137853Y203115D01*
X137761Y203184D01*
X137673Y203256D01*
X137586Y203331D01*
X137503Y203409D01*
X137422Y203490D01*
X137344Y203573D01*
X137269Y203659D01*
X137197Y203748D01*
X137128Y203840D01*
X137063Y203933D01*
X137001Y204029D01*
X136942Y204127D01*
X136886Y204227D01*
X136834Y204329D01*
X136786Y204432D01*
X136741Y204537D01*
X136700Y204644D01*
X136663Y204752D01*
X136630Y204862D01*
X136600Y204972D01*
X136575Y205083D01*
X136553Y205195D01*
X136535Y205308D01*
X136521Y205422D01*
X136511Y205536D01*
X136505Y205650D01*
X136503Y205764D01*
X123469Y189031D02*
X116103Y189031D01*
X116103Y191077D01*
X116105Y191166D01*
X116111Y191255D01*
X116121Y191344D01*
X116134Y191432D01*
X116151Y191520D01*
X116173Y191607D01*
X116198Y191692D01*
X116226Y191777D01*
X116259Y191860D01*
X116295Y191942D01*
X116334Y192022D01*
X116377Y192100D01*
X116423Y192176D01*
X116473Y192251D01*
X116526Y192323D01*
X116582Y192392D01*
X116641Y192459D01*
X116702Y192524D01*
X116767Y192585D01*
X116834Y192644D01*
X116903Y192700D01*
X116975Y192753D01*
X117050Y192803D01*
X117126Y192849D01*
X117204Y192892D01*
X117284Y192931D01*
X117366Y192967D01*
X117449Y193000D01*
X117534Y193028D01*
X117619Y193053D01*
X117706Y193075D01*
X117794Y193092D01*
X117882Y193105D01*
X117971Y193115D01*
X118060Y193121D01*
X118149Y193123D01*
X118238Y193121D01*
X118327Y193115D01*
X118416Y193105D01*
X118504Y193092D01*
X118592Y193075D01*
X118679Y193053D01*
X118764Y193028D01*
X118849Y193000D01*
X118932Y192967D01*
X119014Y192931D01*
X119094Y192892D01*
X119172Y192849D01*
X119248Y192803D01*
X119323Y192753D01*
X119395Y192700D01*
X119464Y192644D01*
X119531Y192585D01*
X119596Y192524D01*
X119657Y192459D01*
X119716Y192392D01*
X119772Y192323D01*
X119825Y192251D01*
X119875Y192176D01*
X119921Y192100D01*
X119964Y192022D01*
X120003Y191942D01*
X120039Y191860D01*
X120072Y191777D01*
X120100Y191692D01*
X120125Y191607D01*
X120147Y191520D01*
X120164Y191432D01*
X120177Y191344D01*
X120187Y191255D01*
X120193Y191166D01*
X120195Y191077D01*
X120195Y189031D01*
X120195Y191486D02*
X123469Y193123D01*
X123469Y196657D02*
X116103Y196657D01*
X116103Y198703D01*
X116105Y198792D01*
X116111Y198881D01*
X116121Y198970D01*
X116134Y199058D01*
X116151Y199146D01*
X116173Y199233D01*
X116198Y199318D01*
X116226Y199403D01*
X116259Y199486D01*
X116295Y199568D01*
X116334Y199648D01*
X116377Y199726D01*
X116423Y199802D01*
X116473Y199877D01*
X116526Y199949D01*
X116582Y200018D01*
X116641Y200085D01*
X116702Y200150D01*
X116767Y200211D01*
X116834Y200270D01*
X116903Y200326D01*
X116975Y200379D01*
X117050Y200429D01*
X117126Y200475D01*
X117204Y200518D01*
X117284Y200557D01*
X117366Y200593D01*
X117449Y200626D01*
X117534Y200654D01*
X117619Y200679D01*
X117706Y200701D01*
X117794Y200718D01*
X117882Y200731D01*
X117971Y200741D01*
X118060Y200747D01*
X118149Y200749D01*
X118238Y200747D01*
X118327Y200741D01*
X118416Y200731D01*
X118504Y200718D01*
X118592Y200701D01*
X118679Y200679D01*
X118764Y200654D01*
X118849Y200626D01*
X118932Y200593D01*
X119014Y200557D01*
X119094Y200518D01*
X119172Y200475D01*
X119248Y200429D01*
X119323Y200379D01*
X119395Y200326D01*
X119464Y200270D01*
X119531Y200211D01*
X119596Y200150D01*
X119657Y200085D01*
X119716Y200018D01*
X119772Y199949D01*
X119825Y199877D01*
X119875Y199802D01*
X119921Y199726D01*
X119964Y199648D01*
X120003Y199568D01*
X120039Y199486D01*
X120072Y199403D01*
X120100Y199318D01*
X120125Y199233D01*
X120147Y199146D01*
X120164Y199058D01*
X120177Y198970D01*
X120187Y198881D01*
X120193Y198792D01*
X120195Y198703D01*
X120195Y196657D01*
X121423Y203854D02*
X116103Y203854D01*
X121423Y203854D02*
X121512Y203856D01*
X121601Y203862D01*
X121690Y203872D01*
X121778Y203885D01*
X121866Y203902D01*
X121953Y203924D01*
X122038Y203949D01*
X122123Y203977D01*
X122206Y204010D01*
X122288Y204046D01*
X122368Y204085D01*
X122446Y204128D01*
X122522Y204174D01*
X122597Y204224D01*
X122669Y204277D01*
X122738Y204333D01*
X122805Y204392D01*
X122870Y204453D01*
X122931Y204518D01*
X122990Y204585D01*
X123046Y204654D01*
X123099Y204726D01*
X123149Y204801D01*
X123195Y204877D01*
X123238Y204955D01*
X123277Y205035D01*
X123313Y205117D01*
X123346Y205200D01*
X123374Y205285D01*
X123399Y205370D01*
X123421Y205457D01*
X123438Y205545D01*
X123451Y205633D01*
X123461Y205722D01*
X123467Y205811D01*
X123469Y205900D01*
X123467Y205989D01*
X123461Y206078D01*
X123451Y206167D01*
X123438Y206255D01*
X123421Y206343D01*
X123399Y206430D01*
X123374Y206515D01*
X123346Y206600D01*
X123313Y206683D01*
X123277Y206765D01*
X123238Y206845D01*
X123195Y206923D01*
X123149Y206999D01*
X123099Y207074D01*
X123046Y207146D01*
X122990Y207215D01*
X122931Y207282D01*
X122870Y207347D01*
X122805Y207408D01*
X122738Y207467D01*
X122669Y207523D01*
X122597Y207576D01*
X122522Y207626D01*
X122446Y207672D01*
X122368Y207715D01*
X122288Y207754D01*
X122206Y207790D01*
X122123Y207823D01*
X122038Y207851D01*
X121953Y207876D01*
X121866Y207898D01*
X121778Y207915D01*
X121690Y207928D01*
X121601Y207938D01*
X121512Y207944D01*
X121423Y207946D01*
X116103Y207946D01*
X117740Y211413D02*
X116103Y213459D01*
X123469Y213459D01*
X123469Y211413D02*
X123469Y215505D01*
X157503Y189031D02*
X164869Y189031D01*
X157503Y189031D02*
X157503Y191077D01*
X157505Y191166D01*
X157511Y191255D01*
X157521Y191344D01*
X157534Y191432D01*
X157551Y191520D01*
X157573Y191607D01*
X157598Y191692D01*
X157626Y191777D01*
X157659Y191860D01*
X157695Y191942D01*
X157734Y192022D01*
X157777Y192100D01*
X157823Y192176D01*
X157873Y192251D01*
X157926Y192323D01*
X157982Y192392D01*
X158041Y192459D01*
X158102Y192524D01*
X158167Y192585D01*
X158234Y192644D01*
X158303Y192700D01*
X158375Y192753D01*
X158450Y192803D01*
X158526Y192849D01*
X158604Y192892D01*
X158684Y192931D01*
X158766Y192967D01*
X158849Y193000D01*
X158934Y193028D01*
X159019Y193053D01*
X159106Y193075D01*
X159194Y193092D01*
X159282Y193105D01*
X159371Y193115D01*
X159460Y193121D01*
X159549Y193123D01*
X159638Y193121D01*
X159727Y193115D01*
X159816Y193105D01*
X159904Y193092D01*
X159992Y193075D01*
X160079Y193053D01*
X160164Y193028D01*
X160249Y193000D01*
X160332Y192967D01*
X160414Y192931D01*
X160494Y192892D01*
X160572Y192849D01*
X160648Y192803D01*
X160723Y192753D01*
X160795Y192700D01*
X160864Y192644D01*
X160931Y192585D01*
X160996Y192524D01*
X161057Y192459D01*
X161116Y192392D01*
X161172Y192323D01*
X161225Y192251D01*
X161275Y192176D01*
X161321Y192100D01*
X161364Y192022D01*
X161403Y191942D01*
X161439Y191860D01*
X161472Y191777D01*
X161500Y191692D01*
X161525Y191607D01*
X161547Y191520D01*
X161564Y191432D01*
X161577Y191344D01*
X161587Y191255D01*
X161593Y191166D01*
X161595Y191077D01*
X161595Y189031D01*
X161595Y191486D02*
X164869Y193123D01*
X164869Y196657D02*
X157503Y196657D01*
X157503Y198703D01*
X157505Y198792D01*
X157511Y198881D01*
X157521Y198970D01*
X157534Y199058D01*
X157551Y199146D01*
X157573Y199233D01*
X157598Y199318D01*
X157626Y199403D01*
X157659Y199486D01*
X157695Y199568D01*
X157734Y199648D01*
X157777Y199726D01*
X157823Y199802D01*
X157873Y199877D01*
X157926Y199949D01*
X157982Y200018D01*
X158041Y200085D01*
X158102Y200150D01*
X158167Y200211D01*
X158234Y200270D01*
X158303Y200326D01*
X158375Y200379D01*
X158450Y200429D01*
X158526Y200475D01*
X158604Y200518D01*
X158684Y200557D01*
X158766Y200593D01*
X158849Y200626D01*
X158934Y200654D01*
X159019Y200679D01*
X159106Y200701D01*
X159194Y200718D01*
X159282Y200731D01*
X159371Y200741D01*
X159460Y200747D01*
X159549Y200749D01*
X159638Y200747D01*
X159727Y200741D01*
X159816Y200731D01*
X159904Y200718D01*
X159992Y200701D01*
X160079Y200679D01*
X160164Y200654D01*
X160249Y200626D01*
X160332Y200593D01*
X160414Y200557D01*
X160494Y200518D01*
X160572Y200475D01*
X160648Y200429D01*
X160723Y200379D01*
X160795Y200326D01*
X160864Y200270D01*
X160931Y200211D01*
X160996Y200150D01*
X161057Y200085D01*
X161116Y200018D01*
X161172Y199949D01*
X161225Y199877D01*
X161275Y199802D01*
X161321Y199726D01*
X161364Y199648D01*
X161403Y199568D01*
X161439Y199486D01*
X161472Y199403D01*
X161500Y199318D01*
X161525Y199233D01*
X161547Y199146D01*
X161564Y199058D01*
X161577Y198970D01*
X161587Y198881D01*
X161593Y198792D01*
X161595Y198703D01*
X161595Y196657D01*
X162823Y203854D02*
X157503Y203854D01*
X162823Y203854D02*
X162912Y203856D01*
X163001Y203862D01*
X163090Y203872D01*
X163178Y203885D01*
X163266Y203902D01*
X163353Y203924D01*
X163438Y203949D01*
X163523Y203977D01*
X163606Y204010D01*
X163688Y204046D01*
X163768Y204085D01*
X163846Y204128D01*
X163922Y204174D01*
X163997Y204224D01*
X164069Y204277D01*
X164138Y204333D01*
X164205Y204392D01*
X164270Y204453D01*
X164331Y204518D01*
X164390Y204585D01*
X164446Y204654D01*
X164499Y204726D01*
X164549Y204801D01*
X164595Y204877D01*
X164638Y204955D01*
X164677Y205035D01*
X164713Y205117D01*
X164746Y205200D01*
X164774Y205285D01*
X164799Y205370D01*
X164821Y205457D01*
X164838Y205545D01*
X164851Y205633D01*
X164861Y205722D01*
X164867Y205811D01*
X164869Y205900D01*
X164867Y205989D01*
X164861Y206078D01*
X164851Y206167D01*
X164838Y206255D01*
X164821Y206343D01*
X164799Y206430D01*
X164774Y206515D01*
X164746Y206600D01*
X164713Y206683D01*
X164677Y206765D01*
X164638Y206845D01*
X164595Y206923D01*
X164549Y206999D01*
X164499Y207074D01*
X164446Y207146D01*
X164390Y207215D01*
X164331Y207282D01*
X164270Y207347D01*
X164205Y207408D01*
X164138Y207467D01*
X164069Y207523D01*
X163997Y207576D01*
X163922Y207626D01*
X163846Y207672D01*
X163768Y207715D01*
X163688Y207754D01*
X163606Y207790D01*
X163523Y207823D01*
X163438Y207851D01*
X163353Y207876D01*
X163266Y207898D01*
X163178Y207915D01*
X163090Y207928D01*
X163001Y207938D01*
X162912Y207944D01*
X162823Y207946D01*
X157503Y207946D01*
X157503Y213664D02*
X157505Y213749D01*
X157511Y213834D01*
X157521Y213918D01*
X157534Y214002D01*
X157552Y214086D01*
X157573Y214168D01*
X157598Y214249D01*
X157627Y214329D01*
X157660Y214408D01*
X157696Y214485D01*
X157736Y214560D01*
X157779Y214634D01*
X157825Y214705D01*
X157875Y214774D01*
X157928Y214841D01*
X157984Y214905D01*
X158043Y214966D01*
X158104Y215025D01*
X158168Y215081D01*
X158235Y215134D01*
X158304Y215184D01*
X158375Y215230D01*
X158449Y215273D01*
X158524Y215313D01*
X158601Y215349D01*
X158680Y215382D01*
X158760Y215411D01*
X158841Y215436D01*
X158923Y215457D01*
X159007Y215475D01*
X159091Y215488D01*
X159175Y215498D01*
X159260Y215504D01*
X159345Y215506D01*
X157503Y213664D02*
X157505Y213568D01*
X157511Y213472D01*
X157521Y213377D01*
X157534Y213282D01*
X157552Y213187D01*
X157573Y213094D01*
X157598Y213001D01*
X157627Y212910D01*
X157659Y212819D01*
X157695Y212730D01*
X157735Y212643D01*
X157778Y212557D01*
X157824Y212473D01*
X157874Y212391D01*
X157928Y212311D01*
X157984Y212234D01*
X158044Y212159D01*
X158106Y212086D01*
X158172Y212016D01*
X158240Y211948D01*
X158311Y211883D01*
X158384Y211822D01*
X158460Y211763D01*
X158539Y211707D01*
X158619Y211655D01*
X158702Y211606D01*
X158786Y211560D01*
X158872Y211518D01*
X158960Y211480D01*
X159049Y211445D01*
X159140Y211413D01*
X160777Y214891D02*
X160718Y214951D01*
X160656Y215008D01*
X160592Y215063D01*
X160525Y215114D01*
X160456Y215163D01*
X160386Y215209D01*
X160313Y215252D01*
X160239Y215292D01*
X160163Y215328D01*
X160085Y215361D01*
X160006Y215391D01*
X159926Y215418D01*
X159845Y215441D01*
X159763Y215460D01*
X159681Y215476D01*
X159597Y215489D01*
X159513Y215498D01*
X159429Y215503D01*
X159345Y215505D01*
X160777Y214891D02*
X164869Y211413D01*
X164869Y215505D01*
D11*
X77162Y169616D02*
X77162Y268168D01*
X26616Y268168D01*
X26616Y169616D01*
X77162Y169616D01*
D12*
X51000Y155646D02*
X51122Y155644D01*
X51244Y155638D01*
X51366Y155628D01*
X51487Y155615D01*
X51608Y155597D01*
X51728Y155576D01*
X51848Y155550D01*
X51966Y155521D01*
X52084Y155489D01*
X52201Y155452D01*
X52316Y155412D01*
X52430Y155368D01*
X52542Y155320D01*
X52653Y155269D01*
X52762Y155214D01*
X52870Y155156D01*
X52975Y155094D01*
X53078Y155029D01*
X53180Y154961D01*
X53279Y154889D01*
X53375Y154815D01*
X53470Y154737D01*
X53561Y154656D01*
X53651Y154573D01*
X53737Y154487D01*
X53820Y154397D01*
X53901Y154306D01*
X53979Y154211D01*
X54053Y154115D01*
X54125Y154016D01*
X54193Y153914D01*
X54258Y153811D01*
X54320Y153706D01*
X54378Y153598D01*
X54433Y153489D01*
X54484Y153378D01*
X54532Y153266D01*
X54576Y153152D01*
X54616Y153037D01*
X54653Y152920D01*
X54685Y152802D01*
X54714Y152684D01*
X54740Y152564D01*
X54761Y152444D01*
X54779Y152323D01*
X54792Y152202D01*
X54802Y152080D01*
X54808Y151958D01*
X54810Y151836D01*
X54808Y151714D01*
X54802Y151592D01*
X54792Y151470D01*
X54779Y151349D01*
X54761Y151228D01*
X54740Y151108D01*
X54714Y150988D01*
X54685Y150870D01*
X54653Y150752D01*
X54616Y150635D01*
X54576Y150520D01*
X54532Y150406D01*
X54484Y150294D01*
X54433Y150183D01*
X54378Y150074D01*
X54320Y149966D01*
X54258Y149861D01*
X54193Y149758D01*
X54125Y149656D01*
X54053Y149557D01*
X53979Y149461D01*
X53901Y149366D01*
X53820Y149275D01*
X53737Y149185D01*
X53651Y149099D01*
X53561Y149016D01*
X53470Y148935D01*
X53375Y148857D01*
X53279Y148783D01*
X53180Y148711D01*
X53078Y148643D01*
X52975Y148578D01*
X52870Y148516D01*
X52762Y148458D01*
X52653Y148403D01*
X52542Y148352D01*
X52430Y148304D01*
X52316Y148260D01*
X52201Y148220D01*
X52084Y148183D01*
X51966Y148151D01*
X51848Y148122D01*
X51728Y148096D01*
X51608Y148075D01*
X51487Y148057D01*
X51366Y148044D01*
X51244Y148034D01*
X51122Y148028D01*
X51000Y148026D01*
X50878Y148028D01*
X50756Y148034D01*
X50634Y148044D01*
X50513Y148057D01*
X50392Y148075D01*
X50272Y148096D01*
X50152Y148122D01*
X50034Y148151D01*
X49916Y148183D01*
X49799Y148220D01*
X49684Y148260D01*
X49570Y148304D01*
X49458Y148352D01*
X49347Y148403D01*
X49238Y148458D01*
X49130Y148516D01*
X49025Y148578D01*
X48922Y148643D01*
X48820Y148711D01*
X48721Y148783D01*
X48625Y148857D01*
X48530Y148935D01*
X48439Y149016D01*
X48349Y149099D01*
X48263Y149185D01*
X48180Y149275D01*
X48099Y149366D01*
X48021Y149461D01*
X47947Y149557D01*
X47875Y149656D01*
X47807Y149758D01*
X47742Y149861D01*
X47680Y149966D01*
X47622Y150074D01*
X47567Y150183D01*
X47516Y150294D01*
X47468Y150406D01*
X47424Y150520D01*
X47384Y150635D01*
X47347Y150752D01*
X47315Y150870D01*
X47286Y150988D01*
X47260Y151108D01*
X47239Y151228D01*
X47221Y151349D01*
X47208Y151470D01*
X47198Y151592D01*
X47192Y151714D01*
X47190Y151836D01*
X47192Y151958D01*
X47198Y152080D01*
X47208Y152202D01*
X47221Y152323D01*
X47239Y152444D01*
X47260Y152564D01*
X47286Y152684D01*
X47315Y152802D01*
X47347Y152920D01*
X47384Y153037D01*
X47424Y153152D01*
X47468Y153266D01*
X47516Y153378D01*
X47567Y153489D01*
X47622Y153598D01*
X47680Y153706D01*
X47742Y153811D01*
X47807Y153914D01*
X47875Y154016D01*
X47947Y154115D01*
X48021Y154211D01*
X48099Y154306D01*
X48180Y154397D01*
X48263Y154487D01*
X48349Y154573D01*
X48439Y154656D01*
X48530Y154737D01*
X48625Y154815D01*
X48721Y154889D01*
X48820Y154961D01*
X48922Y155029D01*
X49025Y155094D01*
X49130Y155156D01*
X49238Y155214D01*
X49347Y155269D01*
X49458Y155320D01*
X49570Y155368D01*
X49684Y155412D01*
X49799Y155452D01*
X49916Y155489D01*
X50034Y155521D01*
X50152Y155550D01*
X50272Y155576D01*
X50392Y155597D01*
X50513Y155615D01*
X50634Y155628D01*
X50756Y155638D01*
X50878Y155644D01*
X51000Y155646D01*
D10*
X20869Y172087D02*
X8931Y172087D01*
X20869Y170761D02*
X20869Y173414D01*
X8931Y173414D02*
X8931Y170761D01*
X8931Y178316D02*
X20869Y178316D01*
X20869Y183622D01*
X20869Y188851D02*
X8931Y188851D01*
X20869Y187525D02*
X20869Y190178D01*
X8931Y190178D02*
X8931Y187525D01*
X8931Y195159D02*
X20869Y195159D01*
X15563Y199138D02*
X8931Y195159D01*
X15563Y199138D02*
X8931Y203118D01*
X20869Y203118D01*
X22195Y207916D02*
X22195Y213221D01*
X14237Y218068D02*
X14237Y221385D01*
X14239Y221499D01*
X14245Y221614D01*
X14255Y221728D01*
X14269Y221841D01*
X14286Y221955D01*
X14308Y222067D01*
X14333Y222179D01*
X14363Y222289D01*
X14396Y222399D01*
X14433Y222507D01*
X14473Y222614D01*
X14518Y222720D01*
X14565Y222824D01*
X14617Y222926D01*
X14672Y223026D01*
X14730Y223125D01*
X14792Y223221D01*
X14857Y223316D01*
X14925Y223407D01*
X14997Y223497D01*
X15071Y223584D01*
X15148Y223668D01*
X15229Y223750D01*
X15312Y223829D01*
X15397Y223905D01*
X15486Y223978D01*
X15576Y224047D01*
X15669Y224114D01*
X15765Y224177D01*
X15862Y224237D01*
X15962Y224294D01*
X16063Y224347D01*
X16166Y224397D01*
X16271Y224443D01*
X16377Y224486D01*
X16485Y224524D01*
X16594Y224559D01*
X16704Y224590D01*
X16815Y224618D01*
X16927Y224641D01*
X17040Y224661D01*
X17153Y224677D01*
X17267Y224689D01*
X17381Y224697D01*
X17496Y224701D01*
X17610Y224701D01*
X17725Y224697D01*
X17839Y224689D01*
X17953Y224677D01*
X18066Y224661D01*
X18179Y224641D01*
X18291Y224618D01*
X18402Y224590D01*
X18512Y224559D01*
X18621Y224524D01*
X18729Y224486D01*
X18835Y224443D01*
X18940Y224397D01*
X19043Y224347D01*
X19144Y224294D01*
X19244Y224237D01*
X19341Y224177D01*
X19437Y224114D01*
X19530Y224047D01*
X19620Y223978D01*
X19709Y223905D01*
X19794Y223829D01*
X19877Y223750D01*
X19958Y223668D01*
X20035Y223584D01*
X20109Y223497D01*
X20181Y223407D01*
X20249Y223316D01*
X20314Y223221D01*
X20376Y223125D01*
X20434Y223026D01*
X20489Y222926D01*
X20541Y222824D01*
X20588Y222720D01*
X20633Y222614D01*
X20673Y222507D01*
X20710Y222399D01*
X20743Y222289D01*
X20773Y222179D01*
X20798Y222067D01*
X20820Y221955D01*
X20837Y221841D01*
X20851Y221728D01*
X20861Y221614D01*
X20867Y221499D01*
X20869Y221385D01*
X20869Y218068D01*
X8931Y218068D01*
X8931Y221385D01*
X8933Y221487D01*
X8939Y221588D01*
X8949Y221689D01*
X8962Y221790D01*
X8980Y221890D01*
X9001Y221989D01*
X9026Y222088D01*
X9055Y222185D01*
X9087Y222282D01*
X9123Y222377D01*
X9163Y222470D01*
X9206Y222562D01*
X9253Y222652D01*
X9304Y222741D01*
X9357Y222827D01*
X9414Y222911D01*
X9474Y222993D01*
X9537Y223073D01*
X9603Y223150D01*
X9672Y223225D01*
X9744Y223297D01*
X9819Y223366D01*
X9896Y223432D01*
X9976Y223495D01*
X10058Y223555D01*
X10142Y223612D01*
X10228Y223665D01*
X10317Y223716D01*
X10407Y223763D01*
X10499Y223806D01*
X10592Y223846D01*
X10687Y223882D01*
X10784Y223914D01*
X10881Y223943D01*
X10980Y223968D01*
X11079Y223989D01*
X11179Y224007D01*
X11280Y224020D01*
X11381Y224030D01*
X11482Y224036D01*
X11584Y224038D01*
X11686Y224036D01*
X11787Y224030D01*
X11888Y224020D01*
X11989Y224007D01*
X12089Y223989D01*
X12188Y223968D01*
X12287Y223943D01*
X12384Y223914D01*
X12481Y223882D01*
X12576Y223846D01*
X12669Y223806D01*
X12761Y223763D01*
X12851Y223716D01*
X12940Y223665D01*
X13026Y223612D01*
X13110Y223555D01*
X13192Y223495D01*
X13272Y223432D01*
X13349Y223366D01*
X13424Y223297D01*
X13496Y223225D01*
X13565Y223150D01*
X13631Y223073D01*
X13694Y222993D01*
X13754Y222911D01*
X13811Y222827D01*
X13864Y222741D01*
X13915Y222652D01*
X13962Y222562D01*
X14005Y222470D01*
X14045Y222377D01*
X14081Y222282D01*
X14113Y222185D01*
X14142Y222088D01*
X14167Y221989D01*
X14188Y221890D01*
X14206Y221790D01*
X14219Y221689D01*
X14229Y221588D01*
X14235Y221487D01*
X14237Y221385D01*
X8931Y229415D02*
X20869Y229415D01*
X8931Y229415D02*
X8931Y232731D01*
X8933Y232845D01*
X8939Y232960D01*
X8949Y233074D01*
X8963Y233187D01*
X8980Y233301D01*
X9002Y233413D01*
X9027Y233525D01*
X9057Y233635D01*
X9090Y233745D01*
X9127Y233853D01*
X9167Y233960D01*
X9212Y234066D01*
X9259Y234170D01*
X9311Y234272D01*
X9366Y234372D01*
X9424Y234471D01*
X9486Y234567D01*
X9551Y234662D01*
X9619Y234753D01*
X9691Y234843D01*
X9765Y234930D01*
X9842Y235014D01*
X9923Y235096D01*
X10006Y235175D01*
X10091Y235251D01*
X10180Y235324D01*
X10270Y235393D01*
X10363Y235460D01*
X10459Y235523D01*
X10556Y235583D01*
X10656Y235640D01*
X10757Y235693D01*
X10860Y235743D01*
X10965Y235789D01*
X11071Y235832D01*
X11179Y235870D01*
X11288Y235905D01*
X11398Y235936D01*
X11509Y235964D01*
X11621Y235987D01*
X11734Y236007D01*
X11847Y236023D01*
X11961Y236035D01*
X12075Y236043D01*
X12190Y236047D01*
X12304Y236047D01*
X12419Y236043D01*
X12533Y236035D01*
X12647Y236023D01*
X12760Y236007D01*
X12873Y235987D01*
X12985Y235964D01*
X13096Y235936D01*
X13206Y235905D01*
X13315Y235870D01*
X13423Y235832D01*
X13529Y235789D01*
X13634Y235743D01*
X13737Y235693D01*
X13838Y235640D01*
X13938Y235583D01*
X14035Y235523D01*
X14131Y235460D01*
X14224Y235393D01*
X14314Y235324D01*
X14403Y235251D01*
X14488Y235175D01*
X14571Y235096D01*
X14652Y235014D01*
X14729Y234930D01*
X14803Y234843D01*
X14875Y234753D01*
X14943Y234662D01*
X15008Y234567D01*
X15070Y234471D01*
X15128Y234372D01*
X15183Y234272D01*
X15235Y234170D01*
X15282Y234066D01*
X15327Y233960D01*
X15367Y233853D01*
X15404Y233745D01*
X15437Y233635D01*
X15467Y233525D01*
X15492Y233413D01*
X15514Y233301D01*
X15531Y233187D01*
X15545Y233074D01*
X15555Y232960D01*
X15561Y232845D01*
X15563Y232731D01*
X15563Y229415D01*
X15563Y233394D02*
X20869Y236047D01*
X20869Y241161D02*
X8931Y241161D01*
X8931Y244477D01*
X8933Y244590D01*
X8939Y244703D01*
X8948Y244816D01*
X8962Y244929D01*
X8979Y245040D01*
X9000Y245152D01*
X9025Y245262D01*
X9054Y245372D01*
X9086Y245480D01*
X9122Y245587D01*
X9162Y245693D01*
X9206Y245798D01*
X9252Y245901D01*
X9303Y246003D01*
X9357Y246102D01*
X9414Y246200D01*
X9474Y246296D01*
X9538Y246389D01*
X9605Y246481D01*
X9675Y246570D01*
X9748Y246656D01*
X9824Y246740D01*
X9902Y246822D01*
X9984Y246900D01*
X10068Y246976D01*
X10154Y247049D01*
X10243Y247119D01*
X10335Y247186D01*
X10428Y247250D01*
X10524Y247310D01*
X10622Y247367D01*
X10721Y247421D01*
X10823Y247472D01*
X10926Y247518D01*
X11031Y247562D01*
X11137Y247602D01*
X11244Y247638D01*
X11352Y247670D01*
X11462Y247699D01*
X11572Y247724D01*
X11684Y247745D01*
X11795Y247762D01*
X11908Y247776D01*
X12021Y247785D01*
X12134Y247791D01*
X12247Y247793D01*
X17553Y247793D01*
X17666Y247791D01*
X17779Y247785D01*
X17892Y247776D01*
X18005Y247762D01*
X18116Y247745D01*
X18228Y247724D01*
X18338Y247699D01*
X18448Y247670D01*
X18556Y247638D01*
X18663Y247602D01*
X18769Y247562D01*
X18874Y247518D01*
X18977Y247472D01*
X19079Y247421D01*
X19178Y247367D01*
X19276Y247310D01*
X19372Y247250D01*
X19465Y247186D01*
X19557Y247119D01*
X19646Y247049D01*
X19732Y246976D01*
X19816Y246900D01*
X19898Y246822D01*
X19976Y246740D01*
X20052Y246656D01*
X20125Y246570D01*
X20195Y246481D01*
X20262Y246389D01*
X20326Y246296D01*
X20386Y246200D01*
X20443Y246102D01*
X20497Y246003D01*
X20548Y245901D01*
X20594Y245798D01*
X20638Y245693D01*
X20678Y245587D01*
X20714Y245480D01*
X20746Y245372D01*
X20775Y245262D01*
X20800Y245152D01*
X20821Y245040D01*
X20838Y244929D01*
X20852Y244816D01*
X20861Y244703D01*
X20867Y244590D01*
X20869Y244477D01*
X20869Y241161D01*
X14237Y257996D02*
X14237Y259985D01*
X20869Y259985D01*
X20869Y256006D01*
X20867Y255904D01*
X20861Y255803D01*
X20851Y255702D01*
X20838Y255601D01*
X20820Y255501D01*
X20799Y255402D01*
X20774Y255303D01*
X20745Y255206D01*
X20713Y255109D01*
X20677Y255014D01*
X20637Y254921D01*
X20594Y254829D01*
X20547Y254739D01*
X20496Y254650D01*
X20443Y254564D01*
X20386Y254480D01*
X20326Y254398D01*
X20263Y254318D01*
X20197Y254241D01*
X20128Y254166D01*
X20056Y254094D01*
X19981Y254025D01*
X19904Y253959D01*
X19824Y253896D01*
X19742Y253836D01*
X19658Y253779D01*
X19572Y253726D01*
X19483Y253675D01*
X19393Y253628D01*
X19301Y253585D01*
X19208Y253545D01*
X19113Y253509D01*
X19016Y253477D01*
X18919Y253448D01*
X18820Y253423D01*
X18721Y253402D01*
X18621Y253384D01*
X18520Y253371D01*
X18419Y253361D01*
X18318Y253355D01*
X18216Y253353D01*
X11584Y253353D01*
X11482Y253355D01*
X11381Y253361D01*
X11280Y253371D01*
X11179Y253384D01*
X11079Y253402D01*
X10980Y253423D01*
X10881Y253448D01*
X10784Y253477D01*
X10687Y253509D01*
X10592Y253545D01*
X10499Y253585D01*
X10407Y253628D01*
X10317Y253675D01*
X10228Y253726D01*
X10142Y253779D01*
X10058Y253836D01*
X9976Y253896D01*
X9896Y253959D01*
X9819Y254025D01*
X9744Y254094D01*
X9672Y254166D01*
X9603Y254241D01*
X9537Y254318D01*
X9474Y254398D01*
X9414Y254480D01*
X9357Y254564D01*
X9304Y254650D01*
X9253Y254739D01*
X9206Y254829D01*
X9163Y254921D01*
X9123Y255014D01*
X9087Y255109D01*
X9055Y255205D01*
X9026Y255303D01*
X9001Y255401D01*
X8980Y255501D01*
X8962Y255601D01*
X8949Y255702D01*
X8939Y255803D01*
X8933Y255904D01*
X8931Y256006D01*
X8931Y259985D01*
X52273Y270903D02*
X52273Y278269D01*
X54319Y278269D01*
X54408Y278267D01*
X54497Y278261D01*
X54586Y278251D01*
X54674Y278238D01*
X54762Y278221D01*
X54849Y278199D01*
X54934Y278174D01*
X55019Y278146D01*
X55102Y278113D01*
X55184Y278077D01*
X55264Y278038D01*
X55342Y277995D01*
X55418Y277949D01*
X55493Y277899D01*
X55565Y277846D01*
X55634Y277790D01*
X55701Y277731D01*
X55766Y277670D01*
X55827Y277605D01*
X55886Y277538D01*
X55942Y277469D01*
X55995Y277397D01*
X56045Y277322D01*
X56091Y277246D01*
X56134Y277168D01*
X56173Y277088D01*
X56209Y277006D01*
X56242Y276923D01*
X56270Y276838D01*
X56295Y276753D01*
X56317Y276666D01*
X56334Y276578D01*
X56347Y276490D01*
X56357Y276401D01*
X56363Y276312D01*
X56365Y276223D01*
X56363Y276134D01*
X56357Y276045D01*
X56347Y275956D01*
X56334Y275868D01*
X56317Y275780D01*
X56295Y275693D01*
X56270Y275608D01*
X56242Y275523D01*
X56209Y275440D01*
X56173Y275358D01*
X56134Y275278D01*
X56091Y275200D01*
X56045Y275124D01*
X55995Y275049D01*
X55942Y274977D01*
X55886Y274908D01*
X55827Y274841D01*
X55766Y274776D01*
X55701Y274715D01*
X55634Y274656D01*
X55565Y274600D01*
X55493Y274547D01*
X55418Y274497D01*
X55342Y274451D01*
X55264Y274408D01*
X55184Y274369D01*
X55102Y274333D01*
X55019Y274300D01*
X54934Y274272D01*
X54849Y274247D01*
X54762Y274225D01*
X54674Y274208D01*
X54586Y274195D01*
X54497Y274185D01*
X54408Y274179D01*
X54319Y274177D01*
X52273Y274177D01*
X54728Y274177D02*
X56365Y270903D01*
X59797Y270903D02*
X63070Y270903D01*
X59797Y270903D02*
X59797Y278269D01*
X63070Y278269D01*
X62252Y274995D02*
X59797Y274995D01*
X65877Y276632D02*
X67923Y278269D01*
X67923Y270903D01*
X65877Y270903D02*
X69969Y270903D01*
D13*
X294500Y108000D02*
X294502Y108063D01*
X294508Y108125D01*
X294518Y108187D01*
X294531Y108249D01*
X294549Y108309D01*
X294570Y108368D01*
X294595Y108426D01*
X294624Y108482D01*
X294656Y108536D01*
X294691Y108588D01*
X294729Y108637D01*
X294771Y108685D01*
X294815Y108729D01*
X294863Y108771D01*
X294912Y108809D01*
X294964Y108844D01*
X295018Y108876D01*
X295074Y108905D01*
X295132Y108930D01*
X295191Y108951D01*
X295251Y108969D01*
X295313Y108982D01*
X295375Y108992D01*
X295437Y108998D01*
X295500Y109000D01*
X295563Y108998D01*
X295625Y108992D01*
X295687Y108982D01*
X295749Y108969D01*
X295809Y108951D01*
X295868Y108930D01*
X295926Y108905D01*
X295982Y108876D01*
X296036Y108844D01*
X296088Y108809D01*
X296137Y108771D01*
X296185Y108729D01*
X296229Y108685D01*
X296271Y108637D01*
X296309Y108588D01*
X296344Y108536D01*
X296376Y108482D01*
X296405Y108426D01*
X296430Y108368D01*
X296451Y108309D01*
X296469Y108249D01*
X296482Y108187D01*
X296492Y108125D01*
X296498Y108063D01*
X296500Y108000D01*
X296498Y107937D01*
X296492Y107875D01*
X296482Y107813D01*
X296469Y107751D01*
X296451Y107691D01*
X296430Y107632D01*
X296405Y107574D01*
X296376Y107518D01*
X296344Y107464D01*
X296309Y107412D01*
X296271Y107363D01*
X296229Y107315D01*
X296185Y107271D01*
X296137Y107229D01*
X296088Y107191D01*
X296036Y107156D01*
X295982Y107124D01*
X295926Y107095D01*
X295868Y107070D01*
X295809Y107049D01*
X295749Y107031D01*
X295687Y107018D01*
X295625Y107008D01*
X295563Y107002D01*
X295500Y107000D01*
X295437Y107002D01*
X295375Y107008D01*
X295313Y107018D01*
X295251Y107031D01*
X295191Y107049D01*
X295132Y107070D01*
X295074Y107095D01*
X295018Y107124D01*
X294964Y107156D01*
X294912Y107191D01*
X294863Y107229D01*
X294815Y107271D01*
X294771Y107315D01*
X294729Y107363D01*
X294691Y107412D01*
X294656Y107464D01*
X294624Y107518D01*
X294595Y107574D01*
X294570Y107632D01*
X294549Y107691D01*
X294531Y107751D01*
X294518Y107813D01*
X294508Y107875D01*
X294502Y107937D01*
X294500Y108000D01*
D14*
X315500Y113500D02*
X230500Y113500D01*
X315500Y113500D02*
X315500Y229500D01*
X230500Y229500D01*
X230500Y113500D01*
D15*
X238308Y132407D02*
X249992Y132407D01*
X238308Y132407D02*
X238308Y135653D01*
X238310Y135766D01*
X238316Y135879D01*
X238326Y135992D01*
X238340Y136105D01*
X238357Y136217D01*
X238379Y136328D01*
X238404Y136438D01*
X238434Y136548D01*
X238467Y136656D01*
X238504Y136763D01*
X238544Y136869D01*
X238589Y136973D01*
X238637Y137076D01*
X238688Y137177D01*
X238743Y137276D01*
X238801Y137373D01*
X238863Y137468D01*
X238928Y137561D01*
X238996Y137651D01*
X239067Y137739D01*
X239142Y137825D01*
X239219Y137908D01*
X239299Y137988D01*
X239382Y138065D01*
X239468Y138140D01*
X239556Y138211D01*
X239646Y138279D01*
X239739Y138344D01*
X239834Y138406D01*
X239931Y138464D01*
X240030Y138519D01*
X240131Y138570D01*
X240234Y138618D01*
X240338Y138663D01*
X240444Y138703D01*
X240551Y138740D01*
X240659Y138773D01*
X240769Y138803D01*
X240879Y138828D01*
X240990Y138850D01*
X241102Y138867D01*
X241215Y138881D01*
X241328Y138891D01*
X241441Y138897D01*
X241554Y138899D01*
X241667Y138897D01*
X241780Y138891D01*
X241893Y138881D01*
X242006Y138867D01*
X242118Y138850D01*
X242229Y138828D01*
X242339Y138803D01*
X242449Y138773D01*
X242557Y138740D01*
X242664Y138703D01*
X242770Y138663D01*
X242874Y138618D01*
X242977Y138570D01*
X243078Y138519D01*
X243177Y138464D01*
X243274Y138406D01*
X243369Y138344D01*
X243462Y138279D01*
X243552Y138211D01*
X243640Y138140D01*
X243726Y138065D01*
X243809Y137988D01*
X243889Y137908D01*
X243966Y137825D01*
X244041Y137739D01*
X244112Y137651D01*
X244180Y137561D01*
X244245Y137468D01*
X244307Y137373D01*
X244365Y137276D01*
X244420Y137177D01*
X244471Y137076D01*
X244519Y136973D01*
X244564Y136869D01*
X244604Y136763D01*
X244641Y136656D01*
X244674Y136548D01*
X244704Y136438D01*
X244729Y136328D01*
X244751Y136217D01*
X244768Y136105D01*
X244782Y135992D01*
X244792Y135879D01*
X244798Y135766D01*
X244800Y135653D01*
X244799Y135653D02*
X244799Y132407D01*
X249992Y146801D02*
X249990Y146900D01*
X249984Y147000D01*
X249975Y147099D01*
X249962Y147197D01*
X249945Y147295D01*
X249924Y147393D01*
X249899Y147489D01*
X249871Y147584D01*
X249839Y147678D01*
X249804Y147771D01*
X249765Y147863D01*
X249722Y147953D01*
X249677Y148041D01*
X249627Y148128D01*
X249575Y148212D01*
X249519Y148295D01*
X249461Y148375D01*
X249399Y148453D01*
X249334Y148528D01*
X249266Y148601D01*
X249196Y148671D01*
X249123Y148739D01*
X249048Y148804D01*
X248970Y148866D01*
X248890Y148924D01*
X248807Y148980D01*
X248723Y149032D01*
X248636Y149082D01*
X248548Y149127D01*
X248458Y149170D01*
X248366Y149209D01*
X248273Y149244D01*
X248179Y149276D01*
X248084Y149304D01*
X247988Y149329D01*
X247890Y149350D01*
X247792Y149367D01*
X247694Y149380D01*
X247595Y149389D01*
X247495Y149395D01*
X247396Y149397D01*
X249992Y146801D02*
X249990Y146657D01*
X249984Y146512D01*
X249975Y146368D01*
X249962Y146225D01*
X249945Y146081D01*
X249924Y145938D01*
X249899Y145796D01*
X249871Y145655D01*
X249839Y145514D01*
X249803Y145374D01*
X249764Y145235D01*
X249721Y145097D01*
X249674Y144961D01*
X249624Y144825D01*
X249570Y144691D01*
X249513Y144559D01*
X249452Y144428D01*
X249388Y144299D01*
X249320Y144171D01*
X249250Y144045D01*
X249175Y143921D01*
X249098Y143800D01*
X249017Y143680D01*
X248934Y143562D01*
X248847Y143447D01*
X248757Y143334D01*
X248664Y143223D01*
X248569Y143115D01*
X248470Y143009D01*
X248369Y142906D01*
X240904Y143231D02*
X240805Y143233D01*
X240705Y143239D01*
X240606Y143248D01*
X240508Y143261D01*
X240410Y143278D01*
X240312Y143299D01*
X240216Y143324D01*
X240121Y143352D01*
X240027Y143384D01*
X239934Y143419D01*
X239842Y143458D01*
X239752Y143501D01*
X239664Y143546D01*
X239577Y143596D01*
X239493Y143648D01*
X239410Y143704D01*
X239330Y143762D01*
X239252Y143824D01*
X239177Y143889D01*
X239104Y143957D01*
X239034Y144027D01*
X238966Y144100D01*
X238901Y144175D01*
X238839Y144253D01*
X238781Y144333D01*
X238725Y144416D01*
X238673Y144500D01*
X238623Y144587D01*
X238578Y144675D01*
X238535Y144765D01*
X238496Y144857D01*
X238461Y144950D01*
X238429Y145044D01*
X238401Y145139D01*
X238376Y145235D01*
X238355Y145333D01*
X238338Y145431D01*
X238325Y145529D01*
X238316Y145628D01*
X238310Y145728D01*
X238308Y145827D01*
X238310Y145963D01*
X238316Y146099D01*
X238325Y146235D01*
X238338Y146371D01*
X238356Y146506D01*
X238376Y146640D01*
X238401Y146774D01*
X238429Y146908D01*
X238462Y147040D01*
X238497Y147171D01*
X238537Y147302D01*
X238580Y147431D01*
X238626Y147559D01*
X238677Y147685D01*
X238730Y147811D01*
X238788Y147934D01*
X238848Y148056D01*
X238912Y148176D01*
X238980Y148295D01*
X239050Y148411D01*
X239124Y148525D01*
X239201Y148638D01*
X239282Y148748D01*
X243176Y144529D02*
X243123Y144443D01*
X243066Y144359D01*
X243007Y144277D01*
X242944Y144197D01*
X242878Y144120D01*
X242810Y144045D01*
X242738Y143973D01*
X242664Y143904D01*
X242587Y143838D01*
X242508Y143775D01*
X242426Y143715D01*
X242342Y143658D01*
X242256Y143604D01*
X242168Y143554D01*
X242078Y143507D01*
X241987Y143463D01*
X241893Y143424D01*
X241799Y143387D01*
X241703Y143355D01*
X241605Y143326D01*
X241507Y143301D01*
X241408Y143280D01*
X241308Y143262D01*
X241208Y143249D01*
X241107Y143239D01*
X241005Y143233D01*
X240904Y143231D01*
X245124Y148099D02*
X245177Y148185D01*
X245234Y148269D01*
X245293Y148351D01*
X245356Y148431D01*
X245422Y148508D01*
X245490Y148583D01*
X245562Y148655D01*
X245636Y148724D01*
X245713Y148790D01*
X245792Y148853D01*
X245874Y148913D01*
X245958Y148970D01*
X246044Y149024D01*
X246132Y149074D01*
X246222Y149121D01*
X246313Y149165D01*
X246407Y149204D01*
X246501Y149241D01*
X246597Y149273D01*
X246695Y149302D01*
X246793Y149327D01*
X246892Y149348D01*
X246992Y149366D01*
X247092Y149379D01*
X247193Y149389D01*
X247295Y149395D01*
X247396Y149397D01*
X245124Y148099D02*
X243176Y144529D01*
X246746Y154336D02*
X238308Y154336D01*
X246746Y154336D02*
X246859Y154338D01*
X246972Y154344D01*
X247085Y154354D01*
X247198Y154368D01*
X247310Y154385D01*
X247421Y154407D01*
X247531Y154432D01*
X247641Y154462D01*
X247749Y154495D01*
X247856Y154532D01*
X247962Y154572D01*
X248066Y154617D01*
X248169Y154665D01*
X248270Y154716D01*
X248369Y154771D01*
X248466Y154829D01*
X248561Y154891D01*
X248654Y154956D01*
X248744Y155024D01*
X248832Y155095D01*
X248918Y155170D01*
X249001Y155247D01*
X249081Y155327D01*
X249158Y155410D01*
X249233Y155496D01*
X249304Y155584D01*
X249372Y155674D01*
X249437Y155767D01*
X249499Y155862D01*
X249557Y155959D01*
X249612Y156058D01*
X249663Y156159D01*
X249711Y156262D01*
X249756Y156366D01*
X249796Y156472D01*
X249833Y156579D01*
X249866Y156687D01*
X249896Y156797D01*
X249921Y156907D01*
X249943Y157018D01*
X249960Y157130D01*
X249974Y157243D01*
X249984Y157356D01*
X249990Y157469D01*
X249992Y157582D01*
X249990Y157695D01*
X249984Y157808D01*
X249974Y157921D01*
X249960Y158034D01*
X249943Y158146D01*
X249921Y158257D01*
X249896Y158367D01*
X249866Y158477D01*
X249833Y158585D01*
X249796Y158692D01*
X249756Y158798D01*
X249711Y158902D01*
X249663Y159005D01*
X249612Y159106D01*
X249557Y159205D01*
X249499Y159302D01*
X249437Y159397D01*
X249372Y159490D01*
X249304Y159580D01*
X249233Y159668D01*
X249158Y159754D01*
X249081Y159837D01*
X249001Y159917D01*
X248918Y159994D01*
X248832Y160069D01*
X248744Y160140D01*
X248654Y160208D01*
X248561Y160273D01*
X248466Y160335D01*
X248369Y160393D01*
X248270Y160448D01*
X248169Y160499D01*
X248066Y160547D01*
X247962Y160592D01*
X247856Y160632D01*
X247749Y160669D01*
X247641Y160702D01*
X247531Y160732D01*
X247421Y160757D01*
X247310Y160779D01*
X247198Y160796D01*
X247085Y160810D01*
X246972Y160820D01*
X246859Y160826D01*
X246746Y160828D01*
X246746Y160827D02*
X238308Y160827D01*
X251290Y165653D02*
X251290Y170846D01*
X249992Y175291D02*
X249992Y178536D01*
X249990Y178649D01*
X249984Y178762D01*
X249974Y178875D01*
X249960Y178988D01*
X249943Y179100D01*
X249921Y179211D01*
X249896Y179321D01*
X249866Y179431D01*
X249833Y179539D01*
X249796Y179646D01*
X249756Y179752D01*
X249711Y179856D01*
X249663Y179959D01*
X249612Y180060D01*
X249557Y180159D01*
X249499Y180256D01*
X249437Y180351D01*
X249372Y180444D01*
X249304Y180534D01*
X249233Y180622D01*
X249158Y180708D01*
X249081Y180791D01*
X249001Y180871D01*
X248918Y180948D01*
X248832Y181023D01*
X248744Y181094D01*
X248654Y181162D01*
X248561Y181227D01*
X248466Y181289D01*
X248369Y181347D01*
X248270Y181402D01*
X248169Y181453D01*
X248066Y181501D01*
X247962Y181546D01*
X247856Y181586D01*
X247749Y181623D01*
X247641Y181656D01*
X247531Y181686D01*
X247421Y181711D01*
X247310Y181733D01*
X247198Y181750D01*
X247085Y181764D01*
X246972Y181774D01*
X246859Y181780D01*
X246746Y181782D01*
X246633Y181780D01*
X246520Y181774D01*
X246407Y181764D01*
X246294Y181750D01*
X246182Y181733D01*
X246071Y181711D01*
X245961Y181686D01*
X245851Y181656D01*
X245743Y181623D01*
X245636Y181586D01*
X245530Y181546D01*
X245426Y181501D01*
X245323Y181453D01*
X245222Y181402D01*
X245123Y181347D01*
X245026Y181289D01*
X244931Y181227D01*
X244838Y181162D01*
X244748Y181094D01*
X244660Y181023D01*
X244574Y180948D01*
X244491Y180871D01*
X244411Y180791D01*
X244334Y180708D01*
X244259Y180622D01*
X244188Y180534D01*
X244120Y180444D01*
X244055Y180351D01*
X243993Y180256D01*
X243935Y180159D01*
X243880Y180060D01*
X243829Y179959D01*
X243781Y179856D01*
X243736Y179752D01*
X243696Y179646D01*
X243659Y179539D01*
X243626Y179431D01*
X243596Y179321D01*
X243571Y179211D01*
X243549Y179100D01*
X243532Y178988D01*
X243518Y178875D01*
X243508Y178762D01*
X243502Y178649D01*
X243500Y178536D01*
X238308Y179186D02*
X238308Y175291D01*
X238308Y179186D02*
X238310Y179287D01*
X238316Y179387D01*
X238326Y179487D01*
X238339Y179587D01*
X238357Y179686D01*
X238378Y179785D01*
X238403Y179882D01*
X238432Y179979D01*
X238465Y180074D01*
X238501Y180168D01*
X238541Y180260D01*
X238584Y180351D01*
X238631Y180440D01*
X238681Y180527D01*
X238735Y180613D01*
X238792Y180696D01*
X238852Y180776D01*
X238915Y180855D01*
X238982Y180931D01*
X239051Y181004D01*
X239123Y181074D01*
X239197Y181142D01*
X239274Y181207D01*
X239354Y181268D01*
X239436Y181327D01*
X239520Y181382D01*
X239606Y181434D01*
X239694Y181483D01*
X239784Y181528D01*
X239876Y181570D01*
X239969Y181608D01*
X240064Y181642D01*
X240159Y181673D01*
X240256Y181700D01*
X240354Y181723D01*
X240453Y181743D01*
X240553Y181758D01*
X240653Y181770D01*
X240753Y181778D01*
X240854Y181782D01*
X240954Y181782D01*
X241055Y181778D01*
X241155Y181770D01*
X241255Y181758D01*
X241355Y181743D01*
X241454Y181723D01*
X241552Y181700D01*
X241649Y181673D01*
X241744Y181642D01*
X241839Y181608D01*
X241932Y181570D01*
X242024Y181528D01*
X242114Y181483D01*
X242202Y181434D01*
X242288Y181382D01*
X242372Y181327D01*
X242454Y181268D01*
X242534Y181207D01*
X242611Y181142D01*
X242685Y181074D01*
X242757Y181004D01*
X242826Y180931D01*
X242893Y180855D01*
X242956Y180776D01*
X243016Y180696D01*
X243073Y180613D01*
X243127Y180527D01*
X243177Y180440D01*
X243224Y180351D01*
X243267Y180260D01*
X243307Y180168D01*
X243343Y180074D01*
X243376Y179979D01*
X243405Y179882D01*
X243430Y179785D01*
X243451Y179686D01*
X243469Y179587D01*
X243482Y179487D01*
X243492Y179387D01*
X243498Y179287D01*
X243500Y179186D01*
X243501Y179186D02*
X243501Y176589D01*
X238308Y186072D02*
X249992Y189966D01*
X238308Y193861D01*
X249992Y198151D02*
X249992Y201396D01*
X249990Y201509D01*
X249984Y201622D01*
X249974Y201735D01*
X249960Y201848D01*
X249943Y201960D01*
X249921Y202071D01*
X249896Y202181D01*
X249866Y202291D01*
X249833Y202399D01*
X249796Y202506D01*
X249756Y202612D01*
X249711Y202716D01*
X249663Y202819D01*
X249612Y202920D01*
X249557Y203019D01*
X249499Y203116D01*
X249437Y203211D01*
X249372Y203304D01*
X249304Y203394D01*
X249233Y203482D01*
X249158Y203568D01*
X249081Y203651D01*
X249001Y203731D01*
X248918Y203808D01*
X248832Y203883D01*
X248744Y203954D01*
X248654Y204022D01*
X248561Y204087D01*
X248466Y204149D01*
X248369Y204207D01*
X248270Y204262D01*
X248169Y204313D01*
X248066Y204361D01*
X247962Y204406D01*
X247856Y204446D01*
X247749Y204483D01*
X247641Y204516D01*
X247531Y204546D01*
X247421Y204571D01*
X247310Y204593D01*
X247198Y204610D01*
X247085Y204624D01*
X246972Y204634D01*
X246859Y204640D01*
X246746Y204642D01*
X246633Y204640D01*
X246520Y204634D01*
X246407Y204624D01*
X246294Y204610D01*
X246182Y204593D01*
X246071Y204571D01*
X245961Y204546D01*
X245851Y204516D01*
X245743Y204483D01*
X245636Y204446D01*
X245530Y204406D01*
X245426Y204361D01*
X245323Y204313D01*
X245222Y204262D01*
X245123Y204207D01*
X245026Y204149D01*
X244931Y204087D01*
X244838Y204022D01*
X244748Y203954D01*
X244660Y203883D01*
X244574Y203808D01*
X244491Y203731D01*
X244411Y203651D01*
X244334Y203568D01*
X244259Y203482D01*
X244188Y203394D01*
X244120Y203304D01*
X244055Y203211D01*
X243993Y203116D01*
X243935Y203019D01*
X243880Y202920D01*
X243829Y202819D01*
X243781Y202716D01*
X243736Y202612D01*
X243696Y202506D01*
X243659Y202399D01*
X243626Y202291D01*
X243596Y202181D01*
X243571Y202071D01*
X243549Y201960D01*
X243532Y201848D01*
X243518Y201735D01*
X243508Y201622D01*
X243502Y201509D01*
X243500Y201396D01*
X238308Y202046D02*
X238308Y198151D01*
X238308Y202046D02*
X238310Y202147D01*
X238316Y202247D01*
X238326Y202347D01*
X238339Y202447D01*
X238357Y202546D01*
X238378Y202645D01*
X238403Y202742D01*
X238432Y202839D01*
X238465Y202934D01*
X238501Y203028D01*
X238541Y203120D01*
X238584Y203211D01*
X238631Y203300D01*
X238681Y203387D01*
X238735Y203473D01*
X238792Y203556D01*
X238852Y203636D01*
X238915Y203715D01*
X238982Y203791D01*
X239051Y203864D01*
X239123Y203934D01*
X239197Y204002D01*
X239274Y204067D01*
X239354Y204128D01*
X239436Y204187D01*
X239520Y204242D01*
X239606Y204294D01*
X239694Y204343D01*
X239784Y204388D01*
X239876Y204430D01*
X239969Y204468D01*
X240064Y204502D01*
X240159Y204533D01*
X240256Y204560D01*
X240354Y204583D01*
X240453Y204603D01*
X240553Y204618D01*
X240653Y204630D01*
X240753Y204638D01*
X240854Y204642D01*
X240954Y204642D01*
X241055Y204638D01*
X241155Y204630D01*
X241255Y204618D01*
X241355Y204603D01*
X241454Y204583D01*
X241552Y204560D01*
X241649Y204533D01*
X241744Y204502D01*
X241839Y204468D01*
X241932Y204430D01*
X242024Y204388D01*
X242114Y204343D01*
X242202Y204294D01*
X242288Y204242D01*
X242372Y204187D01*
X242454Y204128D01*
X242534Y204067D01*
X242611Y204002D01*
X242685Y203934D01*
X242757Y203864D01*
X242826Y203791D01*
X242893Y203715D01*
X242956Y203636D01*
X243016Y203556D01*
X243073Y203473D01*
X243127Y203387D01*
X243177Y203300D01*
X243224Y203211D01*
X243267Y203120D01*
X243307Y203028D01*
X243343Y202934D01*
X243376Y202839D01*
X243405Y202742D01*
X243430Y202645D01*
X243451Y202546D01*
X243469Y202447D01*
X243482Y202347D01*
X243492Y202247D01*
X243498Y202147D01*
X243500Y202046D01*
X243501Y202046D02*
X243501Y199449D01*
D10*
X279769Y99081D02*
X281858Y99081D01*
X279769Y99081D02*
X279680Y99083D01*
X279592Y99089D01*
X279504Y99098D01*
X279416Y99111D01*
X279329Y99128D01*
X279243Y99148D01*
X279158Y99173D01*
X279073Y99200D01*
X278990Y99232D01*
X278909Y99266D01*
X278829Y99305D01*
X278751Y99346D01*
X278674Y99391D01*
X278600Y99439D01*
X278527Y99490D01*
X278457Y99544D01*
X278390Y99602D01*
X278324Y99662D01*
X278262Y99724D01*
X278202Y99790D01*
X278144Y99857D01*
X278090Y99927D01*
X278039Y100000D01*
X277991Y100074D01*
X277946Y100151D01*
X277905Y100229D01*
X277866Y100309D01*
X277832Y100390D01*
X277800Y100473D01*
X277773Y100558D01*
X277748Y100643D01*
X277728Y100729D01*
X277711Y100816D01*
X277698Y100904D01*
X277689Y100992D01*
X277683Y101080D01*
X277681Y101169D01*
X277681Y106391D01*
X277683Y106482D01*
X277689Y106573D01*
X277699Y106664D01*
X277713Y106754D01*
X277730Y106843D01*
X277752Y106931D01*
X277778Y107019D01*
X277807Y107105D01*
X277840Y107190D01*
X277877Y107273D01*
X277917Y107355D01*
X277961Y107435D01*
X278008Y107513D01*
X278059Y107589D01*
X278112Y107662D01*
X278169Y107733D01*
X278230Y107802D01*
X278293Y107867D01*
X278358Y107930D01*
X278427Y107990D01*
X278498Y108048D01*
X278571Y108101D01*
X278647Y108152D01*
X278725Y108199D01*
X278805Y108243D01*
X278887Y108283D01*
X278970Y108320D01*
X279055Y108353D01*
X279141Y108382D01*
X279229Y108408D01*
X279317Y108430D01*
X279406Y108447D01*
X279496Y108461D01*
X279587Y108471D01*
X279678Y108477D01*
X279769Y108479D01*
X281858Y108479D01*
X285327Y106391D02*
X287937Y108479D01*
X287937Y99081D01*
X285327Y99081D02*
X290548Y99081D01*
X196858Y143081D02*
X194769Y143081D01*
X194680Y143083D01*
X194592Y143089D01*
X194504Y143098D01*
X194416Y143111D01*
X194329Y143128D01*
X194243Y143148D01*
X194158Y143173D01*
X194073Y143200D01*
X193990Y143232D01*
X193909Y143266D01*
X193829Y143305D01*
X193751Y143346D01*
X193674Y143391D01*
X193600Y143439D01*
X193527Y143490D01*
X193457Y143544D01*
X193390Y143602D01*
X193324Y143662D01*
X193262Y143724D01*
X193202Y143790D01*
X193144Y143857D01*
X193090Y143927D01*
X193039Y144000D01*
X192991Y144074D01*
X192946Y144151D01*
X192905Y144229D01*
X192866Y144309D01*
X192832Y144390D01*
X192800Y144473D01*
X192773Y144558D01*
X192748Y144643D01*
X192728Y144729D01*
X192711Y144816D01*
X192698Y144904D01*
X192689Y144992D01*
X192683Y145080D01*
X192681Y145169D01*
X192681Y150391D01*
X192683Y150482D01*
X192689Y150573D01*
X192699Y150664D01*
X192713Y150754D01*
X192730Y150843D01*
X192752Y150931D01*
X192778Y151019D01*
X192807Y151105D01*
X192840Y151190D01*
X192877Y151273D01*
X192917Y151355D01*
X192961Y151435D01*
X193008Y151513D01*
X193059Y151589D01*
X193112Y151662D01*
X193169Y151733D01*
X193230Y151802D01*
X193293Y151867D01*
X193358Y151930D01*
X193427Y151990D01*
X193498Y152048D01*
X193571Y152101D01*
X193647Y152152D01*
X193725Y152199D01*
X193805Y152243D01*
X193887Y152283D01*
X193970Y152320D01*
X194055Y152353D01*
X194141Y152382D01*
X194229Y152408D01*
X194317Y152430D01*
X194406Y152447D01*
X194496Y152461D01*
X194587Y152471D01*
X194678Y152477D01*
X194769Y152479D01*
X196858Y152479D01*
X200327Y143081D02*
X202937Y143081D01*
X203038Y143083D01*
X203139Y143089D01*
X203240Y143099D01*
X203340Y143112D01*
X203440Y143130D01*
X203539Y143151D01*
X203637Y143177D01*
X203734Y143206D01*
X203830Y143238D01*
X203924Y143275D01*
X204017Y143315D01*
X204109Y143359D01*
X204198Y143406D01*
X204286Y143457D01*
X204372Y143511D01*
X204455Y143568D01*
X204537Y143628D01*
X204615Y143692D01*
X204692Y143758D01*
X204765Y143828D01*
X204836Y143900D01*
X204904Y143975D01*
X204969Y144053D01*
X205031Y144133D01*
X205090Y144215D01*
X205146Y144300D01*
X205198Y144386D01*
X205247Y144475D01*
X205293Y144566D01*
X205334Y144658D01*
X205373Y144752D01*
X205407Y144847D01*
X205438Y144943D01*
X205465Y145041D01*
X205489Y145139D01*
X205508Y145239D01*
X205524Y145339D01*
X205536Y145439D01*
X205544Y145540D01*
X205548Y145641D01*
X205548Y145743D01*
X205544Y145844D01*
X205536Y145945D01*
X205524Y146045D01*
X205508Y146145D01*
X205489Y146245D01*
X205465Y146343D01*
X205438Y146441D01*
X205407Y146537D01*
X205373Y146632D01*
X205334Y146726D01*
X205293Y146818D01*
X205247Y146909D01*
X205198Y146997D01*
X205146Y147084D01*
X205090Y147169D01*
X205031Y147251D01*
X204969Y147331D01*
X204904Y147409D01*
X204836Y147484D01*
X204765Y147556D01*
X204692Y147626D01*
X204615Y147692D01*
X204537Y147756D01*
X204455Y147816D01*
X204372Y147873D01*
X204286Y147927D01*
X204198Y147978D01*
X204109Y148025D01*
X204017Y148069D01*
X203924Y148109D01*
X203830Y148146D01*
X203734Y148178D01*
X203637Y148207D01*
X203539Y148233D01*
X203440Y148254D01*
X203340Y148272D01*
X203240Y148285D01*
X203139Y148295D01*
X203038Y148301D01*
X202937Y148303D01*
X203459Y152479D02*
X200327Y152479D01*
X203459Y152479D02*
X203549Y152477D01*
X203638Y152471D01*
X203728Y152462D01*
X203817Y152448D01*
X203905Y152431D01*
X203992Y152410D01*
X204079Y152385D01*
X204164Y152356D01*
X204248Y152324D01*
X204330Y152289D01*
X204411Y152249D01*
X204490Y152207D01*
X204567Y152161D01*
X204642Y152111D01*
X204715Y152059D01*
X204786Y152003D01*
X204854Y151945D01*
X204919Y151883D01*
X204982Y151819D01*
X205042Y151752D01*
X205099Y151683D01*
X205153Y151611D01*
X205204Y151537D01*
X205252Y151461D01*
X205296Y151383D01*
X205337Y151303D01*
X205375Y151221D01*
X205409Y151138D01*
X205439Y151053D01*
X205466Y150967D01*
X205489Y150881D01*
X205508Y150793D01*
X205523Y150704D01*
X205535Y150615D01*
X205543Y150526D01*
X205547Y150436D01*
X205547Y150346D01*
X205543Y150256D01*
X205535Y150167D01*
X205523Y150078D01*
X205508Y149989D01*
X205489Y149901D01*
X205466Y149815D01*
X205439Y149729D01*
X205409Y149644D01*
X205375Y149561D01*
X205337Y149479D01*
X205296Y149399D01*
X205252Y149321D01*
X205204Y149245D01*
X205153Y149171D01*
X205099Y149099D01*
X205042Y149030D01*
X204982Y148963D01*
X204919Y148899D01*
X204854Y148837D01*
X204786Y148779D01*
X204715Y148723D01*
X204642Y148671D01*
X204567Y148621D01*
X204490Y148575D01*
X204411Y148533D01*
X204330Y148493D01*
X204248Y148458D01*
X204164Y148426D01*
X204079Y148397D01*
X203992Y148372D01*
X203905Y148351D01*
X203817Y148334D01*
X203728Y148320D01*
X203638Y148311D01*
X203549Y148305D01*
X203459Y148303D01*
X203459Y148302D02*
X201371Y148302D01*
X190447Y103852D02*
X183081Y103852D01*
X183081Y105898D01*
X183083Y105987D01*
X183089Y106076D01*
X183099Y106165D01*
X183112Y106253D01*
X183129Y106341D01*
X183151Y106428D01*
X183176Y106513D01*
X183204Y106598D01*
X183237Y106681D01*
X183273Y106763D01*
X183312Y106843D01*
X183355Y106921D01*
X183401Y106997D01*
X183451Y107072D01*
X183504Y107144D01*
X183560Y107213D01*
X183619Y107280D01*
X183680Y107345D01*
X183745Y107406D01*
X183812Y107465D01*
X183881Y107521D01*
X183953Y107574D01*
X184028Y107624D01*
X184104Y107670D01*
X184182Y107713D01*
X184262Y107752D01*
X184344Y107788D01*
X184427Y107821D01*
X184512Y107849D01*
X184597Y107874D01*
X184684Y107896D01*
X184772Y107913D01*
X184860Y107926D01*
X184949Y107936D01*
X185038Y107942D01*
X185127Y107944D01*
X185216Y107942D01*
X185305Y107936D01*
X185394Y107926D01*
X185482Y107913D01*
X185570Y107896D01*
X185657Y107874D01*
X185742Y107849D01*
X185827Y107821D01*
X185910Y107788D01*
X185992Y107752D01*
X186072Y107713D01*
X186150Y107670D01*
X186226Y107624D01*
X186301Y107574D01*
X186373Y107521D01*
X186442Y107465D01*
X186509Y107406D01*
X186574Y107345D01*
X186635Y107280D01*
X186694Y107213D01*
X186750Y107144D01*
X186803Y107072D01*
X186853Y106997D01*
X186899Y106921D01*
X186942Y106843D01*
X186981Y106763D01*
X187017Y106681D01*
X187050Y106598D01*
X187078Y106513D01*
X187103Y106428D01*
X187125Y106341D01*
X187142Y106253D01*
X187155Y106165D01*
X187165Y106076D01*
X187171Y105987D01*
X187173Y105898D01*
X187173Y103852D01*
X187173Y106307D02*
X190447Y107944D01*
X191265Y110794D02*
X191265Y114067D01*
X190447Y117551D02*
X183081Y117551D01*
X190447Y116733D02*
X190447Y118370D01*
X183081Y118370D02*
X183081Y116733D01*
X183081Y121617D02*
X190447Y121617D01*
X190447Y124890D01*
X190447Y128280D02*
X183081Y128280D01*
X190447Y127462D02*
X190447Y129098D01*
X183081Y129098D02*
X183081Y127462D01*
X183081Y132408D02*
X190447Y132408D01*
X187173Y134864D02*
X183081Y132408D01*
X187173Y134864D02*
X183081Y137319D01*
X190447Y137319D01*
X99097Y109982D02*
X91731Y109982D01*
X91731Y112028D01*
X91733Y112117D01*
X91739Y112206D01*
X91749Y112295D01*
X91762Y112383D01*
X91779Y112471D01*
X91801Y112558D01*
X91826Y112643D01*
X91854Y112728D01*
X91887Y112811D01*
X91923Y112893D01*
X91962Y112973D01*
X92005Y113051D01*
X92051Y113127D01*
X92101Y113202D01*
X92154Y113274D01*
X92210Y113343D01*
X92269Y113410D01*
X92330Y113475D01*
X92395Y113536D01*
X92462Y113595D01*
X92531Y113651D01*
X92603Y113704D01*
X92678Y113754D01*
X92754Y113800D01*
X92832Y113843D01*
X92912Y113882D01*
X92994Y113918D01*
X93077Y113951D01*
X93162Y113979D01*
X93247Y114004D01*
X93334Y114026D01*
X93422Y114043D01*
X93510Y114056D01*
X93599Y114066D01*
X93688Y114072D01*
X93777Y114074D01*
X93866Y114072D01*
X93955Y114066D01*
X94044Y114056D01*
X94132Y114043D01*
X94220Y114026D01*
X94307Y114004D01*
X94392Y113979D01*
X94477Y113951D01*
X94560Y113918D01*
X94642Y113882D01*
X94722Y113843D01*
X94800Y113800D01*
X94876Y113754D01*
X94951Y113704D01*
X95023Y113651D01*
X95092Y113595D01*
X95159Y113536D01*
X95224Y113475D01*
X95285Y113410D01*
X95344Y113343D01*
X95400Y113274D01*
X95453Y113202D01*
X95503Y113127D01*
X95549Y113051D01*
X95592Y112973D01*
X95631Y112893D01*
X95667Y112811D01*
X95700Y112728D01*
X95728Y112643D01*
X95753Y112558D01*
X95775Y112471D01*
X95792Y112383D01*
X95805Y112295D01*
X95815Y112206D01*
X95821Y112117D01*
X95823Y112028D01*
X95823Y109982D01*
X95823Y112438D02*
X99097Y114075D01*
X95005Y120355D02*
X95005Y121582D01*
X99097Y121582D01*
X99097Y119127D01*
X99095Y119049D01*
X99090Y118971D01*
X99080Y118894D01*
X99067Y118817D01*
X99051Y118741D01*
X99031Y118666D01*
X99007Y118592D01*
X98980Y118519D01*
X98949Y118447D01*
X98915Y118377D01*
X98878Y118309D01*
X98837Y118242D01*
X98793Y118177D01*
X98747Y118115D01*
X98697Y118055D01*
X98645Y117997D01*
X98590Y117942D01*
X98532Y117890D01*
X98472Y117840D01*
X98410Y117794D01*
X98345Y117750D01*
X98279Y117709D01*
X98210Y117672D01*
X98140Y117638D01*
X98068Y117607D01*
X97995Y117580D01*
X97921Y117556D01*
X97846Y117536D01*
X97770Y117520D01*
X97693Y117507D01*
X97616Y117497D01*
X97538Y117492D01*
X97460Y117490D01*
X93368Y117490D01*
X93288Y117492D01*
X93208Y117498D01*
X93128Y117508D01*
X93049Y117521D01*
X92970Y117539D01*
X92893Y117560D01*
X92817Y117586D01*
X92742Y117615D01*
X92668Y117647D01*
X92596Y117683D01*
X92526Y117723D01*
X92459Y117766D01*
X92393Y117812D01*
X92330Y117862D01*
X92269Y117914D01*
X92210Y117969D01*
X92155Y118028D01*
X92103Y118088D01*
X92053Y118152D01*
X92007Y118217D01*
X91964Y118285D01*
X91924Y118355D01*
X91888Y118427D01*
X91856Y118501D01*
X91827Y118575D01*
X91802Y118652D01*
X91780Y118729D01*
X91762Y118808D01*
X91749Y118887D01*
X91739Y118966D01*
X91733Y119047D01*
X91731Y119127D01*
X91731Y121582D01*
X97460Y128898D02*
X97538Y128896D01*
X97616Y128891D01*
X97693Y128881D01*
X97770Y128868D01*
X97846Y128852D01*
X97921Y128832D01*
X97995Y128808D01*
X98068Y128781D01*
X98140Y128750D01*
X98210Y128716D01*
X98279Y128679D01*
X98345Y128638D01*
X98410Y128594D01*
X98472Y128548D01*
X98532Y128498D01*
X98590Y128446D01*
X98645Y128391D01*
X98697Y128333D01*
X98747Y128273D01*
X98793Y128211D01*
X98837Y128146D01*
X98878Y128080D01*
X98915Y128011D01*
X98949Y127941D01*
X98980Y127869D01*
X99007Y127796D01*
X99031Y127722D01*
X99051Y127647D01*
X99067Y127571D01*
X99080Y127494D01*
X99090Y127417D01*
X99095Y127339D01*
X99097Y127261D01*
X99095Y127147D01*
X99090Y127034D01*
X99080Y126920D01*
X99067Y126807D01*
X99050Y126695D01*
X99030Y126583D01*
X99006Y126472D01*
X98978Y126361D01*
X98947Y126252D01*
X98912Y126144D01*
X98873Y126037D01*
X98831Y125931D01*
X98786Y125827D01*
X98737Y125724D01*
X98684Y125623D01*
X98629Y125524D01*
X98570Y125426D01*
X98508Y125331D01*
X98443Y125238D01*
X98375Y125146D01*
X98304Y125058D01*
X98230Y124971D01*
X98153Y124887D01*
X98074Y124806D01*
X93368Y125010D02*
X93290Y125012D01*
X93212Y125017D01*
X93135Y125027D01*
X93058Y125040D01*
X92982Y125056D01*
X92907Y125076D01*
X92833Y125100D01*
X92760Y125127D01*
X92688Y125158D01*
X92618Y125192D01*
X92550Y125229D01*
X92483Y125270D01*
X92418Y125314D01*
X92356Y125360D01*
X92296Y125410D01*
X92238Y125462D01*
X92183Y125517D01*
X92131Y125575D01*
X92081Y125635D01*
X92035Y125697D01*
X91991Y125762D01*
X91950Y125829D01*
X91913Y125897D01*
X91879Y125967D01*
X91848Y126039D01*
X91821Y126112D01*
X91797Y126186D01*
X91777Y126261D01*
X91761Y126337D01*
X91748Y126414D01*
X91738Y126491D01*
X91733Y126569D01*
X91731Y126647D01*
X91733Y126757D01*
X91739Y126866D01*
X91749Y126976D01*
X91762Y127084D01*
X91780Y127193D01*
X91801Y127300D01*
X91827Y127407D01*
X91856Y127513D01*
X91888Y127618D01*
X91925Y127721D01*
X91965Y127823D01*
X92009Y127924D01*
X92057Y128023D01*
X92107Y128120D01*
X92162Y128215D01*
X92220Y128308D01*
X92281Y128399D01*
X92345Y128488D01*
X94800Y125828D02*
X94758Y125762D01*
X94714Y125697D01*
X94666Y125635D01*
X94616Y125575D01*
X94563Y125517D01*
X94507Y125462D01*
X94449Y125409D01*
X94388Y125360D01*
X94325Y125313D01*
X94260Y125269D01*
X94193Y125229D01*
X94124Y125192D01*
X94053Y125158D01*
X93981Y125127D01*
X93907Y125100D01*
X93832Y125076D01*
X93757Y125056D01*
X93680Y125040D01*
X93603Y125027D01*
X93525Y125017D01*
X93446Y125012D01*
X93368Y125010D01*
X96027Y128079D02*
X96069Y128146D01*
X96113Y128211D01*
X96161Y128273D01*
X96211Y128333D01*
X96264Y128391D01*
X96320Y128446D01*
X96379Y128498D01*
X96439Y128548D01*
X96503Y128595D01*
X96568Y128638D01*
X96635Y128679D01*
X96704Y128716D01*
X96775Y128750D01*
X96847Y128781D01*
X96921Y128808D01*
X96995Y128832D01*
X97071Y128852D01*
X97148Y128868D01*
X97225Y128881D01*
X97303Y128891D01*
X97382Y128896D01*
X97460Y128898D01*
X96028Y128079D02*
X94800Y125828D01*
X91731Y134128D02*
X91733Y134213D01*
X91739Y134298D01*
X91749Y134382D01*
X91762Y134466D01*
X91780Y134550D01*
X91801Y134632D01*
X91826Y134713D01*
X91855Y134793D01*
X91888Y134872D01*
X91924Y134949D01*
X91964Y135024D01*
X92007Y135098D01*
X92053Y135169D01*
X92103Y135238D01*
X92156Y135305D01*
X92212Y135369D01*
X92271Y135430D01*
X92332Y135489D01*
X92396Y135545D01*
X92463Y135598D01*
X92532Y135648D01*
X92603Y135694D01*
X92677Y135737D01*
X92752Y135777D01*
X92829Y135813D01*
X92908Y135846D01*
X92988Y135875D01*
X93069Y135900D01*
X93151Y135921D01*
X93235Y135939D01*
X93319Y135952D01*
X93403Y135962D01*
X93488Y135968D01*
X93573Y135970D01*
X91731Y134128D02*
X91733Y134032D01*
X91739Y133936D01*
X91749Y133841D01*
X91762Y133746D01*
X91780Y133651D01*
X91801Y133558D01*
X91826Y133465D01*
X91855Y133374D01*
X91887Y133283D01*
X91923Y133194D01*
X91963Y133107D01*
X92006Y133021D01*
X92052Y132937D01*
X92102Y132855D01*
X92156Y132775D01*
X92212Y132698D01*
X92272Y132623D01*
X92334Y132550D01*
X92400Y132480D01*
X92468Y132412D01*
X92539Y132347D01*
X92612Y132286D01*
X92688Y132227D01*
X92767Y132171D01*
X92847Y132119D01*
X92930Y132070D01*
X93014Y132024D01*
X93100Y131982D01*
X93188Y131944D01*
X93277Y131909D01*
X93368Y131877D01*
X95005Y135355D02*
X94946Y135415D01*
X94884Y135472D01*
X94820Y135527D01*
X94753Y135578D01*
X94684Y135627D01*
X94614Y135673D01*
X94541Y135716D01*
X94467Y135756D01*
X94391Y135792D01*
X94313Y135825D01*
X94234Y135855D01*
X94154Y135882D01*
X94073Y135905D01*
X93991Y135924D01*
X93909Y135940D01*
X93825Y135953D01*
X93741Y135962D01*
X93657Y135967D01*
X93573Y135969D01*
X95005Y135355D02*
X99097Y131877D01*
X99097Y135969D01*
D14*
X130000Y136000D02*
X150000Y136000D01*
X150000Y104000D02*
X130000Y104000D01*
D10*
X129381Y98701D02*
X129381Y95427D01*
X129381Y98701D02*
X129383Y98790D01*
X129389Y98879D01*
X129399Y98968D01*
X129412Y99056D01*
X129429Y99144D01*
X129451Y99231D01*
X129476Y99316D01*
X129504Y99401D01*
X129537Y99484D01*
X129573Y99566D01*
X129612Y99646D01*
X129655Y99724D01*
X129701Y99800D01*
X129751Y99875D01*
X129804Y99947D01*
X129860Y100016D01*
X129919Y100083D01*
X129980Y100148D01*
X130045Y100209D01*
X130112Y100268D01*
X130181Y100324D01*
X130253Y100377D01*
X130328Y100427D01*
X130404Y100473D01*
X130482Y100516D01*
X130562Y100555D01*
X130644Y100591D01*
X130727Y100624D01*
X130812Y100652D01*
X130897Y100677D01*
X130984Y100699D01*
X131072Y100716D01*
X131160Y100729D01*
X131249Y100739D01*
X131338Y100745D01*
X131427Y100747D01*
X131516Y100745D01*
X131605Y100739D01*
X131694Y100729D01*
X131782Y100716D01*
X131870Y100699D01*
X131957Y100677D01*
X132042Y100652D01*
X132127Y100624D01*
X132210Y100591D01*
X132292Y100555D01*
X132372Y100516D01*
X132450Y100473D01*
X132526Y100427D01*
X132601Y100377D01*
X132673Y100324D01*
X132742Y100268D01*
X132809Y100209D01*
X132874Y100148D01*
X132935Y100083D01*
X132994Y100016D01*
X133050Y99947D01*
X133103Y99875D01*
X133153Y99800D01*
X133199Y99724D01*
X133242Y99646D01*
X133281Y99566D01*
X133317Y99484D01*
X133350Y99401D01*
X133378Y99316D01*
X133403Y99231D01*
X133425Y99144D01*
X133442Y99056D01*
X133455Y98968D01*
X133465Y98879D01*
X133471Y98790D01*
X133473Y98701D01*
X133473Y95427D01*
X133471Y95338D01*
X133465Y95249D01*
X133455Y95160D01*
X133442Y95072D01*
X133425Y94984D01*
X133403Y94897D01*
X133378Y94812D01*
X133350Y94727D01*
X133317Y94644D01*
X133281Y94562D01*
X133242Y94482D01*
X133199Y94404D01*
X133153Y94328D01*
X133103Y94253D01*
X133050Y94181D01*
X132994Y94112D01*
X132935Y94045D01*
X132874Y93980D01*
X132809Y93919D01*
X132742Y93860D01*
X132673Y93804D01*
X132601Y93751D01*
X132526Y93701D01*
X132450Y93655D01*
X132372Y93612D01*
X132292Y93573D01*
X132210Y93537D01*
X132127Y93504D01*
X132042Y93476D01*
X131957Y93451D01*
X131870Y93429D01*
X131782Y93412D01*
X131694Y93399D01*
X131605Y93389D01*
X131516Y93383D01*
X131427Y93381D01*
X131338Y93383D01*
X131249Y93389D01*
X131160Y93399D01*
X131072Y93412D01*
X130984Y93429D01*
X130897Y93451D01*
X130812Y93476D01*
X130727Y93504D01*
X130644Y93537D01*
X130562Y93573D01*
X130482Y93612D01*
X130404Y93655D01*
X130328Y93701D01*
X130253Y93751D01*
X130181Y93804D01*
X130112Y93860D01*
X130045Y93919D01*
X129980Y93980D01*
X129919Y94045D01*
X129860Y94112D01*
X129804Y94181D01*
X129751Y94253D01*
X129701Y94328D01*
X129655Y94404D01*
X129612Y94482D01*
X129573Y94562D01*
X129537Y94644D01*
X129504Y94727D01*
X129476Y94812D01*
X129451Y94897D01*
X129429Y94984D01*
X129412Y95072D01*
X129399Y95160D01*
X129389Y95249D01*
X129383Y95338D01*
X129381Y95427D01*
X132655Y95018D02*
X134292Y93381D01*
X136838Y93381D02*
X136838Y100747D01*
X138884Y100747D01*
X138973Y100745D01*
X139062Y100739D01*
X139151Y100729D01*
X139239Y100716D01*
X139327Y100699D01*
X139414Y100677D01*
X139499Y100652D01*
X139584Y100624D01*
X139667Y100591D01*
X139749Y100555D01*
X139829Y100516D01*
X139907Y100473D01*
X139983Y100427D01*
X140058Y100377D01*
X140130Y100324D01*
X140199Y100268D01*
X140266Y100209D01*
X140331Y100148D01*
X140392Y100083D01*
X140451Y100016D01*
X140507Y99947D01*
X140560Y99875D01*
X140610Y99800D01*
X140656Y99724D01*
X140699Y99646D01*
X140738Y99566D01*
X140774Y99484D01*
X140807Y99401D01*
X140835Y99316D01*
X140860Y99231D01*
X140882Y99144D01*
X140899Y99056D01*
X140912Y98968D01*
X140922Y98879D01*
X140928Y98790D01*
X140930Y98701D01*
X140928Y98612D01*
X140922Y98523D01*
X140912Y98434D01*
X140899Y98346D01*
X140882Y98258D01*
X140860Y98171D01*
X140835Y98086D01*
X140807Y98001D01*
X140774Y97918D01*
X140738Y97836D01*
X140699Y97756D01*
X140656Y97678D01*
X140610Y97602D01*
X140560Y97527D01*
X140507Y97455D01*
X140451Y97386D01*
X140392Y97319D01*
X140331Y97254D01*
X140266Y97193D01*
X140199Y97134D01*
X140130Y97078D01*
X140058Y97025D01*
X139983Y96975D01*
X139907Y96929D01*
X139829Y96886D01*
X139749Y96847D01*
X139667Y96811D01*
X139584Y96778D01*
X139499Y96750D01*
X139414Y96725D01*
X139327Y96703D01*
X139239Y96686D01*
X139151Y96673D01*
X139062Y96663D01*
X138973Y96657D01*
X138884Y96655D01*
X136838Y96655D01*
X143792Y93381D02*
X145838Y93381D01*
X145927Y93383D01*
X146016Y93389D01*
X146105Y93399D01*
X146193Y93412D01*
X146281Y93429D01*
X146368Y93451D01*
X146453Y93476D01*
X146538Y93504D01*
X146621Y93537D01*
X146703Y93573D01*
X146783Y93612D01*
X146861Y93655D01*
X146937Y93701D01*
X147012Y93751D01*
X147084Y93804D01*
X147153Y93860D01*
X147220Y93919D01*
X147285Y93980D01*
X147346Y94045D01*
X147405Y94112D01*
X147461Y94181D01*
X147514Y94253D01*
X147564Y94328D01*
X147610Y94404D01*
X147653Y94482D01*
X147692Y94562D01*
X147728Y94644D01*
X147761Y94727D01*
X147789Y94812D01*
X147814Y94897D01*
X147836Y94984D01*
X147853Y95072D01*
X147866Y95160D01*
X147876Y95249D01*
X147882Y95338D01*
X147884Y95427D01*
X147882Y95516D01*
X147876Y95605D01*
X147866Y95694D01*
X147853Y95782D01*
X147836Y95870D01*
X147814Y95957D01*
X147789Y96042D01*
X147761Y96127D01*
X147728Y96210D01*
X147692Y96292D01*
X147653Y96372D01*
X147610Y96450D01*
X147564Y96526D01*
X147514Y96601D01*
X147461Y96673D01*
X147405Y96742D01*
X147346Y96809D01*
X147285Y96874D01*
X147220Y96935D01*
X147153Y96994D01*
X147084Y97050D01*
X147012Y97103D01*
X146937Y97153D01*
X146861Y97199D01*
X146783Y97242D01*
X146703Y97281D01*
X146621Y97317D01*
X146538Y97350D01*
X146453Y97378D01*
X146368Y97403D01*
X146281Y97425D01*
X146193Y97442D01*
X146105Y97455D01*
X146016Y97465D01*
X145927Y97471D01*
X145838Y97473D01*
X146247Y100747D02*
X143792Y100747D01*
X146247Y100747D02*
X146326Y100745D01*
X146405Y100739D01*
X146484Y100730D01*
X146562Y100717D01*
X146639Y100699D01*
X146715Y100679D01*
X146790Y100654D01*
X146864Y100626D01*
X146937Y100595D01*
X147008Y100559D01*
X147077Y100521D01*
X147144Y100479D01*
X147209Y100434D01*
X147272Y100386D01*
X147333Y100335D01*
X147390Y100281D01*
X147446Y100225D01*
X147498Y100166D01*
X147548Y100104D01*
X147594Y100040D01*
X147638Y99974D01*
X147678Y99906D01*
X147714Y99836D01*
X147748Y99764D01*
X147778Y99690D01*
X147804Y99616D01*
X147827Y99540D01*
X147845Y99463D01*
X147861Y99386D01*
X147872Y99307D01*
X147880Y99229D01*
X147884Y99150D01*
X147884Y99070D01*
X147880Y98991D01*
X147872Y98913D01*
X147861Y98834D01*
X147845Y98757D01*
X147827Y98680D01*
X147804Y98604D01*
X147778Y98530D01*
X147748Y98456D01*
X147714Y98384D01*
X147678Y98314D01*
X147638Y98246D01*
X147594Y98180D01*
X147548Y98116D01*
X147498Y98054D01*
X147446Y97995D01*
X147390Y97939D01*
X147333Y97885D01*
X147272Y97834D01*
X147209Y97786D01*
X147144Y97741D01*
X147077Y97699D01*
X147008Y97661D01*
X146937Y97625D01*
X146864Y97594D01*
X146790Y97566D01*
X146715Y97541D01*
X146639Y97521D01*
X146562Y97503D01*
X146484Y97490D01*
X146405Y97481D01*
X146326Y97475D01*
X146247Y97473D01*
X144610Y97473D01*
X53273Y295903D02*
X53273Y303269D01*
X55319Y303269D01*
X55408Y303267D01*
X55497Y303261D01*
X55586Y303251D01*
X55674Y303238D01*
X55762Y303221D01*
X55849Y303199D01*
X55934Y303174D01*
X56019Y303146D01*
X56102Y303113D01*
X56184Y303077D01*
X56264Y303038D01*
X56342Y302995D01*
X56418Y302949D01*
X56493Y302899D01*
X56565Y302846D01*
X56634Y302790D01*
X56701Y302731D01*
X56766Y302670D01*
X56827Y302605D01*
X56886Y302538D01*
X56942Y302469D01*
X56995Y302397D01*
X57045Y302322D01*
X57091Y302246D01*
X57134Y302168D01*
X57173Y302088D01*
X57209Y302006D01*
X57242Y301923D01*
X57270Y301838D01*
X57295Y301753D01*
X57317Y301666D01*
X57334Y301578D01*
X57347Y301490D01*
X57357Y301401D01*
X57363Y301312D01*
X57365Y301223D01*
X57363Y301134D01*
X57357Y301045D01*
X57347Y300956D01*
X57334Y300868D01*
X57317Y300780D01*
X57295Y300693D01*
X57270Y300608D01*
X57242Y300523D01*
X57209Y300440D01*
X57173Y300358D01*
X57134Y300278D01*
X57091Y300200D01*
X57045Y300124D01*
X56995Y300049D01*
X56942Y299977D01*
X56886Y299908D01*
X56827Y299841D01*
X56766Y299776D01*
X56701Y299715D01*
X56634Y299656D01*
X56565Y299600D01*
X56493Y299547D01*
X56418Y299497D01*
X56342Y299451D01*
X56264Y299408D01*
X56184Y299369D01*
X56102Y299333D01*
X56019Y299300D01*
X55934Y299272D01*
X55849Y299247D01*
X55762Y299225D01*
X55674Y299208D01*
X55586Y299195D01*
X55497Y299185D01*
X55408Y299179D01*
X55319Y299177D01*
X53273Y299177D01*
X55728Y299177D02*
X57365Y295903D01*
X60797Y295903D02*
X64070Y295903D01*
X60797Y295903D02*
X60797Y303269D01*
X64070Y303269D01*
X63252Y299995D02*
X60797Y299995D01*
X69128Y303270D02*
X69213Y303268D01*
X69298Y303262D01*
X69382Y303252D01*
X69466Y303239D01*
X69550Y303221D01*
X69632Y303200D01*
X69713Y303175D01*
X69793Y303146D01*
X69872Y303113D01*
X69949Y303077D01*
X70024Y303037D01*
X70098Y302994D01*
X70169Y302948D01*
X70238Y302898D01*
X70305Y302845D01*
X70369Y302789D01*
X70430Y302730D01*
X70489Y302669D01*
X70545Y302605D01*
X70598Y302538D01*
X70648Y302469D01*
X70694Y302398D01*
X70737Y302324D01*
X70777Y302249D01*
X70813Y302172D01*
X70846Y302093D01*
X70875Y302013D01*
X70900Y301932D01*
X70921Y301850D01*
X70939Y301766D01*
X70952Y301682D01*
X70962Y301598D01*
X70968Y301513D01*
X70970Y301428D01*
X69128Y303269D02*
X69032Y303267D01*
X68936Y303261D01*
X68841Y303251D01*
X68746Y303238D01*
X68651Y303220D01*
X68558Y303199D01*
X68465Y303174D01*
X68374Y303145D01*
X68283Y303113D01*
X68194Y303077D01*
X68107Y303037D01*
X68021Y302994D01*
X67937Y302948D01*
X67855Y302898D01*
X67775Y302844D01*
X67698Y302788D01*
X67623Y302728D01*
X67550Y302666D01*
X67480Y302600D01*
X67412Y302532D01*
X67347Y302461D01*
X67286Y302388D01*
X67227Y302312D01*
X67171Y302233D01*
X67119Y302153D01*
X67070Y302070D01*
X67024Y301986D01*
X66982Y301900D01*
X66944Y301812D01*
X66909Y301723D01*
X66877Y301632D01*
X70355Y299996D02*
X70415Y300055D01*
X70472Y300117D01*
X70527Y300181D01*
X70578Y300248D01*
X70627Y300317D01*
X70673Y300387D01*
X70716Y300460D01*
X70756Y300534D01*
X70792Y300610D01*
X70825Y300688D01*
X70855Y300767D01*
X70882Y300847D01*
X70905Y300928D01*
X70924Y301010D01*
X70940Y301092D01*
X70953Y301176D01*
X70962Y301260D01*
X70967Y301344D01*
X70969Y301428D01*
X70355Y299995D02*
X66877Y295903D01*
X70969Y295903D01*
X13273Y295903D02*
X13273Y303269D01*
X15319Y303269D01*
X15408Y303267D01*
X15497Y303261D01*
X15586Y303251D01*
X15674Y303238D01*
X15762Y303221D01*
X15849Y303199D01*
X15934Y303174D01*
X16019Y303146D01*
X16102Y303113D01*
X16184Y303077D01*
X16264Y303038D01*
X16342Y302995D01*
X16418Y302949D01*
X16493Y302899D01*
X16565Y302846D01*
X16634Y302790D01*
X16701Y302731D01*
X16766Y302670D01*
X16827Y302605D01*
X16886Y302538D01*
X16942Y302469D01*
X16995Y302397D01*
X17045Y302322D01*
X17091Y302246D01*
X17134Y302168D01*
X17173Y302088D01*
X17209Y302006D01*
X17242Y301923D01*
X17270Y301838D01*
X17295Y301753D01*
X17317Y301666D01*
X17334Y301578D01*
X17347Y301490D01*
X17357Y301401D01*
X17363Y301312D01*
X17365Y301223D01*
X17363Y301134D01*
X17357Y301045D01*
X17347Y300956D01*
X17334Y300868D01*
X17317Y300780D01*
X17295Y300693D01*
X17270Y300608D01*
X17242Y300523D01*
X17209Y300440D01*
X17173Y300358D01*
X17134Y300278D01*
X17091Y300200D01*
X17045Y300124D01*
X16995Y300049D01*
X16942Y299977D01*
X16886Y299908D01*
X16827Y299841D01*
X16766Y299776D01*
X16701Y299715D01*
X16634Y299656D01*
X16565Y299600D01*
X16493Y299547D01*
X16418Y299497D01*
X16342Y299451D01*
X16264Y299408D01*
X16184Y299369D01*
X16102Y299333D01*
X16019Y299300D01*
X15934Y299272D01*
X15849Y299247D01*
X15762Y299225D01*
X15674Y299208D01*
X15586Y299195D01*
X15497Y299185D01*
X15408Y299179D01*
X15319Y299177D01*
X13273Y299177D01*
X15728Y299177D02*
X17365Y295903D01*
X20797Y295903D02*
X24070Y295903D01*
X20797Y295903D02*
X20797Y303269D01*
X24070Y303269D01*
X23252Y299995D02*
X20797Y299995D01*
X26877Y295903D02*
X28923Y295903D01*
X29012Y295905D01*
X29101Y295911D01*
X29190Y295921D01*
X29278Y295934D01*
X29366Y295951D01*
X29453Y295973D01*
X29538Y295998D01*
X29623Y296026D01*
X29706Y296059D01*
X29788Y296095D01*
X29868Y296134D01*
X29946Y296177D01*
X30022Y296223D01*
X30097Y296273D01*
X30169Y296326D01*
X30238Y296382D01*
X30305Y296441D01*
X30370Y296502D01*
X30431Y296567D01*
X30490Y296634D01*
X30546Y296703D01*
X30599Y296775D01*
X30649Y296850D01*
X30695Y296926D01*
X30738Y297004D01*
X30777Y297084D01*
X30813Y297166D01*
X30846Y297249D01*
X30874Y297334D01*
X30899Y297419D01*
X30921Y297506D01*
X30938Y297594D01*
X30951Y297682D01*
X30961Y297771D01*
X30967Y297860D01*
X30969Y297949D01*
X30967Y298038D01*
X30961Y298127D01*
X30951Y298216D01*
X30938Y298304D01*
X30921Y298392D01*
X30899Y298479D01*
X30874Y298564D01*
X30846Y298649D01*
X30813Y298732D01*
X30777Y298814D01*
X30738Y298894D01*
X30695Y298972D01*
X30649Y299048D01*
X30599Y299123D01*
X30546Y299195D01*
X30490Y299264D01*
X30431Y299331D01*
X30370Y299396D01*
X30305Y299457D01*
X30238Y299516D01*
X30169Y299572D01*
X30097Y299625D01*
X30022Y299675D01*
X29946Y299721D01*
X29868Y299764D01*
X29788Y299803D01*
X29706Y299839D01*
X29623Y299872D01*
X29538Y299900D01*
X29453Y299925D01*
X29366Y299947D01*
X29278Y299964D01*
X29190Y299977D01*
X29101Y299987D01*
X29012Y299993D01*
X28923Y299995D01*
X29332Y303269D02*
X26877Y303269D01*
X29332Y303269D02*
X29411Y303267D01*
X29490Y303261D01*
X29569Y303252D01*
X29647Y303239D01*
X29724Y303221D01*
X29800Y303201D01*
X29875Y303176D01*
X29949Y303148D01*
X30022Y303117D01*
X30093Y303081D01*
X30162Y303043D01*
X30229Y303001D01*
X30294Y302956D01*
X30357Y302908D01*
X30418Y302857D01*
X30475Y302803D01*
X30531Y302747D01*
X30583Y302688D01*
X30633Y302626D01*
X30679Y302562D01*
X30723Y302496D01*
X30763Y302428D01*
X30799Y302358D01*
X30833Y302286D01*
X30863Y302212D01*
X30889Y302138D01*
X30912Y302062D01*
X30930Y301985D01*
X30946Y301908D01*
X30957Y301829D01*
X30965Y301751D01*
X30969Y301672D01*
X30969Y301592D01*
X30965Y301513D01*
X30957Y301435D01*
X30946Y301356D01*
X30930Y301279D01*
X30912Y301202D01*
X30889Y301126D01*
X30863Y301052D01*
X30833Y300978D01*
X30799Y300906D01*
X30763Y300836D01*
X30723Y300768D01*
X30679Y300702D01*
X30633Y300638D01*
X30583Y300576D01*
X30531Y300517D01*
X30475Y300461D01*
X30418Y300407D01*
X30357Y300356D01*
X30294Y300308D01*
X30229Y300263D01*
X30162Y300221D01*
X30093Y300183D01*
X30022Y300147D01*
X29949Y300116D01*
X29875Y300088D01*
X29800Y300063D01*
X29724Y300043D01*
X29647Y300025D01*
X29569Y300012D01*
X29490Y300003D01*
X29411Y299997D01*
X29332Y299995D01*
X27695Y299995D01*
X13273Y278269D02*
X13273Y270903D01*
X13273Y278269D02*
X15319Y278269D01*
X15408Y278267D01*
X15497Y278261D01*
X15586Y278251D01*
X15674Y278238D01*
X15762Y278221D01*
X15849Y278199D01*
X15934Y278174D01*
X16019Y278146D01*
X16102Y278113D01*
X16184Y278077D01*
X16264Y278038D01*
X16342Y277995D01*
X16418Y277949D01*
X16493Y277899D01*
X16565Y277846D01*
X16634Y277790D01*
X16701Y277731D01*
X16766Y277670D01*
X16827Y277605D01*
X16886Y277538D01*
X16942Y277469D01*
X16995Y277397D01*
X17045Y277322D01*
X17091Y277246D01*
X17134Y277168D01*
X17173Y277088D01*
X17209Y277006D01*
X17242Y276923D01*
X17270Y276838D01*
X17295Y276753D01*
X17317Y276666D01*
X17334Y276578D01*
X17347Y276490D01*
X17357Y276401D01*
X17363Y276312D01*
X17365Y276223D01*
X17363Y276134D01*
X17357Y276045D01*
X17347Y275956D01*
X17334Y275868D01*
X17317Y275780D01*
X17295Y275693D01*
X17270Y275608D01*
X17242Y275523D01*
X17209Y275440D01*
X17173Y275358D01*
X17134Y275278D01*
X17091Y275200D01*
X17045Y275124D01*
X16995Y275049D01*
X16942Y274977D01*
X16886Y274908D01*
X16827Y274841D01*
X16766Y274776D01*
X16701Y274715D01*
X16634Y274656D01*
X16565Y274600D01*
X16493Y274547D01*
X16418Y274497D01*
X16342Y274451D01*
X16264Y274408D01*
X16184Y274369D01*
X16102Y274333D01*
X16019Y274300D01*
X15934Y274272D01*
X15849Y274247D01*
X15762Y274225D01*
X15674Y274208D01*
X15586Y274195D01*
X15497Y274185D01*
X15408Y274179D01*
X15319Y274177D01*
X13273Y274177D01*
X15728Y274177D02*
X17365Y270903D01*
X20797Y270903D02*
X24070Y270903D01*
X20797Y270903D02*
X20797Y278269D01*
X24070Y278269D01*
X23252Y274995D02*
X20797Y274995D01*
X26877Y272540D02*
X28514Y278269D01*
X26877Y272540D02*
X30969Y272540D01*
X29741Y274177D02*
X29741Y270903D01*
D14*
X286060Y92890D02*
X288540Y92890D01*
X316000Y92890D01*
X316000Y16840D01*
X313940Y16840D01*
X313365Y16840D01*
X313940Y16840D02*
X284000Y16840D01*
X284000Y92890D01*
X288540Y92890D01*
X295555Y58175D02*
X304445Y58175D01*
X300000Y61985D01*
X295555Y58175D01*
X295555Y61985D02*
X304445Y61985D01*
D10*
X280569Y39981D02*
X273203Y39981D01*
X273203Y42027D01*
X273205Y42116D01*
X273211Y42205D01*
X273221Y42294D01*
X273234Y42382D01*
X273251Y42470D01*
X273273Y42557D01*
X273298Y42642D01*
X273326Y42727D01*
X273359Y42810D01*
X273395Y42892D01*
X273434Y42972D01*
X273477Y43050D01*
X273523Y43126D01*
X273573Y43201D01*
X273626Y43273D01*
X273682Y43342D01*
X273741Y43409D01*
X273802Y43474D01*
X273867Y43535D01*
X273934Y43594D01*
X274003Y43650D01*
X274075Y43703D01*
X274150Y43753D01*
X274226Y43799D01*
X274304Y43842D01*
X274384Y43881D01*
X274466Y43917D01*
X274549Y43950D01*
X274634Y43978D01*
X274719Y44003D01*
X274806Y44025D01*
X274894Y44042D01*
X274982Y44055D01*
X275071Y44065D01*
X275160Y44071D01*
X275249Y44073D01*
X278523Y44073D01*
X278612Y44071D01*
X278701Y44065D01*
X278790Y44055D01*
X278878Y44042D01*
X278966Y44025D01*
X279053Y44003D01*
X279138Y43978D01*
X279223Y43950D01*
X279306Y43917D01*
X279388Y43881D01*
X279468Y43842D01*
X279546Y43799D01*
X279622Y43753D01*
X279697Y43703D01*
X279769Y43650D01*
X279838Y43594D01*
X279905Y43535D01*
X279970Y43474D01*
X280031Y43409D01*
X280090Y43342D01*
X280146Y43273D01*
X280199Y43201D01*
X280249Y43126D01*
X280295Y43050D01*
X280338Y42972D01*
X280377Y42892D01*
X280413Y42810D01*
X280446Y42727D01*
X280474Y42642D01*
X280499Y42557D01*
X280521Y42470D01*
X280538Y42382D01*
X280551Y42294D01*
X280561Y42205D01*
X280567Y42116D01*
X280569Y42027D01*
X280569Y39981D01*
X274840Y47540D02*
X273203Y49586D01*
X280569Y49586D01*
X280569Y47540D02*
X280569Y51632D01*
X275045Y58948D02*
X274960Y58946D01*
X274875Y58940D01*
X274791Y58930D01*
X274707Y58917D01*
X274623Y58899D01*
X274541Y58878D01*
X274460Y58853D01*
X274380Y58824D01*
X274301Y58791D01*
X274224Y58755D01*
X274149Y58715D01*
X274075Y58672D01*
X274004Y58626D01*
X273935Y58576D01*
X273868Y58523D01*
X273804Y58467D01*
X273743Y58408D01*
X273684Y58347D01*
X273628Y58283D01*
X273575Y58216D01*
X273525Y58147D01*
X273479Y58076D01*
X273436Y58002D01*
X273396Y57927D01*
X273360Y57850D01*
X273327Y57771D01*
X273298Y57691D01*
X273273Y57610D01*
X273252Y57528D01*
X273234Y57444D01*
X273221Y57360D01*
X273211Y57276D01*
X273205Y57191D01*
X273203Y57106D01*
X273205Y57010D01*
X273211Y56914D01*
X273221Y56819D01*
X273234Y56724D01*
X273252Y56629D01*
X273273Y56536D01*
X273298Y56443D01*
X273327Y56352D01*
X273359Y56261D01*
X273395Y56172D01*
X273435Y56085D01*
X273478Y55999D01*
X273524Y55915D01*
X273574Y55833D01*
X273628Y55753D01*
X273684Y55676D01*
X273744Y55601D01*
X273806Y55528D01*
X273872Y55458D01*
X273940Y55390D01*
X274011Y55325D01*
X274084Y55264D01*
X274160Y55205D01*
X274239Y55149D01*
X274319Y55097D01*
X274402Y55048D01*
X274486Y55002D01*
X274572Y54960D01*
X274660Y54922D01*
X274749Y54887D01*
X274840Y54855D01*
X276477Y58334D02*
X276418Y58394D01*
X276356Y58451D01*
X276292Y58506D01*
X276225Y58557D01*
X276156Y58606D01*
X276086Y58652D01*
X276013Y58695D01*
X275939Y58735D01*
X275863Y58771D01*
X275785Y58804D01*
X275706Y58834D01*
X275626Y58861D01*
X275545Y58884D01*
X275463Y58903D01*
X275381Y58919D01*
X275297Y58932D01*
X275213Y58941D01*
X275129Y58946D01*
X275045Y58948D01*
X276477Y58334D02*
X280569Y54855D01*
X280569Y58947D01*
X280569Y62754D02*
X273203Y62754D01*
X280569Y61935D02*
X280569Y63572D01*
X273203Y63572D02*
X273203Y61935D01*
X273203Y66803D02*
X280569Y66803D01*
X280569Y70896D02*
X273203Y66803D01*
X273203Y70896D02*
X280569Y70896D01*
X198681Y73081D02*
X198681Y80447D01*
X200727Y80447D01*
X200816Y80445D01*
X200905Y80439D01*
X200994Y80429D01*
X201082Y80416D01*
X201170Y80399D01*
X201257Y80377D01*
X201342Y80352D01*
X201427Y80324D01*
X201510Y80291D01*
X201592Y80255D01*
X201672Y80216D01*
X201750Y80173D01*
X201826Y80127D01*
X201901Y80077D01*
X201973Y80024D01*
X202042Y79968D01*
X202109Y79909D01*
X202174Y79848D01*
X202235Y79783D01*
X202294Y79716D01*
X202350Y79647D01*
X202403Y79575D01*
X202453Y79500D01*
X202499Y79424D01*
X202542Y79346D01*
X202581Y79266D01*
X202617Y79184D01*
X202650Y79101D01*
X202678Y79016D01*
X202703Y78931D01*
X202725Y78844D01*
X202742Y78756D01*
X202755Y78668D01*
X202765Y78579D01*
X202771Y78490D01*
X202773Y78401D01*
X202771Y78312D01*
X202765Y78223D01*
X202755Y78134D01*
X202742Y78046D01*
X202725Y77958D01*
X202703Y77871D01*
X202678Y77786D01*
X202650Y77701D01*
X202617Y77618D01*
X202581Y77536D01*
X202542Y77456D01*
X202499Y77378D01*
X202453Y77302D01*
X202403Y77227D01*
X202350Y77155D01*
X202294Y77086D01*
X202235Y77019D01*
X202174Y76954D01*
X202109Y76893D01*
X202042Y76834D01*
X201973Y76778D01*
X201901Y76725D01*
X201826Y76675D01*
X201750Y76629D01*
X201672Y76586D01*
X201592Y76547D01*
X201510Y76511D01*
X201427Y76478D01*
X201342Y76450D01*
X201257Y76425D01*
X201170Y76403D01*
X201082Y76386D01*
X200994Y76373D01*
X200905Y76363D01*
X200816Y76357D01*
X200727Y76355D01*
X198681Y76355D01*
X201136Y76355D02*
X202773Y73081D01*
X206205Y73081D02*
X206205Y80447D01*
X206205Y73081D02*
X209478Y73081D01*
X212529Y73081D02*
X212529Y80447D01*
X214575Y80447D01*
X214664Y80445D01*
X214753Y80439D01*
X214842Y80429D01*
X214930Y80416D01*
X215018Y80399D01*
X215105Y80377D01*
X215190Y80352D01*
X215275Y80324D01*
X215358Y80291D01*
X215440Y80255D01*
X215520Y80216D01*
X215598Y80173D01*
X215674Y80127D01*
X215749Y80077D01*
X215821Y80024D01*
X215890Y79968D01*
X215957Y79909D01*
X216022Y79848D01*
X216083Y79783D01*
X216142Y79716D01*
X216198Y79647D01*
X216251Y79575D01*
X216301Y79500D01*
X216347Y79424D01*
X216390Y79346D01*
X216429Y79266D01*
X216465Y79184D01*
X216498Y79101D01*
X216526Y79016D01*
X216551Y78931D01*
X216573Y78844D01*
X216590Y78756D01*
X216603Y78668D01*
X216613Y78579D01*
X216619Y78490D01*
X216621Y78401D01*
X216621Y75127D01*
X216619Y75038D01*
X216613Y74949D01*
X216603Y74860D01*
X216590Y74772D01*
X216573Y74684D01*
X216551Y74597D01*
X216526Y74512D01*
X216498Y74427D01*
X216465Y74344D01*
X216429Y74262D01*
X216390Y74182D01*
X216347Y74104D01*
X216301Y74028D01*
X216251Y73953D01*
X216198Y73881D01*
X216142Y73812D01*
X216083Y73745D01*
X216022Y73680D01*
X215957Y73619D01*
X215890Y73560D01*
X215821Y73504D01*
X215749Y73451D01*
X215674Y73401D01*
X215598Y73355D01*
X215520Y73312D01*
X215440Y73273D01*
X215358Y73237D01*
X215275Y73204D01*
X215190Y73176D01*
X215105Y73151D01*
X215018Y73129D01*
X214930Y73112D01*
X214842Y73099D01*
X214753Y73089D01*
X214664Y73083D01*
X214575Y73081D01*
X212529Y73081D01*
X220088Y73081D02*
X222134Y73081D01*
X222223Y73083D01*
X222312Y73089D01*
X222401Y73099D01*
X222489Y73112D01*
X222577Y73129D01*
X222664Y73151D01*
X222749Y73176D01*
X222834Y73204D01*
X222917Y73237D01*
X222999Y73273D01*
X223079Y73312D01*
X223157Y73355D01*
X223233Y73401D01*
X223308Y73451D01*
X223380Y73504D01*
X223449Y73560D01*
X223516Y73619D01*
X223581Y73680D01*
X223642Y73745D01*
X223701Y73812D01*
X223757Y73881D01*
X223810Y73953D01*
X223860Y74028D01*
X223906Y74104D01*
X223949Y74182D01*
X223988Y74262D01*
X224024Y74344D01*
X224057Y74427D01*
X224085Y74512D01*
X224110Y74597D01*
X224132Y74684D01*
X224149Y74772D01*
X224162Y74860D01*
X224172Y74949D01*
X224178Y75038D01*
X224180Y75127D01*
X224178Y75216D01*
X224172Y75305D01*
X224162Y75394D01*
X224149Y75482D01*
X224132Y75570D01*
X224110Y75657D01*
X224085Y75742D01*
X224057Y75827D01*
X224024Y75910D01*
X223988Y75992D01*
X223949Y76072D01*
X223906Y76150D01*
X223860Y76226D01*
X223810Y76301D01*
X223757Y76373D01*
X223701Y76442D01*
X223642Y76509D01*
X223581Y76574D01*
X223516Y76635D01*
X223449Y76694D01*
X223380Y76750D01*
X223308Y76803D01*
X223233Y76853D01*
X223157Y76899D01*
X223079Y76942D01*
X222999Y76981D01*
X222917Y77017D01*
X222834Y77050D01*
X222749Y77078D01*
X222664Y77103D01*
X222577Y77125D01*
X222489Y77142D01*
X222401Y77155D01*
X222312Y77165D01*
X222223Y77171D01*
X222134Y77173D01*
X222543Y80447D02*
X220088Y80447D01*
X222543Y80447D02*
X222622Y80445D01*
X222701Y80439D01*
X222780Y80430D01*
X222858Y80417D01*
X222935Y80399D01*
X223011Y80379D01*
X223086Y80354D01*
X223160Y80326D01*
X223233Y80295D01*
X223304Y80259D01*
X223373Y80221D01*
X223440Y80179D01*
X223505Y80134D01*
X223568Y80086D01*
X223629Y80035D01*
X223686Y79981D01*
X223742Y79925D01*
X223794Y79866D01*
X223844Y79804D01*
X223890Y79740D01*
X223934Y79674D01*
X223974Y79606D01*
X224010Y79536D01*
X224044Y79464D01*
X224074Y79390D01*
X224100Y79316D01*
X224123Y79240D01*
X224141Y79163D01*
X224157Y79086D01*
X224168Y79007D01*
X224176Y78929D01*
X224180Y78850D01*
X224180Y78770D01*
X224176Y78691D01*
X224168Y78613D01*
X224157Y78534D01*
X224141Y78457D01*
X224123Y78380D01*
X224100Y78304D01*
X224074Y78230D01*
X224044Y78156D01*
X224010Y78084D01*
X223974Y78014D01*
X223934Y77946D01*
X223890Y77880D01*
X223844Y77816D01*
X223794Y77754D01*
X223742Y77695D01*
X223686Y77639D01*
X223629Y77585D01*
X223568Y77534D01*
X223505Y77486D01*
X223440Y77441D01*
X223373Y77399D01*
X223304Y77361D01*
X223233Y77325D01*
X223160Y77294D01*
X223086Y77266D01*
X223011Y77241D01*
X222935Y77221D01*
X222858Y77203D01*
X222780Y77190D01*
X222701Y77181D01*
X222622Y77175D01*
X222543Y77173D01*
X220906Y77173D01*
D16*
X249375Y233125D03*
X249375Y246875D03*
D17*
X253250Y240000D03*
D10*
X238370Y252521D02*
X238370Y261919D01*
X238370Y252521D02*
X242547Y252521D01*
X245580Y251477D02*
X249757Y251477D01*
X253288Y259831D02*
X255898Y261919D01*
X255898Y252521D01*
X253288Y252521D02*
X258509Y252521D01*
X267653Y259570D02*
X267651Y259665D01*
X267645Y259759D01*
X267636Y259853D01*
X267623Y259947D01*
X267606Y260040D01*
X267585Y260132D01*
X267560Y260224D01*
X267532Y260314D01*
X267500Y260403D01*
X267465Y260491D01*
X267426Y260577D01*
X267384Y260662D01*
X267338Y260745D01*
X267289Y260826D01*
X267237Y260905D01*
X267182Y260982D01*
X267123Y261056D01*
X267062Y261128D01*
X266998Y261198D01*
X266931Y261265D01*
X266861Y261329D01*
X266789Y261390D01*
X266715Y261449D01*
X266638Y261504D01*
X266559Y261556D01*
X266478Y261605D01*
X266395Y261651D01*
X266310Y261693D01*
X266224Y261732D01*
X266136Y261767D01*
X266047Y261799D01*
X265957Y261827D01*
X265865Y261852D01*
X265773Y261873D01*
X265680Y261890D01*
X265586Y261903D01*
X265492Y261912D01*
X265398Y261918D01*
X265303Y261920D01*
X265303Y261919D02*
X265195Y261917D01*
X265086Y261911D01*
X264978Y261901D01*
X264871Y261888D01*
X264764Y261870D01*
X264657Y261849D01*
X264552Y261824D01*
X264447Y261795D01*
X264344Y261763D01*
X264242Y261726D01*
X264141Y261686D01*
X264042Y261643D01*
X263944Y261596D01*
X263848Y261545D01*
X263754Y261491D01*
X263662Y261434D01*
X263572Y261373D01*
X263484Y261309D01*
X263399Y261243D01*
X263316Y261173D01*
X263236Y261100D01*
X263158Y261024D01*
X263083Y260946D01*
X263011Y260865D01*
X262942Y260781D01*
X262876Y260695D01*
X262813Y260607D01*
X262754Y260516D01*
X262697Y260424D01*
X262644Y260329D01*
X262595Y260233D01*
X262549Y260134D01*
X262506Y260035D01*
X262467Y259933D01*
X262432Y259831D01*
X266870Y257742D02*
X266939Y257811D01*
X267005Y257882D01*
X267069Y257955D01*
X267130Y258031D01*
X267188Y258110D01*
X267242Y258190D01*
X267294Y258273D01*
X267342Y258357D01*
X267388Y258443D01*
X267429Y258531D01*
X267468Y258621D01*
X267503Y258712D01*
X267534Y258804D01*
X267562Y258897D01*
X267586Y258991D01*
X267606Y259086D01*
X267623Y259182D01*
X267636Y259279D01*
X267645Y259376D01*
X267651Y259473D01*
X267653Y259570D01*
X266870Y257742D02*
X262432Y252521D01*
X267653Y252521D01*
X274186Y252521D02*
X271054Y261919D01*
X277319Y261919D02*
X274186Y252521D01*
X167681Y253081D02*
X167681Y262479D01*
X170292Y262479D01*
X170393Y262477D01*
X170494Y262471D01*
X170595Y262461D01*
X170695Y262448D01*
X170795Y262430D01*
X170894Y262409D01*
X170992Y262383D01*
X171089Y262354D01*
X171185Y262322D01*
X171279Y262285D01*
X171372Y262245D01*
X171464Y262201D01*
X171553Y262154D01*
X171641Y262103D01*
X171727Y262049D01*
X171810Y261992D01*
X171892Y261932D01*
X171970Y261868D01*
X172047Y261802D01*
X172120Y261732D01*
X172191Y261660D01*
X172259Y261585D01*
X172324Y261507D01*
X172386Y261427D01*
X172445Y261345D01*
X172501Y261260D01*
X172553Y261173D01*
X172602Y261085D01*
X172648Y260994D01*
X172689Y260902D01*
X172728Y260808D01*
X172762Y260713D01*
X172793Y260617D01*
X172820Y260519D01*
X172844Y260421D01*
X172863Y260321D01*
X172879Y260221D01*
X172891Y260121D01*
X172899Y260020D01*
X172903Y259919D01*
X172903Y259817D01*
X172899Y259716D01*
X172891Y259615D01*
X172879Y259515D01*
X172863Y259415D01*
X172844Y259315D01*
X172820Y259217D01*
X172793Y259119D01*
X172762Y259023D01*
X172728Y258928D01*
X172689Y258834D01*
X172648Y258742D01*
X172602Y258651D01*
X172553Y258562D01*
X172501Y258476D01*
X172445Y258391D01*
X172386Y258309D01*
X172324Y258229D01*
X172259Y258151D01*
X172191Y258076D01*
X172120Y258004D01*
X172047Y257934D01*
X171970Y257868D01*
X171892Y257804D01*
X171810Y257744D01*
X171727Y257687D01*
X171641Y257633D01*
X171553Y257582D01*
X171464Y257535D01*
X171372Y257491D01*
X171279Y257451D01*
X171185Y257414D01*
X171089Y257382D01*
X170992Y257353D01*
X170894Y257327D01*
X170795Y257306D01*
X170695Y257288D01*
X170595Y257275D01*
X170494Y257265D01*
X170393Y257259D01*
X170292Y257257D01*
X170292Y257258D02*
X167681Y257258D01*
X170814Y257258D02*
X172902Y253081D01*
X177090Y253081D02*
X177090Y262479D01*
X177090Y253081D02*
X181267Y253081D01*
X184997Y253081D02*
X184997Y262479D01*
X187608Y262479D01*
X187708Y262477D01*
X187808Y262471D01*
X187907Y262462D01*
X188007Y262448D01*
X188105Y262431D01*
X188203Y262410D01*
X188300Y262386D01*
X188396Y262357D01*
X188491Y262325D01*
X188584Y262290D01*
X188676Y262251D01*
X188767Y262208D01*
X188855Y262162D01*
X188942Y262112D01*
X189027Y262060D01*
X189110Y262004D01*
X189191Y261945D01*
X189269Y261882D01*
X189345Y261817D01*
X189419Y261749D01*
X189489Y261679D01*
X189557Y261605D01*
X189622Y261529D01*
X189685Y261451D01*
X189744Y261370D01*
X189800Y261287D01*
X189852Y261202D01*
X189902Y261115D01*
X189948Y261027D01*
X189991Y260936D01*
X190030Y260844D01*
X190065Y260751D01*
X190097Y260656D01*
X190126Y260560D01*
X190150Y260463D01*
X190171Y260365D01*
X190188Y260267D01*
X190202Y260167D01*
X190211Y260068D01*
X190217Y259968D01*
X190219Y259868D01*
X190219Y255692D01*
X190217Y255592D01*
X190211Y255492D01*
X190202Y255393D01*
X190188Y255293D01*
X190171Y255195D01*
X190150Y255097D01*
X190126Y255000D01*
X190097Y254904D01*
X190065Y254809D01*
X190030Y254716D01*
X189991Y254624D01*
X189948Y254533D01*
X189902Y254445D01*
X189852Y254358D01*
X189800Y254273D01*
X189744Y254190D01*
X189685Y254109D01*
X189622Y254031D01*
X189557Y253955D01*
X189489Y253881D01*
X189419Y253811D01*
X189345Y253743D01*
X189269Y253678D01*
X189191Y253615D01*
X189110Y253556D01*
X189027Y253500D01*
X188942Y253448D01*
X188855Y253398D01*
X188767Y253352D01*
X188676Y253309D01*
X188584Y253270D01*
X188491Y253235D01*
X188396Y253203D01*
X188300Y253174D01*
X188203Y253150D01*
X188105Y253129D01*
X188007Y253112D01*
X187907Y253098D01*
X187808Y253089D01*
X187708Y253083D01*
X187608Y253081D01*
X184997Y253081D01*
X194446Y253081D02*
X197579Y253081D01*
X197668Y253083D01*
X197756Y253089D01*
X197844Y253098D01*
X197932Y253111D01*
X198019Y253128D01*
X198105Y253148D01*
X198190Y253173D01*
X198275Y253200D01*
X198358Y253232D01*
X198439Y253266D01*
X198519Y253305D01*
X198597Y253346D01*
X198674Y253391D01*
X198748Y253439D01*
X198821Y253490D01*
X198891Y253544D01*
X198958Y253602D01*
X199024Y253662D01*
X199086Y253724D01*
X199146Y253790D01*
X199204Y253857D01*
X199258Y253927D01*
X199309Y254000D01*
X199357Y254074D01*
X199402Y254151D01*
X199443Y254229D01*
X199482Y254309D01*
X199516Y254390D01*
X199548Y254473D01*
X199575Y254558D01*
X199600Y254643D01*
X199620Y254729D01*
X199637Y254816D01*
X199650Y254904D01*
X199659Y254992D01*
X199665Y255080D01*
X199667Y255169D01*
X199667Y256214D01*
X199665Y256303D01*
X199659Y256391D01*
X199650Y256479D01*
X199637Y256567D01*
X199620Y256654D01*
X199600Y256740D01*
X199575Y256825D01*
X199548Y256910D01*
X199516Y256993D01*
X199482Y257074D01*
X199443Y257154D01*
X199402Y257232D01*
X199357Y257309D01*
X199309Y257383D01*
X199258Y257456D01*
X199204Y257526D01*
X199146Y257593D01*
X199086Y257659D01*
X199024Y257721D01*
X198958Y257781D01*
X198891Y257839D01*
X198821Y257893D01*
X198748Y257944D01*
X198674Y257992D01*
X198597Y258037D01*
X198519Y258078D01*
X198439Y258117D01*
X198358Y258151D01*
X198275Y258183D01*
X198190Y258210D01*
X198105Y258235D01*
X198019Y258255D01*
X197932Y258272D01*
X197844Y258285D01*
X197756Y258294D01*
X197668Y258300D01*
X197579Y258302D01*
X194446Y258302D01*
X194446Y262479D01*
X199667Y262479D01*
D16*
X119375Y233125D03*
X119375Y246875D03*
D17*
X123250Y240000D03*
D10*
X98765Y252521D02*
X98765Y261919D01*
X98765Y252521D02*
X102942Y252521D01*
X105975Y251477D02*
X110152Y251477D01*
X114005Y252521D02*
X118182Y252521D01*
X114005Y252521D02*
X114005Y261919D01*
X118182Y261919D01*
X117137Y257742D02*
X114005Y257742D01*
X121929Y261919D02*
X121929Y252521D01*
X121929Y261919D02*
X126106Y261919D01*
X126106Y257742D02*
X121929Y257742D01*
X129837Y255132D02*
X129837Y261919D01*
X129836Y255132D02*
X129838Y255031D01*
X129844Y254930D01*
X129854Y254829D01*
X129867Y254729D01*
X129885Y254629D01*
X129906Y254530D01*
X129932Y254432D01*
X129961Y254335D01*
X129993Y254239D01*
X130030Y254145D01*
X130070Y254052D01*
X130114Y253960D01*
X130161Y253871D01*
X130212Y253783D01*
X130266Y253697D01*
X130323Y253614D01*
X130383Y253532D01*
X130447Y253454D01*
X130513Y253377D01*
X130583Y253304D01*
X130655Y253233D01*
X130730Y253165D01*
X130808Y253100D01*
X130888Y253038D01*
X130970Y252979D01*
X131055Y252923D01*
X131142Y252871D01*
X131230Y252822D01*
X131321Y252776D01*
X131413Y252735D01*
X131507Y252696D01*
X131602Y252662D01*
X131698Y252631D01*
X131796Y252604D01*
X131894Y252580D01*
X131994Y252561D01*
X132094Y252545D01*
X132194Y252533D01*
X132295Y252525D01*
X132396Y252521D01*
X132498Y252521D01*
X132599Y252525D01*
X132700Y252533D01*
X132800Y252545D01*
X132900Y252561D01*
X133000Y252580D01*
X133098Y252604D01*
X133196Y252631D01*
X133292Y252662D01*
X133387Y252696D01*
X133481Y252735D01*
X133573Y252776D01*
X133664Y252822D01*
X133752Y252871D01*
X133839Y252923D01*
X133924Y252979D01*
X134006Y253038D01*
X134086Y253100D01*
X134164Y253165D01*
X134239Y253233D01*
X134311Y253304D01*
X134381Y253377D01*
X134447Y253454D01*
X134511Y253532D01*
X134571Y253614D01*
X134628Y253697D01*
X134682Y253783D01*
X134733Y253871D01*
X134780Y253960D01*
X134824Y254052D01*
X134864Y254145D01*
X134901Y254239D01*
X134933Y254335D01*
X134962Y254432D01*
X134988Y254530D01*
X135009Y254629D01*
X135027Y254729D01*
X135040Y254829D01*
X135050Y254930D01*
X135056Y255031D01*
X135058Y255132D01*
X135058Y261919D01*
X144201Y254609D02*
X144199Y254520D01*
X144193Y254432D01*
X144184Y254344D01*
X144171Y254256D01*
X144154Y254169D01*
X144134Y254083D01*
X144109Y253998D01*
X144082Y253913D01*
X144050Y253830D01*
X144016Y253749D01*
X143977Y253669D01*
X143936Y253591D01*
X143891Y253514D01*
X143843Y253440D01*
X143792Y253367D01*
X143738Y253297D01*
X143680Y253230D01*
X143620Y253164D01*
X143558Y253102D01*
X143492Y253042D01*
X143425Y252984D01*
X143355Y252930D01*
X143282Y252879D01*
X143208Y252831D01*
X143131Y252786D01*
X143053Y252745D01*
X142973Y252706D01*
X142892Y252672D01*
X142809Y252640D01*
X142724Y252613D01*
X142639Y252588D01*
X142553Y252568D01*
X142466Y252551D01*
X142378Y252538D01*
X142290Y252529D01*
X142202Y252523D01*
X142113Y252521D01*
X141984Y252523D01*
X141855Y252529D01*
X141726Y252538D01*
X141598Y252551D01*
X141470Y252568D01*
X141343Y252589D01*
X141216Y252613D01*
X141090Y252641D01*
X140965Y252673D01*
X140841Y252708D01*
X140718Y252747D01*
X140596Y252790D01*
X140476Y252836D01*
X140357Y252886D01*
X140239Y252939D01*
X140123Y252995D01*
X140009Y253055D01*
X139896Y253118D01*
X139786Y253185D01*
X139677Y253254D01*
X139571Y253327D01*
X139466Y253403D01*
X139364Y253482D01*
X139265Y253564D01*
X139167Y253648D01*
X139072Y253736D01*
X138980Y253826D01*
X139242Y259831D02*
X139244Y259920D01*
X139250Y260008D01*
X139259Y260096D01*
X139272Y260184D01*
X139289Y260271D01*
X139309Y260357D01*
X139334Y260442D01*
X139361Y260527D01*
X139393Y260610D01*
X139427Y260691D01*
X139466Y260771D01*
X139507Y260849D01*
X139552Y260926D01*
X139600Y261000D01*
X139651Y261073D01*
X139705Y261143D01*
X139763Y261210D01*
X139823Y261276D01*
X139885Y261338D01*
X139951Y261398D01*
X140018Y261456D01*
X140088Y261510D01*
X140161Y261561D01*
X140235Y261609D01*
X140312Y261654D01*
X140390Y261695D01*
X140470Y261734D01*
X140551Y261768D01*
X140634Y261800D01*
X140719Y261827D01*
X140804Y261852D01*
X140890Y261872D01*
X140977Y261889D01*
X141065Y261902D01*
X141153Y261911D01*
X141241Y261917D01*
X141330Y261919D01*
X141450Y261917D01*
X141570Y261912D01*
X141690Y261902D01*
X141809Y261890D01*
X141928Y261873D01*
X142046Y261853D01*
X142164Y261829D01*
X142280Y261802D01*
X142396Y261771D01*
X142511Y261737D01*
X142625Y261699D01*
X142738Y261657D01*
X142849Y261612D01*
X142959Y261564D01*
X143067Y261513D01*
X143174Y261458D01*
X143279Y261400D01*
X143382Y261338D01*
X143483Y261274D01*
X143583Y261206D01*
X143680Y261136D01*
X140286Y258004D02*
X140208Y258052D01*
X140132Y258104D01*
X140059Y258158D01*
X139988Y258216D01*
X139919Y258277D01*
X139853Y258341D01*
X139790Y258408D01*
X139730Y258477D01*
X139673Y258549D01*
X139619Y258623D01*
X139569Y258700D01*
X139521Y258779D01*
X139478Y258859D01*
X139437Y258942D01*
X139401Y259026D01*
X139368Y259111D01*
X139339Y259198D01*
X139313Y259287D01*
X139291Y259376D01*
X139274Y259466D01*
X139260Y259556D01*
X139250Y259648D01*
X139244Y259739D01*
X139242Y259831D01*
X143158Y256436D02*
X143236Y256388D01*
X143312Y256336D01*
X143385Y256282D01*
X143456Y256224D01*
X143525Y256163D01*
X143591Y256099D01*
X143654Y256032D01*
X143714Y255963D01*
X143771Y255891D01*
X143825Y255817D01*
X143875Y255740D01*
X143923Y255661D01*
X143966Y255581D01*
X144007Y255498D01*
X144043Y255414D01*
X144076Y255329D01*
X144105Y255242D01*
X144131Y255153D01*
X144153Y255064D01*
X144170Y254974D01*
X144184Y254884D01*
X144194Y254792D01*
X144200Y254701D01*
X144202Y254609D01*
X143158Y256437D02*
X140286Y258003D01*
X148142Y252521D02*
X152319Y252521D01*
X148142Y252521D02*
X148142Y261919D01*
X152319Y261919D01*
X151275Y257742D02*
X148142Y257742D01*
D18*
X78346Y96357D02*
X71854Y96357D01*
X71854Y94554D02*
X71854Y98161D01*
X71854Y100733D02*
X78346Y100733D01*
X71854Y100733D02*
X71854Y102536D01*
X71856Y102619D01*
X71862Y102702D01*
X71871Y102785D01*
X71885Y102867D01*
X71902Y102949D01*
X71923Y103029D01*
X71947Y103109D01*
X71976Y103187D01*
X72008Y103264D01*
X72043Y103340D01*
X72082Y103413D01*
X72124Y103485D01*
X72170Y103555D01*
X72218Y103623D01*
X72270Y103688D01*
X72325Y103751D01*
X72382Y103811D01*
X72442Y103868D01*
X72505Y103923D01*
X72570Y103975D01*
X72638Y104023D01*
X72708Y104069D01*
X72780Y104111D01*
X72853Y104150D01*
X72929Y104185D01*
X73006Y104217D01*
X73084Y104246D01*
X73164Y104270D01*
X73244Y104291D01*
X73326Y104308D01*
X73408Y104322D01*
X73491Y104331D01*
X73574Y104337D01*
X73657Y104339D01*
X73740Y104337D01*
X73823Y104331D01*
X73906Y104322D01*
X73988Y104308D01*
X74070Y104291D01*
X74150Y104270D01*
X74230Y104246D01*
X74308Y104217D01*
X74385Y104185D01*
X74461Y104150D01*
X74534Y104111D01*
X74606Y104069D01*
X74676Y104023D01*
X74744Y103975D01*
X74809Y103923D01*
X74872Y103868D01*
X74932Y103811D01*
X74989Y103751D01*
X75044Y103688D01*
X75096Y103623D01*
X75144Y103555D01*
X75190Y103485D01*
X75232Y103413D01*
X75271Y103340D01*
X75306Y103264D01*
X75338Y103187D01*
X75367Y103109D01*
X75391Y103029D01*
X75412Y102949D01*
X75429Y102867D01*
X75443Y102785D01*
X75452Y102702D01*
X75458Y102619D01*
X75460Y102536D01*
X75461Y102536D02*
X75461Y100733D01*
X75821Y106793D02*
X75821Y111121D01*
X74739Y116609D02*
X74739Y117691D01*
X78346Y117691D01*
X78346Y115527D01*
X78344Y115451D01*
X78338Y115376D01*
X78328Y115301D01*
X78314Y115227D01*
X78297Y115154D01*
X78275Y115081D01*
X78250Y115010D01*
X78221Y114940D01*
X78189Y114872D01*
X78153Y114806D01*
X78113Y114741D01*
X78070Y114679D01*
X78024Y114619D01*
X77975Y114561D01*
X77923Y114507D01*
X77869Y114455D01*
X77811Y114406D01*
X77751Y114360D01*
X77689Y114317D01*
X77625Y114277D01*
X77558Y114241D01*
X77490Y114209D01*
X77420Y114180D01*
X77349Y114155D01*
X77277Y114133D01*
X77203Y114116D01*
X77129Y114102D01*
X77054Y114092D01*
X76979Y114086D01*
X76903Y114084D01*
X73297Y114084D01*
X73221Y114086D01*
X73146Y114092D01*
X73071Y114102D01*
X72997Y114116D01*
X72924Y114133D01*
X72851Y114155D01*
X72780Y114180D01*
X72710Y114209D01*
X72642Y114241D01*
X72576Y114277D01*
X72511Y114317D01*
X72449Y114360D01*
X72389Y114406D01*
X72331Y114455D01*
X72277Y114507D01*
X72225Y114561D01*
X72176Y114619D01*
X72130Y114679D01*
X72087Y114741D01*
X72047Y114805D01*
X72011Y114872D01*
X71979Y114940D01*
X71950Y115010D01*
X71925Y115081D01*
X71903Y115153D01*
X71886Y115227D01*
X71872Y115301D01*
X71862Y115376D01*
X71856Y115451D01*
X71854Y115527D01*
X71854Y117691D01*
X71854Y120804D02*
X78346Y120804D01*
X78346Y124411D02*
X71854Y120804D01*
X71854Y124411D02*
X78346Y124411D01*
X78346Y127524D02*
X71854Y127524D01*
X71854Y129327D01*
X71856Y129410D01*
X71862Y129493D01*
X71871Y129576D01*
X71885Y129658D01*
X71902Y129740D01*
X71923Y129820D01*
X71947Y129900D01*
X71976Y129978D01*
X72008Y130055D01*
X72043Y130131D01*
X72082Y130204D01*
X72124Y130276D01*
X72170Y130346D01*
X72218Y130414D01*
X72270Y130479D01*
X72325Y130542D01*
X72382Y130602D01*
X72442Y130659D01*
X72505Y130714D01*
X72570Y130766D01*
X72638Y130814D01*
X72708Y130860D01*
X72780Y130902D01*
X72853Y130941D01*
X72929Y130976D01*
X73006Y131008D01*
X73084Y131037D01*
X73164Y131061D01*
X73244Y131082D01*
X73326Y131099D01*
X73408Y131113D01*
X73491Y131122D01*
X73574Y131128D01*
X73657Y131130D01*
X73657Y131131D02*
X76543Y131131D01*
X76543Y131130D02*
X76626Y131128D01*
X76709Y131122D01*
X76792Y131113D01*
X76874Y131099D01*
X76956Y131082D01*
X77036Y131061D01*
X77116Y131037D01*
X77194Y131008D01*
X77271Y130976D01*
X77347Y130941D01*
X77420Y130902D01*
X77492Y130860D01*
X77562Y130814D01*
X77630Y130766D01*
X77695Y130714D01*
X77758Y130659D01*
X77818Y130602D01*
X77875Y130542D01*
X77930Y130479D01*
X77982Y130414D01*
X78030Y130346D01*
X78076Y130276D01*
X78118Y130204D01*
X78157Y130131D01*
X78192Y130055D01*
X78224Y129978D01*
X78253Y129900D01*
X78277Y129820D01*
X78298Y129740D01*
X78315Y129658D01*
X78329Y129576D01*
X78338Y129493D01*
X78344Y129410D01*
X78346Y129327D01*
X78346Y127524D01*
X6357Y126654D02*
X6357Y133146D01*
X4554Y133146D02*
X8161Y133146D01*
X10733Y133146D02*
X10733Y126654D01*
X10733Y133146D02*
X12536Y133146D01*
X12619Y133144D01*
X12702Y133138D01*
X12785Y133129D01*
X12867Y133115D01*
X12949Y133098D01*
X13029Y133077D01*
X13109Y133053D01*
X13187Y133024D01*
X13264Y132992D01*
X13340Y132957D01*
X13413Y132918D01*
X13485Y132876D01*
X13555Y132830D01*
X13623Y132782D01*
X13688Y132730D01*
X13751Y132675D01*
X13811Y132618D01*
X13868Y132558D01*
X13923Y132495D01*
X13975Y132430D01*
X14023Y132362D01*
X14069Y132292D01*
X14111Y132220D01*
X14150Y132147D01*
X14185Y132071D01*
X14217Y131994D01*
X14246Y131916D01*
X14270Y131836D01*
X14291Y131756D01*
X14308Y131674D01*
X14322Y131592D01*
X14331Y131509D01*
X14337Y131426D01*
X14339Y131343D01*
X14337Y131260D01*
X14331Y131177D01*
X14322Y131094D01*
X14308Y131012D01*
X14291Y130930D01*
X14270Y130850D01*
X14246Y130770D01*
X14217Y130692D01*
X14185Y130615D01*
X14150Y130539D01*
X14111Y130466D01*
X14069Y130394D01*
X14023Y130324D01*
X13975Y130256D01*
X13923Y130191D01*
X13868Y130128D01*
X13811Y130068D01*
X13751Y130011D01*
X13688Y129956D01*
X13623Y129904D01*
X13555Y129856D01*
X13485Y129810D01*
X13413Y129768D01*
X13340Y129729D01*
X13264Y129694D01*
X13187Y129662D01*
X13109Y129633D01*
X13029Y129609D01*
X12949Y129588D01*
X12867Y129571D01*
X12785Y129557D01*
X12702Y129548D01*
X12619Y129542D01*
X12536Y129540D01*
X12536Y129539D02*
X10733Y129539D01*
X16793Y129179D02*
X21121Y129179D01*
X23874Y128457D02*
X23874Y131343D01*
X23876Y131426D01*
X23882Y131509D01*
X23891Y131592D01*
X23905Y131674D01*
X23922Y131756D01*
X23943Y131836D01*
X23967Y131916D01*
X23996Y131994D01*
X24028Y132071D01*
X24063Y132147D01*
X24102Y132220D01*
X24144Y132292D01*
X24190Y132362D01*
X24238Y132430D01*
X24290Y132495D01*
X24345Y132558D01*
X24402Y132618D01*
X24462Y132675D01*
X24525Y132730D01*
X24590Y132782D01*
X24658Y132830D01*
X24728Y132876D01*
X24800Y132918D01*
X24873Y132957D01*
X24949Y132992D01*
X25026Y133024D01*
X25104Y133053D01*
X25184Y133077D01*
X25264Y133098D01*
X25346Y133115D01*
X25428Y133129D01*
X25511Y133138D01*
X25594Y133144D01*
X25677Y133146D01*
X25760Y133144D01*
X25843Y133138D01*
X25926Y133129D01*
X26008Y133115D01*
X26090Y133098D01*
X26170Y133077D01*
X26250Y133053D01*
X26328Y133024D01*
X26405Y132992D01*
X26481Y132957D01*
X26554Y132918D01*
X26626Y132876D01*
X26696Y132830D01*
X26764Y132782D01*
X26829Y132730D01*
X26892Y132675D01*
X26952Y132618D01*
X27009Y132558D01*
X27064Y132495D01*
X27116Y132430D01*
X27164Y132362D01*
X27210Y132292D01*
X27252Y132220D01*
X27291Y132147D01*
X27326Y132071D01*
X27358Y131994D01*
X27387Y131916D01*
X27411Y131836D01*
X27432Y131756D01*
X27449Y131674D01*
X27463Y131592D01*
X27472Y131509D01*
X27478Y131426D01*
X27480Y131343D01*
X27481Y131343D02*
X27481Y128457D01*
X27480Y128457D02*
X27478Y128374D01*
X27472Y128291D01*
X27463Y128208D01*
X27449Y128126D01*
X27432Y128044D01*
X27411Y127964D01*
X27387Y127884D01*
X27358Y127806D01*
X27326Y127729D01*
X27291Y127653D01*
X27252Y127580D01*
X27210Y127508D01*
X27164Y127438D01*
X27116Y127370D01*
X27064Y127305D01*
X27009Y127242D01*
X26952Y127182D01*
X26892Y127125D01*
X26829Y127070D01*
X26764Y127018D01*
X26696Y126970D01*
X26626Y126924D01*
X26554Y126882D01*
X26481Y126843D01*
X26405Y126808D01*
X26328Y126776D01*
X26250Y126747D01*
X26170Y126723D01*
X26090Y126702D01*
X26008Y126685D01*
X25926Y126671D01*
X25843Y126662D01*
X25760Y126656D01*
X25677Y126654D01*
X25594Y126656D01*
X25511Y126662D01*
X25428Y126671D01*
X25346Y126685D01*
X25264Y126702D01*
X25184Y126723D01*
X25104Y126747D01*
X25026Y126776D01*
X24949Y126808D01*
X24873Y126843D01*
X24800Y126882D01*
X24728Y126924D01*
X24658Y126970D01*
X24590Y127018D01*
X24525Y127070D01*
X24462Y127125D01*
X24402Y127182D01*
X24345Y127242D01*
X24290Y127305D01*
X24238Y127370D01*
X24190Y127438D01*
X24144Y127508D01*
X24102Y127580D01*
X24063Y127653D01*
X24028Y127729D01*
X23996Y127806D01*
X23967Y127884D01*
X23943Y127964D01*
X23922Y128044D01*
X23905Y128126D01*
X23891Y128208D01*
X23882Y128291D01*
X23876Y128374D01*
X23874Y128457D01*
X31599Y126654D02*
X33042Y126654D01*
X31599Y126654D02*
X31523Y126656D01*
X31448Y126662D01*
X31373Y126672D01*
X31299Y126686D01*
X31226Y126703D01*
X31153Y126725D01*
X31082Y126750D01*
X31012Y126779D01*
X30944Y126811D01*
X30878Y126847D01*
X30813Y126887D01*
X30751Y126930D01*
X30691Y126976D01*
X30633Y127025D01*
X30579Y127077D01*
X30527Y127131D01*
X30478Y127189D01*
X30432Y127249D01*
X30389Y127311D01*
X30349Y127376D01*
X30313Y127442D01*
X30281Y127510D01*
X30252Y127580D01*
X30227Y127651D01*
X30205Y127724D01*
X30188Y127797D01*
X30174Y127871D01*
X30164Y127946D01*
X30158Y128021D01*
X30156Y128097D01*
X30156Y131703D01*
X30158Y131779D01*
X30164Y131854D01*
X30174Y131929D01*
X30188Y132003D01*
X30205Y132076D01*
X30227Y132149D01*
X30252Y132220D01*
X30281Y132290D01*
X30313Y132358D01*
X30349Y132424D01*
X30389Y132489D01*
X30432Y132551D01*
X30478Y132611D01*
X30527Y132669D01*
X30579Y132723D01*
X30633Y132775D01*
X30691Y132824D01*
X30751Y132870D01*
X30813Y132913D01*
X30877Y132953D01*
X30944Y132989D01*
X31012Y133021D01*
X31082Y133050D01*
X31153Y133075D01*
X31225Y133097D01*
X31299Y133114D01*
X31373Y133128D01*
X31448Y133138D01*
X31523Y133144D01*
X31599Y133146D01*
X33042Y133146D01*
X35634Y133146D02*
X35634Y126654D01*
X35634Y133146D02*
X37437Y133146D01*
X37520Y133144D01*
X37603Y133138D01*
X37686Y133129D01*
X37768Y133115D01*
X37850Y133098D01*
X37930Y133077D01*
X38010Y133053D01*
X38088Y133024D01*
X38165Y132992D01*
X38241Y132957D01*
X38314Y132918D01*
X38386Y132876D01*
X38456Y132830D01*
X38524Y132782D01*
X38589Y132730D01*
X38652Y132675D01*
X38712Y132618D01*
X38769Y132558D01*
X38824Y132495D01*
X38876Y132430D01*
X38924Y132362D01*
X38970Y132292D01*
X39012Y132220D01*
X39051Y132147D01*
X39086Y132071D01*
X39118Y131994D01*
X39147Y131916D01*
X39171Y131836D01*
X39192Y131756D01*
X39209Y131674D01*
X39223Y131592D01*
X39232Y131509D01*
X39238Y131426D01*
X39240Y131343D01*
X39241Y131343D02*
X39241Y128457D01*
X39240Y128457D02*
X39238Y128374D01*
X39232Y128291D01*
X39223Y128208D01*
X39209Y128126D01*
X39192Y128044D01*
X39171Y127964D01*
X39147Y127884D01*
X39118Y127806D01*
X39086Y127729D01*
X39051Y127653D01*
X39012Y127580D01*
X38970Y127508D01*
X38924Y127438D01*
X38876Y127370D01*
X38824Y127305D01*
X38769Y127242D01*
X38712Y127182D01*
X38652Y127125D01*
X38589Y127070D01*
X38524Y127018D01*
X38456Y126970D01*
X38386Y126924D01*
X38314Y126882D01*
X38241Y126843D01*
X38165Y126808D01*
X38088Y126776D01*
X38010Y126747D01*
X37930Y126723D01*
X37850Y126702D01*
X37768Y126685D01*
X37686Y126671D01*
X37603Y126662D01*
X37520Y126656D01*
X37437Y126654D01*
X35634Y126654D01*
X41875Y125933D02*
X44760Y125933D01*
X47406Y126654D02*
X50291Y126654D01*
X47406Y126654D02*
X47406Y133146D01*
X50291Y133146D01*
X49570Y130261D02*
X47406Y130261D01*
X52283Y126654D02*
X56611Y133146D01*
X52283Y133146D02*
X56611Y126654D01*
X60327Y126654D02*
X60327Y133146D01*
X58524Y133146D02*
X62130Y133146D01*
X60552Y62346D02*
X60552Y55854D01*
X58749Y62346D02*
X62356Y62346D01*
X64928Y62346D02*
X64928Y55854D01*
X64928Y62346D02*
X66731Y62346D01*
X66814Y62344D01*
X66897Y62338D01*
X66980Y62329D01*
X67062Y62315D01*
X67144Y62298D01*
X67224Y62277D01*
X67304Y62253D01*
X67382Y62224D01*
X67459Y62192D01*
X67535Y62157D01*
X67608Y62118D01*
X67680Y62076D01*
X67750Y62030D01*
X67818Y61982D01*
X67883Y61930D01*
X67946Y61875D01*
X68006Y61818D01*
X68063Y61758D01*
X68118Y61695D01*
X68170Y61630D01*
X68218Y61562D01*
X68264Y61492D01*
X68306Y61420D01*
X68345Y61347D01*
X68380Y61271D01*
X68412Y61194D01*
X68441Y61116D01*
X68465Y61036D01*
X68486Y60956D01*
X68503Y60874D01*
X68517Y60792D01*
X68526Y60709D01*
X68532Y60626D01*
X68534Y60543D01*
X68532Y60460D01*
X68526Y60377D01*
X68517Y60294D01*
X68503Y60212D01*
X68486Y60130D01*
X68465Y60050D01*
X68441Y59970D01*
X68412Y59892D01*
X68380Y59815D01*
X68345Y59739D01*
X68306Y59666D01*
X68264Y59594D01*
X68218Y59524D01*
X68170Y59456D01*
X68118Y59391D01*
X68063Y59328D01*
X68006Y59268D01*
X67946Y59211D01*
X67883Y59156D01*
X67818Y59104D01*
X67750Y59056D01*
X67680Y59010D01*
X67608Y58968D01*
X67535Y58929D01*
X67459Y58894D01*
X67382Y58862D01*
X67304Y58833D01*
X67224Y58809D01*
X67144Y58788D01*
X67062Y58771D01*
X66980Y58757D01*
X66897Y58748D01*
X66814Y58742D01*
X66731Y58740D01*
X66731Y58739D02*
X64928Y58739D01*
X70988Y58379D02*
X75316Y58379D01*
X77708Y62346D02*
X79872Y55854D01*
X82036Y62346D01*
X84618Y62346D02*
X84618Y55854D01*
X84618Y62346D02*
X86421Y62346D01*
X86504Y62344D01*
X86587Y62338D01*
X86670Y62329D01*
X86752Y62315D01*
X86834Y62298D01*
X86914Y62277D01*
X86994Y62253D01*
X87072Y62224D01*
X87149Y62192D01*
X87225Y62157D01*
X87298Y62118D01*
X87370Y62076D01*
X87440Y62030D01*
X87508Y61982D01*
X87573Y61930D01*
X87636Y61875D01*
X87696Y61818D01*
X87753Y61758D01*
X87808Y61695D01*
X87860Y61630D01*
X87908Y61562D01*
X87954Y61492D01*
X87996Y61420D01*
X88035Y61347D01*
X88070Y61271D01*
X88102Y61194D01*
X88131Y61116D01*
X88155Y61036D01*
X88176Y60956D01*
X88193Y60874D01*
X88207Y60792D01*
X88216Y60709D01*
X88222Y60626D01*
X88224Y60543D01*
X88222Y60460D01*
X88216Y60377D01*
X88207Y60294D01*
X88193Y60212D01*
X88176Y60130D01*
X88155Y60050D01*
X88131Y59970D01*
X88102Y59892D01*
X88070Y59815D01*
X88035Y59739D01*
X87996Y59666D01*
X87954Y59594D01*
X87908Y59524D01*
X87860Y59456D01*
X87808Y59391D01*
X87753Y59328D01*
X87696Y59268D01*
X87636Y59211D01*
X87573Y59156D01*
X87508Y59104D01*
X87440Y59056D01*
X87370Y59010D01*
X87298Y58968D01*
X87225Y58929D01*
X87149Y58894D01*
X87072Y58862D01*
X86994Y58833D01*
X86914Y58809D01*
X86834Y58788D01*
X86752Y58771D01*
X86670Y58757D01*
X86587Y58748D01*
X86504Y58742D01*
X86421Y58740D01*
X86421Y58739D02*
X84618Y58739D01*
X86782Y58739D02*
X88224Y55854D01*
X91101Y55854D02*
X93986Y55854D01*
X91101Y55854D02*
X91101Y62346D01*
X93986Y62346D01*
X93265Y59461D02*
X91101Y59461D01*
X96561Y62346D02*
X96561Y55854D01*
X96561Y62346D02*
X99446Y62346D01*
X99446Y59461D02*
X96561Y59461D01*
X6357Y86654D02*
X6357Y93146D01*
X4554Y93146D02*
X8161Y93146D01*
X10733Y93146D02*
X10733Y86654D01*
X10733Y93146D02*
X12536Y93146D01*
X12619Y93144D01*
X12702Y93138D01*
X12785Y93129D01*
X12867Y93115D01*
X12949Y93098D01*
X13029Y93077D01*
X13109Y93053D01*
X13187Y93024D01*
X13264Y92992D01*
X13340Y92957D01*
X13413Y92918D01*
X13485Y92876D01*
X13555Y92830D01*
X13623Y92782D01*
X13688Y92730D01*
X13751Y92675D01*
X13811Y92618D01*
X13868Y92558D01*
X13923Y92495D01*
X13975Y92430D01*
X14023Y92362D01*
X14069Y92292D01*
X14111Y92220D01*
X14150Y92147D01*
X14185Y92071D01*
X14217Y91994D01*
X14246Y91916D01*
X14270Y91836D01*
X14291Y91756D01*
X14308Y91674D01*
X14322Y91592D01*
X14331Y91509D01*
X14337Y91426D01*
X14339Y91343D01*
X14337Y91260D01*
X14331Y91177D01*
X14322Y91094D01*
X14308Y91012D01*
X14291Y90930D01*
X14270Y90850D01*
X14246Y90770D01*
X14217Y90692D01*
X14185Y90615D01*
X14150Y90539D01*
X14111Y90466D01*
X14069Y90394D01*
X14023Y90324D01*
X13975Y90256D01*
X13923Y90191D01*
X13868Y90128D01*
X13811Y90068D01*
X13751Y90011D01*
X13688Y89956D01*
X13623Y89904D01*
X13555Y89856D01*
X13485Y89810D01*
X13413Y89768D01*
X13340Y89729D01*
X13264Y89694D01*
X13187Y89662D01*
X13109Y89633D01*
X13029Y89609D01*
X12949Y89588D01*
X12867Y89571D01*
X12785Y89557D01*
X12702Y89548D01*
X12619Y89542D01*
X12536Y89540D01*
X12536Y89539D02*
X10733Y89539D01*
X16793Y89179D02*
X21121Y89179D01*
X24417Y86654D02*
X24417Y93146D01*
X23696Y86654D02*
X25139Y86654D01*
X25139Y93146D02*
X23696Y93146D01*
X27385Y85933D02*
X30270Y85933D01*
X34648Y86654D02*
X34724Y86656D01*
X34799Y86662D01*
X34874Y86672D01*
X34948Y86686D01*
X35022Y86703D01*
X35094Y86725D01*
X35165Y86750D01*
X35235Y86779D01*
X35303Y86811D01*
X35370Y86847D01*
X35434Y86887D01*
X35496Y86930D01*
X35556Y86976D01*
X35614Y87025D01*
X35668Y87077D01*
X35720Y87131D01*
X35769Y87189D01*
X35815Y87249D01*
X35858Y87311D01*
X35898Y87376D01*
X35934Y87442D01*
X35966Y87510D01*
X35995Y87580D01*
X36020Y87651D01*
X36042Y87724D01*
X36059Y87797D01*
X36073Y87871D01*
X36083Y87946D01*
X36089Y88021D01*
X36091Y88097D01*
X34648Y86654D02*
X34539Y86656D01*
X34430Y86662D01*
X34321Y86672D01*
X34212Y86685D01*
X34104Y86703D01*
X33997Y86724D01*
X33891Y86750D01*
X33785Y86779D01*
X33681Y86812D01*
X33578Y86848D01*
X33476Y86888D01*
X33376Y86932D01*
X33277Y86980D01*
X33181Y87031D01*
X33086Y87085D01*
X32993Y87143D01*
X32902Y87204D01*
X32814Y87268D01*
X32728Y87335D01*
X32644Y87406D01*
X32563Y87479D01*
X32484Y87556D01*
X32664Y91703D02*
X32666Y91779D01*
X32672Y91854D01*
X32682Y91929D01*
X32696Y92003D01*
X32713Y92076D01*
X32735Y92149D01*
X32760Y92220D01*
X32789Y92290D01*
X32821Y92358D01*
X32857Y92425D01*
X32897Y92489D01*
X32940Y92551D01*
X32986Y92611D01*
X33035Y92669D01*
X33087Y92723D01*
X33141Y92775D01*
X33199Y92824D01*
X33259Y92870D01*
X33321Y92913D01*
X33386Y92953D01*
X33452Y92989D01*
X33520Y93021D01*
X33590Y93050D01*
X33661Y93075D01*
X33734Y93097D01*
X33807Y93114D01*
X33881Y93128D01*
X33956Y93138D01*
X34031Y93144D01*
X34107Y93146D01*
X34209Y93144D01*
X34312Y93138D01*
X34414Y93129D01*
X34515Y93115D01*
X34616Y93098D01*
X34716Y93077D01*
X34815Y93052D01*
X34914Y93023D01*
X35011Y92991D01*
X35107Y92955D01*
X35201Y92915D01*
X35294Y92872D01*
X35385Y92825D01*
X35474Y92775D01*
X35562Y92722D01*
X35647Y92665D01*
X35730Y92605D01*
X33385Y90441D02*
X33321Y90481D01*
X33258Y90525D01*
X33198Y90571D01*
X33141Y90621D01*
X33086Y90674D01*
X33034Y90730D01*
X32985Y90788D01*
X32939Y90848D01*
X32896Y90911D01*
X32857Y90976D01*
X32821Y91043D01*
X32789Y91112D01*
X32760Y91182D01*
X32735Y91254D01*
X32713Y91327D01*
X32695Y91401D01*
X32682Y91476D01*
X32672Y91551D01*
X32666Y91627D01*
X32664Y91703D01*
X35369Y89359D02*
X35433Y89319D01*
X35496Y89275D01*
X35556Y89229D01*
X35613Y89179D01*
X35668Y89126D01*
X35720Y89070D01*
X35769Y89012D01*
X35815Y88952D01*
X35858Y88889D01*
X35897Y88824D01*
X35933Y88757D01*
X35965Y88688D01*
X35994Y88618D01*
X36020Y88546D01*
X36041Y88473D01*
X36059Y88399D01*
X36072Y88324D01*
X36082Y88249D01*
X36088Y88173D01*
X36090Y88097D01*
X35369Y89359D02*
X33386Y90441D01*
X38796Y86654D02*
X41681Y86654D01*
X38796Y86654D02*
X38796Y93146D01*
X41681Y93146D01*
X40960Y90261D02*
X38796Y90261D01*
X44244Y93146D02*
X44244Y86654D01*
X47851Y86654D02*
X44244Y93146D01*
X47851Y93146D02*
X47851Y86654D01*
X52708Y86654D02*
X52784Y86656D01*
X52859Y86662D01*
X52934Y86672D01*
X53008Y86686D01*
X53082Y86703D01*
X53154Y86725D01*
X53225Y86750D01*
X53295Y86779D01*
X53363Y86811D01*
X53430Y86847D01*
X53494Y86887D01*
X53556Y86930D01*
X53616Y86976D01*
X53674Y87025D01*
X53728Y87077D01*
X53780Y87131D01*
X53829Y87189D01*
X53875Y87249D01*
X53918Y87311D01*
X53958Y87376D01*
X53994Y87442D01*
X54026Y87510D01*
X54055Y87580D01*
X54080Y87651D01*
X54102Y87724D01*
X54119Y87797D01*
X54133Y87871D01*
X54143Y87946D01*
X54149Y88021D01*
X54151Y88097D01*
X52708Y86654D02*
X52599Y86656D01*
X52490Y86662D01*
X52381Y86672D01*
X52272Y86685D01*
X52164Y86703D01*
X52057Y86724D01*
X51951Y86750D01*
X51845Y86779D01*
X51741Y86812D01*
X51638Y86848D01*
X51536Y86888D01*
X51436Y86932D01*
X51337Y86980D01*
X51241Y87031D01*
X51146Y87085D01*
X51053Y87143D01*
X50962Y87204D01*
X50874Y87268D01*
X50788Y87335D01*
X50704Y87406D01*
X50623Y87479D01*
X50544Y87556D01*
X50724Y91703D02*
X50726Y91779D01*
X50732Y91854D01*
X50742Y91929D01*
X50756Y92003D01*
X50773Y92076D01*
X50795Y92149D01*
X50820Y92220D01*
X50849Y92290D01*
X50881Y92358D01*
X50917Y92425D01*
X50957Y92489D01*
X51000Y92551D01*
X51046Y92611D01*
X51095Y92669D01*
X51147Y92723D01*
X51201Y92775D01*
X51259Y92824D01*
X51319Y92870D01*
X51381Y92913D01*
X51446Y92953D01*
X51512Y92989D01*
X51580Y93021D01*
X51650Y93050D01*
X51721Y93075D01*
X51794Y93097D01*
X51867Y93114D01*
X51941Y93128D01*
X52016Y93138D01*
X52091Y93144D01*
X52167Y93146D01*
X52269Y93144D01*
X52372Y93138D01*
X52474Y93129D01*
X52575Y93115D01*
X52676Y93098D01*
X52776Y93077D01*
X52875Y93052D01*
X52974Y93023D01*
X53071Y92991D01*
X53167Y92955D01*
X53261Y92915D01*
X53354Y92872D01*
X53445Y92825D01*
X53534Y92775D01*
X53622Y92722D01*
X53707Y92665D01*
X53790Y92605D01*
X51445Y90441D02*
X51381Y90481D01*
X51318Y90525D01*
X51258Y90571D01*
X51201Y90621D01*
X51146Y90674D01*
X51094Y90730D01*
X51045Y90788D01*
X50999Y90848D01*
X50956Y90911D01*
X50917Y90976D01*
X50881Y91043D01*
X50849Y91112D01*
X50820Y91182D01*
X50795Y91254D01*
X50773Y91327D01*
X50755Y91401D01*
X50742Y91476D01*
X50732Y91551D01*
X50726Y91627D01*
X50724Y91703D01*
X53429Y89359D02*
X53493Y89319D01*
X53556Y89275D01*
X53616Y89229D01*
X53673Y89179D01*
X53728Y89126D01*
X53780Y89070D01*
X53829Y89012D01*
X53875Y88952D01*
X53918Y88889D01*
X53957Y88824D01*
X53993Y88757D01*
X54025Y88688D01*
X54054Y88618D01*
X54080Y88546D01*
X54101Y88473D01*
X54119Y88399D01*
X54132Y88324D01*
X54142Y88249D01*
X54148Y88173D01*
X54150Y88097D01*
X53429Y89359D02*
X51445Y90441D01*
X56856Y86654D02*
X59741Y86654D01*
X56856Y86654D02*
X56856Y93146D01*
X59741Y93146D01*
X59020Y90261D02*
X56856Y90261D01*
D19*
X254350Y62700D02*
X260700Y56350D01*
X241650Y62700D02*
X235300Y56350D01*
X228950Y62700D01*
X216250Y62700D02*
X209900Y56350D01*
X203550Y62700D01*
X190850Y62700D02*
X184500Y56350D01*
X178150Y62700D01*
X165450Y62700D02*
X159100Y56350D01*
X152750Y62700D01*
X140050Y62700D02*
X133700Y56350D01*
X127350Y62700D01*
X114650Y62700D02*
X108300Y56350D01*
X260700Y56350D02*
X260700Y18250D01*
X254350Y11900D01*
X241650Y11900D01*
X235300Y18250D01*
X228950Y11900D01*
X216250Y11900D01*
X209900Y18250D01*
X203550Y11900D01*
X190850Y11900D01*
X184500Y18250D01*
X178150Y11900D01*
X165450Y11900D01*
X159100Y18250D01*
X152750Y11900D01*
X140050Y11900D01*
X133700Y18250D01*
X127350Y11900D01*
X114650Y11900D01*
X108300Y18250D01*
X235300Y18250D02*
X235300Y56350D01*
X209900Y56350D02*
X209900Y18250D01*
X184500Y18250D02*
X184500Y56350D01*
X159100Y56350D02*
X159100Y18250D01*
X133700Y18250D02*
X133700Y56350D01*
X108300Y56350D02*
X108300Y18250D01*
X114650Y62700D02*
X127350Y62700D01*
X140050Y62700D02*
X152750Y62700D01*
X165450Y62700D02*
X178150Y62700D01*
X190850Y62700D02*
X203550Y62700D01*
X216250Y62700D02*
X228950Y62700D01*
X241650Y62700D02*
X254350Y62700D01*
X254350Y66510D02*
X241650Y66510D01*
X254350Y62700D02*
X260700Y56350D01*
X260700Y18250D01*
X254350Y11900D01*
X260700Y56350D02*
X254350Y62700D01*
X260700Y56350D02*
X260700Y18250D01*
X254350Y11900D01*
D14*
X228284Y8725D02*
X228284Y4971D01*
X228282Y4906D01*
X228276Y4842D01*
X228266Y4778D01*
X228253Y4714D01*
X228235Y4652D01*
X228214Y4591D01*
X228190Y4531D01*
X228161Y4473D01*
X228129Y4416D01*
X228094Y4362D01*
X228056Y4310D01*
X228014Y4260D01*
X227970Y4213D01*
X227923Y4169D01*
X227873Y4127D01*
X227821Y4089D01*
X227767Y4054D01*
X227710Y4022D01*
X227652Y3993D01*
X227592Y3969D01*
X227531Y3948D01*
X227469Y3930D01*
X227405Y3917D01*
X227341Y3907D01*
X227277Y3901D01*
X227212Y3899D01*
X226676Y3899D01*
X230952Y3363D02*
X233097Y3363D01*
X236665Y3899D02*
X237737Y3899D01*
X236665Y3899D02*
X236600Y3901D01*
X236536Y3907D01*
X236472Y3917D01*
X236408Y3930D01*
X236346Y3948D01*
X236285Y3969D01*
X236225Y3993D01*
X236167Y4022D01*
X236110Y4054D01*
X236056Y4089D01*
X236004Y4127D01*
X235954Y4169D01*
X235907Y4213D01*
X235863Y4260D01*
X235821Y4310D01*
X235783Y4362D01*
X235748Y4416D01*
X235716Y4473D01*
X235687Y4531D01*
X235663Y4591D01*
X235642Y4652D01*
X235624Y4714D01*
X235611Y4778D01*
X235601Y4842D01*
X235595Y4906D01*
X235593Y4971D01*
X235593Y7653D01*
X235595Y7718D01*
X235601Y7782D01*
X235611Y7846D01*
X235624Y7910D01*
X235642Y7972D01*
X235663Y8033D01*
X235687Y8093D01*
X235716Y8151D01*
X235748Y8208D01*
X235783Y8262D01*
X235821Y8314D01*
X235863Y8364D01*
X235907Y8411D01*
X235954Y8455D01*
X236004Y8497D01*
X236056Y8535D01*
X236110Y8570D01*
X236167Y8602D01*
X236225Y8631D01*
X236285Y8655D01*
X236346Y8676D01*
X236408Y8694D01*
X236472Y8707D01*
X236536Y8717D01*
X236600Y8723D01*
X236665Y8725D01*
X237737Y8725D01*
X240193Y7384D02*
X240193Y5240D01*
X240193Y7384D02*
X240195Y7455D01*
X240201Y7527D01*
X240210Y7597D01*
X240223Y7667D01*
X240240Y7737D01*
X240261Y7805D01*
X240285Y7872D01*
X240313Y7938D01*
X240344Y8002D01*
X240379Y8065D01*
X240417Y8125D01*
X240458Y8184D01*
X240502Y8240D01*
X240549Y8294D01*
X240598Y8345D01*
X240651Y8393D01*
X240706Y8439D01*
X240763Y8481D01*
X240823Y8521D01*
X240884Y8557D01*
X240948Y8590D01*
X241013Y8619D01*
X241079Y8645D01*
X241147Y8668D01*
X241216Y8687D01*
X241286Y8702D01*
X241356Y8713D01*
X241427Y8721D01*
X241498Y8725D01*
X241570Y8725D01*
X241641Y8721D01*
X241712Y8713D01*
X241782Y8702D01*
X241852Y8687D01*
X241921Y8668D01*
X241989Y8645D01*
X242055Y8619D01*
X242120Y8590D01*
X242184Y8557D01*
X242245Y8521D01*
X242305Y8481D01*
X242362Y8439D01*
X242417Y8393D01*
X242470Y8345D01*
X242519Y8294D01*
X242566Y8240D01*
X242610Y8184D01*
X242651Y8125D01*
X242689Y8065D01*
X242724Y8002D01*
X242755Y7938D01*
X242783Y7872D01*
X242807Y7805D01*
X242828Y7737D01*
X242845Y7667D01*
X242858Y7597D01*
X242867Y7527D01*
X242873Y7455D01*
X242875Y7384D01*
X242874Y7384D02*
X242874Y5240D01*
X242875Y5240D02*
X242873Y5169D01*
X242867Y5097D01*
X242858Y5027D01*
X242845Y4957D01*
X242828Y4887D01*
X242807Y4819D01*
X242783Y4752D01*
X242755Y4686D01*
X242724Y4622D01*
X242689Y4559D01*
X242651Y4499D01*
X242610Y4440D01*
X242566Y4384D01*
X242519Y4330D01*
X242470Y4279D01*
X242417Y4231D01*
X242362Y4185D01*
X242305Y4143D01*
X242245Y4103D01*
X242184Y4067D01*
X242120Y4034D01*
X242055Y4005D01*
X241989Y3979D01*
X241921Y3956D01*
X241852Y3937D01*
X241782Y3922D01*
X241712Y3911D01*
X241641Y3903D01*
X241570Y3899D01*
X241498Y3899D01*
X241427Y3903D01*
X241356Y3911D01*
X241286Y3922D01*
X241216Y3937D01*
X241147Y3956D01*
X241079Y3979D01*
X241013Y4005D01*
X240948Y4034D01*
X240884Y4067D01*
X240823Y4103D01*
X240763Y4143D01*
X240706Y4185D01*
X240651Y4231D01*
X240598Y4279D01*
X240549Y4330D01*
X240502Y4384D01*
X240458Y4440D01*
X240417Y4499D01*
X240379Y4559D01*
X240344Y4622D01*
X240313Y4686D01*
X240285Y4752D01*
X240261Y4819D01*
X240240Y4887D01*
X240223Y4957D01*
X240210Y5027D01*
X240201Y5097D01*
X240195Y5169D01*
X240193Y5240D01*
X245863Y3899D02*
X245863Y8725D01*
X248544Y3899D01*
X248544Y8725D01*
X251715Y8725D02*
X251715Y3899D01*
X254396Y3899D02*
X251715Y8725D01*
X254396Y8725D02*
X254396Y3899D01*
X257384Y7653D02*
X258724Y8725D01*
X258724Y3899D01*
X257384Y3899D02*
X260065Y3899D01*
D19*
X94650Y267300D02*
X88300Y273650D01*
X107350Y267300D02*
X113700Y273650D01*
X120050Y267300D01*
X132750Y267300D02*
X139100Y273650D01*
X145450Y267300D01*
X158150Y267300D02*
X164500Y273650D01*
X170850Y267300D01*
X183550Y267300D02*
X189900Y273650D01*
X196250Y267300D01*
X208950Y267300D02*
X215300Y273650D01*
X221650Y267300D01*
X234350Y267300D02*
X240700Y273650D01*
X88300Y273650D02*
X88300Y311750D01*
X94650Y318100D01*
X107350Y318100D01*
X113700Y311750D01*
X120050Y318100D01*
X132750Y318100D01*
X139100Y311750D01*
X145450Y318100D01*
X158150Y318100D01*
X164500Y311750D01*
X170850Y318100D01*
X183550Y318100D01*
X189900Y311750D01*
X196250Y318100D01*
X208950Y318100D01*
X215300Y311750D01*
X221650Y318100D01*
X234350Y318100D01*
X240700Y311750D01*
X113700Y311750D02*
X113700Y273650D01*
X139100Y273650D02*
X139100Y311750D01*
X164500Y311750D02*
X164500Y273650D01*
X189900Y273650D02*
X189900Y311750D01*
X215300Y311750D02*
X215300Y273650D01*
X240700Y273650D02*
X240700Y311750D01*
X234350Y267300D02*
X221650Y267300D01*
X208950Y267300D02*
X196250Y267300D01*
X183550Y267300D02*
X170850Y267300D01*
X158150Y267300D02*
X145450Y267300D01*
X132750Y267300D02*
X120050Y267300D01*
X107350Y267300D02*
X94650Y267300D01*
X94650Y263490D02*
X107350Y263490D01*
X94650Y267300D02*
X88300Y273650D01*
X88300Y311750D01*
X94650Y318100D01*
X88300Y273650D02*
X94650Y267300D01*
X88300Y273650D02*
X88300Y311750D01*
X94650Y318100D01*
D14*
X90544Y322347D02*
X90544Y326101D01*
X90543Y322347D02*
X90541Y322282D01*
X90535Y322218D01*
X90525Y322154D01*
X90512Y322090D01*
X90494Y322028D01*
X90473Y321967D01*
X90449Y321907D01*
X90420Y321849D01*
X90388Y321792D01*
X90353Y321738D01*
X90315Y321686D01*
X90273Y321636D01*
X90229Y321589D01*
X90182Y321545D01*
X90132Y321503D01*
X90080Y321465D01*
X90026Y321430D01*
X89969Y321398D01*
X89911Y321369D01*
X89851Y321345D01*
X89790Y321324D01*
X89728Y321306D01*
X89664Y321293D01*
X89600Y321283D01*
X89536Y321277D01*
X89471Y321275D01*
X88935Y321275D01*
X93211Y320739D02*
X95356Y320739D01*
X98083Y321275D02*
X98083Y326101D01*
X98083Y321275D02*
X100228Y321275D01*
X102635Y322616D02*
X102635Y324760D01*
X102637Y324831D01*
X102643Y324903D01*
X102652Y324973D01*
X102665Y325043D01*
X102682Y325113D01*
X102703Y325181D01*
X102727Y325248D01*
X102755Y325314D01*
X102786Y325378D01*
X102821Y325441D01*
X102859Y325501D01*
X102900Y325560D01*
X102944Y325616D01*
X102991Y325670D01*
X103040Y325721D01*
X103093Y325769D01*
X103148Y325815D01*
X103205Y325857D01*
X103265Y325897D01*
X103326Y325933D01*
X103390Y325966D01*
X103455Y325995D01*
X103521Y326021D01*
X103589Y326044D01*
X103658Y326063D01*
X103728Y326078D01*
X103798Y326089D01*
X103869Y326097D01*
X103940Y326101D01*
X104012Y326101D01*
X104083Y326097D01*
X104154Y326089D01*
X104224Y326078D01*
X104294Y326063D01*
X104363Y326044D01*
X104431Y326021D01*
X104497Y325995D01*
X104562Y325966D01*
X104626Y325933D01*
X104687Y325897D01*
X104747Y325857D01*
X104804Y325815D01*
X104859Y325769D01*
X104912Y325721D01*
X104961Y325670D01*
X105008Y325616D01*
X105052Y325560D01*
X105093Y325501D01*
X105131Y325441D01*
X105166Y325378D01*
X105197Y325314D01*
X105225Y325248D01*
X105249Y325181D01*
X105270Y325113D01*
X105287Y325043D01*
X105300Y324973D01*
X105309Y324903D01*
X105315Y324831D01*
X105317Y324760D01*
X105317Y322616D01*
X105315Y322545D01*
X105309Y322473D01*
X105300Y322403D01*
X105287Y322333D01*
X105270Y322263D01*
X105249Y322195D01*
X105225Y322128D01*
X105197Y322062D01*
X105166Y321998D01*
X105131Y321935D01*
X105093Y321875D01*
X105052Y321816D01*
X105008Y321760D01*
X104961Y321706D01*
X104912Y321655D01*
X104859Y321607D01*
X104804Y321561D01*
X104747Y321519D01*
X104687Y321479D01*
X104626Y321443D01*
X104562Y321410D01*
X104497Y321381D01*
X104431Y321355D01*
X104363Y321332D01*
X104294Y321313D01*
X104224Y321298D01*
X104154Y321287D01*
X104083Y321279D01*
X104012Y321275D01*
X103940Y321275D01*
X103869Y321279D01*
X103798Y321287D01*
X103728Y321298D01*
X103658Y321313D01*
X103589Y321332D01*
X103521Y321355D01*
X103455Y321381D01*
X103390Y321410D01*
X103326Y321443D01*
X103265Y321479D01*
X103205Y321519D01*
X103148Y321561D01*
X103093Y321607D01*
X103040Y321655D01*
X102991Y321706D01*
X102944Y321760D01*
X102900Y321816D01*
X102859Y321875D01*
X102821Y321935D01*
X102786Y321998D01*
X102755Y322062D01*
X102727Y322128D01*
X102703Y322195D01*
X102682Y322263D01*
X102665Y322333D01*
X102652Y322403D01*
X102643Y322473D01*
X102637Y322545D01*
X102635Y322616D01*
X107854Y321275D02*
X109462Y326101D01*
X111071Y321275D01*
X110669Y322482D02*
X108256Y322482D01*
X113791Y321275D02*
X113791Y326101D01*
X115132Y326101D01*
X115202Y326099D01*
X115272Y326094D01*
X115342Y326084D01*
X115411Y326072D01*
X115479Y326055D01*
X115546Y326035D01*
X115613Y326012D01*
X115677Y325985D01*
X115741Y325955D01*
X115803Y325921D01*
X115862Y325885D01*
X115920Y325845D01*
X115976Y325802D01*
X116029Y325757D01*
X116080Y325708D01*
X116129Y325657D01*
X116174Y325604D01*
X116217Y325548D01*
X116257Y325490D01*
X116293Y325431D01*
X116327Y325369D01*
X116357Y325305D01*
X116384Y325241D01*
X116407Y325174D01*
X116427Y325107D01*
X116444Y325039D01*
X116456Y324970D01*
X116466Y324900D01*
X116471Y324830D01*
X116473Y324760D01*
X116472Y324760D02*
X116472Y322616D01*
X116473Y322616D02*
X116471Y322546D01*
X116466Y322476D01*
X116456Y322406D01*
X116444Y322337D01*
X116427Y322269D01*
X116407Y322202D01*
X116384Y322135D01*
X116357Y322071D01*
X116327Y322007D01*
X116293Y321945D01*
X116257Y321886D01*
X116217Y321828D01*
X116174Y321772D01*
X116129Y321719D01*
X116080Y321668D01*
X116029Y321619D01*
X115976Y321574D01*
X115920Y321531D01*
X115862Y321491D01*
X115802Y321455D01*
X115741Y321421D01*
X115677Y321391D01*
X115613Y321364D01*
X115546Y321341D01*
X115479Y321321D01*
X115411Y321304D01*
X115342Y321292D01*
X115272Y321282D01*
X115202Y321277D01*
X115132Y321275D01*
X113791Y321275D01*
D11*
X105160Y203970D02*
X105160Y176030D01*
X84840Y203970D02*
X84842Y204070D01*
X84848Y204169D01*
X84858Y204269D01*
X84871Y204367D01*
X84889Y204466D01*
X84910Y204563D01*
X84935Y204659D01*
X84964Y204755D01*
X84997Y204849D01*
X85033Y204942D01*
X85073Y205033D01*
X85117Y205123D01*
X85164Y205211D01*
X85214Y205297D01*
X85268Y205381D01*
X85325Y205463D01*
X85385Y205542D01*
X85449Y205620D01*
X85515Y205694D01*
X85584Y205766D01*
X85656Y205835D01*
X85730Y205901D01*
X85808Y205965D01*
X85887Y206025D01*
X85969Y206082D01*
X86053Y206136D01*
X86139Y206186D01*
X86227Y206233D01*
X86317Y206277D01*
X86408Y206317D01*
X86501Y206353D01*
X86595Y206386D01*
X86691Y206415D01*
X86787Y206440D01*
X86884Y206461D01*
X86983Y206479D01*
X87081Y206492D01*
X87181Y206502D01*
X87280Y206508D01*
X87380Y206510D01*
X84840Y176030D02*
X84842Y175930D01*
X84848Y175831D01*
X84858Y175731D01*
X84871Y175633D01*
X84889Y175534D01*
X84910Y175437D01*
X84935Y175341D01*
X84964Y175245D01*
X84997Y175151D01*
X85033Y175058D01*
X85073Y174967D01*
X85117Y174877D01*
X85164Y174789D01*
X85214Y174703D01*
X85268Y174619D01*
X85325Y174537D01*
X85385Y174458D01*
X85449Y174380D01*
X85515Y174306D01*
X85584Y174234D01*
X85656Y174165D01*
X85730Y174099D01*
X85808Y174035D01*
X85887Y173975D01*
X85969Y173918D01*
X86053Y173864D01*
X86139Y173814D01*
X86227Y173767D01*
X86317Y173723D01*
X86408Y173683D01*
X86501Y173647D01*
X86595Y173614D01*
X86691Y173585D01*
X86787Y173560D01*
X86884Y173539D01*
X86983Y173521D01*
X87081Y173508D01*
X87181Y173498D01*
X87280Y173492D01*
X87380Y173490D01*
X102620Y173490D02*
X102720Y173492D01*
X102819Y173498D01*
X102919Y173508D01*
X103017Y173521D01*
X103116Y173539D01*
X103213Y173560D01*
X103309Y173585D01*
X103405Y173614D01*
X103499Y173647D01*
X103592Y173683D01*
X103683Y173723D01*
X103773Y173767D01*
X103861Y173814D01*
X103947Y173864D01*
X104031Y173918D01*
X104113Y173975D01*
X104192Y174035D01*
X104270Y174099D01*
X104344Y174165D01*
X104416Y174234D01*
X104485Y174306D01*
X104551Y174380D01*
X104615Y174458D01*
X104675Y174537D01*
X104732Y174619D01*
X104786Y174703D01*
X104836Y174789D01*
X104883Y174877D01*
X104927Y174967D01*
X104967Y175058D01*
X105003Y175151D01*
X105036Y175245D01*
X105065Y175341D01*
X105090Y175437D01*
X105111Y175534D01*
X105129Y175633D01*
X105142Y175731D01*
X105152Y175831D01*
X105158Y175930D01*
X105160Y176030D01*
X105160Y203970D02*
X105158Y204070D01*
X105152Y204169D01*
X105142Y204269D01*
X105129Y204367D01*
X105111Y204466D01*
X105090Y204563D01*
X105065Y204659D01*
X105036Y204755D01*
X105003Y204849D01*
X104967Y204942D01*
X104927Y205033D01*
X104883Y205123D01*
X104836Y205211D01*
X104786Y205297D01*
X104732Y205381D01*
X104675Y205463D01*
X104615Y205542D01*
X104551Y205620D01*
X104485Y205694D01*
X104416Y205766D01*
X104344Y205835D01*
X104270Y205901D01*
X104192Y205965D01*
X104113Y206025D01*
X104031Y206082D01*
X103947Y206136D01*
X103861Y206186D01*
X103773Y206233D01*
X103683Y206277D01*
X103592Y206317D01*
X103499Y206353D01*
X103405Y206386D01*
X103309Y206415D01*
X103213Y206440D01*
X103116Y206461D01*
X103017Y206479D01*
X102919Y206492D01*
X102819Y206502D01*
X102720Y206508D01*
X102620Y206510D01*
X87380Y206510D01*
X87380Y173490D02*
X102620Y173490D01*
X84840Y176030D02*
X84840Y203970D01*
D15*
X96030Y154078D02*
X96119Y154076D01*
X96207Y154070D01*
X96295Y154061D01*
X96383Y154047D01*
X96470Y154030D01*
X96556Y154009D01*
X96641Y153984D01*
X96725Y153955D01*
X96808Y153923D01*
X96889Y153888D01*
X96968Y153848D01*
X97046Y153806D01*
X97122Y153760D01*
X97196Y153711D01*
X97267Y153658D01*
X97336Y153603D01*
X97403Y153544D01*
X97467Y153483D01*
X97528Y153419D01*
X97587Y153352D01*
X97642Y153283D01*
X97695Y153212D01*
X97744Y153138D01*
X97790Y153062D01*
X97832Y152984D01*
X97872Y152905D01*
X97907Y152824D01*
X97939Y152741D01*
X97968Y152657D01*
X97993Y152572D01*
X98014Y152486D01*
X98031Y152399D01*
X98045Y152311D01*
X98054Y152223D01*
X98060Y152135D01*
X98062Y152046D01*
X98060Y151916D01*
X98054Y151785D01*
X98044Y151655D01*
X98030Y151526D01*
X98013Y151397D01*
X97991Y151268D01*
X97965Y151140D01*
X97936Y151013D01*
X97903Y150887D01*
X97866Y150762D01*
X97825Y150638D01*
X97780Y150516D01*
X97732Y150395D01*
X97680Y150275D01*
X97624Y150157D01*
X97565Y150041D01*
X97502Y149927D01*
X97436Y149814D01*
X97367Y149704D01*
X97294Y149596D01*
X97218Y149490D01*
X97139Y149386D01*
X97057Y149285D01*
X96971Y149187D01*
X96883Y149091D01*
X96792Y148998D01*
X90950Y149252D02*
X90861Y149254D01*
X90773Y149260D01*
X90685Y149269D01*
X90597Y149283D01*
X90510Y149300D01*
X90424Y149321D01*
X90339Y149346D01*
X90255Y149375D01*
X90172Y149407D01*
X90091Y149442D01*
X90012Y149482D01*
X89934Y149524D01*
X89858Y149570D01*
X89784Y149619D01*
X89713Y149672D01*
X89644Y149727D01*
X89577Y149786D01*
X89513Y149847D01*
X89452Y149911D01*
X89393Y149978D01*
X89338Y150047D01*
X89285Y150118D01*
X89236Y150192D01*
X89190Y150268D01*
X89148Y150346D01*
X89108Y150425D01*
X89073Y150506D01*
X89041Y150589D01*
X89012Y150673D01*
X88987Y150758D01*
X88966Y150844D01*
X88949Y150931D01*
X88935Y151019D01*
X88926Y151107D01*
X88920Y151195D01*
X88918Y151284D01*
X88920Y151407D01*
X88926Y151529D01*
X88936Y151651D01*
X88950Y151773D01*
X88967Y151894D01*
X88989Y152015D01*
X89014Y152135D01*
X89044Y152254D01*
X89077Y152372D01*
X89114Y152489D01*
X89154Y152604D01*
X89198Y152719D01*
X89246Y152832D01*
X89298Y152943D01*
X89353Y153052D01*
X89412Y153160D01*
X89474Y153266D01*
X89539Y153369D01*
X89608Y153471D01*
X89680Y153570D01*
X92728Y150268D02*
X92681Y150192D01*
X92631Y150118D01*
X92578Y150047D01*
X92521Y149978D01*
X92462Y149911D01*
X92400Y149847D01*
X92335Y149785D01*
X92267Y149727D01*
X92197Y149672D01*
X92125Y149619D01*
X92051Y149570D01*
X91974Y149524D01*
X91896Y149481D01*
X91815Y149442D01*
X91733Y149406D01*
X91650Y149374D01*
X91566Y149346D01*
X91480Y149321D01*
X91393Y149300D01*
X91305Y149283D01*
X91217Y149269D01*
X91128Y149260D01*
X91039Y149254D01*
X90950Y149252D01*
X94252Y153062D02*
X94299Y153138D01*
X94349Y153212D01*
X94402Y153283D01*
X94459Y153352D01*
X94518Y153419D01*
X94580Y153483D01*
X94645Y153545D01*
X94713Y153603D01*
X94783Y153658D01*
X94855Y153711D01*
X94929Y153760D01*
X95006Y153806D01*
X95084Y153849D01*
X95165Y153888D01*
X95247Y153924D01*
X95330Y153956D01*
X95414Y153984D01*
X95500Y154009D01*
X95587Y154030D01*
X95675Y154047D01*
X95763Y154061D01*
X95852Y154070D01*
X95941Y154076D01*
X96030Y154078D01*
X94252Y153062D02*
X92728Y150268D01*
X96030Y159911D02*
X88918Y159911D01*
X96030Y159911D02*
X96119Y159909D01*
X96207Y159903D01*
X96295Y159894D01*
X96383Y159880D01*
X96470Y159863D01*
X96556Y159842D01*
X96641Y159817D01*
X96725Y159788D01*
X96808Y159756D01*
X96889Y159721D01*
X96968Y159681D01*
X97046Y159639D01*
X97122Y159593D01*
X97196Y159544D01*
X97267Y159491D01*
X97336Y159436D01*
X97403Y159377D01*
X97467Y159316D01*
X97528Y159252D01*
X97587Y159185D01*
X97642Y159116D01*
X97695Y159045D01*
X97744Y158971D01*
X97790Y158895D01*
X97832Y158817D01*
X97872Y158738D01*
X97907Y158657D01*
X97939Y158574D01*
X97968Y158490D01*
X97993Y158405D01*
X98014Y158319D01*
X98031Y158232D01*
X98045Y158144D01*
X98054Y158056D01*
X98060Y157968D01*
X98062Y157879D01*
X98062Y156863D01*
X90950Y164238D02*
X88918Y166778D01*
X98062Y166778D01*
X98062Y164238D02*
X98062Y169318D01*
M02*
