G04 EAGLE Gerber RS-274X export*
G75*
%MOMM*%
%FSLAX34Y34*%
%LPD*%
%INSoldermask Top*%
%IPPOS*%
%AMOC8*
5,1,8,0,0,1.08239X$1,22.5*%
G01*
%ADD10R,1.203200X1.303200*%
%ADD11R,1.303200X1.203200*%
%ADD12C,1.524000*%
%ADD13R,1.711200X1.711200*%
%ADD14C,1.711200*%
%ADD15R,1.803200X2.003200*%
%ADD16R,2.003200X1.803200*%
%ADD17R,2.006200X1.803200*%
%ADD18R,1.603200X1.203200*%
%ADD19R,2.743200X2.743200*%
%ADD20R,1.803200X2.006200*%
%ADD21R,1.703200X1.703200*%
%ADD22C,2.963200*%
%ADD23C,2.082800*%
%ADD24C,3.903200*%
%ADD25R,1.803400X1.371600*%
%ADD26R,1.828800X0.152400*%
%ADD27C,0.959600*%


D10*
X179800Y165500D03*
X179800Y182500D03*
X199000Y165500D03*
X199000Y182500D03*
X140600Y165500D03*
X140600Y182500D03*
D11*
X120400Y182500D03*
X120400Y165500D03*
X160200Y182500D03*
X160200Y165500D03*
D12*
X51000Y194000D03*
X51000Y218892D03*
X51000Y244038D03*
D10*
X68500Y285000D03*
X51500Y285000D03*
D13*
X295500Y146600D03*
D14*
X295500Y172000D03*
X295500Y197400D03*
D15*
X236000Y101000D03*
X264000Y101000D03*
D16*
X210000Y101000D03*
X210000Y129000D03*
D17*
X170000Y105780D03*
X170000Y134220D03*
D11*
X110000Y111500D03*
X110000Y128500D03*
D18*
X151000Y120000D03*
X129000Y129500D03*
X129000Y110500D03*
D10*
X68500Y310000D03*
X51500Y310000D03*
X33500Y310000D03*
X16500Y310000D03*
X33500Y285000D03*
X16500Y285000D03*
D19*
X300000Y78495D03*
X300000Y31505D03*
D20*
X265220Y80000D03*
X236780Y80000D03*
D21*
X237500Y240000D03*
X272500Y240000D03*
D20*
X194220Y240000D03*
X165780Y240000D03*
D21*
X107500Y240000D03*
X142500Y240000D03*
D22*
X75000Y150000D03*
X20000Y150000D03*
X110000Y75000D03*
X20000Y110000D03*
D23*
X248000Y50000D03*
X248000Y24600D03*
X222600Y50000D03*
X222600Y24600D03*
X197200Y50000D03*
X197200Y24600D03*
X171800Y50000D03*
X171800Y24600D03*
X146400Y50000D03*
X146400Y24600D03*
X121000Y50000D03*
X121000Y24600D03*
X101000Y280000D03*
X101000Y305400D03*
X126400Y280000D03*
X126400Y305400D03*
X151800Y280000D03*
X151800Y305400D03*
X177200Y280000D03*
X177200Y305400D03*
X202600Y280000D03*
X202600Y305400D03*
X228000Y280000D03*
X228000Y305400D03*
D24*
X40000Y40000D03*
X290000Y290000D03*
D25*
X95000Y182380D03*
X95000Y197620D03*
D26*
X95000Y190000D03*
D27*
X145000Y140000D03*
X200000Y130000D03*
X215000Y155000D03*
X190000Y195000D03*
X150000Y195000D03*
X15000Y290000D03*
X225000Y101000D03*
X231306Y200000D03*
X251306Y200000D03*
X211306Y200000D03*
X225000Y220000D03*
X172300Y90000D03*
X195000Y165000D03*
X155000Y140000D03*
X101322Y130000D03*
X130000Y140000D03*
X95000Y140000D03*
X115000Y155000D03*
X175000Y165000D03*
X185000Y80000D03*
X145000Y80000D03*
X230000Y70000D03*
X240000Y220000D03*
M02*
