G04 EAGLE Gerber RS-274X export*
G75*
%MOMM*%
%FSLAX34Y34*%
%LPD*%
%INSolderpaste Bottom*%
%IPPOS*%
%AMOC8*
5,1,8,0,0,1.08239X$1,22.5*%
G01*
%ADD10R,0.507200X1.874000*%

G36*
X293508Y260951D02*
X293508Y260951D01*
X294207Y261051D01*
X294208Y261052D01*
X294208Y261051D01*
X295108Y261201D01*
X295109Y261202D01*
X295909Y261352D01*
X295910Y261352D01*
X296660Y261502D01*
X296661Y261503D01*
X296662Y261502D01*
X297662Y261752D01*
X297663Y261753D01*
X297664Y261753D01*
X298514Y262003D01*
X298515Y262004D01*
X298516Y262003D01*
X299416Y262303D01*
X299416Y262304D01*
X299417Y262304D01*
X300117Y262554D01*
X300917Y262854D01*
X300918Y262855D01*
X300919Y262854D01*
X301769Y263204D01*
X301770Y263206D01*
X301771Y263205D01*
X302521Y263555D01*
X302521Y263556D01*
X302522Y263556D01*
X303722Y264156D01*
X303723Y264158D01*
X303724Y264157D01*
X305124Y264957D01*
X305125Y264959D01*
X305127Y264959D01*
X305827Y265409D01*
X306226Y265658D01*
X306227Y265660D01*
X306228Y265660D01*
X306878Y266110D01*
X307378Y266460D01*
X307379Y266462D01*
X307380Y266461D01*
X307830Y266811D01*
X308480Y267311D01*
X308481Y267313D01*
X308482Y267312D01*
X309132Y267862D01*
X309132Y267863D01*
X309532Y268213D01*
X309533Y268214D01*
X310183Y268814D01*
X310184Y268815D01*
X310185Y268815D01*
X311285Y269915D01*
X311285Y269917D01*
X311287Y269917D01*
X312087Y270817D01*
X312087Y270818D01*
X312088Y270818D01*
X312638Y271468D01*
X312638Y271469D01*
X313038Y271969D01*
X313039Y271970D01*
X313489Y272570D01*
X313489Y272571D01*
X313490Y272571D01*
X313990Y273271D01*
X313990Y273272D01*
X313991Y273272D01*
X314441Y273922D01*
X314440Y273924D01*
X314442Y273924D01*
X314942Y274724D01*
X315292Y275274D01*
X315291Y275277D01*
X315294Y275277D01*
X315743Y276126D01*
X316143Y276826D01*
X316142Y276829D01*
X316145Y276829D01*
X316545Y277679D01*
X316544Y277680D01*
X316545Y277681D01*
X317295Y279431D01*
X317295Y279433D01*
X317297Y279434D01*
X317647Y280434D01*
X317646Y280434D01*
X317647Y280434D01*
X317897Y281184D01*
X317897Y281185D01*
X318147Y281985D01*
X318146Y281987D01*
X318148Y281988D01*
X318448Y283188D01*
X318448Y283189D01*
X318648Y284039D01*
X318647Y284040D01*
X318648Y284041D01*
X318798Y284841D01*
X318799Y284841D01*
X318949Y285691D01*
X318948Y285693D01*
X318949Y285694D01*
X319049Y286494D01*
X319047Y286497D01*
X319047Y286498D01*
X319049Y286500D01*
X319049Y286750D01*
X319013Y286797D01*
X319006Y286792D01*
X319000Y286799D01*
X308700Y286799D01*
X308653Y286763D01*
X308658Y286756D01*
X308651Y286750D01*
X308651Y286653D01*
X308602Y286309D01*
X308452Y285661D01*
X308153Y284514D01*
X307904Y283767D01*
X307554Y282868D01*
X307355Y282370D01*
X306906Y281423D01*
X306507Y280674D01*
X305809Y279527D01*
X305360Y278879D01*
X305012Y278431D01*
X304412Y277682D01*
X303914Y277133D01*
X303913Y277133D01*
X303515Y276685D01*
X303118Y276337D01*
X303117Y276336D01*
X303116Y276336D01*
X302318Y275587D01*
X301769Y275139D01*
X301320Y274789D01*
X300772Y274391D01*
X300224Y274042D01*
X299575Y273642D01*
X298877Y273244D01*
X298079Y272845D01*
X297280Y272495D01*
X296433Y272146D01*
X295686Y271897D01*
X294937Y271698D01*
X294139Y271498D01*
X293395Y271349D01*
X293250Y271349D01*
X293203Y271313D01*
X293206Y271309D01*
X293203Y271306D01*
X293205Y271303D01*
X293201Y271300D01*
X293201Y260950D01*
X293237Y260903D01*
X293249Y260912D01*
X293260Y260902D01*
X293508Y260951D01*
G37*
G36*
X21347Y43237D02*
X21347Y43237D01*
X21342Y43244D01*
X21349Y43250D01*
X21349Y43347D01*
X21398Y43691D01*
X21548Y44338D01*
X21847Y45486D01*
X22096Y46233D01*
X22446Y47132D01*
X22645Y47630D01*
X23094Y48577D01*
X23493Y49326D01*
X24191Y50473D01*
X24640Y51121D01*
X24988Y51569D01*
X25588Y52318D01*
X26086Y52867D01*
X26087Y52867D01*
X26485Y53315D01*
X26882Y53663D01*
X26883Y53664D01*
X26884Y53664D01*
X27683Y54413D01*
X28231Y54861D01*
X28680Y55211D01*
X29228Y55609D01*
X29776Y55958D01*
X30425Y56358D01*
X31123Y56756D01*
X31921Y57155D01*
X32720Y57505D01*
X33567Y57854D01*
X34314Y58103D01*
X35063Y58302D01*
X35861Y58502D01*
X36605Y58651D01*
X36750Y58651D01*
X36797Y58687D01*
X36792Y58694D01*
X36799Y58700D01*
X36799Y69050D01*
X36763Y69097D01*
X36751Y69088D01*
X36740Y69098D01*
X36492Y69049D01*
X35793Y68949D01*
X35792Y68948D01*
X35792Y68949D01*
X34892Y68799D01*
X34891Y68798D01*
X34091Y68648D01*
X34090Y68648D01*
X33340Y68498D01*
X33339Y68497D01*
X33338Y68498D01*
X32338Y68248D01*
X32337Y68247D01*
X32336Y68247D01*
X31486Y67997D01*
X31485Y67996D01*
X31484Y67997D01*
X30584Y67697D01*
X30584Y67696D01*
X30583Y67696D01*
X29883Y67446D01*
X29083Y67146D01*
X29082Y67145D01*
X29081Y67146D01*
X28231Y66796D01*
X28230Y66794D01*
X28229Y66795D01*
X27479Y66445D01*
X27479Y66444D01*
X27478Y66444D01*
X26278Y65844D01*
X26277Y65842D01*
X26276Y65843D01*
X24876Y65043D01*
X24875Y65041D01*
X24873Y65041D01*
X24173Y64591D01*
X23774Y64342D01*
X23773Y64340D01*
X23772Y64341D01*
X23122Y63891D01*
X23122Y63890D01*
X22622Y63540D01*
X22621Y63539D01*
X22620Y63539D01*
X22170Y63189D01*
X21520Y62689D01*
X21520Y62687D01*
X21518Y62688D01*
X20868Y62138D01*
X20868Y62137D01*
X20468Y61787D01*
X20467Y61786D01*
X19817Y61186D01*
X19816Y61185D01*
X19815Y61185D01*
X18715Y60085D01*
X18715Y60083D01*
X18713Y60083D01*
X17913Y59183D01*
X17913Y59182D01*
X17912Y59182D01*
X17362Y58532D01*
X17362Y58531D01*
X16962Y58031D01*
X16962Y58030D01*
X16961Y58030D01*
X16511Y57430D01*
X16511Y57429D01*
X16510Y57429D01*
X16010Y56729D01*
X16010Y56728D01*
X15560Y56078D01*
X15560Y56076D01*
X15558Y56076D01*
X15058Y55276D01*
X14708Y54726D01*
X14709Y54723D01*
X14706Y54723D01*
X14257Y53874D01*
X13857Y53174D01*
X13858Y53171D01*
X13855Y53171D01*
X13455Y52321D01*
X13456Y52320D01*
X13455Y52319D01*
X12705Y50569D01*
X12705Y50567D01*
X12704Y50566D01*
X12354Y49566D01*
X12353Y49566D01*
X12103Y48816D01*
X12104Y48815D01*
X12103Y48815D01*
X11853Y48015D01*
X11854Y48013D01*
X11852Y48012D01*
X11552Y46812D01*
X11552Y46811D01*
X11352Y45961D01*
X11353Y45960D01*
X11352Y45959D01*
X11202Y45159D01*
X11052Y44309D01*
X11052Y44307D01*
X11051Y44306D01*
X10951Y43506D01*
X10953Y43502D01*
X10951Y43500D01*
X10951Y43250D01*
X10987Y43203D01*
X10994Y43208D01*
X11000Y43201D01*
X21300Y43201D01*
X21347Y43237D01*
G37*
G36*
X271347Y293237D02*
X271347Y293237D01*
X271342Y293244D01*
X271349Y293250D01*
X271349Y293347D01*
X271398Y293691D01*
X271548Y294338D01*
X271847Y295486D01*
X272096Y296233D01*
X272446Y297132D01*
X272645Y297630D01*
X273094Y298577D01*
X273493Y299326D01*
X274191Y300473D01*
X274640Y301121D01*
X274988Y301569D01*
X275588Y302318D01*
X276086Y302867D01*
X276087Y302867D01*
X276485Y303315D01*
X276882Y303663D01*
X276883Y303664D01*
X276884Y303664D01*
X277683Y304413D01*
X278231Y304861D01*
X278680Y305211D01*
X279228Y305609D01*
X279776Y305958D01*
X280425Y306358D01*
X281123Y306756D01*
X281921Y307155D01*
X282720Y307505D01*
X283567Y307854D01*
X284314Y308103D01*
X285063Y308302D01*
X285861Y308502D01*
X286605Y308651D01*
X286750Y308651D01*
X286797Y308687D01*
X286792Y308694D01*
X286799Y308700D01*
X286799Y319050D01*
X286763Y319097D01*
X286751Y319088D01*
X286740Y319098D01*
X286492Y319049D01*
X285793Y318949D01*
X285792Y318948D01*
X285792Y318949D01*
X284892Y318799D01*
X284891Y318798D01*
X284091Y318648D01*
X284090Y318648D01*
X283340Y318498D01*
X283339Y318497D01*
X283338Y318498D01*
X282338Y318248D01*
X282337Y318247D01*
X282336Y318247D01*
X281486Y317997D01*
X281485Y317996D01*
X281484Y317997D01*
X280584Y317697D01*
X280584Y317696D01*
X280583Y317696D01*
X279883Y317446D01*
X279083Y317146D01*
X279082Y317145D01*
X279081Y317146D01*
X278231Y316796D01*
X278230Y316794D01*
X278229Y316795D01*
X277479Y316445D01*
X277479Y316444D01*
X277478Y316444D01*
X276278Y315844D01*
X276277Y315842D01*
X276276Y315843D01*
X274876Y315043D01*
X274875Y315041D01*
X274873Y315041D01*
X274173Y314591D01*
X273774Y314342D01*
X273773Y314340D01*
X273772Y314341D01*
X273122Y313891D01*
X273122Y313890D01*
X272622Y313540D01*
X272621Y313539D01*
X272620Y313539D01*
X272170Y313189D01*
X271520Y312689D01*
X271520Y312687D01*
X271518Y312688D01*
X270868Y312138D01*
X270868Y312137D01*
X270468Y311787D01*
X270467Y311786D01*
X269817Y311186D01*
X269816Y311185D01*
X269815Y311185D01*
X268715Y310085D01*
X268715Y310083D01*
X268713Y310083D01*
X267913Y309183D01*
X267913Y309182D01*
X267912Y309182D01*
X267362Y308532D01*
X267362Y308531D01*
X266962Y308031D01*
X266962Y308030D01*
X266961Y308030D01*
X266511Y307430D01*
X266511Y307429D01*
X266510Y307429D01*
X266010Y306729D01*
X266010Y306728D01*
X265560Y306078D01*
X265560Y306076D01*
X265558Y306076D01*
X265058Y305276D01*
X264708Y304726D01*
X264709Y304723D01*
X264706Y304723D01*
X264257Y303874D01*
X263857Y303174D01*
X263858Y303171D01*
X263855Y303171D01*
X263455Y302321D01*
X263456Y302320D01*
X263455Y302319D01*
X262705Y300569D01*
X262705Y300567D01*
X262704Y300566D01*
X262354Y299566D01*
X262353Y299566D01*
X262103Y298816D01*
X262104Y298815D01*
X262103Y298815D01*
X261853Y298015D01*
X261854Y298013D01*
X261852Y298012D01*
X261552Y296812D01*
X261552Y296811D01*
X261352Y295961D01*
X261353Y295960D01*
X261352Y295959D01*
X261202Y295159D01*
X261052Y294309D01*
X261052Y294307D01*
X261051Y294306D01*
X260951Y293506D01*
X260953Y293502D01*
X260951Y293500D01*
X260951Y293250D01*
X260987Y293203D01*
X260994Y293208D01*
X261000Y293201D01*
X271300Y293201D01*
X271347Y293237D01*
G37*
G36*
X36797Y10987D02*
X36797Y10987D01*
X36792Y10994D01*
X36799Y11000D01*
X36799Y21300D01*
X36763Y21347D01*
X36756Y21342D01*
X36750Y21349D01*
X36653Y21349D01*
X36309Y21398D01*
X35662Y21548D01*
X34514Y21847D01*
X33767Y22096D01*
X32868Y22446D01*
X32370Y22645D01*
X31423Y23094D01*
X30674Y23493D01*
X29527Y24191D01*
X28879Y24640D01*
X28431Y24988D01*
X27682Y25588D01*
X27133Y26086D01*
X27133Y26087D01*
X26685Y26485D01*
X26337Y26882D01*
X26336Y26883D01*
X26336Y26884D01*
X25587Y27683D01*
X25139Y28231D01*
X24789Y28680D01*
X24391Y29228D01*
X24042Y29776D01*
X23642Y30425D01*
X23244Y31123D01*
X22845Y31921D01*
X22495Y32720D01*
X22146Y33567D01*
X21897Y34314D01*
X21698Y35062D01*
X21498Y35861D01*
X21349Y36605D01*
X21349Y36750D01*
X21313Y36797D01*
X21306Y36792D01*
X21300Y36799D01*
X10950Y36799D01*
X10903Y36763D01*
X10912Y36751D01*
X10902Y36740D01*
X10951Y36492D01*
X11051Y35793D01*
X11052Y35792D01*
X11051Y35792D01*
X11201Y34892D01*
X11202Y34891D01*
X11352Y34091D01*
X11352Y34090D01*
X11502Y33340D01*
X11503Y33339D01*
X11502Y33338D01*
X11752Y32338D01*
X11753Y32337D01*
X11753Y32336D01*
X12003Y31486D01*
X12004Y31485D01*
X12003Y31484D01*
X12303Y30584D01*
X12304Y30584D01*
X12304Y30583D01*
X12554Y29883D01*
X12854Y29083D01*
X12855Y29082D01*
X12854Y29081D01*
X13204Y28231D01*
X13206Y28230D01*
X13205Y28229D01*
X13555Y27479D01*
X13556Y27479D01*
X13556Y27478D01*
X14156Y26278D01*
X14158Y26277D01*
X14157Y26276D01*
X14957Y24876D01*
X14959Y24875D01*
X14959Y24873D01*
X15409Y24173D01*
X15658Y23774D01*
X15660Y23773D01*
X15660Y23772D01*
X16110Y23122D01*
X16460Y22622D01*
X16462Y22621D01*
X16461Y22620D01*
X16811Y22170D01*
X17311Y21520D01*
X17313Y21520D01*
X17312Y21518D01*
X17862Y20868D01*
X17863Y20868D01*
X18213Y20468D01*
X18214Y20467D01*
X18814Y19817D01*
X18815Y19816D01*
X18815Y19815D01*
X19915Y18715D01*
X19917Y18715D01*
X19917Y18713D01*
X20817Y17913D01*
X20818Y17913D01*
X20818Y17912D01*
X21468Y17362D01*
X21469Y17362D01*
X21969Y16962D01*
X21970Y16962D01*
X21970Y16961D01*
X22570Y16511D01*
X22571Y16511D01*
X22571Y16510D01*
X23271Y16010D01*
X23272Y16010D01*
X23922Y15560D01*
X23924Y15560D01*
X23924Y15558D01*
X24724Y15058D01*
X25274Y14708D01*
X25277Y14709D01*
X25277Y14706D01*
X26126Y14257D01*
X26826Y13857D01*
X26829Y13858D01*
X26829Y13855D01*
X27679Y13455D01*
X27680Y13456D01*
X27681Y13455D01*
X29431Y12705D01*
X29433Y12705D01*
X29434Y12704D01*
X30434Y12354D01*
X30434Y12353D01*
X31184Y12103D01*
X31185Y12104D01*
X31185Y12103D01*
X31985Y11853D01*
X31987Y11854D01*
X31988Y11852D01*
X33188Y11552D01*
X33189Y11552D01*
X34039Y11352D01*
X34040Y11353D01*
X34041Y11352D01*
X34841Y11202D01*
X35691Y11052D01*
X35693Y11052D01*
X35694Y11051D01*
X36494Y10951D01*
X36498Y10953D01*
X36500Y10951D01*
X36750Y10951D01*
X36797Y10987D01*
G37*
G36*
X43508Y10951D02*
X43508Y10951D01*
X44207Y11051D01*
X44208Y11052D01*
X44208Y11051D01*
X45108Y11201D01*
X45109Y11202D01*
X45909Y11352D01*
X45910Y11352D01*
X46660Y11502D01*
X46661Y11503D01*
X46662Y11502D01*
X47662Y11752D01*
X47663Y11753D01*
X47664Y11753D01*
X48514Y12003D01*
X48515Y12004D01*
X48516Y12003D01*
X49416Y12303D01*
X49416Y12304D01*
X49417Y12304D01*
X50117Y12554D01*
X50917Y12854D01*
X50918Y12855D01*
X50919Y12854D01*
X51769Y13204D01*
X51770Y13206D01*
X51771Y13205D01*
X52521Y13555D01*
X52521Y13556D01*
X52522Y13556D01*
X53722Y14156D01*
X53723Y14158D01*
X53724Y14157D01*
X55124Y14957D01*
X55125Y14959D01*
X55127Y14959D01*
X55827Y15409D01*
X56226Y15658D01*
X56227Y15660D01*
X56228Y15660D01*
X56878Y16110D01*
X57378Y16460D01*
X57379Y16462D01*
X57380Y16461D01*
X57830Y16811D01*
X58480Y17311D01*
X58481Y17313D01*
X58482Y17312D01*
X59132Y17862D01*
X59132Y17863D01*
X59532Y18213D01*
X59533Y18214D01*
X60183Y18814D01*
X60184Y18815D01*
X60185Y18815D01*
X61285Y19915D01*
X61285Y19917D01*
X61287Y19917D01*
X62087Y20817D01*
X62087Y20818D01*
X62088Y20818D01*
X62638Y21468D01*
X62638Y21469D01*
X63038Y21969D01*
X63039Y21970D01*
X63489Y22570D01*
X63489Y22571D01*
X63490Y22571D01*
X63990Y23271D01*
X63990Y23272D01*
X63991Y23272D01*
X64441Y23922D01*
X64440Y23924D01*
X64442Y23924D01*
X64942Y24724D01*
X65292Y25274D01*
X65291Y25277D01*
X65294Y25277D01*
X65743Y26126D01*
X66143Y26826D01*
X66142Y26829D01*
X66145Y26829D01*
X66545Y27679D01*
X66544Y27680D01*
X66545Y27681D01*
X67295Y29431D01*
X67295Y29433D01*
X67297Y29434D01*
X67647Y30434D01*
X67646Y30434D01*
X67647Y30434D01*
X67897Y31184D01*
X67897Y31185D01*
X68147Y31985D01*
X68146Y31987D01*
X68148Y31988D01*
X68448Y33188D01*
X68448Y33189D01*
X68648Y34039D01*
X68647Y34040D01*
X68648Y34041D01*
X68798Y34841D01*
X68799Y34841D01*
X68949Y35691D01*
X68948Y35693D01*
X68949Y35694D01*
X69049Y36494D01*
X69047Y36497D01*
X69047Y36498D01*
X69049Y36500D01*
X69049Y36750D01*
X69013Y36797D01*
X69006Y36792D01*
X69000Y36799D01*
X58700Y36799D01*
X58653Y36763D01*
X58658Y36756D01*
X58651Y36750D01*
X58651Y36653D01*
X58602Y36309D01*
X58452Y35661D01*
X58153Y34514D01*
X57904Y33767D01*
X57554Y32868D01*
X57355Y32370D01*
X56906Y31423D01*
X56507Y30674D01*
X55809Y29527D01*
X55360Y28879D01*
X55012Y28431D01*
X54412Y27682D01*
X53914Y27133D01*
X53913Y27133D01*
X53515Y26685D01*
X53118Y26337D01*
X53117Y26336D01*
X53116Y26336D01*
X52318Y25587D01*
X51769Y25139D01*
X51320Y24789D01*
X50772Y24391D01*
X50224Y24042D01*
X49575Y23642D01*
X48877Y23244D01*
X48079Y22845D01*
X47280Y22495D01*
X46433Y22146D01*
X45686Y21897D01*
X44937Y21698D01*
X44139Y21498D01*
X43395Y21349D01*
X43250Y21349D01*
X43203Y21313D01*
X43206Y21309D01*
X43203Y21306D01*
X43205Y21303D01*
X43201Y21300D01*
X43201Y10950D01*
X43237Y10903D01*
X43249Y10912D01*
X43260Y10902D01*
X43508Y10951D01*
G37*
G36*
X286797Y260987D02*
X286797Y260987D01*
X286792Y260994D01*
X286799Y261000D01*
X286799Y271300D01*
X286763Y271347D01*
X286756Y271342D01*
X286750Y271349D01*
X286653Y271349D01*
X286309Y271398D01*
X285662Y271548D01*
X284514Y271847D01*
X283767Y272096D01*
X282868Y272446D01*
X282370Y272645D01*
X281423Y273094D01*
X280674Y273493D01*
X279527Y274191D01*
X278879Y274640D01*
X278431Y274988D01*
X277682Y275588D01*
X277133Y276086D01*
X277133Y276087D01*
X276685Y276485D01*
X276337Y276882D01*
X276336Y276883D01*
X276336Y276884D01*
X275587Y277682D01*
X275139Y278231D01*
X274789Y278680D01*
X274391Y279228D01*
X274042Y279776D01*
X273642Y280425D01*
X273244Y281123D01*
X272845Y281921D01*
X272495Y282719D01*
X272146Y283567D01*
X271897Y284314D01*
X271698Y285062D01*
X271498Y285861D01*
X271349Y286605D01*
X271349Y286750D01*
X271313Y286797D01*
X271306Y286792D01*
X271300Y286799D01*
X260950Y286799D01*
X260903Y286763D01*
X260912Y286751D01*
X260902Y286740D01*
X260951Y286492D01*
X261051Y285793D01*
X261052Y285792D01*
X261051Y285792D01*
X261201Y284892D01*
X261202Y284891D01*
X261352Y284091D01*
X261352Y284090D01*
X261502Y283340D01*
X261503Y283339D01*
X261502Y283338D01*
X261752Y282338D01*
X261753Y282337D01*
X261753Y282336D01*
X262003Y281486D01*
X262004Y281485D01*
X262003Y281484D01*
X262303Y280584D01*
X262304Y280584D01*
X262304Y280583D01*
X262554Y279883D01*
X262854Y279083D01*
X262855Y279082D01*
X262854Y279081D01*
X263204Y278231D01*
X263206Y278230D01*
X263205Y278229D01*
X263555Y277479D01*
X263556Y277479D01*
X263556Y277478D01*
X264156Y276278D01*
X264158Y276277D01*
X264157Y276276D01*
X264957Y274876D01*
X264959Y274875D01*
X264959Y274873D01*
X265409Y274173D01*
X265658Y273774D01*
X265660Y273773D01*
X265660Y273772D01*
X266110Y273122D01*
X266460Y272622D01*
X266462Y272621D01*
X266461Y272620D01*
X266811Y272170D01*
X267311Y271520D01*
X267313Y271520D01*
X267312Y271518D01*
X267862Y270868D01*
X267863Y270868D01*
X268213Y270468D01*
X268214Y270467D01*
X268814Y269817D01*
X268815Y269816D01*
X268815Y269815D01*
X269915Y268715D01*
X269917Y268715D01*
X269917Y268713D01*
X270817Y267913D01*
X270818Y267913D01*
X270818Y267912D01*
X271468Y267362D01*
X271469Y267362D01*
X271969Y266962D01*
X271970Y266962D01*
X271970Y266961D01*
X272570Y266511D01*
X272571Y266511D01*
X272571Y266510D01*
X273271Y266010D01*
X273272Y266010D01*
X273922Y265560D01*
X273924Y265560D01*
X273924Y265558D01*
X274724Y265058D01*
X275274Y264708D01*
X275277Y264709D01*
X275277Y264706D01*
X276126Y264257D01*
X276826Y263857D01*
X276829Y263858D01*
X276829Y263855D01*
X277679Y263455D01*
X277680Y263456D01*
X277681Y263455D01*
X279431Y262705D01*
X279433Y262705D01*
X279434Y262704D01*
X280434Y262354D01*
X280434Y262353D01*
X281184Y262103D01*
X281185Y262104D01*
X281185Y262103D01*
X281985Y261853D01*
X281987Y261854D01*
X281988Y261852D01*
X283188Y261552D01*
X283189Y261552D01*
X284039Y261352D01*
X284040Y261353D01*
X284041Y261352D01*
X284841Y261202D01*
X285691Y261052D01*
X285693Y261052D01*
X285694Y261051D01*
X286494Y260951D01*
X286498Y260953D01*
X286500Y260951D01*
X286750Y260951D01*
X286797Y260987D01*
G37*
G36*
X319097Y293237D02*
X319097Y293237D01*
X319088Y293249D01*
X319098Y293260D01*
X319049Y293508D01*
X318949Y294207D01*
X318948Y294208D01*
X318949Y294208D01*
X318799Y295108D01*
X318798Y295109D01*
X318648Y295909D01*
X318648Y295910D01*
X318498Y296660D01*
X318497Y296661D01*
X318498Y296662D01*
X318248Y297662D01*
X318247Y297663D01*
X318247Y297664D01*
X317997Y298514D01*
X317996Y298515D01*
X317997Y298516D01*
X317697Y299416D01*
X317696Y299416D01*
X317696Y299417D01*
X317446Y300117D01*
X317146Y300917D01*
X317145Y300918D01*
X317146Y300919D01*
X316796Y301769D01*
X316794Y301770D01*
X316795Y301771D01*
X316445Y302521D01*
X316444Y302521D01*
X316444Y302522D01*
X315844Y303722D01*
X315842Y303723D01*
X315843Y303724D01*
X315043Y305124D01*
X315041Y305125D01*
X315041Y305127D01*
X314591Y305827D01*
X314342Y306226D01*
X314340Y306227D01*
X314341Y306228D01*
X313891Y306878D01*
X313890Y306878D01*
X313540Y307378D01*
X313539Y307379D01*
X313539Y307380D01*
X313189Y307830D01*
X312689Y308480D01*
X312687Y308481D01*
X312688Y308482D01*
X312138Y309132D01*
X312137Y309132D01*
X311787Y309532D01*
X311786Y309533D01*
X311186Y310183D01*
X311185Y310184D01*
X311185Y310185D01*
X310085Y311285D01*
X310083Y311285D01*
X310083Y311287D01*
X309183Y312087D01*
X309182Y312087D01*
X309182Y312088D01*
X308532Y312638D01*
X308531Y312638D01*
X308031Y313038D01*
X308030Y313039D01*
X307430Y313489D01*
X307429Y313489D01*
X307429Y313490D01*
X306729Y313990D01*
X306728Y313990D01*
X306728Y313991D01*
X306078Y314441D01*
X306076Y314440D01*
X306076Y314442D01*
X305276Y314942D01*
X304726Y315292D01*
X304723Y315291D01*
X304723Y315294D01*
X303874Y315743D01*
X303174Y316143D01*
X303171Y316142D01*
X303171Y316145D01*
X302321Y316545D01*
X302320Y316544D01*
X302319Y316545D01*
X300569Y317295D01*
X300567Y317295D01*
X300566Y317297D01*
X299566Y317647D01*
X299566Y317646D01*
X299566Y317647D01*
X298816Y317897D01*
X298815Y317897D01*
X298015Y318147D01*
X298013Y318146D01*
X298012Y318148D01*
X296812Y318448D01*
X296811Y318448D01*
X295961Y318648D01*
X295960Y318647D01*
X295959Y318648D01*
X295159Y318798D01*
X295159Y318799D01*
X294309Y318949D01*
X294307Y318948D01*
X294306Y318949D01*
X293506Y319049D01*
X293502Y319047D01*
X293500Y319049D01*
X293250Y319049D01*
X293203Y319013D01*
X293208Y319006D01*
X293201Y319000D01*
X293201Y308700D01*
X293237Y308653D01*
X293244Y308658D01*
X293250Y308651D01*
X293347Y308651D01*
X293691Y308602D01*
X294338Y308452D01*
X295486Y308153D01*
X296233Y307904D01*
X297132Y307554D01*
X297630Y307355D01*
X298577Y306906D01*
X299326Y306507D01*
X300473Y305809D01*
X301121Y305360D01*
X301569Y305012D01*
X302318Y304412D01*
X302867Y303914D01*
X302867Y303913D01*
X303315Y303515D01*
X303663Y303118D01*
X303664Y303117D01*
X303664Y303116D01*
X304413Y302318D01*
X304861Y301769D01*
X305211Y301320D01*
X305609Y300772D01*
X305958Y300224D01*
X306358Y299575D01*
X306756Y298877D01*
X307155Y298079D01*
X307505Y297280D01*
X307854Y296433D01*
X308103Y295686D01*
X308302Y294937D01*
X308502Y294139D01*
X308651Y293395D01*
X308651Y293250D01*
X308687Y293203D01*
X308694Y293208D01*
X308700Y293201D01*
X319050Y293201D01*
X319097Y293237D01*
G37*
G36*
X69097Y43237D02*
X69097Y43237D01*
X69088Y43249D01*
X69098Y43260D01*
X69049Y43508D01*
X68949Y44207D01*
X68948Y44208D01*
X68949Y44208D01*
X68799Y45108D01*
X68798Y45109D01*
X68648Y45909D01*
X68648Y45910D01*
X68498Y46660D01*
X68497Y46661D01*
X68498Y46662D01*
X68248Y47662D01*
X68247Y47663D01*
X68247Y47664D01*
X67997Y48514D01*
X67996Y48515D01*
X67997Y48516D01*
X67697Y49416D01*
X67696Y49416D01*
X67696Y49417D01*
X67446Y50117D01*
X67146Y50917D01*
X67145Y50918D01*
X67146Y50919D01*
X66796Y51769D01*
X66794Y51770D01*
X66795Y51771D01*
X66445Y52521D01*
X66444Y52521D01*
X66444Y52522D01*
X65844Y53722D01*
X65842Y53723D01*
X65843Y53724D01*
X65043Y55124D01*
X65041Y55125D01*
X65041Y55127D01*
X64591Y55827D01*
X64342Y56226D01*
X64340Y56227D01*
X64341Y56228D01*
X63891Y56878D01*
X63890Y56878D01*
X63540Y57378D01*
X63539Y57379D01*
X63539Y57380D01*
X63189Y57830D01*
X62689Y58480D01*
X62687Y58481D01*
X62688Y58482D01*
X62138Y59132D01*
X62137Y59132D01*
X61787Y59532D01*
X61786Y59533D01*
X61186Y60183D01*
X61185Y60184D01*
X61185Y60185D01*
X60085Y61285D01*
X60083Y61285D01*
X60083Y61287D01*
X59183Y62087D01*
X59182Y62087D01*
X59182Y62088D01*
X58532Y62638D01*
X58531Y62638D01*
X58031Y63038D01*
X58030Y63039D01*
X57430Y63489D01*
X57429Y63489D01*
X57429Y63490D01*
X56729Y63990D01*
X56728Y63990D01*
X56728Y63991D01*
X56078Y64441D01*
X56076Y64440D01*
X56076Y64442D01*
X55276Y64942D01*
X54726Y65292D01*
X54723Y65291D01*
X54723Y65294D01*
X53874Y65743D01*
X53174Y66143D01*
X53171Y66142D01*
X53171Y66145D01*
X52321Y66545D01*
X52320Y66544D01*
X52319Y66545D01*
X50569Y67295D01*
X50567Y67295D01*
X50566Y67297D01*
X49566Y67647D01*
X49566Y67646D01*
X49566Y67647D01*
X48816Y67897D01*
X48815Y67897D01*
X48015Y68147D01*
X48013Y68146D01*
X48012Y68148D01*
X46812Y68448D01*
X46811Y68448D01*
X45961Y68648D01*
X45960Y68647D01*
X45959Y68648D01*
X45159Y68798D01*
X45159Y68799D01*
X44309Y68949D01*
X44307Y68948D01*
X44306Y68949D01*
X43506Y69049D01*
X43502Y69047D01*
X43500Y69049D01*
X43250Y69049D01*
X43203Y69013D01*
X43208Y69006D01*
X43201Y69000D01*
X43201Y58700D01*
X43237Y58653D01*
X43244Y58658D01*
X43250Y58651D01*
X43347Y58651D01*
X43691Y58602D01*
X44338Y58452D01*
X45486Y58153D01*
X46233Y57904D01*
X47132Y57554D01*
X47630Y57355D01*
X48577Y56906D01*
X49326Y56507D01*
X50473Y55809D01*
X51121Y55360D01*
X51569Y55012D01*
X52318Y54412D01*
X52867Y53914D01*
X52867Y53913D01*
X53315Y53515D01*
X53663Y53118D01*
X53664Y53117D01*
X53664Y53116D01*
X54413Y52318D01*
X54861Y51769D01*
X55211Y51320D01*
X55609Y50772D01*
X55958Y50224D01*
X56358Y49575D01*
X56756Y48877D01*
X57155Y48079D01*
X57505Y47280D01*
X57854Y46433D01*
X58103Y45686D01*
X58302Y44937D01*
X58502Y44139D01*
X58651Y43395D01*
X58651Y43250D01*
X58687Y43203D01*
X58694Y43208D01*
X58700Y43201D01*
X69050Y43201D01*
X69097Y43237D01*
G37*
D10*
X120550Y249343D03*
X133250Y249343D03*
X145950Y249343D03*
X158650Y249343D03*
X171350Y249343D03*
X184050Y249343D03*
X196750Y249343D03*
X209450Y249343D03*
X209450Y154657D03*
X196750Y154657D03*
X184050Y154657D03*
X171350Y154657D03*
X158650Y154657D03*
X145950Y154657D03*
X133250Y154657D03*
X120550Y154657D03*
M02*
