G04 EAGLE Gerber RS-274X export*
G75*
%MOMM*%
%FSLAX34Y34*%
%LPD*%
%INSolderpaste Top*%
%IPPOS*%
%AMOC8*
5,1,8,0,0,1.08239X$1,22.5*%
G01*
%ADD10R,1.000000X1.100000*%
%ADD11R,1.100000X1.000000*%
%ADD12R,1.600000X1.800000*%
%ADD13R,1.800000X1.600000*%
%ADD14R,1.803000X1.600000*%
%ADD15R,1.400000X1.000000*%
%ADD16R,2.540000X2.540000*%
%ADD17R,1.600000X1.803000*%
%ADD18R,1.500000X1.500000*%
%ADD19R,1.600200X1.168400*%


D10*
X179800Y165500D03*
X179800Y182500D03*
X199000Y165500D03*
X199000Y182500D03*
X140600Y165500D03*
X140600Y182500D03*
D11*
X120400Y182500D03*
X120400Y165500D03*
X160200Y182500D03*
X160200Y165500D03*
D10*
X68500Y285000D03*
X51500Y285000D03*
D12*
X236000Y101000D03*
X264000Y101000D03*
D13*
X210000Y101000D03*
X210000Y129000D03*
D14*
X170000Y105780D03*
X170000Y134220D03*
D11*
X110000Y111500D03*
X110000Y128500D03*
D15*
X151000Y120000D03*
X129000Y129500D03*
X129000Y110500D03*
D10*
X68500Y310000D03*
X51500Y310000D03*
X33500Y310000D03*
X16500Y310000D03*
X33500Y285000D03*
X16500Y285000D03*
D16*
X300000Y78495D03*
X300000Y31505D03*
D17*
X265220Y80000D03*
X236780Y80000D03*
D18*
X237500Y240000D03*
X272500Y240000D03*
D17*
X194220Y240000D03*
X165780Y240000D03*
D18*
X107500Y240000D03*
X142500Y240000D03*
D19*
X95000Y182380D03*
X95000Y197620D03*
M02*
