M48
;GenerationSoftware,Autodesk,EAGLE,9.6.2*%
;CreationDate,2022-02-02T22:54:54Z*%
FMAT,2
ICI,OFF
METRIC,TZ,000.000
T6C0.350
T5C0.813
T4C1.000
T3C1.016
T2C1.840
T1C3.700
%
G90
M71
T1
X4000Y4000
X29000Y29000
T2
X2000Y11000
X11000Y7500
X2000Y15000
X7500Y15000
T3
X22800Y30540
X22800Y28000
X20260Y30540
X20260Y28000
X17720Y30540
X17720Y28000
X15180Y30540
X15180Y28000
X12640Y30540
X12640Y28000
X10100Y30540
X10100Y28000
X12100Y2460
X12100Y5000
X14640Y2460
X14640Y5000
X17180Y2460
X17180Y5000
X19720Y2460
X19720Y5000
X22260Y2460
X22260Y5000
X24800Y2460
X24800Y5000
T4
X29550Y19740
X29550Y17200
X29550Y14660
T5
X5100Y24404
X5100Y21889
X5100Y19400
T6
X24000Y22000
X23000Y7000
X14500Y8000
X18500Y8000
X17500Y16500
X11500Y15500
X9500Y14000
X13000Y14000
X10132Y13000
X15500Y14000
X19500Y16500
X17230Y9000
X22500Y22000
X21131Y20000
X25131Y20000
X23131Y20000
X22500Y10100
X1500Y29000
X15000Y19500
X19000Y19500
X21500Y15500
X20000Y13000
X14500Y14000
M30