G04*
G04 #@! TF.GenerationSoftware,Altium Limited,Altium Designer,18.1.7 (191)*
G04*
G04 Layer_Color=255*
%FSLAX44Y44*%
%MOMM*%
G71*
G01*
G75*
%ADD14R,0.8000X0.8000*%
%ADD15R,0.2000X0.6000*%
%ADD16R,0.6000X0.2000*%
%ADD17R,1.1500X0.6000*%
%ADD18R,1.1500X0.3000*%
%ADD19R,0.7000X3.8000*%
%ADD20R,0.7000X2.6000*%
%ADD21R,0.7000X4.6000*%
%ADD81R,2.0000X1.2000*%
%ADD82R,2.3000X1.2000*%
%ADD83R,6.0000X6.0000*%
%ADD84R,6.0000X7.0000*%
%ADD88R,0.6000X0.6000*%
%ADD89R,1.1000X0.7000*%
%ADD90R,0.6000X0.6000*%
%ADD91R,0.4500X1.0000*%
%ADD92R,2.4000X1.7000*%
%ADD93R,0.8000X0.5500*%
%ADD94R,1.2000X0.3000*%
%ADD95R,0.3000X1.2000*%
%ADD96R,0.3000X1.4500*%
%ADD97R,0.5500X0.8000*%
%ADD98R,0.7000X1.1000*%
%ADD99R,1.8000X3.4000*%
G04:AMPARAMS|DCode=100|XSize=2mm|YSize=1mm|CornerRadius=0mm|HoleSize=0mm|Usage=FLASHONLY|Rotation=270.000|XOffset=0mm|YOffset=0mm|HoleType=Round|Shape=Octagon|*
%AMOCTAGOND100*
4,1,8,-0.2500,-1.0000,0.2500,-1.0000,0.5000,-0.7500,0.5000,0.7500,0.2500,1.0000,-0.2500,1.0000,-0.5000,0.7500,-0.5000,-0.7500,-0.2500,-1.0000,0.0*
%
%ADD100OCTAGOND100*%

%ADD101R,1.0000X2.0000*%
%ADD102R,0.9300X0.9800*%
%ADD103R,1.0000X0.4500*%
%ADD104R,1.1000X2.0000*%
%ADD105R,2.0000X1.1000*%
%ADD106O,0.3500X1.3500*%
D14*
X550826Y1558000D02*
D03*
X564826D02*
D03*
X551000Y1488000D02*
D03*
X565000D02*
D03*
X551000Y1418000D02*
D03*
X565000D02*
D03*
D15*
X1093500Y1669000D02*
D03*
X1089500D02*
D03*
X1287000Y1547000D02*
D03*
X1291000D02*
D03*
D16*
X1085000Y1464000D02*
D03*
Y1468000D02*
D03*
D17*
X612970Y1311000D02*
D03*
X613000Y1303500D02*
D03*
X612970Y1256500D02*
D03*
Y1249000D02*
D03*
D18*
Y1297500D02*
D03*
Y1292500D02*
D03*
Y1287500D02*
D03*
X613000Y1282500D02*
D03*
X612970Y1277500D02*
D03*
Y1272500D02*
D03*
Y1267500D02*
D03*
Y1262500D02*
D03*
D19*
X1215000Y878500D02*
D03*
X1245000D02*
D03*
X1235000D02*
D03*
X1225000D02*
D03*
X1355000Y878500D02*
D03*
X1345000D02*
D03*
X1495000D02*
D03*
X1515000D02*
D03*
X1485000D02*
D03*
X1505000D02*
D03*
X1615000D02*
D03*
X1625000D02*
D03*
X1675000Y878500D02*
D03*
X1665000D02*
D03*
X1735000D02*
D03*
X1715000D02*
D03*
X1725000D02*
D03*
X1765000D02*
D03*
X1775000D02*
D03*
X1785000D02*
D03*
X1685000D02*
D03*
X1605000Y878500D02*
D03*
X1585000D02*
D03*
X1565000D02*
D03*
X1525000D02*
D03*
X1465000D02*
D03*
X1445000D02*
D03*
X1425000D02*
D03*
X1365000D02*
D03*
X1385000D02*
D03*
X1325000Y878500D02*
D03*
X1195000D02*
D03*
X1175000D02*
D03*
X1155000D02*
D03*
X1075000Y878500D02*
D03*
X1095000D02*
D03*
X1135000Y878500D02*
D03*
X1055000Y878500D02*
D03*
X1015000D02*
D03*
X1035000D02*
D03*
X1635000Y878500D02*
D03*
X1595000Y878500D02*
D03*
X1575000D02*
D03*
X1555000D02*
D03*
X1475000D02*
D03*
X1455000D02*
D03*
X1435000D02*
D03*
X1415000D02*
D03*
X1375000D02*
D03*
X1335000D02*
D03*
X1315000Y878500D02*
D03*
X1305000D02*
D03*
X1295000D02*
D03*
X1285000D02*
D03*
X1275000D02*
D03*
X1205000D02*
D03*
X1185000D02*
D03*
X1165000D02*
D03*
X1145000D02*
D03*
X1125000D02*
D03*
X1085000Y878500D02*
D03*
X1065000D02*
D03*
X1045000D02*
D03*
X1025000D02*
D03*
D20*
X1825000Y884000D02*
D03*
X995000D02*
D03*
D21*
X1815000Y874000D02*
D03*
X1005000D02*
D03*
D81*
X609170Y1236700D02*
D03*
Y1323200D02*
D03*
Y1323300D02*
D03*
Y1236800D02*
D03*
D82*
X570570Y1236700D02*
D03*
Y1323200D02*
D03*
Y1323300D02*
D03*
Y1236800D02*
D03*
D83*
X2270933Y1512000D02*
D03*
X2272933Y1309000D02*
D03*
X2095933Y1512000D02*
D03*
X2097933Y1309000D02*
D03*
X1920933Y1512000D02*
D03*
X1922933Y1309000D02*
D03*
X1745933Y1512000D02*
D03*
X1747933Y1309000D02*
D03*
X1570933Y1512000D02*
D03*
X1572933Y1309000D02*
D03*
X3441000Y932000D02*
D03*
X596000D02*
D03*
D84*
Y1786000D02*
D03*
D88*
X895920Y1194000D02*
D03*
X906080D02*
D03*
X919920D02*
D03*
X930080D02*
D03*
X779080Y1526000D02*
D03*
X768920D02*
D03*
X1049920Y1220000D02*
D03*
X1060080D02*
D03*
X1154920Y1002000D02*
D03*
X1165080D02*
D03*
X950080Y1004000D02*
D03*
X939920D02*
D03*
X749920Y999000D02*
D03*
X760080D02*
D03*
X2016080Y1338000D02*
D03*
X2005920D02*
D03*
X1064920Y1505000D02*
D03*
X1075080D02*
D03*
X1304853Y1594000D02*
D03*
X1315013D02*
D03*
X1277853Y1586000D02*
D03*
X1288013D02*
D03*
X1298080Y1561000D02*
D03*
X1287920D02*
D03*
X1322080D02*
D03*
X1311920D02*
D03*
X1288080Y1572000D02*
D03*
X1277920D02*
D03*
X1253853Y1532000D02*
D03*
X1264013D02*
D03*
X1253853Y1542000D02*
D03*
X1264013D02*
D03*
X595906Y1558000D02*
D03*
X585746D02*
D03*
X595906Y1488000D02*
D03*
X585746D02*
D03*
X595906Y1418000D02*
D03*
X585746D02*
D03*
X1208080Y1405000D02*
D03*
X1197920D02*
D03*
X1501920Y1480000D02*
D03*
X1512080D02*
D03*
X744853Y1226000D02*
D03*
X755013D02*
D03*
X737080Y1368000D02*
D03*
X726920D02*
D03*
X771080Y1473000D02*
D03*
X760920D02*
D03*
X1064920Y1494000D02*
D03*
X1075080D02*
D03*
X1304920Y1616000D02*
D03*
X1315080D02*
D03*
X1255853Y1586000D02*
D03*
X1266013D02*
D03*
Y1572000D02*
D03*
X1255853D02*
D03*
X1143080Y1659000D02*
D03*
X1132920D02*
D03*
X1213853Y1507000D02*
D03*
X1224013D02*
D03*
X915580Y1487500D02*
D03*
X905420D02*
D03*
X875013Y1350000D02*
D03*
X864853D02*
D03*
X895420Y1440000D02*
D03*
X905580D02*
D03*
X834080Y1361000D02*
D03*
X823920D02*
D03*
X726920Y1357000D02*
D03*
X737080D02*
D03*
X876013Y1267000D02*
D03*
X865853D02*
D03*
X875013Y1338000D02*
D03*
X864853D02*
D03*
X1005853Y1499000D02*
D03*
X1016013D02*
D03*
D89*
X770500Y1580500D02*
D03*
X829500D02*
D03*
Y1543500D02*
D03*
X770500D02*
D03*
D90*
X638000Y1623920D02*
D03*
Y1634080D02*
D03*
Y1681920D02*
D03*
Y1692080D02*
D03*
X2375000Y1812920D02*
D03*
Y1823080D02*
D03*
Y1006080D02*
D03*
Y995920D02*
D03*
X2565000Y1005080D02*
D03*
Y994920D02*
D03*
Y1812920D02*
D03*
Y1823080D02*
D03*
X2780000Y1812920D02*
D03*
Y1823080D02*
D03*
Y1006080D02*
D03*
Y995920D02*
D03*
X2971000Y1812920D02*
D03*
Y1823080D02*
D03*
X2970000Y1006080D02*
D03*
Y995920D02*
D03*
X3185000Y1812920D02*
D03*
Y1823080D02*
D03*
Y1006080D02*
D03*
Y995920D02*
D03*
X3375000Y1812920D02*
D03*
Y1823080D02*
D03*
Y995920D02*
D03*
Y1006080D02*
D03*
X2160000Y1813920D02*
D03*
Y1824080D02*
D03*
Y1006080D02*
D03*
Y995920D02*
D03*
X1970000Y1813920D02*
D03*
Y1824080D02*
D03*
Y1004080D02*
D03*
Y993920D02*
D03*
X1755000Y1813920D02*
D03*
Y1824080D02*
D03*
Y1005080D02*
D03*
Y994920D02*
D03*
X1565000Y1813920D02*
D03*
Y1824080D02*
D03*
Y1005080D02*
D03*
Y994920D02*
D03*
X1350000Y1813920D02*
D03*
Y1824080D02*
D03*
X1378000Y1005080D02*
D03*
Y994920D02*
D03*
X1160000Y1813920D02*
D03*
Y1824080D02*
D03*
X945000Y1813920D02*
D03*
Y1824080D02*
D03*
X755000Y1813920D02*
D03*
Y1824080D02*
D03*
X998000Y1648080D02*
D03*
Y1637920D02*
D03*
X991000Y1627080D02*
D03*
Y1616920D02*
D03*
X984000Y1648080D02*
D03*
Y1637920D02*
D03*
X977000Y1627080D02*
D03*
Y1616920D02*
D03*
X970000Y1648160D02*
D03*
Y1638000D02*
D03*
X963000Y1627080D02*
D03*
Y1616920D02*
D03*
X956000Y1648080D02*
D03*
Y1637920D02*
D03*
X1005000Y1627080D02*
D03*
Y1616920D02*
D03*
X1012000Y1648080D02*
D03*
Y1637920D02*
D03*
X1019000Y1627080D02*
D03*
Y1616920D02*
D03*
X1026000Y1648080D02*
D03*
Y1637920D02*
D03*
X1033000Y1627080D02*
D03*
Y1616920D02*
D03*
X1041000Y1648080D02*
D03*
Y1637920D02*
D03*
X1047000Y1627080D02*
D03*
Y1616920D02*
D03*
X1053000Y1648080D02*
D03*
Y1637920D02*
D03*
X648933Y1484080D02*
D03*
Y1473920D02*
D03*
X659933Y1484080D02*
D03*
Y1473920D02*
D03*
X670933Y1484080D02*
D03*
Y1473920D02*
D03*
X681933Y1484080D02*
D03*
Y1473920D02*
D03*
X692933Y1484080D02*
D03*
Y1473920D02*
D03*
X703933Y1484080D02*
D03*
Y1473920D02*
D03*
X714933Y1484080D02*
D03*
Y1473920D02*
D03*
X725933Y1484080D02*
D03*
Y1473920D02*
D03*
X736933Y1484080D02*
D03*
Y1473920D02*
D03*
X747933Y1484080D02*
D03*
Y1473920D02*
D03*
X648933Y1524080D02*
D03*
Y1513920D02*
D03*
X659933Y1524080D02*
D03*
Y1513920D02*
D03*
X670933Y1524080D02*
D03*
Y1513920D02*
D03*
X681933Y1524080D02*
D03*
Y1513920D02*
D03*
X692933Y1524080D02*
D03*
Y1513920D02*
D03*
X703933Y1524080D02*
D03*
Y1513920D02*
D03*
X714933Y1524080D02*
D03*
Y1513920D02*
D03*
X725933Y1524080D02*
D03*
Y1513920D02*
D03*
X736933Y1524080D02*
D03*
Y1513920D02*
D03*
X747933Y1524080D02*
D03*
Y1513920D02*
D03*
X648933Y1564080D02*
D03*
Y1553920D02*
D03*
X659933Y1564080D02*
D03*
Y1553920D02*
D03*
X670933Y1564080D02*
D03*
Y1553920D02*
D03*
X681940Y1564077D02*
D03*
Y1553918D02*
D03*
X692933Y1564080D02*
D03*
Y1553920D02*
D03*
X703933Y1564080D02*
D03*
Y1553920D02*
D03*
X714933Y1564080D02*
D03*
Y1553920D02*
D03*
X725933Y1564080D02*
D03*
Y1553920D02*
D03*
X736933Y1564080D02*
D03*
Y1553920D02*
D03*
X747933Y1564080D02*
D03*
Y1553920D02*
D03*
X1085933Y1627080D02*
D03*
Y1616920D02*
D03*
X1096933Y1627080D02*
D03*
Y1616920D02*
D03*
X1107933Y1627080D02*
D03*
Y1616920D02*
D03*
X1117933Y1627080D02*
D03*
Y1616920D02*
D03*
X1131933Y1648080D02*
D03*
Y1637920D02*
D03*
X1142933Y1648080D02*
D03*
Y1637920D02*
D03*
X1164933Y1627080D02*
D03*
Y1616920D02*
D03*
X1175933Y1627080D02*
D03*
Y1616920D02*
D03*
X1186933Y1627080D02*
D03*
Y1616920D02*
D03*
X1197933Y1627080D02*
D03*
Y1616920D02*
D03*
X1223933Y1648080D02*
D03*
Y1637920D02*
D03*
X1235933Y1648080D02*
D03*
Y1637920D02*
D03*
X1247933Y1627080D02*
D03*
Y1616920D02*
D03*
X1258933Y1627080D02*
D03*
Y1616920D02*
D03*
X1269933Y1627080D02*
D03*
Y1616920D02*
D03*
X1280933Y1627080D02*
D03*
Y1616920D02*
D03*
X1291933Y1627080D02*
D03*
Y1616920D02*
D03*
X1209000Y1431080D02*
D03*
Y1420920D02*
D03*
X1198000D02*
D03*
Y1431080D02*
D03*
X634000Y1303920D02*
D03*
Y1314080D02*
D03*
Y1259080D02*
D03*
Y1248920D02*
D03*
X706000Y1278920D02*
D03*
Y1289080D02*
D03*
X717000Y1278920D02*
D03*
Y1289080D02*
D03*
X836933Y1241920D02*
D03*
Y1252080D02*
D03*
X706000Y1310080D02*
D03*
Y1299920D02*
D03*
X717000Y1310080D02*
D03*
Y1299920D02*
D03*
X1036933Y1494080D02*
D03*
Y1483920D02*
D03*
X1256000Y1507080D02*
D03*
Y1496920D02*
D03*
X1524000Y1371920D02*
D03*
Y1382080D02*
D03*
X1244933Y1496920D02*
D03*
Y1507080D02*
D03*
X1233933Y1497000D02*
D03*
Y1507160D02*
D03*
X1273933Y1542080D02*
D03*
Y1531920D02*
D03*
X1064933Y1648080D02*
D03*
Y1637920D02*
D03*
X1074933Y1638000D02*
D03*
Y1648160D02*
D03*
X1085933Y1637920D02*
D03*
Y1648080D02*
D03*
X1096933Y1637920D02*
D03*
Y1648080D02*
D03*
X1107933Y1637920D02*
D03*
Y1648080D02*
D03*
X1117933Y1637920D02*
D03*
Y1648080D02*
D03*
X1153933Y1637920D02*
D03*
Y1648080D02*
D03*
X1164933Y1637920D02*
D03*
Y1648080D02*
D03*
X1178933Y1648080D02*
D03*
Y1637920D02*
D03*
X1189933Y1648080D02*
D03*
Y1637920D02*
D03*
X1201933Y1648080D02*
D03*
Y1637920D02*
D03*
X1212933Y1648080D02*
D03*
Y1637920D02*
D03*
X1247933D02*
D03*
Y1648080D02*
D03*
X1258933Y1637920D02*
D03*
Y1648080D02*
D03*
X1269933Y1637920D02*
D03*
Y1648080D02*
D03*
X1280933Y1637920D02*
D03*
Y1648080D02*
D03*
X1291933Y1637840D02*
D03*
Y1648000D02*
D03*
X1303000Y1648080D02*
D03*
Y1637920D02*
D03*
X1201933Y1507080D02*
D03*
Y1496920D02*
D03*
X1170933D02*
D03*
Y1507080D02*
D03*
X1187933Y1496920D02*
D03*
Y1507080D02*
D03*
X848933Y1241920D02*
D03*
Y1252080D02*
D03*
X1047933Y1494080D02*
D03*
Y1483920D02*
D03*
X1037000Y1462920D02*
D03*
Y1473080D02*
D03*
D91*
X1033000Y1198000D02*
D03*
Y1220000D02*
D03*
X1120933Y1540000D02*
D03*
Y1562000D02*
D03*
D92*
X863933Y1284500D02*
D03*
Y1321500D02*
D03*
D93*
X892933Y1463000D02*
D03*
X915933Y1453500D02*
D03*
Y1472500D02*
D03*
X1518500Y1506000D02*
D03*
X1495500Y1515500D02*
D03*
Y1496500D02*
D03*
X784433Y1450000D02*
D03*
X761433Y1459500D02*
D03*
Y1440500D02*
D03*
D94*
X822183Y1332750D02*
D03*
X822183Y1327750D02*
D03*
X822183Y1322750D02*
D03*
X822183Y1317750D02*
D03*
Y1312750D02*
D03*
Y1307750D02*
D03*
Y1302750D02*
D03*
Y1297750D02*
D03*
X822183Y1292750D02*
D03*
X822183Y1287750D02*
D03*
Y1282750D02*
D03*
Y1277750D02*
D03*
X738683Y1332750D02*
D03*
Y1327750D02*
D03*
Y1322750D02*
D03*
Y1317750D02*
D03*
Y1312750D02*
D03*
Y1307750D02*
D03*
Y1302750D02*
D03*
Y1297750D02*
D03*
Y1292750D02*
D03*
Y1287750D02*
D03*
Y1282750D02*
D03*
Y1277750D02*
D03*
D95*
X807933Y1263500D02*
D03*
X802933D02*
D03*
X797933D02*
D03*
X792933D02*
D03*
X787933D02*
D03*
X782933D02*
D03*
X777933D02*
D03*
X772933D02*
D03*
X767933D02*
D03*
X762933D02*
D03*
X757933D02*
D03*
X752933D02*
D03*
X807933Y1347000D02*
D03*
X802933D02*
D03*
X797933D02*
D03*
X792933D02*
D03*
X787933D02*
D03*
X782933D02*
D03*
X777933D02*
D03*
X772933D02*
D03*
X767933D02*
D03*
X762933D02*
D03*
X757933D02*
D03*
X752933D02*
D03*
D96*
X1051183Y1521500D02*
D03*
X1057683D02*
D03*
X1064183D02*
D03*
X1070683D02*
D03*
X1077183D02*
D03*
X1083683D02*
D03*
X1096683D02*
D03*
X1090183D02*
D03*
X1090133Y1576000D02*
D03*
X1096633D02*
D03*
X1083633D02*
D03*
X1077133D02*
D03*
X1070633D02*
D03*
X1064133D02*
D03*
X1057633D02*
D03*
X1051133D02*
D03*
X1044633D02*
D03*
X1038133D02*
D03*
X1031633D02*
D03*
X1025133D02*
D03*
X1025183Y1521500D02*
D03*
X1031683D02*
D03*
X1038183D02*
D03*
X1044683D02*
D03*
D97*
X943000Y1488500D02*
D03*
X933500Y1465500D02*
D03*
X952500D02*
D03*
X1086000Y1196500D02*
D03*
X1095500Y1219500D02*
D03*
X1076500D02*
D03*
X1315000Y1506500D02*
D03*
X1324500Y1529500D02*
D03*
X1305500D02*
D03*
X1015000Y1486500D02*
D03*
X1005500Y1463500D02*
D03*
X1024500D02*
D03*
X774000Y1487500D02*
D03*
X783500Y1510500D02*
D03*
X764500D02*
D03*
D98*
X895500Y1271500D02*
D03*
Y1330500D02*
D03*
X932500D02*
D03*
Y1271500D02*
D03*
D99*
X1166000Y1113000D02*
D03*
X1218000D02*
D03*
D100*
X2294933Y1444500D02*
D03*
X2248933Y1376500D02*
D03*
X2119933Y1444500D02*
D03*
X2073933Y1376500D02*
D03*
X1944933Y1444500D02*
D03*
X1898933Y1376500D02*
D03*
X1769933Y1444500D02*
D03*
X1723933Y1376500D02*
D03*
X1594933Y1444500D02*
D03*
X1548933Y1376500D02*
D03*
D101*
X2248933Y1445500D02*
D03*
X2294933Y1375500D02*
D03*
X2073933Y1445500D02*
D03*
X2119933Y1375500D02*
D03*
X1898933Y1445500D02*
D03*
X1944933Y1375500D02*
D03*
X1723933Y1445500D02*
D03*
X1769933Y1375500D02*
D03*
X1548933Y1445500D02*
D03*
X1594933Y1375500D02*
D03*
D102*
X861233Y1253000D02*
D03*
X876633D02*
D03*
D103*
X1304000Y1546000D02*
D03*
X1326000D02*
D03*
X1130933Y1621000D02*
D03*
X1152933D02*
D03*
X1209933Y1623000D02*
D03*
X1231933D02*
D03*
X1080000Y1398000D02*
D03*
X1058000D02*
D03*
X1152000Y1256000D02*
D03*
X1174000D02*
D03*
X1103000Y1424000D02*
D03*
X1125000D02*
D03*
X1103000Y1406000D02*
D03*
X1125000D02*
D03*
X1152000Y1449000D02*
D03*
X1174000D02*
D03*
X1152000Y1419000D02*
D03*
X1174000D02*
D03*
X1152000Y1365000D02*
D03*
X1174000D02*
D03*
X1152000Y1384000D02*
D03*
X1174000D02*
D03*
X836000Y1210000D02*
D03*
X814000D02*
D03*
X814000Y1192000D02*
D03*
X836000D02*
D03*
X1174000Y1342000D02*
D03*
X1152000D02*
D03*
X1174000Y1324000D02*
D03*
X1152000D02*
D03*
D104*
X824933Y1462000D02*
D03*
X864933D02*
D03*
D105*
X668000Y1648933D02*
D03*
Y1608933D02*
D03*
X668000Y1706000D02*
D03*
Y1666000D02*
D03*
X730000Y1666067D02*
D03*
Y1706067D02*
D03*
Y1609067D02*
D03*
Y1649067D02*
D03*
X792000Y1649000D02*
D03*
Y1609000D02*
D03*
Y1706000D02*
D03*
Y1666000D02*
D03*
X1497000Y1399000D02*
D03*
Y1359000D02*
D03*
Y1455000D02*
D03*
Y1415000D02*
D03*
D106*
X1241433Y1524250D02*
D03*
X1236433D02*
D03*
X1231433D02*
D03*
X1226433D02*
D03*
X1221433D02*
D03*
X1216433D02*
D03*
X1211433D02*
D03*
X1206433D02*
D03*
X1201433D02*
D03*
X1196433D02*
D03*
X1191433D02*
D03*
X1186433D02*
D03*
X1181433D02*
D03*
X1176433D02*
D03*
X1171433D02*
D03*
X1166433D02*
D03*
X1161433D02*
D03*
X1156433D02*
D03*
X1151433D02*
D03*
X1146433D02*
D03*
X1141433D02*
D03*
X1136433D02*
D03*
X1241433Y1577750D02*
D03*
X1236433D02*
D03*
X1231433D02*
D03*
X1226433D02*
D03*
X1221433D02*
D03*
X1216433D02*
D03*
X1211433D02*
D03*
X1206433D02*
D03*
X1201433D02*
D03*
X1196433D02*
D03*
X1191433D02*
D03*
X1186433D02*
D03*
X1181433D02*
D03*
X1176433D02*
D03*
X1171433D02*
D03*
X1166433D02*
D03*
X1161433D02*
D03*
X1156433D02*
D03*
X1151433D02*
D03*
X1146433D02*
D03*
X1141433D02*
D03*
X1136433D02*
D03*
M02*
