G04*
G04 #@! TF.GenerationSoftware,Altium Limited,Altium Designer,18.1.7 (191)*
G04*
G04 Layer_Physical_Order=1*
G04 Layer_Color=255*
%FSLAX44Y44*%
%MOMM*%
G71*
G01*
G75*
%ADD11C,0.2000*%
%ADD13R,7.0000X5.0000*%
%ADD14R,0.8000X0.8000*%
%ADD15R,0.2000X0.6000*%
%ADD16R,0.6000X0.2000*%
%ADD17R,1.1500X0.6000*%
%ADD18R,1.1500X0.3000*%
%ADD19R,0.7000X3.8000*%
%ADD20R,0.7000X2.6000*%
%ADD21R,0.7000X4.6000*%
%ADD42C,0.5000*%
%ADD43C,0.4000*%
%ADD44C,0.3000*%
%ADD45R,1.4000X18.1000*%
%ADD46R,0.4000X0.6000*%
%ADD47R,0.6000X0.4000*%
%ADD48R,6.5000X0.3000*%
%ADD49R,49.3000X43.7000*%
%ADD50R,151.0000X49.0000*%
%ADD51R,2.0000X9.4000*%
%ADD52R,9.4000X2.0000*%
%ADD53R,9.6000X51.6000*%
%ADD54R,9.6000X46.1000*%
%ADD55R,0.6000X14.7000*%
%ADD56R,2.4000X5.1000*%
%ADD57R,20.3000X0.6000*%
%ADD58R,3.0000X16.5000*%
%ADD59R,10.8000X2.9000*%
%ADD60R,10.9000X6.5000*%
%ADD61R,11.6000X6.5000*%
%ADD62R,28.5000X9.6000*%
%ADD63R,28.5000X9.0000*%
%ADD64R,13.5000X6.0000*%
%ADD65R,28.5000X10.1000*%
%ADD66R,21.5000X2.0000*%
%ADD67R,2.0000X5.0000*%
%ADD68R,28.5000X8.4000*%
%ADD69R,11.0000X6.0000*%
%ADD70R,26.0000X5.4000*%
%ADD71R,14.0000X2.0000*%
%ADD72R,26.0000X4.8000*%
%ADD73R,26.0000X4.2000*%
%ADD74R,26.0000X3.6000*%
%ADD75R,26.0000X3.0000*%
%ADD76R,10.0000X2.0000*%
%ADD77R,26.0000X4.5000*%
%ADD78R,5.0000X10.6000*%
%ADD79R,18.0000X11.2000*%
%ADD80R,14.3000X2.1000*%
%ADD81R,2.0000X1.2000*%
%ADD82R,2.3000X1.2000*%
%ADD83R,6.0000X6.0000*%
%ADD84R,6.0000X7.0000*%
%ADD85C,0.5080*%
%ADD86C,0.4800*%
%ADD87C,1.2700*%
G36*
X845922Y1720000D02*
Y1718000D01*
X846232Y1716439D01*
X847116Y1715116D01*
X848439Y1714232D01*
X850000Y1713922D01*
X959185D01*
X959941Y1713000D01*
Y1614133D01*
X958671Y1613507D01*
X957717Y1614145D01*
X956000Y1614486D01*
X954283Y1614145D01*
X952828Y1613172D01*
X951855Y1611717D01*
X951514Y1610000D01*
X951855Y1608283D01*
X952828Y1606828D01*
X954283Y1605855D01*
X956000Y1605514D01*
X957717Y1605855D01*
X958451Y1605551D01*
X958945Y1605149D01*
X959828Y1603828D01*
X961283Y1602855D01*
X963000Y1602514D01*
X964717Y1602855D01*
X966172Y1603828D01*
X967145Y1605283D01*
X967167Y1605393D01*
X968283Y1605855D01*
X970000Y1605514D01*
X971717Y1605855D01*
X972451Y1605551D01*
X972945Y1605149D01*
X973828Y1603828D01*
X975283Y1602855D01*
X977000Y1602514D01*
X978717Y1602855D01*
X980172Y1603828D01*
X981145Y1605283D01*
X981167Y1605393D01*
X981381Y1605482D01*
X982543Y1605804D01*
X984000Y1605514D01*
X985717Y1605855D01*
X986451Y1605551D01*
X986945Y1605149D01*
X987828Y1603828D01*
X989283Y1602855D01*
X991000Y1602514D01*
X992717Y1602855D01*
X994172Y1603828D01*
X995145Y1605283D01*
X995166Y1605393D01*
X996283Y1605855D01*
X998000Y1605514D01*
X999392Y1605791D01*
X1000788Y1605283D01*
X1001761Y1603828D01*
X1003216Y1602855D01*
X1004933Y1602514D01*
X1006650Y1602855D01*
X1008105Y1603828D01*
X1008988Y1605149D01*
X1009482Y1605551D01*
X1010216Y1605855D01*
X1011933Y1605514D01*
X1013454Y1605816D01*
X1013998Y1605726D01*
X1014836Y1605378D01*
X1014855Y1605283D01*
X1015828Y1603828D01*
X1017283Y1602855D01*
X1019000Y1602514D01*
X1020717Y1602855D01*
X1022172Y1603828D01*
X1023145Y1605283D01*
X1024286Y1605841D01*
X1025933Y1605514D01*
X1027650Y1605855D01*
X1028766Y1605393D01*
X1028788Y1605283D01*
X1029761Y1603828D01*
X1031216Y1602855D01*
X1032933Y1602514D01*
X1034650Y1602855D01*
X1036105Y1603828D01*
X1037078Y1605283D01*
X1037099Y1605393D01*
X1037315Y1605482D01*
X1038476Y1605804D01*
X1039933Y1605514D01*
X1041650Y1605855D01*
X1043105Y1606828D01*
X1044078Y1608283D01*
X1044419Y1610000D01*
X1044078Y1611717D01*
X1043105Y1613172D01*
X1042992Y1613248D01*
Y1627663D01*
X1043059Y1628000D01*
Y1630000D01*
Y1662752D01*
X1043172Y1662828D01*
X1044145Y1664283D01*
X1044474Y1665941D01*
X1051169D01*
X1051628Y1665382D01*
X1051828Y1664172D01*
X1050855Y1662717D01*
X1050514Y1661000D01*
X1050855Y1659283D01*
X1051828Y1657828D01*
X1051941Y1657752D01*
Y1620248D01*
X1051828Y1620172D01*
X1050855Y1618717D01*
X1050514Y1617000D01*
X1050855Y1615283D01*
X1051828Y1613828D01*
X1053283Y1612855D01*
X1055000Y1612514D01*
X1056717Y1612855D01*
X1058172Y1613828D01*
X1059145Y1615283D01*
X1059486Y1617000D01*
X1059145Y1618717D01*
X1058172Y1620172D01*
X1058059Y1620248D01*
Y1623192D01*
X1059102Y1623873D01*
X1059329Y1623846D01*
X1061000Y1623514D01*
X1062717Y1623855D01*
X1064172Y1624828D01*
X1065145Y1626283D01*
X1065486Y1628000D01*
X1065145Y1629717D01*
X1064172Y1631172D01*
X1064059Y1631248D01*
Y1654752D01*
X1064172Y1654828D01*
X1065145Y1656283D01*
X1065474Y1657941D01*
X1069605D01*
X1070647Y1656671D01*
X1070514Y1656000D01*
X1070855Y1654283D01*
X1071828Y1652828D01*
X1073283Y1651855D01*
X1073400Y1651832D01*
X1120116Y1605116D01*
X1120116Y1605116D01*
X1121439Y1604232D01*
X1123000Y1603922D01*
X1158093D01*
X1158478Y1602652D01*
X1157761Y1602172D01*
X1156788Y1600717D01*
X1156447Y1599000D01*
X1156788Y1597283D01*
X1157761Y1595828D01*
X1158941Y1595039D01*
Y1565000D01*
X1159174Y1563829D01*
X1159837Y1562837D01*
X1159837Y1562837D01*
X1166540Y1556134D01*
X1166514Y1556000D01*
X1166855Y1554283D01*
X1167139Y1553858D01*
X1166460Y1552588D01*
X1163901D01*
X1123244Y1593244D01*
X1121756Y1594239D01*
X1120000Y1594588D01*
X907004D01*
X905955Y1595955D01*
X904211Y1597294D01*
X902180Y1598135D01*
X900000Y1598422D01*
X897820Y1598135D01*
X895789Y1597294D01*
X894045Y1595955D01*
X892706Y1594211D01*
X891865Y1592180D01*
X891578Y1590000D01*
X891865Y1587820D01*
X892706Y1585789D01*
X894045Y1584045D01*
X895789Y1582706D01*
X897820Y1581865D01*
X900000Y1581578D01*
X902180Y1581865D01*
X904211Y1582706D01*
X905955Y1584045D01*
X907004Y1585412D01*
X1118100D01*
X1158756Y1544756D01*
X1160244Y1543761D01*
X1162000Y1543412D01*
X1199000D01*
X1200756Y1543761D01*
X1202244Y1544756D01*
X1207244Y1549756D01*
X1208239Y1551244D01*
X1208588Y1553000D01*
Y1575099D01*
X1228901Y1595412D01*
X1320412D01*
Y1508000D01*
X1320761Y1506244D01*
X1321756Y1504756D01*
X1323244Y1503761D01*
X1325000Y1503412D01*
X1326756Y1503761D01*
X1328244Y1504756D01*
X1329239Y1506244D01*
X1329588Y1508000D01*
Y1595412D01*
X1331000D01*
X1332756Y1595761D01*
X1334244Y1596756D01*
X1335901Y1598412D01*
X1348000D01*
X1348000Y1522933D01*
X1348000Y1153000D01*
X1277059Y1153000D01*
Y1171000D01*
X1276826Y1172171D01*
X1276163Y1173163D01*
X1276163Y1173163D01*
X1205059Y1244267D01*
Y1393752D01*
X1205172Y1393828D01*
X1206145Y1395283D01*
X1206486Y1397000D01*
X1206145Y1398717D01*
X1205172Y1400172D01*
X1203717Y1401145D01*
X1202000Y1401486D01*
X1200283Y1401145D01*
X1198828Y1400172D01*
X1197855Y1398717D01*
X1197514Y1397000D01*
X1197855Y1395283D01*
X1198828Y1393828D01*
X1198941Y1393752D01*
Y1260808D01*
X1197898Y1260127D01*
X1197671Y1260154D01*
X1196000Y1260486D01*
X1194283Y1260145D01*
X1192828Y1259172D01*
X1192329Y1258425D01*
X1191059Y1258811D01*
Y1420752D01*
X1191172Y1420828D01*
X1192145Y1422283D01*
X1192486Y1424000D01*
X1192145Y1425717D01*
X1191172Y1427172D01*
X1189717Y1428145D01*
X1188000Y1428486D01*
X1186283Y1428145D01*
X1184828Y1427172D01*
X1183855Y1425717D01*
X1183514Y1424000D01*
X1183855Y1422283D01*
X1184828Y1420828D01*
X1184941Y1420752D01*
Y1411395D01*
X1183671Y1410353D01*
X1183000Y1410486D01*
X1182329Y1410353D01*
X1181059Y1411395D01*
Y1439752D01*
X1181172Y1439828D01*
X1182145Y1441283D01*
X1182486Y1443000D01*
X1182145Y1444717D01*
X1181172Y1446172D01*
X1179717Y1447145D01*
X1178000Y1447486D01*
X1176283Y1447145D01*
X1174828Y1446172D01*
X1173855Y1444717D01*
X1173514Y1443000D01*
X1173855Y1441283D01*
X1174828Y1439828D01*
X1174941Y1439752D01*
Y1417395D01*
X1173671Y1416353D01*
X1173000Y1416486D01*
X1171283Y1416145D01*
X1169828Y1415172D01*
X1168855Y1413717D01*
X1168514Y1412000D01*
X1168855Y1410283D01*
X1169828Y1408828D01*
X1169941Y1408752D01*
Y1363395D01*
X1168671Y1362353D01*
X1168000Y1362486D01*
X1167329Y1362353D01*
X1166059Y1363395D01*
Y1380752D01*
X1166172Y1380828D01*
X1167145Y1382283D01*
X1167486Y1384000D01*
X1167145Y1385717D01*
X1166172Y1387172D01*
X1164717Y1388145D01*
X1163000Y1388486D01*
X1162329Y1388353D01*
X1161059Y1389395D01*
Y1497752D01*
X1161172Y1497828D01*
X1162145Y1499283D01*
X1162486Y1501000D01*
X1162145Y1502717D01*
X1161172Y1504172D01*
X1159717Y1505145D01*
X1158000Y1505486D01*
X1156283Y1505145D01*
X1156112Y1505030D01*
X1154992Y1505629D01*
Y1524000D01*
X1154759Y1525170D01*
X1154096Y1526163D01*
X1153103Y1526826D01*
X1151933Y1527059D01*
X1110248D01*
X1110172Y1527172D01*
X1108717Y1528145D01*
X1107000Y1528486D01*
X1105283Y1528145D01*
X1103828Y1527172D01*
X1102855Y1525717D01*
X1102514Y1524000D01*
X1102855Y1522283D01*
X1103828Y1520828D01*
X1105283Y1519855D01*
X1106328Y1519647D01*
Y1518353D01*
X1105283Y1518145D01*
X1104882Y1517876D01*
X1104796Y1517859D01*
X1103804Y1517196D01*
X1103141Y1516204D01*
X1103123Y1516118D01*
X1102855Y1515717D01*
X1102514Y1514000D01*
X1102846Y1512329D01*
X1102873Y1512102D01*
X1102192Y1511059D01*
X1100267D01*
X1100210Y1511116D01*
X1100172Y1511172D01*
X1098717Y1512145D01*
X1097000Y1512486D01*
X1095283Y1512145D01*
X1093828Y1511172D01*
X1092855Y1509717D01*
X1092514Y1508000D01*
X1092855Y1506283D01*
X1093828Y1504828D01*
X1095283Y1503855D01*
X1097000Y1503514D01*
X1098717Y1503855D01*
X1100172Y1504828D01*
X1100248Y1504941D01*
X1133941D01*
Y1482337D01*
X1133874Y1482000D01*
X1133874Y1482000D01*
Y1452506D01*
X1133375Y1452172D01*
X1132402Y1450717D01*
X1132061Y1449000D01*
X1132402Y1447283D01*
X1133375Y1445828D01*
X1133874Y1445494D01*
Y1414203D01*
X1133828Y1414172D01*
X1132855Y1412717D01*
X1132514Y1411000D01*
X1132855Y1409283D01*
X1133828Y1407828D01*
X1135283Y1406855D01*
X1137000Y1406514D01*
X1138717Y1406855D01*
X1140172Y1407828D01*
X1141145Y1409283D01*
X1141486Y1411000D01*
X1141145Y1412717D01*
X1140637Y1413477D01*
X1141401Y1414620D01*
X1141933Y1414514D01*
X1142604Y1414647D01*
X1143874Y1413605D01*
Y1374248D01*
X1143761Y1374172D01*
X1142788Y1372717D01*
X1142447Y1371000D01*
X1142788Y1369283D01*
X1143761Y1367828D01*
X1145216Y1366855D01*
X1146933Y1366514D01*
X1148650Y1366855D01*
X1150105Y1367828D01*
X1151078Y1369283D01*
X1151289Y1370347D01*
X1151933Y1371514D01*
X1153650Y1371855D01*
X1153821Y1371970D01*
X1154941Y1371371D01*
Y1337248D01*
X1154828Y1337172D01*
X1153855Y1335717D01*
X1153514Y1334000D01*
X1153855Y1332283D01*
X1154828Y1330828D01*
X1156283Y1329855D01*
X1158000Y1329514D01*
X1158671Y1329647D01*
X1159941Y1328605D01*
Y1243044D01*
X1158768Y1242558D01*
X1140059Y1261267D01*
X1140059Y1382797D01*
X1140105Y1382828D01*
X1141078Y1384283D01*
X1141419Y1386000D01*
X1141078Y1387717D01*
X1140105Y1389172D01*
X1138650Y1390145D01*
X1137586Y1390356D01*
X1136750Y1390817D01*
X1136289Y1391653D01*
X1136078Y1392717D01*
X1135105Y1394172D01*
X1133650Y1395145D01*
X1131933Y1395486D01*
X1130216Y1395145D01*
X1128761Y1394172D01*
X1127788Y1392717D01*
X1127447Y1391000D01*
X1127788Y1389283D01*
X1128761Y1387828D01*
X1128941Y1387707D01*
Y1356395D01*
X1127671Y1355353D01*
X1127000Y1355486D01*
X1126329Y1355353D01*
X1125059Y1356395D01*
Y1434752D01*
X1125172Y1434828D01*
X1126145Y1436283D01*
X1126486Y1438000D01*
X1126145Y1439717D01*
X1125172Y1441172D01*
X1123717Y1442145D01*
X1122000Y1442486D01*
X1120283Y1442145D01*
X1118828Y1441172D01*
X1117855Y1439717D01*
X1117647Y1438672D01*
X1116353D01*
X1116145Y1439717D01*
X1115172Y1441172D01*
X1113717Y1442145D01*
X1112000Y1442486D01*
X1110283Y1442145D01*
X1108828Y1441172D01*
X1107855Y1439717D01*
X1107514Y1438000D01*
X1107855Y1436283D01*
X1108828Y1434828D01*
X1108941Y1434752D01*
Y1371395D01*
X1107671Y1370353D01*
X1107000Y1370486D01*
X1105283Y1370145D01*
X1103828Y1369172D01*
X1102855Y1367717D01*
X1102514Y1366000D01*
X1101347Y1365356D01*
X1100283Y1365145D01*
X1098828Y1364172D01*
X1097855Y1362717D01*
X1097514Y1361000D01*
X1097855Y1359283D01*
X1098828Y1357828D01*
X1098941Y1357752D01*
Y1351395D01*
X1097671Y1350353D01*
X1097000Y1350486D01*
X1095283Y1350145D01*
X1093828Y1349172D01*
X1092855Y1347717D01*
X1092644Y1346653D01*
X1092299Y1346028D01*
X1091079Y1345791D01*
X1090059Y1346631D01*
Y1508000D01*
X1090059Y1508000D01*
X1089826Y1509171D01*
X1089163Y1510163D01*
X1089163Y1510163D01*
X1088163Y1511163D01*
X1087170Y1511826D01*
X1086000Y1512059D01*
X1086000Y1512059D01*
X1055000D01*
X1055000Y1512059D01*
X1051181D01*
X1051105Y1512172D01*
X1049650Y1513145D01*
X1047933Y1513486D01*
X1046216Y1513145D01*
X1044761Y1512172D01*
X1043788Y1510717D01*
X1043447Y1509000D01*
X1043788Y1507283D01*
X1044761Y1505828D01*
X1046216Y1504855D01*
X1047933Y1504514D01*
X1049650Y1504855D01*
X1051105Y1505828D01*
X1051181Y1505941D01*
X1083941D01*
Y1477110D01*
X1082671Y1476491D01*
X1082171Y1476826D01*
X1081000Y1477059D01*
X1051248D01*
X1051172Y1477172D01*
X1049717Y1478145D01*
X1048000Y1478486D01*
X1046283Y1478145D01*
X1044828Y1477172D01*
X1043855Y1475717D01*
X1043514Y1474000D01*
X1043855Y1472283D01*
X1044828Y1470828D01*
X1046283Y1469855D01*
X1048000Y1469514D01*
X1049717Y1469855D01*
X1051172Y1470828D01*
X1051248Y1470941D01*
X1058598D01*
X1059160Y1469802D01*
X1058706Y1469211D01*
X1057865Y1467180D01*
X1057578Y1465000D01*
X1057865Y1462820D01*
X1058706Y1460789D01*
X1060045Y1459045D01*
X1061412Y1457996D01*
Y1438004D01*
X1060045Y1436955D01*
X1058706Y1435211D01*
X1057865Y1433180D01*
X1057578Y1431000D01*
X1057865Y1428820D01*
X1058706Y1426789D01*
X1060045Y1425045D01*
X1061789Y1423706D01*
X1063820Y1422865D01*
X1066000Y1422578D01*
X1068180Y1422865D01*
X1070211Y1423706D01*
X1071955Y1425045D01*
X1073294Y1426789D01*
X1074135Y1428820D01*
X1074422Y1431000D01*
X1074135Y1433180D01*
X1073294Y1435211D01*
X1071955Y1436955D01*
X1070588Y1438004D01*
Y1457996D01*
X1071955Y1459045D01*
X1073294Y1460789D01*
X1074135Y1462820D01*
X1074422Y1465000D01*
X1074135Y1467180D01*
X1073294Y1469211D01*
X1072840Y1469802D01*
X1073402Y1470941D01*
X1077941D01*
Y1441248D01*
X1077828Y1441172D01*
X1076855Y1439717D01*
X1076514Y1438000D01*
X1076855Y1436283D01*
X1077828Y1434828D01*
Y1434172D01*
X1076855Y1432717D01*
X1076514Y1431000D01*
X1076855Y1429283D01*
X1077828Y1427828D01*
X1077941Y1427752D01*
Y1329395D01*
X1076671Y1328353D01*
X1076000Y1328486D01*
X1074283Y1328145D01*
X1072828Y1327172D01*
X1071855Y1325717D01*
X1071514Y1324000D01*
X1071855Y1322283D01*
X1072828Y1320828D01*
X1072941Y1320752D01*
Y1274248D01*
X1072828Y1274172D01*
X1071855Y1272717D01*
X1071514Y1271000D01*
X1071855Y1269283D01*
X1072828Y1267828D01*
X1072941Y1267752D01*
Y1232461D01*
X1072016Y1231457D01*
X1070780Y1231515D01*
X1070273Y1232273D01*
X1070059Y1232416D01*
Y1310752D01*
X1070172Y1310828D01*
X1071145Y1312283D01*
X1071486Y1314000D01*
X1071145Y1315717D01*
X1070172Y1317172D01*
X1068717Y1318145D01*
X1067000Y1318486D01*
X1065283Y1318145D01*
X1063828Y1317172D01*
X1062855Y1315717D01*
X1062514Y1314000D01*
X1062855Y1312283D01*
X1063828Y1310828D01*
X1063941Y1310752D01*
Y1232416D01*
X1063727Y1232273D01*
X1062723Y1230771D01*
X1062371Y1229000D01*
X1062723Y1227229D01*
X1063727Y1225727D01*
X1065229Y1224723D01*
X1067000Y1224371D01*
X1068771Y1224723D01*
X1070273Y1225727D01*
X1070820Y1226546D01*
X1072340Y1226558D01*
X1072828Y1225828D01*
X1074283Y1224855D01*
X1076000Y1224514D01*
X1077717Y1224855D01*
X1079172Y1225828D01*
X1080145Y1227283D01*
X1080486Y1229000D01*
X1080145Y1230717D01*
X1079172Y1232172D01*
X1079059Y1232248D01*
Y1260605D01*
X1080329Y1261647D01*
X1081000Y1261514D01*
X1081652Y1261643D01*
X1082922Y1260601D01*
Y1230816D01*
X1082855Y1230717D01*
X1082514Y1229000D01*
X1082855Y1227283D01*
X1083828Y1225828D01*
X1085283Y1224855D01*
X1087000Y1224514D01*
X1088717Y1224855D01*
X1090172Y1225828D01*
X1091145Y1227283D01*
X1091486Y1229000D01*
X1091145Y1230717D01*
X1091078Y1230816D01*
Y1251937D01*
X1092252Y1252423D01*
X1100837Y1243837D01*
X1176325Y1168349D01*
X1175954Y1166925D01*
X1174828Y1166172D01*
X1173855Y1164717D01*
X1173514Y1163000D01*
X1173855Y1161283D01*
X1174828Y1159828D01*
X1176283Y1158855D01*
X1178000Y1158514D01*
X1178134Y1158540D01*
X1182501Y1154173D01*
X1182015Y1153000D01*
X1076588D01*
Y1189448D01*
X1077211Y1189706D01*
X1078955Y1191045D01*
X1080294Y1192789D01*
X1081135Y1194820D01*
X1081422Y1197000D01*
X1081135Y1199180D01*
X1080294Y1201211D01*
X1078955Y1202955D01*
X1077211Y1204294D01*
X1075180Y1205135D01*
X1073000Y1205422D01*
X1070820Y1205135D01*
X1068789Y1204294D01*
X1067045Y1202955D01*
X1065706Y1201211D01*
X1064865Y1199180D01*
X1064578Y1197000D01*
X1064865Y1194820D01*
X1065706Y1192789D01*
X1067045Y1191045D01*
X1067412Y1190763D01*
Y1153000D01*
X1056078D01*
Y1174184D01*
X1056145Y1174283D01*
X1056486Y1176000D01*
X1056145Y1177717D01*
X1055172Y1179172D01*
X1053717Y1180145D01*
X1052000Y1180486D01*
X1050283Y1180145D01*
X1048828Y1179172D01*
X1047855Y1177717D01*
X1047514Y1176000D01*
X1047855Y1174283D01*
X1047922Y1174184D01*
Y1153000D01*
X908059Y1153000D01*
Y1154752D01*
X908172Y1154828D01*
X909145Y1156283D01*
X909486Y1158000D01*
X909145Y1159717D01*
X908172Y1161172D01*
X906717Y1162145D01*
X905000Y1162486D01*
X903283Y1162145D01*
X901828Y1161172D01*
X900855Y1159717D01*
X900514Y1158000D01*
X900855Y1156283D01*
X901828Y1154828D01*
X901941Y1154752D01*
Y1153000D01*
X895059D01*
Y1207941D01*
X931000D01*
X931000Y1207941D01*
X932170Y1208174D01*
X933163Y1208837D01*
X958267Y1233941D01*
X966000D01*
X966000Y1233941D01*
X967170Y1234174D01*
X968163Y1234837D01*
X985163Y1251837D01*
X985163Y1251837D01*
X985826Y1252829D01*
X986059Y1254000D01*
Y1322752D01*
X986172Y1322828D01*
X987145Y1324283D01*
X987486Y1326000D01*
X987145Y1327717D01*
X986172Y1329172D01*
X984717Y1330145D01*
X983000Y1330486D01*
X981283Y1330145D01*
X979828Y1329172D01*
X979329Y1328425D01*
X978059Y1328811D01*
Y1332752D01*
X978172Y1332828D01*
X979145Y1334283D01*
X979486Y1336000D01*
X979145Y1337717D01*
X978172Y1339172D01*
X976717Y1340145D01*
X975000Y1340486D01*
X974329Y1340353D01*
X973059Y1341395D01*
Y1475000D01*
X972826Y1476171D01*
X972163Y1477163D01*
X951163Y1498163D01*
X950171Y1498826D01*
X949000Y1499059D01*
X949000Y1499059D01*
X768248D01*
X768172Y1499172D01*
X766717Y1500145D01*
X765000Y1500486D01*
X763283Y1500145D01*
X761828Y1499172D01*
X760855Y1497717D01*
X760514Y1496000D01*
X760855Y1494283D01*
X761828Y1492828D01*
X763283Y1491855D01*
X765000Y1491514D01*
X766717Y1491855D01*
X768172Y1492828D01*
X768248Y1492941D01*
X792521D01*
X792901Y1491671D01*
X792558Y1491442D01*
X792116Y1490780D01*
X791961Y1490000D01*
Y1458039D01*
X671000D01*
X670220Y1457884D01*
X669558Y1457442D01*
X669116Y1456780D01*
X668961Y1456000D01*
X668961Y1260039D01*
X645000D01*
X645000Y1720000D01*
X845922D01*
D02*
G37*
G36*
X966941Y1473733D02*
Y1470395D01*
X965671Y1469353D01*
X965000Y1469486D01*
X963283Y1469145D01*
X961828Y1468172D01*
X960855Y1466717D01*
X960514Y1465000D01*
X960855Y1463283D01*
X961828Y1461828D01*
X961941Y1461752D01*
Y1454395D01*
X960671Y1453353D01*
X960000Y1453486D01*
X958283Y1453145D01*
X956828Y1452172D01*
X955855Y1450717D01*
X955514Y1449000D01*
X955855Y1447283D01*
X956828Y1445828D01*
X956941Y1445752D01*
Y1351395D01*
X955671Y1350353D01*
X955000Y1350486D01*
X953283Y1350145D01*
X952858Y1349861D01*
X951588Y1350540D01*
Y1424996D01*
X952955Y1426045D01*
X954294Y1427789D01*
X955135Y1429820D01*
X955422Y1432000D01*
X955135Y1434180D01*
X954294Y1436211D01*
X952955Y1437955D01*
X951211Y1439294D01*
X949180Y1440135D01*
X947000Y1440422D01*
X944820Y1440135D01*
X942789Y1439294D01*
X941045Y1437955D01*
X939706Y1436211D01*
X938865Y1434180D01*
X938578Y1432000D01*
X938865Y1429820D01*
X939706Y1427789D01*
X941045Y1426045D01*
X942412Y1424996D01*
Y1346000D01*
X942545Y1345329D01*
X941503Y1344059D01*
X919267D01*
X900558Y1362768D01*
X901044Y1363941D01*
X928000D01*
X929171Y1364174D01*
X930163Y1364837D01*
X930826Y1365829D01*
X931059Y1367000D01*
Y1417752D01*
X931172Y1417828D01*
X932145Y1419283D01*
X932486Y1421000D01*
X932145Y1422717D01*
X931172Y1424172D01*
X929717Y1425145D01*
X928000Y1425486D01*
X926283Y1425145D01*
X924828Y1424172D01*
X923855Y1422717D01*
X923514Y1421000D01*
X923855Y1419283D01*
X924828Y1417828D01*
X924941Y1417752D01*
Y1411631D01*
X923921Y1410791D01*
X922701Y1411027D01*
X922356Y1411653D01*
X922145Y1412717D01*
X921172Y1414172D01*
X919717Y1415145D01*
X918653Y1415356D01*
X917486Y1416000D01*
X917145Y1417717D01*
X916172Y1419172D01*
X914717Y1420145D01*
X913000Y1420486D01*
X911283Y1420145D01*
X909828Y1419172D01*
X908855Y1417717D01*
X908514Y1416000D01*
X908855Y1414283D01*
X909828Y1412828D01*
X909941Y1412752D01*
Y1384059D01*
X903632D01*
X902792Y1385079D01*
X903027Y1386299D01*
X903653Y1386644D01*
X904717Y1386855D01*
X906172Y1387828D01*
X907145Y1389283D01*
X907486Y1391000D01*
X907145Y1392717D01*
X906172Y1394172D01*
X904717Y1395145D01*
X903000Y1395486D01*
X902032Y1395294D01*
X892163Y1405163D01*
X891171Y1405826D01*
X890000Y1406059D01*
X890000Y1406059D01*
X775000D01*
X773829Y1405826D01*
X772837Y1405163D01*
X772837Y1405163D01*
X727733Y1360059D01*
X721416D01*
X721273Y1360273D01*
X719771Y1361277D01*
X718000Y1361629D01*
X716229Y1361277D01*
X714727Y1360273D01*
X713723Y1358771D01*
X713371Y1357000D01*
X713723Y1355229D01*
X714727Y1353727D01*
X716229Y1352723D01*
X718000Y1352371D01*
X719771Y1352723D01*
X721273Y1353727D01*
X721416Y1353941D01*
X729000D01*
X729000Y1353941D01*
X730171Y1354174D01*
X731163Y1354837D01*
X747532Y1371206D01*
X748975Y1370853D01*
X749727Y1369727D01*
X751229Y1368723D01*
X751540Y1368661D01*
X751958Y1367283D01*
X743837Y1359163D01*
X743174Y1358170D01*
X742941Y1357000D01*
X742941Y1357000D01*
Y1350416D01*
X742727Y1350273D01*
X741723Y1348771D01*
X741371Y1347000D01*
X741723Y1345229D01*
X742727Y1343727D01*
X744229Y1342723D01*
X746000Y1342371D01*
X747771Y1342723D01*
X749273Y1343727D01*
X750277Y1345229D01*
X750556Y1346634D01*
X751826Y1346509D01*
Y1329304D01*
X750872Y1328455D01*
X750000Y1328629D01*
X748229Y1328277D01*
X746727Y1327273D01*
X745723Y1325771D01*
X745371Y1324000D01*
X745723Y1322229D01*
X746727Y1320727D01*
X748229Y1319723D01*
X750000Y1319371D01*
X750521Y1319475D01*
X751419Y1318577D01*
X751304Y1318000D01*
X751656Y1316229D01*
X752660Y1314727D01*
X754162Y1313723D01*
X755933Y1313371D01*
X757704Y1313723D01*
X759206Y1314727D01*
X759703Y1315470D01*
X761230D01*
X761727Y1314727D01*
X763229Y1313723D01*
X765000Y1313371D01*
X766771Y1313723D01*
X768273Y1314727D01*
X769277Y1316229D01*
X769629Y1318000D01*
X769277Y1319771D01*
X768273Y1321273D01*
X768059Y1321416D01*
Y1356733D01*
X784476Y1373150D01*
X785934Y1372812D01*
X786660Y1371727D01*
X788161Y1370723D01*
X789933Y1370371D01*
X791704Y1370723D01*
X791891Y1370848D01*
X792656Y1371229D01*
X793660Y1369727D01*
X795162Y1368723D01*
X796933Y1368371D01*
X798704Y1368723D01*
X800206Y1369727D01*
X801209Y1371229D01*
X801351Y1371941D01*
X861733D01*
X874442Y1359232D01*
X873956Y1358059D01*
X859416D01*
X859273Y1358273D01*
X857771Y1359277D01*
X856000Y1359629D01*
X854229Y1359277D01*
X852727Y1358273D01*
X851723Y1356771D01*
X851371Y1355000D01*
X851723Y1353229D01*
X852727Y1351727D01*
X853323Y1351329D01*
X853030Y1350177D01*
X852952Y1350049D01*
X851830Y1349826D01*
X850837Y1349163D01*
X850837Y1349163D01*
X843935Y1342260D01*
X843935Y1342260D01*
X833837Y1332163D01*
X833837Y1332163D01*
X833174Y1331171D01*
X832941Y1330000D01*
X832941Y1330000D01*
Y1321416D01*
X832727Y1321273D01*
X831723Y1319771D01*
X831371Y1318000D01*
X831723Y1316229D01*
X832727Y1314727D01*
X834229Y1313723D01*
X836000Y1313371D01*
X837305Y1313631D01*
X838499Y1312877D01*
X838590Y1311983D01*
X834666Y1308059D01*
X813349D01*
X813206Y1308273D01*
X811704Y1309277D01*
X809933Y1309629D01*
X808161Y1309277D01*
X806660Y1308273D01*
X805656Y1306771D01*
X805304Y1305000D01*
X805656Y1303229D01*
X806660Y1301727D01*
Y1301273D01*
X805656Y1299771D01*
X805304Y1298000D01*
X805598Y1296524D01*
X804543Y1295782D01*
X791163Y1309163D01*
X790171Y1309826D01*
X789000Y1310059D01*
X789000Y1310059D01*
X741267D01*
X704163Y1347163D01*
X703170Y1347826D01*
X702000Y1348059D01*
X702000Y1348059D01*
X696416D01*
X696273Y1348273D01*
X694771Y1349277D01*
X693000Y1349629D01*
X691229Y1349277D01*
X689727Y1348273D01*
X688723Y1346771D01*
X688371Y1345000D01*
X688723Y1343229D01*
X689727Y1341727D01*
X691229Y1340723D01*
X691610Y1340647D01*
Y1339353D01*
X691229Y1339277D01*
X689727Y1338273D01*
X688723Y1336771D01*
X688371Y1335000D01*
X688723Y1333229D01*
X689727Y1331727D01*
X691229Y1330723D01*
X693000Y1330371D01*
X694771Y1330723D01*
X696273Y1331727D01*
X696416Y1331941D01*
X698733D01*
X724811Y1305863D01*
X724374Y1304504D01*
X723229Y1304277D01*
X721727Y1303273D01*
X721584Y1303059D01*
X714000D01*
X712830Y1302826D01*
X711837Y1302163D01*
X711163D01*
X710171Y1302826D01*
X709000Y1303059D01*
X701416D01*
X701273Y1303273D01*
X699771Y1304277D01*
X698000Y1304629D01*
X696229Y1304277D01*
X694727Y1303273D01*
X693723Y1301771D01*
X693371Y1300000D01*
X693723Y1298229D01*
X694727Y1296727D01*
X696229Y1295723D01*
X698000Y1295371D01*
X699771Y1295723D01*
X701273Y1296727D01*
X701416Y1296941D01*
X705941D01*
Y1258000D01*
X705941Y1258000D01*
X706174Y1256830D01*
X706837Y1255837D01*
X757837Y1204837D01*
X757837Y1204837D01*
X758829Y1204174D01*
X760000Y1203941D01*
X760000Y1203941D01*
X852646D01*
X853325Y1202671D01*
X852723Y1201771D01*
X852371Y1200000D01*
X852723Y1198229D01*
X853727Y1196727D01*
X853941Y1196584D01*
Y1191133D01*
X852671Y1190507D01*
X851717Y1191145D01*
X850000Y1191486D01*
X848283Y1191145D01*
X846828Y1190172D01*
X845855Y1188717D01*
X845514Y1187000D01*
X845855Y1185283D01*
X846828Y1183828D01*
X846941Y1183752D01*
Y1153000D01*
X759078Y1153000D01*
Y1155932D01*
X759277Y1156229D01*
X759629Y1158000D01*
X759277Y1159771D01*
X758273Y1161273D01*
X756771Y1162277D01*
X755000Y1162629D01*
X753229Y1162277D01*
X751727Y1161273D01*
X750723Y1159771D01*
X750371Y1158000D01*
X750723Y1156229D01*
X750922Y1155932D01*
Y1153000D01*
X645000D01*
Y1252961D01*
X668961D01*
X668961Y1188000D01*
X669116Y1187220D01*
X669558Y1186558D01*
X670220Y1186116D01*
X671000Y1185961D01*
X675000Y1185961D01*
X675000Y1185961D01*
X777154Y1185961D01*
X778789Y1184706D01*
X780820Y1183865D01*
X783000Y1183578D01*
X785180Y1183865D01*
X787211Y1184706D01*
X788846Y1185961D01*
X791154D01*
X792789Y1184706D01*
X794820Y1183865D01*
X797000Y1183578D01*
X799180Y1183865D01*
X801211Y1184706D01*
X802955Y1186045D01*
X804294Y1187789D01*
X805135Y1189820D01*
X805422Y1192000D01*
X805135Y1194180D01*
X804294Y1196211D01*
X802955Y1197955D01*
X801211Y1199294D01*
X799180Y1200135D01*
X797000Y1200422D01*
X794820Y1200135D01*
X792789Y1199294D01*
X791154Y1198039D01*
X788846D01*
X787211Y1199294D01*
X785180Y1200135D01*
X783000Y1200422D01*
X780820Y1200135D01*
X778789Y1199294D01*
X777154Y1198039D01*
X681040Y1198039D01*
X681039Y1432961D01*
X818000D01*
X818780Y1433116D01*
X819442Y1433558D01*
X819884Y1434220D01*
X820039Y1435000D01*
Y1456000D01*
Y1490000D01*
X819884Y1490780D01*
X819442Y1491442D01*
X819099Y1491671D01*
X819479Y1492941D01*
X947733D01*
X966941Y1473733D01*
D02*
G37*
G36*
X971941Y1293278D02*
Y1285267D01*
X964766Y1278092D01*
X940966D01*
X939796Y1277859D01*
X938804Y1277196D01*
X938804Y1277196D01*
X919666Y1258059D01*
X886000D01*
X886000Y1258059D01*
X886000Y1258059D01*
X808267D01*
X793992Y1272334D01*
Y1283886D01*
X795262Y1284413D01*
X810874Y1268800D01*
Y1267416D01*
X810660Y1267273D01*
X809656Y1265771D01*
X809304Y1264000D01*
X809656Y1262229D01*
X810660Y1260727D01*
X812161Y1259723D01*
X813933Y1259371D01*
X815704Y1259723D01*
X817206Y1260727D01*
X818210Y1262229D01*
X818562Y1264000D01*
X818210Y1265771D01*
X817206Y1267273D01*
X816992Y1267416D01*
Y1270067D01*
X816992Y1270067D01*
X816872Y1270671D01*
X817700Y1271941D01*
X832470D01*
X833371Y1271000D01*
X833723Y1269229D01*
X834727Y1267727D01*
X836229Y1266723D01*
X838000Y1266371D01*
X839771Y1266723D01*
X841273Y1267727D01*
X841570Y1268172D01*
X842727Y1268727D01*
X843159Y1268438D01*
X844229Y1267723D01*
X846000Y1267371D01*
X847771Y1267723D01*
X849273Y1268727D01*
X849416Y1268941D01*
X891000D01*
X891000Y1268941D01*
X892170Y1269174D01*
X893163Y1269837D01*
X904747Y1281421D01*
X905000Y1281371D01*
X906771Y1281723D01*
X908273Y1282727D01*
X909277Y1284229D01*
X909629Y1286000D01*
X909277Y1287771D01*
X908273Y1289273D01*
X906771Y1290277D01*
X905000Y1290629D01*
X903229Y1290277D01*
X901727Y1289273D01*
X900723Y1287771D01*
X900371Y1286000D01*
X900421Y1285747D01*
X889733Y1275059D01*
X849416D01*
X849273Y1275273D01*
X847771Y1276277D01*
X846000Y1276629D01*
X844229Y1276277D01*
X842883Y1275377D01*
X842053Y1275515D01*
X841813Y1275601D01*
X841598Y1276214D01*
X842277Y1277229D01*
X842629Y1279000D01*
X842277Y1280771D01*
X841273Y1282273D01*
X841739Y1283441D01*
X842199Y1283941D01*
X888000D01*
X888000Y1283941D01*
X889171Y1284174D01*
X890163Y1284837D01*
X899267Y1293941D01*
X970000D01*
X970671Y1294075D01*
X971941Y1293278D01*
D02*
G37*
G36*
X888941Y1211000D02*
Y1196133D01*
X887671Y1195507D01*
X886717Y1196145D01*
X885000Y1196486D01*
X883283Y1196145D01*
X881828Y1195172D01*
X880855Y1193717D01*
X880514Y1192000D01*
X880855Y1190283D01*
X881828Y1188828D01*
X881941Y1188752D01*
Y1153000D01*
X874059D01*
Y1211000D01*
X874831Y1211941D01*
X888169D01*
X888941Y1211000D01*
D02*
G37*
G36*
X679000Y1196000D02*
X799000Y1196000D01*
Y1188000D01*
X675000Y1188000D01*
Y1188000D01*
X671000Y1188000D01*
X671000Y1456000D01*
X679000D01*
X679000Y1196000D01*
D02*
G37*
G36*
X1920000Y1180000D02*
X1895000D01*
X1835000Y1240000D01*
X1920000D01*
Y1180000D01*
D02*
G37*
%LPC*%
G36*
X1245000Y1570486D02*
X1243283Y1570145D01*
X1241828Y1569172D01*
X1240687Y1569452D01*
X1239650Y1570145D01*
X1237933Y1570486D01*
X1236216Y1570145D01*
X1234761Y1569172D01*
X1234105D01*
X1232650Y1570145D01*
X1230933Y1570486D01*
X1229216Y1570145D01*
X1227761Y1569172D01*
X1226788Y1567717D01*
X1226447Y1566000D01*
X1226788Y1564283D01*
X1227761Y1562828D01*
X1229216Y1561855D01*
X1229885Y1561722D01*
X1229941Y1561666D01*
Y1541361D01*
X1229287Y1540835D01*
X1227720Y1541046D01*
X1227332Y1541563D01*
X1227419Y1542000D01*
X1227078Y1543717D01*
X1226105Y1545172D01*
X1224650Y1546145D01*
X1222933Y1546486D01*
X1221216Y1546145D01*
X1219761Y1545172D01*
X1219700Y1545081D01*
X1218173D01*
X1218163Y1545096D01*
X1218143Y1545116D01*
X1218105Y1545172D01*
X1216650Y1546145D01*
X1214933Y1546486D01*
X1213216Y1546145D01*
X1211761Y1545172D01*
X1210788Y1543717D01*
X1210647Y1543006D01*
X1209654Y1542148D01*
X1209293Y1542216D01*
X1207933Y1542486D01*
X1206216Y1542145D01*
X1204761Y1541172D01*
X1203788Y1539717D01*
X1203447Y1538000D01*
X1203788Y1536283D01*
X1204761Y1534828D01*
X1206216Y1533855D01*
X1206941Y1533711D01*
Y1491248D01*
X1206828Y1491172D01*
X1205855Y1489717D01*
X1205514Y1488000D01*
X1205855Y1486283D01*
X1206828Y1484828D01*
X1208283Y1483855D01*
X1210000Y1483514D01*
X1211671Y1483846D01*
X1211898Y1483873D01*
X1212941Y1483192D01*
Y1264248D01*
X1212828Y1264172D01*
X1211855Y1262717D01*
X1211514Y1261000D01*
X1211855Y1259283D01*
X1212828Y1257828D01*
X1214283Y1256855D01*
X1216000Y1256514D01*
X1216671Y1256647D01*
X1217941Y1255605D01*
Y1254248D01*
X1217828Y1254172D01*
X1216855Y1252717D01*
X1216514Y1251000D01*
X1216855Y1249283D01*
X1217828Y1247828D01*
X1219283Y1246855D01*
X1220347Y1246644D01*
X1221183Y1246183D01*
X1221644Y1245347D01*
X1221855Y1244283D01*
X1222828Y1242828D01*
X1224283Y1241855D01*
X1226000Y1241514D01*
X1227717Y1241855D01*
X1229172Y1242828D01*
X1230145Y1244283D01*
X1230486Y1246000D01*
X1230145Y1247717D01*
X1229172Y1249172D01*
X1229059Y1249248D01*
Y1301387D01*
X1229196Y1301441D01*
X1230329Y1301598D01*
X1230837Y1300837D01*
X1231830Y1300174D01*
X1233000Y1299941D01*
X1234171Y1300174D01*
X1235163Y1300837D01*
X1235837D01*
X1235837Y1300837D01*
X1236830Y1300174D01*
X1238000Y1299941D01*
X1239171Y1300174D01*
X1240163Y1300837D01*
X1240826Y1301829D01*
X1241059Y1303000D01*
Y1347605D01*
X1242329Y1348647D01*
X1243000Y1348514D01*
X1244717Y1348855D01*
X1246172Y1349828D01*
X1247145Y1351283D01*
X1247486Y1353000D01*
X1247145Y1354717D01*
X1246172Y1356172D01*
X1246059Y1356248D01*
Y1561724D01*
X1246717Y1561855D01*
X1248172Y1562828D01*
X1249145Y1564283D01*
X1249486Y1566000D01*
X1249145Y1567717D01*
X1248172Y1569172D01*
X1246717Y1570145D01*
X1245000Y1570486D01*
D02*
G37*
G36*
X1017000Y1580486D02*
X1015283Y1580145D01*
X1013828Y1579172D01*
X1012855Y1577717D01*
X1012514Y1576000D01*
X1012855Y1574283D01*
X1013828Y1572828D01*
X1013941Y1572752D01*
Y1522337D01*
X1013874Y1522000D01*
X1014107Y1520829D01*
X1014770Y1519837D01*
X1032473Y1502134D01*
X1032447Y1502000D01*
X1032788Y1500283D01*
X1033761Y1498828D01*
X1035216Y1497855D01*
X1036933Y1497514D01*
X1038650Y1497855D01*
X1040105Y1498828D01*
X1041078Y1500283D01*
X1041419Y1502000D01*
X1041078Y1503717D01*
X1040105Y1505172D01*
X1038650Y1506145D01*
X1036933Y1506486D01*
X1036799Y1506460D01*
X1020059Y1523200D01*
Y1572752D01*
X1020172Y1572828D01*
X1021145Y1574283D01*
X1021486Y1576000D01*
X1021145Y1577717D01*
X1020172Y1579172D01*
X1018717Y1580145D01*
X1017000Y1580486D01*
D02*
G37*
G36*
X1264000Y1521486D02*
X1262283Y1521145D01*
X1260828Y1520172D01*
X1259855Y1518717D01*
X1259514Y1517000D01*
X1259855Y1515283D01*
X1260828Y1513828D01*
X1260941Y1513752D01*
Y1491811D01*
X1259671Y1491425D01*
X1259172Y1492172D01*
X1257717Y1493145D01*
X1256000Y1493486D01*
X1254283Y1493145D01*
X1252828Y1492172D01*
X1251855Y1490717D01*
X1251514Y1489000D01*
X1251855Y1487283D01*
X1252828Y1485828D01*
X1252941Y1485752D01*
Y1441248D01*
X1252828Y1441172D01*
X1251855Y1439717D01*
X1251514Y1438000D01*
X1251855Y1436283D01*
X1252828Y1434828D01*
X1254283Y1433855D01*
X1256000Y1433514D01*
X1257717Y1433855D01*
X1259172Y1434828D01*
X1259671Y1435575D01*
X1260941Y1435189D01*
Y1322248D01*
X1260828Y1322172D01*
X1259855Y1320717D01*
X1259514Y1319000D01*
X1259855Y1317283D01*
X1260828Y1315828D01*
X1262283Y1314855D01*
X1264000Y1314514D01*
X1265717Y1314855D01*
X1267172Y1315828D01*
X1268145Y1317283D01*
X1268486Y1319000D01*
X1268145Y1320717D01*
X1267172Y1322172D01*
X1267059Y1322248D01*
Y1513752D01*
X1267172Y1513828D01*
X1268145Y1515283D01*
X1268486Y1517000D01*
X1268145Y1518717D01*
X1267172Y1520172D01*
X1265717Y1521145D01*
X1264000Y1521486D01*
D02*
G37*
G36*
X1015000Y1467486D02*
X1013283Y1467145D01*
X1011828Y1466172D01*
X1010855Y1464717D01*
X1010514Y1463000D01*
X1010855Y1461283D01*
X1011828Y1459828D01*
X1013283Y1458855D01*
X1015000Y1458514D01*
X1016717Y1458855D01*
X1018172Y1459828D01*
X1018248Y1459941D01*
X1043894D01*
X1043894Y1295000D01*
X1044049Y1294220D01*
X1044491Y1293558D01*
X1045153Y1293116D01*
X1045933Y1292961D01*
X1051933Y1292961D01*
X1052713Y1293116D01*
X1053375Y1293558D01*
X1053817Y1294220D01*
X1053972Y1295000D01*
X1053972Y1464000D01*
X1053817Y1464780D01*
X1053375Y1465442D01*
X1052713Y1465884D01*
X1051933Y1466039D01*
X1049032D01*
X1048933Y1466059D01*
X1048933Y1466059D01*
X1018248D01*
X1018172Y1466172D01*
X1016717Y1467145D01*
X1015000Y1467486D01*
D02*
G37*
%LPD*%
G36*
X1051933Y1464000D02*
X1051933Y1295000D01*
X1045933Y1295000D01*
X1045933Y1464000D01*
X1051933Y1464000D01*
D02*
G37*
D11*
X878000Y1175000D02*
Y1204000D01*
Y1167000D02*
Y1175000D01*
Y1001000D02*
Y1167000D01*
X1016933Y1522000D02*
X1036933Y1502000D01*
X1016933Y1522000D02*
X1017000D01*
Y1576000D01*
X966000Y1237000D02*
X983000Y1254000D01*
Y1326000D01*
X1055000Y880500D02*
Y905500D01*
X836000Y1318933D02*
X836467Y1318466D01*
X837467Y1317466D01*
X966033Y1275033D02*
X975000Y1284000D01*
Y1336000D01*
X898000Y1297000D02*
X970000D01*
Y1314000D01*
X971000Y1313000D01*
X970000Y1314000D02*
Y1475000D01*
X949000Y1496000D02*
X970000Y1475000D01*
X957000Y1326000D02*
X965000D01*
X957000Y1237000D02*
X966000D01*
X895000Y1306000D02*
X947000D01*
X887000Y1298000D02*
X895000Y1306000D01*
X857000Y1356000D02*
X858000Y1355000D01*
X960000Y1331000D02*
Y1449000D01*
X1215933Y1543000D02*
X1216000Y1542933D01*
Y1261000D02*
Y1542933D01*
X967000Y1266000D02*
X972000Y1261000D01*
X943933Y1266000D02*
X967000D01*
X942933Y1271000D02*
X975000D01*
X937933Y1266000D02*
X942933Y1271000D01*
X1081467Y1430533D02*
X1081467Y1430533D01*
X1081000Y1430067D02*
X1081467Y1430533D01*
X951000Y1261000D02*
X965000D01*
X962000Y1241000D02*
X976000Y1255000D01*
X955000Y1241000D02*
X962000D01*
X953000Y1251000D02*
X965000D01*
X953933Y1246000D02*
X960000D01*
X1267500Y1561500D02*
Y1563000D01*
X1273067Y1523000D02*
X1274000Y1523933D01*
X1359000Y1136000D02*
X1359000Y1136000D01*
X551000Y1488000D02*
Y1500000D01*
Y1558000D02*
Y1571000D01*
X572200Y1323200D02*
X609170D01*
X570570Y1236700D02*
X603700D01*
X952000Y1256000D02*
X960000D01*
X1112000Y1277000D02*
X1113000Y1278000D01*
X1112000Y1436933D02*
X1113000Y1437933D01*
X1121547Y1438000D02*
X1122000Y1437547D01*
X888000Y1287000D02*
X898000Y1297000D01*
X1049000Y1298000D02*
Y1462933D01*
X1048933Y1463000D02*
X1049000Y1462933D01*
X893866Y1241000D02*
X893933Y1240933D01*
X1047000Y1509000D02*
X1055000D01*
X1096000Y1345000D02*
X1097000Y1344000D01*
X950000Y1341000D02*
X955000Y1346000D01*
X918000Y1341000D02*
X950000D01*
X1091000Y1340000D02*
X1092000Y1339000D01*
X916000Y1336000D02*
X955000D01*
X893000Y1359000D02*
X916000Y1336000D01*
X914000Y1331000D02*
X960000D01*
X1067000Y1229000D02*
Y1314000D01*
Y1314000D01*
X1066000Y1315000D02*
X1067000Y1314000D01*
X1825000Y881500D02*
Y905500D01*
X995000Y880500D02*
Y904500D01*
X765000Y1496000D02*
X949000D01*
X565000Y1418000D02*
X575000D01*
X551000D02*
Y1428000D01*
X565000Y1488000D02*
X576000D01*
X565000Y1558000D02*
X575000D01*
X582000Y1256500D02*
Y1304000D01*
Y1256500D02*
X613000D01*
X1015000Y1463000D02*
X1048933D01*
X1061000Y1661000D02*
X1384000D01*
X1185500Y1147500D02*
X1200000Y1133000D01*
X768000Y1241000D02*
X893866D01*
X768000Y1236000D02*
Y1241000D01*
X781933Y1268067D02*
X803000Y1247000D01*
X889000Y1251000D02*
X889000Y1251000D01*
X805000Y1251000D02*
X889000D01*
X786933Y1269067D02*
X805000Y1251000D01*
X886000Y1255000D02*
X886000Y1255000D01*
X807000Y1255000D02*
X886000D01*
X790933Y1271067D02*
X807000Y1255000D01*
X838000Y1287000D02*
X888000D01*
X834000Y1275000D02*
X838000Y1271000D01*
X815000Y1275000D02*
X834000D01*
X803000Y1287000D02*
X815000Y1275000D01*
X817000Y1279000D02*
X838000D01*
X746000Y1347000D02*
Y1357000D01*
X784000Y1395000D01*
X842000Y1361000D02*
X868000D01*
X835000Y1354000D02*
X842000Y1361000D01*
X591000Y1268000D02*
Y1292500D01*
X612970Y1282500D02*
X627000D01*
Y1282000D02*
Y1282500D01*
Y1276000D02*
Y1282000D01*
X626933Y1275933D02*
X627000Y1276000D01*
X1132000Y1348000D02*
Y1391000D01*
X1132000D02*
Y1391000D01*
X718000Y1357000D02*
X729000D01*
X744000Y1311000D02*
X771000D01*
X727000Y1328000D02*
X744000Y1311000D01*
X740000Y1307000D02*
X789000D01*
X702000Y1345000D02*
X740000Y1307000D01*
X693000Y1345000D02*
X702000D01*
X692000D02*
X693000D01*
X713000Y1328000D02*
X715500Y1325500D01*
X701000Y1340000D02*
X713000Y1328000D01*
X698000Y1340000D02*
X701000D01*
X700000Y1335000D02*
X736000Y1299000D01*
X693000Y1335000D02*
X700000D01*
X603700Y1236700D02*
X604000Y1237000D01*
X572000Y1323000D02*
X572200Y1323200D01*
X612970Y1237030D02*
X613000Y1237000D01*
X612970Y1237030D02*
Y1249000D01*
X612000Y1319000D02*
X612970Y1318030D01*
Y1311000D02*
Y1318030D01*
X789000Y1307000D02*
X817000Y1279000D01*
X803000Y1287000D02*
X803000D01*
X736000Y1299000D02*
X785000D01*
X738000Y1303000D02*
X787000D01*
X713000Y1328000D02*
X738000Y1303000D01*
X788000Y1328000D02*
Y1334000D01*
X771000Y1311000D02*
X788000Y1328000D01*
X750000Y1324000D02*
X750933D01*
X754885Y1327952D01*
X785000Y1299000D02*
X813933Y1270067D01*
Y1264000D02*
Y1270067D01*
X787000Y1303000D02*
X803000Y1287000D01*
Y1302000D02*
Y1318000D01*
X1264000Y1319000D02*
Y1517000D01*
X1087000Y1319000D02*
Y1508000D01*
X1158000Y1334000D02*
Y1500000D01*
X1076000Y1271000D02*
Y1324000D01*
X1243000Y1353000D02*
Y1563000D01*
X1245000Y1565000D01*
X885000Y1367000D02*
X928000D01*
Y1421000D01*
X923000Y1372000D02*
Y1405000D01*
X887000Y1372000D02*
X923000D01*
X1098000Y1509000D02*
X1099000Y1508000D01*
X1136933Y1413000D02*
Y1482000D01*
X918000Y1376000D02*
Y1411000D01*
X890000Y1376000D02*
X918000D01*
X875000Y1391000D02*
X890000Y1376000D01*
X872000Y1387000D02*
X887000Y1372000D01*
X1188000Y1245000D02*
X1266000Y1167000D01*
X1188000Y1245000D02*
Y1424000D01*
X913000Y1381000D02*
Y1416000D01*
Y1381000D02*
Y1381000D01*
X931000Y1211000D02*
X957000Y1237000D01*
X929000Y1215000D02*
X955000Y1241000D01*
X766000Y1215000D02*
X929000D01*
X892000Y1211000D02*
X931000D01*
X892000Y1001000D02*
Y1211000D01*
X1048000Y1474000D02*
X1081000D01*
X957000Y1326000D02*
X957000Y1326000D01*
X920933Y1255000D02*
X940966Y1275033D01*
X966033D01*
X754000Y1234000D02*
Y1236000D01*
X775000Y1403000D02*
X890000D01*
X902000Y1391000D01*
X903000D01*
X1137000Y1386000D02*
Y1386000D01*
X1137000Y1386000D02*
Y1386000D01*
Y1260000D02*
X1137000Y1386000D01*
X753500Y1372500D02*
Y1373500D01*
X897000Y1386000D02*
X898000D01*
X884000Y1399000D02*
X897000Y1386000D01*
X779000Y1399000D02*
X884000D01*
X895000Y1381000D02*
X913000D01*
X1221000Y1539067D02*
X1223933Y1542000D01*
X1221000Y1251000D02*
Y1539067D01*
X1086000Y1509000D02*
X1087000Y1508000D01*
X1092000Y1257000D02*
X1092000Y1339000D01*
X1092000Y1257000D02*
X1103000Y1246000D01*
X1097000Y1258000D02*
Y1344000D01*
Y1258000D02*
X1107000Y1248000D01*
X1102000Y1259000D02*
Y1361000D01*
Y1259000D02*
X1147500Y1213500D01*
X1107000Y1260000D02*
Y1366000D01*
Y1260000D02*
X1149500Y1217500D01*
X1055000Y1509000D02*
X1086000D01*
X1103000Y1246000D02*
X1210000Y1139000D01*
X1102000Y1247000D02*
X1103000Y1246000D01*
X1076000Y1229000D02*
Y1271000D01*
X1081000Y1266000D02*
Y1430067D01*
X942933Y1265000D02*
X943933Y1266000D01*
X950940Y1261000D02*
X951000D01*
X921000Y1231000D02*
X951000Y1261000D01*
X787000Y1231000D02*
X921000D01*
X951966Y1256033D02*
X952000Y1256000D01*
X922933Y1227000D02*
X951966Y1256033D01*
X924933Y1223000D02*
X953000Y1251067D01*
Y1251000D02*
Y1251067D01*
X926933Y1219000D02*
X953933Y1246000D01*
X1226000D02*
Y1534067D01*
X1227933Y1536000D01*
X965000Y1336000D02*
Y1465000D01*
X1201000Y914000D02*
X1250000Y963000D01*
X1194000Y914000D02*
X1201000D01*
X1185000Y905000D02*
X1194000Y914000D01*
X1200000Y919000D02*
X1246000Y965000D01*
X1189000Y919000D02*
X1200000D01*
X1175000Y905000D02*
X1189000Y919000D01*
X1199000Y924000D02*
X1242000Y967000D01*
X1184000Y924000D02*
X1199000D01*
X1165000Y905000D02*
X1184000Y924000D01*
X1198000Y929000D02*
X1238000Y969000D01*
X1179000Y929000D02*
X1198000D01*
X1155000Y905000D02*
X1179000Y929000D01*
X1197000Y934000D02*
X1234000Y971000D01*
X1174000Y934000D02*
X1197000D01*
X1145000Y905000D02*
X1174000Y934000D01*
X1196000Y939000D02*
X1230000Y973000D01*
X1169000Y939000D02*
X1196000D01*
X1135000Y905000D02*
X1169000Y939000D01*
X1195000Y944000D02*
X1226000Y975000D01*
X1164000Y944000D02*
X1195000D01*
X1125000Y905000D02*
X1164000Y944000D01*
X1119000Y949000D02*
X1194000D01*
X1095000Y925000D02*
X1119000Y949000D01*
X1095000Y905000D02*
Y925000D01*
X1110000Y954000D02*
X1193000D01*
X1085000Y929000D02*
X1110000Y954000D01*
X1085000Y905000D02*
Y929000D01*
X1101000Y959000D02*
X1192000D01*
X1075000Y933000D02*
X1101000Y959000D01*
X1075000Y905000D02*
Y933000D01*
X1194000Y949000D02*
X1222000Y977000D01*
X1193000Y954000D02*
X1218000Y979000D01*
X1192000Y959000D02*
X1214000Y981000D01*
X1092000Y964000D02*
X1191000D01*
X1065000Y937000D02*
X1092000Y964000D01*
X1065000Y905000D02*
Y937000D01*
X1191000Y964000D02*
X1210000Y983000D01*
X1825000Y905500D02*
Y949000D01*
X1803000Y971000D02*
X1825000Y949000D01*
X1622000Y971000D02*
X1803000D01*
X1229933Y1566000D02*
X1233000Y1562933D01*
X1229933Y1566000D02*
Y1566000D01*
X1267500Y1561500D02*
X1279000Y1550000D01*
Y1523000D02*
Y1550000D01*
X1615000Y978000D02*
X1622000Y971000D01*
X1615000Y978000D02*
Y1129000D01*
X1403958Y1125000D02*
Y1182000D01*
X1611000Y976000D02*
Y1125000D01*
Y976000D02*
X1620000Y967000D01*
X1794000D01*
X1815000Y946000D01*
Y905500D02*
Y946000D01*
X1409000Y1129000D02*
X1615000D01*
X850000Y1000000D02*
Y1187000D01*
X857000Y1182000D02*
Y1200000D01*
Y1000000D02*
Y1182000D01*
X1409000Y1129000D02*
Y1187000D01*
X1403958Y1125000D02*
X1611000D01*
X1384000Y1661000D02*
X1384000Y1661000D01*
X1389000Y1158000D02*
Y1665000D01*
X1055000D02*
X1389000D01*
X1040000Y1669000D02*
X1394000D01*
Y1163000D02*
Y1669000D01*
X1756000Y1169000D02*
X1772000Y1153000D01*
X1459000Y1169000D02*
X1756000D01*
X1459000Y1663000D02*
X1459000Y1169000D01*
X1749000Y1165000D02*
X1766000Y1148000D01*
X1454000Y1165000D02*
X1749000D01*
X1454000Y1657000D02*
X1454000Y1165000D01*
X1742000Y1161000D02*
X1759000Y1144000D01*
X1449000Y1161000D02*
X1742000D01*
X1449000Y1663000D02*
X1449000Y1161000D01*
X1735000Y1157000D02*
X1752500Y1139500D01*
X1444000Y1157000D02*
X1735000D01*
X1444000Y1657000D02*
X1444000Y1157000D01*
X1728000Y1153000D02*
X1746500Y1134500D01*
X1439000Y1153000D02*
X1728000D01*
X1439000Y1663000D02*
X1439000Y1153000D01*
X1721000Y1149000D02*
X1742000Y1128000D01*
X1434000Y1149000D02*
X1721000D01*
X1434000Y1657000D02*
X1434000Y1149000D01*
X1713000Y1145000D02*
X1735000Y1123000D01*
X1429000Y1145000D02*
X1713000D01*
X1429000Y1663000D02*
X1429000Y1145000D01*
X1708000Y1141000D02*
X1730000Y1119000D01*
X1424000Y1141000D02*
X1708000D01*
X1424000Y1657000D02*
X1424000Y1141000D01*
X1703000Y1137000D02*
X1714000Y1126000D01*
X1419000Y1137000D02*
X1703000D01*
X1419000Y1663000D02*
X1419000Y1137000D01*
X1696000Y1133000D02*
X1709000Y1120000D01*
X1414000Y1133000D02*
X1696000D01*
X1414000Y1657000D02*
X1414000Y1133000D01*
Y1666000D02*
Y1677000D01*
X1025933D02*
X1414000D01*
Y1657000D02*
Y1666000D01*
X1414000Y1657000D02*
X1414000Y1657000D01*
X1419000Y1672000D02*
Y1681000D01*
X1019000D02*
X1419000D01*
Y1663000D02*
Y1672000D01*
X1419000Y1663000D02*
X1419000Y1663000D01*
X1424000Y1666000D02*
Y1685000D01*
X1011933D02*
X1424000D01*
Y1657000D02*
Y1666000D01*
X1424000Y1657000D02*
X1424000Y1657000D01*
X1429000Y1672000D02*
Y1689000D01*
X1005000D02*
X1429000D01*
Y1663000D02*
Y1672000D01*
X1429000Y1663000D02*
X1429000Y1663000D01*
X1434000Y1666000D02*
Y1693000D01*
X998000D02*
X1434000D01*
Y1657000D02*
Y1666000D01*
X1434000Y1657000D02*
X1434000Y1657000D01*
X1439000Y1672000D02*
Y1697000D01*
X991000D02*
X1439000D01*
X1444000Y1666000D02*
Y1701000D01*
X984000D02*
X1444000D01*
X1449000Y1672000D02*
Y1705000D01*
X977000D02*
X1449000D01*
X1439000Y1663000D02*
Y1672000D01*
X1439000Y1663000D02*
X1439000Y1663000D01*
X1444000Y1657000D02*
Y1666000D01*
X1444000Y1657000D02*
X1444000Y1657000D01*
X1449000Y1663000D02*
Y1672000D01*
X1449000Y1663000D02*
X1449000Y1663000D01*
X1454000Y1666000D02*
Y1709000D01*
X970000D02*
X1454000D01*
X1459000Y1672000D02*
Y1713000D01*
X963000D02*
X1459000D01*
X1454000Y1657000D02*
Y1666000D01*
X1454000Y1657000D02*
X1454000Y1657000D01*
X1459000Y1663000D02*
Y1672000D01*
X1459000Y1663000D02*
X1459000Y1663000D01*
X1359000Y1591000D02*
X1360000Y1592000D01*
X583000Y1304000D02*
X610000D01*
X582000D02*
X583000D01*
X864000Y1000000D02*
Y1207000D01*
X760000D02*
X864000D01*
X709000Y1258000D02*
X760000Y1207000D01*
X870000Y1000000D02*
X871000Y1001000D01*
Y1211000D01*
X763000D02*
X871000D01*
X714000Y1260000D02*
X763000Y1211000D01*
X739000Y1242000D02*
X766000Y1215000D01*
X1160933Y1599000D02*
X1162000Y1597933D01*
Y1565000D02*
Y1597933D01*
Y1565000D02*
X1162000D01*
X1171000Y1556000D01*
X899000Y1147000D02*
Y1148000D01*
Y1005000D02*
Y1147000D01*
X1033000Y1673000D02*
X1400000D01*
X1033000Y1606000D02*
Y1673000D01*
X1395000Y1127000D02*
X1399000Y1131000D01*
Y1179000D01*
X1038000Y1551000D02*
X1109000D01*
X1038000Y1510000D02*
Y1551000D01*
X836000Y1318933D02*
Y1330000D01*
X846098Y1340098D01*
X836000Y1318000D02*
Y1318933D01*
X885000Y1001000D02*
Y1192000D01*
X1245000Y1565000D02*
Y1566000D01*
Y1564933D02*
Y1565000D01*
X1194933Y1602000D02*
X1195933Y1601000D01*
X1142000Y1486067D02*
Y1514000D01*
X1107000D02*
X1142000D01*
X1105966Y1515034D02*
X1107000Y1514000D01*
X1113000Y1519000D02*
X1145933D01*
X1146933Y1518000D01*
X1038000Y1510000D02*
X1046000Y1502000D01*
X1047933D01*
Y1509000D02*
X1055000D01*
Y1509000D01*
X891000Y1272000D02*
X905000Y1286000D01*
X769000Y1219000D02*
X926933D01*
X754000Y1234000D02*
X769000Y1219000D01*
X709000Y1258000D02*
Y1300000D01*
X714000Y1260000D02*
Y1300000D01*
X782000Y1227000D02*
X922933D01*
X775000Y1234000D02*
X782000Y1227000D01*
X775000Y1234000D02*
Y1236000D01*
X782000D02*
X787000Y1231000D01*
X787000Y1231000D02*
X787000Y1231000D01*
X784000Y1395000D02*
X881000D01*
Y1395000D01*
X895000Y1381000D01*
X890000Y1355000D02*
X914000Y1331000D01*
X858000Y1355000D02*
X890000D01*
X879000Y1359000D02*
X893000D01*
X863000Y1375000D02*
X879000Y1359000D01*
X896000Y1363000D02*
X918000Y1341000D01*
X881933Y1363000D02*
X896000D01*
X865933Y1379000D02*
X881933Y1363000D01*
X869000Y1383000D02*
X885000Y1367000D01*
X846000Y1272000D02*
X891000D01*
X886000Y1255000D02*
X920933D01*
X889000Y1251000D02*
X922933D01*
X803000Y1247000D02*
X924933D01*
X893933Y1240933D02*
Y1241000D01*
X887000Y1298000D02*
Y1298000D01*
X807000Y1353000D02*
X834000D01*
X788000Y1334000D02*
X807000Y1353000D01*
X912000Y1326000D02*
X957000Y1326000D01*
X891000Y1347000D02*
X912000Y1326000D01*
X853000Y1347000D02*
X891000D01*
X933933Y1326000D02*
X933933Y1326000D01*
X1137000Y1482067D02*
Y1508000D01*
X1099000D02*
X1137000D01*
X1109000Y1524000D02*
X1151933D01*
X1146933Y1371000D02*
Y1518000D01*
X1202000Y1243000D02*
Y1397000D01*
Y1413000D02*
X1209000D01*
X1202000D02*
Y1488000D01*
X1081000Y1440000D02*
Y1474000D01*
X1136933Y1482000D02*
X1137000Y1482067D01*
X1151933Y1376000D02*
Y1524000D01*
X1141933Y1486000D02*
X1142000Y1486067D01*
X1163000Y1240000D02*
X1246000Y1157000D01*
X1168000Y1241000D02*
X1198000Y1211000D01*
X1173000Y1242000D02*
X1202000Y1213000D01*
X1178000Y1243000D02*
Y1442000D01*
Y1243000D02*
X1258000Y1163000D01*
X1183000Y1244000D02*
X1243000Y1184000D01*
X1196000Y1243000D02*
Y1256000D01*
Y1243000D02*
X1270000Y1169000D01*
X1202000Y1243000D02*
X1274000Y1171000D01*
X809933Y1298000D02*
X887000D01*
X854933Y1337933D02*
Y1338000D01*
X841933Y1324933D02*
X854933Y1337933D01*
X841933Y1311000D02*
Y1324933D01*
X846098Y1340098D02*
X853000Y1347000D01*
X846098Y1340098D02*
Y1340098D01*
X858000Y1341000D02*
X886000D01*
X857967Y1341033D02*
X858000Y1341000D01*
X855433Y1338500D02*
X857967Y1341033D01*
X626933Y1273000D02*
Y1275933D01*
X627000Y1272500D02*
Y1274000D01*
X729000Y1357000D02*
X775000Y1403000D01*
X753500Y1373500D02*
X779000Y1399000D01*
X786933Y1269067D02*
Y1282067D01*
X782000Y1287000D02*
X786933Y1282067D01*
X775933Y1287000D02*
X782000D01*
X790933Y1271067D02*
Y1285067D01*
X784000Y1292000D02*
X790933Y1285067D01*
X780933Y1292000D02*
X784000D01*
X714000Y1300000D02*
X725000D01*
X699000D02*
X709000D01*
X781933Y1268067D02*
Y1279000D01*
X595000Y1297000D02*
X596000Y1298000D01*
X587000Y1297000D02*
X595000D01*
X596000D02*
Y1298000D01*
X612970Y1272500D02*
X627000D01*
X597000Y1283000D02*
Y1287500D01*
Y1277500D02*
Y1283000D01*
Y1277500D02*
X613000D01*
X591000Y1292500D02*
X612970D01*
X587000Y1262500D02*
Y1297000D01*
Y1262500D02*
X612970D01*
X597000Y1287500D02*
X612970D01*
X786000Y1391000D02*
X875000D01*
X754885Y1359885D02*
X786000Y1391000D01*
X754885Y1327952D02*
Y1359885D01*
X788000Y1387000D02*
X872000D01*
X760000Y1359000D02*
X788000Y1387000D01*
X760000Y1322067D02*
Y1359000D01*
X790000Y1383000D02*
X869000D01*
X765000Y1358000D02*
X790000Y1383000D01*
X765000Y1318000D02*
Y1358000D01*
X755933Y1318000D02*
X760000Y1322067D01*
X739000Y1269000D02*
Y1270000D01*
Y1242000D02*
Y1269000D01*
X761000Y1234000D02*
Y1234094D01*
Y1234000D02*
X772064Y1222936D01*
X774031D01*
X1354000Y1136000D02*
X1354000Y1136000D01*
X1354000Y1584000D02*
X1354000Y1136000D01*
X1353000Y1585000D02*
X1354000Y1584000D01*
X1359000Y1591000D02*
X1359000Y1136000D01*
X1359000Y1592000D02*
X1360000D01*
X1353000Y1585000D02*
Y1586000D01*
X1384000Y1153000D02*
X1394000D01*
X1709000Y1120000D02*
X1709000D01*
X1766000Y1147000D02*
Y1148000D01*
X1735000Y1123000D02*
X1736000D01*
X1730000Y1118000D02*
Y1119000D01*
X1399000Y1672000D02*
Y1673000D01*
X1399000Y1177000D02*
X1399000Y1672000D01*
X1040000Y1666000D02*
Y1669000D01*
Y1630000D02*
Y1666000D01*
X1055000Y1661000D02*
Y1665000D01*
Y1617000D02*
Y1661000D01*
X1061000Y1658000D02*
Y1661000D01*
Y1628000D02*
Y1658000D01*
X963000Y1607000D02*
Y1713000D01*
X970000Y1610000D02*
Y1709000D01*
X977000Y1607000D02*
Y1705000D01*
X984000Y1610000D02*
Y1701000D01*
X991000Y1607000D02*
Y1697000D01*
X998000Y1610000D02*
Y1693000D01*
X1005000Y1607000D02*
Y1689000D01*
X1179000Y1162000D02*
X1205000Y1136000D01*
Y998000D02*
Y1136000D01*
X1204000Y997000D02*
X1205000Y998000D01*
X1200000Y1003000D02*
Y1133000D01*
Y1003000D02*
X1200000Y1003000D01*
X1384000Y1661000D02*
X1384000Y1153000D01*
X1019000Y1607000D02*
Y1681000D01*
X1025933Y1610000D02*
Y1677000D01*
X1210000Y983000D02*
Y1139000D01*
X1214000Y981000D02*
Y1141000D01*
X1107000Y1248000D02*
X1214000Y1141000D01*
X1146000Y1215000D02*
X1218000Y1143000D01*
Y979000D02*
Y1143000D01*
X1222000Y1102000D02*
Y1145000D01*
X1149000Y1218000D02*
X1222000Y1145000D01*
X1112000Y1261000D02*
X1226000Y1147000D01*
Y975000D02*
Y1147000D01*
X1178000Y1201000D02*
X1230000Y1149000D01*
Y973000D02*
Y1149000D01*
X1127000Y1258000D02*
X1234000Y1151000D01*
Y971000D02*
Y1151000D01*
X1132000Y1259000D02*
X1238000Y1153000D01*
Y969000D02*
Y1153000D01*
X1137000Y1260000D02*
X1242000Y1155000D01*
Y967000D02*
Y1155000D01*
X1200000Y1002000D02*
Y1003000D01*
X1204000Y996000D02*
Y997000D01*
X1274000Y951000D02*
Y1171000D01*
X1245000Y922000D02*
X1274000Y951000D01*
X1270000Y953000D02*
Y1169000D01*
X1235000Y918000D02*
X1270000Y953000D01*
X1266000Y955000D02*
Y1167000D01*
X1225000Y914000D02*
X1266000Y955000D01*
X1243000Y1184000D02*
X1262000Y1165000D01*
Y957000D02*
Y1165000D01*
X1215000Y910000D02*
X1262000Y957000D01*
X1258000Y959000D02*
Y1163000D01*
X1205000Y906000D02*
X1258000Y959000D01*
X1202000Y1213000D02*
X1254000Y1161000D01*
Y961000D02*
Y1161000D01*
X1202000Y909000D02*
X1254000Y961000D01*
X1198000Y1211000D02*
X1250000Y1159000D01*
Y963000D02*
Y1159000D01*
X1246000Y965000D02*
Y1157000D01*
X1222000Y977000D02*
Y1102000D01*
X1198000Y1211000D02*
Y1211000D01*
X1202000Y1213000D02*
X1202000D01*
X905000Y1010000D02*
Y1158000D01*
X1202000Y1213000D02*
Y1213000D01*
X1117000Y1262000D02*
X1178000Y1201000D01*
Y1201000D01*
X1112000Y1261000D02*
Y1277000D01*
X1117000Y1262000D02*
Y1283000D01*
X1127000Y1258000D02*
Y1350000D01*
X1132000Y1259000D02*
X1132000Y1348000D01*
X1199000Y909000D02*
X1202000D01*
X1195000Y905000D02*
X1199000Y909000D01*
X1205000Y905000D02*
Y906000D01*
X1215000Y905000D02*
Y910000D01*
X1225000Y905000D02*
Y914000D01*
X1235000Y905000D02*
Y918000D01*
X1245000Y905000D02*
Y922000D01*
X1117000Y1283000D02*
X1118000Y1284000D01*
X1132000Y1343000D02*
Y1348000D01*
X1132000Y1391000D02*
X1132000Y1391000D01*
X1266000Y1563000D02*
Y1564067D01*
X1207933Y1538000D02*
X1210000Y1535933D01*
Y1488000D02*
Y1535933D01*
X1209000Y1488000D02*
X1210000D01*
X1279000Y1506000D02*
Y1523000D01*
X1275000D02*
X1279000D01*
X1256000Y1517000D02*
Y1523000D01*
X1273067D01*
X1274000D02*
Y1523933D01*
X1256000Y1438000D02*
Y1489000D01*
X1183000Y1244000D02*
Y1406000D01*
X1173000Y1412000D02*
Y1413000D01*
Y1242000D02*
Y1412000D01*
X1168000Y1241000D02*
Y1357000D01*
X1163000Y1240000D02*
Y1383000D01*
X1112000Y1438000D02*
X1112933D01*
X1113000Y1437933D01*
X1121547Y1438000D02*
X1122000D01*
X1081000Y1430067D02*
Y1431000D01*
X913000Y1416000D02*
Y1417000D01*
X799933Y1375000D02*
X863000D01*
X1011933Y1610000D02*
Y1685000D01*
X1040000Y1628000D02*
Y1630000D01*
X1039933D02*
X1040000D01*
X1039933Y1610000D02*
Y1630000D01*
X1237933Y1566000D02*
X1238000Y1565933D01*
Y1303000D02*
Y1565933D01*
X1233000Y1303000D02*
Y1562933D01*
X1195000Y880000D02*
Y905000D01*
X1141933Y1419000D02*
Y1486000D01*
Y1418000D02*
Y1419000D01*
X1185000Y880000D02*
Y905000D01*
X1175000Y880000D02*
Y905000D01*
X1122000Y1293000D02*
Y1437547D01*
X1127000Y1350000D02*
Y1351000D01*
X1127000Y1350000D02*
X1127000Y1350000D01*
X1112000Y1288000D02*
Y1436933D01*
X774094Y1223000D02*
X924933D01*
X922933Y1251000D02*
X937933Y1266000D01*
X924933Y1247000D02*
X942933Y1265000D01*
X937933Y1266000D02*
X937933D01*
X835933Y1305000D02*
X841933Y1311000D01*
X809933Y1305000D02*
X835933D01*
X796933Y1373000D02*
X797933D01*
X793933Y1379000D02*
X865933D01*
X1237933Y1566000D02*
Y1566000D01*
X1195933Y1557000D02*
Y1601000D01*
X1195933Y1601000D01*
X942933Y1265000D02*
Y1265000D01*
X854933Y1338000D02*
X855433Y1338500D01*
X797933Y1373000D02*
X799933Y1375000D01*
X790933Y1376000D02*
X793933Y1379000D01*
X774031Y1222936D02*
X774094Y1223000D01*
X1155000Y880000D02*
Y905000D01*
X1165000Y880000D02*
Y905000D01*
X1825000Y884000D02*
Y885000D01*
X1825000Y881500D02*
X1825000Y884000D01*
X1145000Y881500D02*
Y905000D01*
X1135000Y880500D02*
Y904500D01*
X1125000Y880500D02*
Y904500D01*
X1095000Y881500D02*
Y905500D01*
X1005000Y880500D02*
Y905000D01*
Y880500D02*
X1005000Y880500D01*
X1205000Y880000D02*
Y905000D01*
X1215000Y880000D02*
Y905000D01*
X1225000Y880000D02*
Y905000D01*
X1235000Y880000D02*
Y905000D01*
X1245000Y880000D02*
Y905000D01*
X1815000Y881500D02*
Y905500D01*
X1005000Y880500D02*
X1005000Y884000D01*
X1075000Y880500D02*
Y904500D01*
X1085000Y880500D02*
Y904500D01*
X1065000Y880500D02*
Y904500D01*
X1035000Y880500D02*
Y904500D01*
X1045000Y880500D02*
Y904500D01*
X1025000Y880500D02*
Y904500D01*
X1015000Y880500D02*
Y904500D01*
D13*
X945000Y1000000D02*
D03*
Y1820000D02*
D03*
X755000D02*
D03*
X755000Y1000000D02*
D03*
X3185000Y1000000D02*
D03*
X3185000Y1820000D02*
D03*
X3375000D02*
D03*
Y1000000D02*
D03*
X2780000D02*
D03*
X2780000Y1820000D02*
D03*
X2970000D02*
D03*
Y1000000D02*
D03*
X2375000D02*
D03*
X2375000Y1820000D02*
D03*
X2565000D02*
D03*
Y1000000D02*
D03*
X1970000D02*
D03*
X1970000Y1820000D02*
D03*
X2160000D02*
D03*
Y1000000D02*
D03*
X1565000D02*
D03*
X1565000Y1820000D02*
D03*
X1755000D02*
D03*
Y1000000D02*
D03*
X1160000Y1000000D02*
D03*
X1160000Y1820000D02*
D03*
X1350000D02*
D03*
Y1000000D02*
D03*
D14*
X551000Y1558000D02*
D03*
X565000D02*
D03*
X551000Y1418000D02*
D03*
X565000D02*
D03*
X551000Y1488000D02*
D03*
X565000D02*
D03*
D15*
X3245000Y1136000D02*
D03*
X3241000D02*
D03*
D16*
X3280000Y1744000D02*
D03*
Y1748000D02*
D03*
X3078000Y1108000D02*
D03*
Y1112000D02*
D03*
X2875000Y1750000D02*
D03*
Y1754000D02*
D03*
X2673000Y1108000D02*
D03*
Y1112000D02*
D03*
X2470000Y1768000D02*
D03*
Y1772000D02*
D03*
X2268000Y1108000D02*
D03*
Y1112000D02*
D03*
X2065000Y1765000D02*
D03*
Y1769000D02*
D03*
X1863000Y1107000D02*
D03*
Y1111000D02*
D03*
X1660000Y1766000D02*
D03*
Y1770000D02*
D03*
X1389000Y1107000D02*
D03*
Y1111000D02*
D03*
X1255000Y1768000D02*
D03*
Y1772000D02*
D03*
X1052000Y1125000D02*
D03*
Y1129000D02*
D03*
X850000Y1747000D02*
D03*
Y1751000D02*
D03*
X755000Y1139000D02*
D03*
Y1135000D02*
D03*
D17*
X612970Y1249000D02*
D03*
X613000Y1256500D02*
D03*
X612970Y1303500D02*
D03*
Y1311000D02*
D03*
D18*
Y1262500D02*
D03*
Y1267500D02*
D03*
Y1272500D02*
D03*
X613000Y1277500D02*
D03*
X612970Y1282500D02*
D03*
Y1287500D02*
D03*
Y1292500D02*
D03*
Y1297500D02*
D03*
D19*
X1215000Y878500D02*
D03*
X1355000D02*
D03*
X1345000D02*
D03*
X1495000D02*
D03*
X1515000D02*
D03*
X1485000D02*
D03*
X1505000D02*
D03*
X1615000D02*
D03*
X1625000D02*
D03*
X1675000Y878500D02*
D03*
X1665000D02*
D03*
X1735000D02*
D03*
X1715000D02*
D03*
X1725000D02*
D03*
X1765000D02*
D03*
X1775000D02*
D03*
X1785000D02*
D03*
X1685000D02*
D03*
X1605000Y878500D02*
D03*
X1585000D02*
D03*
X1565000D02*
D03*
X1525000D02*
D03*
X1445000D02*
D03*
X1465000D02*
D03*
X1425000D02*
D03*
X1385000D02*
D03*
X1365000D02*
D03*
X1325000Y878500D02*
D03*
X1195000Y878500D02*
D03*
X1175000D02*
D03*
X1155000D02*
D03*
X1075000Y878500D02*
D03*
X1095000D02*
D03*
X1135000Y878500D02*
D03*
X1055000Y878500D02*
D03*
X1015000D02*
D03*
X1035000D02*
D03*
X1635000Y878500D02*
D03*
X1595000Y878500D02*
D03*
X1575000D02*
D03*
X1555000D02*
D03*
X1475000D02*
D03*
X1455000D02*
D03*
X1435000D02*
D03*
X1415000D02*
D03*
X1375000D02*
D03*
X1335000Y878500D02*
D03*
X1315000D02*
D03*
X1305000D02*
D03*
X1295000D02*
D03*
X1285000D02*
D03*
X1275000D02*
D03*
X1245000Y878500D02*
D03*
X1235000D02*
D03*
X1225000D02*
D03*
X1205000D02*
D03*
X1185000D02*
D03*
X1165000D02*
D03*
X1145000D02*
D03*
X1125000D02*
D03*
X1085000Y878500D02*
D03*
X1065000D02*
D03*
X1045000D02*
D03*
X1025000D02*
D03*
D20*
X1825000Y884000D02*
D03*
X995000D02*
D03*
D21*
X1815000Y874000D02*
D03*
X1005000D02*
D03*
D42*
X1072000Y1146000D02*
Y1193000D01*
X1075000Y1196000D01*
X1066000Y1465000D02*
Y1468000D01*
Y1431000D02*
Y1465000D01*
X947000Y1346000D02*
Y1430000D01*
X1525000Y881500D02*
Y927500D01*
X1515000Y881500D02*
Y927500D01*
X1505000Y881500D02*
Y927500D01*
X1495000Y881500D02*
Y928500D01*
X1485000Y881500D02*
Y927500D01*
X1475000Y881500D02*
Y927500D01*
X1465000Y881500D02*
Y927500D01*
X1455000Y881500D02*
Y927500D01*
X1445000Y881500D02*
Y928500D01*
X1435000Y881500D02*
Y927500D01*
X1425000Y881500D02*
Y927500D01*
X1415000Y881500D02*
Y927500D01*
X900000Y1590000D02*
X1120000D01*
X1162000Y1548000D01*
X1334000Y1603000D02*
X1356000D01*
X1331000Y1600000D02*
X1334000Y1603000D01*
X1162000Y1548000D02*
X1199000D01*
X1375000Y881500D02*
Y927500D01*
X1385000Y881500D02*
Y927500D01*
X1365000Y881500D02*
Y927500D01*
X1345000Y881500D02*
Y927500D01*
X1355000Y881500D02*
Y928500D01*
X1325000Y881500D02*
Y927500D01*
X1335000Y881500D02*
Y927500D01*
X1305000Y881500D02*
Y928500D01*
X1315000Y881500D02*
Y927500D01*
X1285000Y881500D02*
Y927500D01*
X1295000Y881500D02*
Y927500D01*
X1275000Y881500D02*
Y927500D01*
X1325000Y1600000D02*
X1331000D01*
X1325000Y1508000D02*
Y1600000D01*
X1227000D02*
X1325000D01*
X1204000Y1553000D02*
Y1577000D01*
X1199000Y1548000D02*
X1204000Y1553000D01*
Y1577000D02*
X1227000Y1600000D01*
D43*
X1087000Y1229000D02*
Y1306000D01*
X1489000Y1608000D02*
Y1614000D01*
X1489000Y1608000D02*
X1489000Y1608000D01*
X1335000Y1614000D02*
X1361000D01*
X1329000Y1608000D02*
X1335000Y1614000D01*
X1123000Y1608000D02*
X1329000D01*
X1483000Y1614000D02*
Y1620000D01*
X1483000Y1614000D02*
X1483000Y1614000D01*
X1332000Y1620000D02*
X1357000D01*
X1326000Y1614000D02*
X1332000Y1620000D01*
X1150000Y1614000D02*
X1326000D01*
X1477000Y1620000D02*
Y1626000D01*
X1477000Y1620000D02*
X1477000Y1620000D01*
X1329000Y1626000D02*
X1361000D01*
X1323000Y1620000D02*
X1329000Y1626000D01*
X1190000Y1620000D02*
X1323000D01*
X1052000Y1129000D02*
Y1176000D01*
X1271000Y1644000D02*
X1367000D01*
X1373000Y1176000D02*
Y1650000D01*
X1287000D02*
X1373000D01*
X1379000Y1170000D02*
Y1656000D01*
X1303000D02*
X1379000D01*
X1823000Y1198000D02*
X1885000Y1136000D01*
X1489000Y1198000D02*
X1823000D01*
X1489000Y1608000D02*
X1489000Y1198000D01*
X1819000Y1192000D02*
X1881000Y1130000D01*
X1483000Y1192000D02*
X1819000D01*
X1483000Y1614000D02*
X1483000Y1192000D01*
X1815000Y1186000D02*
X1877000Y1124000D01*
X1477000Y1186000D02*
X1815000D01*
X1477000Y1620000D02*
X1477000Y1186000D01*
X1811000Y1180000D02*
X1873000Y1118000D01*
X1471000Y1180000D02*
X1811000D01*
X1471000Y1632000D02*
X1471000Y1180000D01*
X1807000Y1174000D02*
X1863000Y1118000D01*
X1465000Y1174000D02*
X1807000D01*
X1465000Y1638000D02*
X1465000Y1174000D01*
X1471000Y1632000D02*
X1471000D01*
X1465000Y1638000D02*
X1465000D01*
X1383000Y1111000D02*
X1389000D01*
X1383000D02*
Y1131000D01*
X1367000Y1147000D02*
X1383000Y1131000D01*
X1367000Y1147000D02*
Y1644000D01*
X3241000Y1136000D02*
X3277000D01*
X1885000D02*
X3241000D01*
X1881000Y1130000D02*
X3078000D01*
X1873000Y1118000D02*
X2268000D01*
X1863000Y1111000D02*
Y1118000D01*
X3277000Y1023000D02*
Y1136000D01*
X1075000Y1656000D02*
X1123000Y1608000D01*
X3078000Y1112000D02*
Y1130000D01*
Y1108000D02*
Y1112000D01*
X1108000Y1656000D02*
X1108000D01*
X1150000Y1614000D01*
X2673000Y1112000D02*
Y1124000D01*
Y1100000D02*
Y1112000D01*
X1154000Y1656000D02*
X1190000Y1620000D01*
X2268000Y1112000D02*
Y1118000D01*
Y1104000D02*
Y1112000D01*
X1172000Y1656000D02*
X1172000D01*
X1196000Y1632000D01*
X1357000D01*
X1190000Y1656000D02*
X1208000Y1638000D01*
X1361000D01*
X1259000Y1656000D02*
X1259000D01*
X1271000Y1644000D01*
X1281000Y1656000D02*
X1287000Y1650000D01*
X1877000Y1124000D02*
X2673000D01*
X1379000Y1169000D02*
Y1170000D01*
X1379000Y1170000D01*
X755000Y1140000D02*
Y1158000D01*
X3280000Y1732000D02*
Y1743000D01*
X1097000Y1732000D02*
X3280000D01*
X2875000Y1738000D02*
Y1750000D01*
X1118000Y1738000D02*
X2875000D01*
X1165000Y1744000D02*
X2470000D01*
X1248000Y1756000D02*
X1660000D01*
X2470000Y1744000D02*
Y1768000D01*
X2065000Y1750000D02*
Y1765000D01*
X1180000Y1750000D02*
X2065000D01*
X2470000Y1768000D02*
Y1770000D01*
X2065000Y1765000D02*
X2066000Y1766000D01*
X1660000Y1756000D02*
Y1766000D01*
X850000Y1718000D02*
X1292000D01*
X850000D02*
Y1747000D01*
X1303000Y1626000D02*
X1319000D01*
D44*
X1255000Y1762000D02*
Y1763000D01*
D45*
X652000Y1064500D02*
D03*
D46*
X3243000Y1136000D02*
D03*
D47*
X3280000Y1746000D02*
D03*
X3078000Y1110000D02*
D03*
X2875000Y1752000D02*
D03*
X2673000Y1110000D02*
D03*
X2470000Y1770000D02*
D03*
X2268000Y1110000D02*
D03*
X2065000Y1767000D02*
D03*
X1863000Y1109000D02*
D03*
X1660000Y1768000D02*
D03*
X1389000Y1109000D02*
D03*
X1255000Y1770000D02*
D03*
X1052000Y1127000D02*
D03*
X849999Y1749000D02*
D03*
X755000Y1137001D02*
D03*
D48*
X645500Y1256500D02*
D03*
D49*
X1788500Y1451500D02*
D03*
D50*
X2655000Y1425000D02*
D03*
D51*
X3375000Y1050000D02*
D03*
D52*
X3336000Y1000000D02*
D03*
D53*
X3287000Y1233000D02*
D03*
D54*
X3362000Y1260500D02*
D03*
D55*
X1605000Y1048500D02*
D03*
D56*
X806000Y1464500D02*
D03*
D57*
X1501500Y1119000D02*
D03*
D58*
X1295000Y1047500D02*
D03*
D59*
X1327000Y919500D02*
D03*
D60*
X1334500Y937500D02*
D03*
D61*
X1470000D02*
D03*
D62*
X3077500Y1078000D02*
D03*
D63*
X2672500Y1075000D02*
D03*
D64*
X1052500Y1004000D02*
D03*
X1457500Y1005000D02*
D03*
X3077500D02*
D03*
X2672500D02*
D03*
X2267500D02*
D03*
X1862500D02*
D03*
D65*
X1052500Y1079500D02*
D03*
D66*
Y999000D02*
D03*
X1457500Y1000000D02*
D03*
X3077500D02*
D03*
X2672500D02*
D03*
X2267500D02*
D03*
X1862500D02*
D03*
D67*
X1160000Y1019000D02*
D03*
X945000Y1019000D02*
D03*
X1350000Y1020000D02*
D03*
X1565000Y1020000D02*
D03*
X2970000Y1020000D02*
D03*
X3185000Y1020000D02*
D03*
X2565000Y1020000D02*
D03*
X2780000Y1020000D02*
D03*
X2160000Y1020000D02*
D03*
X2375000Y1020000D02*
D03*
X1970000D02*
D03*
X1755000Y1020000D02*
D03*
X3185000Y1800000D02*
D03*
X3375000D02*
D03*
X2780000D02*
D03*
X2970000D02*
D03*
X2375000D02*
D03*
X2565000D02*
D03*
X1970000D02*
D03*
X2160000D02*
D03*
X1565000D02*
D03*
X1755000D02*
D03*
X1160000D02*
D03*
X1350000D02*
D03*
X755000Y1035000D02*
D03*
X945000Y1800000D02*
D03*
X755000D02*
D03*
D68*
X1457500Y1072000D02*
D03*
X3077500D02*
D03*
X2672500D02*
D03*
X2267500D02*
D03*
X1862500D02*
D03*
D69*
X3280000Y1815000D02*
D03*
X2875000D02*
D03*
X2470000D02*
D03*
X2065000D02*
D03*
X1660000D02*
D03*
X1255000D02*
D03*
X850000D02*
D03*
D70*
X3280000Y1763000D02*
D03*
D71*
X3280000Y1820000D02*
D03*
X2875000D02*
D03*
X2470000D02*
D03*
X2065000D02*
D03*
X1660000D02*
D03*
X1255000D02*
D03*
X850000D02*
D03*
D72*
X2875000Y1766000D02*
D03*
D73*
X2470000Y1769000D02*
D03*
D74*
X2065000Y1772000D02*
D03*
D75*
X1660000Y1775000D02*
D03*
X1255000D02*
D03*
D76*
X755000Y1000000D02*
D03*
D77*
X850000Y1767500D02*
D03*
D78*
X820000Y1027000D02*
D03*
X690000D02*
D03*
D79*
X755000Y1086000D02*
D03*
D80*
X746500Y1445500D02*
D03*
D81*
X609170Y1236700D02*
D03*
Y1323200D02*
D03*
Y1323300D02*
D03*
Y1236800D02*
D03*
D82*
X570570Y1236700D02*
D03*
Y1323200D02*
D03*
Y1323300D02*
D03*
Y1236800D02*
D03*
D83*
X3441000Y932000D02*
D03*
X596000D02*
D03*
D84*
Y1786000D02*
D03*
D85*
X878000Y1175000D02*
D03*
X899000D02*
D03*
X878000Y1167000D02*
D03*
X913000Y1204000D02*
D03*
X906000D02*
D03*
X899000D02*
D03*
X1067000Y1229000D02*
D03*
X828000Y1265000D02*
D03*
X838000Y1287000D02*
D03*
Y1271000D02*
D03*
Y1279000D02*
D03*
X746000Y1347000D02*
D03*
X868000Y1361000D02*
D03*
X856000Y1355000D02*
D03*
X592000Y1268000D02*
D03*
X627000Y1282000D02*
D03*
X718000Y1357000D02*
D03*
X693000Y1345000D02*
D03*
X698000Y1340000D02*
D03*
X693000Y1335000D02*
D03*
X727000Y1328000D02*
D03*
X750000Y1324000D02*
D03*
X765000Y1318000D02*
D03*
X803000Y1302000D02*
D03*
X583000Y1257000D02*
D03*
Y1304000D02*
D03*
X1109000Y1551000D02*
D03*
X836000Y1318000D02*
D03*
X857000Y1200000D02*
D03*
X905000Y1286000D02*
D03*
X846000Y1272000D02*
D03*
X887000Y1298000D02*
D03*
X834000Y1353000D02*
D03*
X855433Y1338500D02*
D03*
X886000Y1341000D02*
D03*
X788000Y1334000D02*
D03*
X803000Y1320000D02*
D03*
X753000Y1373000D02*
D03*
X725000Y1300000D02*
D03*
X698000D02*
D03*
X596000Y1298000D02*
D03*
X597000Y1283000D02*
D03*
X753000Y1236000D02*
D03*
X761000D02*
D03*
X768000D02*
D03*
X775000D02*
D03*
X782000D02*
D03*
X739000Y1269000D02*
D03*
X755000Y1158000D02*
D03*
X893933Y1241000D02*
D03*
X878500Y1439500D02*
D03*
X796933Y1373000D02*
D03*
X855933Y1326000D02*
D03*
X755933Y1318000D02*
D03*
X851500Y1439500D02*
D03*
X789933Y1375000D02*
D03*
X809933Y1305000D02*
D03*
Y1298000D02*
D03*
X813933Y1264000D02*
D03*
X780933Y1280000D02*
D03*
X779933Y1293000D02*
D03*
X774933Y1287000D02*
D03*
D86*
X983000Y1326000D02*
D03*
X975000Y1336000D02*
D03*
X970000Y1314000D02*
D03*
X965000Y1326000D02*
D03*
X947000Y1306000D02*
D03*
X1072000Y1146000D02*
D03*
X1087000Y1306000D02*
D03*
X960000Y1449000D02*
D03*
X972000Y1261000D02*
D03*
X975000Y1271000D02*
D03*
X965000Y1261000D02*
D03*
X977000Y1256000D02*
D03*
X965000Y1251000D02*
D03*
X960000Y1246000D02*
D03*
Y1256000D02*
D03*
X1049000Y1298000D02*
D03*
X947000Y1346000D02*
D03*
X955000D02*
D03*
Y1336000D02*
D03*
X1067000Y1314000D02*
D03*
X1489000Y1614000D02*
D03*
X1361000D02*
D03*
X1483000Y1620000D02*
D03*
X1357000D02*
D03*
X1477000Y1626000D02*
D03*
X1361000D02*
D03*
X765000Y1496000D02*
D03*
X794826Y1421000D02*
D03*
X575826Y1418000D02*
D03*
X550826Y1429000D02*
D03*
X575826Y1488000D02*
D03*
X550826Y1500000D02*
D03*
X575826Y1558000D02*
D03*
X550826Y1570000D02*
D03*
X916000Y1507000D02*
D03*
X1015000Y1463000D02*
D03*
X1403000Y1119000D02*
D03*
X1264000Y1319000D02*
D03*
X1087000D02*
D03*
X1158000Y1501000D02*
D03*
Y1334000D02*
D03*
X1076000Y1324000D02*
D03*
X1243000Y1353000D02*
D03*
X1168000Y1358000D02*
D03*
X1196000Y1256000D02*
D03*
X928000Y1421000D02*
D03*
X923000Y1406000D02*
D03*
X918000Y1411000D02*
D03*
X1188000Y1424000D02*
D03*
X1048000Y1474000D02*
D03*
X903000Y1391000D02*
D03*
X898000Y1386000D02*
D03*
X1216000Y1261000D02*
D03*
X1221000Y1251000D02*
D03*
X1087000Y1229000D02*
D03*
X1092000Y1341000D02*
D03*
X1097000Y1346000D02*
D03*
X1102000Y1361000D02*
D03*
X1107000Y1366000D02*
D03*
X1076000Y1271000D02*
D03*
X1081000Y1266000D02*
D03*
X1226000Y1246000D02*
D03*
X965000Y1336000D02*
D03*
Y1465000D02*
D03*
X1360000Y1592000D02*
D03*
X1507000Y1515000D02*
D03*
X1605000Y985000D02*
D03*
Y978000D02*
D03*
X1052000Y1176000D02*
D03*
X1076000Y1229000D02*
D03*
X850000Y1187000D02*
D03*
X857000Y1182000D02*
D03*
X1409000Y1187000D02*
D03*
X1404000Y1182000D02*
D03*
X1414000Y1666000D02*
D03*
X1419000Y1672000D02*
D03*
X1424000Y1666000D02*
D03*
X1429000Y1672000D02*
D03*
X1434000Y1666000D02*
D03*
X1439000Y1672000D02*
D03*
X1444000Y1666000D02*
D03*
X1449000Y1672000D02*
D03*
X1454000Y1666000D02*
D03*
X1459000Y1672000D02*
D03*
X1471000Y1632000D02*
D03*
X1465000Y1638000D02*
D03*
X879000Y1478000D02*
D03*
X851000D02*
D03*
X1171000Y1556000D02*
D03*
X1195000Y1602000D02*
D03*
X1075000Y1656000D02*
D03*
X1108000D02*
D03*
X1154000D02*
D03*
X1357000Y1632000D02*
D03*
X1172000Y1656000D02*
D03*
X1361000Y1638000D02*
D03*
X1190000Y1656000D02*
D03*
X1259000D02*
D03*
X1373000Y1176000D02*
D03*
X1379000Y1169000D02*
D03*
X1303000Y1656000D02*
D03*
X1281000D02*
D03*
X1097000Y1732000D02*
D03*
X1118000Y1738000D02*
D03*
X1165000Y1744000D02*
D03*
X1255000Y1763000D02*
D03*
X1180000Y1750000D02*
D03*
X1248000Y1756000D02*
D03*
X1292000Y1718000D02*
D03*
X1395000Y1127000D02*
D03*
X885000Y1192000D02*
D03*
X1245000Y1566000D02*
D03*
X1113000Y1519000D02*
D03*
X1107000Y1524000D02*
D03*
X1230933Y1566000D02*
D03*
X1107000Y1514000D02*
D03*
X1097000Y1508000D02*
D03*
X1017000Y1576000D02*
D03*
X1202000Y1397000D02*
D03*
X1209000Y1413000D02*
D03*
X899000Y1147000D02*
D03*
X1186000D02*
D03*
X1353000Y1586000D02*
D03*
X1360000Y1135000D02*
D03*
X1381000Y987000D02*
D03*
X1375000D02*
D03*
X1381000Y1013000D02*
D03*
X1375000D02*
D03*
X1353000Y1135000D02*
D03*
X1394000Y1153000D02*
D03*
X1584000Y1006000D02*
D03*
X1577000Y997000D02*
D03*
Y1006000D02*
D03*
X1709000Y1120000D02*
D03*
X3389067Y1003000D02*
D03*
Y1011000D02*
D03*
X3381067Y1017000D02*
D03*
X3373067D02*
D03*
X3365067Y1011000D02*
D03*
Y1003000D02*
D03*
X3389000Y995000D02*
D03*
X1772000Y1153000D02*
D03*
X1766000Y1148000D02*
D03*
X1760000Y1143000D02*
D03*
X1754000Y1138000D02*
D03*
X1748000Y1133000D02*
D03*
X1742000Y1128000D02*
D03*
X1736000Y1123000D02*
D03*
X1730000Y1118000D02*
D03*
X1714000Y1126000D02*
D03*
X2980067Y995000D02*
D03*
Y1003000D02*
D03*
Y1011000D02*
D03*
X2972067Y1017000D02*
D03*
X2964067D02*
D03*
X2956067Y1011000D02*
D03*
Y1003000D02*
D03*
X3199067D02*
D03*
Y1011000D02*
D03*
X3191067Y1017000D02*
D03*
X3183067D02*
D03*
X3175067Y1011000D02*
D03*
Y1003000D02*
D03*
X3175000Y995000D02*
D03*
X2575067Y995000D02*
D03*
Y1003000D02*
D03*
Y1011000D02*
D03*
X2567067Y1017000D02*
D03*
X2559067D02*
D03*
X2551067Y1011000D02*
D03*
Y1003000D02*
D03*
X2794067D02*
D03*
Y1011000D02*
D03*
X2786067Y1017000D02*
D03*
X2778067D02*
D03*
X2770067Y1011000D02*
D03*
Y1003000D02*
D03*
X2770000Y995000D02*
D03*
X1984067Y1003000D02*
D03*
Y1011000D02*
D03*
X1976067Y1016000D02*
D03*
X1968067D02*
D03*
X1960067Y1011000D02*
D03*
Y1003000D02*
D03*
X1960000Y995000D02*
D03*
X1765067Y995000D02*
D03*
Y1003000D02*
D03*
Y1011000D02*
D03*
X1757067Y1017000D02*
D03*
X1749067D02*
D03*
X1741067Y1011000D02*
D03*
Y1003000D02*
D03*
X2170067Y995000D02*
D03*
Y1003000D02*
D03*
Y1011000D02*
D03*
X2162067Y1017000D02*
D03*
X2154067D02*
D03*
X2146067Y1011000D02*
D03*
Y1003000D02*
D03*
X2389067D02*
D03*
Y1011000D02*
D03*
X2381067Y1017000D02*
D03*
X2373067D02*
D03*
X2365067Y1011000D02*
D03*
Y1003000D02*
D03*
X2365000Y995000D02*
D03*
X1145933Y1817000D02*
D03*
Y1809000D02*
D03*
X1153933Y1803000D02*
D03*
X1161933D02*
D03*
X1169933Y1809000D02*
D03*
Y1817000D02*
D03*
X1170000Y1825000D02*
D03*
X3364933Y1825000D02*
D03*
Y1817000D02*
D03*
Y1809000D02*
D03*
X3372933Y1803000D02*
D03*
X3380933D02*
D03*
X3388933Y1809000D02*
D03*
Y1817000D02*
D03*
X3389000Y1825000D02*
D03*
X3170933Y1817000D02*
D03*
Y1809000D02*
D03*
X3178933Y1803000D02*
D03*
X3186933D02*
D03*
X3194933Y1809000D02*
D03*
Y1817000D02*
D03*
X3195000Y1825000D02*
D03*
X2959933Y1825000D02*
D03*
Y1817000D02*
D03*
Y1809000D02*
D03*
X2967933Y1803000D02*
D03*
X2975933D02*
D03*
X2983933Y1809000D02*
D03*
Y1817000D02*
D03*
X2765933D02*
D03*
Y1809000D02*
D03*
X2773933Y1803000D02*
D03*
X2781933D02*
D03*
X2789933Y1809000D02*
D03*
Y1817000D02*
D03*
X2790000Y1825000D02*
D03*
X2554933Y1825000D02*
D03*
Y1817000D02*
D03*
Y1809000D02*
D03*
X2562933Y1803000D02*
D03*
X2570933D02*
D03*
X2578933Y1809000D02*
D03*
Y1817000D02*
D03*
X2360933D02*
D03*
Y1809000D02*
D03*
X2368933Y1803000D02*
D03*
X2376933D02*
D03*
X2384933Y1809000D02*
D03*
Y1817000D02*
D03*
X2385000Y1825000D02*
D03*
X2149933Y1825000D02*
D03*
Y1817000D02*
D03*
Y1809000D02*
D03*
X2157933Y1803000D02*
D03*
X2165933D02*
D03*
X2173933Y1809000D02*
D03*
Y1817000D02*
D03*
X1955933D02*
D03*
Y1809000D02*
D03*
X1963933Y1803000D02*
D03*
X1971933D02*
D03*
X1979933Y1809000D02*
D03*
Y1817000D02*
D03*
X1980000Y1825000D02*
D03*
X1744933Y1825000D02*
D03*
Y1817000D02*
D03*
Y1809000D02*
D03*
X1752933Y1803000D02*
D03*
X1760933D02*
D03*
X1768933Y1809000D02*
D03*
Y1817000D02*
D03*
X1550933D02*
D03*
Y1809000D02*
D03*
X1558933Y1803000D02*
D03*
X1566933D02*
D03*
X1574933Y1809000D02*
D03*
Y1817000D02*
D03*
X1575000Y1825000D02*
D03*
X1339933Y1825000D02*
D03*
Y1817000D02*
D03*
Y1809000D02*
D03*
X1347933Y1803000D02*
D03*
X1355933D02*
D03*
X1363933Y1809000D02*
D03*
Y1817000D02*
D03*
X765000Y1825000D02*
D03*
X935000D02*
D03*
X934933Y1817000D02*
D03*
Y1809000D02*
D03*
X942933Y1803000D02*
D03*
X950933D02*
D03*
X958933Y1809000D02*
D03*
Y1817000D02*
D03*
X764933D02*
D03*
Y1809000D02*
D03*
X756933Y1803000D02*
D03*
X748933D02*
D03*
X740933Y1809000D02*
D03*
Y1817000D02*
D03*
X1399000Y1672000D02*
D03*
X1061000Y1658000D02*
D03*
X1040000Y1666000D02*
D03*
X1055000Y1661000D02*
D03*
X1584000Y1016000D02*
D03*
X1574000D02*
D03*
X1564000D02*
D03*
X1554000Y986000D02*
D03*
Y996000D02*
D03*
Y1016000D02*
D03*
Y1006000D02*
D03*
X1319000Y1626000D02*
D03*
X1303000D02*
D03*
X1178000Y1163000D02*
D03*
X1394000D02*
D03*
X1204000Y996000D02*
D03*
X1154000Y988000D02*
D03*
X1164000D02*
D03*
X1174000D02*
D03*
X1144000Y1004000D02*
D03*
Y996000D02*
D03*
Y988000D02*
D03*
X1154000Y1012000D02*
D03*
X1144000D02*
D03*
X1164000D02*
D03*
X1174000D02*
D03*
X1200000Y1002000D02*
D03*
X1389000Y1158000D02*
D03*
X905000D02*
D03*
Y1010000D02*
D03*
X899000Y1005000D02*
D03*
X972000Y1018000D02*
D03*
Y1008000D02*
D03*
X952000Y1018000D02*
D03*
X942000D02*
D03*
X932000D02*
D03*
X962000Y1008000D02*
D03*
Y1018000D02*
D03*
X740000Y989000D02*
D03*
X750000D02*
D03*
X770000D02*
D03*
X760000D02*
D03*
X770000Y1013000D02*
D03*
Y1005000D02*
D03*
Y997000D02*
D03*
X740000Y1013000D02*
D03*
X750000D02*
D03*
X760000D02*
D03*
X850000Y1000000D02*
D03*
X857000D02*
D03*
X864000D02*
D03*
X871000D02*
D03*
X878000D02*
D03*
X885000D02*
D03*
X892000D02*
D03*
X1266000Y1563000D02*
D03*
X1325000Y1508000D02*
D03*
X1210000Y1488000D02*
D03*
X1202000D02*
D03*
X1279000Y1506000D02*
D03*
X1264000Y1517000D02*
D03*
X1256000D02*
D03*
X1274000Y1523000D02*
D03*
X1256000Y1438000D02*
D03*
Y1489000D02*
D03*
X1183000Y1406000D02*
D03*
X1173000Y1412000D02*
D03*
X1163000Y1384000D02*
D03*
X1081000Y1438000D02*
D03*
X1112000D02*
D03*
X1122000D02*
D03*
X1081000Y1431000D02*
D03*
X1137000Y1411000D02*
D03*
X913000Y1416000D02*
D03*
X956000Y1610000D02*
D03*
X1061000Y1628000D02*
D03*
X963000Y1607000D02*
D03*
X970000Y1610000D02*
D03*
X977000Y1607000D02*
D03*
X984000Y1610000D02*
D03*
X991000Y1607000D02*
D03*
X998000Y1610000D02*
D03*
X1004933Y1607000D02*
D03*
X1011933Y1610000D02*
D03*
X1019000Y1607000D02*
D03*
X1025933Y1610000D02*
D03*
X1032933Y1607000D02*
D03*
X1039933Y1610000D02*
D03*
X1055000Y1617000D02*
D03*
X1178000Y1443000D02*
D03*
X1195000Y905000D02*
D03*
X1185000D02*
D03*
X1175000D02*
D03*
X1136933Y1386000D02*
D03*
X1131933Y1391000D02*
D03*
X1122000Y1293000D02*
D03*
X1127000Y1351000D02*
D03*
X1112000Y1288000D02*
D03*
X1117000Y1283000D02*
D03*
X1112000Y1278000D02*
D03*
X1136547Y1449000D02*
D03*
X1141933Y1419000D02*
D03*
X1207933Y1538000D02*
D03*
X1045000Y905000D02*
D03*
X1036933Y1502000D02*
D03*
X1047933D02*
D03*
Y1509000D02*
D03*
X1155000Y905000D02*
D03*
X1165000D02*
D03*
X1145000D02*
D03*
X1135000D02*
D03*
X1125000D02*
D03*
X995000D02*
D03*
X1005000D02*
D03*
X1015000D02*
D03*
X1025000D02*
D03*
X1035000D02*
D03*
X1055000D02*
D03*
X1065000D02*
D03*
X1075000D02*
D03*
X1085000D02*
D03*
X1095000D02*
D03*
X1205000D02*
D03*
X1215000D02*
D03*
X1225000D02*
D03*
X1235000D02*
D03*
X1245000D02*
D03*
X1815000Y905500D02*
D03*
X1825000D02*
D03*
X1151933Y1376000D02*
D03*
X1146933Y1371000D02*
D03*
X1214933Y1542000D02*
D03*
X1160933Y1599000D02*
D03*
X1195933Y1556000D02*
D03*
X1222933Y1542000D02*
D03*
X1227933Y1536000D02*
D03*
X1237933Y1566000D02*
D03*
D87*
X1073000Y1197000D02*
D03*
X1066000Y1465000D02*
D03*
Y1431000D02*
D03*
X947000Y1432000D02*
D03*
X900000Y1590000D02*
D03*
X1356000Y1603000D02*
D03*
X710000Y1400000D02*
D03*
X700000Y1220000D02*
D03*
X730000Y1170000D02*
D03*
X656000Y1422000D02*
D03*
Y1237000D02*
D03*
Y1314000D02*
D03*
X680000Y1170000D02*
D03*
X1000000Y1210000D02*
D03*
X960000D02*
D03*
X1338000Y1484000D02*
D03*
X1310000Y1440000D02*
D03*
X1150000Y1290000D02*
D03*
X1310000Y1210000D02*
D03*
Y1380000D02*
D03*
Y1320000D02*
D03*
Y1260000D02*
D03*
X882000Y1205000D02*
D03*
X783000Y1192000D02*
D03*
X797000D02*
D03*
X3266000Y1085000D02*
D03*
Y1055000D02*
D03*
Y1115000D02*
D03*
Y1145000D02*
D03*
X3296000Y1085000D02*
D03*
Y1055000D02*
D03*
Y1115000D02*
D03*
Y1145000D02*
D03*
X3386000D02*
D03*
X3356000D02*
D03*
X3326000D02*
D03*
X3386000Y1115000D02*
D03*
X3356000D02*
D03*
X3326000D02*
D03*
X3386000Y1055000D02*
D03*
X3356000D02*
D03*
X3326000D02*
D03*
Y1085000D02*
D03*
X3356000D02*
D03*
X3386000D02*
D03*
X2280000Y1595000D02*
D03*
X2250000D02*
D03*
X2220000D02*
D03*
X2190000D02*
D03*
X2160000D02*
D03*
Y1565000D02*
D03*
X2190000D02*
D03*
X2220000D02*
D03*
X2250000D02*
D03*
X2280000D02*
D03*
X2160000Y1625000D02*
D03*
X2190000D02*
D03*
X2220000D02*
D03*
X2250000D02*
D03*
X2280000D02*
D03*
X2160000Y1655000D02*
D03*
X2190000D02*
D03*
X2220000D02*
D03*
X2250000D02*
D03*
X2280000D02*
D03*
X1710000Y1595000D02*
D03*
X1680000D02*
D03*
X1650000D02*
D03*
X1620000D02*
D03*
X1590000D02*
D03*
X1890000D02*
D03*
X1860000D02*
D03*
X1830000D02*
D03*
X1800000D02*
D03*
X1770000D02*
D03*
X1740000D02*
D03*
X1920000D02*
D03*
Y1565000D02*
D03*
X1740000D02*
D03*
X1770000D02*
D03*
X1800000D02*
D03*
X1830000D02*
D03*
X1860000D02*
D03*
X1890000D02*
D03*
X1590000D02*
D03*
X1620000D02*
D03*
X1650000D02*
D03*
X1680000D02*
D03*
X1710000D02*
D03*
X2100000Y1595000D02*
D03*
X1950000D02*
D03*
X1980000D02*
D03*
X2010000D02*
D03*
X2040000D02*
D03*
X2070000D02*
D03*
X2100000Y1565000D02*
D03*
X1950000D02*
D03*
X1980000D02*
D03*
X2010000D02*
D03*
X2040000D02*
D03*
X2070000D02*
D03*
X2130000Y1595000D02*
D03*
Y1565000D02*
D03*
Y1625000D02*
D03*
X2070000D02*
D03*
X2040000D02*
D03*
X2010000D02*
D03*
X1980000D02*
D03*
X1950000D02*
D03*
X2100000D02*
D03*
X1920000D02*
D03*
X1740000D02*
D03*
X1770000D02*
D03*
X1800000D02*
D03*
X1830000D02*
D03*
X1860000D02*
D03*
X1890000D02*
D03*
X1590000D02*
D03*
X1620000D02*
D03*
X1650000D02*
D03*
X1680000D02*
D03*
X1710000D02*
D03*
X2130000Y1655000D02*
D03*
X2070000D02*
D03*
X2040000D02*
D03*
X2010000D02*
D03*
X1980000D02*
D03*
X1950000D02*
D03*
X2100000D02*
D03*
X1920000D02*
D03*
X1740000D02*
D03*
X1770000D02*
D03*
X1800000D02*
D03*
X1830000D02*
D03*
X1860000D02*
D03*
X1890000D02*
D03*
X1590000D02*
D03*
X1620000D02*
D03*
X1650000D02*
D03*
X1680000D02*
D03*
X1710000D02*
D03*
X1560000D02*
D03*
Y1625000D02*
D03*
Y1565000D02*
D03*
Y1595000D02*
D03*
X805000Y1481000D02*
D03*
Y1465000D02*
D03*
Y1448000D02*
D03*
X1300000Y1095000D02*
D03*
X1290000Y1110000D02*
D03*
X1300000Y1035000D02*
D03*
X1290000Y1050000D02*
D03*
X1300000Y1065000D02*
D03*
X1290000Y1080000D02*
D03*
X1300000Y975000D02*
D03*
X1290000Y990000D02*
D03*
X1300000Y1005000D02*
D03*
X1290000Y1020000D02*
D03*
Y960000D02*
D03*
X1310000D02*
D03*
X1330000D02*
D03*
X1350000D02*
D03*
X1370000D02*
D03*
X1430000D02*
D03*
X1450000D02*
D03*
X1470000D02*
D03*
X1490000D02*
D03*
X1510000D02*
D03*
X1033000Y1015000D02*
D03*
X1023000Y1000000D02*
D03*
X1033000Y985000D02*
D03*
X1108000Y1015000D02*
D03*
X1098000Y1000000D02*
D03*
X1108000Y985000D02*
D03*
X829000Y1056000D02*
D03*
Y1086000D02*
D03*
Y1116000D02*
D03*
X819000Y1071000D02*
D03*
X809000Y1056000D02*
D03*
X819000Y1041000D02*
D03*
X809000Y1086000D02*
D03*
Y1116000D02*
D03*
X819000Y1101000D02*
D03*
Y1131000D02*
D03*
X799000Y1071000D02*
D03*
X789000Y1056000D02*
D03*
X799000Y1041000D02*
D03*
X789000Y1086000D02*
D03*
Y1116000D02*
D03*
X799000Y1101000D02*
D03*
Y1131000D02*
D03*
X779000D02*
D03*
Y1101000D02*
D03*
X759000Y1131000D02*
D03*
X739000D02*
D03*
X719000D02*
D03*
X699000D02*
D03*
X679000D02*
D03*
X769000Y1116000D02*
D03*
X749000D02*
D03*
X729000D02*
D03*
X709000D02*
D03*
X689000D02*
D03*
X759000Y1101000D02*
D03*
X739000D02*
D03*
X719000D02*
D03*
X699000D02*
D03*
X679000D02*
D03*
X769000Y1086000D02*
D03*
X749000D02*
D03*
X729000D02*
D03*
X709000D02*
D03*
X689000D02*
D03*
X759000Y1041000D02*
D03*
X779000D02*
D03*
X739000D02*
D03*
X719000D02*
D03*
X699000D02*
D03*
X679000D02*
D03*
X689000Y1056000D02*
D03*
X709000D02*
D03*
X729000D02*
D03*
X749000D02*
D03*
X769000D02*
D03*
X679000Y1071000D02*
D03*
X699000D02*
D03*
X719000D02*
D03*
X739000D02*
D03*
X759000D02*
D03*
X779000D02*
D03*
X1915000Y1000000D02*
D03*
X2320000D02*
D03*
X3025000Y1015000D02*
D03*
Y1000000D02*
D03*
X3130000D02*
D03*
Y1015000D02*
D03*
Y1030000D02*
D03*
X3025000D02*
D03*
X2980000Y1040000D02*
D03*
X2965000D02*
D03*
X3175000D02*
D03*
X3190000D02*
D03*
X2620000Y1015000D02*
D03*
Y1000000D02*
D03*
Y1030000D02*
D03*
X1810000Y1015000D02*
D03*
Y1000000D02*
D03*
X1915000Y1015000D02*
D03*
Y1030000D02*
D03*
X1810000D02*
D03*
X1765000Y1040000D02*
D03*
X1750000D02*
D03*
X1960000D02*
D03*
X1975000D02*
D03*
X2215000Y1015000D02*
D03*
Y1000000D02*
D03*
X2320000Y1015000D02*
D03*
Y1030000D02*
D03*
X2215000D02*
D03*
X2170000Y1040000D02*
D03*
X2155000D02*
D03*
X2365000D02*
D03*
X2380000D02*
D03*
X2620000Y1015000D02*
D03*
Y1000000D02*
D03*
X2725000D02*
D03*
Y1015000D02*
D03*
Y1030000D02*
D03*
X2620000D02*
D03*
X2575000Y1040000D02*
D03*
X2560000D02*
D03*
X2770000D02*
D03*
X2785000D02*
D03*
X3320000Y1805000D02*
D03*
Y1820000D02*
D03*
X3240000D02*
D03*
Y1805000D02*
D03*
Y1790000D02*
D03*
X3320000D02*
D03*
X3365000Y1780000D02*
D03*
X3380000D02*
D03*
X3195000D02*
D03*
X3180000D02*
D03*
X2915000Y1805000D02*
D03*
Y1820000D02*
D03*
X2835000D02*
D03*
Y1805000D02*
D03*
Y1790000D02*
D03*
X2915000D02*
D03*
X2960000Y1780000D02*
D03*
X2975000D02*
D03*
X2790000D02*
D03*
X2775000D02*
D03*
X2510000Y1805000D02*
D03*
Y1820000D02*
D03*
X2430000D02*
D03*
Y1805000D02*
D03*
Y1790000D02*
D03*
X2510000D02*
D03*
X2555000Y1780000D02*
D03*
X2570000D02*
D03*
X2385000D02*
D03*
X2370000D02*
D03*
X2105000Y1805000D02*
D03*
Y1820000D02*
D03*
X2025000D02*
D03*
Y1805000D02*
D03*
Y1790000D02*
D03*
X2105000D02*
D03*
X2150000Y1780000D02*
D03*
X2165000D02*
D03*
X1980000D02*
D03*
X1965000D02*
D03*
X1700000Y1805000D02*
D03*
Y1820000D02*
D03*
X1620000D02*
D03*
Y1805000D02*
D03*
Y1790000D02*
D03*
X1700000D02*
D03*
X1745000Y1780000D02*
D03*
X1760000D02*
D03*
X1575000D02*
D03*
X1560000D02*
D03*
X1295000Y1805000D02*
D03*
Y1820000D02*
D03*
X1215000D02*
D03*
Y1805000D02*
D03*
Y1790000D02*
D03*
X1295000D02*
D03*
X1340000Y1780000D02*
D03*
X1355000D02*
D03*
X1170000D02*
D03*
X1155000D02*
D03*
X750000D02*
D03*
X765000D02*
D03*
X950000D02*
D03*
X935000D02*
D03*
X890000Y1790000D02*
D03*
X810000D02*
D03*
Y1805000D02*
D03*
Y1820000D02*
D03*
X890000D02*
D03*
Y1805000D02*
D03*
X1380000Y945000D02*
D03*
X1370000Y930000D02*
D03*
X1360000Y945000D02*
D03*
X1350000Y930000D02*
D03*
X1340000Y945000D02*
D03*
X1330000Y930000D02*
D03*
X1320000Y945000D02*
D03*
X1300000D02*
D03*
X1310000Y930000D02*
D03*
X1290000D02*
D03*
X1280000Y915000D02*
D03*
X1300000D02*
D03*
X1320000D02*
D03*
X1340000D02*
D03*
X1360000D02*
D03*
X1380000D02*
D03*
X1520000Y945000D02*
D03*
X1500000D02*
D03*
X1480000D02*
D03*
X1460000D02*
D03*
X1440000D02*
D03*
X1420000D02*
D03*
X1510000Y930000D02*
D03*
X1490000D02*
D03*
X1470000D02*
D03*
X1450000D02*
D03*
X1430000D02*
D03*
X1420000Y915000D02*
D03*
X1440000D02*
D03*
X1460000D02*
D03*
X1480000D02*
D03*
X1520000D02*
D03*
X1500000D02*
D03*
M02*
