G04*
G04 #@! TF.GenerationSoftware,Altium Limited,Altium Designer,18.1.7 (191)*
G04*
G04 Layer_Physical_Order=2*
G04 Layer_Color=16711680*
%FSLAX44Y44*%
%MOMM*%
G71*
G01*
G75*
%ADD11C,0.2000*%
%ADD14R,0.8000X0.8000*%
%ADD15R,0.2000X0.6000*%
%ADD16R,0.6000X0.2000*%
%ADD17R,1.1500X0.6000*%
%ADD18R,1.1500X0.3000*%
%ADD19R,0.7000X3.8000*%
%ADD20R,0.7000X2.6000*%
%ADD21R,0.7000X4.6000*%
%ADD42C,0.5000*%
%ADD43C,0.4000*%
%ADD44C,0.3000*%
%ADD46R,0.4000X0.6000*%
%ADD47R,0.6000X0.4000*%
%ADD70R,26.0000X5.4000*%
%ADD75R,26.0000X3.0000*%
%ADD77R,26.0000X4.5000*%
%ADD81R,2.0000X1.2000*%
%ADD82R,2.3000X1.2000*%
%ADD83R,6.0000X6.0000*%
%ADD84R,6.0000X7.0000*%
%ADD85C,0.5080*%
%ADD86C,0.4800*%
%ADD87C,1.2700*%
%ADD88R,0.6000X0.6000*%
%ADD89R,1.1000X0.7000*%
%ADD90R,0.6000X0.6000*%
%ADD91R,0.4500X1.0000*%
%ADD92R,2.4000X1.7000*%
%ADD93R,0.8000X0.5500*%
%ADD94R,1.2000X0.3000*%
%ADD95R,0.3000X1.2000*%
%ADD96R,0.3000X1.4500*%
%ADD97R,0.5500X0.8000*%
%ADD98R,0.7000X1.1000*%
%ADD99R,1.8000X3.4000*%
G04:AMPARAMS|DCode=100|XSize=2mm|YSize=1mm|CornerRadius=0mm|HoleSize=0mm|Usage=FLASHONLY|Rotation=270.000|XOffset=0mm|YOffset=0mm|HoleType=Round|Shape=Octagon|*
%AMOCTAGOND100*
4,1,8,-0.2500,-1.0000,0.2500,-1.0000,0.5000,-0.7500,0.5000,0.7500,0.2500,1.0000,-0.2500,1.0000,-0.5000,0.7500,-0.5000,-0.7500,-0.2500,-1.0000,0.0*
%
%ADD100OCTAGOND100*%

%ADD101R,1.0000X2.0000*%
%ADD102R,0.9300X0.9800*%
%ADD103R,1.0000X0.4500*%
%ADD104R,1.1000X2.0000*%
%ADD105R,2.0000X1.1000*%
%ADD106O,0.3500X1.3500*%
%ADD107C,0.6000*%
%ADD108R,0.8000X18.1000*%
%ADD109R,58.1000X1.2000*%
%ADD110R,28.0000X4.2000*%
%ADD111R,2.8000X1.4000*%
%ADD112R,10.9000X4.5000*%
%ADD113R,12.0000X1.8000*%
%ADD114R,266.8000X1.3000*%
%ADD115R,181.8000X1.3000*%
%ADD116R,107.6000X49.0000*%
%ADD117R,88.5000X15.2000*%
%ADD118R,1.7000X3.0000*%
%ADD119R,4.4000X0.8067*%
%ADD120R,3.5000X0.6000*%
%ADD121R,1.5000X3.0000*%
%ADD122R,1.5000X5.4000*%
%ADD123R,4.7000X2.4000*%
%ADD124R,0.9000X2.6000*%
%ADD125R,0.9000X2.6000*%
%ADD126R,4.4000X1.0000*%
%ADD127R,4.4000X1.0000*%
%ADD128R,1.7000X5.4000*%
%ADD129R,9.8000X0.6000*%
%ADD130R,1.0000X3.1933*%
%ADD131R,1.8000X3.1933*%
%ADD132R,10.7000X1.0000*%
%ADD133R,9.3000X0.6000*%
%ADD134R,3.6000X3.1933*%
%ADD135R,1.5000X3.2067*%
%ADD136R,1.5000X3.0000*%
%ADD137R,3.7000X2.7000*%
%ADD138R,1.3000X1.1000*%
%ADD139R,1.3000X1.5000*%
%ADD140R,0.6000X15.5000*%
%ADD141R,74.1000X0.5000*%
%ADD142R,2.6000X3.1000*%
%ADD143R,6.5000X3.9000*%
%ADD144R,2.4000X4.3000*%
%ADD145R,5.5000X1.9000*%
%ADD146R,18.0000X1.8000*%
%ADD147R,17.1000X18.7000*%
%ADD148R,9.6000X4.1000*%
%ADD149R,2.0000X2.1000*%
%ADD150R,3.0000X3.1000*%
%ADD151R,2.6000X5.0000*%
%ADD152R,28.5000X11.4000*%
%ADD153R,13.5000X4.5000*%
%ADD154R,2.0000X3.7000*%
%ADD155R,3.0000X3.5000*%
%ADD156R,2.6000X3.1000*%
%ADD157R,16.6000X2.0000*%
%ADD158R,28.5000X10.4000*%
%ADD159R,16.6000X2.0000*%
%ADD160R,28.5000X9.4000*%
%ADD161R,17.0000X2.0000*%
%ADD162R,28.5000X8.4000*%
%ADD163R,2.0000X2.3000*%
%ADD164R,2.0000X3.8000*%
%ADD165R,11.1000X4.4000*%
%ADD166R,26.0000X7.8000*%
%ADD167R,2.0000X3.6000*%
%ADD168R,2.0000X2.0000*%
%ADD169R,15.1000X2.0000*%
%ADD170R,2.6000X4.6000*%
%ADD171R,26.0000X7.0000*%
%ADD172R,26.0000X6.2000*%
%ADD173R,26.0000X4.6000*%
%ADD174R,5.0000X1.5000*%
%ADD175R,1.0000X5.0000*%
%ADD176R,13.6000X3.3000*%
%ADD177R,16.7000X1.9000*%
%ADD178R,5.5000X1.0000*%
%ADD179R,18.6000X2.2000*%
%ADD180R,26.8000X1.0000*%
%ADD181R,16.0000X13.0000*%
%ADD182R,11.6067X12.8000*%
%ADD183R,51.0000X11.7000*%
%ADD184R,11.6067X5.8000*%
%ADD185R,10.7000X3.3000*%
%ADD186R,10.7000X1.6000*%
%ADD187R,3.6000X0.7000*%
%ADD188R,3.6000X1.4000*%
%ADD189R,1.5000X5.4000*%
%ADD190R,1.0000X5.4000*%
%ADD191R,1.0000X4.2000*%
%ADD192R,1.0000X4.4000*%
%ADD193R,4.9000X1.5000*%
%ADD194R,2.3000X4.4000*%
%ADD195R,10.7000X0.8067*%
%ADD196R,4.8933X1.4000*%
%ADD197R,0.2000X1.4000*%
%ADD198R,0.8000X1.8000*%
%ADD199R,0.2000X3.0000*%
%ADD200R,1.1000X3.0000*%
%ADD201R,1.5000X4.8933*%
%ADD202R,2.6000X0.9000*%
%ADD203R,1.0000X2.7933*%
%ADD204R,0.6000X3.5000*%
%ADD205R,1.0000X4.2000*%
%ADD206R,28.2000X19.3000*%
%ADD207R,4.9000X3.9000*%
%ADD208R,77.7000X4.0000*%
%ADD209R,5.4067X3.2000*%
%ADD210R,4.9000X3.2000*%
%ADD211R,5.4933X3.2000*%
%ADD212R,19.9000X4.2000*%
G36*
X938412Y1719941D02*
Y1494500D01*
X938250D01*
Y1482500D01*
X947750D01*
Y1494500D01*
X947588D01*
Y1529927D01*
X948858Y1530970D01*
X949000Y1530941D01*
X1012941D01*
Y1509000D01*
X1012941Y1509000D01*
X1012941Y1509000D01*
Y1504898D01*
X1012043Y1504000D01*
X1011013Y1504000D01*
X1009743Y1504000D01*
X1000853D01*
Y1494000D01*
X1002794D01*
Y1486080D01*
X1002794Y1486080D01*
X1002941Y1485341D01*
Y1473080D01*
X1003174Y1471909D01*
X1003837Y1470917D01*
X1004057Y1470770D01*
X1003672Y1469500D01*
X1000750D01*
Y1457500D01*
X1010250D01*
Y1459941D01*
X1011752D01*
X1011828Y1459828D01*
X1013283Y1458855D01*
X1015000Y1458514D01*
X1016717Y1458855D01*
X1018172Y1459828D01*
X1018480Y1460288D01*
X1019750Y1459903D01*
Y1457500D01*
X1029250D01*
Y1469500D01*
X1030304Y1470021D01*
X1031102D01*
X1032000Y1469123D01*
X1032000Y1468080D01*
X1032000Y1466810D01*
Y1457920D01*
X1033941D01*
Y1452059D01*
X963248D01*
X963172Y1452172D01*
X961717Y1453145D01*
X960000Y1453486D01*
X958283Y1453145D01*
X956828Y1452172D01*
X955855Y1450717D01*
X955514Y1449000D01*
X955855Y1447283D01*
X956828Y1445828D01*
X958283Y1444855D01*
X960000Y1444514D01*
X961717Y1444855D01*
X963172Y1445828D01*
X963248Y1445941D01*
X1037000D01*
X1038170Y1446174D01*
X1039163Y1446837D01*
X1039826Y1447829D01*
X1040059Y1449000D01*
X1040051Y1449040D01*
X1040059Y1449080D01*
Y1457920D01*
X1042000D01*
Y1466810D01*
X1042000Y1467920D01*
X1042000Y1469190D01*
Y1477678D01*
X1042000Y1478080D01*
X1042079Y1478164D01*
X1043226Y1478920D01*
X1044941D01*
Y1477248D01*
X1044828Y1477172D01*
X1043855Y1475717D01*
X1043514Y1474000D01*
X1043855Y1472283D01*
X1044828Y1470828D01*
X1046283Y1469855D01*
X1048000Y1469514D01*
X1049717Y1469855D01*
X1051172Y1470828D01*
X1052145Y1472283D01*
X1052486Y1474000D01*
X1052145Y1475717D01*
X1051172Y1477172D01*
X1051059Y1477248D01*
Y1478920D01*
X1052933D01*
Y1488540D01*
X1053473D01*
Y1492810D01*
X1047933D01*
Y1494080D01*
X1046663D01*
Y1499620D01*
X1042393D01*
X1042083Y1499460D01*
X1041159Y1500289D01*
X1041097Y1500380D01*
X1041419Y1502000D01*
X1041078Y1503717D01*
X1040440Y1504671D01*
X1041066Y1505941D01*
X1044685D01*
X1044761Y1505828D01*
X1046216Y1504855D01*
X1047933Y1504514D01*
X1049650Y1504855D01*
X1051105Y1505828D01*
X1051181Y1505941D01*
X1053586D01*
X1056690Y1502837D01*
X1057682Y1502174D01*
X1058853Y1501941D01*
X1059920D01*
Y1500000D01*
X1059920D01*
Y1499000D01*
X1059920D01*
Y1489000D01*
X1062941D01*
Y1472771D01*
X1061789Y1472294D01*
X1060045Y1470955D01*
X1058706Y1469211D01*
X1057865Y1467180D01*
X1057578Y1465000D01*
X1057865Y1462820D01*
X1058706Y1460789D01*
X1060045Y1459045D01*
X1061789Y1457706D01*
X1063820Y1456865D01*
X1066000Y1456578D01*
X1068180Y1456865D01*
X1070211Y1457706D01*
X1071955Y1459045D01*
X1073294Y1460789D01*
X1074135Y1462820D01*
X1074422Y1465000D01*
X1075247Y1465941D01*
X1079460D01*
Y1460460D01*
X1090540D01*
Y1465941D01*
X1323733Y1465941D01*
X1410730Y1378944D01*
Y1352255D01*
X1409557Y1351769D01*
X1354163Y1407163D01*
X1353170Y1407826D01*
X1352000Y1408059D01*
X1352000Y1408059D01*
X1213080D01*
Y1410000D01*
X1203080D01*
X1203080Y1410000D01*
X1202920D01*
Y1410000D01*
X1202296D01*
X1201059Y1411243D01*
Y1415022D01*
X1201957Y1415920D01*
X1202414Y1415920D01*
X1203460Y1415380D01*
X1204046Y1415380D01*
X1207730D01*
Y1420920D01*
X1209000D01*
Y1422190D01*
X1214540D01*
Y1426460D01*
X1214000D01*
Y1434941D01*
X1252752D01*
X1252828Y1434828D01*
X1254283Y1433855D01*
X1256000Y1433514D01*
X1257717Y1433855D01*
X1259172Y1434828D01*
X1260145Y1436283D01*
X1260486Y1438000D01*
X1260145Y1439717D01*
X1259172Y1441172D01*
X1257717Y1442145D01*
X1256000Y1442486D01*
X1254283Y1442145D01*
X1252828Y1441172D01*
X1252752Y1441059D01*
X1183395D01*
X1182353Y1442329D01*
X1182486Y1443000D01*
X1182145Y1444717D01*
X1181172Y1446172D01*
X1181059Y1446248D01*
Y1450000D01*
X1181000Y1450296D01*
Y1453250D01*
X1167000D01*
Y1444750D01*
X1172567D01*
X1173609Y1443480D01*
X1173514Y1443000D01*
X1173647Y1442329D01*
X1172605Y1441059D01*
X1125248D01*
X1125172Y1441172D01*
X1123717Y1442145D01*
X1122000Y1442486D01*
X1120283Y1442145D01*
X1118828Y1441172D01*
X1117855Y1439717D01*
X1117647Y1438672D01*
X1116353D01*
X1116145Y1439717D01*
X1115172Y1441172D01*
X1113717Y1442145D01*
X1112000Y1442486D01*
X1110283Y1442145D01*
X1108828Y1441172D01*
X1108752Y1441059D01*
X1084248D01*
X1084172Y1441172D01*
X1082717Y1442145D01*
X1081000Y1442486D01*
X1079283Y1442145D01*
X1077828Y1441172D01*
X1076855Y1439717D01*
X1076514Y1438000D01*
X1076855Y1436283D01*
X1077828Y1434828D01*
Y1434172D01*
X1076855Y1432717D01*
X1076514Y1431000D01*
X1076855Y1429283D01*
X1077828Y1427828D01*
X1079283Y1426855D01*
X1081000Y1426514D01*
X1082717Y1426855D01*
X1084172Y1427828D01*
X1084248Y1427941D01*
X1089387D01*
X1089441Y1427804D01*
X1089598Y1426671D01*
X1088837Y1426163D01*
X1088837Y1426163D01*
X1086733Y1424059D01*
X1072594D01*
X1072173Y1425329D01*
X1073294Y1426789D01*
X1074135Y1428820D01*
X1074422Y1431000D01*
X1074135Y1433180D01*
X1073294Y1435211D01*
X1071955Y1436955D01*
X1070211Y1438294D01*
X1068180Y1439135D01*
X1066000Y1439422D01*
X1063820Y1439135D01*
X1061789Y1438294D01*
X1060045Y1436955D01*
X1058996Y1435588D01*
X954552D01*
X954294Y1436211D01*
X952955Y1437955D01*
X951211Y1439294D01*
X949180Y1440135D01*
X947000Y1440422D01*
X944820Y1440135D01*
X944490Y1439998D01*
X938588Y1445901D01*
Y1464000D01*
X938250Y1465700D01*
Y1471500D01*
X928750D01*
Y1459500D01*
X929412D01*
Y1444000D01*
X929761Y1442244D01*
X930756Y1440756D01*
X938687Y1432825D01*
X938578Y1432000D01*
X938865Y1429820D01*
X939706Y1427789D01*
X941045Y1426045D01*
X941978Y1425329D01*
X941547Y1424059D01*
X931248D01*
X931172Y1424172D01*
X929717Y1425145D01*
X928000Y1425486D01*
X926283Y1425145D01*
X924828Y1424172D01*
X923855Y1422717D01*
X923514Y1421000D01*
X923647Y1420329D01*
X922605Y1419059D01*
X916248D01*
X916172Y1419172D01*
X914717Y1420145D01*
X913000Y1420486D01*
X911283Y1420145D01*
X909828Y1419172D01*
X908855Y1417717D01*
X908514Y1416000D01*
X908855Y1414283D01*
X909828Y1412828D01*
X911283Y1411855D01*
X912347Y1411644D01*
X913514Y1411000D01*
X913855Y1409283D01*
X914828Y1407828D01*
X916283Y1406855D01*
X918000Y1406514D01*
X918644Y1405347D01*
X918855Y1404283D01*
X919828Y1402828D01*
X920575Y1402329D01*
X920189Y1401059D01*
X791000D01*
X789829Y1400826D01*
X788837Y1400163D01*
X788837Y1400163D01*
X757961Y1369286D01*
X756603Y1369725D01*
X756539Y1370125D01*
X757277Y1371229D01*
X757629Y1373000D01*
X757277Y1374771D01*
X756273Y1376273D01*
X754771Y1377277D01*
X753000Y1377629D01*
X751229Y1377277D01*
X749727Y1376273D01*
X748723Y1374771D01*
X748371Y1373000D01*
X748723Y1371229D01*
X749727Y1369727D01*
X749874Y1369628D01*
Y1355000D01*
X749433D01*
Y1351694D01*
X748163Y1351015D01*
X747771Y1351277D01*
X746000Y1351629D01*
X744229Y1351277D01*
X742727Y1350273D01*
X742329Y1349677D01*
X741059Y1350063D01*
Y1352000D01*
X742080D01*
Y1362000D01*
X742080D01*
Y1363000D01*
X742080D01*
Y1373000D01*
X741078D01*
Y1376311D01*
X791189Y1426422D01*
X915933D01*
X917494Y1426732D01*
X918817Y1427616D01*
X919701Y1428939D01*
X920011Y1430500D01*
Y1448750D01*
X921933D01*
Y1458250D01*
X909933D01*
Y1448750D01*
X911855D01*
Y1435870D01*
X911850Y1435867D01*
X910580Y1436536D01*
Y1445000D01*
X900960D01*
Y1445540D01*
X896690D01*
Y1440000D01*
X895420D01*
Y1438730D01*
X889880D01*
Y1434578D01*
X845318D01*
X844972Y1435000D01*
Y1449000D01*
X844972Y1449000D01*
Y1475000D01*
X844972Y1475000D01*
Y1483922D01*
X888422D01*
Y1467750D01*
X886933D01*
Y1458250D01*
X898933D01*
Y1467750D01*
X896578D01*
Y1484441D01*
X900420D01*
Y1482500D01*
X910040D01*
Y1481960D01*
X914310D01*
Y1487500D01*
Y1493040D01*
X910040D01*
Y1492500D01*
X900420D01*
Y1490559D01*
X895601D01*
X895384Y1490884D01*
X894061Y1491768D01*
X892500Y1492078D01*
X835500D01*
X835303Y1492039D01*
X793933D01*
X793153Y1491884D01*
X792491Y1491442D01*
X792049Y1490780D01*
X791894Y1490000D01*
Y1484000D01*
Y1475000D01*
Y1453569D01*
X790433D01*
Y1454750D01*
X778433D01*
Y1445250D01*
X790433D01*
Y1446431D01*
X791894D01*
Y1440000D01*
X791961Y1439663D01*
Y1435000D01*
X791615Y1434578D01*
X789500D01*
X789500Y1434578D01*
X787939Y1434268D01*
X786616Y1433384D01*
X734116Y1380884D01*
X733232Y1379561D01*
X732922Y1378000D01*
X732922Y1378000D01*
Y1373648D01*
X731920Y1373000D01*
X721920D01*
Y1371059D01*
X711000D01*
X709829Y1370826D01*
X708837Y1370163D01*
X708174Y1369171D01*
X707941Y1368000D01*
Y1321059D01*
X706000D01*
X704829Y1320826D01*
X703837Y1320163D01*
X703174Y1319171D01*
X702941Y1318000D01*
Y1315080D01*
X701000D01*
X701000Y1304948D01*
X699957Y1304254D01*
X699730Y1304285D01*
X698000Y1304629D01*
X696229Y1304277D01*
X694727Y1303273D01*
X693723Y1301771D01*
X693371Y1300000D01*
X693723Y1298229D01*
X694727Y1296727D01*
X696229Y1295723D01*
X698000Y1295371D01*
X699730Y1295715D01*
X699957Y1295746D01*
X700188Y1295592D01*
X701000Y1294920D01*
Y1294080D01*
X701000D01*
Y1285190D01*
X701000Y1284080D01*
X701000Y1282957D01*
X700102Y1282059D01*
X696000D01*
X694829Y1281826D01*
X693837Y1281163D01*
X692733Y1280059D01*
X645000D01*
X645000Y1340015D01*
X646173Y1340501D01*
X653837Y1332837D01*
X653837Y1332837D01*
X654829Y1332174D01*
X656000Y1331941D01*
X689584D01*
X689727Y1331727D01*
X691229Y1330723D01*
X693000Y1330371D01*
X694771Y1330723D01*
X696273Y1331727D01*
X697277Y1333229D01*
X697466Y1334182D01*
X697885Y1335115D01*
X698818Y1335534D01*
X699771Y1335723D01*
X701273Y1336727D01*
X702277Y1338229D01*
X702629Y1340000D01*
X702277Y1341771D01*
X701273Y1343273D01*
X699771Y1344277D01*
X698000Y1344629D01*
X697629Y1345000D01*
X697277Y1346771D01*
X696273Y1348273D01*
X694771Y1349277D01*
X693000Y1349629D01*
X691229Y1349277D01*
X689727Y1348273D01*
X689584Y1348059D01*
X659267D01*
X645000Y1362326D01*
Y1432961D01*
X751933D01*
X752713Y1433116D01*
X753375Y1433558D01*
X753817Y1434220D01*
X753972Y1435000D01*
Y1456441D01*
X755433D01*
Y1454750D01*
X767433D01*
X767941Y1453690D01*
Y1451334D01*
X761857Y1445250D01*
X755433D01*
Y1435750D01*
X767433D01*
Y1442174D01*
X773163Y1447904D01*
X773163Y1447904D01*
X773826Y1448896D01*
X774059Y1450067D01*
X774059Y1450067D01*
Y1468000D01*
X776080D01*
Y1478000D01*
X776080Y1478000D01*
X776371Y1479149D01*
X776826Y1479830D01*
X777059Y1481000D01*
X778136Y1481500D01*
X778750D01*
Y1493500D01*
X770149D01*
X769922Y1493677D01*
X769241Y1494766D01*
X769486Y1496000D01*
X769145Y1497717D01*
X768172Y1499172D01*
X768059Y1499248D01*
Y1504500D01*
X769250D01*
Y1516500D01*
X768059D01*
Y1520813D01*
X768246Y1521000D01*
X773540D01*
Y1520460D01*
X777810D01*
Y1526000D01*
Y1531540D01*
X773540D01*
Y1531000D01*
X763920D01*
Y1525326D01*
X762837Y1524243D01*
X762174Y1523250D01*
X761941Y1522080D01*
X761941Y1522080D01*
Y1516500D01*
X760059D01*
Y1574733D01*
X761730Y1576404D01*
X763000Y1575878D01*
Y1575000D01*
X778000D01*
Y1577441D01*
X822000D01*
Y1575000D01*
X837000D01*
Y1586000D01*
X822000D01*
Y1583559D01*
X778000D01*
Y1586000D01*
X763000D01*
Y1583559D01*
X761500D01*
X760330Y1583326D01*
X759337Y1582663D01*
X755242Y1578568D01*
X753972Y1579094D01*
Y1586000D01*
X753817Y1586780D01*
X753375Y1587442D01*
X752713Y1587884D01*
X751933Y1588039D01*
X698039D01*
Y1626933D01*
X697884Y1627713D01*
X697442Y1628375D01*
Y1629491D01*
X697884Y1630153D01*
X698039Y1630933D01*
Y1684933D01*
X697884Y1685713D01*
X697442Y1686375D01*
X696969Y1686691D01*
X697017Y1687493D01*
X697180Y1687961D01*
X700445D01*
X700830Y1686691D01*
X700558Y1686509D01*
X700116Y1685847D01*
X699961Y1685067D01*
Y1631067D01*
X700116Y1630287D01*
X700558Y1629625D01*
Y1628509D01*
X700116Y1627847D01*
X699961Y1627067D01*
Y1595000D01*
X700116Y1594220D01*
X700558Y1593558D01*
X701220Y1593116D01*
X702000Y1592961D01*
X711664D01*
X712000Y1592894D01*
X810000D01*
X810337Y1592961D01*
X822000D01*
X822780Y1593116D01*
X823442Y1593558D01*
X823884Y1594220D01*
X824039Y1595000D01*
Y1626933D01*
X823884Y1627713D01*
X823442Y1628375D01*
Y1629491D01*
X823884Y1630153D01*
X824039Y1630933D01*
Y1684933D01*
X823884Y1685713D01*
X823442Y1686375D01*
X822780Y1686817D01*
X822770Y1686819D01*
Y1688114D01*
X822780Y1688116D01*
X823442Y1688558D01*
X823884Y1689220D01*
X824039Y1690000D01*
Y1701412D01*
X895412D01*
Y1597004D01*
X894045Y1595955D01*
X892706Y1594211D01*
X891865Y1592180D01*
X891578Y1590000D01*
X891865Y1587820D01*
X892706Y1585789D01*
X894045Y1584045D01*
X895789Y1582706D01*
X897820Y1581865D01*
X900000Y1581578D01*
X902180Y1581865D01*
X904211Y1582706D01*
X905955Y1584045D01*
X907294Y1585789D01*
X908135Y1587820D01*
X908422Y1590000D01*
X908135Y1592180D01*
X907294Y1594211D01*
X905955Y1595955D01*
X904588Y1597004D01*
Y1706000D01*
X904239Y1707756D01*
X903244Y1709244D01*
X901756Y1710239D01*
X900000Y1710588D01*
X824039D01*
Y1719941D01*
X938412D01*
D02*
G37*
G36*
X1117874Y1569000D02*
X1116683D01*
Y1555000D01*
X1125183D01*
Y1569000D01*
X1123992D01*
Y1584941D01*
X1131976D01*
X1132793Y1583671D01*
X1132610Y1582750D01*
Y1572750D01*
X1132901Y1571287D01*
X1133729Y1570046D01*
X1134970Y1569218D01*
X1136433Y1568927D01*
X1137896Y1569218D01*
X1138933Y1569910D01*
X1139970Y1569218D01*
X1141433Y1568927D01*
X1142896Y1569218D01*
X1143933Y1569910D01*
X1144970Y1569218D01*
X1146433Y1568927D01*
X1147896Y1569218D01*
X1148933Y1569910D01*
X1149970Y1569218D01*
X1151433Y1568927D01*
X1152896Y1569218D01*
X1153933Y1569910D01*
X1154970Y1569218D01*
X1156433Y1568927D01*
X1157896Y1569218D01*
X1158933Y1569910D01*
X1159970Y1569218D01*
X1161433Y1568927D01*
X1162896Y1569218D01*
X1163933Y1569910D01*
X1164970Y1569218D01*
X1166433Y1568927D01*
X1167896Y1569218D01*
X1168933Y1569910D01*
X1169970Y1569218D01*
X1171433Y1568927D01*
X1172896Y1569218D01*
X1173933Y1569910D01*
X1174970Y1569218D01*
X1176433Y1568927D01*
X1177896Y1569218D01*
X1178933Y1569910D01*
X1179970Y1569218D01*
X1181433Y1568927D01*
X1182896Y1569218D01*
X1183933Y1569910D01*
X1184970Y1569218D01*
X1186433Y1568927D01*
X1187896Y1569218D01*
X1188933Y1569910D01*
X1189970Y1569218D01*
X1191433Y1568927D01*
X1192896Y1569218D01*
X1193933Y1569910D01*
X1194970Y1569218D01*
X1196433Y1568927D01*
X1197896Y1569218D01*
X1198933Y1569910D01*
X1199970Y1569218D01*
X1201433Y1568927D01*
X1202896Y1569218D01*
X1203933Y1569910D01*
X1204970Y1569218D01*
X1206433Y1568927D01*
X1207896Y1569218D01*
X1208933Y1569910D01*
X1209970Y1569218D01*
X1211433Y1568927D01*
X1212896Y1569218D01*
X1213933Y1569910D01*
X1214970Y1569218D01*
X1216433Y1568927D01*
X1217896Y1569218D01*
X1218933Y1569910D01*
X1219970Y1569218D01*
X1221433Y1568927D01*
X1222896Y1569218D01*
X1223933Y1569910D01*
X1224970Y1569218D01*
X1226112Y1568990D01*
X1226678Y1568091D01*
X1226788Y1567717D01*
X1226447Y1566000D01*
X1226788Y1564283D01*
X1227761Y1562828D01*
X1229216Y1561855D01*
X1230933Y1561514D01*
X1232650Y1561855D01*
X1234105Y1562828D01*
X1234761D01*
X1236216Y1561855D01*
X1237933Y1561514D01*
X1239650Y1561855D01*
X1241105Y1562828D01*
X1242246Y1562548D01*
X1243283Y1561855D01*
X1245000Y1561514D01*
X1246717Y1561855D01*
X1248172Y1562828D01*
X1249145Y1564283D01*
X1249486Y1566000D01*
X1271015D01*
X1271501Y1564827D01*
X1265733Y1559059D01*
X1199181D01*
X1199105Y1559172D01*
X1197650Y1560145D01*
X1195933Y1560486D01*
X1194216Y1560145D01*
X1192761Y1559172D01*
X1191788Y1557717D01*
X1191447Y1556000D01*
X1191788Y1554283D01*
X1192761Y1552828D01*
X1193374Y1552418D01*
Y1533874D01*
X1192104Y1532940D01*
X1191433Y1533073D01*
X1190974Y1532982D01*
X1189992Y1533788D01*
Y1535000D01*
X1189759Y1536171D01*
X1189096Y1537163D01*
X1188104Y1537826D01*
X1186933Y1538059D01*
X1176433D01*
X1175329Y1537839D01*
X1175246Y1537836D01*
X1174059Y1538549D01*
Y1552752D01*
X1174172Y1552828D01*
X1175145Y1554283D01*
X1175486Y1556000D01*
X1175145Y1557717D01*
X1174172Y1559172D01*
X1172717Y1560145D01*
X1171000Y1560486D01*
X1169283Y1560145D01*
X1167828Y1559172D01*
X1166855Y1557717D01*
X1166514Y1556000D01*
X1166855Y1554283D01*
X1167828Y1552828D01*
X1167941Y1552752D01*
Y1534068D01*
X1166671Y1533026D01*
X1166433Y1533073D01*
X1165262Y1532840D01*
X1163992Y1533540D01*
Y1534000D01*
X1163759Y1535170D01*
X1163096Y1536163D01*
X1162104Y1536826D01*
X1160933Y1537059D01*
X1151933D01*
X1150762Y1536826D01*
X1150762Y1536826D01*
X1149492Y1537504D01*
Y1542000D01*
X1149259Y1543170D01*
X1148596Y1544163D01*
X1147604Y1544826D01*
X1146433Y1545059D01*
X1125183D01*
Y1547000D01*
X1116683D01*
Y1539174D01*
X1116125Y1538873D01*
X1115413Y1538789D01*
X1115163Y1539163D01*
X1115163Y1539163D01*
X1092992Y1561334D01*
Y1566210D01*
X1095363D01*
Y1576000D01*
X1096633D01*
Y1577270D01*
X1100673D01*
Y1584941D01*
X1117874D01*
Y1569000D01*
D02*
G37*
G36*
X1284000Y1542000D02*
X1285941D01*
Y1520059D01*
X1267248D01*
X1267172Y1520172D01*
X1267059Y1520248D01*
Y1527000D01*
X1268393D01*
Y1526380D01*
X1272663D01*
Y1531920D01*
X1273933D01*
Y1533190D01*
X1279473D01*
Y1537460D01*
X1278933D01*
Y1544941D01*
X1284000D01*
Y1542000D01*
D02*
G37*
G36*
X1410730Y1500059D02*
X1320837D01*
X1319750Y1500500D01*
X1319750Y1501329D01*
Y1504941D01*
X1321752D01*
X1321828Y1504828D01*
X1323283Y1503855D01*
X1325000Y1503514D01*
X1326717Y1503855D01*
X1328172Y1504828D01*
X1329145Y1506283D01*
X1329486Y1508000D01*
X1329145Y1509717D01*
X1328172Y1511172D01*
X1326717Y1512145D01*
X1325000Y1512486D01*
X1323283Y1512145D01*
X1321828Y1511172D01*
X1321752Y1511059D01*
X1319750D01*
Y1512500D01*
X1310250D01*
X1310250Y1500500D01*
X1309163Y1500059D01*
X1261000D01*
Y1501540D01*
X1261540D01*
Y1505810D01*
X1256000D01*
Y1507080D01*
X1254730D01*
Y1512620D01*
X1250460D01*
Y1512620D01*
X1246203D01*
Y1507080D01*
X1243663D01*
Y1512620D01*
X1239473D01*
Y1512700D01*
X1235203D01*
Y1507160D01*
X1232663D01*
Y1512700D01*
X1228393D01*
Y1512540D01*
X1225283D01*
Y1507000D01*
Y1501460D01*
X1228933D01*
Y1492000D01*
X1228139Y1491059D01*
X1213248D01*
X1213172Y1491172D01*
X1211717Y1492145D01*
X1210000Y1492486D01*
X1208743Y1492236D01*
X1207473Y1493015D01*
Y1495650D01*
X1203203D01*
Y1491380D01*
X1205439D01*
X1206118Y1490110D01*
X1205855Y1489717D01*
X1205514Y1488000D01*
X1205855Y1486283D01*
X1206828Y1484828D01*
X1208283Y1483855D01*
X1210000Y1483514D01*
X1211717Y1483855D01*
X1213172Y1484828D01*
X1213248Y1484941D01*
X1234000D01*
X1235171Y1485174D01*
X1236163Y1485837D01*
X1236826Y1486830D01*
X1237059Y1488000D01*
Y1492000D01*
X1238933D01*
Y1492000D01*
X1239933Y1491920D01*
Y1491920D01*
X1240170Y1491920D01*
X1249933D01*
Y1491920D01*
X1251000Y1491920D01*
X1251702Y1491112D01*
X1251851Y1490873D01*
X1251842Y1490650D01*
X1251514Y1489000D01*
X1251855Y1487283D01*
X1252828Y1485828D01*
X1254283Y1484855D01*
X1256000Y1484514D01*
X1257717Y1484855D01*
X1259172Y1485828D01*
X1260145Y1487283D01*
X1260486Y1489000D01*
X1260158Y1490650D01*
X1260150Y1490873D01*
X1260800Y1491920D01*
X1261000D01*
Y1493941D01*
X1410730D01*
Y1395255D01*
X1409557Y1394769D01*
X1328163Y1476163D01*
X1327171Y1476826D01*
X1326000Y1477059D01*
X1326000Y1477059D01*
X1078065D01*
X1078058Y1488102D01*
X1078956Y1489000D01*
X1080080D01*
Y1499000D01*
X1080080D01*
Y1500000D01*
X1080080D01*
Y1509315D01*
X1081350Y1509566D01*
X1081837Y1508837D01*
X1091837Y1498837D01*
X1091837Y1498837D01*
X1092830Y1498174D01*
X1094000Y1497941D01*
X1094000Y1497941D01*
X1154752D01*
X1154828Y1497828D01*
X1156283Y1496855D01*
X1158000Y1496514D01*
X1159717Y1496855D01*
X1160671Y1497493D01*
X1161621Y1497124D01*
X1161962Y1496897D01*
X1162174Y1495829D01*
X1162837Y1494837D01*
X1163829Y1494174D01*
X1165000Y1493941D01*
X1165933D01*
Y1491920D01*
X1175933D01*
Y1501920D01*
X1175933D01*
Y1502080D01*
X1175933D01*
Y1505704D01*
X1175992Y1506000D01*
Y1509000D01*
X1175933Y1509296D01*
Y1512080D01*
X1174492D01*
Y1514626D01*
X1175762Y1515560D01*
X1176433Y1515426D01*
X1176934Y1515526D01*
X1177961Y1514435D01*
X1177874Y1514000D01*
Y1497000D01*
X1177874Y1497000D01*
X1178107Y1495829D01*
X1178770Y1494837D01*
X1178850Y1494757D01*
X1178850Y1494757D01*
X1179843Y1494094D01*
X1181013Y1493861D01*
X1182933D01*
Y1491920D01*
X1192933D01*
Y1501920D01*
X1192933D01*
Y1502080D01*
X1192933D01*
Y1505941D01*
X1194103Y1506174D01*
X1195096Y1506837D01*
X1195760Y1507501D01*
X1196933Y1507015D01*
Y1502460D01*
X1196393D01*
Y1498190D01*
X1201933D01*
X1207473D01*
Y1502460D01*
X1206933D01*
Y1512080D01*
X1204492D01*
Y1514626D01*
X1205762Y1515560D01*
X1206433Y1515426D01*
X1207107Y1515561D01*
X1207991Y1515565D01*
X1208556Y1514653D01*
X1208607Y1514396D01*
X1209270Y1513404D01*
X1209501Y1513173D01*
X1209015Y1512000D01*
X1208853D01*
Y1502000D01*
X1218473D01*
Y1501460D01*
X1222743D01*
Y1507000D01*
Y1512540D01*
X1218473D01*
Y1512000D01*
X1216992D01*
Y1513067D01*
X1216767Y1514198D01*
X1216761Y1514243D01*
X1217368Y1515612D01*
X1217896Y1515717D01*
X1218933Y1516410D01*
X1219970Y1515717D01*
X1221433Y1515426D01*
X1222896Y1515717D01*
X1223933Y1516410D01*
X1224970Y1515717D01*
X1226433Y1515426D01*
X1227896Y1515717D01*
X1228447Y1516086D01*
X1229759Y1515209D01*
X1230163Y1515128D01*
Y1518777D01*
X1230257Y1519250D01*
Y1524250D01*
X1232609D01*
Y1519250D01*
X1232703Y1518778D01*
Y1515128D01*
X1233107Y1515209D01*
X1234419Y1516086D01*
X1234970Y1515717D01*
X1236433Y1515426D01*
X1237896Y1515717D01*
X1238933Y1516410D01*
X1239970Y1515717D01*
X1241433Y1515426D01*
X1242896Y1515717D01*
X1244137Y1516546D01*
X1244965Y1517787D01*
X1245257Y1519250D01*
Y1529250D01*
X1245154Y1529766D01*
X1246297Y1530530D01*
X1246830Y1530174D01*
X1248000Y1529941D01*
X1248853Y1529100D01*
Y1527000D01*
X1258853D01*
Y1527000D01*
X1259013D01*
Y1527000D01*
X1260941D01*
Y1520248D01*
X1260828Y1520172D01*
X1259855Y1518717D01*
X1259514Y1517000D01*
X1259855Y1515283D01*
X1260786Y1513890D01*
X1260714Y1513540D01*
X1260349Y1512620D01*
X1257270D01*
Y1508350D01*
X1261540D01*
Y1511824D01*
X1261704Y1512052D01*
X1262751Y1512762D01*
X1264000Y1512514D01*
X1265717Y1512855D01*
X1267172Y1513828D01*
X1267248Y1513941D01*
X1289000D01*
X1290170Y1514174D01*
X1291163Y1514837D01*
X1291826Y1515829D01*
X1292059Y1517000D01*
Y1542000D01*
X1294000D01*
Y1545704D01*
X1294059Y1546000D01*
X1294000Y1546296D01*
Y1552000D01*
X1291197D01*
X1291000Y1552039D01*
X1290099D01*
X1290000Y1552059D01*
X1287000D01*
X1287000Y1552059D01*
X1286705Y1552000D01*
X1284000D01*
Y1551059D01*
X1275181D01*
X1274654Y1552329D01*
X1280267Y1557941D01*
X1282920D01*
Y1556000D01*
X1291810D01*
X1292920Y1556000D01*
X1294190Y1556000D01*
X1301941D01*
Y1550250D01*
X1297000D01*
Y1541750D01*
X1311000D01*
Y1550250D01*
X1308059D01*
Y1556000D01*
X1315810D01*
X1316920Y1556000D01*
X1318190Y1556000D01*
X1320374D01*
Y1550250D01*
X1319000D01*
Y1541750D01*
X1321941D01*
Y1535500D01*
X1319750D01*
Y1523500D01*
X1318663Y1523059D01*
X1311337D01*
X1310250Y1523500D01*
Y1535500D01*
X1300750D01*
Y1523500D01*
X1302941D01*
Y1520000D01*
X1303174Y1518829D01*
X1303837Y1517837D01*
X1304830Y1517174D01*
X1306000Y1516941D01*
X1336000D01*
X1337171Y1517174D01*
X1338163Y1517837D01*
X1338826Y1518829D01*
X1339059Y1520000D01*
Y1572000D01*
X1338826Y1573170D01*
X1338163Y1574163D01*
X1337171Y1574826D01*
X1336000Y1575059D01*
X1293080D01*
Y1577000D01*
X1284190D01*
X1283080Y1577000D01*
X1281810Y1577000D01*
X1275679D01*
X1275205Y1578109D01*
X1275939Y1579000D01*
X1366000Y1579000D01*
X1366000Y1597514D01*
X1366898Y1598412D01*
X1410730D01*
Y1500059D01*
D02*
G37*
G36*
X2336000Y1670000D02*
X2336000Y1482000D01*
X1541000Y1482001D01*
X1541000Y1670000D01*
X2336000Y1670000D01*
D02*
G37*
G36*
X1410730Y1341944D02*
Y1192437D01*
X1409460Y1191395D01*
X1409000Y1191486D01*
X1407283Y1191145D01*
X1405828Y1190172D01*
X1405752Y1190059D01*
X1091837Y1190059D01*
X1090750Y1191329D01*
Y1202500D01*
X1081250D01*
Y1202051D01*
X1079980Y1201620D01*
X1078955Y1202955D01*
X1077211Y1204294D01*
X1075180Y1205135D01*
X1073000Y1205422D01*
X1070820Y1205135D01*
X1068789Y1204294D01*
X1067045Y1202955D01*
X1065706Y1201211D01*
X1064865Y1199180D01*
X1064578Y1197000D01*
X1064865Y1194820D01*
X1065706Y1192789D01*
X1066827Y1191329D01*
X1066406Y1190059D01*
X1038044D01*
X1037250Y1191329D01*
Y1205000D01*
X1028750D01*
Y1191000D01*
X1027956Y1190059D01*
X935620D01*
Y1192730D01*
X930080D01*
Y1194000D01*
X928810D01*
Y1199540D01*
X924540D01*
Y1199000D01*
X923059D01*
Y1214733D01*
X954315Y1245990D01*
X955615Y1245493D01*
X955855Y1244283D01*
X956828Y1242828D01*
X958283Y1241855D01*
X960000Y1241514D01*
X961717Y1241855D01*
X963172Y1242828D01*
X963248Y1242941D01*
X1222752D01*
X1222828Y1242828D01*
X1224283Y1241855D01*
X1226000Y1241514D01*
X1227717Y1241855D01*
X1229172Y1242828D01*
X1230145Y1244283D01*
X1230486Y1246000D01*
X1230145Y1247717D01*
X1229172Y1249172D01*
X1227717Y1250145D01*
X1226653Y1250356D01*
X1225817Y1250817D01*
X1225356Y1251653D01*
X1225145Y1252717D01*
X1224172Y1254172D01*
X1222717Y1255145D01*
X1221000Y1255486D01*
X1219283Y1255145D01*
X1217828Y1254172D01*
X1217752Y1254059D01*
X1201395D01*
X1200353Y1255329D01*
X1200486Y1256000D01*
X1200353Y1256671D01*
X1201395Y1257941D01*
X1212752D01*
X1212828Y1257828D01*
X1214283Y1256855D01*
X1216000Y1256514D01*
X1217717Y1256855D01*
X1219172Y1257828D01*
X1220145Y1259283D01*
X1220486Y1261000D01*
X1220145Y1262717D01*
X1219172Y1264172D01*
X1217717Y1265145D01*
X1216000Y1265486D01*
X1214283Y1265145D01*
X1212828Y1264172D01*
X1212752Y1264059D01*
X1086395Y1264059D01*
X1085353Y1265329D01*
X1085486Y1266000D01*
X1085145Y1267717D01*
X1084172Y1269172D01*
X1082717Y1270145D01*
X1081000Y1270486D01*
X1080356Y1271653D01*
X1080145Y1272717D01*
X1079507Y1273671D01*
X1080133Y1274941D01*
X1108752D01*
X1108828Y1274828D01*
X1110283Y1273855D01*
X1112000Y1273514D01*
X1113717Y1273855D01*
X1115172Y1274828D01*
X1116145Y1276283D01*
X1116356Y1277347D01*
X1116817Y1278183D01*
X1117653Y1278644D01*
X1118717Y1278855D01*
X1120172Y1279828D01*
X1121145Y1281283D01*
X1121486Y1283000D01*
X1121145Y1284717D01*
X1120172Y1286172D01*
X1118717Y1287145D01*
X1117653Y1287356D01*
X1117027Y1287701D01*
X1116649Y1288980D01*
X1117400Y1289941D01*
X1118752D01*
X1118828Y1289828D01*
X1120283Y1288855D01*
X1122000Y1288514D01*
X1123717Y1288855D01*
X1125172Y1289828D01*
X1126145Y1291283D01*
X1126486Y1293000D01*
X1126145Y1294717D01*
X1125172Y1296172D01*
X1123717Y1297145D01*
X1122000Y1297486D01*
X1120283Y1297145D01*
X1118828Y1296172D01*
X1118752Y1296059D01*
X1054395Y1296059D01*
X1053353Y1297329D01*
X1053486Y1298000D01*
X1053145Y1299717D01*
X1052861Y1300142D01*
X1053540Y1301412D01*
X1087000D01*
X1088756Y1301761D01*
X1090244Y1302756D01*
X1091239Y1304244D01*
X1091588Y1306000D01*
X1091239Y1307756D01*
X1090244Y1309244D01*
X1088756Y1310239D01*
X1087000Y1310588D01*
X1071540D01*
X1070861Y1311858D01*
X1071145Y1312283D01*
X1071486Y1314000D01*
X1071145Y1315717D01*
X1070172Y1317172D01*
X1068717Y1318145D01*
X1067000Y1318486D01*
X1065283Y1318145D01*
X1063828Y1317172D01*
X1063752Y1317059D01*
X1028135D01*
X1027967Y1317092D01*
X1027798Y1317059D01*
X973248D01*
X973172Y1317172D01*
X971717Y1318145D01*
X970000Y1318486D01*
X968283Y1318145D01*
X966828Y1317172D01*
X965855Y1315717D01*
X965514Y1314000D01*
X965855Y1312283D01*
X966139Y1311858D01*
X965460Y1310588D01*
X951588D01*
Y1331460D01*
X952858Y1332139D01*
X953283Y1331855D01*
X955000Y1331514D01*
X956717Y1331855D01*
X958172Y1332828D01*
X959145Y1334283D01*
X959353Y1335328D01*
X960647D01*
X960855Y1334283D01*
X961828Y1332828D01*
X963283Y1331855D01*
X964328Y1331647D01*
Y1330353D01*
X963283Y1330145D01*
X961828Y1329172D01*
X960855Y1327717D01*
X960514Y1326000D01*
X960855Y1324283D01*
X961828Y1322828D01*
X963283Y1321855D01*
X965000Y1321514D01*
X966717Y1321855D01*
X968172Y1322828D01*
X968248Y1322941D01*
X979752D01*
X979828Y1322828D01*
X981283Y1321855D01*
X983000Y1321514D01*
X984717Y1321855D01*
X986172Y1322828D01*
X987145Y1324283D01*
X987486Y1326000D01*
X987145Y1327717D01*
X986172Y1329172D01*
X984717Y1330145D01*
X983000Y1330486D01*
X981283Y1330145D01*
X979828Y1329172D01*
X979752Y1329059D01*
X968248D01*
X968172Y1329172D01*
X966717Y1330145D01*
X965672Y1330353D01*
Y1331647D01*
X966717Y1331855D01*
X968172Y1332828D01*
X968248Y1332941D01*
X971752D01*
X971828Y1332828D01*
X973283Y1331855D01*
X975000Y1331514D01*
X976717Y1331855D01*
X978172Y1332828D01*
X978248Y1332941D01*
X983000D01*
X983500Y1333041D01*
X984000Y1332941D01*
X1131000Y1332941D01*
X1131000Y1332941D01*
X1132170Y1333174D01*
X1133163Y1333837D01*
X1138267Y1338941D01*
X1145000D01*
Y1337750D01*
X1153686D01*
X1154365Y1336480D01*
X1153855Y1335717D01*
X1153514Y1334000D01*
X1153855Y1332283D01*
X1154828Y1330828D01*
X1156283Y1329855D01*
X1158000Y1329514D01*
X1159717Y1329855D01*
X1161172Y1330828D01*
X1161248Y1330941D01*
X1170941D01*
Y1328250D01*
X1167000D01*
Y1322059D01*
X1159000D01*
Y1328250D01*
X1145000D01*
Y1327059D01*
X1079248D01*
X1079172Y1327172D01*
X1077717Y1328145D01*
X1076000Y1328486D01*
X1074283Y1328145D01*
X1072828Y1327172D01*
X1071855Y1325717D01*
X1071514Y1324000D01*
X1071855Y1322283D01*
X1072828Y1320828D01*
X1074283Y1319855D01*
X1076000Y1319514D01*
X1077717Y1319855D01*
X1079172Y1320828D01*
X1079248Y1320941D01*
X1081605D01*
X1082647Y1319671D01*
X1082514Y1319000D01*
X1082855Y1317283D01*
X1083828Y1315828D01*
X1085283Y1314855D01*
X1087000Y1314514D01*
X1088717Y1314855D01*
X1090172Y1315828D01*
X1090248Y1315941D01*
X1260000D01*
X1260000Y1315941D01*
X1260000Y1315941D01*
X1260752D01*
X1260828Y1315828D01*
X1262283Y1314855D01*
X1264000Y1314514D01*
X1265717Y1314855D01*
X1267172Y1315828D01*
X1268145Y1317283D01*
X1268486Y1319000D01*
X1268145Y1320717D01*
X1267172Y1322172D01*
X1265717Y1323145D01*
X1264000Y1323486D01*
X1262283Y1323145D01*
X1260828Y1322172D01*
X1260752Y1322059D01*
X1181000D01*
Y1328250D01*
X1177059D01*
Y1337750D01*
X1181000D01*
Y1346250D01*
X1167000D01*
Y1337750D01*
X1166016Y1337059D01*
X1161248D01*
X1161172Y1337172D01*
X1159717Y1338145D01*
X1159000Y1338287D01*
Y1346250D01*
X1145000D01*
Y1345059D01*
X1137000D01*
X1137000Y1345059D01*
X1135829Y1344826D01*
X1134837Y1344163D01*
X1134837Y1344163D01*
X1129733Y1339059D01*
X1097400D01*
X1096648Y1340020D01*
X1097027Y1341299D01*
X1097653Y1341644D01*
X1098717Y1341855D01*
X1100172Y1342828D01*
X1101145Y1344283D01*
X1101486Y1346000D01*
X1101353Y1346671D01*
X1102395Y1347941D01*
X1123752D01*
X1123828Y1347828D01*
X1125283Y1346855D01*
X1127000Y1346514D01*
X1128717Y1346855D01*
X1130172Y1347828D01*
X1131145Y1349283D01*
X1131486Y1351000D01*
X1131477Y1351047D01*
X1132401Y1352215D01*
X1133414Y1352260D01*
X1134837Y1350837D01*
X1134837Y1350837D01*
X1135829Y1350174D01*
X1137000Y1349941D01*
X1137000Y1349941D01*
X1239752D01*
X1239828Y1349828D01*
X1241283Y1348855D01*
X1243000Y1348514D01*
X1244717Y1348855D01*
X1246172Y1349828D01*
X1247145Y1351283D01*
X1247486Y1353000D01*
X1247145Y1354717D01*
X1246172Y1356172D01*
X1244717Y1357145D01*
X1243000Y1357486D01*
X1241283Y1357145D01*
X1239828Y1356172D01*
X1239752Y1356059D01*
X1173395D01*
X1172353Y1357329D01*
X1172486Y1358000D01*
X1172192Y1359480D01*
X1172645Y1360334D01*
X1172982Y1360750D01*
X1181000D01*
Y1369250D01*
X1167000D01*
Y1364326D01*
X1165837Y1363163D01*
X1165174Y1362171D01*
X1164998Y1361286D01*
X1164828Y1361172D01*
X1163855Y1359717D01*
X1163514Y1358000D01*
X1163647Y1357329D01*
X1162605Y1356059D01*
X1138267D01*
X1136163Y1358163D01*
X1135171Y1358826D01*
X1134000Y1359059D01*
X1134000Y1359059D01*
X1107631D01*
X1106791Y1360079D01*
X1107027Y1361299D01*
X1107653Y1361644D01*
X1108717Y1361855D01*
X1110172Y1362828D01*
X1111145Y1364283D01*
X1111486Y1366000D01*
X1111353Y1366671D01*
X1112395Y1367941D01*
X1143047D01*
X1143874Y1367067D01*
X1144107Y1365896D01*
X1144770Y1364904D01*
X1145000Y1364674D01*
Y1360750D01*
X1159000D01*
Y1369250D01*
X1152366D01*
X1151360Y1370475D01*
X1151933Y1371514D01*
X1153650Y1371855D01*
X1155105Y1372828D01*
X1156078Y1374283D01*
X1156419Y1376000D01*
X1156078Y1377717D01*
X1155568Y1378480D01*
X1156246Y1379750D01*
X1159000D01*
Y1379955D01*
X1160270Y1380532D01*
X1161283Y1379855D01*
X1163000Y1379514D01*
X1164717Y1379855D01*
X1165730Y1380532D01*
X1167000Y1379955D01*
Y1379750D01*
X1181000D01*
Y1388250D01*
X1167000D01*
Y1388045D01*
X1165730Y1387468D01*
X1164717Y1388145D01*
X1163000Y1388486D01*
X1161283Y1388145D01*
X1160270Y1387468D01*
X1159000Y1388045D01*
Y1388250D01*
X1145000D01*
Y1379750D01*
X1144016Y1379059D01*
X983933D01*
X983933Y1379059D01*
X890267D01*
X881163Y1388163D01*
X880171Y1388826D01*
X879000Y1389059D01*
X879000Y1389059D01*
X788044D01*
X787558Y1390232D01*
X792267Y1394941D01*
X898867D01*
X899493Y1393671D01*
X898855Y1392717D01*
X898514Y1391000D01*
X897347Y1390356D01*
X896283Y1390145D01*
X894828Y1389172D01*
X893855Y1387717D01*
X893514Y1386000D01*
X893855Y1384283D01*
X894828Y1382828D01*
X896283Y1381855D01*
X898000Y1381514D01*
X899717Y1381855D01*
X901172Y1382828D01*
X901248Y1382941D01*
X1133685D01*
X1133761Y1382828D01*
X1135216Y1381855D01*
X1136933Y1381514D01*
X1138650Y1381855D01*
X1140105Y1382828D01*
X1141078Y1384283D01*
X1141419Y1386000D01*
X1141078Y1387717D01*
X1140105Y1389172D01*
X1138650Y1390145D01*
X1137586Y1390356D01*
X1136750Y1390817D01*
X1136289Y1391653D01*
X1136087Y1392671D01*
X1136060Y1392898D01*
X1136741Y1393941D01*
X1198752D01*
X1198828Y1393828D01*
X1200283Y1392855D01*
X1202000Y1392514D01*
X1203717Y1392855D01*
X1205172Y1393828D01*
X1206145Y1395283D01*
X1206486Y1397000D01*
X1206145Y1398717D01*
X1206036Y1398880D01*
X1206634Y1400000D01*
X1213080D01*
Y1401941D01*
X1350733D01*
X1410730Y1341944D01*
D02*
G37*
G36*
X853442Y1366768D02*
X841837Y1355163D01*
X841174Y1354171D01*
X840941Y1353000D01*
X840941Y1353000D01*
Y1340267D01*
X831733Y1331059D01*
X830183D01*
Y1331250D01*
X830183D01*
Y1336250D01*
X826992D01*
Y1347000D01*
Y1356000D01*
X828540D01*
Y1355460D01*
X832810D01*
Y1361000D01*
Y1366540D01*
X828540D01*
Y1366000D01*
X818920D01*
Y1356000D01*
X820874D01*
Y1350059D01*
X811433D01*
Y1355000D01*
X806973D01*
Y1355540D01*
X803458D01*
X802972Y1356713D01*
X814200Y1367941D01*
X852956D01*
X853442Y1366768D01*
D02*
G37*
G36*
X804203Y1338460D02*
X806973D01*
Y1339000D01*
X809015D01*
X809501Y1337827D01*
X808837Y1337163D01*
X808174Y1336171D01*
X807941Y1335000D01*
X807941Y1335000D01*
Y1319267D01*
X792500Y1303826D01*
X762494Y1333832D01*
X763139Y1334982D01*
X764103Y1335174D01*
X765096Y1335837D01*
X765759Y1336830D01*
X765992Y1338000D01*
Y1339000D01*
X783893D01*
Y1338460D01*
X786663D01*
Y1347000D01*
X789203D01*
Y1338460D01*
X791973D01*
Y1339000D01*
X798893D01*
Y1338460D01*
X801663D01*
Y1347000D01*
X804203D01*
Y1338460D01*
D02*
G37*
G36*
X728190Y1351460D02*
X732460D01*
Y1352000D01*
X734941D01*
Y1336250D01*
X730683D01*
Y1331790D01*
X730143D01*
Y1329020D01*
X738683D01*
Y1326480D01*
X730143D01*
Y1326059D01*
X721059D01*
Y1350323D01*
X721380Y1351460D01*
X725650D01*
Y1357000D01*
X728190D01*
Y1351460D01*
D02*
G37*
G36*
X882500Y1338066D02*
X882727Y1337727D01*
X884229Y1336723D01*
X886000Y1336371D01*
X887771Y1336723D01*
X888730Y1337364D01*
X890000Y1336703D01*
Y1323000D01*
X891941D01*
Y1301063D01*
X890671Y1300677D01*
X890273Y1301273D01*
X888771Y1302277D01*
X887000Y1302629D01*
X885229Y1302277D01*
X883727Y1301273D01*
X882723Y1299771D01*
X882371Y1298000D01*
X882723Y1296229D01*
X883727Y1294727D01*
X883941Y1294584D01*
Y1266334D01*
X882823Y1265216D01*
X881582Y1265730D01*
X876013D01*
Y1267000D01*
X874743D01*
Y1272540D01*
X870473D01*
Y1272000D01*
X867912D01*
Y1274000D01*
X877933D01*
Y1295000D01*
X868059D01*
Y1301000D01*
X868059Y1301000D01*
X867826Y1302171D01*
X867163Y1303163D01*
X867163Y1303163D01*
X860596Y1309730D01*
X861122Y1311000D01*
X877933D01*
Y1332000D01*
X879012Y1332460D01*
X880553D01*
Y1338118D01*
X880802Y1338321D01*
X882500Y1338066D01*
D02*
G37*
G36*
X730683Y1298789D02*
Y1294250D01*
Y1284250D01*
Y1274250D01*
X735941D01*
Y1272416D01*
X735727Y1272273D01*
X734723Y1270771D01*
X734371Y1269000D01*
X734723Y1267229D01*
X735727Y1265727D01*
X737229Y1264723D01*
X739000Y1264371D01*
X740559Y1264681D01*
X741061Y1264136D01*
X741308Y1263634D01*
X731837Y1254163D01*
X731174Y1253170D01*
X730941Y1252000D01*
X730941Y1252000D01*
Y1221000D01*
X730941Y1221000D01*
X731174Y1219829D01*
X731837Y1218837D01*
X742837Y1207837D01*
X743829Y1207174D01*
X745000Y1206941D01*
X745000Y1206941D01*
X807000D01*
Y1205750D01*
X821000D01*
Y1214250D01*
X807000D01*
Y1213059D01*
X746267D01*
X740136Y1219190D01*
X740662Y1220460D01*
X743583D01*
Y1224730D01*
X739313D01*
Y1221809D01*
X738043Y1221283D01*
X737059Y1222267D01*
Y1250733D01*
X745267Y1258941D01*
X749433D01*
Y1255500D01*
X753893D01*
Y1254960D01*
X756663D01*
Y1263500D01*
X759203D01*
Y1254960D01*
X759874D01*
Y1252200D01*
X750837Y1243163D01*
X750174Y1242170D01*
X749941Y1241000D01*
X749941Y1241000D01*
Y1239416D01*
X749727Y1239273D01*
X748723Y1237771D01*
X748371Y1236000D01*
X748723Y1234229D01*
X749671Y1232810D01*
X749575Y1232373D01*
X749217Y1231540D01*
X746123D01*
Y1226000D01*
Y1220460D01*
X750393D01*
Y1221000D01*
X760013D01*
Y1222941D01*
X762000D01*
X762000Y1222941D01*
X763170Y1223174D01*
X764163Y1223837D01*
X770163Y1229837D01*
X770163Y1229837D01*
X770826Y1230829D01*
X771000Y1231703D01*
X771768Y1232181D01*
X772329Y1232325D01*
X773229Y1231723D01*
X775000Y1231371D01*
X776771Y1231723D01*
X778273Y1232727D01*
X778727D01*
X780229Y1231723D01*
X782000Y1231371D01*
X783771Y1231723D01*
X785273Y1232727D01*
X786277Y1234229D01*
X786629Y1236000D01*
X786567Y1236311D01*
X787738Y1236937D01*
X807837Y1216837D01*
X807837Y1216837D01*
X808829Y1216174D01*
X810000Y1215941D01*
X810000Y1215941D01*
X914000D01*
X914000Y1215941D01*
X915171Y1216174D01*
X915759Y1216567D01*
X916628Y1216150D01*
X916940Y1215891D01*
X916941Y1215890D01*
Y1199000D01*
X914920D01*
Y1197059D01*
X911080D01*
Y1199000D01*
X901080D01*
Y1199000D01*
X900920D01*
Y1199000D01*
X890920D01*
Y1197059D01*
X888000D01*
X886830Y1196826D01*
X886018Y1196284D01*
X885000Y1196486D01*
X883283Y1196145D01*
X881828Y1195172D01*
X881752Y1195059D01*
X860063D01*
X859678Y1196329D01*
X860273Y1196727D01*
X861277Y1198229D01*
X861629Y1200000D01*
X861277Y1201771D01*
X860273Y1203273D01*
X858771Y1204277D01*
X857000Y1204629D01*
X856747Y1204579D01*
X849163Y1212163D01*
X848170Y1212826D01*
X847000Y1213059D01*
X847000Y1213059D01*
X843000D01*
Y1214250D01*
X829000D01*
Y1205750D01*
X843000D01*
Y1206941D01*
X845733D01*
X852421Y1200253D01*
X852371Y1200000D01*
X852723Y1198229D01*
X853727Y1196727D01*
X854323Y1196329D01*
X853937Y1195059D01*
X843000D01*
Y1196250D01*
X829000D01*
Y1187750D01*
X843000D01*
Y1188941D01*
X844605D01*
X845647Y1187671D01*
X845514Y1187000D01*
X845855Y1185283D01*
X846828Y1183828D01*
X848283Y1182855D01*
X850000Y1182514D01*
X851376Y1182787D01*
X852326Y1182130D01*
X852538Y1181877D01*
X852855Y1180283D01*
X853828Y1178828D01*
X855283Y1177855D01*
X857000Y1177514D01*
X858717Y1177855D01*
X860172Y1178828D01*
X860248Y1178941D01*
X1047192D01*
X1047873Y1177898D01*
X1047846Y1177671D01*
X1047514Y1176000D01*
X1047842Y1174348D01*
X1047852Y1174125D01*
X1047201Y1173078D01*
X906000D01*
X906000Y1173078D01*
X904439Y1172768D01*
X903116Y1171884D01*
X893311Y1162078D01*
X757068D01*
X756771Y1162277D01*
X755000Y1162629D01*
X753229Y1162277D01*
X751727Y1161273D01*
X750723Y1159771D01*
X750371Y1158000D01*
X750505Y1157329D01*
X749462Y1156059D01*
X656000D01*
X654829Y1155826D01*
X653837Y1155163D01*
X653174Y1154171D01*
X652941Y1153000D01*
Y1152941D01*
X645000D01*
Y1268941D01*
X717000D01*
X718170Y1269174D01*
X719163Y1269837D01*
X719826Y1270829D01*
X720059Y1272000D01*
Y1273920D01*
X722000D01*
Y1282810D01*
X722000Y1283920D01*
X722000Y1285190D01*
Y1294080D01*
X722000D01*
Y1294920D01*
X722812Y1295592D01*
X723043Y1295746D01*
X723270Y1295715D01*
X725000Y1295371D01*
X726771Y1295723D01*
X728273Y1296727D01*
X729277Y1298229D01*
X729413Y1298914D01*
X730683Y1298789D01*
D02*
G37*
G36*
X805598Y1306476D02*
X805304Y1305000D01*
X805656Y1303229D01*
X806660Y1301727D01*
Y1301273D01*
X805656Y1299771D01*
X805304Y1298000D01*
X805656Y1296229D01*
X806660Y1294727D01*
X808161Y1293723D01*
X809933Y1293371D01*
X811704Y1293723D01*
X812913Y1294531D01*
X813924Y1294169D01*
X814183Y1293968D01*
Y1289250D01*
X814183D01*
Y1284250D01*
Y1274872D01*
X812913Y1274346D01*
X812096Y1275163D01*
X811104Y1275826D01*
X809933Y1276059D01*
X809933Y1276059D01*
X796059D01*
Y1298733D01*
X804543Y1307218D01*
X805598Y1306476D01*
D02*
G37*
G36*
X833544Y1270130D02*
X833723Y1269229D01*
X834727Y1267727D01*
X836229Y1266723D01*
X838000Y1266371D01*
X839771Y1266723D01*
X841273Y1267727D01*
X841570Y1268172D01*
X842727Y1268727D01*
X843159Y1268438D01*
X844229Y1267723D01*
X846000Y1267371D01*
X846253Y1267421D01*
X854583Y1259091D01*
Y1258081D01*
X853933Y1257080D01*
X843933D01*
Y1247080D01*
X843933D01*
Y1246920D01*
X843933D01*
Y1244979D01*
X841933D01*
Y1246540D01*
X842473D01*
Y1250810D01*
X836933D01*
X831393D01*
Y1246540D01*
X831933D01*
Y1241052D01*
X830760Y1240566D01*
X823992Y1247334D01*
Y1266000D01*
X823992Y1266000D01*
X823759Y1267170D01*
X823096Y1268163D01*
X823096Y1268163D01*
X820096Y1271163D01*
X819103Y1271826D01*
X817933Y1272059D01*
X817933Y1272059D01*
X815200D01*
X814279Y1272980D01*
X814805Y1274250D01*
X829424D01*
X833544Y1270130D01*
D02*
G37*
G36*
X1690000Y1122500D02*
Y1187500D01*
X1770000D01*
X1690000Y1122500D01*
D02*
G37*
G36*
X1419000Y1033000D02*
X1412000D01*
X1419000Y1040000D01*
Y1033000D01*
D02*
G37*
G36*
X890000Y1010000D02*
X835000D01*
Y1030000D01*
X910000D01*
X890000Y1010000D01*
D02*
G37*
G36*
X1039000Y974000D02*
X1023000D01*
X996000Y1001000D01*
X996000Y1004000D01*
X1039000D01*
Y974000D01*
D02*
G37*
G36*
X1389000Y963000D02*
X1365000D01*
Y981000D01*
X1389000Y963000D01*
D02*
G37*
G36*
X1545000Y965000D02*
X1525000Y945000D01*
Y1035000D01*
X1545000D01*
Y965000D01*
D02*
G37*
G36*
X1279000Y920000D02*
X1209000Y990000D01*
Y1005000D01*
X1279000Y1005000D01*
Y920000D01*
D02*
G37*
%LPC*%
G36*
X837540Y1549540D02*
X830770D01*
Y1544770D01*
X837540D01*
Y1549540D01*
D02*
G37*
G36*
X778540D02*
X771770D01*
Y1544770D01*
X778540D01*
Y1549540D01*
D02*
G37*
G36*
X828230D02*
X821460D01*
Y1544770D01*
X828230D01*
Y1549540D01*
D02*
G37*
G36*
X769230D02*
X762460D01*
Y1544770D01*
X769230D01*
Y1549540D01*
D02*
G37*
G36*
X837540Y1542230D02*
X830770D01*
Y1537460D01*
X837540D01*
Y1542230D01*
D02*
G37*
G36*
X828230D02*
X821460D01*
Y1537460D01*
X828230D01*
Y1542230D01*
D02*
G37*
G36*
X778540D02*
X771770D01*
Y1537460D01*
X778540D01*
Y1542230D01*
D02*
G37*
G36*
X769230D02*
X762460D01*
Y1537460D01*
X769230D01*
Y1542230D01*
D02*
G37*
G36*
X784620Y1531540D02*
X780350D01*
Y1527270D01*
X784620D01*
Y1531540D01*
D02*
G37*
G36*
Y1524730D02*
X780350D01*
Y1520460D01*
X784620D01*
Y1524730D01*
D02*
G37*
G36*
X788790Y1517040D02*
X784770D01*
Y1511770D01*
X788790D01*
Y1517040D01*
D02*
G37*
G36*
X782230D02*
X778210D01*
Y1511770D01*
X782230D01*
Y1517040D01*
D02*
G37*
G36*
X788790Y1509230D02*
X784770D01*
Y1503960D01*
X788790D01*
Y1509230D01*
D02*
G37*
G36*
X782230D02*
X778210D01*
Y1503960D01*
X782230D01*
Y1509230D01*
D02*
G37*
G36*
X1049203Y1499620D02*
Y1495350D01*
X1053473D01*
Y1499620D01*
X1049203D01*
D02*
G37*
G36*
X921120Y1493040D02*
X916850D01*
Y1488770D01*
X921120D01*
Y1493040D01*
D02*
G37*
G36*
Y1486230D02*
X916850D01*
Y1481960D01*
X921120D01*
Y1486230D01*
D02*
G37*
G36*
X922473Y1477790D02*
X917203D01*
Y1473770D01*
X922473D01*
Y1477790D01*
D02*
G37*
G36*
X914663D02*
X909393D01*
Y1473770D01*
X914663D01*
Y1477790D01*
D02*
G37*
G36*
X922473Y1471230D02*
X917203D01*
Y1467210D01*
X922473D01*
Y1471230D01*
D02*
G37*
G36*
X914663D02*
X909393D01*
Y1467210D01*
X914663D01*
Y1471230D01*
D02*
G37*
G36*
X872973Y1474540D02*
X866203D01*
Y1463270D01*
X872973D01*
Y1474540D01*
D02*
G37*
G36*
X863663D02*
X856893D01*
Y1463270D01*
X863663D01*
Y1474540D01*
D02*
G37*
G36*
X957250Y1471500D02*
X947750D01*
Y1459500D01*
X957250D01*
Y1461941D01*
X961752D01*
X961828Y1461828D01*
X963283Y1460855D01*
X965000Y1460514D01*
X966717Y1460855D01*
X968172Y1461828D01*
X969145Y1463283D01*
X969486Y1465000D01*
X969145Y1466717D01*
X968172Y1468172D01*
X966717Y1469145D01*
X965000Y1469486D01*
X963283Y1469145D01*
X961828Y1468172D01*
X961752Y1468059D01*
X957250D01*
Y1471500D01*
D02*
G37*
G36*
X872973Y1460730D02*
X866203D01*
Y1449460D01*
X872973D01*
Y1460730D01*
D02*
G37*
G36*
X863663D02*
X856893D01*
Y1449460D01*
X863663D01*
Y1460730D01*
D02*
G37*
G36*
X1136547Y1453486D02*
X1134830Y1453145D01*
X1133375Y1452172D01*
X1132402Y1450717D01*
X1132061Y1449000D01*
X1132402Y1447283D01*
X1133375Y1445828D01*
X1134830Y1444855D01*
X1136547Y1444514D01*
X1138264Y1444855D01*
X1139719Y1445828D01*
X1139795Y1445941D01*
X1145000D01*
Y1444750D01*
X1159000D01*
Y1453250D01*
X1145000D01*
Y1452059D01*
X1139795D01*
X1139719Y1452172D01*
X1138264Y1453145D01*
X1136547Y1453486D01*
D02*
G37*
G36*
X894150Y1445540D02*
X889880D01*
Y1441270D01*
X894150D01*
Y1445540D01*
D02*
G37*
G36*
X1214540Y1419650D02*
X1210270D01*
Y1415380D01*
X1214540D01*
Y1419650D01*
D02*
G37*
G36*
X1100673Y1574730D02*
X1097903D01*
Y1566210D01*
X1100673D01*
Y1574730D01*
D02*
G37*
G36*
X1279473Y1530650D02*
X1275203D01*
Y1526380D01*
X1279473D01*
Y1530650D01*
D02*
G37*
G36*
X1200663Y1495650D02*
X1196393D01*
Y1491380D01*
X1200663D01*
Y1495650D01*
D02*
G37*
G36*
X1067000Y1233629D02*
X1065229Y1233277D01*
X1063727Y1232273D01*
X1062723Y1230771D01*
X1062371Y1229000D01*
X1062587Y1227913D01*
X1059674Y1225000D01*
X1055080Y1225000D01*
X1053810Y1225000D01*
X1044920D01*
Y1223059D01*
X1037250D01*
Y1227000D01*
X1028750D01*
Y1213000D01*
X1037250D01*
Y1216941D01*
X1044920D01*
Y1215000D01*
X1053810D01*
X1054920Y1215000D01*
X1056190Y1215000D01*
X1065080D01*
Y1221754D01*
X1067870Y1224544D01*
X1068771Y1224723D01*
X1070273Y1225727D01*
X1070577Y1225760D01*
X1071655Y1225509D01*
X1071750Y1225284D01*
Y1213500D01*
X1081250D01*
Y1225500D01*
X1080481D01*
X1079802Y1226770D01*
X1080145Y1227283D01*
X1080486Y1229000D01*
X1080145Y1230717D01*
X1079172Y1232172D01*
X1077717Y1233145D01*
X1076000Y1233486D01*
X1074283Y1233145D01*
X1072828Y1232172D01*
X1072340Y1231442D01*
X1070820Y1231454D01*
X1070273Y1232273D01*
X1068771Y1233277D01*
X1067000Y1233629D01*
D02*
G37*
G36*
X1087000Y1233486D02*
X1085283Y1233145D01*
X1083828Y1232172D01*
X1082855Y1230717D01*
X1082514Y1229000D01*
X1082855Y1227283D01*
X1082922Y1227184D01*
Y1223000D01*
X1082922Y1223000D01*
X1083232Y1221439D01*
X1084116Y1220116D01*
X1088116Y1216116D01*
X1088116Y1216116D01*
X1089439Y1215232D01*
X1090750Y1214971D01*
Y1213500D01*
X1100250D01*
Y1225500D01*
X1091078D01*
Y1227184D01*
X1091145Y1227283D01*
X1091486Y1229000D01*
X1091145Y1230717D01*
X1090172Y1232172D01*
X1088717Y1233145D01*
X1087000Y1233486D01*
D02*
G37*
G36*
X935620Y1199540D02*
X931350D01*
Y1195270D01*
X935620D01*
Y1199540D01*
D02*
G37*
G36*
X839620Y1366540D02*
X835350D01*
Y1362270D01*
X839620D01*
Y1366540D01*
D02*
G37*
G36*
Y1359730D02*
X835350D01*
Y1355460D01*
X839620D01*
Y1359730D01*
D02*
G37*
G36*
X881553Y1272540D02*
X877283D01*
Y1268270D01*
X881553D01*
Y1272540D01*
D02*
G37*
G36*
X743583Y1231540D02*
X739313D01*
Y1227270D01*
X743583D01*
Y1231540D01*
D02*
G37*
G36*
X804000Y1201039D02*
X776000D01*
X775220Y1200884D01*
X774558Y1200442D01*
X774116Y1199780D01*
X773961Y1199000D01*
Y1185000D01*
X774116Y1184220D01*
X774558Y1183558D01*
X775220Y1183116D01*
X776000Y1182961D01*
X804000D01*
X804780Y1183116D01*
X805442Y1183558D01*
X805884Y1184220D01*
X806039Y1185000D01*
Y1187004D01*
X807000Y1187750D01*
X821000D01*
Y1196250D01*
X807000D01*
X806039Y1196996D01*
Y1199000D01*
X805884Y1199780D01*
X805442Y1200442D01*
X804780Y1200884D01*
X804000Y1201039D01*
D02*
G37*
G36*
X842473Y1257620D02*
X838203D01*
Y1253350D01*
X842473D01*
Y1257620D01*
D02*
G37*
G36*
X835663D02*
X831393D01*
Y1253350D01*
X835663D01*
Y1257620D01*
D02*
G37*
%LPD*%
D11*
X965000Y1326000D02*
X983000D01*
X822183Y1318000D02*
X836000D01*
X738683Y1293000D02*
X779933D01*
X975000Y1336000D02*
X983000D01*
X965000D02*
X975000D01*
X1059000Y1220000D02*
X1067000Y1228000D01*
X764000Y1510000D02*
X765000Y1509000D01*
X822183Y1288000D02*
X837000D01*
X970000Y1314000D02*
X1027933D01*
X1027967Y1314034D01*
X1066000Y1469000D02*
X1090000D01*
X2006000Y1338000D02*
Y1346000D01*
X838513Y1241920D02*
X849933D01*
X822183Y1323000D02*
X830933D01*
X1037000Y1449000D02*
Y1449000D01*
X960000Y1449000D02*
X1037000D01*
X1216433Y1524250D02*
Y1542500D01*
X738683Y1283000D02*
X768933D01*
X976000Y1256000D02*
X991000D01*
X976000Y1256000D02*
X976000Y1256000D01*
X738717Y1277717D02*
X739000Y1278000D01*
Y1269000D02*
Y1278000D01*
X975000Y1271000D02*
X1076000D01*
X1199000Y1431000D02*
Y1431080D01*
X1082000Y1431000D02*
X1198000D01*
X970000Y1266000D02*
X1081000D01*
X965000Y1261000D02*
X970000Y1266000D01*
X965000Y1261000D02*
Y1261000D01*
Y1251000D02*
X1221000D01*
X960000Y1246000D02*
X1226000D01*
X1302000Y1638000D02*
X1313000D01*
Y1616000D02*
Y1638000D01*
X1302000Y1636000D02*
Y1638000D01*
X1313933Y1592000D02*
X1327933D01*
X1291933Y1638000D02*
X1302000D01*
X1291853Y1637920D02*
X1291933D01*
X1290933Y1637000D02*
X1291853Y1637920D01*
X1495500Y1515500D02*
X1507000D01*
X1273933Y1523000D02*
Y1531920D01*
X828500Y1543500D02*
X830000Y1545000D01*
X1231853Y1507080D02*
X1233933D01*
X1243933Y1507000D02*
X1244933D01*
X1231933D02*
X1243933D01*
X1231853Y1507080D02*
X1233933Y1509160D01*
X915580Y1505000D02*
Y1507000D01*
X1201933Y1497000D02*
X1202013Y1496920D01*
X1201933Y1488000D02*
Y1496920D01*
X915580Y1487000D02*
Y1505000D01*
X916500Y1472500D02*
Y1486000D01*
X1359000Y1135000D02*
Y1136000D01*
X1165000Y1112000D02*
Y1113000D01*
X875000Y1337933D02*
Y1355000D01*
X873013Y1339920D02*
X875000Y1337933D01*
X873000Y1337000D02*
Y1339933D01*
X876000Y1267000D02*
X881433Y1272433D01*
X783000Y1511000D02*
X793000D01*
X727000Y1328067D02*
Y1358000D01*
X802000Y1301000D02*
X803000Y1300000D01*
X726933Y1328000D02*
X727000Y1328067D01*
X550826Y1558000D02*
Y1570000D01*
Y1429000D02*
Y1500000D01*
Y1418000D02*
Y1429000D01*
X612970Y1313000D02*
X634000D01*
X613000Y1249000D02*
X635000D01*
X613000D02*
Y1249000D01*
X570570Y1323200D02*
X609170D01*
X570200D02*
X570570D01*
X743933Y1226000D02*
X745000Y1227067D01*
X743933Y1225933D02*
Y1226000D01*
X609170Y1236700D02*
X654700D01*
X608700D02*
X609000Y1237000D01*
X570935Y1237065D02*
X571000Y1237000D01*
X570570Y1237430D02*
X570935Y1237065D01*
X570570Y1236700D02*
X608700D01*
X920000Y1194000D02*
X921000D01*
X919920D02*
X920000D01*
Y1216000D01*
X960000Y1256000D01*
X787933Y1241067D02*
Y1264000D01*
X973000Y1278000D02*
X1112000D01*
X914000Y1219000D02*
X973000Y1278000D01*
X810000Y1219000D02*
X914000D01*
X911000Y1223000D02*
X971000Y1283000D01*
X1117000Y1283000D01*
X813000Y1223000D02*
X911000D01*
X1081000Y1439000D02*
X1082000Y1438000D01*
X1048000Y1474000D02*
Y1484000D01*
X797933Y1245067D02*
Y1265000D01*
X970000Y1288000D02*
X1112000D01*
X909000Y1227000D02*
X970000Y1288000D01*
X816000Y1227000D02*
X909000D01*
X1256000Y1497000D02*
X1496000D01*
X825000Y1231000D02*
X907319D01*
X968108Y1292726D02*
X986000Y1293000D01*
X907319Y1231000D02*
X968108Y1292726D01*
X1291933Y1627000D02*
X1302000D01*
X1005000Y1464000D02*
X1006000Y1463000D01*
X807933Y1347250D02*
X808183Y1347000D01*
X737000Y1369000D02*
X737080D01*
X738000Y1333000D02*
Y1357000D01*
X752933Y1262000D02*
Y1273000D01*
Y1262000D02*
X753000D01*
X932000Y1330000D02*
X932500Y1330500D01*
X932000Y1298000D02*
X1049000D01*
X932000D02*
Y1330000D01*
X916933Y1282933D02*
X932000Y1298000D01*
X916933Y1271000D02*
Y1282933D01*
X895000Y1242000D02*
Y1329000D01*
X772933Y1244933D02*
Y1263750D01*
X894000Y1241000D02*
X895000Y1242000D01*
X917000Y1271000D02*
X930933D01*
X916933D02*
X917000D01*
Y1278000D01*
Y1252067D02*
Y1271000D01*
X899933Y1235000D02*
X917000Y1252067D01*
X1264000Y1520000D02*
Y1540067D01*
X1033000Y1648000D02*
X1047000D01*
X1052000D02*
X1053000Y1647000D01*
X1026000Y1648000D02*
X1031000D01*
X1064920Y1505000D02*
X1065000D01*
X1058853D02*
X1064920D01*
X1019000Y1648000D02*
X1026000D01*
X1012000D02*
X1019000D01*
X984000D02*
X991000D01*
X963000D02*
X970000D01*
X975000Y1627080D02*
X977000Y1629080D01*
X1075000Y1495993D02*
Y1510067D01*
X1073000Y1493994D02*
X1075000Y1495993D01*
X1073000Y1493994D02*
X1074038Y1492957D01*
X1072993Y1494000D02*
Y1494003D01*
X1074038Y1492957D02*
X1074997Y1491999D01*
X1075000Y1510067D02*
X1077183Y1512250D01*
X1072993Y1494000D02*
X1073000Y1493994D01*
Y1491933D02*
Y1493994D01*
X1075008Y1474000D02*
X1326000D01*
X1074997Y1491999D02*
X1075008Y1474000D01*
X1066000Y1469000D02*
Y1491067D01*
X955000Y1346000D02*
X1097000D01*
X955000Y1337000D02*
X955500Y1336500D01*
X960000Y1341000D01*
X955000Y1336000D02*
Y1337000D01*
X960000Y1341000D02*
X1092000D01*
X1037000Y1462920D02*
Y1463000D01*
Y1449080D02*
Y1462920D01*
X943000Y1194000D02*
X957000Y1208000D01*
X930080Y1194000D02*
X943000D01*
X906080D02*
X919920D01*
X921000D02*
X922000Y1193000D01*
X836000Y1192000D02*
X885000D01*
X835000D02*
X836000D01*
X886000D02*
X888000Y1194000D01*
X895920D01*
X828500Y1580500D02*
X829000Y1581000D01*
X770500Y1580500D02*
X828500D01*
X915580Y1507000D02*
X916000D01*
X830000D02*
X915580D01*
X797000D02*
X830000D01*
X829500Y1507500D02*
X830000Y1507000D01*
X829500Y1507500D02*
Y1543500D01*
X770500D02*
X828500D01*
X774000Y1486000D02*
Y1488000D01*
Y1481000D02*
Y1486000D01*
X761000D02*
X774000D01*
X757000Y1490000D02*
X761000Y1486000D01*
X757000Y1490000D02*
Y1576000D01*
X761500Y1580500D01*
X770500D01*
X783000Y1512000D02*
Y1522080D01*
X779080Y1526000D02*
X783000Y1522080D01*
X765000Y1511000D02*
Y1522080D01*
X768920Y1526000D01*
X1028000Y1314000D02*
X1067000D01*
Y1228000D02*
Y1229000D01*
X1034000Y1220000D02*
X1047920D01*
X1825000Y881500D02*
Y905500D01*
X995000Y880500D02*
Y904500D01*
X1033000Y1187000D02*
Y1198000D01*
X850000Y1187000D02*
X1033000D01*
X1421000Y1336000D02*
X1423000D01*
X1352000Y1405000D02*
X1421000Y1336000D01*
X1208080Y1405000D02*
X1352000D01*
X1074933Y1648000D02*
X1075933D01*
X1107013Y1648000D02*
X1107933D01*
X1097060Y1638127D02*
X1097101Y1638087D01*
X1108183Y1627005D01*
X1153933Y1648080D02*
Y1656000D01*
X1143933Y1648080D02*
Y1659000D01*
X765000Y1496000D02*
Y1509000D01*
X764500Y1510500D02*
X765000Y1511000D01*
X570570Y1237430D02*
Y1323200D01*
X570000Y1323000D02*
X570200Y1323200D01*
X634000Y1314080D02*
X651920D01*
X566826Y1418000D02*
X583746D01*
X564826D02*
X566826D01*
X566826Y1418000D01*
X565826Y1417000D02*
X566826Y1418000D01*
X564826Y1488000D02*
X583746D01*
X550826Y1500000D02*
Y1558000D01*
X564826Y1558000D02*
X583746D01*
X638000Y1623920D02*
X652920D01*
X638000Y1634080D02*
X655920D01*
X638000Y1681920D02*
X651080D01*
X638000Y1692080D02*
X654920D01*
X793000Y1511000D02*
X797000Y1507000D01*
X771000Y1450067D02*
Y1473000D01*
Y1478000D02*
X774000Y1481000D01*
X771000Y1475000D02*
Y1478000D01*
X761433Y1440500D02*
X771000Y1450067D01*
X760920Y1461080D02*
X761000Y1461000D01*
X760920Y1461080D02*
Y1473000D01*
X744500Y1459500D02*
X761433D01*
X904672Y1486808D02*
X904921Y1486539D01*
X583000Y1258000D02*
X612970D01*
X797000Y1192000D02*
X814000D01*
X793000D02*
X797000D01*
X828000Y1265000D02*
Y1266000D01*
Y1253013D02*
Y1265000D01*
Y1252933D02*
Y1253013D01*
Y1252160D02*
Y1252933D01*
X828853Y1252080D02*
X828933D01*
X828080D02*
X828853D01*
X828933Y1252000D01*
X828000Y1252933D02*
X828853Y1252080D01*
X1016000Y1509000D02*
Y1534000D01*
Y1500000D02*
Y1509000D01*
X1026013Y1509000D02*
X1047933D01*
X1025183D02*
X1025183D01*
X1016000D02*
X1024933D01*
X1016000Y1509000D02*
X1016000Y1509000D01*
X1025183Y1509000D02*
Y1521500D01*
Y1509000D02*
Y1509000D01*
X1025183Y1509000D02*
X1026013D01*
X1025183Y1509000D02*
X1026013D01*
X1024933D02*
X1025183D01*
X1024933D02*
Y1517000D01*
Y1509000D02*
Y1509000D01*
X1026013Y1509000D02*
X1026013Y1509000D01*
X1015000Y1499000D02*
X1015000Y1499000D01*
X1015000Y1486500D02*
Y1499000D01*
X1024500Y1472500D02*
X1025000Y1473000D01*
X1024500Y1463500D02*
Y1472500D01*
X1006000Y1463000D02*
X1015000D01*
X754000Y1812000D02*
Y1814000D01*
X748920Y1000000D02*
X750920Y998000D01*
X656000Y1153000D02*
X1394000D01*
X656000Y1000000D02*
Y1153000D01*
Y1000000D02*
X748920D01*
X3375000Y1006000D02*
X3381000D01*
X1969000Y987000D02*
Y993920D01*
X1565000Y987000D02*
X1755000D01*
X900000Y1147000D02*
X1186000D01*
X1401000D02*
X1402000D01*
X1186000D02*
X1401000D01*
X899000Y1148000D02*
X900000Y1147000D01*
X661000Y1148000D02*
X899000D01*
Y1004000D02*
X939920D01*
X760000Y999080D02*
X761080Y998000D01*
X661000Y1005000D02*
Y1148000D01*
Y1005000D02*
X760000D01*
X1076000Y1219000D02*
Y1229000D01*
X738683Y1288000D02*
X773457D01*
X828000Y1252160D02*
X828080Y1252080D01*
X837000Y1288000D02*
X838000Y1287000D01*
X830250Y1277750D02*
X837000Y1271000D01*
X838000D01*
X598000Y1558000D02*
X623000D01*
X836000Y1279000D02*
X838000D01*
X832250Y1282750D02*
X836000Y1279000D01*
X823250Y1282750D02*
X832250D01*
X822183Y1277750D02*
X830250D01*
X787933Y1241067D02*
X810000Y1219000D01*
X792933Y1243067D02*
Y1261000D01*
Y1243067D02*
X813000Y1223000D01*
X797933Y1245067D02*
X816000Y1227000D01*
X818933Y1231000D02*
X825000D01*
X802933Y1247000D02*
Y1261000D01*
Y1247000D02*
X818933Y1231000D01*
X820933Y1246067D02*
Y1266000D01*
Y1246067D02*
X832000Y1235000D01*
X877000D01*
X840000Y1293000D02*
X846000Y1287000D01*
X823933Y1293000D02*
X840000D01*
X846000Y1272000D02*
Y1287000D01*
X858000Y1308000D02*
X865000Y1301000D01*
X822183Y1308000D02*
X858000D01*
X865000Y1298000D02*
Y1301000D01*
Y1291000D02*
Y1298000D01*
X746000Y1338000D02*
Y1346000D01*
X1105000Y1514000D02*
X1106000Y1513000D01*
X1142933Y1419000D02*
Y1419933D01*
X1139000Y1416000D02*
X1142000Y1419000D01*
X762933Y1338000D02*
Y1347250D01*
X746000Y1338000D02*
X762933D01*
X758000Y1365000D02*
X791000Y1398000D01*
X758000Y1363064D02*
Y1365000D01*
X757933Y1363000D02*
X758000Y1363064D01*
X791000Y1398000D02*
X1058000D01*
X1106000Y1524000D02*
X1107000Y1525000D01*
X1151933Y1376000D02*
Y1384933D01*
X786000Y1386000D02*
X879000D01*
X767933Y1367933D02*
X786000Y1386000D01*
X767933Y1348000D02*
Y1367933D01*
X828933Y1252000D02*
Y1252080D01*
X828000Y1253013D02*
X828933Y1252080D01*
X868000Y1361000D02*
X869000D01*
X822183Y1328000D02*
X833000D01*
X871000Y1366000D02*
X881000Y1356000D01*
X857000Y1366000D02*
X871000D01*
X844000Y1353000D02*
X857000Y1366000D01*
X879000Y1386000D02*
X889000Y1376000D01*
X877000Y1381000D02*
X887000Y1371000D01*
X788000Y1381000D02*
X877000D01*
X773000Y1366000D02*
X788000Y1381000D01*
X875000Y1376000D02*
X885000Y1366000D01*
X811933Y1376000D02*
X875000D01*
X792933Y1357000D02*
X811933Y1376000D01*
X1107000Y1366000D02*
X1108000D01*
X885000D02*
X1107000D01*
X873000Y1371000D02*
X883000Y1361000D01*
X812933Y1371000D02*
X873000D01*
X797933Y1356000D02*
X812933Y1371000D01*
X809933Y1306000D02*
X812933Y1303000D01*
X896000Y1351000D02*
X982933D01*
X896000D02*
Y1351000D01*
X886000Y1341000D02*
X896000Y1351000D01*
X855000Y1355000D02*
X856000D01*
X848000Y1348000D02*
X855000Y1355000D01*
X658000Y1345000D02*
X693000D01*
X623000Y1380000D02*
X658000Y1345000D01*
X623000Y1380000D02*
Y1558000D01*
X807933Y1265000D02*
X808933Y1264000D01*
X656000Y1335000D02*
X693000D01*
X614000Y1377000D02*
X656000Y1335000D01*
X614000Y1377000D02*
Y1418000D01*
X596000Y1297000D02*
X596500Y1297500D01*
X613470Y1297000D02*
X634000D01*
X612970Y1297500D02*
X613470Y1297000D01*
X612970Y1272000D02*
X717000D01*
X597000Y1282500D02*
X613000D01*
X597000Y1272500D02*
X612970D01*
X597000D02*
Y1282500D01*
X593000Y1267000D02*
Y1267500D01*
X612970D01*
X717000Y1272000D02*
Y1278000D01*
X696000Y1279000D02*
X708000D01*
X627000Y1277000D02*
X694000D01*
X696000Y1279000D01*
X717000Y1300000D02*
X725000D01*
X717000Y1299000D02*
X718000D01*
X717000Y1289080D02*
Y1299000D01*
X706000Y1299920D02*
Y1300000D01*
Y1289080D02*
Y1299920D01*
X612970Y1272000D02*
Y1272500D01*
X864500Y999500D02*
X865000Y1000000D01*
X613470Y1277000D02*
X627000D01*
Y1282000D02*
Y1287500D01*
Y1277000D02*
Y1282000D01*
X612970Y1287500D02*
X627000D01*
X903000Y1391000D02*
X1132000D01*
X718000Y1324000D02*
Y1357000D01*
Y1324000D02*
X719000Y1323000D01*
X595906Y1418000D02*
X614000D01*
X595000D02*
X595906D01*
X606826Y1488000D02*
X618000D01*
X598826D02*
X606826D01*
X597000D02*
X598826D01*
X618000Y1379000D02*
X657000Y1340000D01*
X618000Y1379000D02*
Y1488000D01*
X657000Y1340000D02*
X698000D01*
X570570Y1323300D02*
Y1358430D01*
Y1323200D02*
Y1323300D01*
X551000Y1378000D02*
Y1416000D01*
Y1378000D02*
X570570Y1358430D01*
X817933Y1269000D02*
X820933Y1266000D01*
X813933Y1269000D02*
X817933D01*
X809933Y1273000D02*
X813933Y1269000D01*
X823000Y1283000D02*
X823250Y1282750D01*
X727000Y1328000D02*
Y1328067D01*
Y1328000D02*
X738683D01*
X726933D02*
X727000D01*
X749933Y1311000D02*
Y1323933D01*
X750000Y1324000D01*
X765000Y1312067D02*
Y1313067D01*
X750933Y1298000D02*
X765000Y1312067D01*
Y1313067D02*
Y1318000D01*
X803000Y1291000D02*
Y1300000D01*
Y1291000D02*
X804967Y1289034D01*
X1137000Y1342000D02*
X1149000D01*
X1131000Y1336000D02*
X1137000Y1342000D01*
X984000Y1336000D02*
X1131000Y1336000D01*
X1137000Y1353000D02*
X1243000D01*
X1134000Y1356000D02*
X1137000Y1353000D01*
X881000Y1356000D02*
X1134000D01*
X1260000Y1319000D02*
X1264000D01*
X1260000Y1319000D02*
X1260000Y1319000D01*
X1260000Y1319000D02*
Y1319000D01*
X1087000D02*
X1260000D01*
X1094000Y1501000D02*
X1158000D01*
X1158000Y1501000D01*
X1161000Y1514000D02*
X1165000D01*
Y1497000D02*
X1171933D01*
X1165000Y1514000D02*
X1166433D01*
X1165000Y1497000D02*
Y1514000D01*
X1172933Y1506000D02*
Y1509000D01*
X1171000Y1508000D02*
X1171433Y1508433D01*
X1084000Y1511000D02*
Y1517000D01*
Y1511000D02*
X1094000Y1501000D01*
X1158000Y1334000D02*
X1174000D01*
Y1342000D01*
Y1324000D02*
Y1334000D01*
X1152000Y1323000D02*
Y1324000D01*
X1076000D02*
X1152000D01*
X1171000Y1364000D02*
X1175000D01*
X1168000Y1358000D02*
Y1361000D01*
X1173000Y1342000D02*
X1174000D01*
X1168000Y1361000D02*
X1171000Y1364000D01*
X1173000Y1412933D02*
Y1419000D01*
X1172067Y1412000D02*
X1173000Y1412933D01*
Y1419000D02*
X1174000D01*
X991000Y1256000D02*
X1152000Y1256000D01*
X1174000Y1256000D02*
X1196000D01*
X1174000Y1256000D02*
Y1256000D01*
X928000Y1421000D02*
X1088000Y1421000D01*
X927000Y1421000D02*
X928000D01*
X738683Y1308000D02*
X746933D01*
X918000Y1411000D02*
X1137000D01*
X1091000Y1424000D02*
X1103000D01*
X1088000Y1421000D02*
X1091000Y1424000D01*
X1125000Y1425000D02*
X1126000Y1424000D01*
X1188000D01*
X1036933Y1483920D02*
X1047933D01*
X1036080D02*
X1036933D01*
X1035000Y1485000D02*
X1036080Y1483920D01*
X1027967Y1314034D02*
X1028000Y1314000D01*
X1252853Y1534000D02*
X1253933D01*
X1226433Y1535000D02*
X1227933D01*
X753000Y1237933D02*
X754000Y1236933D01*
X898000Y1386000D02*
X1137000D01*
X752933Y1347250D02*
Y1373000D01*
X972000Y1261000D02*
X1216000Y1261000D01*
X1224933Y1542000D02*
Y1542000D01*
X1222500Y1541500D02*
X1224433D01*
X767933Y1247933D02*
Y1263750D01*
X1082000Y1438000D02*
X1112000D01*
X1081000D02*
X1082000D01*
X1080000D02*
X1081000D01*
X883000Y1361000D02*
X1102000D01*
X1089000Y1469000D02*
X1325000Y1469000D01*
X1033000Y1187000D02*
X1409000Y1187000D01*
X953000Y1465000D02*
X965000D01*
X952500Y1465500D02*
X953000Y1465000D01*
X952500Y1465500D02*
Y1466500D01*
X1450000Y1350000D02*
X2016080D01*
X1326000Y1474000D02*
X1450000Y1350000D01*
X1448000Y1346000D02*
X2006000D01*
X1325000Y1469000D02*
X1448000Y1346000D01*
X2016080Y1338000D02*
Y1350000D01*
X1723933Y1356000D02*
Y1376500D01*
Y1356000D02*
Y1356000D01*
X1524000D02*
Y1371920D01*
Y1356000D02*
Y1356000D01*
X1304853Y1604920D02*
Y1616000D01*
X1229933Y1566000D02*
X1231433Y1567500D01*
X1191000Y1140000D02*
X1355000D01*
X752933Y1261000D02*
Y1262000D01*
X744000D02*
X752933D01*
X734000Y1252000D02*
X744000Y1262000D01*
X734000Y1221000D02*
Y1252000D01*
Y1221000D02*
X745000Y1210000D01*
X814000D01*
X847000D02*
X857000Y1200000D01*
X836000Y1210000D02*
X847000D01*
X1120933Y1587933D02*
Y1588000D01*
Y1562000D02*
Y1587933D01*
Y1588000D02*
X1120933D01*
X1082000D02*
X1120933D01*
X1306000Y1520000D02*
Y1531000D01*
X1289000Y1572000D02*
X1336000D01*
Y1520000D02*
Y1572000D01*
X1306000Y1520000D02*
X1336000D01*
X1306000Y1515000D02*
X1494000D01*
X1297000Y1506000D02*
X1306000Y1515000D01*
X1279000Y1506000D02*
X1297000D01*
X1328933Y1587000D02*
X1354000D01*
Y1586000D02*
Y1587000D01*
Y1135000D02*
Y1136000D01*
X1352000Y1135000D02*
X1353000Y1136000D01*
X1354000Y1135000D01*
X1352000D02*
X1353000D01*
X1195000D02*
X1352000D01*
X1288933Y1585000D02*
X1290933Y1587000D01*
X1507000Y1515500D02*
Y1516000D01*
X1519000Y1480000D02*
Y1504000D01*
X1512080Y1480000D02*
X1519000D01*
X1501920Y1470080D02*
X1502000Y1470000D01*
X1501920Y1470080D02*
Y1480000D01*
X1524000Y1390000D02*
X1532000Y1398000D01*
X1524000Y1382080D02*
Y1390000D01*
X3375000Y1813000D02*
X3381000D01*
X963000Y1615000D02*
X965000Y1617000D01*
X1772000Y1153000D02*
X3228000D01*
Y991000D02*
Y1153000D01*
Y991000D02*
X3375000D01*
X3179000Y1813000D02*
X3186000D01*
X3184000Y1005080D02*
X3186000D01*
X3184000D02*
X3184958Y1005042D01*
X3184958D02*
X3185997Y1005000D01*
X1766000Y1148000D02*
X3224000D01*
Y991000D02*
Y1148000D01*
X3192000Y991000D02*
X3224000D01*
X2970000Y1813000D02*
X2977000D01*
X975000Y1616920D02*
X977000Y1614920D01*
X975000Y1616920D02*
Y1617000D01*
X1760000Y1143000D02*
X2931000D01*
Y991000D02*
Y1143000D01*
Y991000D02*
X2964000D01*
X2780000Y1006000D02*
X2786000D01*
X983000Y1638000D02*
X984000Y1637000D01*
X1754000Y1138000D02*
X2819000D01*
Y991000D02*
Y1138000D01*
X2786000Y991000D02*
X2819000D01*
X1748000Y1133000D02*
X2526000D01*
Y991000D02*
Y1133000D01*
Y991000D02*
X2559000D01*
X2369000Y1813000D02*
X2375000D01*
Y1006000D02*
X2381000D01*
X1742000Y1128000D02*
X2414000D01*
Y991000D02*
Y1128000D01*
X2381000Y991000D02*
X2414000D01*
X2159080Y1006000D02*
X2160000Y1005080D01*
X1005000Y1587000D02*
Y1616920D01*
X1031933Y1576000D02*
Y1587000D01*
X2121000Y991000D02*
Y1123000D01*
X1736000D02*
X2121000D01*
Y991000D02*
X2154000D01*
X1280933Y1648000D02*
X1281853Y1648920D01*
X1269933Y1637920D02*
X1280933Y1648920D01*
X1269933Y1628000D02*
X1270933Y1627000D01*
X857000Y1182000D02*
X1404000D01*
X1162933Y1638000D02*
X1172000D01*
X1176933Y1625080D02*
Y1638000D01*
X1199933Y1626000D02*
Y1639000D01*
X1189933Y1650000D02*
X1190933D01*
X1189933D02*
X1189933D01*
X1189933Y1648000D02*
X1190933D01*
X1189933D02*
Y1650000D01*
X1258933Y1655000D02*
X1259000D01*
X1246933Y1637000D02*
X1247933Y1638000D01*
X1394000Y1153000D02*
X1395000D01*
X1047000Y1617000D02*
X1055000D01*
X1070000Y1576933D02*
X1070933Y1576000D01*
X947000Y1812000D02*
Y1814000D01*
X1389000Y1158000D02*
X1390000D01*
X905000D02*
X1389000D01*
X1159000Y1814000D02*
X1161000Y1812000D01*
X1394000Y1163000D02*
X1395000D01*
X1179000D02*
X1394000D01*
X1063933Y1576000D02*
Y1609000D01*
X1040000D02*
Y1637000D01*
X1964000Y1814000D02*
X1971000D01*
X1969000Y1005000D02*
X1976000D01*
X1012000Y1591000D02*
Y1637920D01*
X1755000Y1816000D02*
X1757000Y1814000D01*
X1749000Y1006000D02*
X1755000D01*
X1044933Y1576000D02*
Y1595000D01*
X1565000Y1005920D02*
X1571000D01*
X1050933Y1576000D02*
Y1599000D01*
X1026000D02*
Y1637920D01*
X1419000Y1672000D02*
Y1741000D01*
X1793000D01*
X1424000Y1666000D02*
Y1737000D01*
X1932000D01*
X1429000Y1672000D02*
Y1733000D01*
X2198000D01*
X1434000Y1666000D02*
Y1729000D01*
X2337000D01*
X1439000Y1672000D02*
Y1725000D01*
X2603000D01*
X1444000Y1666000D02*
Y1721000D01*
X2742000D01*
X1449000Y1672000D02*
Y1717000D01*
X3008000D01*
X1454000Y1666000D02*
Y1713000D01*
X1454000Y1713000D01*
X3147000D01*
X1459000Y1672000D02*
Y1709000D01*
X1459000Y1709000D02*
X1459000Y1709000D01*
X1459000Y1709000D02*
X3413000D01*
X1414000Y1666000D02*
Y1829000D01*
X1559000D01*
X1269853Y1646920D02*
X1270933Y1648000D01*
X1269933Y1648080D02*
Y1655933D01*
Y1648000D02*
Y1648080D01*
X904494Y1487000D02*
X904672Y1486808D01*
X903995Y1487500D02*
X904494Y1487000D01*
X892500Y1487500D02*
X903995D01*
X904921Y1486539D02*
X905420Y1486000D01*
X904921Y1486539D02*
Y1486539D01*
X903996Y1487539D02*
X904494Y1487000D01*
X905420D01*
X897500Y1454500D02*
X915000Y1472000D01*
X877000Y1454500D02*
X897500D01*
X905580Y1431420D02*
X906500Y1430500D01*
X905580Y1431420D02*
Y1440000D01*
X880500D02*
X895000D01*
X952000Y1467000D02*
X952500Y1466500D01*
X1096933Y1669000D02*
Y1733000D01*
Y1648080D02*
Y1669000D01*
X1097000D01*
X1093500D02*
X1096933D01*
X1085933D02*
X1089500D01*
X1085933Y1665933D02*
Y1669000D01*
X1074933Y1638000D02*
X1085933Y1627000D01*
X1085933Y1665933D02*
X1086000Y1666000D01*
X1085933Y1656000D02*
Y1665933D01*
X1074933Y1648160D02*
Y1655000D01*
X3381000Y1844000D02*
X3413000D01*
Y1709000D02*
Y1844000D01*
X3147000Y1829000D02*
X3179000D01*
X3147000Y1713000D02*
Y1829000D01*
X711000Y1833000D02*
X755000D01*
X717000Y1829000D02*
X749000D01*
X717000Y1742000D02*
Y1829000D01*
Y1742000D02*
X949000D01*
Y1655000D02*
Y1742000D01*
X987000Y1829000D02*
X1154000D01*
X987000Y1738000D02*
Y1829000D01*
X959000Y1738000D02*
X987000D01*
X959000Y1666000D02*
Y1738000D01*
X951000Y1829000D02*
X983000D01*
Y1742000D02*
Y1829000D01*
X954000Y1742000D02*
X983000D01*
X954000Y1661000D02*
Y1742000D01*
X1761000Y1829000D02*
X1793000D01*
Y1741000D02*
Y1829000D01*
X1730000Y1118000D02*
X2009000D01*
X1729000D02*
X1730000D01*
X1932000Y1829000D02*
X1964000D01*
X1932000Y1737000D02*
Y1829000D01*
X2166000D02*
X2198000D01*
Y1733000D02*
Y1829000D01*
X2337000D02*
X2369000D01*
X2337000Y1729000D02*
Y1829000D01*
X2571000D02*
X2603000D01*
Y1725000D02*
Y1829000D01*
X2977000D02*
X3008000D01*
Y1717000D02*
Y1829000D01*
X2742000D02*
X2774000D01*
X2742000Y1721000D02*
Y1829000D01*
X3381000Y1813000D02*
Y1844000D01*
X986000Y1293000D02*
X987933D01*
X821000Y1273000D02*
X828000Y1266000D01*
X814933Y1273000D02*
X821000D01*
X828933Y1252080D02*
X836933D01*
X844000Y1339000D02*
Y1353000D01*
X848000Y1348000D02*
X848000D01*
Y1337000D02*
Y1348000D01*
X859500Y1350500D02*
X862353D01*
X855000Y1346000D02*
X859500Y1350500D01*
X855000Y1340433D02*
Y1346000D01*
X1132933Y1620000D02*
Y1625920D01*
X1149933Y1609000D02*
X1160433Y1598500D01*
X1132933Y1658000D02*
X1133933Y1659000D01*
X1130933Y1658000D02*
X1132933Y1660000D01*
Y1658000D02*
Y1660000D01*
X1171000Y1524683D02*
Y1556000D01*
X1142933Y1633000D02*
X1150000Y1625933D01*
Y1622067D02*
Y1625933D01*
X1258933Y1648080D02*
Y1655000D01*
X1303000Y1648080D02*
Y1656000D01*
X1281000Y1649000D02*
Y1656000D01*
X1292000Y1647933D02*
Y1656000D01*
X1292433Y1647500D02*
X1292933Y1648000D01*
X1085933Y1638000D02*
X1095933Y1628000D01*
X1117933Y1657000D02*
X1118000D01*
X1117933Y1650000D02*
X1118933Y1649000D01*
X1117933Y1650000D02*
Y1657000D01*
X1106933Y1637000D02*
X1107933Y1636000D01*
X1163933Y1648000D02*
X1164933D01*
X1163473Y1625540D02*
Y1627460D01*
X1248000Y1648080D02*
Y1656000D01*
X1226000Y1648000D02*
Y1648080D01*
X1213000Y1649000D02*
X1213920Y1648080D01*
X1223933Y1648000D02*
X1226000D01*
X1214000D02*
X1223933D01*
X1178433Y1648500D02*
X1178933Y1649000D01*
X1178433Y1648500D02*
X1188433Y1638500D01*
X1178013Y1648080D02*
Y1648920D01*
X1178933Y1649080D02*
Y1657000D01*
Y1649000D02*
Y1649080D01*
Y1648080D02*
Y1649000D01*
X1178933Y1649080D02*
X1178933Y1649080D01*
X1190000Y1654000D02*
Y1656000D01*
X1292000Y1647933D02*
X1292013Y1647920D01*
X1399000Y1673000D02*
X1400000Y1672000D01*
X1396000Y1016080D02*
Y1127000D01*
X1109000Y1551000D02*
Y1576000D01*
X855000Y1340433D02*
X855933Y1339500D01*
X834000Y1323000D02*
X848000Y1337000D01*
X830933Y1323000D02*
X834000D01*
X833000Y1328000D02*
X844000Y1339000D01*
X830933Y1323000D02*
X830933Y1323000D01*
X869000Y1361000D02*
X875000Y1355000D01*
Y1337933D02*
X881433Y1331500D01*
X873000Y1339933D02*
X873013Y1339920D01*
X872933Y1340000D02*
X873000Y1339933D01*
X1119933Y1542000D02*
X1146433D01*
Y1524250D02*
Y1542000D01*
X873013Y1339000D02*
Y1339920D01*
X884500Y999500D02*
X889000Y995000D01*
X1289000Y1544000D02*
X1291000Y1546000D01*
X1289000Y1517000D02*
Y1544000D01*
X1264000Y1517000D02*
X1289000D01*
X1279000Y1561000D02*
X1287920D01*
X1270000Y1552000D02*
X1279000Y1561000D01*
X1202000Y1552000D02*
X1270000D01*
X1245000Y1566000D02*
X1246000Y1565000D01*
X1241433Y1569567D02*
X1245000Y1566000D01*
X1171000Y1524683D02*
X1171433Y1524250D01*
X1201853Y1648080D02*
X1211933Y1638000D01*
Y1623000D02*
Y1638000D01*
X1206933Y1613000D02*
Y1624000D01*
X1278000Y1567000D02*
Y1572000D01*
X1196433Y1524250D02*
Y1556500D01*
X1195933Y1602000D02*
X1206933Y1613000D01*
X1194933Y1602000D02*
X1195933D01*
X1120933Y1587933D02*
X1121000Y1588000D01*
X1139933D01*
X1120933D02*
X1121000D01*
X1121000Y1588000D01*
X1078500Y1609500D02*
Y1618500D01*
X1066000Y1631000D02*
X1078500Y1618500D01*
X1070000Y1576933D02*
Y1612000D01*
X1065000Y1617000D02*
X1070000Y1612000D01*
X1055000Y1617000D02*
X1065000D01*
X1061000Y1628000D02*
X1074000Y1615000D01*
Y1606000D02*
Y1615000D01*
Y1606000D02*
X1075933Y1604067D01*
X1066000Y1631000D02*
Y1635933D01*
X1078500Y1609500D02*
X1082000Y1606000D01*
X1040000Y1609000D02*
X1063933D01*
X1057933Y1577000D02*
Y1603000D01*
X1037000D02*
X1057933D01*
X1156000Y1566000D02*
X1203000D01*
X1141000Y1551000D02*
X1156000Y1566000D01*
X1109000Y1551000D02*
X1141000D01*
X1096633Y1576000D02*
X1109000D01*
X1113000Y1519000D02*
Y1537000D01*
X1089933Y1560067D02*
X1113000Y1537000D01*
X1089933Y1560067D02*
Y1572000D01*
X1107000Y1525000D02*
Y1536000D01*
X1083933Y1559067D02*
X1107000Y1536000D01*
X1083933Y1559067D02*
Y1571000D01*
X1101933Y1514000D02*
X1105000D01*
X1101933D02*
Y1533000D01*
X1203000Y1566000D02*
X1209000Y1560000D01*
X1263000D01*
X1266000Y1563000D01*
X1005853Y1486080D02*
Y1499000D01*
X1006000Y1479000D02*
Y1487000D01*
Y1473080D02*
Y1479000D01*
Y1473080D02*
X1037000D01*
X1049000Y1509000D02*
X1054853D01*
Y1509000D02*
Y1509000D01*
X749000Y1814000D02*
Y1829000D01*
X755000Y1833000D02*
X3375000D01*
X755000Y1824080D02*
Y1833000D01*
X1221433Y1540433D02*
X1222500Y1541500D01*
X1221433Y1524250D02*
Y1540433D01*
X1224433Y1541500D02*
X1224933Y1542000D01*
X768000Y1232000D02*
Y1236000D01*
X762000Y1226000D02*
X768000Y1232000D01*
X762000Y1226000D02*
X762000Y1226000D01*
X761933D02*
X762000D01*
X755013Y1226000D02*
X762000D01*
X745000Y1242000D02*
X747933Y1244933D01*
X745000Y1227067D02*
Y1242000D01*
X753000Y1241000D02*
X762933Y1250933D01*
X753000Y1237933D02*
Y1241000D01*
X762933Y1250933D02*
Y1260000D01*
X761000Y1241000D02*
X767933Y1247933D01*
X761000Y1236000D02*
Y1241000D01*
X949000Y1655000D02*
X1058000D01*
X954000Y1661000D02*
X1055000D01*
X959000Y1666000D02*
X1040000D01*
X949000Y1534000D02*
X1016000D01*
X949000D02*
Y1648080D01*
X1097000Y1508000D02*
Y1520000D01*
X1096933Y1517000D02*
Y1519933D01*
X1097000Y1520000D01*
X1017000Y1576000D02*
X1025000D01*
X1197000Y1419000D02*
X1197920Y1418080D01*
Y1405000D02*
Y1418080D01*
X1083000Y1397000D02*
X1202000D01*
X1080000Y1398000D02*
X1081000Y1397000D01*
X1209000Y1413000D02*
Y1420920D01*
X1178000Y1443000D02*
Y1450000D01*
X1125000Y1406000D02*
X1183000D01*
X1124000D02*
X1125000D01*
X846000Y1272000D02*
X857933Y1260067D01*
Y1256000D02*
Y1260067D01*
X887000Y1265067D02*
Y1298000D01*
X924000Y1406000D02*
X1103000Y1406000D01*
X889000Y1376000D02*
X984933D01*
X887000Y1371000D02*
X1146933D01*
X834000Y1353000D02*
Y1360000D01*
X882933Y1261000D02*
X887000Y1265067D01*
X862853Y1328080D02*
Y1339000D01*
X855933Y1317933D02*
Y1326000D01*
X822183Y1313000D02*
X851000D01*
X855933Y1317933D01*
X864933Y1290000D02*
Y1296067D01*
X881433Y1272433D02*
Y1331500D01*
X612970Y1277500D02*
X613470Y1277000D01*
X583000Y1304000D02*
X611000D01*
X583000Y1258000D02*
Y1304000D01*
X793000Y1299000D02*
Y1300000D01*
Y1273000D02*
Y1299000D01*
X759000Y1333000D02*
X793000Y1299000D01*
X742000Y1333000D02*
X759000D01*
X811000Y1318000D02*
Y1335000D01*
X793000Y1300000D02*
X811000Y1318000D01*
X788000Y1334000D02*
Y1335933D01*
Y1343933D01*
X802933Y1334000D02*
Y1346000D01*
X796134Y1334000D02*
X802933D01*
X788000D02*
X796000D01*
X787933Y1344000D02*
X788000Y1343933D01*
X787933Y1336000D02*
X788000Y1335933D01*
X803000Y1320000D02*
Y1337000D01*
X719000Y1323000D02*
X738683D01*
X757933Y1363000D02*
X758000Y1363000D01*
X757933Y1358500D02*
Y1363000D01*
X772933Y1366067D02*
X773000Y1366000D01*
X772933Y1347250D02*
Y1366067D01*
X915933Y1472500D02*
X916500D01*
X915933Y1453500D02*
X916500D01*
X804967Y1289034D02*
X811933Y1282067D01*
X612970Y1313000D02*
Y1321000D01*
Y1311000D02*
Y1313000D01*
X634000Y1297000D02*
Y1303000D01*
X612970Y1249000D02*
X613000D01*
Y1239000D02*
Y1249000D01*
X612970D02*
Y1249000D01*
X634000Y1259080D02*
Y1267500D01*
Y1259000D02*
Y1259080D01*
X612970Y1267500D02*
X634000D01*
X711000Y1318000D02*
X738683D01*
X706000D02*
X711000D01*
Y1368000D01*
X726920D01*
X737080D02*
Y1369000D01*
Y1357000D02*
Y1368000D01*
X698000Y1300000D02*
X705000D01*
X717000D02*
Y1301000D01*
X706000Y1312000D02*
Y1318000D01*
X718000Y1310000D02*
X721000Y1313000D01*
X613000Y1249000D02*
X614000D01*
X612970D02*
X613000D01*
X612970Y1321000D02*
X614000D01*
X612970Y1256500D02*
Y1258000D01*
X596500Y1297500D02*
X612970D01*
X721000Y1313000D02*
X735933D01*
X768000Y1236000D02*
Y1240001D01*
X768000Y1240000D02*
X772933Y1244933D01*
X768000Y1240001D02*
X768000Y1240000D01*
X775000Y1236000D02*
Y1240000D01*
X777933Y1242933D01*
Y1263000D01*
X782933Y1236933D02*
Y1260000D01*
X782000Y1236000D02*
X782933Y1236933D01*
X811933Y1276000D02*
Y1282067D01*
X823000Y1347000D02*
X823933D01*
X808183D02*
X823000D01*
X811000Y1335000D02*
X823000Y1347000D01*
X793000Y1273000D02*
X809933D01*
X752933D02*
X793000D01*
X1401000Y1147000D02*
X1402000Y1148000D01*
X1355000Y1140000D02*
X1359000Y1136000D01*
X1191000Y1113000D02*
Y1140000D01*
X1195000Y1113000D02*
Y1135000D01*
X1378000Y994920D02*
X1404000D01*
X1396000Y1005080D02*
Y1016000D01*
X1378000Y1005080D02*
X1396000D01*
X1571000Y1005920D02*
Y1006000D01*
Y991000D02*
Y1005920D01*
Y991000D02*
X1709000D01*
Y1120000D01*
X1565000Y987000D02*
Y994920D01*
Y995920D01*
X3381000Y987000D02*
Y1006000D01*
X3375000Y991000D02*
Y995000D01*
X2009000Y991000D02*
Y1118000D01*
X1976000Y991000D02*
X2009000D01*
X1976000D02*
Y1005000D01*
X1714000Y1126000D02*
X1716000Y1124000D01*
Y991000D02*
Y1124000D01*
Y991000D02*
X1749000D01*
X3185000Y987000D02*
X3381000D01*
X3184958Y1005042D02*
X3184958D01*
X3192000Y991000D02*
Y1006080D01*
X3185000D02*
X3192000D01*
X2780000Y987000D02*
X2970000D01*
X3185000Y995920D02*
Y996000D01*
Y987000D02*
Y995920D01*
X2970000Y987000D02*
X3185000D01*
X2964000Y991000D02*
Y1006080D01*
X2970000D01*
Y995920D02*
Y996000D01*
Y987000D02*
Y995920D01*
X2565000Y987000D02*
X2780000D01*
Y995920D01*
X2786000Y991000D02*
Y1006000D01*
X2780000D02*
Y1006080D01*
X2559000Y1005080D02*
X2565000D01*
X2559000Y991000D02*
Y1005080D01*
X2375000Y987000D02*
X2565000D01*
Y994920D01*
X1755000Y987000D02*
X1969000D01*
X2160000D01*
X2375000D01*
X1755000D02*
Y994920D01*
X1749000Y991000D02*
Y1006000D01*
X2154000Y991000D02*
Y1006000D01*
X2159080D01*
X2160000Y987000D02*
Y995000D01*
X2375000Y987000D02*
Y995920D01*
X2381000Y991000D02*
Y1006000D01*
X2375000D02*
Y1006080D01*
X994000Y998000D02*
X1055000Y937000D01*
X895000Y998000D02*
X994000D01*
X1055000Y905000D02*
Y937000D01*
X3179000Y1813000D02*
Y1829000D01*
X3375000Y1824000D02*
Y1833000D01*
X2774000Y1813000D02*
Y1829000D01*
X2977000Y1813000D02*
Y1829000D01*
X3185000Y1824000D02*
Y1832000D01*
X2567000Y1813000D02*
X2571000D01*
X2567000D02*
Y1814000D01*
X2571000Y1813000D02*
Y1829000D01*
X2369000Y1813000D02*
Y1829000D01*
X2780000Y1823080D02*
Y1832080D01*
X2565000Y1823080D02*
Y1832080D01*
X2166000Y1814000D02*
Y1829000D01*
X2375000Y1824000D02*
Y1832080D01*
X2160000Y1825000D02*
Y1832080D01*
X1964000Y1814000D02*
Y1829000D01*
X1761000Y1814000D02*
Y1829000D01*
X1970000Y1824080D02*
Y1832080D01*
X1559000Y1814000D02*
Y1829000D01*
X1755000Y1827000D02*
Y1832080D01*
X951000Y1814000D02*
Y1829000D01*
X1154000Y1814000D02*
Y1829000D01*
X1400000Y1673000D02*
Y1829000D01*
X1356000D02*
X1400000D01*
X1356000Y1813920D02*
Y1829000D01*
X1565000Y1825000D02*
Y1832080D01*
X1350000Y1824080D02*
Y1832080D01*
X755000Y1822080D02*
Y1824080D01*
X1160000D02*
Y1832000D01*
Y1822080D02*
Y1824080D01*
X945000D02*
Y1832000D01*
Y1822000D02*
Y1824080D01*
X749000Y1814000D02*
X754000D01*
X2774000Y1813000D02*
X2779000D01*
X2375000D02*
Y1814000D01*
X2161000D02*
X2166000D01*
X1757000D02*
X1761000D01*
X947000D02*
X951000D01*
X1154000D02*
X1159000D01*
X1350000Y1813920D02*
X1356000D01*
X1559000Y1814000D02*
X1564000D01*
X1058000Y1655000D02*
X1061000Y1658000D01*
X2971000Y1824000D02*
Y1832000D01*
X2780000Y1823000D02*
Y1823080D01*
X2565000D02*
X2566000Y1823000D01*
X1970000Y1824000D02*
Y1824080D01*
X1350000Y1812000D02*
Y1813920D01*
Y1822080D02*
Y1824080D01*
X1399000Y1672000D02*
X1400000D01*
X1399000D02*
Y1673000D01*
X1349996Y1822080D02*
X1350000Y1822080D01*
Y1822000D02*
Y1822080D01*
X3185997Y1005000D02*
X3186000Y1005000D01*
X3185997Y1005000D02*
X3185997D01*
X956000Y1637000D02*
X958000D01*
X2375000Y1004000D02*
Y1005080D01*
X1166000Y1113000D02*
X1191000D01*
X1165000D02*
X1166000D01*
X1218000D02*
X1256000D01*
X1195000D02*
X1218000D01*
X1304000Y1648000D02*
X1319000D01*
Y1627000D02*
Y1648000D01*
X1313000Y1616000D02*
X1314000D01*
X1154920Y996000D02*
X1203000D01*
X1154920D02*
Y1002000D01*
X1165080D02*
X1200000D01*
X939920Y1004000D02*
X941920D01*
X905000Y1010000D02*
X951080D01*
Y1005000D02*
Y1010000D01*
X892000Y1000000D02*
X893000D01*
X895000Y998000D01*
X992000Y994000D02*
X1045000Y941000D01*
X890000Y994000D02*
X992000D01*
X889000Y995000D02*
X890000Y994000D01*
X990000Y990000D02*
X1035000Y945000D01*
X888000Y990000D02*
X990000D01*
X878000Y1000000D02*
X888000Y990000D01*
X988000Y986000D02*
X1025000Y949000D01*
X885000Y986000D02*
X988000D01*
X871000Y1000000D02*
X885000Y986000D01*
X864500Y999500D02*
X882000Y982000D01*
X986000D02*
X1015000Y953000D01*
X882000Y982000D02*
X986000D01*
X984000Y978000D02*
X1005000Y957000D01*
X879000Y978000D02*
X984000D01*
X857000Y1000000D02*
X879000Y978000D01*
X982000Y974000D02*
X995000Y961000D01*
X876000Y974000D02*
X982000D01*
X850000Y1000000D02*
X876000Y974000D01*
X760000Y999080D02*
Y1005000D01*
X750920Y998000D02*
X751000D01*
X889000Y995000D02*
X889000D01*
X1327933Y1592000D02*
X1360000D01*
X747933Y1244933D02*
Y1245000D01*
X849000Y1000000D02*
X850000D01*
X877000D02*
X878000D01*
X871000Y1000000D02*
Y1000000D01*
X1045000Y905000D02*
Y941000D01*
X1035000Y905000D02*
Y945000D01*
X1025000Y905000D02*
Y949000D01*
X1015000Y905000D02*
Y953000D01*
X1005000Y905000D02*
Y957000D01*
X995000Y905000D02*
Y961000D01*
X1107933Y1649000D02*
Y1655000D01*
X1082000Y1588000D02*
Y1606000D01*
X1075000Y1605000D02*
X1077133Y1602867D01*
Y1576000D02*
Y1602867D01*
X1076933Y1576000D02*
X1077000Y1576067D01*
X1054000Y1628000D02*
Y1636920D01*
Y1628000D02*
X1061000D01*
X1064933Y1637000D02*
X1066000Y1635933D01*
X1086933Y1616000D02*
X1087000Y1615933D01*
Y1592000D02*
Y1615933D01*
Y1592000D02*
X1124933D01*
X1097000Y1596000D02*
X1126933D01*
X1097000D02*
Y1616000D01*
X1108000Y1600000D02*
Y1616987D01*
Y1600000D02*
X1128933D01*
X1089933Y1533000D02*
X1101933D01*
X949000Y1648080D02*
X956000D01*
X1304853Y1594000D02*
Y1604920D01*
X1304920Y1616000D02*
X1305000D01*
X1304853D02*
X1304920D01*
X1311920Y1561000D02*
X1312000D01*
X1305000D02*
X1311920D01*
X1298080D02*
X1305000D01*
Y1548067D02*
Y1561000D01*
X1303933Y1547000D02*
X1305000Y1548067D01*
X1323433Y1545000D02*
Y1561500D01*
X1287920Y1561000D02*
X1288000D01*
X1196933Y1556000D02*
X1267000D01*
X1278000Y1567000D01*
X1266000Y1571987D02*
X1266013Y1572000D01*
X1266000Y1563000D02*
Y1571987D01*
X1273933Y1548000D02*
Y1548000D01*
Y1545000D02*
Y1548000D01*
X1234000Y1495067D02*
X1235933Y1497000D01*
X1206933Y1528000D02*
Y1548000D01*
X1286000Y1548000D02*
X1287000Y1549000D01*
X1273933Y1548000D02*
X1286000D01*
X1206933Y1548000D02*
X1273933D01*
X1224933Y1542000D02*
X1250933D01*
X1224933Y1542000D02*
X1224933Y1542000D01*
X1245000Y1536000D02*
X1248000Y1533000D01*
X1227933Y1536000D02*
X1245000D01*
X1227933Y1536000D02*
X1227933Y1536000D01*
X1248000Y1533000D02*
X1251933D01*
X1201933Y1524750D02*
Y1551933D01*
X1247933Y1648080D02*
X1248000D01*
X1258933D02*
X1260000Y1649147D01*
X1292933Y1648000D02*
X1293933Y1649000D01*
X1245853Y1648080D02*
X1247933D01*
X1245853D02*
X1245853D01*
X1235933D02*
X1245853D01*
X1226000D02*
X1235933D01*
X1224306D02*
X1226000D01*
X1213920D02*
X1223933D01*
X1212933D02*
X1213920D01*
X1214000Y1648000D01*
X1223933D02*
Y1648080D01*
Y1647000D02*
Y1648000D01*
X1089933Y1526000D02*
Y1533000D01*
X1223933Y1496920D02*
Y1506000D01*
X1202013Y1496920D02*
X1223933D01*
X1234000Y1488000D02*
Y1495067D01*
X1210000Y1488000D02*
X1234000D01*
X1172000Y1638000D02*
Y1656000D01*
X1026000Y1599000D02*
X1050933D01*
X1033000Y1607000D02*
X1037000Y1603000D01*
X1019000Y1595000D02*
X1044933D01*
X1019000D02*
Y1607000D01*
X1038133Y1591000D02*
X1038383D01*
X1012000D02*
X1038133D01*
Y1576000D02*
Y1591000D01*
X1118933Y1649000D02*
Y1649000D01*
X1164933Y1648080D02*
Y1654933D01*
X1189933Y1650000D02*
Y1654933D01*
X1176933Y1638000D02*
X1178000D01*
X1172000D02*
X1176933D01*
X1178000D02*
X1178000Y1638000D01*
X1189933Y1648080D02*
Y1650000D01*
X1280933Y1648080D02*
Y1648920D01*
X1291933Y1638000D02*
Y1639000D01*
Y1637920D02*
Y1638000D01*
X1315500Y1508000D02*
X1325000D01*
X1233933Y1509160D02*
Y1513067D01*
X1231433Y1515567D02*
X1233933Y1513067D01*
X1231433Y1515567D02*
Y1524250D01*
X1213933Y1508000D02*
Y1513067D01*
X1211433Y1515567D02*
X1213933Y1513067D01*
X1211433Y1515567D02*
Y1524250D01*
X1171933Y1497000D02*
X1171933Y1497000D01*
X1166433Y1514000D02*
Y1524250D01*
X1180933Y1514000D02*
X1186933D01*
X1180933Y1497000D02*
Y1514000D01*
X1190933D02*
Y1519000D01*
X1186933Y1514000D02*
X1190933D01*
X1186933Y1530000D02*
Y1535000D01*
X1176433D02*
X1186933D01*
X1176433Y1524250D02*
Y1535000D01*
X1199000Y1431080D02*
X1209000D01*
X1198000Y1410080D02*
Y1420000D01*
Y1431000D02*
X1199000Y1430000D01*
X1273933Y1523000D02*
X1274000D01*
X1256000Y1496920D02*
Y1497000D01*
X1274000Y1523000D02*
Y1531853D01*
X1273933Y1531920D02*
X1274000Y1531853D01*
X1264000Y1517000D02*
Y1520000D01*
X1264000Y1520000D02*
X1264000Y1520000D01*
X1256000Y1507080D02*
Y1514000D01*
Y1489000D02*
Y1496000D01*
Y1438000D02*
X1257000D01*
X1123933D02*
X1256000D01*
X1325000Y1531000D02*
Y1545000D01*
X1172067Y1412000D02*
X1173000D01*
X1171000Y1385000D02*
X1173000D01*
X1174000Y1384000D01*
X1163000D02*
X1174000D01*
X1146933Y1367067D02*
X1149000Y1365000D01*
X1146933Y1367067D02*
Y1371000D01*
X877000Y1235000D02*
X899933D01*
X876633Y1235367D02*
X877000Y1235000D01*
X876633Y1235367D02*
Y1253000D01*
X1142000Y1419000D02*
X1142933Y1419933D01*
X1142000Y1419000D02*
X1142933D01*
X1141933D02*
X1142000D01*
X913000Y1416000D02*
X1139000D01*
X1143000Y1419000D02*
X1150000D01*
X1137000Y1411000D02*
X1138000D01*
X1142933Y1419000D02*
X1142933Y1419000D01*
X1152000Y1449000D02*
X1152547D01*
X1136547D02*
X1152000D01*
X1006000Y1479000D02*
Y1484000D01*
X956000Y1539000D02*
X1031683D01*
X956000D02*
Y1610000D01*
Y1637000D01*
X958000Y1648000D02*
X963000D01*
Y1627080D02*
Y1648000D01*
X1190933Y1648000D02*
X1199933Y1639000D01*
X1291933Y1627000D02*
Y1627080D01*
X1269933Y1616000D02*
X1270000Y1615933D01*
Y1609000D02*
Y1615933D01*
X1256933Y1609000D02*
X1270000D01*
X1280933Y1617000D02*
X1280933D01*
X1278933Y1616000D02*
X1281000D01*
X1280933Y1617000D02*
X1280933D01*
X1281000Y1605000D02*
Y1616000D01*
X1266933Y1605000D02*
X1281000D01*
X1266933Y1605000D02*
X1266933Y1605000D01*
X1290473Y1615460D02*
X1292000D01*
X1290433Y1615500D02*
X1290473Y1615460D01*
X1292000Y1601000D02*
Y1615460D01*
X1268933Y1601000D02*
X1292000D01*
X1268933Y1601000D02*
X1268933Y1601000D01*
X1124933Y1660000D02*
X1132866D01*
X1132933Y1660067D01*
X1124933Y1637000D02*
Y1660000D01*
X1132933Y1660000D02*
X1133933Y1661000D01*
X1132933Y1660000D02*
Y1660067D01*
X1133933Y1635000D02*
Y1638000D01*
X1141933Y1615000D02*
Y1615000D01*
Y1613000D02*
Y1615000D01*
Y1613000D02*
X1151933D01*
X1132433Y1609000D02*
X1149933D01*
X1132433D02*
Y1619000D01*
X1118000Y1615067D02*
X1118933Y1616000D01*
X1118000Y1604000D02*
Y1615067D01*
Y1604000D02*
X1147933D01*
X1108000Y1616987D02*
X1108473Y1617460D01*
X1128933Y1600000D02*
X1128933Y1600000D01*
X1097000Y1616000D02*
X1098933D01*
X1126933Y1596000D02*
X1126933Y1596000D01*
X1124933Y1592000D02*
X1124933Y1592000D01*
X1120933Y1588000D02*
X1120933Y1588000D01*
X1117933Y1648080D02*
Y1650000D01*
X1085933Y1648080D02*
Y1656000D01*
X1086000D01*
X963000Y1607000D02*
Y1615000D01*
Y1544000D02*
Y1607000D01*
X970000Y1610000D02*
Y1638000D01*
Y1548000D02*
Y1610000D01*
X977000Y1607000D02*
Y1614920D01*
Y1552000D02*
Y1607000D01*
X984000Y1610000D02*
Y1637000D01*
Y1556000D02*
Y1610000D01*
X991000Y1607000D02*
Y1616920D01*
Y1560000D02*
Y1607000D01*
X998000Y1637920D02*
Y1638000D01*
Y1610000D02*
Y1637920D01*
Y1564000D02*
Y1610000D01*
X1031683Y1521500D02*
Y1539000D01*
X963000Y1544000D02*
X1038183D01*
Y1521500D02*
Y1544000D01*
X1044683Y1521500D02*
Y1548000D01*
X970000D02*
X1044683D01*
X1051183Y1521500D02*
Y1552000D01*
X977000D02*
X1051183D01*
X970080Y1648080D02*
X984000D01*
X998000D01*
X984000D02*
Y1649000D01*
X977000Y1648000D02*
X983000D01*
X977000Y1629080D02*
Y1648000D01*
X984000Y1556000D02*
X1057683D01*
X1005000Y1627080D02*
Y1648000D01*
X1031000D02*
X1033000D01*
X984000D02*
Y1648080D01*
X1026000D02*
X1031000D01*
X1012000D02*
X1026000D01*
X998000D02*
X1012000D01*
X1031000Y1648000D02*
Y1648080D01*
X991000Y1627080D02*
Y1648000D01*
X1057683Y1521500D02*
Y1556000D01*
X991000Y1616920D02*
Y1617000D01*
X1064183Y1521500D02*
Y1560000D01*
X991000D02*
X1064183D01*
X998000Y1564000D02*
X1070683D01*
Y1521500D02*
Y1564000D01*
X1005000Y1587000D02*
X1031933D01*
X1005000Y1616920D02*
Y1617000D01*
X1012000Y1648000D02*
Y1648080D01*
X1019000Y1607000D02*
Y1616000D01*
Y1627080D02*
Y1648000D01*
X1033000Y1607000D02*
Y1616000D01*
X1047000Y1648000D02*
X1052000D01*
X1026000D02*
Y1648080D01*
Y1637920D02*
Y1638000D01*
X1047000Y1627080D02*
Y1648000D01*
X1033000Y1627080D02*
Y1648000D01*
X1047000Y1616920D02*
Y1617000D01*
X1053000Y1637920D02*
X1054000Y1636920D01*
X1053000Y1637920D02*
Y1639000D01*
X1327933Y1592000D02*
X1327933Y1592000D01*
X1322000D02*
X1327933D01*
X1328933Y1587000D02*
X1328933Y1587000D01*
X1264000Y1540067D02*
X1264933Y1541000D01*
X1244933Y1507080D02*
X1256000D01*
X1254933Y1585000D02*
Y1587000D01*
X1304853Y1604920D02*
X1304933Y1605000D01*
X1287000Y1549000D02*
X1290000D01*
X1178000Y1442547D02*
Y1443000D01*
X1174000Y1419000D02*
X1176000D01*
X1151933Y1376000D02*
Y1376000D01*
Y1384933D02*
X1152000Y1385000D01*
X1195000Y880000D02*
Y905000D01*
X1150000Y1419000D02*
X1150000Y1419000D01*
X1185000Y880000D02*
Y905000D01*
X1175000Y880000D02*
Y905000D01*
X982933Y1351000D02*
X1126000D01*
X1112000Y1278000D02*
X1113000D01*
X987933Y1293000D02*
X1121547Y1293000D01*
X983933Y1376000D02*
X1151933D01*
X782933Y1360000D02*
X795933Y1373000D01*
X1236933Y1593000D02*
X1302933D01*
X1280933Y1637920D02*
X1290013Y1647000D01*
X1258933Y1637920D02*
X1269013Y1648000D01*
X1153933Y1638000D02*
X1163933Y1648000D01*
X1074933Y1638000D02*
X1084933Y1648000D01*
X1097101Y1638087D02*
X1107013Y1648000D01*
X1290933Y1587000D02*
X1328933D01*
X1241933Y1507000D02*
X1242933Y1506000D01*
X1220933Y1626000D02*
X1223933Y1629000D01*
X1211933Y1592000D02*
X1229933Y1610000D01*
X1206433Y1593500D02*
X1226933Y1614000D01*
X1201433Y1594500D02*
X1225933Y1619000D01*
X1196433Y1595500D02*
X1220933Y1620000D01*
X1223933Y1648080D02*
X1224306D01*
X1224306Y1648097D02*
X1224306Y1648080D01*
X1139933Y1588000D02*
X1141433Y1586500D01*
X1141933Y1592000D02*
X1146433Y1587500D01*
X1141433Y1578750D02*
Y1586500D01*
X1133933Y1635000D02*
X1141933Y1627000D01*
X1161433Y1578750D02*
Y1590500D01*
X1155933Y1635000D02*
X1163473Y1627460D01*
X1141933Y1615000D02*
Y1627000D01*
X1142933Y1648080D02*
X1143933D01*
X1131933D02*
X1142933D01*
X870933Y1261000D02*
X882933D01*
X812933Y1303000D02*
X822183D01*
X849933Y1242000D02*
X863933D01*
X857933Y1323000D02*
X858933Y1322000D01*
X747933Y1303000D02*
X755933Y1311000D01*
X1304853Y1593000D02*
Y1594000D01*
X1244393Y1497460D02*
X1244933Y1496920D01*
X1236013D02*
X1244933D01*
X1243853Y1507080D02*
X1243933Y1507000D01*
X1255933Y1579000D02*
X1270933D01*
X1258933Y1605000D02*
X1266933D01*
X1260933Y1601000D02*
X1268933D01*
X1239933Y1589000D02*
X1252933D01*
X1231933Y1606000D02*
X1253933D01*
X1235933Y1598000D02*
X1257933D01*
X1233933Y1602000D02*
X1255933D01*
X1221433Y1589500D02*
X1231933Y1600000D01*
X1216433Y1590500D02*
X1231933Y1606000D01*
X1243933Y1614000D02*
X1245933Y1616000D01*
X1229933Y1610000D02*
X1251933D01*
X1226933Y1614000D02*
X1243933D01*
X1223933Y1629000D02*
Y1637000D01*
X1181013Y1496920D02*
X1185933D01*
X1162933Y1605000D02*
X1166433Y1601500D01*
X1159933Y1605000D02*
X1162933D01*
X1124933Y1592000D02*
X1141933D01*
X1128933Y1600000D02*
X1145933D01*
X1126933Y1596000D02*
X1143933D01*
X1147933Y1604000D02*
X1161433Y1590500D01*
X1141933Y1615000D02*
X1141933D01*
X1141933D02*
X1141933Y1615000D01*
X1155933Y1615000D02*
X1161933Y1609000D01*
X1164933D01*
X1117933Y1637920D02*
X1124013D01*
X1142933Y1633000D02*
Y1637920D01*
X857933Y1256000D02*
X859933Y1254000D01*
X858013Y1252080D02*
X858933Y1253000D01*
X848933Y1252080D02*
X858013D01*
X809933Y1298000D02*
X822183D01*
X857853Y1285000D02*
X857933D01*
X855933Y1326000D02*
X856933D01*
X747933Y1245000D02*
X757933Y1255000D01*
X771029Y1280904D02*
X780029D01*
X755933Y1311000D02*
Y1318000D01*
X1269933Y1628000D02*
Y1637920D01*
X1280933Y1627080D02*
Y1637920D01*
X1247933Y1627080D02*
Y1637920D01*
X1258933Y1627080D02*
Y1637000D01*
X1247933Y1638000D02*
X1258013Y1648080D01*
X1233933Y1625000D02*
Y1638920D01*
X1107933Y1637920D02*
X1116933Y1646920D01*
X1085933Y1638000D02*
X1094933Y1647000D01*
X1290013Y1647000D02*
X1290933D01*
X1291933D02*
X1292013Y1647080D01*
Y1647920D01*
X1292433Y1647500D01*
X1266013Y1584000D02*
Y1586000D01*
Y1591920D01*
X1269933Y1627080D02*
Y1628000D01*
Y1627000D02*
Y1627080D01*
X1280933Y1626000D02*
Y1627080D01*
X1269013Y1648000D02*
Y1648080D01*
X1247933Y1627000D02*
Y1627080D01*
X1253933Y1606000D02*
X1256933Y1609000D01*
X1257933Y1626000D02*
X1258933Y1627000D01*
Y1627080D01*
Y1626000D02*
Y1627000D01*
X1252933Y1589000D02*
X1254933Y1587000D01*
X1245853Y1648080D02*
X1245933Y1648000D01*
X1245853Y1648080D02*
X1245933Y1648000D01*
X1258013Y1648080D02*
X1258933D01*
X1258933Y1648080D02*
X1258933Y1648080D01*
X1226433Y1524250D02*
Y1535000D01*
X1226433Y1578750D02*
Y1588500D01*
X1236933Y1567000D02*
X1237933D01*
X1236433Y1567500D02*
X1236933Y1567000D01*
X1236433Y1585500D02*
X1239933Y1589000D01*
X1236433Y1567500D02*
Y1577750D01*
X1231433Y1587500D02*
X1236933Y1593000D01*
X1231433Y1577750D02*
Y1587500D01*
Y1567500D02*
Y1577750D01*
X1206433Y1578750D02*
Y1593500D01*
X1216433Y1578750D02*
Y1590500D01*
X1221433Y1578750D02*
Y1589500D01*
X1211433Y1577750D02*
Y1590500D01*
X1211433Y1578750D02*
Y1591500D01*
X1211933Y1648080D02*
X1212933D01*
X1186933Y1626000D02*
Y1627080D01*
X1187933Y1628080D01*
X1201433Y1578750D02*
Y1594500D01*
X1187933Y1628080D02*
Y1636000D01*
X1196433Y1578750D02*
Y1595500D01*
X1185933Y1574250D02*
Y1616920D01*
X1191433Y1607500D02*
X1196933Y1613000D01*
X1189933Y1606000D02*
X1196933Y1613000D01*
X1191433Y1578750D02*
Y1595500D01*
X1187933Y1648000D02*
X1189933D01*
Y1647080D02*
Y1648000D01*
X1175933Y1609000D02*
X1181433Y1603500D01*
X1166433Y1578750D02*
Y1601500D01*
X1176433Y1578750D02*
Y1603000D01*
X1181433Y1578750D02*
Y1603500D01*
X1164933Y1609000D02*
X1171433Y1602500D01*
X1166683Y1612750D02*
X1176433Y1603000D01*
X1171433Y1577750D02*
Y1602500D01*
X1164933Y1648080D02*
X1164933Y1648080D01*
X1178013D02*
X1178433Y1648500D01*
X1178013Y1648920D02*
X1178433Y1648500D01*
X1151933Y1524750D02*
Y1534000D01*
X1146433Y1578750D02*
Y1587500D01*
X1156433Y1578750D02*
Y1589500D01*
X1151933Y1613000D02*
X1159933Y1605000D01*
X1151433Y1578750D02*
Y1588500D01*
X1152013Y1647000D02*
X1152933D01*
X1153933Y1648080D02*
X1153933D01*
X1153933Y1648080D02*
X1153933Y1648080D01*
X1143933D02*
X1153933D01*
X1124933Y1634000D02*
X1132933Y1626000D01*
X1107933Y1648080D02*
Y1649000D01*
X1116933Y1646920D02*
Y1648000D01*
X1074920Y1648001D02*
X1074933Y1648002D01*
Y1648160D02*
X1074933D01*
X1072933D02*
X1074933D01*
Y1648002D02*
Y1648160D01*
X1074920Y1648001D02*
X1074933Y1648000D01*
Y1648002D01*
X1065933Y1648000D02*
X1074933D01*
X1054853Y1509000D02*
X1058853Y1505000D01*
X1005853Y1486080D02*
X1005933Y1486000D01*
X868933Y1259000D02*
X870933Y1261000D01*
X863933Y1242000D02*
X868933Y1247000D01*
X823933Y1333000D02*
Y1347000D01*
X792933Y1261000D02*
X792933Y1261000D01*
X777933Y1363000D02*
X782933Y1368000D01*
X777933Y1347250D02*
Y1363000D01*
X757933Y1255000D02*
Y1261000D01*
X768933Y1283000D02*
X771029Y1280904D01*
X757933Y1347250D02*
X758000Y1363000D01*
X741933Y1303000D02*
X747933D01*
X1291933Y1616920D02*
Y1617000D01*
Y1637840D02*
Y1637920D01*
Y1637840D02*
X1292773D01*
X1292933Y1638000D02*
X1293013Y1637920D01*
X1274013Y1544080D02*
X1274433Y1544500D01*
X1273933Y1544000D02*
Y1545000D01*
X1274433Y1544500D01*
X1272933Y1533000D02*
X1273933Y1532000D01*
X1270933Y1579000D02*
X1275353Y1583420D01*
X1265933Y1592000D02*
X1266013Y1591920D01*
X1269933Y1617000D02*
Y1618000D01*
X1280933Y1616920D02*
Y1617000D01*
X1269933Y1637920D02*
Y1638000D01*
X1280933Y1637920D02*
Y1638000D01*
X1255853Y1570000D02*
Y1572000D01*
Y1585000D01*
X1257933Y1598000D02*
X1260933Y1601000D01*
X1255933Y1602000D02*
X1258933Y1605000D01*
Y1618000D02*
X1258933Y1618000D01*
X1247933Y1617000D02*
X1248933Y1618000D01*
X1247933Y1616920D02*
Y1617000D01*
X1247853Y1616920D02*
X1247933D01*
X1258933D02*
Y1618000D01*
X1258853Y1616920D02*
X1258933D01*
X1251933Y1610000D02*
X1257353Y1615420D01*
X1247933Y1638000D02*
Y1639000D01*
X1246933Y1636000D02*
Y1637000D01*
X1247933Y1637920D02*
Y1638000D01*
X1224933Y1507000D02*
X1225013Y1507080D01*
X1231433Y1507500D02*
Y1507500D01*
X1231853Y1507080D02*
X1231933Y1507000D01*
X1225013Y1507080D02*
X1231853D01*
X1236433Y1577750D02*
Y1585500D01*
X1241433Y1569567D02*
Y1577750D01*
X1233933Y1596000D02*
Y1596000D01*
X1235933Y1598000D01*
X1231933Y1600000D02*
Y1600000D01*
X1233933Y1602000D01*
X1226433Y1588500D02*
X1233933Y1596000D01*
X1225933Y1619000D02*
Y1624000D01*
X1211433Y1590500D02*
X1211433Y1591500D01*
Y1591500D02*
Y1591500D01*
X1215933Y1596000D01*
X1220933Y1620000D02*
Y1626000D01*
X1201433Y1507500D02*
Y1524250D01*
X1201933Y1524750D01*
X1201433Y1508500D02*
X1201933Y1508000D01*
X1201433Y1508500D02*
X1201933Y1508000D01*
X1200933Y1507000D02*
X1201433Y1507500D01*
X1192933Y1509000D02*
X1196433Y1512500D01*
X1186433Y1514500D02*
X1186933Y1514000D01*
X1186433Y1514500D02*
Y1524250D01*
X1196433Y1512500D02*
Y1524250D01*
X1189933Y1509000D02*
X1192933D01*
X1185933Y1574250D02*
X1186433Y1573750D01*
X1189933Y1597000D02*
Y1606000D01*
Y1597000D02*
X1191433Y1595500D01*
X1185933Y1619000D02*
X1185933Y1619000D01*
X1196933Y1613000D02*
Y1614000D01*
X1185933Y1616920D02*
Y1619000D01*
X1199933Y1639000D02*
Y1639000D01*
X1187933Y1636000D02*
X1187933D01*
X1199933Y1639000D02*
X1201013Y1637920D01*
X1201933D01*
X1188933Y1650000D02*
X1189933D01*
X1189933Y1650000D02*
X1189933Y1650000D01*
X1180933Y1497000D02*
X1181013Y1496920D01*
X1171433Y1508433D02*
Y1524250D01*
X1166683Y1612750D02*
Y1614750D01*
X1166933Y1615000D01*
X1165933Y1613500D02*
X1166683Y1612750D01*
X1175933Y1609000D02*
Y1615000D01*
X1175933Y1615000D01*
X1165933Y1613500D02*
Y1617000D01*
X1175933Y1616000D02*
X1176933Y1617000D01*
X1178933Y1649080D02*
X1178933Y1649080D01*
X1156433Y1524250D02*
X1156933Y1523750D01*
X1160933Y1514000D02*
Y1518750D01*
X1151433Y1524250D02*
X1151933Y1524750D01*
Y1534000D02*
X1160933D01*
Y1529000D02*
Y1534000D01*
X1145933Y1600000D02*
X1156433Y1589500D01*
X1143933Y1596000D02*
X1151433Y1588500D01*
X1155933Y1615000D02*
Y1620000D01*
Y1635000D02*
Y1637000D01*
X1153933Y1637920D02*
Y1638000D01*
X1124013Y1637920D02*
X1124933Y1637000D01*
Y1634000D02*
Y1637000D01*
X1106933Y1637000D02*
X1107853D01*
X1107933Y1636000D02*
Y1637000D01*
X1115933Y1629000D01*
X1107933Y1649000D02*
X1107933Y1649000D01*
X1085933Y1638000D02*
Y1638000D01*
X1096933Y1638255D02*
X1097060Y1638127D01*
X1096933Y1638000D02*
Y1638255D01*
X1097060Y1638127D02*
X1097933Y1639000D01*
X1096933Y1638000D02*
X1097060Y1638127D01*
X1085933Y1637920D02*
Y1638000D01*
X1096933Y1637920D02*
X1097101Y1638087D01*
X1096933Y1637920D02*
Y1638000D01*
X1077183Y1512250D02*
Y1521500D01*
X1074933Y1638000D02*
Y1638000D01*
X1047933Y1494080D02*
Y1502000D01*
X1036933Y1494080D02*
Y1502000D01*
X1025183Y1509000D02*
X1025183Y1509000D01*
X1024933D02*
X1025183D01*
Y1509000D02*
Y1509000D01*
X868933Y1247000D02*
Y1259000D01*
X864853Y1280920D02*
X864933Y1281000D01*
X864853Y1267000D02*
Y1280920D01*
X864933Y1290000D02*
X872933D01*
X862853Y1328080D02*
X863933Y1327000D01*
X872933Y1340000D02*
Y1340000D01*
X855853Y1328080D02*
X855933Y1328000D01*
X823933Y1360000D02*
X823933Y1360000D01*
Y1347000D02*
Y1360000D01*
X808933Y1264000D02*
X813933D01*
X811933Y1276000D02*
X814933Y1273000D01*
X797933Y1347250D02*
Y1356000D01*
X780029Y1280904D02*
X780933Y1280000D01*
Y1279000D02*
Y1280000D01*
X787933Y1264000D02*
X787933Y1264000D01*
X782933Y1347250D02*
Y1360000D01*
X792933Y1351000D02*
Y1357000D01*
X789933Y1375000D02*
X790933Y1376000D01*
X780433Y1365500D02*
X789933Y1375000D01*
X773457Y1288000D02*
X774457Y1287000D01*
X740933Y1298000D02*
X750933D01*
X746933Y1308000D02*
X749933Y1311000D01*
X743933Y1583000D02*
X747933Y1579000D01*
X917433Y1453500D02*
X917933Y1453000D01*
X595906Y1558000D02*
X605826D01*
X1548933Y1376500D02*
Y1378000D01*
X1547433Y1375000D02*
X1548933Y1376500D01*
X597826Y1487000D02*
X598826Y1488000D01*
X585746D02*
X586826D01*
X1125000Y880000D02*
Y905000D01*
X1135000Y880000D02*
Y905000D01*
X1145000Y880000D02*
Y905000D01*
X1155000Y880000D02*
Y905000D01*
X1165000Y880000D02*
Y905000D01*
X1095000Y881500D02*
Y905500D01*
X1094000Y904500D02*
X1095000Y905500D01*
X1094000Y880500D02*
X1095000Y881500D01*
X1005000Y880500D02*
Y904500D01*
X1205000Y880000D02*
Y905000D01*
X1215000Y880000D02*
Y905000D01*
X1225000Y880000D02*
Y905000D01*
X1235000Y880000D02*
Y905000D01*
X1245000Y880000D02*
Y905000D01*
X1815000Y881500D02*
Y905500D01*
X1825000Y885000D02*
X1825000Y904500D01*
X1005000Y884000D02*
X1005000Y903500D01*
X1075000Y880500D02*
Y904500D01*
X1085000Y880500D02*
Y904500D01*
X1065000Y880500D02*
Y904500D01*
X1055000Y880500D02*
Y904500D01*
X1035000Y880500D02*
Y904500D01*
X1045000Y880500D02*
Y904500D01*
X1015000Y880500D02*
Y904500D01*
X1025000Y880500D02*
Y904500D01*
X1025000Y880500D02*
Y904500D01*
X1015000Y880500D02*
Y904500D01*
D14*
X550826Y1558000D02*
D03*
X564826D02*
D03*
X551000Y1488000D02*
D03*
X565000D02*
D03*
X551000Y1418000D02*
D03*
X565000D02*
D03*
D15*
X1093500Y1669000D02*
D03*
X1089500D02*
D03*
X1287000Y1547000D02*
D03*
X1291000D02*
D03*
D16*
X1085000Y1464000D02*
D03*
Y1468000D02*
D03*
D17*
X612970Y1311000D02*
D03*
X613000Y1303500D02*
D03*
X612970Y1256500D02*
D03*
Y1249000D02*
D03*
D18*
Y1297500D02*
D03*
Y1292500D02*
D03*
Y1287500D02*
D03*
X613000Y1282500D02*
D03*
X612970Y1277500D02*
D03*
Y1272500D02*
D03*
Y1267500D02*
D03*
Y1262500D02*
D03*
D19*
X1215000Y878500D02*
D03*
X1245000D02*
D03*
X1235000D02*
D03*
X1225000D02*
D03*
X1355000Y878500D02*
D03*
X1345000D02*
D03*
X1495000D02*
D03*
X1515000D02*
D03*
X1485000D02*
D03*
X1505000D02*
D03*
X1615000D02*
D03*
X1625000D02*
D03*
X1675000Y878500D02*
D03*
X1665000D02*
D03*
X1735000D02*
D03*
X1715000D02*
D03*
X1725000D02*
D03*
X1765000D02*
D03*
X1775000D02*
D03*
X1785000D02*
D03*
X1685000D02*
D03*
X1605000Y878500D02*
D03*
X1585000D02*
D03*
X1565000D02*
D03*
X1525000D02*
D03*
X1465000D02*
D03*
X1445000D02*
D03*
X1425000D02*
D03*
X1365000D02*
D03*
X1385000D02*
D03*
X1325000Y878500D02*
D03*
X1195000D02*
D03*
X1175000D02*
D03*
X1155000D02*
D03*
X1075000Y878500D02*
D03*
X1095000D02*
D03*
X1135000Y878500D02*
D03*
X1055000Y878500D02*
D03*
X1015000D02*
D03*
X1035000D02*
D03*
X1635000Y878500D02*
D03*
X1595000Y878500D02*
D03*
X1575000D02*
D03*
X1555000D02*
D03*
X1475000D02*
D03*
X1455000D02*
D03*
X1435000D02*
D03*
X1415000D02*
D03*
X1375000D02*
D03*
X1335000D02*
D03*
X1315000Y878500D02*
D03*
X1305000D02*
D03*
X1295000D02*
D03*
X1285000D02*
D03*
X1275000D02*
D03*
X1205000D02*
D03*
X1185000D02*
D03*
X1165000D02*
D03*
X1145000D02*
D03*
X1125000D02*
D03*
X1085000Y878500D02*
D03*
X1065000D02*
D03*
X1045000D02*
D03*
X1025000D02*
D03*
D20*
X1825000Y884000D02*
D03*
X995000D02*
D03*
D21*
X1815000Y874000D02*
D03*
X1005000D02*
D03*
D42*
X947000Y1431000D02*
X1066000D01*
X947000Y1306000D02*
Y1346000D01*
Y1306000D02*
X1087000D01*
X934000Y1444000D02*
Y1464000D01*
Y1444000D02*
X946000Y1432000D01*
X947000D01*
Y1431000D02*
Y1432000D01*
X1525000Y915000D02*
Y919500D01*
X1515000Y915000D02*
Y919500D01*
X1505000Y915000D02*
Y919500D01*
X1495000Y915000D02*
Y919500D01*
X1485000Y915000D02*
Y919500D01*
X1475000Y915000D02*
Y919500D01*
X1525000Y915000D02*
X1525000Y889000D01*
X1515000Y915000D02*
X1515000Y889000D01*
X1505000Y915000D02*
X1505000Y889000D01*
X1495000Y915000D02*
X1495000Y889000D01*
X1485000Y915000D02*
X1485000Y889000D01*
X1475000Y915000D02*
X1475000Y889000D01*
X1465000Y915000D02*
Y919500D01*
X1455000Y915000D02*
Y919500D01*
X1445000Y915000D02*
Y919500D01*
X1435000Y915000D02*
Y919500D01*
X1425000Y915000D02*
Y919500D01*
X1415000Y915000D02*
Y919500D01*
X1465000Y915000D02*
X1465000Y889000D01*
X1455000Y915000D02*
X1455000Y889000D01*
X1445000Y915000D02*
X1445000Y889000D01*
X1435000Y915000D02*
X1435000Y889000D01*
X1425000Y915000D02*
X1425000Y889000D01*
X1415000Y915000D02*
X1415000Y889000D01*
X1359000Y1603000D02*
X1567000D01*
X900000Y1590000D02*
Y1706000D01*
X792000D02*
X900000D01*
X1898000Y1372000D02*
X1899000D01*
X1496000Y1356000D02*
X1524000D01*
X2249000Y1356000D02*
Y1371000D01*
X2074000Y1356000D02*
X2249000D01*
X2074000D02*
Y1372000D01*
X1899000Y1356000D02*
X2074000D01*
X1899000D02*
Y1372000D01*
X1724000Y1356000D02*
X1899000D01*
X1723933D02*
X1724000D01*
X1548933D02*
X1723933D01*
X1724000D02*
Y1371000D01*
X1548933Y1356000D02*
Y1376500D01*
X1524000Y1356000D02*
X1548933D01*
X1375000Y881500D02*
Y927500D01*
X1385000Y881500D02*
Y927500D01*
X1365000Y881500D02*
Y927500D01*
X1345000Y881500D02*
Y927500D01*
X1355000Y881500D02*
Y928500D01*
X1325000Y881500D02*
Y927500D01*
X1335000Y881500D02*
Y927500D01*
X1305000Y881500D02*
Y928500D01*
X1315000Y881500D02*
Y927500D01*
X1295000Y881500D02*
Y927500D01*
X1275000Y881500D02*
Y927500D01*
X1285000Y881500D02*
Y915000D01*
X1285000Y924500D02*
X1285000Y915000D01*
X1479000Y1470000D02*
Y1470000D01*
Y1434000D02*
Y1470000D01*
Y1434000D02*
X1514000D01*
Y1357000D02*
Y1434000D01*
X1594933Y1470000D02*
Y1470000D01*
Y1449500D02*
Y1470000D01*
X2295000Y1470000D01*
X1479000Y1470000D02*
X1594933D01*
X1497000Y1403000D02*
Y1420000D01*
Y1455000D02*
X1530000D01*
X711000Y1736000D02*
X943000D01*
Y1488500D02*
Y1736000D01*
X1769933Y1469000D02*
X1770000D01*
X1769933Y1444500D02*
Y1469000D01*
X2074000Y1372000D02*
X2075000D01*
X2249000Y1371000D02*
X2250000D01*
X1285000Y915000D02*
Y927500D01*
X1944933Y1451000D02*
X1945000Y1469000D01*
X2119933Y1453000D02*
Y1469000D01*
X2294933Y1444500D02*
Y1469000D01*
X1325000Y911500D02*
Y912500D01*
D43*
X906000Y1169000D02*
X1379000D01*
X895000Y1158000D02*
X906000Y1169000D01*
X755000Y1158000D02*
X895000D01*
X1361000Y1614000D02*
X1489000D01*
X1357000Y1620000D02*
X1483000D01*
X1361000Y1626000D02*
X1477000D01*
X1076500Y1196000D02*
X1086000D01*
X789500Y1430500D02*
X906500D01*
X737000Y1378000D02*
X789500Y1430500D01*
X737000Y1369000D02*
Y1378000D01*
X1091000Y1219000D02*
X1095000D01*
X1087000Y1223000D02*
X1091000Y1219000D01*
X1087000Y1223000D02*
Y1229000D01*
X1052000Y1176000D02*
X1373000D01*
X1358000Y1632000D02*
X1471000D01*
X1362000Y1638000D02*
X1465000D01*
X1270000Y1656000D02*
Y1664000D01*
X1255000Y1679000D02*
X1270000Y1664000D01*
X1255000Y1679000D02*
Y1763000D01*
X892500Y1487500D02*
Y1488000D01*
X835500D02*
X892500D01*
X835500Y1485500D02*
Y1488000D01*
X906500Y1430500D02*
X915933D01*
Y1453500D01*
X892500Y1463500D02*
Y1486500D01*
X1291933Y1656067D02*
Y1718000D01*
X1118000Y1657000D02*
Y1736933D01*
X1117933Y1737000D02*
X1118000Y1736933D01*
X1165000Y1657000D02*
Y1744000D01*
X1179000Y1657000D02*
X1180000Y1750000D01*
X1248000Y1656000D02*
Y1756000D01*
X1291933Y1656067D02*
X1292000Y1656000D01*
X1291933Y1718000D02*
X1292000D01*
D44*
X806000Y1450000D02*
X807000Y1449000D01*
X784433Y1450000D02*
X806000D01*
X805000Y1440500D02*
X833433D01*
X805000D02*
Y1446000D01*
Y1440000D02*
Y1440500D01*
X833433D02*
X833933Y1441000D01*
D46*
X1091500Y1669000D02*
D03*
X1289000Y1547000D02*
D03*
D47*
X1085000Y1466000D02*
D03*
D70*
X2065000Y1763000D02*
D03*
D75*
X1255000Y1775000D02*
D03*
D77*
X850000Y1767500D02*
D03*
D81*
X609170Y1236700D02*
D03*
Y1323200D02*
D03*
Y1323300D02*
D03*
Y1236800D02*
D03*
D82*
X570570Y1236700D02*
D03*
Y1323200D02*
D03*
Y1323300D02*
D03*
Y1236800D02*
D03*
D83*
X2270933Y1512000D02*
D03*
X2272933Y1309000D02*
D03*
X2095933Y1512000D02*
D03*
X2097933Y1309000D02*
D03*
X1920933Y1512000D02*
D03*
X1922933Y1309000D02*
D03*
X1745933Y1512000D02*
D03*
X1747933Y1309000D02*
D03*
X1570933Y1512000D02*
D03*
X1572933Y1309000D02*
D03*
X3441000Y932000D02*
D03*
X596000D02*
D03*
D84*
Y1786000D02*
D03*
D85*
X878000Y1175000D02*
D03*
X899000D02*
D03*
X878000Y1167000D02*
D03*
X913000Y1204000D02*
D03*
X906000D02*
D03*
X899000D02*
D03*
X1067000Y1229000D02*
D03*
X828000Y1265000D02*
D03*
X838000Y1287000D02*
D03*
Y1271000D02*
D03*
Y1279000D02*
D03*
X746000Y1347000D02*
D03*
X868000Y1361000D02*
D03*
X856000Y1355000D02*
D03*
X592000Y1268000D02*
D03*
X627000Y1282000D02*
D03*
X718000Y1357000D02*
D03*
X693000Y1345000D02*
D03*
X698000Y1340000D02*
D03*
X693000Y1335000D02*
D03*
X727000Y1328000D02*
D03*
X750000Y1324000D02*
D03*
X765000Y1318000D02*
D03*
X803000Y1302000D02*
D03*
X583000Y1257000D02*
D03*
Y1304000D02*
D03*
X1109000Y1551000D02*
D03*
X836000Y1318000D02*
D03*
X857000Y1200000D02*
D03*
X905000Y1286000D02*
D03*
X846000Y1272000D02*
D03*
X887000Y1298000D02*
D03*
X834000Y1353000D02*
D03*
X855433Y1338500D02*
D03*
X886000Y1341000D02*
D03*
X788000Y1334000D02*
D03*
X803000Y1320000D02*
D03*
X753000Y1373000D02*
D03*
X725000Y1300000D02*
D03*
X698000D02*
D03*
X596000Y1298000D02*
D03*
X597000Y1283000D02*
D03*
X753000Y1236000D02*
D03*
X761000D02*
D03*
X768000D02*
D03*
X775000D02*
D03*
X782000D02*
D03*
X739000Y1269000D02*
D03*
X755000Y1158000D02*
D03*
X893933Y1241000D02*
D03*
X878500Y1439500D02*
D03*
X796933Y1373000D02*
D03*
X855933Y1326000D02*
D03*
X755933Y1318000D02*
D03*
X851500Y1439500D02*
D03*
X789933Y1375000D02*
D03*
X809933Y1305000D02*
D03*
Y1298000D02*
D03*
X813933Y1264000D02*
D03*
X780933Y1280000D02*
D03*
X779933Y1293000D02*
D03*
X774933Y1287000D02*
D03*
D86*
X983000Y1326000D02*
D03*
X975000Y1336000D02*
D03*
X970000Y1314000D02*
D03*
X965000Y1326000D02*
D03*
X947000Y1306000D02*
D03*
X1072000Y1146000D02*
D03*
X1087000Y1306000D02*
D03*
X960000Y1449000D02*
D03*
X972000Y1261000D02*
D03*
X975000Y1271000D02*
D03*
X965000Y1261000D02*
D03*
X977000Y1256000D02*
D03*
X965000Y1251000D02*
D03*
X960000Y1246000D02*
D03*
Y1256000D02*
D03*
X1049000Y1298000D02*
D03*
X947000Y1346000D02*
D03*
X955000D02*
D03*
Y1336000D02*
D03*
X1067000Y1314000D02*
D03*
X1489000Y1614000D02*
D03*
X1361000D02*
D03*
X1483000Y1620000D02*
D03*
X1357000D02*
D03*
X1477000Y1626000D02*
D03*
X1361000D02*
D03*
X765000Y1496000D02*
D03*
X794826Y1421000D02*
D03*
X575826Y1418000D02*
D03*
X550826Y1429000D02*
D03*
X575826Y1488000D02*
D03*
X550826Y1500000D02*
D03*
X575826Y1558000D02*
D03*
X550826Y1570000D02*
D03*
X916000Y1507000D02*
D03*
X1015000Y1463000D02*
D03*
X1403000Y1119000D02*
D03*
X1264000Y1319000D02*
D03*
X1087000D02*
D03*
X1158000Y1501000D02*
D03*
Y1334000D02*
D03*
X1076000Y1324000D02*
D03*
X1243000Y1353000D02*
D03*
X1168000Y1358000D02*
D03*
X1196000Y1256000D02*
D03*
X928000Y1421000D02*
D03*
X923000Y1406000D02*
D03*
X918000Y1411000D02*
D03*
X1188000Y1424000D02*
D03*
X1048000Y1474000D02*
D03*
X903000Y1391000D02*
D03*
X898000Y1386000D02*
D03*
X1216000Y1261000D02*
D03*
X1221000Y1251000D02*
D03*
X1087000Y1229000D02*
D03*
X1092000Y1341000D02*
D03*
X1097000Y1346000D02*
D03*
X1102000Y1361000D02*
D03*
X1107000Y1366000D02*
D03*
X1076000Y1271000D02*
D03*
X1081000Y1266000D02*
D03*
X1226000Y1246000D02*
D03*
X965000Y1336000D02*
D03*
Y1465000D02*
D03*
X1360000Y1592000D02*
D03*
X1507000Y1515000D02*
D03*
X1605000Y985000D02*
D03*
Y978000D02*
D03*
X1052000Y1176000D02*
D03*
X1076000Y1229000D02*
D03*
X850000Y1187000D02*
D03*
X857000Y1182000D02*
D03*
X1409000Y1187000D02*
D03*
X1404000Y1182000D02*
D03*
X1414000Y1666000D02*
D03*
X1419000Y1672000D02*
D03*
X1424000Y1666000D02*
D03*
X1429000Y1672000D02*
D03*
X1434000Y1666000D02*
D03*
X1439000Y1672000D02*
D03*
X1444000Y1666000D02*
D03*
X1449000Y1672000D02*
D03*
X1454000Y1666000D02*
D03*
X1459000Y1672000D02*
D03*
X1471000Y1632000D02*
D03*
X1465000Y1638000D02*
D03*
X879000Y1478000D02*
D03*
X851000D02*
D03*
X1171000Y1556000D02*
D03*
X1195000Y1602000D02*
D03*
X1075000Y1656000D02*
D03*
X1108000D02*
D03*
X1154000D02*
D03*
X1357000Y1632000D02*
D03*
X1172000Y1656000D02*
D03*
X1361000Y1638000D02*
D03*
X1190000Y1656000D02*
D03*
X1259000D02*
D03*
X1373000Y1176000D02*
D03*
X1379000Y1169000D02*
D03*
X1303000Y1656000D02*
D03*
X1281000D02*
D03*
X1097000Y1732000D02*
D03*
X1118000Y1738000D02*
D03*
X1165000Y1744000D02*
D03*
X1255000Y1763000D02*
D03*
X1180000Y1750000D02*
D03*
X1248000Y1756000D02*
D03*
X1292000Y1718000D02*
D03*
X1395000Y1127000D02*
D03*
X885000Y1192000D02*
D03*
X1245000Y1566000D02*
D03*
X1113000Y1519000D02*
D03*
X1107000Y1524000D02*
D03*
X1230933Y1566000D02*
D03*
X1107000Y1514000D02*
D03*
X1097000Y1508000D02*
D03*
X1017000Y1576000D02*
D03*
X1202000Y1397000D02*
D03*
X1209000Y1413000D02*
D03*
X899000Y1147000D02*
D03*
X1186000D02*
D03*
X1353000Y1586000D02*
D03*
X1360000Y1135000D02*
D03*
X1381000Y987000D02*
D03*
X1375000D02*
D03*
X1381000Y1013000D02*
D03*
X1375000D02*
D03*
X1353000Y1135000D02*
D03*
X1394000Y1153000D02*
D03*
X1584000Y1006000D02*
D03*
X1577000Y997000D02*
D03*
Y1006000D02*
D03*
X1709000Y1120000D02*
D03*
X3389067Y1003000D02*
D03*
Y1011000D02*
D03*
X3381067Y1017000D02*
D03*
X3373067D02*
D03*
X3365067Y1011000D02*
D03*
Y1003000D02*
D03*
X3389000Y995000D02*
D03*
X1772000Y1153000D02*
D03*
X1766000Y1148000D02*
D03*
X1760000Y1143000D02*
D03*
X1754000Y1138000D02*
D03*
X1748000Y1133000D02*
D03*
X1742000Y1128000D02*
D03*
X1736000Y1123000D02*
D03*
X1730000Y1118000D02*
D03*
X1714000Y1126000D02*
D03*
X2980067Y995000D02*
D03*
Y1003000D02*
D03*
Y1011000D02*
D03*
X2972067Y1017000D02*
D03*
X2964067D02*
D03*
X2956067Y1011000D02*
D03*
Y1003000D02*
D03*
X3199067D02*
D03*
Y1011000D02*
D03*
X3191067Y1017000D02*
D03*
X3183067D02*
D03*
X3175067Y1011000D02*
D03*
Y1003000D02*
D03*
X3175000Y995000D02*
D03*
X2575067Y995000D02*
D03*
Y1003000D02*
D03*
Y1011000D02*
D03*
X2567067Y1017000D02*
D03*
X2559067D02*
D03*
X2551067Y1011000D02*
D03*
Y1003000D02*
D03*
X2794067D02*
D03*
Y1011000D02*
D03*
X2786067Y1017000D02*
D03*
X2778067D02*
D03*
X2770067Y1011000D02*
D03*
Y1003000D02*
D03*
X2770000Y995000D02*
D03*
X1984067Y1003000D02*
D03*
Y1011000D02*
D03*
X1976067Y1016000D02*
D03*
X1968067D02*
D03*
X1960067Y1011000D02*
D03*
Y1003000D02*
D03*
X1960000Y995000D02*
D03*
X1765067Y995000D02*
D03*
Y1003000D02*
D03*
Y1011000D02*
D03*
X1757067Y1017000D02*
D03*
X1749067D02*
D03*
X1741067Y1011000D02*
D03*
Y1003000D02*
D03*
X2170067Y995000D02*
D03*
Y1003000D02*
D03*
Y1011000D02*
D03*
X2162067Y1017000D02*
D03*
X2154067D02*
D03*
X2146067Y1011000D02*
D03*
Y1003000D02*
D03*
X2389067D02*
D03*
Y1011000D02*
D03*
X2381067Y1017000D02*
D03*
X2373067D02*
D03*
X2365067Y1011000D02*
D03*
Y1003000D02*
D03*
X2365000Y995000D02*
D03*
X1145933Y1817000D02*
D03*
Y1809000D02*
D03*
X1153933Y1803000D02*
D03*
X1161933D02*
D03*
X1169933Y1809000D02*
D03*
Y1817000D02*
D03*
X1170000Y1825000D02*
D03*
X3364933Y1825000D02*
D03*
Y1817000D02*
D03*
Y1809000D02*
D03*
X3372933Y1803000D02*
D03*
X3380933D02*
D03*
X3388933Y1809000D02*
D03*
Y1817000D02*
D03*
X3389000Y1825000D02*
D03*
X3170933Y1817000D02*
D03*
Y1809000D02*
D03*
X3178933Y1803000D02*
D03*
X3186933D02*
D03*
X3194933Y1809000D02*
D03*
Y1817000D02*
D03*
X3195000Y1825000D02*
D03*
X2959933Y1825000D02*
D03*
Y1817000D02*
D03*
Y1809000D02*
D03*
X2967933Y1803000D02*
D03*
X2975933D02*
D03*
X2983933Y1809000D02*
D03*
Y1817000D02*
D03*
X2765933D02*
D03*
Y1809000D02*
D03*
X2773933Y1803000D02*
D03*
X2781933D02*
D03*
X2789933Y1809000D02*
D03*
Y1817000D02*
D03*
X2790000Y1825000D02*
D03*
X2554933Y1825000D02*
D03*
Y1817000D02*
D03*
Y1809000D02*
D03*
X2562933Y1803000D02*
D03*
X2570933D02*
D03*
X2578933Y1809000D02*
D03*
Y1817000D02*
D03*
X2360933D02*
D03*
Y1809000D02*
D03*
X2368933Y1803000D02*
D03*
X2376933D02*
D03*
X2384933Y1809000D02*
D03*
Y1817000D02*
D03*
X2385000Y1825000D02*
D03*
X2149933Y1825000D02*
D03*
Y1817000D02*
D03*
Y1809000D02*
D03*
X2157933Y1803000D02*
D03*
X2165933D02*
D03*
X2173933Y1809000D02*
D03*
Y1817000D02*
D03*
X1955933D02*
D03*
Y1809000D02*
D03*
X1963933Y1803000D02*
D03*
X1971933D02*
D03*
X1979933Y1809000D02*
D03*
Y1817000D02*
D03*
X1980000Y1825000D02*
D03*
X1744933Y1825000D02*
D03*
Y1817000D02*
D03*
Y1809000D02*
D03*
X1752933Y1803000D02*
D03*
X1760933D02*
D03*
X1768933Y1809000D02*
D03*
Y1817000D02*
D03*
X1550933D02*
D03*
Y1809000D02*
D03*
X1558933Y1803000D02*
D03*
X1566933D02*
D03*
X1574933Y1809000D02*
D03*
Y1817000D02*
D03*
X1575000Y1825000D02*
D03*
X1339933Y1825000D02*
D03*
Y1817000D02*
D03*
Y1809000D02*
D03*
X1347933Y1803000D02*
D03*
X1355933D02*
D03*
X1363933Y1809000D02*
D03*
Y1817000D02*
D03*
X765000Y1825000D02*
D03*
X935000D02*
D03*
X934933Y1817000D02*
D03*
Y1809000D02*
D03*
X942933Y1803000D02*
D03*
X950933D02*
D03*
X958933Y1809000D02*
D03*
Y1817000D02*
D03*
X764933D02*
D03*
Y1809000D02*
D03*
X756933Y1803000D02*
D03*
X748933D02*
D03*
X740933Y1809000D02*
D03*
Y1817000D02*
D03*
X1399000Y1672000D02*
D03*
X1061000Y1658000D02*
D03*
X1040000Y1666000D02*
D03*
X1055000Y1661000D02*
D03*
X1584000Y1016000D02*
D03*
X1574000D02*
D03*
X1564000D02*
D03*
X1554000Y986000D02*
D03*
Y996000D02*
D03*
Y1016000D02*
D03*
Y1006000D02*
D03*
X1319000Y1626000D02*
D03*
X1303000D02*
D03*
X1178000Y1163000D02*
D03*
X1394000D02*
D03*
X1204000Y996000D02*
D03*
X1154000Y988000D02*
D03*
X1164000D02*
D03*
X1174000D02*
D03*
X1144000Y1004000D02*
D03*
Y996000D02*
D03*
Y988000D02*
D03*
X1154000Y1012000D02*
D03*
X1144000D02*
D03*
X1164000D02*
D03*
X1174000D02*
D03*
X1200000Y1002000D02*
D03*
X1389000Y1158000D02*
D03*
X905000D02*
D03*
Y1010000D02*
D03*
X899000Y1005000D02*
D03*
X972000Y1018000D02*
D03*
Y1008000D02*
D03*
X952000Y1018000D02*
D03*
X942000D02*
D03*
X932000D02*
D03*
X962000Y1008000D02*
D03*
Y1018000D02*
D03*
X740000Y989000D02*
D03*
X750000D02*
D03*
X770000D02*
D03*
X760000D02*
D03*
X770000Y1013000D02*
D03*
Y1005000D02*
D03*
Y997000D02*
D03*
X740000Y1013000D02*
D03*
X750000D02*
D03*
X760000D02*
D03*
X850000Y1000000D02*
D03*
X857000D02*
D03*
X864000D02*
D03*
X871000D02*
D03*
X878000D02*
D03*
X885000D02*
D03*
X892000D02*
D03*
X1266000Y1563000D02*
D03*
X1325000Y1508000D02*
D03*
X1210000Y1488000D02*
D03*
X1202000D02*
D03*
X1279000Y1506000D02*
D03*
X1264000Y1517000D02*
D03*
X1256000D02*
D03*
X1274000Y1523000D02*
D03*
X1256000Y1438000D02*
D03*
Y1489000D02*
D03*
X1183000Y1406000D02*
D03*
X1173000Y1412000D02*
D03*
X1163000Y1384000D02*
D03*
X1081000Y1438000D02*
D03*
X1112000D02*
D03*
X1122000D02*
D03*
X1081000Y1431000D02*
D03*
X1137000Y1411000D02*
D03*
X913000Y1416000D02*
D03*
X956000Y1610000D02*
D03*
X1061000Y1628000D02*
D03*
X963000Y1607000D02*
D03*
X970000Y1610000D02*
D03*
X977000Y1607000D02*
D03*
X984000Y1610000D02*
D03*
X991000Y1607000D02*
D03*
X998000Y1610000D02*
D03*
X1004933Y1607000D02*
D03*
X1011933Y1610000D02*
D03*
X1019000Y1607000D02*
D03*
X1025933Y1610000D02*
D03*
X1032933Y1607000D02*
D03*
X1039933Y1610000D02*
D03*
X1055000Y1617000D02*
D03*
X1178000Y1443000D02*
D03*
X1195000Y905000D02*
D03*
X1185000D02*
D03*
X1175000D02*
D03*
X1136933Y1386000D02*
D03*
X1131933Y1391000D02*
D03*
X1122000Y1293000D02*
D03*
X1127000Y1351000D02*
D03*
X1112000Y1288000D02*
D03*
X1117000Y1283000D02*
D03*
X1112000Y1278000D02*
D03*
X1136547Y1449000D02*
D03*
X1141933Y1419000D02*
D03*
X1207933Y1538000D02*
D03*
X1045000Y905000D02*
D03*
X1036933Y1502000D02*
D03*
X1047933D02*
D03*
Y1509000D02*
D03*
X1155000Y905000D02*
D03*
X1165000D02*
D03*
X1145000D02*
D03*
X1135000D02*
D03*
X1125000D02*
D03*
X995000D02*
D03*
X1005000D02*
D03*
X1015000D02*
D03*
X1025000D02*
D03*
X1035000D02*
D03*
X1055000D02*
D03*
X1065000D02*
D03*
X1075000D02*
D03*
X1085000D02*
D03*
X1095000D02*
D03*
X1205000D02*
D03*
X1215000D02*
D03*
X1225000D02*
D03*
X1235000D02*
D03*
X1245000D02*
D03*
X1815000Y905500D02*
D03*
X1825000D02*
D03*
X1151933Y1376000D02*
D03*
X1146933Y1371000D02*
D03*
X1214933Y1542000D02*
D03*
X1160933Y1599000D02*
D03*
X1195933Y1556000D02*
D03*
X1222933Y1542000D02*
D03*
X1227933Y1536000D02*
D03*
X1237933Y1566000D02*
D03*
D87*
X1073000Y1197000D02*
D03*
X1066000Y1465000D02*
D03*
Y1431000D02*
D03*
X947000Y1432000D02*
D03*
X900000Y1590000D02*
D03*
X1356000Y1603000D02*
D03*
X710000Y1400000D02*
D03*
X700000Y1220000D02*
D03*
X730000Y1170000D02*
D03*
X656000Y1422000D02*
D03*
Y1237000D02*
D03*
Y1314000D02*
D03*
X680000Y1170000D02*
D03*
X1000000Y1210000D02*
D03*
X960000D02*
D03*
X1338000Y1484000D02*
D03*
X1310000Y1440000D02*
D03*
X1150000Y1290000D02*
D03*
X1310000Y1210000D02*
D03*
Y1380000D02*
D03*
Y1320000D02*
D03*
Y1260000D02*
D03*
X882000Y1205000D02*
D03*
X783000Y1192000D02*
D03*
X797000D02*
D03*
X3266000Y1085000D02*
D03*
Y1055000D02*
D03*
Y1115000D02*
D03*
Y1145000D02*
D03*
X3296000Y1085000D02*
D03*
Y1055000D02*
D03*
Y1115000D02*
D03*
Y1145000D02*
D03*
X3386000D02*
D03*
X3356000D02*
D03*
X3326000D02*
D03*
X3386000Y1115000D02*
D03*
X3356000D02*
D03*
X3326000D02*
D03*
X3386000Y1055000D02*
D03*
X3356000D02*
D03*
X3326000D02*
D03*
Y1085000D02*
D03*
X3356000D02*
D03*
X3386000D02*
D03*
X2280000Y1595000D02*
D03*
X2250000D02*
D03*
X2220000D02*
D03*
X2190000D02*
D03*
X2160000D02*
D03*
Y1565000D02*
D03*
X2190000D02*
D03*
X2220000D02*
D03*
X2250000D02*
D03*
X2280000D02*
D03*
X2160000Y1625000D02*
D03*
X2190000D02*
D03*
X2220000D02*
D03*
X2250000D02*
D03*
X2280000D02*
D03*
X2160000Y1655000D02*
D03*
X2190000D02*
D03*
X2220000D02*
D03*
X2250000D02*
D03*
X2280000D02*
D03*
X1710000Y1595000D02*
D03*
X1680000D02*
D03*
X1650000D02*
D03*
X1620000D02*
D03*
X1590000D02*
D03*
X1890000D02*
D03*
X1860000D02*
D03*
X1830000D02*
D03*
X1800000D02*
D03*
X1770000D02*
D03*
X1740000D02*
D03*
X1920000D02*
D03*
Y1565000D02*
D03*
X1740000D02*
D03*
X1770000D02*
D03*
X1800000D02*
D03*
X1830000D02*
D03*
X1860000D02*
D03*
X1890000D02*
D03*
X1590000D02*
D03*
X1620000D02*
D03*
X1650000D02*
D03*
X1680000D02*
D03*
X1710000D02*
D03*
X2100000Y1595000D02*
D03*
X1950000D02*
D03*
X1980000D02*
D03*
X2010000D02*
D03*
X2040000D02*
D03*
X2070000D02*
D03*
X2100000Y1565000D02*
D03*
X1950000D02*
D03*
X1980000D02*
D03*
X2010000D02*
D03*
X2040000D02*
D03*
X2070000D02*
D03*
X2130000Y1595000D02*
D03*
Y1565000D02*
D03*
Y1625000D02*
D03*
X2070000D02*
D03*
X2040000D02*
D03*
X2010000D02*
D03*
X1980000D02*
D03*
X1950000D02*
D03*
X2100000D02*
D03*
X1920000D02*
D03*
X1740000D02*
D03*
X1770000D02*
D03*
X1800000D02*
D03*
X1830000D02*
D03*
X1860000D02*
D03*
X1890000D02*
D03*
X1590000D02*
D03*
X1620000D02*
D03*
X1650000D02*
D03*
X1680000D02*
D03*
X1710000D02*
D03*
X2130000Y1655000D02*
D03*
X2070000D02*
D03*
X2040000D02*
D03*
X2010000D02*
D03*
X1980000D02*
D03*
X1950000D02*
D03*
X2100000D02*
D03*
X1920000D02*
D03*
X1740000D02*
D03*
X1770000D02*
D03*
X1800000D02*
D03*
X1830000D02*
D03*
X1860000D02*
D03*
X1890000D02*
D03*
X1590000D02*
D03*
X1620000D02*
D03*
X1650000D02*
D03*
X1680000D02*
D03*
X1710000D02*
D03*
X1560000D02*
D03*
Y1625000D02*
D03*
Y1565000D02*
D03*
Y1595000D02*
D03*
X805000Y1481000D02*
D03*
Y1465000D02*
D03*
Y1448000D02*
D03*
X1300000Y1095000D02*
D03*
X1290000Y1110000D02*
D03*
X1300000Y1035000D02*
D03*
X1290000Y1050000D02*
D03*
X1300000Y1065000D02*
D03*
X1290000Y1080000D02*
D03*
X1300000Y975000D02*
D03*
X1290000Y990000D02*
D03*
X1300000Y1005000D02*
D03*
X1290000Y1020000D02*
D03*
Y960000D02*
D03*
X1310000D02*
D03*
X1330000D02*
D03*
X1350000D02*
D03*
X1370000D02*
D03*
X1430000D02*
D03*
X1450000D02*
D03*
X1470000D02*
D03*
X1490000D02*
D03*
X1510000D02*
D03*
X1033000Y1015000D02*
D03*
X1023000Y1000000D02*
D03*
X1033000Y985000D02*
D03*
X1108000Y1015000D02*
D03*
X1098000Y1000000D02*
D03*
X1108000Y985000D02*
D03*
X829000Y1056000D02*
D03*
Y1086000D02*
D03*
Y1116000D02*
D03*
X819000Y1071000D02*
D03*
X809000Y1056000D02*
D03*
X819000Y1041000D02*
D03*
X809000Y1086000D02*
D03*
Y1116000D02*
D03*
X819000Y1101000D02*
D03*
Y1131000D02*
D03*
X799000Y1071000D02*
D03*
X789000Y1056000D02*
D03*
X799000Y1041000D02*
D03*
X789000Y1086000D02*
D03*
Y1116000D02*
D03*
X799000Y1101000D02*
D03*
Y1131000D02*
D03*
X779000D02*
D03*
Y1101000D02*
D03*
X759000Y1131000D02*
D03*
X739000D02*
D03*
X719000D02*
D03*
X699000D02*
D03*
X679000D02*
D03*
X769000Y1116000D02*
D03*
X749000D02*
D03*
X729000D02*
D03*
X709000D02*
D03*
X689000D02*
D03*
X759000Y1101000D02*
D03*
X739000D02*
D03*
X719000D02*
D03*
X699000D02*
D03*
X679000D02*
D03*
X769000Y1086000D02*
D03*
X749000D02*
D03*
X729000D02*
D03*
X709000D02*
D03*
X689000D02*
D03*
X759000Y1041000D02*
D03*
X779000D02*
D03*
X739000D02*
D03*
X719000D02*
D03*
X699000D02*
D03*
X679000D02*
D03*
X689000Y1056000D02*
D03*
X709000D02*
D03*
X729000D02*
D03*
X749000D02*
D03*
X769000D02*
D03*
X679000Y1071000D02*
D03*
X699000D02*
D03*
X719000D02*
D03*
X739000D02*
D03*
X759000D02*
D03*
X779000D02*
D03*
X1915000Y1000000D02*
D03*
X2320000D02*
D03*
X3025000Y1015000D02*
D03*
Y1000000D02*
D03*
X3130000D02*
D03*
Y1015000D02*
D03*
Y1030000D02*
D03*
X3025000D02*
D03*
X2980000Y1040000D02*
D03*
X2965000D02*
D03*
X3175000D02*
D03*
X3190000D02*
D03*
X2620000Y1015000D02*
D03*
Y1000000D02*
D03*
Y1030000D02*
D03*
X1810000Y1015000D02*
D03*
Y1000000D02*
D03*
X1915000Y1015000D02*
D03*
Y1030000D02*
D03*
X1810000D02*
D03*
X1765000Y1040000D02*
D03*
X1750000D02*
D03*
X1960000D02*
D03*
X1975000D02*
D03*
X2215000Y1015000D02*
D03*
Y1000000D02*
D03*
X2320000Y1015000D02*
D03*
Y1030000D02*
D03*
X2215000D02*
D03*
X2170000Y1040000D02*
D03*
X2155000D02*
D03*
X2365000D02*
D03*
X2380000D02*
D03*
X2620000Y1015000D02*
D03*
Y1000000D02*
D03*
X2725000D02*
D03*
Y1015000D02*
D03*
Y1030000D02*
D03*
X2620000D02*
D03*
X2575000Y1040000D02*
D03*
X2560000D02*
D03*
X2770000D02*
D03*
X2785000D02*
D03*
X3320000Y1805000D02*
D03*
Y1820000D02*
D03*
X3240000D02*
D03*
Y1805000D02*
D03*
Y1790000D02*
D03*
X3320000D02*
D03*
X3365000Y1780000D02*
D03*
X3380000D02*
D03*
X3195000D02*
D03*
X3180000D02*
D03*
X2915000Y1805000D02*
D03*
Y1820000D02*
D03*
X2835000D02*
D03*
Y1805000D02*
D03*
Y1790000D02*
D03*
X2915000D02*
D03*
X2960000Y1780000D02*
D03*
X2975000D02*
D03*
X2790000D02*
D03*
X2775000D02*
D03*
X2510000Y1805000D02*
D03*
Y1820000D02*
D03*
X2430000D02*
D03*
Y1805000D02*
D03*
Y1790000D02*
D03*
X2510000D02*
D03*
X2555000Y1780000D02*
D03*
X2570000D02*
D03*
X2385000D02*
D03*
X2370000D02*
D03*
X2105000Y1805000D02*
D03*
Y1820000D02*
D03*
X2025000D02*
D03*
Y1805000D02*
D03*
Y1790000D02*
D03*
X2105000D02*
D03*
X2150000Y1780000D02*
D03*
X2165000D02*
D03*
X1980000D02*
D03*
X1965000D02*
D03*
X1700000Y1805000D02*
D03*
Y1820000D02*
D03*
X1620000D02*
D03*
Y1805000D02*
D03*
Y1790000D02*
D03*
X1700000D02*
D03*
X1745000Y1780000D02*
D03*
X1760000D02*
D03*
X1575000D02*
D03*
X1560000D02*
D03*
X1295000Y1805000D02*
D03*
Y1820000D02*
D03*
X1215000D02*
D03*
Y1805000D02*
D03*
Y1790000D02*
D03*
X1295000D02*
D03*
X1340000Y1780000D02*
D03*
X1355000D02*
D03*
X1170000D02*
D03*
X1155000D02*
D03*
X750000D02*
D03*
X765000D02*
D03*
X950000D02*
D03*
X935000D02*
D03*
X890000Y1790000D02*
D03*
X810000D02*
D03*
Y1805000D02*
D03*
Y1820000D02*
D03*
X890000D02*
D03*
Y1805000D02*
D03*
X1380000Y945000D02*
D03*
X1370000Y930000D02*
D03*
X1360000Y945000D02*
D03*
X1350000Y930000D02*
D03*
X1340000Y945000D02*
D03*
X1330000Y930000D02*
D03*
X1320000Y945000D02*
D03*
X1300000D02*
D03*
X1310000Y930000D02*
D03*
X1290000D02*
D03*
X1280000Y915000D02*
D03*
X1300000D02*
D03*
X1320000D02*
D03*
X1340000D02*
D03*
X1360000D02*
D03*
X1380000D02*
D03*
X1520000Y945000D02*
D03*
X1500000D02*
D03*
X1480000D02*
D03*
X1460000D02*
D03*
X1440000D02*
D03*
X1420000D02*
D03*
X1510000Y930000D02*
D03*
X1490000D02*
D03*
X1470000D02*
D03*
X1450000D02*
D03*
X1430000D02*
D03*
X1420000Y915000D02*
D03*
X1440000D02*
D03*
X1460000D02*
D03*
X1480000D02*
D03*
X1520000D02*
D03*
X1500000D02*
D03*
D88*
X895920Y1194000D02*
D03*
X906080D02*
D03*
X919920D02*
D03*
X930080D02*
D03*
X779080Y1526000D02*
D03*
X768920D02*
D03*
X1049920Y1220000D02*
D03*
X1060080D02*
D03*
X1154920Y1002000D02*
D03*
X1165080D02*
D03*
X950080Y1004000D02*
D03*
X939920D02*
D03*
X749920Y999000D02*
D03*
X760080D02*
D03*
X2016080Y1338000D02*
D03*
X2005920D02*
D03*
X1064920Y1505000D02*
D03*
X1075080D02*
D03*
X1304853Y1594000D02*
D03*
X1315013D02*
D03*
X1277853Y1586000D02*
D03*
X1288013D02*
D03*
X1298080Y1561000D02*
D03*
X1287920D02*
D03*
X1322080D02*
D03*
X1311920D02*
D03*
X1288080Y1572000D02*
D03*
X1277920D02*
D03*
X1253853Y1532000D02*
D03*
X1264013D02*
D03*
X1253853Y1542000D02*
D03*
X1264013D02*
D03*
X595906Y1558000D02*
D03*
X585746D02*
D03*
X595906Y1488000D02*
D03*
X585746D02*
D03*
X595906Y1418000D02*
D03*
X585746D02*
D03*
X1208080Y1405000D02*
D03*
X1197920D02*
D03*
X1501920Y1480000D02*
D03*
X1512080D02*
D03*
X744853Y1226000D02*
D03*
X755013D02*
D03*
X737080Y1368000D02*
D03*
X726920D02*
D03*
X771080Y1473000D02*
D03*
X760920D02*
D03*
X1064920Y1494000D02*
D03*
X1075080D02*
D03*
X1304920Y1616000D02*
D03*
X1315080D02*
D03*
X1255853Y1586000D02*
D03*
X1266013D02*
D03*
Y1572000D02*
D03*
X1255853D02*
D03*
X1143080Y1659000D02*
D03*
X1132920D02*
D03*
X1213853Y1507000D02*
D03*
X1224013D02*
D03*
X915580Y1487500D02*
D03*
X905420D02*
D03*
X875013Y1350000D02*
D03*
X864853D02*
D03*
X895420Y1440000D02*
D03*
X905580D02*
D03*
X834080Y1361000D02*
D03*
X823920D02*
D03*
X726920Y1357000D02*
D03*
X737080D02*
D03*
X876013Y1267000D02*
D03*
X865853D02*
D03*
X875013Y1338000D02*
D03*
X864853D02*
D03*
X1005853Y1499000D02*
D03*
X1016013D02*
D03*
D89*
X770500Y1580500D02*
D03*
X829500D02*
D03*
Y1543500D02*
D03*
X770500D02*
D03*
D90*
X638000Y1623920D02*
D03*
Y1634080D02*
D03*
Y1681920D02*
D03*
Y1692080D02*
D03*
X2375000Y1812920D02*
D03*
Y1823080D02*
D03*
Y1006080D02*
D03*
Y995920D02*
D03*
X2565000Y1005080D02*
D03*
Y994920D02*
D03*
Y1812920D02*
D03*
Y1823080D02*
D03*
X2780000Y1812920D02*
D03*
Y1823080D02*
D03*
Y1006080D02*
D03*
Y995920D02*
D03*
X2971000Y1812920D02*
D03*
Y1823080D02*
D03*
X2970000Y1006080D02*
D03*
Y995920D02*
D03*
X3185000Y1812920D02*
D03*
Y1823080D02*
D03*
Y1006080D02*
D03*
Y995920D02*
D03*
X3375000Y1812920D02*
D03*
Y1823080D02*
D03*
Y995920D02*
D03*
Y1006080D02*
D03*
X2160000Y1813920D02*
D03*
Y1824080D02*
D03*
Y1006080D02*
D03*
Y995920D02*
D03*
X1970000Y1813920D02*
D03*
Y1824080D02*
D03*
Y1004080D02*
D03*
Y993920D02*
D03*
X1755000Y1813920D02*
D03*
Y1824080D02*
D03*
Y1005080D02*
D03*
Y994920D02*
D03*
X1565000Y1813920D02*
D03*
Y1824080D02*
D03*
Y1005080D02*
D03*
Y994920D02*
D03*
X1350000Y1813920D02*
D03*
Y1824080D02*
D03*
X1378000Y1005080D02*
D03*
Y994920D02*
D03*
X1160000Y1813920D02*
D03*
Y1824080D02*
D03*
X945000Y1813920D02*
D03*
Y1824080D02*
D03*
X755000Y1813920D02*
D03*
Y1824080D02*
D03*
X998000Y1648080D02*
D03*
Y1637920D02*
D03*
X991000Y1627080D02*
D03*
Y1616920D02*
D03*
X984000Y1648080D02*
D03*
Y1637920D02*
D03*
X977000Y1627080D02*
D03*
Y1616920D02*
D03*
X970000Y1648160D02*
D03*
Y1638000D02*
D03*
X963000Y1627080D02*
D03*
Y1616920D02*
D03*
X956000Y1648080D02*
D03*
Y1637920D02*
D03*
X1005000Y1627080D02*
D03*
Y1616920D02*
D03*
X1012000Y1648080D02*
D03*
Y1637920D02*
D03*
X1019000Y1627080D02*
D03*
Y1616920D02*
D03*
X1026000Y1648080D02*
D03*
Y1637920D02*
D03*
X1033000Y1627080D02*
D03*
Y1616920D02*
D03*
X1041000Y1648080D02*
D03*
Y1637920D02*
D03*
X1047000Y1627080D02*
D03*
Y1616920D02*
D03*
X1053000Y1648080D02*
D03*
Y1637920D02*
D03*
X648933Y1484080D02*
D03*
Y1473920D02*
D03*
X659933Y1484080D02*
D03*
Y1473920D02*
D03*
X670933Y1484080D02*
D03*
Y1473920D02*
D03*
X681933Y1484080D02*
D03*
Y1473920D02*
D03*
X692933Y1484080D02*
D03*
Y1473920D02*
D03*
X703933Y1484080D02*
D03*
Y1473920D02*
D03*
X714933Y1484080D02*
D03*
Y1473920D02*
D03*
X725933Y1484080D02*
D03*
Y1473920D02*
D03*
X736933Y1484080D02*
D03*
Y1473920D02*
D03*
X747933Y1484080D02*
D03*
Y1473920D02*
D03*
X648933Y1524080D02*
D03*
Y1513920D02*
D03*
X659933Y1524080D02*
D03*
Y1513920D02*
D03*
X670933Y1524080D02*
D03*
Y1513920D02*
D03*
X681933Y1524080D02*
D03*
Y1513920D02*
D03*
X692933Y1524080D02*
D03*
Y1513920D02*
D03*
X703933Y1524080D02*
D03*
Y1513920D02*
D03*
X714933Y1524080D02*
D03*
Y1513920D02*
D03*
X725933Y1524080D02*
D03*
Y1513920D02*
D03*
X736933Y1524080D02*
D03*
Y1513920D02*
D03*
X747933Y1524080D02*
D03*
Y1513920D02*
D03*
X648933Y1564080D02*
D03*
Y1553920D02*
D03*
X659933Y1564080D02*
D03*
Y1553920D02*
D03*
X670933Y1564080D02*
D03*
Y1553920D02*
D03*
X681940Y1564077D02*
D03*
Y1553918D02*
D03*
X692933Y1564080D02*
D03*
Y1553920D02*
D03*
X703933Y1564080D02*
D03*
Y1553920D02*
D03*
X714933Y1564080D02*
D03*
Y1553920D02*
D03*
X725933Y1564080D02*
D03*
Y1553920D02*
D03*
X736933Y1564080D02*
D03*
Y1553920D02*
D03*
X747933Y1564080D02*
D03*
Y1553920D02*
D03*
X1085933Y1627080D02*
D03*
Y1616920D02*
D03*
X1096933Y1627080D02*
D03*
Y1616920D02*
D03*
X1107933Y1627080D02*
D03*
Y1616920D02*
D03*
X1117933Y1627080D02*
D03*
Y1616920D02*
D03*
X1131933Y1648080D02*
D03*
Y1637920D02*
D03*
X1142933Y1648080D02*
D03*
Y1637920D02*
D03*
X1164933Y1627080D02*
D03*
Y1616920D02*
D03*
X1175933Y1627080D02*
D03*
Y1616920D02*
D03*
X1186933Y1627080D02*
D03*
Y1616920D02*
D03*
X1197933Y1627080D02*
D03*
Y1616920D02*
D03*
X1223933Y1648080D02*
D03*
Y1637920D02*
D03*
X1235933Y1648080D02*
D03*
Y1637920D02*
D03*
X1247933Y1627080D02*
D03*
Y1616920D02*
D03*
X1258933Y1627080D02*
D03*
Y1616920D02*
D03*
X1269933Y1627080D02*
D03*
Y1616920D02*
D03*
X1280933Y1627080D02*
D03*
Y1616920D02*
D03*
X1291933Y1627080D02*
D03*
Y1616920D02*
D03*
X1209000Y1431080D02*
D03*
Y1420920D02*
D03*
X1198000D02*
D03*
Y1431080D02*
D03*
X634000Y1303920D02*
D03*
Y1314080D02*
D03*
Y1259080D02*
D03*
Y1248920D02*
D03*
X706000Y1278920D02*
D03*
Y1289080D02*
D03*
X717000Y1278920D02*
D03*
Y1289080D02*
D03*
X836933Y1241920D02*
D03*
Y1252080D02*
D03*
X706000Y1310080D02*
D03*
Y1299920D02*
D03*
X717000Y1310080D02*
D03*
Y1299920D02*
D03*
X1036933Y1494080D02*
D03*
Y1483920D02*
D03*
X1256000Y1507080D02*
D03*
Y1496920D02*
D03*
X1524000Y1371920D02*
D03*
Y1382080D02*
D03*
X1244933Y1496920D02*
D03*
Y1507080D02*
D03*
X1233933Y1497000D02*
D03*
Y1507160D02*
D03*
X1273933Y1542080D02*
D03*
Y1531920D02*
D03*
X1064933Y1648080D02*
D03*
Y1637920D02*
D03*
X1074933Y1638000D02*
D03*
Y1648160D02*
D03*
X1085933Y1637920D02*
D03*
Y1648080D02*
D03*
X1096933Y1637920D02*
D03*
Y1648080D02*
D03*
X1107933Y1637920D02*
D03*
Y1648080D02*
D03*
X1117933Y1637920D02*
D03*
Y1648080D02*
D03*
X1153933Y1637920D02*
D03*
Y1648080D02*
D03*
X1164933Y1637920D02*
D03*
Y1648080D02*
D03*
X1178933Y1648080D02*
D03*
Y1637920D02*
D03*
X1189933Y1648080D02*
D03*
Y1637920D02*
D03*
X1201933Y1648080D02*
D03*
Y1637920D02*
D03*
X1212933Y1648080D02*
D03*
Y1637920D02*
D03*
X1247933D02*
D03*
Y1648080D02*
D03*
X1258933Y1637920D02*
D03*
Y1648080D02*
D03*
X1269933Y1637920D02*
D03*
Y1648080D02*
D03*
X1280933Y1637920D02*
D03*
Y1648080D02*
D03*
X1291933Y1637840D02*
D03*
Y1648000D02*
D03*
X1303000Y1648080D02*
D03*
Y1637920D02*
D03*
X1201933Y1507080D02*
D03*
Y1496920D02*
D03*
X1170933D02*
D03*
Y1507080D02*
D03*
X1187933Y1496920D02*
D03*
Y1507080D02*
D03*
X848933Y1241920D02*
D03*
Y1252080D02*
D03*
X1047933Y1494080D02*
D03*
Y1483920D02*
D03*
X1037000Y1462920D02*
D03*
Y1473080D02*
D03*
D91*
X1033000Y1198000D02*
D03*
Y1220000D02*
D03*
X1120933Y1540000D02*
D03*
Y1562000D02*
D03*
D92*
X863933Y1284500D02*
D03*
Y1321500D02*
D03*
D93*
X892933Y1463000D02*
D03*
X915933Y1453500D02*
D03*
Y1472500D02*
D03*
X1518500Y1506000D02*
D03*
X1495500Y1515500D02*
D03*
Y1496500D02*
D03*
X784433Y1450000D02*
D03*
X761433Y1459500D02*
D03*
Y1440500D02*
D03*
D94*
X822183Y1332750D02*
D03*
X822183Y1327750D02*
D03*
X822183Y1322750D02*
D03*
X822183Y1317750D02*
D03*
Y1312750D02*
D03*
Y1307750D02*
D03*
Y1302750D02*
D03*
Y1297750D02*
D03*
X822183Y1292750D02*
D03*
X822183Y1287750D02*
D03*
Y1282750D02*
D03*
Y1277750D02*
D03*
X738683Y1332750D02*
D03*
Y1327750D02*
D03*
Y1322750D02*
D03*
Y1317750D02*
D03*
Y1312750D02*
D03*
Y1307750D02*
D03*
Y1302750D02*
D03*
Y1297750D02*
D03*
Y1292750D02*
D03*
Y1287750D02*
D03*
Y1282750D02*
D03*
Y1277750D02*
D03*
D95*
X807933Y1263500D02*
D03*
X802933D02*
D03*
X797933D02*
D03*
X792933D02*
D03*
X787933D02*
D03*
X782933D02*
D03*
X777933D02*
D03*
X772933D02*
D03*
X767933D02*
D03*
X762933D02*
D03*
X757933D02*
D03*
X752933D02*
D03*
X807933Y1347000D02*
D03*
X802933D02*
D03*
X797933D02*
D03*
X792933D02*
D03*
X787933D02*
D03*
X782933D02*
D03*
X777933D02*
D03*
X772933D02*
D03*
X767933D02*
D03*
X762933D02*
D03*
X757933D02*
D03*
X752933D02*
D03*
D96*
X1051183Y1521500D02*
D03*
X1057683D02*
D03*
X1064183D02*
D03*
X1070683D02*
D03*
X1077183D02*
D03*
X1083683D02*
D03*
X1096683D02*
D03*
X1090183D02*
D03*
X1090133Y1576000D02*
D03*
X1096633D02*
D03*
X1083633D02*
D03*
X1077133D02*
D03*
X1070633D02*
D03*
X1064133D02*
D03*
X1057633D02*
D03*
X1051133D02*
D03*
X1044633D02*
D03*
X1038133D02*
D03*
X1031633D02*
D03*
X1025133D02*
D03*
X1025183Y1521500D02*
D03*
X1031683D02*
D03*
X1038183D02*
D03*
X1044683D02*
D03*
D97*
X943000Y1488500D02*
D03*
X933500Y1465500D02*
D03*
X952500D02*
D03*
X1086000Y1196500D02*
D03*
X1095500Y1219500D02*
D03*
X1076500D02*
D03*
X1315000Y1506500D02*
D03*
X1324500Y1529500D02*
D03*
X1305500D02*
D03*
X1015000Y1486500D02*
D03*
X1005500Y1463500D02*
D03*
X1024500D02*
D03*
X774000Y1487500D02*
D03*
X783500Y1510500D02*
D03*
X764500D02*
D03*
D98*
X895500Y1271500D02*
D03*
Y1330500D02*
D03*
X932500D02*
D03*
Y1271500D02*
D03*
D99*
X1166000Y1113000D02*
D03*
X1218000D02*
D03*
D100*
X2294933Y1444500D02*
D03*
X2248933Y1376500D02*
D03*
X2119933Y1444500D02*
D03*
X2073933Y1376500D02*
D03*
X1944933Y1444500D02*
D03*
X1898933Y1376500D02*
D03*
X1769933Y1444500D02*
D03*
X1723933Y1376500D02*
D03*
X1594933Y1444500D02*
D03*
X1548933Y1376500D02*
D03*
D101*
X2248933Y1445500D02*
D03*
X2294933Y1375500D02*
D03*
X2073933Y1445500D02*
D03*
X2119933Y1375500D02*
D03*
X1898933Y1445500D02*
D03*
X1944933Y1375500D02*
D03*
X1723933Y1445500D02*
D03*
X1769933Y1375500D02*
D03*
X1548933Y1445500D02*
D03*
X1594933Y1375500D02*
D03*
D102*
X861233Y1253000D02*
D03*
X876633D02*
D03*
D103*
X1304000Y1546000D02*
D03*
X1326000D02*
D03*
X1130933Y1621000D02*
D03*
X1152933D02*
D03*
X1209933Y1623000D02*
D03*
X1231933D02*
D03*
X1080000Y1398000D02*
D03*
X1058000D02*
D03*
X1152000Y1256000D02*
D03*
X1174000D02*
D03*
X1103000Y1424000D02*
D03*
X1125000D02*
D03*
X1103000Y1406000D02*
D03*
X1125000D02*
D03*
X1152000Y1449000D02*
D03*
X1174000D02*
D03*
X1152000Y1419000D02*
D03*
X1174000D02*
D03*
X1152000Y1365000D02*
D03*
X1174000D02*
D03*
X1152000Y1384000D02*
D03*
X1174000D02*
D03*
X836000Y1210000D02*
D03*
X814000D02*
D03*
X814000Y1192000D02*
D03*
X836000D02*
D03*
X1174000Y1342000D02*
D03*
X1152000D02*
D03*
X1174000Y1324000D02*
D03*
X1152000D02*
D03*
D104*
X824933Y1462000D02*
D03*
X864933D02*
D03*
D105*
X668000Y1648933D02*
D03*
Y1608933D02*
D03*
X668000Y1706000D02*
D03*
Y1666000D02*
D03*
X730000Y1666067D02*
D03*
Y1706067D02*
D03*
Y1609067D02*
D03*
Y1649067D02*
D03*
X792000Y1649000D02*
D03*
Y1609000D02*
D03*
Y1706000D02*
D03*
Y1666000D02*
D03*
X1497000Y1399000D02*
D03*
Y1359000D02*
D03*
Y1455000D02*
D03*
Y1415000D02*
D03*
D106*
X1241433Y1524250D02*
D03*
X1236433D02*
D03*
X1231433D02*
D03*
X1226433D02*
D03*
X1221433D02*
D03*
X1216433D02*
D03*
X1211433D02*
D03*
X1206433D02*
D03*
X1201433D02*
D03*
X1196433D02*
D03*
X1191433D02*
D03*
X1186433D02*
D03*
X1181433D02*
D03*
X1176433D02*
D03*
X1171433D02*
D03*
X1166433D02*
D03*
X1161433D02*
D03*
X1156433D02*
D03*
X1151433D02*
D03*
X1146433D02*
D03*
X1141433D02*
D03*
X1136433D02*
D03*
X1241433Y1577750D02*
D03*
X1236433D02*
D03*
X1231433D02*
D03*
X1226433D02*
D03*
X1221433D02*
D03*
X1216433D02*
D03*
X1211433D02*
D03*
X1206433D02*
D03*
X1201433D02*
D03*
X1196433D02*
D03*
X1191433D02*
D03*
X1186433D02*
D03*
X1181433D02*
D03*
X1176433D02*
D03*
X1171433D02*
D03*
X1166433D02*
D03*
X1161433D02*
D03*
X1156433D02*
D03*
X1151433D02*
D03*
X1146433D02*
D03*
X1141433D02*
D03*
X1136433D02*
D03*
D107*
X711000Y1736000D02*
Y1833000D01*
D108*
X649000Y1064500D02*
D03*
D109*
X1708500Y1333000D02*
D03*
D110*
X2163000Y1318000D02*
D03*
D111*
X790000Y1192000D02*
D03*
D112*
X1314500Y987500D02*
D03*
D113*
X1307000Y969000D02*
D03*
D114*
X2042000Y1838500D02*
D03*
D115*
X2473000Y981500D02*
D03*
D116*
X2872000Y1425000D02*
D03*
D117*
X1860500Y1256000D02*
D03*
D118*
X813500Y1705000D02*
D03*
D119*
X792000Y1694034D02*
D03*
D120*
X791500Y1706067D02*
D03*
X792500Y1717067D02*
D03*
Y1666067D02*
D03*
X791500Y1649067D02*
D03*
X730500Y1608933D02*
D03*
X729500Y1649067D02*
D03*
X730500Y1666067D02*
D03*
X729500Y1706067D02*
D03*
X668500Y1666933D02*
D03*
X667500Y1648933D02*
D03*
X668500Y1608933D02*
D03*
D121*
X771500Y1705000D02*
D03*
D122*
Y1658067D02*
D03*
X750500D02*
D03*
X709500D02*
D03*
D123*
X668500Y1589000D02*
D03*
D124*
X809500Y1670067D02*
D03*
X747500D02*
D03*
X650500Y1644933D02*
D03*
D125*
X774500Y1644067D02*
D03*
X747500Y1612933D02*
D03*
X685500Y1670933D02*
D03*
X712500Y1644067D02*
D03*
D126*
X792000Y1636067D02*
D03*
X730000D02*
D03*
X668000Y1679933D02*
D03*
X668000Y1621933D02*
D03*
D127*
X792000Y1680067D02*
D03*
X730000D02*
D03*
X668000Y1635933D02*
D03*
D128*
X813500Y1657933D02*
D03*
D129*
X761000Y1597933D02*
D03*
X699000Y1717067D02*
D03*
D130*
X712000Y1610966D02*
D03*
D131*
X813000Y1610967D02*
D03*
D132*
X761500Y1621933D02*
D03*
D133*
X760500Y1609067D02*
D03*
X699500Y1705933D02*
D03*
D134*
X762000Y1610967D02*
D03*
D135*
X709500Y1611033D02*
D03*
D136*
X750500Y1705000D02*
D03*
D137*
X698500Y1706500D02*
D03*
D138*
X1378500Y984500D02*
D03*
D139*
Y1017500D02*
D03*
D140*
X1403000Y1071500D02*
D03*
D141*
X1035500Y1146500D02*
D03*
D142*
X1587000Y1009500D02*
D03*
D143*
X812500Y994500D02*
D03*
D144*
X778000Y996500D02*
D03*
D145*
X747500Y984500D02*
D03*
D146*
X755000Y1017000D02*
D03*
D147*
X3324500Y1123500D02*
D03*
D148*
X3287000Y1014500D02*
D03*
D149*
X3375000Y1021500D02*
D03*
X3185000D02*
D03*
X2780000D02*
D03*
X2375000D02*
D03*
X2780000Y1798500D02*
D03*
X2375000D02*
D03*
X1970000D02*
D03*
X1565000D02*
D03*
X1160000D02*
D03*
X755000D02*
D03*
D150*
X3355000Y1009500D02*
D03*
D151*
X3397000Y1000000D02*
D03*
D152*
X3077500Y1087000D02*
D03*
D153*
Y1012500D02*
D03*
X2672500D02*
D03*
X2267500D02*
D03*
X1862500D02*
D03*
D154*
X2970000Y1029500D02*
D03*
X2565000D02*
D03*
X2160000D02*
D03*
X2565000Y1790500D02*
D03*
X2160000D02*
D03*
X1755000D02*
D03*
X1350000D02*
D03*
X945000D02*
D03*
D155*
X2990000Y1007500D02*
D03*
X3165000Y1007500D02*
D03*
X2585000Y1007500D02*
D03*
X2760000Y1007500D02*
D03*
X1950000Y1007500D02*
D03*
X1775000Y1007500D02*
D03*
X2180000D02*
D03*
X2355000Y1007500D02*
D03*
X3205000Y1812500D02*
D03*
X3355000D02*
D03*
X2800000D02*
D03*
X2950000D02*
D03*
X2395000D02*
D03*
X2545000D02*
D03*
X1990000D02*
D03*
X2140000D02*
D03*
X1585000D02*
D03*
X1735000D02*
D03*
X1330000D02*
D03*
X1180000D02*
D03*
X775000D02*
D03*
X925000D02*
D03*
D156*
X2948000Y1009500D02*
D03*
X3207000Y1009500D02*
D03*
X2543000Y1009500D02*
D03*
X2802000Y1009500D02*
D03*
X1992000Y1009500D02*
D03*
X1733000Y1009500D02*
D03*
X2138000D02*
D03*
X2397000Y1009500D02*
D03*
X3163000Y1810500D02*
D03*
X2758000D02*
D03*
X2992000D02*
D03*
X2353000D02*
D03*
X2587000D02*
D03*
X1948000D02*
D03*
X2182000D02*
D03*
X1543000D02*
D03*
X1777000D02*
D03*
X1372000D02*
D03*
X1138000D02*
D03*
X733000D02*
D03*
X967000D02*
D03*
D157*
X3078000Y1000000D02*
D03*
D158*
X2672500Y1082000D02*
D03*
D159*
X2673000Y1000000D02*
D03*
X2268000D02*
D03*
D160*
X2267500Y1077000D02*
D03*
D161*
X1864000Y1000000D02*
D03*
D162*
X1862500Y1072000D02*
D03*
D163*
X1970000Y1020500D02*
D03*
D164*
X1755000Y1029000D02*
D03*
D165*
X3280500Y1808000D02*
D03*
X2875500D02*
D03*
X2470500D02*
D03*
X2065500D02*
D03*
X1660500D02*
D03*
X1255500D02*
D03*
X850500D02*
D03*
D166*
X3280000Y1751000D02*
D03*
D167*
X3375000Y1790000D02*
D03*
X2970000D02*
D03*
D168*
X3185000Y1798000D02*
D03*
D169*
X3284500Y1820000D02*
D03*
X2879500D02*
D03*
X2474500D02*
D03*
X2069500D02*
D03*
X1664500D02*
D03*
X1259500D02*
D03*
X854500D02*
D03*
D170*
X3397000Y1818000D02*
D03*
D171*
X2875000Y1755000D02*
D03*
D172*
X2470000Y1759000D02*
D03*
D173*
X1660000Y1767000D02*
D03*
D174*
X1575000Y1017500D02*
D03*
D175*
X1555000Y1000000D02*
D03*
D176*
X1082000Y999500D02*
D03*
D177*
X1111500Y983500D02*
D03*
D178*
X1167500Y1012000D02*
D03*
D179*
X1049000Y1012000D02*
D03*
D180*
X1061000Y1018000D02*
D03*
D181*
X1289000Y1065000D02*
D03*
D182*
X1469966Y969000D02*
D03*
D183*
X920000Y1083500D02*
D03*
D184*
X1330966Y934000D02*
D03*
D185*
X698433Y1451500D02*
D03*
D186*
X698433Y1578000D02*
D03*
D187*
X864933Y1478500D02*
D03*
D188*
X864933Y1442000D02*
D03*
D189*
X688500Y1657933D02*
D03*
D190*
X650000Y1657933D02*
D03*
D191*
X877933Y1461000D02*
D03*
D192*
X837933Y1462000D02*
D03*
D193*
X818433Y1482500D02*
D03*
D194*
X805433Y1462000D02*
D03*
D195*
X698500Y1694034D02*
D03*
D196*
X818466Y1442000D02*
D03*
D197*
X736933Y1467000D02*
D03*
X736933Y1571000D02*
D03*
X747933Y1467000D02*
D03*
X747933Y1571000D02*
D03*
X725933Y1467000D02*
D03*
X725933Y1571000D02*
D03*
X714933Y1467000D02*
D03*
X703933Y1467000D02*
D03*
X714933Y1571000D02*
D03*
X703933D02*
D03*
X681933Y1467000D02*
D03*
X692933Y1467000D02*
D03*
X681933Y1571000D02*
D03*
X692933D02*
D03*
X659933Y1467000D02*
D03*
X670933Y1467000D02*
D03*
X659933Y1571000D02*
D03*
X670933D02*
D03*
X648933Y1467000D02*
D03*
X648933Y1571000D02*
D03*
D198*
X714933Y1499000D02*
D03*
Y1539000D02*
D03*
X736933Y1499000D02*
D03*
Y1539000D02*
D03*
X692933Y1499000D02*
D03*
Y1539000D02*
D03*
X747933Y1499000D02*
D03*
Y1539000D02*
D03*
X725933Y1499000D02*
D03*
Y1539000D02*
D03*
X703933Y1499000D02*
D03*
Y1539000D02*
D03*
X681933Y1499000D02*
D03*
Y1539000D02*
D03*
X670933Y1499000D02*
D03*
Y1539000D02*
D03*
X659933Y1499000D02*
D03*
Y1539000D02*
D03*
X648933Y1499000D02*
D03*
Y1539000D02*
D03*
D199*
X736933Y1499000D02*
D03*
Y1539000D02*
D03*
X747933Y1499000D02*
D03*
Y1539000D02*
D03*
X725933Y1499000D02*
D03*
Y1539000D02*
D03*
X714933Y1499000D02*
D03*
Y1539000D02*
D03*
X703933Y1499000D02*
D03*
Y1539000D02*
D03*
X681933Y1499000D02*
D03*
X692933D02*
D03*
X681933Y1539000D02*
D03*
X692933D02*
D03*
X659933Y1499000D02*
D03*
X670933D02*
D03*
X659933Y1539000D02*
D03*
X670933D02*
D03*
X648933Y1499000D02*
D03*
Y1539000D02*
D03*
D200*
X650500Y1705000D02*
D03*
D201*
X688500Y1602467D02*
D03*
D202*
X828933Y1479500D02*
D03*
D203*
X650000Y1612966D02*
D03*
D204*
X864933Y1462500D02*
D03*
X824933Y1461500D02*
D03*
D205*
X851933Y1461000D02*
D03*
D206*
X1559000Y1126500D02*
D03*
D207*
X1911433Y1441500D02*
D03*
D208*
X1918500Y1411000D02*
D03*
D209*
X1759966Y1379000D02*
D03*
D210*
X1583433D02*
D03*
X2282433D02*
D03*
X2107433D02*
D03*
X1932433D02*
D03*
X1736433Y1445000D02*
D03*
X2086433D02*
D03*
X2261433D02*
D03*
D211*
X1557466D02*
D03*
D212*
X2007433Y1411000D02*
D03*
M02*
