G04*
G04 #@! TF.GenerationSoftware,Altium Limited,Altium Designer,18.1.7 (191)*
G04*
G04 Layer_Color=8421504*
%FSLAX44Y44*%
%MOMM*%
G71*
G01*
G75*
%ADD13R,7.0000X5.0000*%
%ADD14R,0.8000X0.8000*%
%ADD15R,0.2000X0.6000*%
%ADD16R,0.6000X0.2000*%
%ADD17R,1.1500X0.6000*%
%ADD18R,1.1500X0.3000*%
%ADD19R,0.7000X3.8000*%
%ADD20R,0.7000X2.6000*%
%ADD21R,0.7000X4.6000*%
D13*
X945000Y1000000D02*
D03*
Y1820000D02*
D03*
X755000D02*
D03*
X755000Y1000000D02*
D03*
X3185000Y1000000D02*
D03*
X3185000Y1820000D02*
D03*
X3375000D02*
D03*
Y1000000D02*
D03*
X2780000D02*
D03*
X2780000Y1820000D02*
D03*
X2970000D02*
D03*
Y1000000D02*
D03*
X2375000D02*
D03*
X2375000Y1820000D02*
D03*
X2565000D02*
D03*
Y1000000D02*
D03*
X1970000D02*
D03*
X1970000Y1820000D02*
D03*
X2160000D02*
D03*
Y1000000D02*
D03*
X1565000D02*
D03*
X1565000Y1820000D02*
D03*
X1755000D02*
D03*
Y1000000D02*
D03*
X1160000Y1000000D02*
D03*
X1160000Y1820000D02*
D03*
X1350000D02*
D03*
Y1000000D02*
D03*
D14*
X551000Y1558000D02*
D03*
X565000D02*
D03*
X551000Y1418000D02*
D03*
X565000D02*
D03*
X551000Y1488000D02*
D03*
X565000D02*
D03*
D15*
X3245000Y1136000D02*
D03*
X3241000D02*
D03*
D16*
X3280000Y1744000D02*
D03*
Y1748000D02*
D03*
X3078000Y1108000D02*
D03*
Y1112000D02*
D03*
X2875000Y1750000D02*
D03*
Y1754000D02*
D03*
X2673000Y1108000D02*
D03*
Y1112000D02*
D03*
X2470000Y1768000D02*
D03*
Y1772000D02*
D03*
X2268000Y1108000D02*
D03*
Y1112000D02*
D03*
X2065000Y1765000D02*
D03*
Y1769000D02*
D03*
X1863000Y1107000D02*
D03*
Y1111000D02*
D03*
X1660000Y1766000D02*
D03*
Y1770000D02*
D03*
X1389000Y1107000D02*
D03*
Y1111000D02*
D03*
X1255000Y1768000D02*
D03*
Y1772000D02*
D03*
X1052000Y1125000D02*
D03*
Y1129000D02*
D03*
X850000Y1747000D02*
D03*
Y1751000D02*
D03*
X755000Y1139000D02*
D03*
Y1135000D02*
D03*
D17*
X612970Y1249000D02*
D03*
X613000Y1256500D02*
D03*
X612970Y1303500D02*
D03*
Y1311000D02*
D03*
D18*
Y1262500D02*
D03*
Y1267500D02*
D03*
Y1272500D02*
D03*
X613000Y1277500D02*
D03*
X612970Y1282500D02*
D03*
Y1287500D02*
D03*
Y1292500D02*
D03*
Y1297500D02*
D03*
D19*
X1215000Y878500D02*
D03*
X1355000D02*
D03*
X1345000D02*
D03*
X1495000D02*
D03*
X1515000D02*
D03*
X1485000D02*
D03*
X1505000D02*
D03*
X1615000D02*
D03*
X1625000D02*
D03*
X1675000Y878500D02*
D03*
X1665000D02*
D03*
X1735000D02*
D03*
X1715000D02*
D03*
X1725000D02*
D03*
X1765000D02*
D03*
X1775000D02*
D03*
X1785000D02*
D03*
X1685000D02*
D03*
X1605000Y878500D02*
D03*
X1585000D02*
D03*
X1565000D02*
D03*
X1525000D02*
D03*
X1445000D02*
D03*
X1465000D02*
D03*
X1425000D02*
D03*
X1385000D02*
D03*
X1365000D02*
D03*
X1325000Y878500D02*
D03*
X1195000Y878500D02*
D03*
X1175000D02*
D03*
X1155000D02*
D03*
X1075000Y878500D02*
D03*
X1095000D02*
D03*
X1135000Y878500D02*
D03*
X1055000Y878500D02*
D03*
X1015000D02*
D03*
X1035000D02*
D03*
X1635000Y878500D02*
D03*
X1595000Y878500D02*
D03*
X1575000D02*
D03*
X1555000D02*
D03*
X1475000D02*
D03*
X1455000D02*
D03*
X1435000D02*
D03*
X1415000D02*
D03*
X1375000D02*
D03*
X1335000Y878500D02*
D03*
X1315000D02*
D03*
X1305000D02*
D03*
X1295000D02*
D03*
X1285000D02*
D03*
X1275000D02*
D03*
X1245000Y878500D02*
D03*
X1235000D02*
D03*
X1225000D02*
D03*
X1205000D02*
D03*
X1185000D02*
D03*
X1165000D02*
D03*
X1145000D02*
D03*
X1125000D02*
D03*
X1085000Y878500D02*
D03*
X1065000D02*
D03*
X1045000D02*
D03*
X1025000D02*
D03*
D20*
X1825000Y884000D02*
D03*
X995000D02*
D03*
D21*
X1815000Y874000D02*
D03*
X1005000D02*
D03*
M02*
