G04*
G04 #@! TF.GenerationSoftware,Altium Limited,Altium Designer,18.1.7 (191)*
G04*
G04 Layer_Color=8421504*
%FSLAX44Y44*%
%MOMM*%
G71*
G01*
G75*
%ADD12C,1.0000*%
%ADD13R,0.9300X0.9800*%
%ADD14R,0.9800X0.9300*%
%ADD15R,0.6000X0.6000*%
%ADD16R,0.6000X0.6000*%
%ADD17R,1.4300X1.4300*%
%ADD18R,0.2000X0.6000*%
%ADD19R,0.6000X0.2000*%
D12*
X615000Y180000D02*
D03*
X1810000Y170000D02*
D03*
X2620000Y550000D02*
D03*
X160000D02*
D03*
D13*
X195300Y244000D02*
D03*
X210700D02*
D03*
X195300Y321000D02*
D03*
X210700D02*
D03*
X406300Y243000D02*
D03*
X421700D02*
D03*
X615300Y320000D02*
D03*
X630700D02*
D03*
X663300Y243000D02*
D03*
X678700D02*
D03*
X873300Y244000D02*
D03*
X888700D02*
D03*
X1083300Y243000D02*
D03*
X1098700D02*
D03*
X1083300Y320000D02*
D03*
X1098700D02*
D03*
X1035300Y243000D02*
D03*
X1050700D02*
D03*
X1292300Y243000D02*
D03*
X1307700D02*
D03*
X1455300D02*
D03*
X1470700D02*
D03*
X1664300Y244000D02*
D03*
X1679700D02*
D03*
X1874300D02*
D03*
X1889700D02*
D03*
X2133300Y243000D02*
D03*
X2148700D02*
D03*
X2085300Y320000D02*
D03*
X2100700D02*
D03*
X2295300Y243000D02*
D03*
X2310700D02*
D03*
X2295300Y320000D02*
D03*
X2310700D02*
D03*
X2504300Y243000D02*
D03*
X2519700D02*
D03*
X2552300Y320000D02*
D03*
X2567700D02*
D03*
X1874300D02*
D03*
X1889700D02*
D03*
X1712300D02*
D03*
X1727700D02*
D03*
X1455300D02*
D03*
X1470700D02*
D03*
X1244300D02*
D03*
X1259700D02*
D03*
X873300Y320000D02*
D03*
X888700D02*
D03*
X406300Y320000D02*
D03*
X421700D02*
D03*
X1035300Y320000D02*
D03*
X1050700D02*
D03*
X243300Y244000D02*
D03*
X258700D02*
D03*
X452300Y243000D02*
D03*
X467700D02*
D03*
X825300Y244000D02*
D03*
X840700D02*
D03*
X1244300Y243000D02*
D03*
X1259700D02*
D03*
X1503300D02*
D03*
X1518700D02*
D03*
X1712300Y244000D02*
D03*
X1727700D02*
D03*
X1922300D02*
D03*
X1937700D02*
D03*
X663300Y320000D02*
D03*
X678700D02*
D03*
X2504300Y320000D02*
D03*
X2519700D02*
D03*
X2343300D02*
D03*
X2358700D02*
D03*
X2133300D02*
D03*
X2148700D02*
D03*
X615300Y243000D02*
D03*
X630700D02*
D03*
X2085300Y243000D02*
D03*
X2100700D02*
D03*
X2343300D02*
D03*
X2358700D02*
D03*
X2552300D02*
D03*
X2567700D02*
D03*
X1922300Y320000D02*
D03*
X1937700D02*
D03*
X1664300D02*
D03*
X1679700D02*
D03*
X1292300D02*
D03*
X1307700D02*
D03*
X1503300D02*
D03*
X1518700D02*
D03*
X825300Y320000D02*
D03*
X840700D02*
D03*
X243300Y321000D02*
D03*
X258700D02*
D03*
X452300Y320000D02*
D03*
X467700D02*
D03*
X467700Y400000D02*
D03*
X452300D02*
D03*
X421700Y477000D02*
D03*
X406300D02*
D03*
X873300Y400000D02*
D03*
X888700D02*
D03*
X1246600Y400000D02*
D03*
X1262000D02*
D03*
X1246600Y477000D02*
D03*
X1262000D02*
D03*
X1456300Y400000D02*
D03*
X1471700D02*
D03*
X1502300Y477000D02*
D03*
X1517700D02*
D03*
X1712300Y400000D02*
D03*
X1727700D02*
D03*
X2296300Y477000D02*
D03*
X2311700D02*
D03*
X1876300Y400000D02*
D03*
X1891700D02*
D03*
X1712300Y477000D02*
D03*
X1727700D02*
D03*
X1876300D02*
D03*
X1891700D02*
D03*
X2132300Y400000D02*
D03*
X2147700D02*
D03*
X2086300Y477000D02*
D03*
X2101700D02*
D03*
X2342300Y400000D02*
D03*
X2357700D02*
D03*
X2506300D02*
D03*
X2521700D02*
D03*
X2342300Y477000D02*
D03*
X2357700D02*
D03*
X2552300D02*
D03*
X2567700D02*
D03*
X196300Y400000D02*
D03*
X211700D02*
D03*
X1292000D02*
D03*
X1307400D02*
D03*
X662300D02*
D03*
X677700D02*
D03*
X1036300D02*
D03*
X1051700D02*
D03*
X242300D02*
D03*
X257700D02*
D03*
X196300Y477000D02*
D03*
X211700D02*
D03*
X616300Y400000D02*
D03*
X631700D02*
D03*
X826300Y400000D02*
D03*
X841700D02*
D03*
X662300Y477000D02*
D03*
X677700D02*
D03*
X826300Y477000D02*
D03*
X841700D02*
D03*
X1036300Y477000D02*
D03*
X1051700D02*
D03*
X1082300Y400000D02*
D03*
X1097700D02*
D03*
X2296300D02*
D03*
X2311700D02*
D03*
X2506300Y477000D02*
D03*
X2521700D02*
D03*
X406300Y400000D02*
D03*
X421700D02*
D03*
X467700Y477000D02*
D03*
X452300D02*
D03*
X1292000D02*
D03*
X1307400D02*
D03*
X1502300Y400000D02*
D03*
X1517700D02*
D03*
X1456300Y477000D02*
D03*
X1471700D02*
D03*
X1666300Y400000D02*
D03*
X1681700D02*
D03*
X1666300Y477000D02*
D03*
X1681700D02*
D03*
X1922300Y400000D02*
D03*
X1937700D02*
D03*
X1922300Y477000D02*
D03*
X1937700D02*
D03*
X2086300Y400000D02*
D03*
X2101700D02*
D03*
X2132300Y477000D02*
D03*
X2147700D02*
D03*
X2552300Y400000D02*
D03*
X2567700D02*
D03*
X242300Y477000D02*
D03*
X257700D02*
D03*
X616300D02*
D03*
X631700D02*
D03*
X872300Y477000D02*
D03*
X887700D02*
D03*
X1082300Y477000D02*
D03*
X1097700D02*
D03*
D14*
X437000Y273700D02*
D03*
Y258300D02*
D03*
X469000Y273700D02*
D03*
Y258300D02*
D03*
X405000Y273700D02*
D03*
Y258300D02*
D03*
X195000Y259300D02*
D03*
Y274700D02*
D03*
X211000Y305700D02*
D03*
Y290300D02*
D03*
X227000Y259300D02*
D03*
Y274700D02*
D03*
X259000Y274700D02*
D03*
Y259300D02*
D03*
X243000Y305700D02*
D03*
Y290300D02*
D03*
X275000Y290300D02*
D03*
Y305700D02*
D03*
X663000Y273700D02*
D03*
Y258300D02*
D03*
X695000Y273700D02*
D03*
Y258300D02*
D03*
X615000Y258300D02*
D03*
Y273700D02*
D03*
X599000Y304700D02*
D03*
Y289300D02*
D03*
X809000Y258300D02*
D03*
Y273700D02*
D03*
X631000Y304700D02*
D03*
Y289300D02*
D03*
X647000Y273700D02*
D03*
Y258300D02*
D03*
X841000Y273700D02*
D03*
Y258300D02*
D03*
X663000Y304700D02*
D03*
Y289300D02*
D03*
X695000Y304700D02*
D03*
Y289300D02*
D03*
X1083000Y273700D02*
D03*
Y258300D02*
D03*
X873000Y273700D02*
D03*
Y258300D02*
D03*
X905000Y273700D02*
D03*
Y258300D02*
D03*
X1276000Y273700D02*
D03*
Y258300D02*
D03*
X1308000Y273700D02*
D03*
Y258300D02*
D03*
X1244000Y273700D02*
D03*
Y258300D02*
D03*
X1099000Y273700D02*
D03*
Y258300D02*
D03*
X1083000Y289300D02*
D03*
Y304700D02*
D03*
X1324000Y273700D02*
D03*
Y258300D02*
D03*
X1455000Y273700D02*
D03*
Y258300D02*
D03*
X1487000Y273700D02*
D03*
Y258300D02*
D03*
X1519000Y273700D02*
D03*
Y258300D02*
D03*
X1664000Y273700D02*
D03*
Y258300D02*
D03*
X1503000Y304700D02*
D03*
Y289300D02*
D03*
X1535000Y304700D02*
D03*
Y289300D02*
D03*
X1649000Y304700D02*
D03*
Y289300D02*
D03*
X1874000Y273700D02*
D03*
Y258300D02*
D03*
X1906000Y273700D02*
D03*
Y258300D02*
D03*
X1696000Y273700D02*
D03*
Y258300D02*
D03*
X1727000Y273700D02*
D03*
Y258300D02*
D03*
X1680000Y304700D02*
D03*
Y289300D02*
D03*
X1711000Y304700D02*
D03*
Y289300D02*
D03*
X1743000Y304700D02*
D03*
Y289300D02*
D03*
X2133000Y273700D02*
D03*
Y258300D02*
D03*
X2101000Y273700D02*
D03*
Y258300D02*
D03*
X2165000Y273700D02*
D03*
Y258300D02*
D03*
X1938000Y273700D02*
D03*
Y258300D02*
D03*
X2069000Y304700D02*
D03*
Y289300D02*
D03*
X2327000Y273700D02*
D03*
Y258300D02*
D03*
X2295000Y273700D02*
D03*
Y258300D02*
D03*
X2359000Y273700D02*
D03*
Y258300D02*
D03*
X2085000Y273700D02*
D03*
Y258300D02*
D03*
X2101000Y304700D02*
D03*
Y289300D02*
D03*
X2133000Y304700D02*
D03*
Y289300D02*
D03*
X2165000Y304700D02*
D03*
Y289300D02*
D03*
X889000Y289300D02*
D03*
Y304700D02*
D03*
X485000Y304700D02*
D03*
Y289300D02*
D03*
X2536000Y273700D02*
D03*
Y258300D02*
D03*
X2504000Y273700D02*
D03*
Y258300D02*
D03*
X2311000Y304700D02*
D03*
Y289300D02*
D03*
X2280000Y304700D02*
D03*
Y289300D02*
D03*
X2375000Y304700D02*
D03*
Y289300D02*
D03*
X2343000Y304700D02*
D03*
Y289300D02*
D03*
X2552000Y304700D02*
D03*
Y289300D02*
D03*
X1922000Y304700D02*
D03*
Y289300D02*
D03*
X1954000Y304700D02*
D03*
Y289300D02*
D03*
X1858000Y304700D02*
D03*
Y289300D02*
D03*
X1890000Y304700D02*
D03*
Y289300D02*
D03*
X1439000Y304700D02*
D03*
Y289300D02*
D03*
X1471000Y304700D02*
D03*
Y289300D02*
D03*
X1324000Y304700D02*
D03*
Y289300D02*
D03*
X1292000Y304700D02*
D03*
Y289300D02*
D03*
X1260000Y304700D02*
D03*
Y289300D02*
D03*
X1228000Y304700D02*
D03*
Y289300D02*
D03*
X825000Y304700D02*
D03*
Y289300D02*
D03*
X857000Y304700D02*
D03*
Y289300D02*
D03*
X453000Y304700D02*
D03*
Y289300D02*
D03*
X389000Y289300D02*
D03*
Y304700D02*
D03*
X421000Y304700D02*
D03*
Y289300D02*
D03*
X179000Y290300D02*
D03*
Y305700D02*
D03*
X2584000Y304700D02*
D03*
Y289300D02*
D03*
X2504000Y304700D02*
D03*
Y289300D02*
D03*
X2536000Y304700D02*
D03*
Y289300D02*
D03*
X2568000Y273700D02*
D03*
Y258300D02*
D03*
X179000Y274700D02*
D03*
Y259300D02*
D03*
X211000Y259300D02*
D03*
Y274700D02*
D03*
X243000Y259300D02*
D03*
Y274700D02*
D03*
X275000Y259300D02*
D03*
Y274700D02*
D03*
X485000Y273700D02*
D03*
Y258300D02*
D03*
X599000Y258300D02*
D03*
Y273700D02*
D03*
X631000Y258300D02*
D03*
Y273700D02*
D03*
X857000Y258300D02*
D03*
Y273700D02*
D03*
X889000Y273700D02*
D03*
Y258300D02*
D03*
X825000Y258300D02*
D03*
Y273700D02*
D03*
X1019000Y274000D02*
D03*
Y258600D02*
D03*
X1067000Y273700D02*
D03*
Y258300D02*
D03*
X1035000Y273700D02*
D03*
Y258300D02*
D03*
X1051000Y304700D02*
D03*
Y289300D02*
D03*
X1115000Y304700D02*
D03*
Y289300D02*
D03*
X1503000Y273700D02*
D03*
Y258300D02*
D03*
X1535000Y273700D02*
D03*
Y258300D02*
D03*
X1439000Y273700D02*
D03*
Y258300D02*
D03*
X1471000Y273700D02*
D03*
Y258300D02*
D03*
X1680000Y273700D02*
D03*
Y258300D02*
D03*
X1649000Y273700D02*
D03*
Y258300D02*
D03*
X1711000Y273700D02*
D03*
Y258300D02*
D03*
X1743000Y273700D02*
D03*
Y258300D02*
D03*
X1954000Y273700D02*
D03*
Y258300D02*
D03*
X1922000Y273700D02*
D03*
Y258300D02*
D03*
X2069000Y273700D02*
D03*
Y258300D02*
D03*
X2280000Y273700D02*
D03*
Y258300D02*
D03*
X2520000Y304700D02*
D03*
Y289300D02*
D03*
X2488000Y304700D02*
D03*
Y289300D02*
D03*
X2327000Y304700D02*
D03*
Y289300D02*
D03*
X2295000Y304700D02*
D03*
Y289300D02*
D03*
X2359000Y304700D02*
D03*
Y289300D02*
D03*
X2085000Y304700D02*
D03*
Y289300D02*
D03*
X2117000Y304700D02*
D03*
Y289300D02*
D03*
X2149000Y304700D02*
D03*
Y289300D02*
D03*
X1664000Y304700D02*
D03*
Y289300D02*
D03*
X1727000Y304700D02*
D03*
Y289300D02*
D03*
X1696000Y304700D02*
D03*
Y289300D02*
D03*
X1519000Y304700D02*
D03*
Y289300D02*
D03*
X1487000Y304700D02*
D03*
Y289300D02*
D03*
X647000Y304700D02*
D03*
Y289300D02*
D03*
X679000Y304700D02*
D03*
Y289300D02*
D03*
X615000Y304700D02*
D03*
Y289300D02*
D03*
X259000Y305700D02*
D03*
Y290300D02*
D03*
X227000Y305700D02*
D03*
Y290300D02*
D03*
X195000Y305700D02*
D03*
Y290300D02*
D03*
X453000Y273700D02*
D03*
Y258300D02*
D03*
X389000Y273700D02*
D03*
Y258300D02*
D03*
X421000Y273700D02*
D03*
Y258300D02*
D03*
X679000Y273700D02*
D03*
Y258300D02*
D03*
X1115000Y274000D02*
D03*
Y258600D02*
D03*
X1051000Y273700D02*
D03*
Y258300D02*
D03*
X1035000Y304700D02*
D03*
Y289300D02*
D03*
X1292000Y273700D02*
D03*
Y258300D02*
D03*
X1260000Y273700D02*
D03*
Y258300D02*
D03*
X1228000Y273700D02*
D03*
Y258300D02*
D03*
X1858000Y273700D02*
D03*
Y258300D02*
D03*
X1890000Y273700D02*
D03*
Y258300D02*
D03*
X2117000Y273700D02*
D03*
Y258300D02*
D03*
X2149000Y273700D02*
D03*
Y258300D02*
D03*
X2311000Y273700D02*
D03*
Y258300D02*
D03*
X2343000Y273700D02*
D03*
Y258300D02*
D03*
X2375000Y273700D02*
D03*
Y258300D02*
D03*
X469000Y289300D02*
D03*
Y304700D02*
D03*
X2488000Y273700D02*
D03*
Y258300D02*
D03*
X2552000Y273700D02*
D03*
Y258300D02*
D03*
X2520000Y273700D02*
D03*
Y258300D02*
D03*
X1938000Y304700D02*
D03*
Y289300D02*
D03*
X1874000Y304700D02*
D03*
Y289300D02*
D03*
X1906000Y304700D02*
D03*
Y289300D02*
D03*
X1455000Y304700D02*
D03*
Y289300D02*
D03*
X1276000Y304700D02*
D03*
Y289300D02*
D03*
X1308000Y304700D02*
D03*
Y289300D02*
D03*
X1244000Y304700D02*
D03*
Y289300D02*
D03*
X873000Y304700D02*
D03*
Y289300D02*
D03*
X905000Y304700D02*
D03*
Y289300D02*
D03*
X809000Y304700D02*
D03*
Y289300D02*
D03*
X841000Y304700D02*
D03*
Y289300D02*
D03*
X437000Y304700D02*
D03*
Y289300D02*
D03*
X405000Y304700D02*
D03*
Y289300D02*
D03*
X2584000Y273700D02*
D03*
Y258300D02*
D03*
X2568000Y304700D02*
D03*
Y289300D02*
D03*
X1019000Y304700D02*
D03*
Y289300D02*
D03*
X1067000Y304700D02*
D03*
Y289300D02*
D03*
X1099000Y304700D02*
D03*
Y289300D02*
D03*
X195000Y431400D02*
D03*
Y416000D02*
D03*
X227000Y415300D02*
D03*
Y430700D02*
D03*
X259000Y430700D02*
D03*
Y415300D02*
D03*
X421000Y430700D02*
D03*
Y415300D02*
D03*
X453000Y430700D02*
D03*
Y415300D02*
D03*
X485000Y415300D02*
D03*
Y430700D02*
D03*
X405000Y415300D02*
D03*
Y430700D02*
D03*
X389000Y461700D02*
D03*
Y446300D02*
D03*
X421000Y461700D02*
D03*
Y446300D02*
D03*
X453000Y446300D02*
D03*
Y461700D02*
D03*
X485000Y446300D02*
D03*
Y461700D02*
D03*
X599000Y415300D02*
D03*
Y430700D02*
D03*
X631000Y430700D02*
D03*
Y415300D02*
D03*
X663000Y430700D02*
D03*
Y415300D02*
D03*
X695000Y430700D02*
D03*
Y415300D02*
D03*
X809000Y430700D02*
D03*
Y415300D02*
D03*
X873000Y430700D02*
D03*
Y415300D02*
D03*
X841000Y430700D02*
D03*
Y415300D02*
D03*
X857000Y430700D02*
D03*
Y415300D02*
D03*
X809000Y461700D02*
D03*
Y446300D02*
D03*
X1035000Y430700D02*
D03*
Y415300D02*
D03*
X1067000Y430700D02*
D03*
Y415300D02*
D03*
X1099000Y430700D02*
D03*
Y415300D02*
D03*
X1051000Y461700D02*
D03*
Y446300D02*
D03*
X1083000Y461700D02*
D03*
Y446300D02*
D03*
X1115000Y461700D02*
D03*
Y446300D02*
D03*
X1277000Y430700D02*
D03*
Y415300D02*
D03*
X1309000Y430700D02*
D03*
Y415300D02*
D03*
X1245000Y430700D02*
D03*
Y415300D02*
D03*
X1519000Y430700D02*
D03*
Y415300D02*
D03*
X1439000Y430700D02*
D03*
Y415300D02*
D03*
X1471000Y430700D02*
D03*
Y415300D02*
D03*
X1503000Y430700D02*
D03*
Y415300D02*
D03*
X1455000Y461700D02*
D03*
Y446300D02*
D03*
X1487000Y461700D02*
D03*
Y446300D02*
D03*
X1519000Y461700D02*
D03*
Y446300D02*
D03*
X1649000Y430700D02*
D03*
Y415300D02*
D03*
X1745000Y430700D02*
D03*
Y415300D02*
D03*
X1713000Y430700D02*
D03*
Y415300D02*
D03*
X1681000Y430700D02*
D03*
Y415300D02*
D03*
X1665000Y461700D02*
D03*
Y446300D02*
D03*
X1697000Y461700D02*
D03*
Y446300D02*
D03*
X1907000Y430700D02*
D03*
Y415300D02*
D03*
X1939000Y430700D02*
D03*
Y415300D02*
D03*
X1875000Y430700D02*
D03*
Y415300D02*
D03*
X1859000Y461700D02*
D03*
Y446300D02*
D03*
X1891000Y461700D02*
D03*
Y446300D02*
D03*
X1923000Y461700D02*
D03*
Y446300D02*
D03*
X1955000Y461700D02*
D03*
Y446300D02*
D03*
X2069000Y430700D02*
D03*
Y415300D02*
D03*
X2101000Y430700D02*
D03*
Y415300D02*
D03*
X2133000Y430700D02*
D03*
Y415300D02*
D03*
X2165000Y430700D02*
D03*
Y415300D02*
D03*
X2069000Y461700D02*
D03*
Y446300D02*
D03*
X2101000Y461700D02*
D03*
Y446300D02*
D03*
X2133000Y461700D02*
D03*
Y446300D02*
D03*
X2165000Y461700D02*
D03*
Y446300D02*
D03*
X2521000Y461700D02*
D03*
Y446300D02*
D03*
X2553000Y461700D02*
D03*
Y446300D02*
D03*
X2311000Y430700D02*
D03*
Y415300D02*
D03*
X2279000Y430700D02*
D03*
Y415300D02*
D03*
X2375000Y430700D02*
D03*
Y415300D02*
D03*
X2343000Y430700D02*
D03*
Y415300D02*
D03*
X2327000Y461700D02*
D03*
Y446300D02*
D03*
X2295000Y461700D02*
D03*
Y446300D02*
D03*
X2359000Y461700D02*
D03*
Y446300D02*
D03*
X2505000Y430700D02*
D03*
Y415300D02*
D03*
X2537000Y430700D02*
D03*
Y415300D02*
D03*
X2585000Y461700D02*
D03*
Y446300D02*
D03*
X2505000Y461700D02*
D03*
Y446300D02*
D03*
X2569000Y430700D02*
D03*
Y415300D02*
D03*
X275000Y430700D02*
D03*
Y415300D02*
D03*
X243000Y415300D02*
D03*
Y430700D02*
D03*
X179000Y446300D02*
D03*
Y461700D02*
D03*
X211000Y461700D02*
D03*
Y446300D02*
D03*
X243000Y461700D02*
D03*
Y446300D02*
D03*
X275000Y446300D02*
D03*
Y461700D02*
D03*
X389000Y415300D02*
D03*
Y430700D02*
D03*
X647000Y430700D02*
D03*
Y415300D02*
D03*
X679000Y415300D02*
D03*
Y430700D02*
D03*
X615000Y430700D02*
D03*
Y415300D02*
D03*
Y461700D02*
D03*
Y446300D02*
D03*
X647000Y461700D02*
D03*
Y446300D02*
D03*
X679000Y461700D02*
D03*
Y446300D02*
D03*
X825000Y430700D02*
D03*
Y415300D02*
D03*
X857000Y461700D02*
D03*
Y446300D02*
D03*
X905000Y461700D02*
D03*
Y446300D02*
D03*
X1019000Y430700D02*
D03*
Y415300D02*
D03*
X1083000Y430700D02*
D03*
Y415300D02*
D03*
X1115000Y430700D02*
D03*
Y415300D02*
D03*
X1051000Y430700D02*
D03*
Y415300D02*
D03*
X1019000Y461700D02*
D03*
Y446300D02*
D03*
X1229000Y461700D02*
D03*
Y446300D02*
D03*
X1261000Y461700D02*
D03*
Y446300D02*
D03*
X1293000Y461700D02*
D03*
Y446300D02*
D03*
X1325000Y461700D02*
D03*
Y446300D02*
D03*
X1455000Y430700D02*
D03*
Y415300D02*
D03*
X1487000Y430700D02*
D03*
Y415300D02*
D03*
X2311000Y461700D02*
D03*
Y446300D02*
D03*
X2279000Y461700D02*
D03*
Y446300D02*
D03*
X2375000Y461700D02*
D03*
Y446300D02*
D03*
X2343000Y461700D02*
D03*
Y446300D02*
D03*
X1729000Y461700D02*
D03*
Y446300D02*
D03*
X1891000Y430700D02*
D03*
Y415300D02*
D03*
X1859000Y430700D02*
D03*
Y415300D02*
D03*
X2327000Y430700D02*
D03*
Y415300D02*
D03*
X2295000Y430700D02*
D03*
Y415300D02*
D03*
X2489000Y461700D02*
D03*
Y446300D02*
D03*
X2359000Y430700D02*
D03*
Y415300D02*
D03*
X211000Y430700D02*
D03*
Y415300D02*
D03*
X179000Y431700D02*
D03*
Y416300D02*
D03*
X437000Y415300D02*
D03*
Y430700D02*
D03*
X469000Y415300D02*
D03*
Y430700D02*
D03*
X405000Y446300D02*
D03*
Y461700D02*
D03*
X437000Y446300D02*
D03*
Y461700D02*
D03*
X469000Y461700D02*
D03*
Y446300D02*
D03*
X695000Y461700D02*
D03*
Y446300D02*
D03*
X905000Y430700D02*
D03*
Y415300D02*
D03*
X889000Y430700D02*
D03*
Y415300D02*
D03*
X841000Y461700D02*
D03*
Y446300D02*
D03*
X1035000Y461700D02*
D03*
Y446300D02*
D03*
X1067000Y461700D02*
D03*
Y446300D02*
D03*
X1099000Y461700D02*
D03*
Y446300D02*
D03*
X1325000Y430700D02*
D03*
Y415300D02*
D03*
X1293000Y430700D02*
D03*
Y415300D02*
D03*
X1261000Y430700D02*
D03*
Y415300D02*
D03*
X1229000Y430700D02*
D03*
Y415300D02*
D03*
X1535000Y430700D02*
D03*
Y415300D02*
D03*
X1439000Y461700D02*
D03*
Y446300D02*
D03*
X1471000Y461700D02*
D03*
Y446300D02*
D03*
X1503000Y461700D02*
D03*
Y446300D02*
D03*
X1535000Y461700D02*
D03*
Y446300D02*
D03*
X1665000Y430700D02*
D03*
Y415300D02*
D03*
X1729000Y430700D02*
D03*
Y415300D02*
D03*
X1697000Y430700D02*
D03*
Y415300D02*
D03*
X1649000Y461700D02*
D03*
Y446300D02*
D03*
X1681000Y461700D02*
D03*
Y446300D02*
D03*
X1713000Y461700D02*
D03*
Y446300D02*
D03*
X1923000Y430700D02*
D03*
Y415300D02*
D03*
X1955000Y430700D02*
D03*
Y415300D02*
D03*
X1875000Y461700D02*
D03*
Y446300D02*
D03*
X1907000Y461700D02*
D03*
Y446300D02*
D03*
X1939000Y461700D02*
D03*
Y446300D02*
D03*
X2085000Y430700D02*
D03*
Y415300D02*
D03*
X2117000Y430700D02*
D03*
Y415300D02*
D03*
X2149000Y430700D02*
D03*
Y415300D02*
D03*
X2085000Y461700D02*
D03*
Y446300D02*
D03*
X2117000Y461700D02*
D03*
Y446300D02*
D03*
X2149000Y461700D02*
D03*
Y446300D02*
D03*
X2537000Y461700D02*
D03*
Y446300D02*
D03*
X2521000Y430700D02*
D03*
Y415300D02*
D03*
X2553000Y430700D02*
D03*
Y415300D02*
D03*
X2489000Y430700D02*
D03*
Y415300D02*
D03*
X2569000Y461700D02*
D03*
Y446300D02*
D03*
X2585000Y430700D02*
D03*
Y415300D02*
D03*
X195000Y446300D02*
D03*
Y461700D02*
D03*
X227000Y461700D02*
D03*
Y446300D02*
D03*
X259000Y446300D02*
D03*
Y461700D02*
D03*
X599000Y461700D02*
D03*
Y446300D02*
D03*
X631000Y446300D02*
D03*
Y461700D02*
D03*
X663000Y461700D02*
D03*
Y446300D02*
D03*
X825000Y461700D02*
D03*
Y446300D02*
D03*
X873000Y461700D02*
D03*
Y446300D02*
D03*
X889000Y461700D02*
D03*
Y446300D02*
D03*
X1245000Y461700D02*
D03*
Y446300D02*
D03*
X1277000Y461700D02*
D03*
Y446300D02*
D03*
X1309000Y461700D02*
D03*
Y446300D02*
D03*
X1745000Y461700D02*
D03*
Y446300D02*
D03*
D15*
X340000Y272920D02*
D03*
Y283080D02*
D03*
X2443000Y285080D02*
D03*
Y274920D02*
D03*
D16*
X967080Y225000D02*
D03*
X956920D02*
D03*
X1795920Y229000D02*
D03*
X1806080D02*
D03*
X547080Y228000D02*
D03*
X536920D02*
D03*
X1385080Y228000D02*
D03*
X1374920D02*
D03*
X2216920Y228000D02*
D03*
X2227080D02*
D03*
X2427920Y492000D02*
D03*
X2438080D02*
D03*
X1587920D02*
D03*
X1598080D02*
D03*
X1166920D02*
D03*
X1177080D02*
D03*
X2008920Y492000D02*
D03*
X2019080D02*
D03*
X758080Y492000D02*
D03*
X747920D02*
D03*
X339080Y493000D02*
D03*
X328920D02*
D03*
D17*
X705000Y133000D02*
D03*
X685000D02*
D03*
X665000D02*
D03*
X645000D02*
D03*
X1305000Y587000D02*
D03*
X1285000D02*
D03*
X1265000D02*
D03*
X1245000D02*
D03*
X1185000D02*
D03*
X1165000D02*
D03*
X1145000D02*
D03*
X1125000D02*
D03*
X1065000Y587000D02*
D03*
X1045000D02*
D03*
X1025000D02*
D03*
X1005000D02*
D03*
X945000D02*
D03*
X925000D02*
D03*
X905000D02*
D03*
X885000D02*
D03*
X825000D02*
D03*
X805000D02*
D03*
X785000D02*
D03*
X765000D02*
D03*
X705000D02*
D03*
X685000D02*
D03*
X665000D02*
D03*
X645000D02*
D03*
X1605000Y133000D02*
D03*
X1625000D02*
D03*
X1645000D02*
D03*
X1665000D02*
D03*
X1485000Y133000D02*
D03*
X1505000D02*
D03*
X1525000D02*
D03*
X1545000D02*
D03*
X1365000Y133500D02*
D03*
X1385000D02*
D03*
X1405000D02*
D03*
X1425000D02*
D03*
X1245000Y133000D02*
D03*
X1265000D02*
D03*
X1285000D02*
D03*
X1305000D02*
D03*
X1125000Y132500D02*
D03*
X1145000D02*
D03*
X1165000D02*
D03*
X1185000D02*
D03*
X1005000Y133000D02*
D03*
X1025000D02*
D03*
X1045000D02*
D03*
X1065000D02*
D03*
X885000D02*
D03*
X905000D02*
D03*
X925000D02*
D03*
X945000D02*
D03*
X765000D02*
D03*
X785000D02*
D03*
X805000D02*
D03*
X825000D02*
D03*
X525000Y133000D02*
D03*
X545000D02*
D03*
X565000D02*
D03*
X585000D02*
D03*
X405000D02*
D03*
X425000D02*
D03*
X445000D02*
D03*
X465000D02*
D03*
X285000D02*
D03*
X305000D02*
D03*
X325000D02*
D03*
X345000D02*
D03*
D18*
X1031000Y550000D02*
D03*
X1035000D02*
D03*
X1398000Y151000D02*
D03*
X1394000D02*
D03*
X732000Y524000D02*
D03*
X736000D02*
D03*
D19*
X905000Y554000D02*
D03*
Y558000D02*
D03*
M02*
