M48
;Layer_Color=9474304
;FILE_FORMAT=4:4
METRIC,LZ
;TYPE=PLATED
T1F00S00C0.2540
T2F00S00C0.6000
;TYPE=NON_PLATED
T3F00S00C0.7620
%
T01
X00658Y00214
X00727Y00284
X00721Y00292
X01025Y00158
X01034Y00165
X01052Y0017
X0122Y00174
X01485Y00168
X01505Y00152
X01525Y00158
X01545
X01604Y00168
X01625
X01646
Y00182
X01665
Y00168
X01669Y00196
X0164
X01625Y00191
X01604Y00196
X02428Y00507
X02438Y00502
X02019
X02009Y00507
X01598Y00501
X01588Y00506
X01285Y00557
X01264
X01245
X01184
X01165Y005575
X01145Y00557
X01125Y00557
X01167Y00507
X01177Y00502
X00758Y00502
X00748Y00513
X00339Y00502
X00329Y00507
T02
X0018Y0016
Y0018
X002
Y0016
X0022
Y0018
X0024
Y0016
X0026
Y0018
Y002
X0024
X0022
X002
X0018
X0028
Y0018
Y0016
X003
Y0018
X0032
Y0016
X0034
Y0018
X0036
Y0016
X0038
Y0018
Y002
X0036
X0034
X0032
X003
X004
Y0018
Y0016
X0042
Y0018
X0044
Y0016
X0046
Y0018
X0048
Y0016
X005
Y0018
Y002
X0048
X0046
X0044
X0042
X0052
Y0018
Y0016
X0054
Y0018
X0056
Y0016
X0058
Y0018
Y002
X0056
X0054
X00647Y0019
Y00174
X00661Y00167
Y00182
X00675Y00174
Y0019
X00689Y00182
Y00167
X00703Y00174
Y0019
X00717Y00182
Y00167
X00731Y00174
Y0019
X00745Y00182
Y00167
X00759Y00174
Y0019
X00773Y00182
Y00167
X00787Y00174
Y0019
X00801Y00182
Y00167
X00815Y00174
Y0019
X00829Y00182
Y00167
X00843Y00174
Y0019
X00857Y00182
Y00167
X00871Y00174
Y0019
X00885Y00182
Y00167
X00899Y00174
Y0019
X00913Y00182
Y00167
X00927Y00174
Y0019
X00941Y00182
Y00167
X00955Y00175
Y00191
X00969Y00183
Y00168
X00983Y00175
Y00191
X00997Y00183
Y00168
X0184Y00161
Y00181
X0186
X0188
Y00161
X0186
X019
Y00181
X0192
Y00161
X0194
Y00181
X0196
Y00161
X0198
Y00181
X02
Y00161
X0202
Y00181
X0204
Y00161
X0206
Y00181
X0208
Y00161
X021
Y00181
X0212
Y00161
X0214
Y00181
X0216
Y00161
X0218
Y00181
X022
Y00161
X0222
Y00181
X0224
Y00161
X0226
Y00181
X0228
Y00161
X023
Y00181
X0232
Y00161
X0234
Y00181
X0236
Y00161
X0238
Y00181
X024
Y00161
X0242
Y00181
X0244
Y00161
X0246Y0016
X0248
Y0018
Y002
Y002
X0246
Y002
Y0018
X025
Y0016
X0252
Y0018
Y002
Y002
X025
Y002
Y0022
X0252
X0254
Y002
Y002
Y0018
Y0016
X0256
Y0018
Y002
Y002
Y0022
X0258
Y002
Y002
Y0018
X026
Y0016
X0258
X026Y002
Y002
Y0022
X0248
X0246
X0247Y004
Y00416
Y00431
Y00447
Y00462
Y00478
X02489
X02537Y00478
X02585Y00477
Y004
X02537
X02489
X02394Y00399
Y00415
Y0043
Y00446
Y00461
Y00477
X02375
X02327
X02279
Y004
X02327Y00399
X02375Y00399
X02165Y004
X02117
X02069
X0205
Y00416
Y00431
Y00447
Y00462
Y00478
X02069
X02117Y00478
X02165Y00477
X01974Y00477
Y00461
Y00446
Y0043
Y00415
Y00399
X01955
X01907Y00399
X01859Y004
Y00477
X01907
X01955
X01745Y00477
X01697Y00478
X01649Y00478
X0163
Y00462
Y00447
Y00431
Y00416
Y004
X01649Y004
X01697Y004
X01745
X01554Y00399
Y00415
Y0043
Y00446
Y00461
Y00477
X01535
X01487
X01439
Y004
X01487Y00399
X01535Y00399
X01325Y004
X01277
X01229
X0121
Y00416
Y00431
Y00447
Y00462
Y00478
X01229
X01277Y00478
X01325Y00477
X01134Y00477
Y00461
Y00446
Y0043
Y00415
Y00399
X01115
X01067Y00399
X01019Y004
Y00477
X01067
X01115
X00905Y00477
X00857Y00478
X00809Y00478
Y004
X00857
X00905
X0079
Y00416
Y00431
Y00447
Y00462
Y00478
X00714Y00477
Y00461
Y00446
Y0043
Y00415
Y00399
X00695
X00647Y00399
X00599Y004
Y00477
X00647
X00695
X00485Y00477
X00437Y00478
X00437Y004
X00485
X00389
X0037
Y00416
Y00431
Y00447
Y00462
Y00478
X00389
X00294Y00477
Y00461
Y00446
Y0043
Y00415
Y00399
X00275
X00227Y00399
X00179Y004
Y00477
X00227
X00275
T03
X00542Y0036
X00555
X00568
X00581
X00594
X0109
X01103
X01116
X01129
X01142
X01638
X01651
X01664
X01677
X0169
X02186
X02199
X02212
X02225
X02238
M30
