G04*
G04 #@! TF.GenerationSoftware,Altium Limited,Altium Designer,18.1.7 (191)*
G04*
G04 Layer_Color=32896*
%FSLAX44Y44*%
%MOMM*%
G71*
G01*
G75*
%ADD10C,0.1000*%
D10*
X138000Y350000D02*
X2645000D01*
Y347000D02*
Y350000D01*
Y146000D02*
Y347000D01*
X992000Y123000D02*
X1078000D01*
X872000Y123000D02*
Y146000D01*
X838000D02*
X872000D01*
X1438000Y123000D02*
Y146000D01*
X1678000Y146000D02*
X1712000D01*
Y123000D02*
Y146000D01*
X478000Y123000D02*
Y146000D01*
X1198000Y146000D02*
X1232000D01*
Y123000D02*
Y146000D01*
X1352000Y123000D02*
X1438000D01*
X838000Y123000D02*
Y146000D01*
X392000Y123000D02*
X478000D01*
X272000Y123000D02*
Y146000D01*
X1198000Y123000D02*
Y146000D01*
X752000Y123000D02*
X838000D01*
X1472000D02*
X1558000D01*
X1558000Y123000D02*
Y146000D01*
X632000Y123000D02*
Y146000D01*
X598000D02*
X632000D01*
X138000D02*
X272000D01*
X1112000Y123000D02*
X1198000D01*
X992000Y123000D02*
Y146000D01*
X958000D02*
X992000D01*
X1558000D02*
X1592000D01*
X598000Y123000D02*
Y146000D01*
X392000Y123000D02*
Y146000D01*
X358000D02*
X392000D01*
X958000Y123000D02*
Y146000D01*
X1318000Y146000D02*
X1352000D01*
Y123000D02*
Y146000D01*
X1592000Y123000D02*
Y146000D01*
X512000Y123000D02*
X598000D01*
X358000Y123000D02*
Y146000D01*
X138000Y146000D02*
Y350000D01*
X1318000Y123000D02*
Y146000D01*
X872000Y123000D02*
X958000D01*
X752000Y123000D02*
Y146000D01*
X718000D02*
X752000D01*
X1592000Y123000D02*
X1678000D01*
X1678000Y123000D02*
Y146000D01*
X1798000Y146000D02*
X2645000Y146000D01*
X272000Y123000D02*
X358000D01*
X1112000Y123000D02*
Y146000D01*
X1078000D02*
X1112000D01*
X1232000Y123000D02*
X1318000D01*
X718000Y123000D02*
Y146000D01*
X512000Y123000D02*
Y146000D01*
X478000D02*
X512000D01*
X1798000Y123000D02*
Y146000D01*
X1078000Y123000D02*
Y146000D01*
X1438000Y146000D02*
X1472000D01*
Y123000D02*
Y146000D01*
X632000Y123000D02*
X718000D01*
X1712000Y123000D02*
X1798000D01*
X1112000Y597000D02*
X1198000D01*
X838000Y574000D02*
X872000D01*
X752000D02*
Y597000D01*
X1438000Y574000D02*
Y597000D01*
X1472000Y574000D02*
Y597000D01*
X598000Y574000D02*
Y597000D01*
X1678000Y574000D02*
Y597000D01*
X1678000Y574000D02*
X1712000D01*
X138000Y370000D02*
X2645000Y370000D01*
X1078000Y574000D02*
X1112000D01*
X872000D02*
Y597000D01*
X838000Y574000D02*
Y597000D01*
X1558000Y574000D02*
Y597000D01*
X1712000Y597000D02*
X1798000D01*
X272000Y597000D02*
X358000D01*
X958000Y574000D02*
Y597000D01*
X1232000Y597000D02*
X1318000D01*
X1352000D02*
X1438000D01*
X1592000Y574000D02*
Y597000D01*
X392000Y597000D02*
X478000D01*
X1798000Y574000D02*
Y597000D01*
X138000Y370000D02*
Y574000D01*
X992000D02*
Y597000D01*
X1318000Y574000D02*
X1352000D01*
X512000Y597000D02*
X598000D01*
X478000Y574000D02*
X512000D01*
X358000D02*
X392000D01*
X1712000D02*
Y597000D01*
X358000Y574000D02*
Y597000D01*
X1078000Y574000D02*
Y597000D01*
X1112000Y574000D02*
Y597000D01*
X718000Y574000D02*
X752000D01*
X632000Y597000D02*
X718000D01*
X1472000D02*
X1558000D01*
X392000Y574000D02*
Y597000D01*
X958000Y574000D02*
X992000D01*
X1198000Y574000D02*
Y597000D01*
X1198000Y574000D02*
X1232000D01*
X598000D02*
X632000D01*
X1558000D02*
X1592000D01*
X478000Y574000D02*
Y597000D01*
X1592000Y597000D02*
X1678000D01*
X992000Y597000D02*
X1078000D01*
X872000D02*
X958000D01*
X1232000Y574000D02*
Y597000D01*
X752000Y597000D02*
X838000D01*
X632000Y574000D02*
Y597000D01*
X1438000Y574000D02*
X1472000D01*
X512000D02*
Y597000D01*
X2645000Y370000D02*
Y574000D01*
X1318000D02*
Y597000D01*
X1352000Y574000D02*
Y597000D01*
X718000Y574000D02*
Y597000D01*
X272000Y574000D02*
Y597000D01*
X1798000Y574000D02*
X2645000D01*
X138000Y574000D02*
X272000D01*
M02*
