G04*
G04 #@! TF.GenerationSoftware,Altium Limited,Altium Designer,18.1.7 (191)*
G04*
G04 Layer_Physical_Order=2*
G04 Layer_Color=16711680*
%FSLAX44Y44*%
%MOMM*%
G71*
G01*
G75*
%ADD29C,0.2000*%
%ADD100C,1.2700*%
%ADD101C,0.4800*%
%ADD102R,28.1000X4.6000*%
%ADD103R,10.8000X6.5500*%
%ADD104R,45.0000X5.8000*%
%ADD105R,5.9000X2.0500*%
%ADD106R,30.4000X16.2000*%
%ADD107R,95.6000X12.8500*%
%ADD108R,144.9000X14.0000*%
%ADD109R,27.7000X18.2000*%
%ADD110R,34.8000X11.7000*%
G36*
X594000Y150000D02*
Y340000D01*
X341500Y340000D01*
X158000Y340000D01*
Y150000D01*
X594000Y150000D01*
D02*
G37*
G36*
X649000Y196000D02*
X733000Y280000D01*
X766000D01*
Y196000D01*
X649000Y196000D01*
D02*
G37*
G36*
X1790000Y171000D02*
D01*
D02*
G37*
G36*
X1699000Y177001D02*
X2440000Y177000D01*
X2440000Y224500D01*
Y233500D01*
X1699000Y233500D01*
X1699000Y177001D01*
D02*
G37*
D29*
X721000Y292000D02*
Y292000D01*
X634000Y205000D02*
X721000Y292000D01*
X634000Y153000D02*
Y205000D01*
X658000Y214000D02*
X727000Y283000D01*
X657500Y213500D02*
X658000Y214000D01*
X657000D02*
X657500Y213500D01*
X727000Y283000D02*
Y284000D01*
X657000Y214000D02*
X658000D01*
X1010000Y153000D02*
X1031000Y174000D01*
X1010000Y153000D02*
Y153000D01*
X634000D02*
X1010000D01*
X1031000Y174000D02*
X1220000D01*
X1265000Y511000D02*
Y557000D01*
X1176997Y500981D02*
X1565718Y499727D01*
X1125000Y501148D02*
X1176997Y500981D01*
X1565718Y499727D02*
X1567000Y501000D01*
X1125000Y501148D02*
Y557000D01*
X1285000Y516000D02*
Y557000D01*
Y516000D02*
X1592000Y516000D01*
X1265000Y511000D02*
X1591000D01*
X1245000Y506000D02*
Y557000D01*
Y506000D02*
X1588000D01*
X1125000Y557000D02*
Y557500D01*
X1167000Y507000D02*
Y540000D01*
X1119000Y563000D02*
X1125000Y557000D01*
X758000Y563000D02*
X1119000D01*
X758000Y502000D02*
Y563000D01*
X329000Y507000D02*
X738000D01*
X1129000Y573000D02*
X1145000Y557000D01*
X738000Y573000D02*
X1129000D01*
X738000Y507000D02*
Y573000D01*
X1130500Y571500D02*
X1145000Y557000D01*
X748000Y513000D02*
Y568000D01*
X339000Y502000D02*
X758000D01*
X1184000Y557000D02*
X1184000Y557000D01*
X1167000Y540000D02*
X1184000Y557000D01*
X1126000Y568000D02*
X1126000D01*
X748000D02*
X1126000D01*
X1599000Y162000D02*
X1617000D01*
X1587000Y174000D02*
X1599000Y162000D01*
X1485000Y174000D02*
X1587000D01*
X1604000Y168000D02*
Y196000D01*
X1475000Y152000D02*
X1505000D01*
X1469000Y158000D02*
X1475000Y152000D01*
X1025000Y158000D02*
X1469000D01*
X1537000Y166000D02*
X1545000Y158000D01*
X1493000Y166000D02*
X1537000D01*
X1489000Y162000D02*
X1493000Y166000D01*
X1477000Y158000D02*
X1525000D01*
X1471000Y164000D02*
X1477000Y158000D01*
X1035000Y164000D02*
X1471000D01*
X1034000Y165000D02*
X1035000Y164000D01*
X1473000Y169000D02*
X1480000Y162000D01*
X1053000Y169000D02*
X1473000D01*
X1480000Y162000D02*
X1489000D01*
X1485000Y168000D02*
Y174000D01*
X1617000Y162000D02*
Y196000D01*
X1665000Y168000D02*
Y182000D01*
X1646000Y168000D02*
Y182000D01*
X1625000Y168000D02*
Y191000D01*
X1617000Y196000D02*
X1640000D01*
X1669000D01*
X1052000Y170000D02*
X1053000Y169000D01*
X1051000Y171000D02*
X1052000Y170000D01*
X1220000Y174000D02*
X1485000D01*
X1165000Y557000D02*
X1165000D01*
X1160000Y552000D02*
X1165000Y557000D01*
X1142000Y552000D02*
X1160000D01*
X1184000Y557000D02*
X1184000D01*
X1595000Y507000D02*
X2009000Y507000D01*
X1591000Y511000D02*
X1595000Y507000D01*
X2013000Y512000D02*
X2018000Y507000D01*
X1596000Y512000D02*
X2013000D01*
X1592000Y516000D02*
X1596000Y512000D01*
X2018000Y507000D02*
X2428000D01*
X2438000Y502000D02*
Y502000D01*
X2019000Y502000D02*
X2438000Y502000D01*
X1968000Y502000D02*
X2019000D01*
X1598000Y501000D02*
X1599000D01*
X1598000D02*
X1968000Y502000D01*
X1567000Y501000D02*
X1598000D01*
X1126000Y568000D02*
X1142000Y552000D01*
X1145000Y556000D02*
Y557000D01*
X1284500Y556500D02*
X1285000Y557000D01*
X1184000D02*
X1185000D01*
D100*
X1840000Y181000D02*
D03*
X1880000D02*
D03*
X1900000D02*
D03*
X1840000Y161000D02*
D03*
X1860000Y181000D02*
D03*
Y161000D02*
D03*
X1880000D02*
D03*
X1900000D02*
D03*
X1920000D02*
D03*
Y181000D02*
D03*
X1940000D02*
D03*
Y161000D02*
D03*
X1960000D02*
D03*
Y181000D02*
D03*
X1980000D02*
D03*
X2000000D02*
D03*
X2040000D02*
D03*
X2060000D02*
D03*
X1980000Y161000D02*
D03*
X2000000D02*
D03*
X2020000Y181000D02*
D03*
Y161000D02*
D03*
X2040000D02*
D03*
X2060000D02*
D03*
X2080000D02*
D03*
Y181000D02*
D03*
X2100000D02*
D03*
Y161000D02*
D03*
X2120000D02*
D03*
Y181000D02*
D03*
X2140000D02*
D03*
X2160000D02*
D03*
X2200000D02*
D03*
X2220000D02*
D03*
X2140000Y161000D02*
D03*
X2160000D02*
D03*
X2180000Y181000D02*
D03*
Y161000D02*
D03*
X2200000D02*
D03*
X2220000D02*
D03*
X2240000D02*
D03*
Y181000D02*
D03*
X2260000D02*
D03*
Y161000D02*
D03*
X2280000D02*
D03*
Y181000D02*
D03*
X2300000D02*
D03*
X2320000D02*
D03*
X2360000D02*
D03*
X2380000D02*
D03*
X2300000Y161000D02*
D03*
X2320000D02*
D03*
X2340000Y181000D02*
D03*
Y161000D02*
D03*
X2360000D02*
D03*
X2380000D02*
D03*
X2400000D02*
D03*
Y181000D02*
D03*
X2420000D02*
D03*
Y161000D02*
D03*
X2440000D02*
D03*
Y181000D02*
D03*
X2600000Y200000D02*
D03*
Y180000D02*
D03*
Y160000D02*
D03*
X2580000D02*
D03*
Y180000D02*
D03*
Y200000D02*
D03*
X2560000D02*
D03*
Y180000D02*
D03*
Y160000D02*
D03*
X2540000D02*
D03*
Y200000D02*
D03*
X2520000D02*
D03*
Y160000D02*
D03*
X2500000D02*
D03*
Y180000D02*
D03*
Y200000D02*
D03*
X2480000D02*
D03*
Y160000D02*
D03*
X2460000D02*
D03*
Y200000D02*
D03*
X2600000Y220000D02*
D03*
Y200000D02*
D03*
X2580000D02*
D03*
Y220000D02*
D03*
X2560000D02*
D03*
Y200000D02*
D03*
X2540000Y180000D02*
D03*
Y200000D02*
D03*
Y220000D02*
D03*
X2520000D02*
D03*
Y200000D02*
D03*
Y180000D02*
D03*
X2500000Y200000D02*
D03*
Y220000D02*
D03*
X2480000D02*
D03*
Y200000D02*
D03*
Y180000D02*
D03*
X2460000D02*
D03*
Y200000D02*
D03*
Y220000D02*
D03*
X180000Y200000D02*
D03*
Y180000D02*
D03*
Y160000D02*
D03*
X200000D02*
D03*
Y180000D02*
D03*
Y200000D02*
D03*
X220000D02*
D03*
Y180000D02*
D03*
Y160000D02*
D03*
X240000D02*
D03*
Y180000D02*
D03*
Y200000D02*
D03*
X260000D02*
D03*
Y180000D02*
D03*
Y160000D02*
D03*
X280000D02*
D03*
Y180000D02*
D03*
Y200000D02*
D03*
X300000D02*
D03*
Y180000D02*
D03*
Y160000D02*
D03*
X320000D02*
D03*
Y180000D02*
D03*
Y200000D02*
D03*
X340000D02*
D03*
Y180000D02*
D03*
Y160000D02*
D03*
X360000D02*
D03*
Y180000D02*
D03*
Y200000D02*
D03*
X380000D02*
D03*
Y180000D02*
D03*
Y160000D02*
D03*
X400000D02*
D03*
Y180000D02*
D03*
Y200000D02*
D03*
X420000D02*
D03*
Y180000D02*
D03*
Y160000D02*
D03*
X440000D02*
D03*
Y180000D02*
D03*
Y200000D02*
D03*
X460000D02*
D03*
Y180000D02*
D03*
Y160000D02*
D03*
X480000D02*
D03*
Y180000D02*
D03*
Y200000D02*
D03*
X500000D02*
D03*
Y180000D02*
D03*
Y160000D02*
D03*
X520000D02*
D03*
Y180000D02*
D03*
Y200000D02*
D03*
X540000D02*
D03*
Y180000D02*
D03*
Y160000D02*
D03*
X560000D02*
D03*
Y180000D02*
D03*
Y200000D02*
D03*
X580000D02*
D03*
Y180000D02*
D03*
Y160000D02*
D03*
X997000Y168000D02*
D03*
Y183000D02*
D03*
X983000Y191000D02*
D03*
Y175000D02*
D03*
X969000Y168000D02*
D03*
Y183000D02*
D03*
X955000Y191000D02*
D03*
Y175000D02*
D03*
X941000Y167000D02*
D03*
Y182000D02*
D03*
X927000Y190000D02*
D03*
Y174000D02*
D03*
X899000D02*
D03*
Y190000D02*
D03*
X913000Y182000D02*
D03*
Y167000D02*
D03*
X801000D02*
D03*
Y182000D02*
D03*
X787000Y190000D02*
D03*
Y174000D02*
D03*
X829000Y167000D02*
D03*
Y182000D02*
D03*
X815000Y190000D02*
D03*
Y174000D02*
D03*
X857000Y167000D02*
D03*
Y182000D02*
D03*
X843000Y190000D02*
D03*
Y174000D02*
D03*
X885000Y167000D02*
D03*
Y182000D02*
D03*
X871000Y190000D02*
D03*
Y174000D02*
D03*
X731000D02*
D03*
Y190000D02*
D03*
X745000Y182000D02*
D03*
Y167000D02*
D03*
X703000Y174000D02*
D03*
Y190000D02*
D03*
X717000Y182000D02*
D03*
Y167000D02*
D03*
X675000Y174000D02*
D03*
Y190000D02*
D03*
X689000Y182000D02*
D03*
Y167000D02*
D03*
X647000Y174000D02*
D03*
Y190000D02*
D03*
X661000Y182000D02*
D03*
Y167000D02*
D03*
X773000D02*
D03*
Y182000D02*
D03*
X759000Y190000D02*
D03*
Y174000D02*
D03*
X2327000Y399000D02*
D03*
X2279000Y477000D02*
D03*
X2327000D02*
D03*
X2375000Y399000D02*
D03*
Y477000D02*
D03*
X2279000Y400000D02*
D03*
X2394000Y477000D02*
D03*
Y461000D02*
D03*
Y446000D02*
D03*
Y430000D02*
D03*
Y415000D02*
D03*
Y399000D02*
D03*
X2470000Y478000D02*
D03*
Y462000D02*
D03*
Y447000D02*
D03*
Y431000D02*
D03*
Y416000D02*
D03*
Y400000D02*
D03*
X2585000Y477000D02*
D03*
X2489000Y400000D02*
D03*
Y478000D02*
D03*
X2537000Y400000D02*
D03*
X2585000D02*
D03*
X2537000Y478000D02*
D03*
X1907000Y399000D02*
D03*
X1859000Y477000D02*
D03*
X1907000D02*
D03*
X1955000Y399000D02*
D03*
Y477000D02*
D03*
X1859000Y400000D02*
D03*
X1974000Y477000D02*
D03*
Y461000D02*
D03*
Y446000D02*
D03*
Y430000D02*
D03*
Y415000D02*
D03*
Y399000D02*
D03*
X2050000Y478000D02*
D03*
Y462000D02*
D03*
Y447000D02*
D03*
Y431000D02*
D03*
Y416000D02*
D03*
Y400000D02*
D03*
X2165000Y477000D02*
D03*
X2069000Y400000D02*
D03*
Y478000D02*
D03*
X2117000Y400000D02*
D03*
X2165000D02*
D03*
X2117000Y478000D02*
D03*
X1649000Y400000D02*
D03*
X1487000Y399000D02*
D03*
X1439000Y477000D02*
D03*
X1487000D02*
D03*
X1535000Y399000D02*
D03*
Y477000D02*
D03*
X1439000Y400000D02*
D03*
X1554000Y477000D02*
D03*
Y461000D02*
D03*
Y446000D02*
D03*
Y430000D02*
D03*
Y415000D02*
D03*
Y399000D02*
D03*
X1630000Y478000D02*
D03*
Y462000D02*
D03*
Y447000D02*
D03*
Y431000D02*
D03*
Y416000D02*
D03*
Y400000D02*
D03*
X1745000Y477000D02*
D03*
X1649000Y478000D02*
D03*
X1697000Y400000D02*
D03*
X1745000D02*
D03*
X1697000Y478000D02*
D03*
X1067000Y399000D02*
D03*
X1019000Y477000D02*
D03*
X1067000D02*
D03*
X1115000Y399000D02*
D03*
Y477000D02*
D03*
X1019000Y400000D02*
D03*
X1134000Y477000D02*
D03*
Y461000D02*
D03*
Y446000D02*
D03*
Y430000D02*
D03*
Y415000D02*
D03*
Y399000D02*
D03*
X1210000Y478000D02*
D03*
Y462000D02*
D03*
Y447000D02*
D03*
Y431000D02*
D03*
Y416000D02*
D03*
Y400000D02*
D03*
X1325000Y477000D02*
D03*
X1229000Y400000D02*
D03*
Y478000D02*
D03*
X1277000Y400000D02*
D03*
X1325000D02*
D03*
X1277000Y478000D02*
D03*
X647000Y399000D02*
D03*
X599000Y477000D02*
D03*
X647000D02*
D03*
X695000Y399000D02*
D03*
Y477000D02*
D03*
X599000Y400000D02*
D03*
X714000Y477000D02*
D03*
Y461000D02*
D03*
Y446000D02*
D03*
Y430000D02*
D03*
Y415000D02*
D03*
Y399000D02*
D03*
X790000Y478000D02*
D03*
Y462000D02*
D03*
Y447000D02*
D03*
Y431000D02*
D03*
Y416000D02*
D03*
Y400000D02*
D03*
X905000Y477000D02*
D03*
X809000Y400000D02*
D03*
Y478000D02*
D03*
X857000Y400000D02*
D03*
X905000D02*
D03*
X857000Y478000D02*
D03*
X437000D02*
D03*
X485000Y400000D02*
D03*
X437000D02*
D03*
X389000Y478000D02*
D03*
Y400000D02*
D03*
X485000Y477000D02*
D03*
X370000Y400000D02*
D03*
Y416000D02*
D03*
Y431000D02*
D03*
Y447000D02*
D03*
Y462000D02*
D03*
Y478000D02*
D03*
X294000Y399000D02*
D03*
Y415000D02*
D03*
Y430000D02*
D03*
Y446000D02*
D03*
Y461000D02*
D03*
Y477000D02*
D03*
X179000Y400000D02*
D03*
X275000Y477000D02*
D03*
Y399000D02*
D03*
X227000Y477000D02*
D03*
X179000D02*
D03*
X227000Y399000D02*
D03*
D101*
X658000Y214000D02*
D03*
X1177000Y502000D02*
D03*
X1167000Y507000D02*
D03*
X748000Y513000D02*
D03*
X329000Y507000D02*
D03*
X339000Y502000D02*
D03*
X758000D02*
D03*
X1125000Y557000D02*
D03*
X1604000Y196000D02*
D03*
X727000Y284000D02*
D03*
X721000Y292000D02*
D03*
X1545000Y158000D02*
D03*
X1525000D02*
D03*
X1034000Y165000D02*
D03*
X1505000Y152000D02*
D03*
X1485000Y168000D02*
D03*
X1604000D02*
D03*
X1665000D02*
D03*
X1646000D02*
D03*
X1625000D02*
D03*
Y191000D02*
D03*
X1640000Y196000D02*
D03*
X1669000D02*
D03*
X1665000Y182000D02*
D03*
X1646000D02*
D03*
X1052000Y170000D02*
D03*
X1220000Y174000D02*
D03*
X1025000Y158000D02*
D03*
X2009000Y507000D02*
D03*
X2428000D02*
D03*
X2438000Y502000D02*
D03*
X1588000Y506000D02*
D03*
X2019000Y502000D02*
D03*
X1598000Y501000D02*
D03*
X1285000Y557000D02*
D03*
X1264000D02*
D03*
X1245000D02*
D03*
X1184000D02*
D03*
X1165000Y557500D02*
D03*
X1145000Y557000D02*
D03*
D102*
X779500Y181000D02*
D03*
D103*
X1134000Y210750D02*
D03*
D104*
X1371000Y207000D02*
D03*
D105*
X1119500Y329750D02*
D03*
D106*
X1042000Y259000D02*
D03*
D107*
X2158000Y215250D02*
D03*
D108*
X1911500Y270000D02*
D03*
D109*
X871500Y249000D02*
D03*
D110*
X2432000Y438500D02*
D03*
X2010000D02*
D03*
X1593000D02*
D03*
X1173000D02*
D03*
X753000D02*
D03*
X332000D02*
D03*
M02*
