G04*
G04 #@! TF.GenerationSoftware,Altium Limited,Altium Designer,18.1.7 (191)*
G04*
G04 Layer_Color=65535*
%FSLAX44Y44*%
%MOMM*%
G71*
G01*
G75*
%ADD10C,0.1000*%
%ADD11C,0.2540*%
D10*
X2724000Y361000D02*
X2724000Y361000D01*
X1592000Y123000D02*
X1678000D01*
X1592000D02*
Y146000D01*
X1558000D02*
X1592000D01*
X1558000Y123000D02*
Y146000D01*
X1472000Y123000D02*
X1558000D01*
X1352000D02*
X1438000D01*
X1438000Y123000D02*
Y146000D01*
X1438000Y146000D02*
X1472000D01*
Y123000D02*
Y146000D01*
X1232000Y123000D02*
X1318000D01*
X1318000Y123000D02*
Y146000D01*
X1318000Y146000D02*
X1352000D01*
Y123000D02*
Y146000D01*
X1112000Y123000D02*
X1198000D01*
X1198000Y123000D02*
Y146000D01*
X1198000Y146000D02*
X1232000D01*
Y123000D02*
Y146000D01*
X992000Y123000D02*
X1078000D01*
X1078000Y123000D02*
Y146000D01*
X1078000Y146000D02*
X1112000D01*
Y123000D02*
Y146000D01*
X872000Y123000D02*
X958000D01*
X958000Y123000D02*
Y146000D01*
X958000Y146000D02*
X992000D01*
Y123000D02*
Y146000D01*
X752000Y123000D02*
X838000D01*
X838000Y123000D02*
Y146000D01*
X838000Y146000D02*
X872000D01*
Y123000D02*
Y146000D01*
X632000Y123000D02*
X718000D01*
X718000Y123000D02*
Y146000D01*
X718000Y146000D02*
X752000D01*
Y123000D02*
Y146000D01*
X512000Y123000D02*
X598000D01*
X598000Y123000D02*
Y146000D01*
X598000Y146000D02*
X632000D01*
Y123000D02*
Y146000D01*
X392000Y123000D02*
X478000D01*
X478000Y123000D02*
Y146000D01*
X478000Y146000D02*
X512000D01*
Y123000D02*
Y146000D01*
X272000Y123000D02*
X358000D01*
X358000Y123000D02*
Y146000D01*
X358000Y146000D02*
X392000D01*
Y123000D02*
Y146000D01*
X138000D02*
X272000D01*
Y123000D02*
Y146000D01*
X1678000D02*
X1712000D01*
Y123000D02*
Y146000D01*
Y123000D02*
X1798000D01*
X1798000Y123000D02*
Y146000D01*
X1678000Y123000D02*
Y146000D01*
X1798000Y146000D02*
X2645000Y146000D01*
X138000Y146000D02*
Y350000D01*
X2645000Y574000D02*
X2645000Y146000D01*
X1112000Y597000D02*
X1198000D01*
X138000Y574000D02*
X272000D01*
X752000Y597000D02*
X838000D01*
X1558000Y574000D02*
X1592000D01*
Y597000D02*
X1678000D01*
X1472000Y597000D02*
X1558000D01*
X1318000Y574000D02*
X1352000D01*
Y597000D02*
X1438000D01*
X1232000D02*
X1318000D01*
X1078000Y574000D02*
X1112000D01*
X838000D02*
X872000D01*
X992000Y597000D02*
X1078000D01*
X872000D02*
X958000D01*
X598000Y574000D02*
X632000D01*
X632000Y597000D02*
X718000D01*
X512000D02*
X598000D01*
X358000Y574000D02*
X392000D01*
X392000Y597000D02*
X478000D01*
X272000D02*
X358000D01*
X1472000Y574000D02*
Y597000D01*
X598000Y574000D02*
Y597000D01*
X272000Y574000D02*
Y597000D01*
X1438000Y574000D02*
X1472000D01*
X1198000D02*
X1232000D01*
X958000D02*
X992000D01*
X718000D02*
X752000D01*
X478000D02*
X512000D01*
X138000Y350000D02*
Y574000D01*
X1592000Y574000D02*
Y597000D01*
X1558000Y574000D02*
Y597000D01*
X1438000Y574000D02*
Y597000D01*
X1352000Y574000D02*
Y597000D01*
X1318000Y574000D02*
Y597000D01*
X1232000Y574000D02*
Y597000D01*
X1198000Y574000D02*
Y597000D01*
X1112000Y574000D02*
Y597000D01*
X1078000Y574000D02*
Y597000D01*
X992000Y574000D02*
Y597000D01*
X958000Y574000D02*
Y597000D01*
X872000Y574000D02*
Y597000D01*
X838000Y574000D02*
Y597000D01*
X752000Y574000D02*
Y597000D01*
X718000Y574000D02*
Y597000D01*
X632000Y574000D02*
Y597000D01*
X512000Y574000D02*
Y597000D01*
X478000Y574000D02*
Y597000D01*
X392000Y574000D02*
Y597000D01*
X358000Y574000D02*
Y597000D01*
X1712000Y574000D02*
Y597000D01*
X1798000Y574000D02*
Y597000D01*
X1712000Y597000D02*
X1798000D01*
X1678000Y574000D02*
X1712000D01*
X1678000Y574000D02*
Y597000D01*
X1798000Y574000D02*
X2645000D01*
D11*
X214697Y544618D02*
X209618D01*
X212157D01*
Y531922D01*
X209618Y529383D01*
X207079D01*
X204540Y531922D01*
X219775Y544618D02*
Y529383D01*
X229932D01*
X245167Y542078D02*
X242628Y544618D01*
X237549D01*
X235010Y542078D01*
Y531922D01*
X237549Y529383D01*
X242628D01*
X245167Y531922D01*
X260402Y544618D02*
X255324D01*
X257863D01*
Y531922D01*
X255324Y529383D01*
X252784D01*
X250245Y531922D01*
X265480Y544618D02*
Y529383D01*
X275637D01*
X290872Y542078D02*
X288333Y544618D01*
X283255D01*
X280715Y542078D01*
Y531922D01*
X283255Y529383D01*
X288333D01*
X290872Y531922D01*
X306107Y544618D02*
X301029D01*
X303568D01*
Y531922D01*
X301029Y529383D01*
X298490D01*
X295950Y531922D01*
X311185Y544618D02*
Y529383D01*
X321342D01*
X336577Y542078D02*
X334038Y544618D01*
X328960D01*
X326421Y542078D01*
Y531922D01*
X328960Y529383D01*
X334038D01*
X336577Y531922D01*
X351812Y544618D02*
X346734D01*
X349273D01*
Y531922D01*
X346734Y529383D01*
X344195D01*
X341656Y531922D01*
X356891Y544618D02*
Y529383D01*
X367047D01*
X382282Y542078D02*
X379743Y544618D01*
X374665D01*
X372126Y542078D01*
Y531922D01*
X374665Y529383D01*
X379743D01*
X382282Y531922D01*
M02*
