G04 EAGLE Gerber RS-274X export*
G75*
%MOMM*%
%FSLAX34Y34*%
%LPD*%
%INCopper Layer 15*%
%IPPOS*%
%AMOC8*
5,1,8,0,0,1.08239X$1,22.5*%
G01*
%ADD10C,1.320800*%
%ADD11C,1.508000*%
%ADD12C,2.760000*%
%ADD13C,1.524000*%
%ADD14C,0.756400*%

G36*
X318142Y10932D02*
X318142Y10932D01*
X318206Y10931D01*
X318281Y10952D01*
X318357Y10963D01*
X318416Y10989D01*
X318478Y11006D01*
X318544Y11047D01*
X318614Y11079D01*
X318663Y11121D01*
X318718Y11154D01*
X318770Y11212D01*
X318828Y11262D01*
X318864Y11316D01*
X318907Y11364D01*
X318940Y11433D01*
X318983Y11498D01*
X319002Y11560D01*
X319030Y11617D01*
X319041Y11687D01*
X319065Y11768D01*
X319066Y11853D01*
X319077Y11922D01*
X319077Y280191D01*
X319076Y280202D01*
X319077Y280213D01*
X319056Y280342D01*
X319037Y280471D01*
X319033Y280480D01*
X319031Y280491D01*
X318975Y280609D01*
X318921Y280727D01*
X318914Y280736D01*
X318910Y280745D01*
X318822Y280843D01*
X318738Y280942D01*
X318729Y280948D01*
X318722Y280956D01*
X318611Y281025D01*
X318502Y281096D01*
X318492Y281099D01*
X318482Y281105D01*
X318357Y281140D01*
X318232Y281179D01*
X318221Y281179D01*
X318211Y281182D01*
X318080Y281181D01*
X317950Y281182D01*
X317940Y281179D01*
X317929Y281179D01*
X317805Y281142D01*
X317678Y281107D01*
X317669Y281101D01*
X317659Y281098D01*
X317550Y281028D01*
X317438Y280959D01*
X317431Y280951D01*
X317422Y280945D01*
X317337Y280847D01*
X317249Y280750D01*
X317245Y280740D01*
X317238Y280732D01*
X317205Y280658D01*
X317126Y280496D01*
X317123Y280472D01*
X317113Y280450D01*
X316708Y278937D01*
X312934Y272402D01*
X307598Y267066D01*
X301063Y263292D01*
X293773Y261339D01*
X286227Y261339D01*
X278937Y263292D01*
X272402Y267066D01*
X267066Y272402D01*
X263292Y278937D01*
X261339Y286227D01*
X261339Y293773D01*
X263292Y301063D01*
X267066Y307598D01*
X272402Y312934D01*
X278937Y316708D01*
X280450Y317113D01*
X280460Y317117D01*
X280471Y317119D01*
X280589Y317172D01*
X280709Y317224D01*
X280718Y317230D01*
X280727Y317235D01*
X280827Y317320D01*
X280927Y317402D01*
X280933Y317411D01*
X280942Y317418D01*
X281014Y317528D01*
X281087Y317635D01*
X281090Y317645D01*
X281096Y317654D01*
X281134Y317779D01*
X281175Y317903D01*
X281175Y317914D01*
X281179Y317924D01*
X281180Y318054D01*
X281185Y318185D01*
X281182Y318195D01*
X281182Y318206D01*
X281148Y318332D01*
X281115Y318458D01*
X281110Y318467D01*
X281107Y318478D01*
X281039Y318589D01*
X280972Y318701D01*
X280965Y318708D01*
X280959Y318718D01*
X280862Y318805D01*
X280767Y318895D01*
X280758Y318899D01*
X280750Y318907D01*
X280633Y318963D01*
X280516Y319023D01*
X280506Y319025D01*
X280496Y319030D01*
X280417Y319042D01*
X280239Y319076D01*
X280215Y319074D01*
X280191Y319077D01*
X250000Y319077D01*
X249936Y319068D01*
X249872Y319069D01*
X249797Y319048D01*
X249721Y319037D01*
X249662Y319011D01*
X249600Y318994D01*
X249534Y318953D01*
X249464Y318921D01*
X249415Y318879D01*
X249360Y318846D01*
X249308Y318788D01*
X249250Y318738D01*
X249214Y318684D01*
X249171Y318636D01*
X249138Y318567D01*
X249095Y318502D01*
X249076Y318440D01*
X249048Y318383D01*
X249037Y318313D01*
X249013Y318232D01*
X249012Y318147D01*
X249001Y318078D01*
X249001Y260999D01*
X80999Y260999D01*
X80999Y318078D01*
X80990Y318142D01*
X80991Y318206D01*
X80970Y318281D01*
X80959Y318357D01*
X80933Y318416D01*
X80916Y318478D01*
X80875Y318544D01*
X80843Y318614D01*
X80801Y318663D01*
X80768Y318718D01*
X80710Y318770D01*
X80660Y318828D01*
X80606Y318864D01*
X80558Y318907D01*
X80489Y318940D01*
X80424Y318983D01*
X80362Y319002D01*
X80305Y319030D01*
X80235Y319041D01*
X80154Y319065D01*
X80069Y319066D01*
X80000Y319077D01*
X11922Y319077D01*
X11858Y319068D01*
X11794Y319069D01*
X11719Y319048D01*
X11643Y319037D01*
X11584Y319011D01*
X11522Y318994D01*
X11456Y318953D01*
X11386Y318921D01*
X11337Y318879D01*
X11282Y318846D01*
X11230Y318788D01*
X11172Y318738D01*
X11136Y318684D01*
X11093Y318636D01*
X11060Y318567D01*
X11017Y318502D01*
X10998Y318440D01*
X10970Y318383D01*
X10959Y318313D01*
X10935Y318232D01*
X10934Y318147D01*
X10923Y318078D01*
X10923Y165921D01*
X10939Y165803D01*
X10951Y165685D01*
X10959Y165664D01*
X10963Y165641D01*
X11011Y165533D01*
X11055Y165423D01*
X11069Y165405D01*
X11079Y165384D01*
X11156Y165294D01*
X11229Y165201D01*
X11247Y165187D01*
X11262Y165170D01*
X11362Y165105D01*
X11458Y165036D01*
X11479Y165028D01*
X11498Y165016D01*
X11612Y164981D01*
X11723Y164941D01*
X11746Y164940D01*
X11768Y164933D01*
X11886Y164932D01*
X12005Y164925D01*
X12026Y164930D01*
X12050Y164929D01*
X12229Y164979D01*
X12304Y164997D01*
X16658Y166801D01*
X23342Y166801D01*
X29517Y164243D01*
X34243Y159517D01*
X36801Y153342D01*
X36801Y146658D01*
X34243Y140483D01*
X29517Y135757D01*
X23342Y133199D01*
X16658Y133199D01*
X12304Y135003D01*
X12190Y135032D01*
X12076Y135067D01*
X12053Y135067D01*
X12031Y135073D01*
X11913Y135069D01*
X11794Y135071D01*
X11772Y135064D01*
X11749Y135064D01*
X11637Y135027D01*
X11522Y134995D01*
X11503Y134983D01*
X11481Y134976D01*
X11383Y134910D01*
X11282Y134847D01*
X11267Y134830D01*
X11248Y134817D01*
X11173Y134726D01*
X11093Y134638D01*
X11083Y134617D01*
X11069Y134600D01*
X11022Y134491D01*
X10970Y134384D01*
X10967Y134363D01*
X10957Y134341D01*
X10935Y134156D01*
X10923Y134079D01*
X10923Y125921D01*
X10939Y125803D01*
X10951Y125685D01*
X10959Y125664D01*
X10963Y125641D01*
X11011Y125533D01*
X11055Y125423D01*
X11069Y125405D01*
X11079Y125384D01*
X11156Y125294D01*
X11229Y125201D01*
X11247Y125187D01*
X11262Y125170D01*
X11362Y125105D01*
X11458Y125036D01*
X11479Y125028D01*
X11498Y125016D01*
X11612Y124981D01*
X11723Y124941D01*
X11746Y124940D01*
X11768Y124933D01*
X11886Y124932D01*
X12005Y124925D01*
X12026Y124930D01*
X12050Y124929D01*
X12229Y124979D01*
X12304Y124997D01*
X16658Y126801D01*
X23342Y126801D01*
X29517Y124243D01*
X34243Y119517D01*
X36801Y113342D01*
X36801Y106658D01*
X34243Y100483D01*
X29517Y95757D01*
X23342Y93199D01*
X16658Y93199D01*
X12304Y95003D01*
X12190Y95032D01*
X12076Y95067D01*
X12053Y95067D01*
X12031Y95073D01*
X11913Y95069D01*
X11794Y95071D01*
X11772Y95064D01*
X11749Y95064D01*
X11637Y95027D01*
X11522Y94995D01*
X11503Y94983D01*
X11481Y94976D01*
X11383Y94910D01*
X11282Y94847D01*
X11267Y94830D01*
X11248Y94817D01*
X11173Y94726D01*
X11093Y94638D01*
X11083Y94617D01*
X11069Y94600D01*
X11022Y94491D01*
X10970Y94384D01*
X10967Y94363D01*
X10957Y94341D01*
X10935Y94156D01*
X10923Y94079D01*
X10923Y49809D01*
X10924Y49798D01*
X10923Y49787D01*
X10944Y49658D01*
X10963Y49529D01*
X10967Y49520D01*
X10969Y49509D01*
X11025Y49391D01*
X11079Y49273D01*
X11086Y49264D01*
X11090Y49255D01*
X11178Y49157D01*
X11262Y49058D01*
X11271Y49052D01*
X11278Y49044D01*
X11389Y48975D01*
X11498Y48904D01*
X11508Y48901D01*
X11518Y48895D01*
X11643Y48860D01*
X11768Y48821D01*
X11779Y48821D01*
X11789Y48818D01*
X11920Y48819D01*
X12050Y48818D01*
X12060Y48821D01*
X12071Y48821D01*
X12195Y48858D01*
X12322Y48893D01*
X12331Y48899D01*
X12341Y48902D01*
X12450Y48972D01*
X12562Y49041D01*
X12569Y49049D01*
X12578Y49055D01*
X12663Y49153D01*
X12751Y49250D01*
X12755Y49260D01*
X12762Y49268D01*
X12795Y49342D01*
X12874Y49504D01*
X12877Y49528D01*
X12887Y49550D01*
X13292Y51063D01*
X17066Y57598D01*
X22402Y62934D01*
X28937Y66708D01*
X36227Y68661D01*
X43773Y68661D01*
X51063Y66708D01*
X57598Y62934D01*
X62934Y57598D01*
X66708Y51063D01*
X68661Y43773D01*
X68661Y36227D01*
X66708Y28937D01*
X62934Y22402D01*
X57598Y17066D01*
X51063Y13292D01*
X49550Y12887D01*
X49540Y12883D01*
X49529Y12881D01*
X49411Y12828D01*
X49291Y12776D01*
X49282Y12770D01*
X49273Y12765D01*
X49173Y12680D01*
X49073Y12598D01*
X49067Y12589D01*
X49058Y12582D01*
X48986Y12472D01*
X48913Y12365D01*
X48910Y12355D01*
X48904Y12346D01*
X48866Y12221D01*
X48825Y12097D01*
X48825Y12086D01*
X48821Y12076D01*
X48820Y11946D01*
X48815Y11815D01*
X48818Y11805D01*
X48818Y11794D01*
X48852Y11668D01*
X48885Y11542D01*
X48890Y11533D01*
X48893Y11522D01*
X48961Y11411D01*
X49028Y11299D01*
X49035Y11292D01*
X49041Y11282D01*
X49138Y11195D01*
X49233Y11105D01*
X49242Y11101D01*
X49250Y11093D01*
X49367Y11037D01*
X49484Y10977D01*
X49494Y10975D01*
X49504Y10970D01*
X49583Y10958D01*
X49761Y10924D01*
X49785Y10926D01*
X49809Y10923D01*
X318078Y10923D01*
X318142Y10932D01*
G37*
%LPC*%
G36*
X118887Y39379D02*
X118887Y39379D01*
X114984Y40996D01*
X111996Y43984D01*
X110379Y47887D01*
X110379Y52113D01*
X111996Y56016D01*
X112473Y56493D01*
X112493Y56519D01*
X112517Y56540D01*
X112577Y56632D01*
X112643Y56719D01*
X112654Y56749D01*
X112672Y56776D01*
X112704Y56881D01*
X112742Y56983D01*
X112745Y57015D01*
X112754Y57046D01*
X112756Y57155D01*
X112764Y57264D01*
X112757Y57296D01*
X112758Y57328D01*
X112729Y57433D01*
X112706Y57540D01*
X112691Y57569D01*
X112683Y57600D01*
X112625Y57693D01*
X112574Y57789D01*
X112552Y57812D01*
X112535Y57840D01*
X112453Y57913D01*
X112377Y57991D01*
X112349Y58007D01*
X112325Y58029D01*
X112227Y58076D01*
X112132Y58130D01*
X112100Y58138D01*
X112071Y58152D01*
X111982Y58166D01*
X111857Y58195D01*
X111809Y58193D01*
X111767Y58199D01*
X106658Y58199D01*
X100483Y60757D01*
X95757Y65483D01*
X93199Y71658D01*
X93199Y78342D01*
X95757Y84517D01*
X100483Y89243D01*
X106658Y91801D01*
X113342Y91801D01*
X119517Y89243D01*
X124243Y84517D01*
X126801Y78342D01*
X126801Y71658D01*
X124243Y65483D01*
X121086Y62327D01*
X121067Y62301D01*
X121043Y62280D01*
X120983Y62188D01*
X120917Y62101D01*
X120906Y62071D01*
X120888Y62044D01*
X120856Y61939D01*
X120818Y61837D01*
X120815Y61805D01*
X120806Y61774D01*
X120804Y61665D01*
X120796Y61556D01*
X120802Y61524D01*
X120802Y61492D01*
X120831Y61387D01*
X120853Y61280D01*
X120868Y61251D01*
X120877Y61220D01*
X120935Y61127D01*
X120986Y61031D01*
X121008Y61008D01*
X121025Y60980D01*
X121106Y60907D01*
X121183Y60829D01*
X121211Y60813D01*
X121235Y60791D01*
X121333Y60744D01*
X121428Y60690D01*
X121459Y60682D01*
X121488Y60668D01*
X121578Y60654D01*
X121702Y60625D01*
X121751Y60627D01*
X121793Y60621D01*
X123113Y60621D01*
X127016Y59004D01*
X130004Y56016D01*
X131621Y52113D01*
X131621Y47887D01*
X130004Y43984D01*
X127016Y40996D01*
X123113Y39379D01*
X118887Y39379D01*
G37*
%LPD*%
%LPC*%
G36*
X128651Y133217D02*
X128651Y133217D01*
X126158Y134250D01*
X124250Y136158D01*
X123217Y138651D01*
X123217Y141349D01*
X124250Y143842D01*
X126158Y145750D01*
X128651Y146783D01*
X131349Y146783D01*
X133842Y145750D01*
X135750Y143842D01*
X136577Y141846D01*
X136593Y141818D01*
X136603Y141788D01*
X136665Y141698D01*
X136720Y141604D01*
X136744Y141582D01*
X136762Y141555D01*
X136847Y141485D01*
X136926Y141411D01*
X136955Y141396D01*
X136980Y141376D01*
X137080Y141332D01*
X137178Y141283D01*
X137209Y141277D01*
X137239Y141264D01*
X137347Y141251D01*
X137455Y141230D01*
X137487Y141234D01*
X137519Y141230D01*
X137627Y141247D01*
X137735Y141258D01*
X137765Y141270D01*
X137797Y141275D01*
X137896Y141322D01*
X137997Y141362D01*
X138023Y141382D01*
X138052Y141396D01*
X138134Y141468D01*
X138220Y141536D01*
X138239Y141562D01*
X138263Y141583D01*
X138310Y141660D01*
X138385Y141764D01*
X138401Y141810D01*
X138423Y141846D01*
X139250Y143842D01*
X141158Y145750D01*
X143651Y146783D01*
X146349Y146783D01*
X148842Y145750D01*
X149293Y145299D01*
X149345Y145260D01*
X149390Y145214D01*
X149457Y145176D01*
X149519Y145130D01*
X149579Y145107D01*
X149635Y145075D01*
X149710Y145057D01*
X149783Y145030D01*
X149847Y145025D01*
X149909Y145010D01*
X149987Y145014D01*
X150064Y145008D01*
X150127Y145021D01*
X150191Y145025D01*
X150264Y145050D01*
X150340Y145066D01*
X150397Y145096D01*
X150458Y145117D01*
X150514Y145158D01*
X150589Y145198D01*
X150650Y145257D01*
X150707Y145299D01*
X151158Y145750D01*
X153651Y146783D01*
X156349Y146783D01*
X158842Y145750D01*
X160750Y143842D01*
X161783Y141349D01*
X161783Y138651D01*
X160750Y136158D01*
X158842Y134250D01*
X156349Y133217D01*
X153651Y133217D01*
X151158Y134250D01*
X150707Y134701D01*
X150655Y134740D01*
X150610Y134786D01*
X150543Y134824D01*
X150481Y134870D01*
X150421Y134893D01*
X150365Y134925D01*
X150290Y134943D01*
X150217Y134970D01*
X150153Y134975D01*
X150090Y134990D01*
X150013Y134986D01*
X149936Y134992D01*
X149873Y134979D01*
X149809Y134975D01*
X149736Y134950D01*
X149660Y134934D01*
X149603Y134904D01*
X149542Y134883D01*
X149486Y134842D01*
X149411Y134802D01*
X149350Y134743D01*
X149293Y134701D01*
X148842Y134250D01*
X146349Y133217D01*
X143651Y133217D01*
X141158Y134250D01*
X139250Y136158D01*
X138423Y138154D01*
X138407Y138181D01*
X138397Y138212D01*
X138335Y138303D01*
X138280Y138396D01*
X138256Y138418D01*
X138238Y138445D01*
X138154Y138515D01*
X138074Y138589D01*
X138045Y138604D01*
X138020Y138624D01*
X137920Y138668D01*
X137822Y138717D01*
X137791Y138723D01*
X137761Y138736D01*
X137653Y138749D01*
X137545Y138770D01*
X137513Y138766D01*
X137481Y138770D01*
X137373Y138753D01*
X137265Y138742D01*
X137235Y138730D01*
X137203Y138725D01*
X137104Y138678D01*
X137003Y138638D01*
X136977Y138618D01*
X136948Y138604D01*
X136866Y138532D01*
X136780Y138464D01*
X136761Y138438D01*
X136737Y138417D01*
X136690Y138340D01*
X136615Y138236D01*
X136599Y138190D01*
X136577Y138154D01*
X135750Y136158D01*
X133842Y134250D01*
X131349Y133217D01*
X128651Y133217D01*
G37*
%LPD*%
%LPC*%
G36*
X169687Y13979D02*
X169687Y13979D01*
X165784Y15596D01*
X162796Y18584D01*
X161179Y22487D01*
X161179Y26713D01*
X162796Y30616D01*
X165784Y33604D01*
X169687Y35221D01*
X173913Y35221D01*
X177816Y33604D01*
X180804Y30616D01*
X182421Y26713D01*
X182421Y22487D01*
X180804Y18584D01*
X177816Y15596D01*
X173913Y13979D01*
X169687Y13979D01*
G37*
%LPD*%
%LPC*%
G36*
X245887Y39379D02*
X245887Y39379D01*
X241984Y40996D01*
X238996Y43984D01*
X237379Y47887D01*
X237379Y52113D01*
X238996Y56016D01*
X241984Y59004D01*
X245887Y60621D01*
X250113Y60621D01*
X254016Y59004D01*
X257004Y56016D01*
X258621Y52113D01*
X258621Y47887D01*
X257004Y43984D01*
X254016Y40996D01*
X250113Y39379D01*
X245887Y39379D01*
G37*
%LPD*%
%LPC*%
G36*
X195087Y39379D02*
X195087Y39379D01*
X191184Y40996D01*
X188196Y43984D01*
X186579Y47887D01*
X186579Y52113D01*
X188196Y56016D01*
X191184Y59004D01*
X195087Y60621D01*
X199313Y60621D01*
X203216Y59004D01*
X206204Y56016D01*
X207821Y52113D01*
X207821Y47887D01*
X206204Y43984D01*
X203216Y40996D01*
X199313Y39379D01*
X195087Y39379D01*
G37*
%LPD*%
%LPC*%
G36*
X195087Y13979D02*
X195087Y13979D01*
X191184Y15596D01*
X188196Y18584D01*
X186579Y22487D01*
X186579Y26713D01*
X188196Y30616D01*
X191184Y33604D01*
X195087Y35221D01*
X199313Y35221D01*
X203216Y33604D01*
X206204Y30616D01*
X207821Y26713D01*
X207821Y22487D01*
X206204Y18584D01*
X203216Y15596D01*
X199313Y13979D01*
X195087Y13979D01*
G37*
%LPD*%
%LPC*%
G36*
X220487Y13979D02*
X220487Y13979D01*
X216584Y15596D01*
X213596Y18584D01*
X211979Y22487D01*
X211979Y26713D01*
X213596Y30616D01*
X216584Y33604D01*
X220487Y35221D01*
X224713Y35221D01*
X228616Y33604D01*
X231604Y30616D01*
X233221Y26713D01*
X233221Y22487D01*
X231604Y18584D01*
X228616Y15596D01*
X224713Y13979D01*
X220487Y13979D01*
G37*
%LPD*%
%LPC*%
G36*
X118887Y13979D02*
X118887Y13979D01*
X114984Y15596D01*
X111996Y18584D01*
X110379Y22487D01*
X110379Y26713D01*
X111996Y30616D01*
X114984Y33604D01*
X118887Y35221D01*
X123113Y35221D01*
X127016Y33604D01*
X130004Y30616D01*
X131621Y26713D01*
X131621Y22487D01*
X130004Y18584D01*
X127016Y15596D01*
X123113Y13979D01*
X118887Y13979D01*
G37*
%LPD*%
%LPC*%
G36*
X144287Y39379D02*
X144287Y39379D01*
X140384Y40996D01*
X137396Y43984D01*
X135779Y47887D01*
X135779Y52113D01*
X137396Y56016D01*
X140384Y59004D01*
X144287Y60621D01*
X148513Y60621D01*
X152416Y59004D01*
X155404Y56016D01*
X157021Y52113D01*
X157021Y47887D01*
X155404Y43984D01*
X152416Y40996D01*
X148513Y39379D01*
X144287Y39379D01*
G37*
%LPD*%
%LPC*%
G36*
X169687Y39379D02*
X169687Y39379D01*
X165784Y40996D01*
X162796Y43984D01*
X161179Y47887D01*
X161179Y52113D01*
X162796Y56016D01*
X165784Y59004D01*
X169687Y60621D01*
X173913Y60621D01*
X177816Y59004D01*
X180804Y56016D01*
X182421Y52113D01*
X182421Y47887D01*
X180804Y43984D01*
X177816Y40996D01*
X173913Y39379D01*
X169687Y39379D01*
G37*
%LPD*%
%LPC*%
G36*
X144287Y13979D02*
X144287Y13979D01*
X140384Y15596D01*
X137396Y18584D01*
X135779Y22487D01*
X135779Y26713D01*
X137396Y30616D01*
X140384Y33604D01*
X144287Y35221D01*
X148513Y35221D01*
X152416Y33604D01*
X155404Y30616D01*
X157021Y26713D01*
X157021Y22487D01*
X155404Y18584D01*
X152416Y15596D01*
X148513Y13979D01*
X144287Y13979D01*
G37*
%LPD*%
%LPC*%
G36*
X293403Y186859D02*
X293403Y186859D01*
X289529Y188464D01*
X286564Y191429D01*
X284959Y195303D01*
X284959Y199497D01*
X286564Y203371D01*
X289529Y206336D01*
X293403Y207941D01*
X297597Y207941D01*
X301471Y206336D01*
X304436Y203371D01*
X306041Y199497D01*
X306041Y195303D01*
X304436Y191429D01*
X301471Y188464D01*
X297597Y186859D01*
X293403Y186859D01*
G37*
%LPD*%
%LPC*%
G36*
X293403Y136059D02*
X293403Y136059D01*
X289529Y137664D01*
X286564Y140629D01*
X284959Y144503D01*
X284959Y148697D01*
X286564Y152571D01*
X289529Y155536D01*
X293403Y157141D01*
X297597Y157141D01*
X301471Y155536D01*
X304436Y152571D01*
X306041Y148697D01*
X306041Y144503D01*
X304436Y140629D01*
X301471Y137664D01*
X297597Y136059D01*
X293403Y136059D01*
G37*
%LPD*%
%LPC*%
G36*
X223651Y213217D02*
X223651Y213217D01*
X221158Y214250D01*
X219250Y216158D01*
X218217Y218651D01*
X218217Y221349D01*
X219250Y223842D01*
X221158Y225750D01*
X223651Y226783D01*
X226349Y226783D01*
X228842Y225750D01*
X230750Y223842D01*
X231577Y221846D01*
X231593Y221818D01*
X231603Y221788D01*
X231665Y221698D01*
X231720Y221604D01*
X231744Y221582D01*
X231762Y221555D01*
X231847Y221485D01*
X231926Y221411D01*
X231955Y221396D01*
X231980Y221376D01*
X232080Y221332D01*
X232178Y221283D01*
X232209Y221277D01*
X232239Y221264D01*
X232347Y221251D01*
X232455Y221230D01*
X232487Y221234D01*
X232519Y221230D01*
X232627Y221247D01*
X232735Y221258D01*
X232765Y221270D01*
X232797Y221275D01*
X232896Y221322D01*
X232997Y221362D01*
X233023Y221382D01*
X233052Y221396D01*
X233134Y221468D01*
X233220Y221536D01*
X233239Y221562D01*
X233263Y221583D01*
X233310Y221660D01*
X233385Y221764D01*
X233401Y221810D01*
X233423Y221846D01*
X234250Y223842D01*
X236158Y225750D01*
X238651Y226783D01*
X241349Y226783D01*
X243842Y225750D01*
X245750Y223842D01*
X246783Y221349D01*
X246783Y218651D01*
X245750Y216158D01*
X243842Y214250D01*
X241349Y213217D01*
X238651Y213217D01*
X236158Y214250D01*
X234250Y216158D01*
X233423Y218154D01*
X233419Y218160D01*
X233417Y218167D01*
X233405Y218188D01*
X233397Y218212D01*
X233335Y218303D01*
X233280Y218396D01*
X233271Y218405D01*
X233269Y218407D01*
X233255Y218420D01*
X233238Y218445D01*
X233154Y218515D01*
X233074Y218589D01*
X233045Y218604D01*
X233020Y218624D01*
X232920Y218668D01*
X232822Y218717D01*
X232791Y218723D01*
X232761Y218736D01*
X232653Y218749D01*
X232545Y218770D01*
X232513Y218766D01*
X232481Y218770D01*
X232373Y218753D01*
X232265Y218742D01*
X232235Y218730D01*
X232203Y218725D01*
X232104Y218678D01*
X232003Y218638D01*
X231977Y218618D01*
X231948Y218604D01*
X231866Y218532D01*
X231780Y218464D01*
X231762Y218440D01*
X231748Y218427D01*
X231747Y218425D01*
X231737Y218417D01*
X231690Y218340D01*
X231615Y218236D01*
X231607Y218211D01*
X231594Y218191D01*
X231587Y218171D01*
X231577Y218154D01*
X230750Y216158D01*
X228842Y214250D01*
X226349Y213217D01*
X223651Y213217D01*
G37*
%LPD*%
%LPC*%
G36*
X49090Y234433D02*
X49090Y234433D01*
X45559Y235896D01*
X42858Y238597D01*
X41395Y242127D01*
X41395Y245948D01*
X42858Y249479D01*
X45559Y252180D01*
X49090Y253643D01*
X52910Y253643D01*
X56441Y252180D01*
X59142Y249479D01*
X60605Y245948D01*
X60605Y242127D01*
X59142Y238597D01*
X56441Y235896D01*
X52910Y234433D01*
X49090Y234433D01*
G37*
%LPD*%
%LPC*%
G36*
X49090Y209287D02*
X49090Y209287D01*
X45559Y210750D01*
X42858Y213451D01*
X41395Y216981D01*
X41395Y220802D01*
X42858Y224333D01*
X45559Y227034D01*
X49090Y228497D01*
X52910Y228497D01*
X56441Y227034D01*
X59142Y224333D01*
X60605Y220802D01*
X60605Y216981D01*
X59142Y213451D01*
X56441Y210750D01*
X52910Y209287D01*
X49090Y209287D01*
G37*
%LPD*%
%LPC*%
G36*
X49090Y184395D02*
X49090Y184395D01*
X45559Y185858D01*
X42858Y188559D01*
X41395Y192089D01*
X41395Y195910D01*
X42858Y199441D01*
X45559Y202142D01*
X49090Y203605D01*
X52910Y203605D01*
X56441Y202142D01*
X59142Y199441D01*
X60605Y195910D01*
X60605Y192089D01*
X59142Y188559D01*
X56441Y185858D01*
X52910Y184395D01*
X49090Y184395D01*
G37*
%LPD*%
%LPC*%
G36*
X99973Y123217D02*
X99973Y123217D01*
X97480Y124250D01*
X95572Y126158D01*
X94539Y128651D01*
X94539Y131349D01*
X94741Y131836D01*
X94770Y131950D01*
X94805Y132064D01*
X94805Y132087D01*
X94811Y132109D01*
X94807Y132227D01*
X94809Y132346D01*
X94803Y132368D01*
X94802Y132391D01*
X94765Y132503D01*
X94733Y132618D01*
X94721Y132637D01*
X94714Y132659D01*
X94648Y132757D01*
X94585Y132858D01*
X94568Y132873D01*
X94555Y132892D01*
X94464Y132967D01*
X94376Y133047D01*
X94355Y133057D01*
X94338Y133071D01*
X94229Y133118D01*
X94122Y133170D01*
X94101Y133173D01*
X94079Y133183D01*
X93894Y133205D01*
X93818Y133217D01*
X93651Y133217D01*
X91158Y134250D01*
X89250Y136158D01*
X88217Y138651D01*
X88217Y141349D01*
X89250Y143842D01*
X91158Y145750D01*
X93651Y146783D01*
X96349Y146783D01*
X98842Y145750D01*
X100750Y143842D01*
X101783Y141349D01*
X101783Y138651D01*
X101581Y138164D01*
X101552Y138050D01*
X101517Y137936D01*
X101517Y137913D01*
X101511Y137891D01*
X101515Y137773D01*
X101513Y137654D01*
X101519Y137632D01*
X101520Y137609D01*
X101557Y137497D01*
X101589Y137382D01*
X101601Y137363D01*
X101608Y137341D01*
X101674Y137243D01*
X101737Y137142D01*
X101754Y137127D01*
X101767Y137108D01*
X101858Y137033D01*
X101946Y136953D01*
X101967Y136943D01*
X101984Y136929D01*
X102093Y136882D01*
X102200Y136830D01*
X102221Y136827D01*
X102243Y136817D01*
X102428Y136795D01*
X102504Y136783D01*
X102671Y136783D01*
X105164Y135750D01*
X107072Y133842D01*
X108105Y131349D01*
X108105Y128651D01*
X107072Y126158D01*
X105164Y124250D01*
X102671Y123217D01*
X99973Y123217D01*
G37*
%LPD*%
%LPC*%
G36*
X228651Y63217D02*
X228651Y63217D01*
X226158Y64250D01*
X224250Y66158D01*
X223217Y68651D01*
X223217Y71349D01*
X224250Y73842D01*
X226158Y75750D01*
X228651Y76783D01*
X231349Y76783D01*
X233842Y75750D01*
X235750Y73842D01*
X236783Y71349D01*
X236783Y68651D01*
X235750Y66158D01*
X233842Y64250D01*
X231349Y63217D01*
X228651Y63217D01*
G37*
%LPD*%
%LPC*%
G36*
X183651Y73217D02*
X183651Y73217D01*
X181158Y74250D01*
X179250Y76158D01*
X178217Y78651D01*
X178217Y81349D01*
X179250Y83842D01*
X181158Y85750D01*
X183651Y86783D01*
X186349Y86783D01*
X188842Y85750D01*
X190750Y83842D01*
X191783Y81349D01*
X191783Y78651D01*
X190750Y76158D01*
X188842Y74250D01*
X186349Y73217D01*
X183651Y73217D01*
G37*
%LPD*%
%LPC*%
G36*
X143651Y73217D02*
X143651Y73217D01*
X141158Y74250D01*
X139250Y76158D01*
X138217Y78651D01*
X138217Y81349D01*
X139250Y83842D01*
X141158Y85750D01*
X143651Y86783D01*
X146349Y86783D01*
X148842Y85750D01*
X150750Y83842D01*
X151783Y81349D01*
X151783Y78651D01*
X150750Y76158D01*
X148842Y74250D01*
X146349Y73217D01*
X143651Y73217D01*
G37*
%LPD*%
%LPC*%
G36*
X198651Y123217D02*
X198651Y123217D01*
X196158Y124250D01*
X194250Y126158D01*
X193217Y128651D01*
X193217Y131349D01*
X194250Y133842D01*
X196158Y135750D01*
X198651Y136783D01*
X201349Y136783D01*
X203842Y135750D01*
X205750Y133842D01*
X206783Y131349D01*
X206783Y128651D01*
X205750Y126158D01*
X203842Y124250D01*
X201349Y123217D01*
X198651Y123217D01*
G37*
%LPD*%
%LPC*%
G36*
X113651Y148217D02*
X113651Y148217D01*
X111158Y149250D01*
X109250Y151158D01*
X108217Y153651D01*
X108217Y156349D01*
X109250Y158842D01*
X111158Y160750D01*
X113651Y161783D01*
X116349Y161783D01*
X118842Y160750D01*
X120750Y158842D01*
X121783Y156349D01*
X121783Y153651D01*
X120750Y151158D01*
X118842Y149250D01*
X116349Y148217D01*
X113651Y148217D01*
G37*
%LPD*%
%LPC*%
G36*
X173651Y158217D02*
X173651Y158217D01*
X171158Y159250D01*
X169250Y161158D01*
X168217Y163651D01*
X168217Y166349D01*
X169250Y168842D01*
X171158Y170750D01*
X173651Y171783D01*
X176349Y171783D01*
X178842Y170750D01*
X180750Y168842D01*
X181783Y166349D01*
X181783Y163651D01*
X180750Y161158D01*
X178842Y159250D01*
X176349Y158217D01*
X173651Y158217D01*
G37*
%LPD*%
%LPC*%
G36*
X193651Y158217D02*
X193651Y158217D01*
X191158Y159250D01*
X189250Y161158D01*
X188217Y163651D01*
X188217Y166349D01*
X189250Y168842D01*
X191158Y170750D01*
X193651Y171783D01*
X196349Y171783D01*
X198842Y170750D01*
X200750Y168842D01*
X201783Y166349D01*
X201783Y163651D01*
X200750Y161158D01*
X198842Y159250D01*
X196349Y158217D01*
X193651Y158217D01*
G37*
%LPD*%
%LPC*%
G36*
X170951Y83217D02*
X170951Y83217D01*
X168458Y84250D01*
X166550Y86158D01*
X165517Y88651D01*
X165517Y91349D01*
X166550Y93842D01*
X168458Y95750D01*
X170951Y96783D01*
X173649Y96783D01*
X176142Y95750D01*
X178050Y93842D01*
X179083Y91349D01*
X179083Y88651D01*
X178050Y86158D01*
X176142Y84250D01*
X173649Y83217D01*
X170951Y83217D01*
G37*
%LPD*%
D10*
X51000Y194000D03*
X51000Y218892D03*
X51000Y244038D03*
D11*
X295500Y146600D03*
X295500Y172000D03*
X295500Y197400D03*
D12*
X75000Y150000D03*
X20000Y150000D03*
X110000Y75000D03*
X20000Y110000D03*
D13*
X248000Y50000D03*
X248000Y24600D03*
X222600Y50000D03*
X222600Y24600D03*
X197200Y50000D03*
X197200Y24600D03*
X171800Y50000D03*
X171800Y24600D03*
X146400Y50000D03*
X146400Y24600D03*
X121000Y50000D03*
X121000Y24600D03*
X101000Y280000D03*
X101000Y305400D03*
X126400Y280000D03*
X126400Y305400D03*
X151800Y280000D03*
X151800Y305400D03*
X177200Y280000D03*
X177200Y305400D03*
X202600Y280000D03*
X202600Y305400D03*
X228000Y280000D03*
X228000Y305400D03*
D14*
X145000Y140000D03*
X200000Y130000D03*
X215000Y155000D03*
X190000Y195000D03*
X150000Y195000D03*
X15000Y290000D03*
X225000Y101000D03*
X231306Y200000D03*
X251306Y200000D03*
X211306Y200000D03*
X225000Y220000D03*
X172300Y90000D03*
X195000Y165000D03*
X155000Y140000D03*
X101322Y130000D03*
X130000Y140000D03*
X95000Y140000D03*
X115000Y155000D03*
X175000Y165000D03*
X185000Y80000D03*
X145000Y80000D03*
X230000Y70000D03*
X240000Y220000D03*
M02*
