G04 EAGLE Gerber RS-274X export*
G75*
%MOMM*%
%FSLAX34Y34*%
%LPD*%
%INTop Copper*%
%IPPOS*%
%AMOC8*
5,1,8,0,0,1.08239X$1,22.5*%
G01*
%ADD10R,1.000000X1.100000*%
%ADD11R,1.100000X1.000000*%
%ADD12C,1.320800*%
%ADD13R,1.508000X1.508000*%
%ADD14C,1.508000*%
%ADD15R,1.600000X1.800000*%
%ADD16R,1.800000X1.600000*%
%ADD17R,1.803000X1.600000*%
%ADD18R,1.400000X1.000000*%
%ADD19R,2.540000X2.540000*%
%ADD20R,1.600000X1.803000*%
%ADD21R,1.500000X1.500000*%
%ADD22C,2.760000*%
%ADD23C,1.879600*%
%ADD24R,1.600200X1.168400*%
%ADD25C,0.203200*%
%ADD26C,0.756400*%
%ADD27C,0.200000*%

G36*
X116683Y10935D02*
X116683Y10935D01*
X116770Y10938D01*
X116822Y10955D01*
X116876Y10963D01*
X116955Y10998D01*
X117038Y11025D01*
X117083Y11056D01*
X117133Y11079D01*
X117199Y11135D01*
X117271Y11184D01*
X117306Y11226D01*
X117347Y11262D01*
X117395Y11335D01*
X117450Y11402D01*
X117472Y11452D01*
X117502Y11498D01*
X117527Y11581D01*
X117561Y11661D01*
X117568Y11715D01*
X117584Y11768D01*
X117585Y11855D01*
X117596Y11941D01*
X117587Y11995D01*
X117588Y12050D01*
X117565Y12134D01*
X117551Y12219D01*
X117527Y12269D01*
X117513Y12322D01*
X117467Y12396D01*
X117430Y12474D01*
X117393Y12515D01*
X117365Y12562D01*
X117300Y12620D01*
X117242Y12685D01*
X117199Y12711D01*
X117155Y12751D01*
X117053Y12800D01*
X116979Y12845D01*
X113977Y14089D01*
X110489Y17577D01*
X108601Y22134D01*
X108601Y27066D01*
X110489Y31623D01*
X113977Y35111D01*
X117032Y36377D01*
X117060Y36393D01*
X117091Y36403D01*
X117181Y36465D01*
X117275Y36520D01*
X117297Y36544D01*
X117324Y36562D01*
X117393Y36647D01*
X117468Y36726D01*
X117483Y36755D01*
X117503Y36780D01*
X117546Y36880D01*
X117596Y36978D01*
X117602Y37009D01*
X117614Y37039D01*
X117628Y37147D01*
X117648Y37255D01*
X117645Y37287D01*
X117649Y37319D01*
X117632Y37427D01*
X117621Y37535D01*
X117609Y37565D01*
X117604Y37597D01*
X117557Y37696D01*
X117517Y37797D01*
X117497Y37823D01*
X117483Y37852D01*
X117410Y37934D01*
X117343Y38020D01*
X117317Y38039D01*
X117296Y38063D01*
X117218Y38110D01*
X117114Y38185D01*
X117069Y38201D01*
X117032Y38223D01*
X113977Y39489D01*
X110489Y42977D01*
X108601Y47534D01*
X108601Y52466D01*
X110404Y56818D01*
X110433Y56932D01*
X110468Y57046D01*
X110468Y57069D01*
X110474Y57091D01*
X110470Y57209D01*
X110472Y57328D01*
X110465Y57350D01*
X110465Y57373D01*
X110428Y57485D01*
X110396Y57600D01*
X110384Y57619D01*
X110377Y57641D01*
X110311Y57739D01*
X110248Y57840D01*
X110231Y57855D01*
X110218Y57874D01*
X110127Y57949D01*
X110039Y58029D01*
X110018Y58039D01*
X110001Y58053D01*
X109892Y58100D01*
X109785Y58152D01*
X109764Y58155D01*
X109742Y58165D01*
X109557Y58187D01*
X109480Y58199D01*
X106658Y58199D01*
X100483Y60757D01*
X95757Y65483D01*
X93656Y70556D01*
X93634Y70592D01*
X93621Y70631D01*
X93570Y70701D01*
X93512Y70799D01*
X93469Y70839D01*
X93439Y70880D01*
X90983Y73336D01*
X90983Y134011D01*
X90970Y134106D01*
X90965Y134202D01*
X90950Y134245D01*
X90943Y134290D01*
X90904Y134377D01*
X90872Y134468D01*
X90847Y134503D01*
X90827Y134547D01*
X90744Y134644D01*
X90691Y134717D01*
X89250Y136158D01*
X88217Y138651D01*
X88217Y141349D01*
X89250Y143842D01*
X90691Y145283D01*
X90748Y145360D01*
X90813Y145431D01*
X90833Y145472D01*
X90860Y145508D01*
X90894Y145598D01*
X90936Y145685D01*
X90942Y145727D01*
X90959Y145772D01*
X90969Y145900D01*
X90983Y145989D01*
X90983Y172538D01*
X90974Y172602D01*
X90975Y172666D01*
X90954Y172741D01*
X90943Y172817D01*
X90917Y172876D01*
X90900Y172938D01*
X90859Y173004D01*
X90827Y173074D01*
X90785Y173123D01*
X90752Y173178D01*
X90694Y173230D01*
X90644Y173288D01*
X90590Y173324D01*
X90542Y173367D01*
X90473Y173400D01*
X90408Y173443D01*
X90346Y173462D01*
X90289Y173490D01*
X90219Y173501D01*
X90138Y173525D01*
X90053Y173526D01*
X89984Y173537D01*
X85756Y173537D01*
X83998Y175295D01*
X83998Y189525D01*
X84019Y189579D01*
X84050Y189635D01*
X84068Y189710D01*
X84096Y189783D01*
X84100Y189847D01*
X84115Y189909D01*
X84111Y189987D01*
X84117Y190064D01*
X84104Y190127D01*
X84101Y190191D01*
X84076Y190264D01*
X84060Y190340D01*
X84030Y190397D01*
X84008Y190458D01*
X83998Y190472D01*
X83998Y192604D01*
X83989Y192668D01*
X83990Y192732D01*
X83969Y192807D01*
X83958Y192883D01*
X83932Y192942D01*
X83915Y193004D01*
X83874Y193070D01*
X83842Y193140D01*
X83800Y193189D01*
X83767Y193244D01*
X83709Y193296D01*
X83659Y193354D01*
X83605Y193390D01*
X83557Y193433D01*
X83488Y193466D01*
X83423Y193509D01*
X83361Y193528D01*
X83304Y193556D01*
X83234Y193567D01*
X83153Y193591D01*
X83068Y193592D01*
X82999Y193603D01*
X69216Y193603D01*
X66863Y195956D01*
X66863Y275500D01*
X66854Y275564D01*
X66855Y275628D01*
X66834Y275703D01*
X66823Y275779D01*
X66797Y275838D01*
X66780Y275900D01*
X66739Y275966D01*
X66707Y276036D01*
X66665Y276085D01*
X66632Y276140D01*
X66574Y276192D01*
X66524Y276250D01*
X66470Y276286D01*
X66422Y276329D01*
X66353Y276362D01*
X66288Y276405D01*
X66226Y276424D01*
X66169Y276452D01*
X66099Y276463D01*
X66018Y276487D01*
X65933Y276488D01*
X65864Y276499D01*
X62257Y276499D01*
X60707Y278050D01*
X60655Y278088D01*
X60610Y278134D01*
X60543Y278173D01*
X60481Y278219D01*
X60421Y278242D01*
X60365Y278273D01*
X60290Y278291D01*
X60217Y278319D01*
X60153Y278324D01*
X60091Y278338D01*
X60013Y278334D01*
X59936Y278340D01*
X59873Y278327D01*
X59809Y278324D01*
X59736Y278299D01*
X59660Y278283D01*
X59603Y278253D01*
X59542Y278231D01*
X59486Y278190D01*
X59411Y278150D01*
X59350Y278091D01*
X59293Y278050D01*
X57743Y276499D01*
X56516Y276499D01*
X56452Y276490D01*
X56388Y276491D01*
X56313Y276470D01*
X56237Y276459D01*
X56178Y276433D01*
X56116Y276416D01*
X56050Y276375D01*
X55980Y276343D01*
X55931Y276301D01*
X55876Y276268D01*
X55824Y276210D01*
X55766Y276160D01*
X55730Y276106D01*
X55687Y276058D01*
X55654Y275989D01*
X55611Y275924D01*
X55592Y275862D01*
X55564Y275805D01*
X55553Y275735D01*
X55529Y275654D01*
X55528Y275569D01*
X55517Y275500D01*
X55517Y253231D01*
X55518Y253221D01*
X55517Y253212D01*
X55538Y253082D01*
X55557Y252952D01*
X55560Y252943D01*
X55562Y252934D01*
X55619Y252815D01*
X55673Y252695D01*
X55679Y252688D01*
X55683Y252679D01*
X55771Y252580D01*
X55856Y252480D01*
X55864Y252475D01*
X55870Y252468D01*
X55936Y252428D01*
X56092Y252326D01*
X56115Y252319D01*
X56134Y252308D01*
X56441Y252180D01*
X59142Y249479D01*
X60605Y245948D01*
X60605Y242127D01*
X59142Y238597D01*
X56441Y235896D01*
X52910Y234433D01*
X49090Y234433D01*
X45559Y235896D01*
X42858Y238597D01*
X41395Y242127D01*
X41395Y245948D01*
X42858Y249479D01*
X45559Y252181D01*
X46866Y252722D01*
X46874Y252727D01*
X46884Y252729D01*
X46997Y252799D01*
X47109Y252866D01*
X47116Y252872D01*
X47124Y252877D01*
X47212Y252975D01*
X47302Y253071D01*
X47306Y253080D01*
X47313Y253087D01*
X47370Y253205D01*
X47430Y253323D01*
X47432Y253332D01*
X47436Y253340D01*
X47448Y253416D01*
X47482Y253600D01*
X47480Y253624D01*
X47483Y253645D01*
X47483Y275500D01*
X47474Y275564D01*
X47475Y275628D01*
X47454Y275703D01*
X47443Y275779D01*
X47417Y275838D01*
X47400Y275900D01*
X47359Y275966D01*
X47327Y276036D01*
X47285Y276085D01*
X47252Y276140D01*
X47194Y276192D01*
X47144Y276250D01*
X47090Y276286D01*
X47042Y276329D01*
X46973Y276362D01*
X46908Y276405D01*
X46846Y276424D01*
X46789Y276452D01*
X46719Y276463D01*
X46638Y276487D01*
X46553Y276488D01*
X46484Y276499D01*
X45257Y276499D01*
X43499Y278257D01*
X43499Y291743D01*
X45257Y293501D01*
X57743Y293501D01*
X59293Y291950D01*
X59345Y291912D01*
X59390Y291866D01*
X59457Y291827D01*
X59519Y291781D01*
X59579Y291758D01*
X59635Y291727D01*
X59710Y291709D01*
X59783Y291681D01*
X59847Y291676D01*
X59910Y291662D01*
X59987Y291666D01*
X60064Y291660D01*
X60127Y291673D01*
X60191Y291676D01*
X60264Y291701D01*
X60340Y291717D01*
X60397Y291747D01*
X60458Y291769D01*
X60514Y291810D01*
X60589Y291850D01*
X60650Y291909D01*
X60707Y291950D01*
X62257Y293501D01*
X63484Y293501D01*
X63548Y293510D01*
X63612Y293509D01*
X63687Y293530D01*
X63763Y293541D01*
X63822Y293567D01*
X63884Y293584D01*
X63950Y293625D01*
X64020Y293657D01*
X64069Y293699D01*
X64124Y293732D01*
X64176Y293790D01*
X64234Y293840D01*
X64270Y293894D01*
X64313Y293942D01*
X64346Y294011D01*
X64389Y294076D01*
X64408Y294138D01*
X64436Y294195D01*
X64447Y294265D01*
X64471Y294346D01*
X64472Y294431D01*
X64483Y294500D01*
X64483Y300500D01*
X64474Y300564D01*
X64475Y300628D01*
X64454Y300703D01*
X64443Y300779D01*
X64417Y300838D01*
X64400Y300900D01*
X64359Y300966D01*
X64327Y301036D01*
X64285Y301085D01*
X64252Y301140D01*
X64194Y301192D01*
X64144Y301250D01*
X64090Y301286D01*
X64042Y301329D01*
X63973Y301362D01*
X63908Y301405D01*
X63846Y301424D01*
X63789Y301452D01*
X63719Y301463D01*
X63638Y301487D01*
X63553Y301488D01*
X63484Y301499D01*
X62257Y301499D01*
X60707Y303050D01*
X60655Y303088D01*
X60610Y303134D01*
X60543Y303173D01*
X60481Y303219D01*
X60421Y303242D01*
X60365Y303273D01*
X60290Y303291D01*
X60217Y303319D01*
X60153Y303324D01*
X60091Y303338D01*
X60013Y303334D01*
X59936Y303340D01*
X59873Y303327D01*
X59809Y303324D01*
X59736Y303299D01*
X59660Y303283D01*
X59603Y303253D01*
X59542Y303231D01*
X59486Y303190D01*
X59411Y303150D01*
X59350Y303091D01*
X59293Y303050D01*
X57743Y301499D01*
X45257Y301499D01*
X43499Y303257D01*
X43499Y304984D01*
X43490Y305048D01*
X43491Y305112D01*
X43470Y305187D01*
X43459Y305263D01*
X43433Y305322D01*
X43416Y305384D01*
X43375Y305450D01*
X43343Y305520D01*
X43301Y305569D01*
X43268Y305624D01*
X43210Y305676D01*
X43160Y305734D01*
X43106Y305770D01*
X43058Y305813D01*
X42989Y305846D01*
X42924Y305889D01*
X42862Y305908D01*
X42805Y305936D01*
X42735Y305947D01*
X42654Y305971D01*
X42569Y305972D01*
X42500Y305983D01*
X42436Y305974D01*
X42372Y305975D01*
X42297Y305954D01*
X42221Y305943D01*
X42162Y305917D01*
X42100Y305900D01*
X42034Y305859D01*
X41964Y305827D01*
X41915Y305785D01*
X41860Y305752D01*
X41808Y305694D01*
X41750Y305644D01*
X41714Y305590D01*
X41671Y305542D01*
X41638Y305473D01*
X41595Y305408D01*
X41576Y305346D01*
X41548Y305289D01*
X41537Y305219D01*
X41513Y305138D01*
X41512Y305053D01*
X41501Y304984D01*
X41501Y303257D01*
X39743Y301499D01*
X33094Y301499D01*
X33062Y301495D01*
X33030Y301497D01*
X32923Y301475D01*
X32814Y301459D01*
X32785Y301446D01*
X32753Y301440D01*
X32657Y301388D01*
X32557Y301343D01*
X32533Y301322D01*
X32505Y301307D01*
X32426Y301231D01*
X32343Y301160D01*
X32326Y301133D01*
X32302Y301110D01*
X32249Y301015D01*
X32189Y300924D01*
X32179Y300893D01*
X32163Y300865D01*
X32138Y300758D01*
X32106Y300654D01*
X32106Y300622D01*
X32098Y300591D01*
X32104Y300481D01*
X32103Y300372D01*
X32111Y300341D01*
X32113Y300309D01*
X32149Y300206D01*
X32178Y300100D01*
X32195Y300073D01*
X32205Y300042D01*
X32259Y299969D01*
X32326Y299860D01*
X32362Y299828D01*
X32387Y299793D01*
X37517Y294664D01*
X37517Y294500D01*
X37526Y294436D01*
X37525Y294372D01*
X37546Y294297D01*
X37557Y294221D01*
X37583Y294162D01*
X37600Y294100D01*
X37641Y294034D01*
X37673Y293964D01*
X37715Y293915D01*
X37748Y293860D01*
X37806Y293808D01*
X37856Y293750D01*
X37910Y293714D01*
X37958Y293671D01*
X38027Y293638D01*
X38092Y293595D01*
X38154Y293576D01*
X38211Y293548D01*
X38281Y293537D01*
X38362Y293513D01*
X38447Y293512D01*
X38516Y293501D01*
X39743Y293501D01*
X41501Y291743D01*
X41501Y278257D01*
X39743Y276499D01*
X27257Y276499D01*
X25499Y278257D01*
X25499Y291743D01*
X26581Y292825D01*
X26620Y292876D01*
X26666Y292921D01*
X26704Y292989D01*
X26751Y293051D01*
X26773Y293111D01*
X26805Y293167D01*
X26823Y293242D01*
X26850Y293314D01*
X26855Y293378D01*
X26870Y293441D01*
X26866Y293519D01*
X26872Y293596D01*
X26859Y293658D01*
X26856Y293723D01*
X26830Y293796D01*
X26814Y293872D01*
X26784Y293929D01*
X26763Y293989D01*
X26722Y294046D01*
X26682Y294121D01*
X26623Y294182D01*
X26581Y294238D01*
X19613Y301207D01*
X19536Y301264D01*
X19465Y301329D01*
X19424Y301349D01*
X19387Y301376D01*
X19297Y301410D01*
X19211Y301452D01*
X19169Y301458D01*
X19123Y301475D01*
X18996Y301485D01*
X18906Y301499D01*
X11922Y301499D01*
X11858Y301490D01*
X11794Y301491D01*
X11719Y301470D01*
X11643Y301459D01*
X11584Y301433D01*
X11522Y301416D01*
X11456Y301375D01*
X11386Y301343D01*
X11337Y301301D01*
X11282Y301268D01*
X11230Y301210D01*
X11172Y301160D01*
X11136Y301106D01*
X11093Y301058D01*
X11060Y300989D01*
X11017Y300924D01*
X10998Y300862D01*
X10970Y300805D01*
X10959Y300735D01*
X10935Y300654D01*
X10934Y300569D01*
X10923Y300500D01*
X10923Y165921D01*
X10939Y165803D01*
X10951Y165685D01*
X10959Y165664D01*
X10963Y165641D01*
X11011Y165533D01*
X11055Y165423D01*
X11069Y165405D01*
X11079Y165384D01*
X11156Y165294D01*
X11229Y165201D01*
X11247Y165187D01*
X11262Y165170D01*
X11361Y165105D01*
X11458Y165036D01*
X11479Y165028D01*
X11498Y165016D01*
X11612Y164981D01*
X11723Y164941D01*
X11746Y164940D01*
X11768Y164933D01*
X11886Y164932D01*
X12005Y164925D01*
X12026Y164930D01*
X12050Y164930D01*
X12229Y164979D01*
X12304Y164997D01*
X16658Y166801D01*
X23342Y166801D01*
X29517Y164243D01*
X34243Y159517D01*
X36801Y153342D01*
X36801Y146658D01*
X34243Y140483D01*
X29517Y135757D01*
X23342Y133199D01*
X16658Y133199D01*
X12304Y135003D01*
X12190Y135032D01*
X12076Y135067D01*
X12053Y135067D01*
X12031Y135073D01*
X11913Y135069D01*
X11794Y135070D01*
X11772Y135064D01*
X11749Y135064D01*
X11637Y135027D01*
X11522Y134995D01*
X11503Y134983D01*
X11481Y134976D01*
X11383Y134909D01*
X11282Y134847D01*
X11267Y134830D01*
X11248Y134817D01*
X11173Y134726D01*
X11093Y134638D01*
X11083Y134617D01*
X11069Y134600D01*
X11022Y134490D01*
X10970Y134384D01*
X10967Y134363D01*
X10957Y134341D01*
X10935Y134156D01*
X10923Y134079D01*
X10923Y125921D01*
X10939Y125803D01*
X10951Y125685D01*
X10959Y125664D01*
X10963Y125641D01*
X11011Y125533D01*
X11055Y125423D01*
X11069Y125405D01*
X11079Y125384D01*
X11156Y125294D01*
X11229Y125201D01*
X11247Y125187D01*
X11262Y125170D01*
X11361Y125105D01*
X11458Y125036D01*
X11479Y125028D01*
X11498Y125016D01*
X11612Y124981D01*
X11723Y124941D01*
X11746Y124940D01*
X11768Y124933D01*
X11886Y124932D01*
X12005Y124925D01*
X12026Y124930D01*
X12050Y124930D01*
X12229Y124979D01*
X12304Y124997D01*
X16658Y126801D01*
X23342Y126801D01*
X29517Y124243D01*
X34243Y119517D01*
X36801Y113342D01*
X36801Y106658D01*
X34243Y100483D01*
X29517Y95757D01*
X23342Y93199D01*
X16658Y93199D01*
X12304Y95003D01*
X12190Y95032D01*
X12076Y95067D01*
X12053Y95067D01*
X12031Y95073D01*
X11913Y95069D01*
X11794Y95070D01*
X11772Y95064D01*
X11749Y95064D01*
X11637Y95027D01*
X11522Y94995D01*
X11503Y94983D01*
X11481Y94976D01*
X11383Y94909D01*
X11282Y94847D01*
X11267Y94830D01*
X11248Y94817D01*
X11173Y94726D01*
X11093Y94638D01*
X11083Y94617D01*
X11069Y94600D01*
X11022Y94491D01*
X10970Y94384D01*
X10967Y94363D01*
X10957Y94341D01*
X10935Y94156D01*
X10923Y94079D01*
X10923Y49809D01*
X10924Y49798D01*
X10923Y49787D01*
X10944Y49658D01*
X10963Y49529D01*
X10967Y49520D01*
X10969Y49509D01*
X11025Y49391D01*
X11079Y49273D01*
X11086Y49264D01*
X11090Y49255D01*
X11178Y49157D01*
X11262Y49058D01*
X11271Y49052D01*
X11278Y49044D01*
X11389Y48975D01*
X11498Y48904D01*
X11508Y48901D01*
X11518Y48895D01*
X11643Y48860D01*
X11768Y48821D01*
X11779Y48821D01*
X11789Y48818D01*
X11920Y48819D01*
X12050Y48818D01*
X12060Y48821D01*
X12071Y48821D01*
X12195Y48858D01*
X12322Y48893D01*
X12331Y48899D01*
X12341Y48902D01*
X12450Y48972D01*
X12562Y49041D01*
X12569Y49049D01*
X12578Y49055D01*
X12663Y49153D01*
X12751Y49250D01*
X12755Y49260D01*
X12762Y49268D01*
X12795Y49342D01*
X12874Y49504D01*
X12877Y49528D01*
X12887Y49550D01*
X13292Y51063D01*
X17066Y57598D01*
X22402Y62934D01*
X28937Y66708D01*
X36227Y68661D01*
X43773Y68661D01*
X51063Y66708D01*
X57598Y62934D01*
X62934Y57598D01*
X66708Y51063D01*
X68661Y43773D01*
X68661Y36227D01*
X66708Y28937D01*
X62934Y22402D01*
X57598Y17066D01*
X51063Y13292D01*
X49550Y12887D01*
X49540Y12883D01*
X49529Y12881D01*
X49411Y12828D01*
X49291Y12776D01*
X49282Y12770D01*
X49273Y12765D01*
X49173Y12680D01*
X49073Y12598D01*
X49067Y12589D01*
X49058Y12582D01*
X48986Y12472D01*
X48913Y12365D01*
X48910Y12355D01*
X48904Y12346D01*
X48866Y12221D01*
X48825Y12097D01*
X48825Y12086D01*
X48821Y12076D01*
X48820Y11946D01*
X48815Y11815D01*
X48818Y11805D01*
X48818Y11794D01*
X48852Y11668D01*
X48885Y11542D01*
X48890Y11533D01*
X48893Y11522D01*
X48961Y11411D01*
X49028Y11299D01*
X49035Y11292D01*
X49041Y11282D01*
X49138Y11195D01*
X49233Y11105D01*
X49242Y11101D01*
X49250Y11093D01*
X49367Y11037D01*
X49484Y10977D01*
X49494Y10975D01*
X49504Y10970D01*
X49583Y10958D01*
X49761Y10924D01*
X49785Y10926D01*
X49809Y10923D01*
X116597Y10923D01*
X116683Y10935D01*
G37*
G36*
X83063Y201646D02*
X83063Y201646D01*
X83127Y201645D01*
X83202Y201666D01*
X83278Y201677D01*
X83337Y201703D01*
X83399Y201720D01*
X83465Y201761D01*
X83535Y201793D01*
X83584Y201835D01*
X83639Y201868D01*
X83691Y201926D01*
X83749Y201976D01*
X83785Y202030D01*
X83828Y202078D01*
X83861Y202147D01*
X83904Y202212D01*
X83923Y202274D01*
X83951Y202331D01*
X83962Y202401D01*
X83986Y202482D01*
X83987Y202567D01*
X83998Y202636D01*
X83998Y204705D01*
X85756Y206463D01*
X95492Y206463D01*
X95556Y206472D01*
X95620Y206471D01*
X95695Y206492D01*
X95771Y206503D01*
X95830Y206529D01*
X95892Y206546D01*
X95958Y206587D01*
X96028Y206619D01*
X96077Y206661D01*
X96132Y206694D01*
X96184Y206752D01*
X96242Y206802D01*
X96278Y206856D01*
X96321Y206904D01*
X96354Y206973D01*
X96397Y207038D01*
X96416Y207100D01*
X96444Y207157D01*
X96455Y207227D01*
X96479Y207308D01*
X96480Y207393D01*
X96491Y207462D01*
X96491Y211453D01*
X98547Y213509D01*
X219487Y213509D01*
X219519Y213513D01*
X219551Y213511D01*
X219658Y213533D01*
X219766Y213549D01*
X219795Y213562D01*
X219827Y213568D01*
X219923Y213620D01*
X220023Y213665D01*
X220047Y213686D01*
X220076Y213701D01*
X220154Y213777D01*
X220237Y213848D01*
X220255Y213875D01*
X220278Y213898D01*
X220332Y213993D01*
X220392Y214084D01*
X220401Y214115D01*
X220417Y214143D01*
X220442Y214249D01*
X220474Y214354D01*
X220474Y214386D01*
X220482Y214417D01*
X220476Y214527D01*
X220478Y214636D01*
X220469Y214667D01*
X220467Y214699D01*
X220432Y214802D01*
X220402Y214908D01*
X220386Y214935D01*
X220375Y214966D01*
X220322Y215039D01*
X220254Y215148D01*
X220218Y215180D01*
X220193Y215215D01*
X219250Y216158D01*
X218217Y218651D01*
X218217Y221349D01*
X219250Y223842D01*
X220707Y225299D01*
X220764Y225376D01*
X220829Y225447D01*
X220849Y225488D01*
X220876Y225524D01*
X220910Y225614D01*
X220952Y225701D01*
X220958Y225743D01*
X220975Y225788D01*
X220985Y225916D01*
X220999Y226005D01*
X220999Y235000D01*
X220990Y235064D01*
X220991Y235128D01*
X220970Y235203D01*
X220959Y235279D01*
X220933Y235338D01*
X220916Y235400D01*
X220875Y235466D01*
X220843Y235536D01*
X220801Y235585D01*
X220768Y235640D01*
X220710Y235692D01*
X220660Y235750D01*
X220606Y235786D01*
X220558Y235829D01*
X220489Y235862D01*
X220424Y235905D01*
X220362Y235924D01*
X220305Y235952D01*
X220235Y235963D01*
X220154Y235987D01*
X220069Y235988D01*
X220000Y235999D01*
X206220Y235999D01*
X206156Y235990D01*
X206092Y235991D01*
X206017Y235970D01*
X205941Y235959D01*
X205882Y235933D01*
X205820Y235916D01*
X205754Y235875D01*
X205684Y235843D01*
X205635Y235801D01*
X205580Y235768D01*
X205528Y235710D01*
X205470Y235660D01*
X205434Y235606D01*
X205391Y235558D01*
X205358Y235489D01*
X205315Y235424D01*
X205296Y235362D01*
X205268Y235305D01*
X205257Y235235D01*
X205233Y235154D01*
X205232Y235069D01*
X205221Y235000D01*
X205221Y229742D01*
X203463Y227984D01*
X184977Y227984D01*
X183219Y229742D01*
X183219Y250258D01*
X184977Y252016D01*
X203463Y252016D01*
X205221Y250258D01*
X205221Y245000D01*
X205230Y244936D01*
X205229Y244872D01*
X205250Y244797D01*
X205261Y244721D01*
X205287Y244662D01*
X205304Y244600D01*
X205345Y244534D01*
X205377Y244464D01*
X205419Y244415D01*
X205452Y244360D01*
X205510Y244308D01*
X205560Y244250D01*
X205614Y244214D01*
X205662Y244171D01*
X205731Y244138D01*
X205796Y244095D01*
X205858Y244076D01*
X205915Y244048D01*
X205985Y244037D01*
X206066Y244013D01*
X206151Y244012D01*
X206220Y244001D01*
X226657Y244001D01*
X229001Y241657D01*
X229001Y226005D01*
X229014Y225910D01*
X229019Y225814D01*
X229034Y225771D01*
X229041Y225726D01*
X229080Y225639D01*
X229112Y225548D01*
X229137Y225513D01*
X229157Y225469D01*
X229240Y225372D01*
X229293Y225299D01*
X230750Y223842D01*
X231577Y221846D01*
X231593Y221819D01*
X231603Y221788D01*
X231665Y221697D01*
X231720Y221604D01*
X231744Y221582D01*
X231762Y221555D01*
X231846Y221485D01*
X231926Y221411D01*
X231955Y221396D01*
X231980Y221376D01*
X232080Y221332D01*
X232178Y221283D01*
X232209Y221277D01*
X232239Y221264D01*
X232347Y221251D01*
X232455Y221230D01*
X232487Y221234D01*
X232519Y221230D01*
X232627Y221247D01*
X232735Y221258D01*
X232765Y221270D01*
X232797Y221275D01*
X232896Y221322D01*
X232997Y221362D01*
X233023Y221382D01*
X233052Y221396D01*
X233134Y221468D01*
X233220Y221536D01*
X233239Y221562D01*
X233263Y221583D01*
X233310Y221660D01*
X233385Y221764D01*
X233401Y221810D01*
X233423Y221846D01*
X234250Y223842D01*
X236158Y225750D01*
X238651Y226783D01*
X241349Y226783D01*
X243842Y225750D01*
X245299Y224293D01*
X245376Y224236D01*
X245447Y224171D01*
X245488Y224151D01*
X245524Y224124D01*
X245614Y224090D01*
X245701Y224048D01*
X245743Y224042D01*
X245788Y224025D01*
X245916Y224015D01*
X246005Y224001D01*
X267500Y224001D01*
X267564Y224010D01*
X267628Y224009D01*
X267703Y224030D01*
X267779Y224041D01*
X267838Y224067D01*
X267900Y224084D01*
X267966Y224125D01*
X268036Y224157D01*
X268085Y224199D01*
X268140Y224232D01*
X268192Y224290D01*
X268250Y224340D01*
X268286Y224394D01*
X268329Y224442D01*
X268362Y224511D01*
X268405Y224576D01*
X268424Y224638D01*
X268452Y224695D01*
X268463Y224765D01*
X268487Y224846D01*
X268488Y224931D01*
X268499Y225000D01*
X268499Y228500D01*
X268490Y228564D01*
X268491Y228628D01*
X268470Y228703D01*
X268459Y228779D01*
X268433Y228838D01*
X268416Y228900D01*
X268375Y228966D01*
X268343Y229036D01*
X268301Y229085D01*
X268268Y229140D01*
X268210Y229192D01*
X268160Y229250D01*
X268106Y229286D01*
X268058Y229329D01*
X267989Y229362D01*
X267924Y229405D01*
X267862Y229424D01*
X267805Y229452D01*
X267735Y229463D01*
X267654Y229487D01*
X267569Y229488D01*
X267500Y229499D01*
X263757Y229499D01*
X261999Y231257D01*
X261999Y248743D01*
X263757Y250501D01*
X281243Y250501D01*
X283001Y248743D01*
X283001Y231257D01*
X281243Y229499D01*
X277500Y229499D01*
X277436Y229490D01*
X277372Y229491D01*
X277297Y229470D01*
X277221Y229459D01*
X277162Y229433D01*
X277100Y229416D01*
X277034Y229375D01*
X276964Y229343D01*
X276915Y229301D01*
X276860Y229268D01*
X276808Y229210D01*
X276750Y229160D01*
X276714Y229106D01*
X276671Y229058D01*
X276638Y228989D01*
X276595Y228924D01*
X276576Y228862D01*
X276548Y228805D01*
X276537Y228735D01*
X276513Y228654D01*
X276512Y228569D01*
X276501Y228500D01*
X276501Y220843D01*
X271657Y215999D01*
X246005Y215999D01*
X245910Y215986D01*
X245814Y215981D01*
X245771Y215966D01*
X245726Y215959D01*
X245639Y215920D01*
X245548Y215888D01*
X245513Y215863D01*
X245469Y215843D01*
X245372Y215760D01*
X245299Y215707D01*
X244807Y215215D01*
X244787Y215189D01*
X244763Y215168D01*
X244703Y215076D01*
X244638Y214989D01*
X244626Y214959D01*
X244608Y214932D01*
X244577Y214827D01*
X244538Y214725D01*
X244535Y214693D01*
X244526Y214662D01*
X244525Y214553D01*
X244516Y214444D01*
X244523Y214412D01*
X244522Y214380D01*
X244551Y214275D01*
X244574Y214168D01*
X244589Y214139D01*
X244598Y214108D01*
X244655Y214015D01*
X244706Y213919D01*
X244729Y213896D01*
X244746Y213868D01*
X244827Y213795D01*
X244903Y213717D01*
X244931Y213701D01*
X244955Y213679D01*
X245053Y213632D01*
X245148Y213578D01*
X245180Y213570D01*
X245209Y213556D01*
X245298Y213542D01*
X245423Y213513D01*
X245471Y213515D01*
X245513Y213509D01*
X318078Y213509D01*
X318142Y213518D01*
X318206Y213517D01*
X318281Y213538D01*
X318357Y213549D01*
X318416Y213575D01*
X318478Y213592D01*
X318544Y213633D01*
X318614Y213665D01*
X318663Y213707D01*
X318718Y213740D01*
X318770Y213798D01*
X318828Y213848D01*
X318864Y213902D01*
X318907Y213950D01*
X318940Y214019D01*
X318983Y214084D01*
X319002Y214146D01*
X319030Y214203D01*
X319041Y214273D01*
X319065Y214354D01*
X319066Y214439D01*
X319077Y214508D01*
X319077Y280191D01*
X319076Y280202D01*
X319077Y280213D01*
X319056Y280342D01*
X319037Y280471D01*
X319033Y280480D01*
X319031Y280491D01*
X318975Y280609D01*
X318921Y280727D01*
X318914Y280736D01*
X318910Y280745D01*
X318822Y280843D01*
X318738Y280942D01*
X318729Y280948D01*
X318722Y280956D01*
X318611Y281025D01*
X318502Y281096D01*
X318492Y281099D01*
X318482Y281105D01*
X318357Y281140D01*
X318232Y281179D01*
X318221Y281179D01*
X318211Y281182D01*
X318080Y281181D01*
X317950Y281182D01*
X317940Y281179D01*
X317929Y281179D01*
X317805Y281142D01*
X317678Y281107D01*
X317669Y281101D01*
X317659Y281098D01*
X317550Y281028D01*
X317438Y280959D01*
X317431Y280951D01*
X317422Y280945D01*
X317337Y280847D01*
X317249Y280750D01*
X317245Y280740D01*
X317238Y280732D01*
X317205Y280658D01*
X317126Y280496D01*
X317123Y280472D01*
X317113Y280450D01*
X316708Y278937D01*
X312934Y272402D01*
X307598Y267066D01*
X301063Y263292D01*
X293773Y261339D01*
X286227Y261339D01*
X278937Y263292D01*
X272402Y267066D01*
X267066Y272402D01*
X263292Y278937D01*
X261339Y286227D01*
X261339Y293773D01*
X263292Y301063D01*
X267066Y307598D01*
X272402Y312934D01*
X278937Y316708D01*
X280450Y317113D01*
X280460Y317117D01*
X280471Y317119D01*
X280589Y317172D01*
X280709Y317224D01*
X280718Y317230D01*
X280727Y317235D01*
X280827Y317320D01*
X280927Y317402D01*
X280933Y317411D01*
X280942Y317418D01*
X281014Y317528D01*
X281087Y317635D01*
X281090Y317645D01*
X281096Y317654D01*
X281134Y317779D01*
X281175Y317903D01*
X281175Y317914D01*
X281179Y317924D01*
X281180Y318054D01*
X281185Y318185D01*
X281182Y318195D01*
X281182Y318206D01*
X281148Y318332D01*
X281115Y318458D01*
X281110Y318467D01*
X281107Y318478D01*
X281039Y318589D01*
X280972Y318701D01*
X280965Y318708D01*
X280959Y318718D01*
X280862Y318805D01*
X280767Y318895D01*
X280758Y318899D01*
X280750Y318907D01*
X280633Y318963D01*
X280516Y319023D01*
X280506Y319025D01*
X280496Y319030D01*
X280417Y319042D01*
X280239Y319076D01*
X280215Y319074D01*
X280191Y319077D01*
X250000Y319077D01*
X249936Y319068D01*
X249872Y319069D01*
X249797Y319048D01*
X249721Y319037D01*
X249662Y319011D01*
X249600Y318994D01*
X249534Y318953D01*
X249464Y318921D01*
X249415Y318879D01*
X249360Y318846D01*
X249308Y318788D01*
X249250Y318738D01*
X249214Y318684D01*
X249171Y318636D01*
X249138Y318567D01*
X249095Y318502D01*
X249076Y318440D01*
X249048Y318383D01*
X249037Y318313D01*
X249013Y318232D01*
X249012Y318147D01*
X249001Y318078D01*
X249001Y260999D01*
X80999Y260999D01*
X80999Y318078D01*
X80990Y318142D01*
X80991Y318206D01*
X80970Y318281D01*
X80959Y318357D01*
X80933Y318416D01*
X80916Y318478D01*
X80875Y318544D01*
X80843Y318614D01*
X80801Y318663D01*
X80768Y318718D01*
X80710Y318770D01*
X80660Y318828D01*
X80606Y318864D01*
X80558Y318907D01*
X80489Y318940D01*
X80424Y318983D01*
X80362Y319002D01*
X80305Y319030D01*
X80235Y319041D01*
X80154Y319065D01*
X80069Y319066D01*
X80000Y319077D01*
X76579Y319077D01*
X76547Y319073D01*
X76515Y319075D01*
X76408Y319053D01*
X76300Y319037D01*
X76270Y319024D01*
X76239Y319018D01*
X76142Y318966D01*
X76043Y318921D01*
X76018Y318900D01*
X75990Y318885D01*
X75911Y318809D01*
X75828Y318738D01*
X75811Y318711D01*
X75788Y318688D01*
X75734Y318593D01*
X75674Y318502D01*
X75664Y318471D01*
X75649Y318443D01*
X75623Y318337D01*
X75592Y318232D01*
X75591Y318200D01*
X75584Y318169D01*
X75589Y318059D01*
X75588Y317950D01*
X75596Y317919D01*
X75598Y317887D01*
X75634Y317784D01*
X75663Y317678D01*
X75680Y317651D01*
X75690Y317620D01*
X75744Y317547D01*
X75811Y317438D01*
X75847Y317406D01*
X75872Y317371D01*
X76501Y316743D01*
X76501Y303257D01*
X74743Y301499D01*
X73516Y301499D01*
X73452Y301490D01*
X73388Y301491D01*
X73313Y301470D01*
X73237Y301459D01*
X73178Y301433D01*
X73116Y301416D01*
X73050Y301375D01*
X72980Y301343D01*
X72931Y301301D01*
X72876Y301268D01*
X72824Y301210D01*
X72766Y301160D01*
X72730Y301106D01*
X72687Y301058D01*
X72654Y300989D01*
X72611Y300924D01*
X72592Y300862D01*
X72564Y300805D01*
X72553Y300735D01*
X72529Y300654D01*
X72528Y300569D01*
X72517Y300500D01*
X72517Y294500D01*
X72526Y294436D01*
X72525Y294372D01*
X72546Y294297D01*
X72557Y294221D01*
X72583Y294162D01*
X72600Y294100D01*
X72641Y294034D01*
X72673Y293964D01*
X72715Y293915D01*
X72748Y293860D01*
X72806Y293808D01*
X72856Y293750D01*
X72910Y293714D01*
X72958Y293671D01*
X73027Y293638D01*
X73092Y293595D01*
X73154Y293576D01*
X73211Y293548D01*
X73281Y293537D01*
X73362Y293513D01*
X73447Y293512D01*
X73516Y293501D01*
X74743Y293501D01*
X76501Y291743D01*
X76501Y278257D01*
X75189Y276946D01*
X75132Y276869D01*
X75067Y276798D01*
X75047Y276757D01*
X75020Y276720D01*
X74986Y276630D01*
X74944Y276544D01*
X74938Y276502D01*
X74921Y276456D01*
X74911Y276329D01*
X74897Y276239D01*
X74897Y202636D01*
X74906Y202572D01*
X74905Y202508D01*
X74926Y202433D01*
X74937Y202357D01*
X74963Y202298D01*
X74980Y202236D01*
X75021Y202170D01*
X75053Y202100D01*
X75095Y202051D01*
X75128Y201996D01*
X75186Y201944D01*
X75236Y201886D01*
X75290Y201850D01*
X75338Y201807D01*
X75407Y201774D01*
X75472Y201731D01*
X75534Y201712D01*
X75591Y201684D01*
X75661Y201673D01*
X75742Y201649D01*
X75827Y201648D01*
X75896Y201637D01*
X82999Y201637D01*
X83063Y201646D01*
G37*
G36*
X101457Y114494D02*
X101457Y114494D01*
X101462Y114493D01*
X101555Y114514D01*
X101649Y114532D01*
X101653Y114535D01*
X101658Y114536D01*
X101736Y114592D01*
X101814Y114645D01*
X101817Y114649D01*
X101821Y114652D01*
X101872Y114734D01*
X101924Y114813D01*
X101924Y114818D01*
X101927Y114823D01*
X101959Y115000D01*
X101959Y116835D01*
X102132Y117481D01*
X102467Y118060D01*
X102940Y118533D01*
X103519Y118868D01*
X104165Y119041D01*
X108985Y119041D01*
X108985Y115000D01*
X108986Y114995D01*
X108985Y114990D01*
X109006Y114897D01*
X109024Y114804D01*
X109027Y114799D01*
X109028Y114794D01*
X109084Y114716D01*
X109137Y114638D01*
X109141Y114635D01*
X109144Y114631D01*
X109226Y114580D01*
X109305Y114528D01*
X109310Y114528D01*
X109315Y114525D01*
X109492Y114493D01*
X110508Y114493D01*
X110513Y114494D01*
X110518Y114493D01*
X110611Y114514D01*
X110704Y114532D01*
X110709Y114535D01*
X110714Y114536D01*
X110792Y114592D01*
X110870Y114645D01*
X110873Y114649D01*
X110877Y114652D01*
X110928Y114734D01*
X110979Y114813D01*
X110980Y114818D01*
X110983Y114823D01*
X111015Y115000D01*
X111015Y119041D01*
X115835Y119041D01*
X116481Y118868D01*
X117060Y118533D01*
X117533Y118060D01*
X117868Y117481D01*
X118041Y116835D01*
X118041Y115000D01*
X118042Y114995D01*
X118041Y114990D01*
X118062Y114897D01*
X118080Y114804D01*
X118083Y114799D01*
X118084Y114794D01*
X118140Y114716D01*
X118193Y114638D01*
X118197Y114635D01*
X118200Y114631D01*
X118282Y114580D01*
X118361Y114528D01*
X118366Y114528D01*
X118371Y114525D01*
X118548Y114493D01*
X118952Y114493D01*
X118957Y114494D01*
X118962Y114493D01*
X119055Y114514D01*
X119149Y114532D01*
X119153Y114535D01*
X119158Y114536D01*
X119236Y114592D01*
X119314Y114645D01*
X119317Y114649D01*
X119321Y114652D01*
X119372Y114734D01*
X119424Y114813D01*
X119424Y114818D01*
X119427Y114823D01*
X119459Y115000D01*
X119459Y115835D01*
X119632Y116481D01*
X119967Y117060D01*
X120440Y117533D01*
X121019Y117868D01*
X121665Y118041D01*
X127985Y118041D01*
X127985Y115000D01*
X127986Y114995D01*
X127985Y114990D01*
X128006Y114897D01*
X128024Y114804D01*
X128027Y114799D01*
X128028Y114794D01*
X128084Y114716D01*
X128137Y114638D01*
X128141Y114635D01*
X128144Y114631D01*
X128226Y114580D01*
X128305Y114528D01*
X128310Y114528D01*
X128315Y114525D01*
X128492Y114493D01*
X129508Y114493D01*
X129513Y114494D01*
X129518Y114493D01*
X129611Y114514D01*
X129704Y114532D01*
X129709Y114535D01*
X129714Y114536D01*
X129792Y114592D01*
X129870Y114645D01*
X129873Y114649D01*
X129877Y114652D01*
X129928Y114734D01*
X129979Y114813D01*
X129980Y114818D01*
X129983Y114823D01*
X130015Y115000D01*
X130015Y118041D01*
X136335Y118041D01*
X136981Y117868D01*
X137560Y117533D01*
X138033Y117060D01*
X138368Y116481D01*
X138541Y115835D01*
X138541Y115000D01*
X138542Y114995D01*
X138541Y114990D01*
X138562Y114897D01*
X138580Y114804D01*
X138583Y114799D01*
X138584Y114794D01*
X138640Y114716D01*
X138693Y114638D01*
X138697Y114635D01*
X138700Y114631D01*
X138782Y114580D01*
X138861Y114528D01*
X138866Y114528D01*
X138871Y114525D01*
X139048Y114493D01*
X140492Y114493D01*
X140497Y114494D01*
X140502Y114493D01*
X140595Y114514D01*
X140689Y114532D01*
X140693Y114535D01*
X140698Y114536D01*
X140776Y114592D01*
X140854Y114645D01*
X140857Y114649D01*
X140861Y114652D01*
X140912Y114734D01*
X140964Y114813D01*
X140964Y114818D01*
X140967Y114823D01*
X140999Y115000D01*
X140999Y126243D01*
X142757Y128001D01*
X153110Y128001D01*
X153118Y128002D01*
X153126Y128001D01*
X153215Y128022D01*
X153307Y128040D01*
X153313Y128045D01*
X153321Y128047D01*
X153469Y128149D01*
X157836Y132516D01*
X157840Y132523D01*
X157846Y132527D01*
X157895Y132606D01*
X157947Y132683D01*
X157948Y132691D01*
X157952Y132698D01*
X157984Y132875D01*
X157984Y133135D01*
X157983Y133139D01*
X157984Y133143D01*
X157964Y133237D01*
X157945Y133332D01*
X157942Y133335D01*
X157942Y133339D01*
X157886Y133418D01*
X157832Y133498D01*
X157829Y133500D01*
X157826Y133503D01*
X157744Y133555D01*
X157664Y133607D01*
X157660Y133608D01*
X157657Y133610D01*
X157561Y133625D01*
X157467Y133643D01*
X157463Y133642D01*
X157459Y133642D01*
X157283Y133604D01*
X156359Y133221D01*
X156349Y133217D01*
X153651Y133217D01*
X151158Y134250D01*
X149250Y136158D01*
X148217Y138651D01*
X148217Y141349D01*
X149250Y143842D01*
X150835Y145427D01*
X150839Y145433D01*
X150845Y145438D01*
X150894Y145517D01*
X150946Y145594D01*
X150947Y145602D01*
X150951Y145608D01*
X150983Y145786D01*
X150983Y161964D01*
X151551Y162531D01*
X151555Y162538D01*
X151561Y162542D01*
X151610Y162621D01*
X151662Y162698D01*
X151663Y162706D01*
X151667Y162713D01*
X151699Y162890D01*
X151699Y171743D01*
X153457Y173501D01*
X166943Y173501D01*
X168701Y171743D01*
X168701Y169518D01*
X168701Y169515D01*
X168701Y169512D01*
X168721Y169417D01*
X168740Y169321D01*
X168742Y169319D01*
X168742Y169316D01*
X168798Y169236D01*
X168853Y169155D01*
X168855Y169154D01*
X168857Y169152D01*
X168940Y169098D01*
X169021Y169046D01*
X169024Y169046D01*
X169026Y169044D01*
X169122Y169028D01*
X169218Y169010D01*
X169221Y169011D01*
X169223Y169011D01*
X169318Y169033D01*
X169414Y169054D01*
X169416Y169056D01*
X169419Y169056D01*
X169567Y169159D01*
X171158Y170750D01*
X171486Y170886D01*
X171492Y170890D01*
X171498Y170891D01*
X171574Y170945D01*
X171653Y170998D01*
X171656Y171003D01*
X171661Y171007D01*
X171711Y171087D01*
X171763Y171165D01*
X171764Y171172D01*
X171767Y171177D01*
X171799Y171355D01*
X171799Y172243D01*
X173198Y173641D01*
X173201Y173646D01*
X173205Y173649D01*
X173256Y173729D01*
X173309Y173808D01*
X173310Y173813D01*
X173312Y173818D01*
X173328Y173912D01*
X173346Y174005D01*
X173345Y174010D01*
X173346Y174015D01*
X173324Y174108D01*
X173305Y174201D01*
X173302Y174206D01*
X173300Y174211D01*
X173198Y174359D01*
X171799Y175757D01*
X171799Y189243D01*
X172674Y190117D01*
X172675Y190120D01*
X172677Y190121D01*
X172729Y190201D01*
X172785Y190284D01*
X172785Y190287D01*
X172787Y190289D01*
X172804Y190385D01*
X172822Y190481D01*
X172822Y190484D01*
X172822Y190486D01*
X172801Y190583D01*
X172781Y190677D01*
X172779Y190679D01*
X172779Y190682D01*
X172722Y190762D01*
X172666Y190842D01*
X172664Y190843D01*
X172663Y190845D01*
X172579Y190897D01*
X172497Y190949D01*
X172495Y190950D01*
X172492Y190951D01*
X172315Y190983D01*
X166370Y190983D01*
X166336Y190976D01*
X166301Y190979D01*
X166238Y190957D01*
X166173Y190944D01*
X166144Y190924D01*
X166112Y190913D01*
X166062Y190868D01*
X166007Y190831D01*
X165989Y190802D01*
X165963Y190779D01*
X165934Y190719D01*
X165898Y190663D01*
X165892Y190629D01*
X165877Y190597D01*
X165874Y190531D01*
X165863Y190466D01*
X165870Y190432D01*
X165869Y190397D01*
X165892Y190335D01*
X165906Y190270D01*
X165926Y190242D01*
X165938Y190209D01*
X165984Y190161D01*
X166022Y190107D01*
X166052Y190088D01*
X166076Y190063D01*
X166146Y190030D01*
X166192Y190001D01*
X166216Y189996D01*
X166239Y189986D01*
X166681Y189868D01*
X167260Y189533D01*
X167733Y189060D01*
X168068Y188481D01*
X168241Y187835D01*
X168241Y183515D01*
X160708Y183515D01*
X160703Y183514D01*
X160698Y183515D01*
X160605Y183494D01*
X160512Y183476D01*
X160507Y183473D01*
X160502Y183471D01*
X160424Y183416D01*
X160346Y183363D01*
X160343Y183359D01*
X160339Y183355D01*
X160288Y183274D01*
X160237Y183195D01*
X160236Y183190D01*
X160233Y183185D01*
X160201Y183008D01*
X160201Y182499D01*
X160199Y182499D01*
X160199Y183008D01*
X160198Y183013D01*
X160199Y183018D01*
X160178Y183111D01*
X160160Y183204D01*
X160157Y183209D01*
X160155Y183214D01*
X160100Y183292D01*
X160047Y183370D01*
X160043Y183373D01*
X160039Y183377D01*
X159958Y183428D01*
X159879Y183479D01*
X159874Y183480D01*
X159869Y183483D01*
X159692Y183515D01*
X152159Y183515D01*
X152159Y187794D01*
X152158Y187798D01*
X152159Y187801D01*
X152139Y187895D01*
X152120Y187990D01*
X152117Y187993D01*
X152117Y187997D01*
X152061Y188076D01*
X152007Y188156D01*
X152004Y188158D01*
X152001Y188161D01*
X151920Y188213D01*
X151839Y188265D01*
X151835Y188266D01*
X151832Y188268D01*
X151737Y188284D01*
X151642Y188301D01*
X151638Y188300D01*
X151634Y188301D01*
X151458Y188262D01*
X151349Y188217D01*
X149108Y188217D01*
X149103Y188216D01*
X149098Y188217D01*
X149005Y188196D01*
X148911Y188178D01*
X148907Y188175D01*
X148902Y188174D01*
X148824Y188118D01*
X148746Y188065D01*
X148743Y188061D01*
X148739Y188058D01*
X148688Y187976D01*
X148636Y187897D01*
X148636Y187892D01*
X148633Y187887D01*
X148601Y187710D01*
X148601Y175757D01*
X146814Y173970D01*
X146774Y173911D01*
X146728Y173856D01*
X146719Y173828D01*
X146703Y173803D01*
X146690Y173733D01*
X146668Y173665D01*
X146671Y173635D01*
X146665Y173606D01*
X146680Y173536D01*
X146687Y173465D01*
X146701Y173439D01*
X146707Y173410D01*
X146748Y173352D01*
X146781Y173289D01*
X146806Y173268D01*
X146821Y173246D01*
X146865Y173218D01*
X146919Y173172D01*
X147160Y173033D01*
X147633Y172560D01*
X147968Y171981D01*
X148141Y171335D01*
X148141Y166515D01*
X141108Y166515D01*
X141103Y166514D01*
X141098Y166515D01*
X141005Y166494D01*
X140912Y166476D01*
X140907Y166473D01*
X140902Y166471D01*
X140824Y166416D01*
X140746Y166363D01*
X140743Y166359D01*
X140739Y166355D01*
X140688Y166274D01*
X140637Y166195D01*
X140636Y166190D01*
X140633Y166185D01*
X140601Y166008D01*
X140601Y165499D01*
X140599Y165499D01*
X140599Y166008D01*
X140598Y166013D01*
X140599Y166018D01*
X140578Y166111D01*
X140560Y166204D01*
X140557Y166209D01*
X140555Y166214D01*
X140500Y166292D01*
X140447Y166370D01*
X140443Y166373D01*
X140439Y166377D01*
X140358Y166428D01*
X140279Y166479D01*
X140274Y166480D01*
X140269Y166483D01*
X140092Y166515D01*
X133059Y166515D01*
X133059Y171335D01*
X133232Y171981D01*
X133567Y172560D01*
X134040Y173033D01*
X134281Y173172D01*
X134335Y173219D01*
X134393Y173260D01*
X134409Y173285D01*
X134431Y173305D01*
X134463Y173369D01*
X134501Y173429D01*
X134506Y173459D01*
X134519Y173485D01*
X134522Y173557D01*
X134534Y173627D01*
X134528Y173656D01*
X134529Y173685D01*
X134505Y173753D01*
X134489Y173822D01*
X134471Y173848D01*
X134461Y173874D01*
X134426Y173912D01*
X134386Y173970D01*
X132599Y175757D01*
X132599Y189243D01*
X134357Y191001D01*
X136076Y191001D01*
X136081Y191002D01*
X136086Y191001D01*
X136179Y191022D01*
X136273Y191040D01*
X136277Y191043D01*
X136282Y191044D01*
X136360Y191100D01*
X136438Y191153D01*
X136441Y191157D01*
X136445Y191160D01*
X136496Y191242D01*
X136548Y191321D01*
X136548Y191326D01*
X136551Y191331D01*
X136583Y191508D01*
X136583Y192264D01*
X143336Y199017D01*
X144214Y199017D01*
X144222Y199018D01*
X144230Y199017D01*
X144320Y199038D01*
X144411Y199056D01*
X144417Y199061D01*
X144425Y199063D01*
X144573Y199165D01*
X146158Y200750D01*
X146193Y200765D01*
X146194Y200765D01*
X147418Y201272D01*
X148643Y201779D01*
X148651Y201783D01*
X151349Y201783D01*
X153842Y200750D01*
X155427Y199165D01*
X155433Y199161D01*
X155438Y199155D01*
X155517Y199106D01*
X155594Y199054D01*
X155602Y199053D01*
X155608Y199049D01*
X155786Y199017D01*
X184214Y199017D01*
X184222Y199018D01*
X184230Y199017D01*
X184320Y199038D01*
X184411Y199056D01*
X184417Y199061D01*
X184425Y199063D01*
X184573Y199165D01*
X186158Y200750D01*
X186193Y200765D01*
X186194Y200765D01*
X187418Y201272D01*
X188643Y201779D01*
X188651Y201783D01*
X191349Y201783D01*
X193842Y200750D01*
X195427Y199165D01*
X195433Y199161D01*
X195438Y199155D01*
X195517Y199106D01*
X195594Y199054D01*
X195602Y199053D01*
X195608Y199049D01*
X195786Y199017D01*
X196664Y199017D01*
X203017Y192664D01*
X203017Y191508D01*
X203018Y191503D01*
X203017Y191498D01*
X203038Y191405D01*
X203056Y191311D01*
X203059Y191307D01*
X203060Y191302D01*
X203116Y191224D01*
X203169Y191146D01*
X203173Y191143D01*
X203176Y191139D01*
X203258Y191088D01*
X203337Y191036D01*
X203342Y191036D01*
X203347Y191033D01*
X203524Y191001D01*
X205243Y191001D01*
X207001Y189243D01*
X207001Y175757D01*
X205602Y174359D01*
X205599Y174354D01*
X205595Y174351D01*
X205544Y174271D01*
X205491Y174192D01*
X205490Y174187D01*
X205488Y174182D01*
X205472Y174088D01*
X205454Y173995D01*
X205455Y173990D01*
X205454Y173984D01*
X205476Y173892D01*
X205495Y173799D01*
X205498Y173794D01*
X205500Y173789D01*
X205602Y173641D01*
X207001Y172243D01*
X207001Y158757D01*
X205243Y156999D01*
X192757Y156999D01*
X190999Y158757D01*
X190999Y159198D01*
X190998Y159206D01*
X190999Y159214D01*
X190978Y159304D01*
X190960Y159395D01*
X190955Y159401D01*
X190953Y159409D01*
X190851Y159557D01*
X189867Y160541D01*
X189864Y160543D01*
X189863Y160545D01*
X189783Y160597D01*
X189700Y160652D01*
X189697Y160653D01*
X189695Y160654D01*
X189599Y160671D01*
X189503Y160690D01*
X189500Y160689D01*
X189498Y160690D01*
X189401Y160668D01*
X189307Y160648D01*
X189305Y160647D01*
X189302Y160646D01*
X189222Y160589D01*
X189142Y160534D01*
X189141Y160532D01*
X189139Y160530D01*
X189087Y160447D01*
X189035Y160365D01*
X189034Y160362D01*
X189033Y160360D01*
X189001Y160182D01*
X189001Y115000D01*
X189002Y114995D01*
X189001Y114990D01*
X189022Y114897D01*
X189040Y114804D01*
X189043Y114799D01*
X189044Y114794D01*
X189100Y114716D01*
X189153Y114638D01*
X189157Y114635D01*
X189160Y114631D01*
X189242Y114580D01*
X189321Y114528D01*
X189326Y114528D01*
X189331Y114525D01*
X189508Y114493D01*
X245000Y114493D01*
X245005Y114494D01*
X245010Y114493D01*
X245103Y114514D01*
X245197Y114532D01*
X245201Y114535D01*
X245206Y114536D01*
X245284Y114592D01*
X245362Y114645D01*
X245365Y114649D01*
X245369Y114652D01*
X245420Y114734D01*
X245472Y114813D01*
X245472Y114818D01*
X245475Y114823D01*
X245507Y115000D01*
X245507Y164493D01*
X286876Y164493D01*
X286878Y164493D01*
X286881Y164493D01*
X286976Y164513D01*
X287072Y164532D01*
X287074Y164534D01*
X287077Y164534D01*
X287158Y164590D01*
X287238Y164645D01*
X287240Y164647D01*
X287242Y164649D01*
X287295Y164732D01*
X287347Y164813D01*
X287348Y164816D01*
X287349Y164818D01*
X287366Y164914D01*
X287383Y165010D01*
X287382Y165013D01*
X287383Y165016D01*
X287361Y165110D01*
X287339Y165206D01*
X287338Y165208D01*
X287337Y165211D01*
X287234Y165359D01*
X286564Y166029D01*
X284959Y169903D01*
X284959Y174097D01*
X286564Y177971D01*
X289529Y180936D01*
X289640Y180982D01*
X289641Y180982D01*
X290865Y181489D01*
X292090Y181997D01*
X293314Y182504D01*
X293403Y182541D01*
X297597Y182541D01*
X301471Y180936D01*
X304436Y177971D01*
X306041Y174097D01*
X306041Y169903D01*
X304436Y166029D01*
X303766Y165359D01*
X303764Y165356D01*
X303762Y165355D01*
X303710Y165275D01*
X303655Y165192D01*
X303654Y165189D01*
X303653Y165187D01*
X303635Y165091D01*
X303617Y164995D01*
X303618Y164992D01*
X303617Y164990D01*
X303639Y164893D01*
X303659Y164799D01*
X303660Y164797D01*
X303661Y164794D01*
X303717Y164714D01*
X303773Y164634D01*
X303775Y164633D01*
X303777Y164631D01*
X303860Y164579D01*
X303942Y164527D01*
X303945Y164526D01*
X303947Y164525D01*
X304124Y164493D01*
X318570Y164493D01*
X318575Y164494D01*
X318580Y164493D01*
X318673Y164514D01*
X318767Y164532D01*
X318771Y164535D01*
X318776Y164536D01*
X318854Y164592D01*
X318932Y164645D01*
X318935Y164649D01*
X318939Y164652D01*
X318990Y164734D01*
X319042Y164813D01*
X319042Y164818D01*
X319045Y164823D01*
X319077Y165000D01*
X319077Y210000D01*
X319076Y210005D01*
X319077Y210010D01*
X319056Y210103D01*
X319038Y210197D01*
X319035Y210201D01*
X319034Y210206D01*
X318978Y210284D01*
X318925Y210362D01*
X318921Y210365D01*
X318918Y210369D01*
X318836Y210420D01*
X318757Y210472D01*
X318752Y210472D01*
X318747Y210475D01*
X318570Y210507D01*
X235814Y210507D01*
X235809Y210506D01*
X235804Y210507D01*
X235711Y210486D01*
X235617Y210468D01*
X235613Y210465D01*
X235608Y210464D01*
X235530Y210408D01*
X235452Y210355D01*
X235449Y210351D01*
X235445Y210348D01*
X235394Y210266D01*
X235342Y210187D01*
X235342Y210182D01*
X235339Y210177D01*
X235307Y210000D01*
X235307Y205802D01*
X235308Y205794D01*
X235307Y205786D01*
X235328Y205696D01*
X235346Y205605D01*
X235351Y205599D01*
X235353Y205591D01*
X235455Y205443D01*
X237056Y203842D01*
X238089Y201349D01*
X238089Y198651D01*
X237056Y196158D01*
X235148Y194250D01*
X234766Y194091D01*
X234765Y194091D01*
X233541Y193584D01*
X232655Y193217D01*
X229957Y193217D01*
X227464Y194250D01*
X225556Y196158D01*
X224523Y198651D01*
X224523Y201349D01*
X225556Y203842D01*
X227157Y205443D01*
X227161Y205449D01*
X227167Y205454D01*
X227216Y205533D01*
X227268Y205610D01*
X227269Y205618D01*
X227273Y205624D01*
X227305Y205802D01*
X227305Y210000D01*
X227304Y210005D01*
X227305Y210010D01*
X227284Y210103D01*
X227266Y210197D01*
X227263Y210201D01*
X227262Y210206D01*
X227206Y210284D01*
X227153Y210362D01*
X227149Y210365D01*
X227146Y210369D01*
X227064Y210420D01*
X226985Y210472D01*
X226980Y210472D01*
X226975Y210475D01*
X226798Y210507D01*
X100000Y210507D01*
X99995Y210506D01*
X99990Y210507D01*
X99897Y210486D01*
X99804Y210468D01*
X99799Y210465D01*
X99794Y210464D01*
X99716Y210408D01*
X99638Y210355D01*
X99635Y210351D01*
X99631Y210348D01*
X99580Y210266D01*
X99528Y210187D01*
X99528Y210182D01*
X99525Y210177D01*
X99493Y210000D01*
X99493Y206970D01*
X99494Y206965D01*
X99493Y206960D01*
X99514Y206867D01*
X99532Y206773D01*
X99535Y206769D01*
X99536Y206764D01*
X99592Y206686D01*
X99645Y206608D01*
X99649Y206605D01*
X99652Y206601D01*
X99734Y206550D01*
X99813Y206498D01*
X99818Y206498D01*
X99823Y206495D01*
X100000Y206463D01*
X104244Y206463D01*
X106002Y204705D01*
X106002Y190535D01*
X105825Y190359D01*
X105822Y190354D01*
X105818Y190351D01*
X105767Y190271D01*
X105714Y190192D01*
X105713Y190187D01*
X105711Y190182D01*
X105695Y190088D01*
X105677Y189995D01*
X105678Y189990D01*
X105677Y189984D01*
X105699Y189893D01*
X105718Y189799D01*
X105721Y189794D01*
X105723Y189789D01*
X105825Y189641D01*
X106002Y189465D01*
X106002Y175295D01*
X104244Y173537D01*
X100000Y173537D01*
X99995Y173536D01*
X99990Y173537D01*
X99897Y173516D01*
X99804Y173498D01*
X99799Y173495D01*
X99794Y173494D01*
X99716Y173438D01*
X99638Y173385D01*
X99635Y173381D01*
X99631Y173378D01*
X99580Y173296D01*
X99528Y173217D01*
X99528Y173212D01*
X99525Y173207D01*
X99493Y173030D01*
X99493Y145310D01*
X99494Y145302D01*
X99493Y145294D01*
X99514Y145204D01*
X99532Y145113D01*
X99537Y145107D01*
X99539Y145099D01*
X99641Y144951D01*
X100750Y143842D01*
X101783Y141349D01*
X101783Y138651D01*
X101299Y137484D01*
X101299Y137480D01*
X101297Y137477D01*
X101279Y137382D01*
X101261Y137287D01*
X101262Y137284D01*
X101261Y137280D01*
X101282Y137186D01*
X101301Y137091D01*
X101304Y137088D01*
X101305Y137084D01*
X101361Y137005D01*
X101415Y136926D01*
X101418Y136924D01*
X101421Y136921D01*
X101503Y136870D01*
X101584Y136817D01*
X101587Y136817D01*
X101591Y136815D01*
X101768Y136783D01*
X102671Y136783D01*
X103259Y136539D01*
X103268Y136538D01*
X103276Y136533D01*
X103453Y136501D01*
X116743Y136501D01*
X118133Y135110D01*
X118136Y135109D01*
X118137Y135107D01*
X118218Y135054D01*
X118300Y134999D01*
X118303Y134999D01*
X118305Y134997D01*
X118401Y134980D01*
X118497Y134962D01*
X118500Y134962D01*
X118502Y134962D01*
X118599Y134983D01*
X118693Y135003D01*
X118695Y135005D01*
X118698Y135005D01*
X118778Y135062D01*
X118858Y135118D01*
X118859Y135120D01*
X118861Y135121D01*
X118914Y135205D01*
X118965Y135287D01*
X118966Y135289D01*
X118967Y135292D01*
X118999Y135469D01*
X118999Y135743D01*
X120757Y137501D01*
X122935Y137501D01*
X122938Y137502D01*
X122942Y137501D01*
X123036Y137521D01*
X123131Y137540D01*
X123134Y137543D01*
X123138Y137543D01*
X123217Y137599D01*
X123297Y137653D01*
X123299Y137656D01*
X123302Y137659D01*
X123354Y137741D01*
X123406Y137821D01*
X123407Y137825D01*
X123409Y137828D01*
X123425Y137924D01*
X123442Y138018D01*
X123441Y138022D01*
X123441Y138026D01*
X123403Y138202D01*
X123217Y138651D01*
X123217Y141349D01*
X124250Y143842D01*
X126158Y145750D01*
X126717Y145982D01*
X127942Y146489D01*
X128651Y146783D01*
X131349Y146783D01*
X133842Y145750D01*
X135750Y143842D01*
X136783Y141349D01*
X136783Y138651D01*
X136597Y138202D01*
X136596Y138198D01*
X136594Y138195D01*
X136577Y138100D01*
X136558Y138005D01*
X136559Y138002D01*
X136558Y137998D01*
X136579Y137903D01*
X136599Y137809D01*
X136601Y137806D01*
X136602Y137802D01*
X136658Y137723D01*
X136712Y137644D01*
X136716Y137642D01*
X136718Y137639D01*
X136800Y137587D01*
X136881Y137536D01*
X136885Y137535D01*
X136888Y137533D01*
X137065Y137501D01*
X137243Y137501D01*
X139001Y135743D01*
X139001Y123257D01*
X137243Y121499D01*
X120757Y121499D01*
X119367Y122890D01*
X119364Y122891D01*
X119363Y122893D01*
X119282Y122946D01*
X119200Y123001D01*
X119197Y123001D01*
X119195Y123003D01*
X119099Y123020D01*
X119003Y123038D01*
X119000Y123038D01*
X118998Y123038D01*
X118901Y123017D01*
X118807Y122997D01*
X118805Y122995D01*
X118802Y122995D01*
X118722Y122938D01*
X118642Y122882D01*
X118641Y122880D01*
X118639Y122879D01*
X118586Y122795D01*
X118535Y122713D01*
X118534Y122711D01*
X118533Y122708D01*
X118501Y122531D01*
X118501Y122257D01*
X116743Y120499D01*
X103257Y120499D01*
X101499Y122257D01*
X101499Y122710D01*
X101498Y122715D01*
X101499Y122720D01*
X101478Y122813D01*
X101460Y122907D01*
X101457Y122911D01*
X101456Y122916D01*
X101400Y122994D01*
X101347Y123072D01*
X101343Y123075D01*
X101340Y123079D01*
X101258Y123130D01*
X101179Y123182D01*
X101174Y123182D01*
X101169Y123185D01*
X100992Y123217D01*
X100000Y123217D01*
X99995Y123216D01*
X99990Y123217D01*
X99897Y123196D01*
X99804Y123178D01*
X99799Y123175D01*
X99794Y123174D01*
X99716Y123118D01*
X99638Y123065D01*
X99635Y123061D01*
X99631Y123058D01*
X99580Y122976D01*
X99528Y122897D01*
X99528Y122892D01*
X99525Y122887D01*
X99493Y122710D01*
X99493Y115000D01*
X99494Y114995D01*
X99493Y114990D01*
X99514Y114897D01*
X99532Y114804D01*
X99535Y114799D01*
X99536Y114794D01*
X99592Y114716D01*
X99645Y114638D01*
X99649Y114635D01*
X99652Y114631D01*
X99734Y114580D01*
X99813Y114528D01*
X99818Y114528D01*
X99823Y114525D01*
X100000Y114493D01*
X101452Y114493D01*
X101457Y114494D01*
G37*
G36*
X318575Y69494D02*
X318575Y69494D01*
X318580Y69493D01*
X318673Y69514D01*
X318767Y69532D01*
X318771Y69535D01*
X318776Y69536D01*
X318854Y69592D01*
X318932Y69645D01*
X318935Y69649D01*
X318939Y69652D01*
X318990Y69734D01*
X319042Y69813D01*
X319042Y69818D01*
X319045Y69823D01*
X319077Y70000D01*
X319077Y160000D01*
X319076Y160005D01*
X319077Y160010D01*
X319056Y160103D01*
X319038Y160197D01*
X319035Y160201D01*
X319034Y160206D01*
X318978Y160284D01*
X318925Y160362D01*
X318921Y160365D01*
X318918Y160369D01*
X318836Y160420D01*
X318757Y160472D01*
X318752Y160472D01*
X318747Y160475D01*
X318570Y160507D01*
X250000Y160507D01*
X249995Y160506D01*
X249990Y160507D01*
X249897Y160486D01*
X249804Y160468D01*
X249799Y160465D01*
X249794Y160464D01*
X249716Y160408D01*
X249638Y160355D01*
X249635Y160351D01*
X249631Y160348D01*
X249580Y160266D01*
X249528Y160187D01*
X249528Y160182D01*
X249525Y160177D01*
X249493Y160000D01*
X249493Y70000D01*
X249494Y69995D01*
X249493Y69990D01*
X249514Y69897D01*
X249532Y69804D01*
X249535Y69799D01*
X249536Y69794D01*
X249592Y69716D01*
X249645Y69638D01*
X249649Y69635D01*
X249652Y69631D01*
X249734Y69580D01*
X249813Y69528D01*
X249818Y69528D01*
X249823Y69525D01*
X250000Y69493D01*
X318570Y69493D01*
X318575Y69494D01*
G37*
G36*
X255556Y10932D02*
X255556Y10932D01*
X255620Y10931D01*
X255695Y10952D01*
X255771Y10963D01*
X255830Y10989D01*
X255892Y11006D01*
X255958Y11047D01*
X256028Y11079D01*
X256077Y11121D01*
X256132Y11154D01*
X256184Y11212D01*
X256242Y11262D01*
X256278Y11316D01*
X256321Y11364D01*
X256354Y11433D01*
X256397Y11498D01*
X256416Y11560D01*
X256444Y11617D01*
X256455Y11687D01*
X256479Y11768D01*
X256480Y11853D01*
X256491Y11922D01*
X256491Y33133D01*
X256478Y33228D01*
X256473Y33324D01*
X256458Y33367D01*
X256451Y33412D01*
X256412Y33499D01*
X256380Y33590D01*
X256355Y33625D01*
X256335Y33669D01*
X256252Y33766D01*
X256199Y33839D01*
X253839Y36199D01*
X253763Y36256D01*
X253691Y36321D01*
X253650Y36341D01*
X253614Y36368D01*
X253524Y36402D01*
X253437Y36444D01*
X253395Y36450D01*
X253350Y36467D01*
X253222Y36477D01*
X253133Y36491D01*
X238547Y36491D01*
X236491Y38547D01*
X236491Y45186D01*
X236485Y45228D01*
X236488Y45269D01*
X236468Y45353D01*
X236451Y45466D01*
X236427Y45519D01*
X236415Y45569D01*
X235601Y47534D01*
X235601Y52466D01*
X236415Y54431D01*
X236426Y54472D01*
X236444Y54509D01*
X236457Y54594D01*
X236485Y54704D01*
X236483Y54763D01*
X236491Y54814D01*
X236491Y64487D01*
X236487Y64519D01*
X236489Y64551D01*
X236467Y64658D01*
X236451Y64766D01*
X236438Y64795D01*
X236432Y64827D01*
X236380Y64923D01*
X236335Y65023D01*
X236314Y65047D01*
X236299Y65076D01*
X236223Y65154D01*
X236152Y65237D01*
X236125Y65255D01*
X236102Y65278D01*
X236007Y65332D01*
X235916Y65392D01*
X235885Y65401D01*
X235857Y65417D01*
X235751Y65442D01*
X235646Y65474D01*
X235614Y65474D01*
X235583Y65482D01*
X235473Y65476D01*
X235364Y65478D01*
X235333Y65469D01*
X235301Y65467D01*
X235198Y65432D01*
X235092Y65402D01*
X235065Y65386D01*
X235034Y65375D01*
X234961Y65322D01*
X234852Y65254D01*
X234820Y65218D01*
X234785Y65193D01*
X233842Y64250D01*
X231349Y63217D01*
X228651Y63217D01*
X226158Y64250D01*
X224250Y66158D01*
X223217Y68651D01*
X223217Y71349D01*
X224250Y73842D01*
X225487Y75079D01*
X225544Y75156D01*
X225609Y75227D01*
X225629Y75268D01*
X225656Y75304D01*
X225690Y75394D01*
X225732Y75481D01*
X225738Y75523D01*
X225755Y75568D01*
X225765Y75696D01*
X225779Y75785D01*
X225779Y90258D01*
X227537Y92016D01*
X245492Y92016D01*
X245556Y92025D01*
X245620Y92024D01*
X245695Y92045D01*
X245771Y92056D01*
X245830Y92082D01*
X245892Y92099D01*
X245958Y92140D01*
X246028Y92172D01*
X246077Y92214D01*
X246132Y92247D01*
X246184Y92305D01*
X246242Y92355D01*
X246278Y92409D01*
X246321Y92457D01*
X246354Y92526D01*
X246397Y92591D01*
X246416Y92653D01*
X246444Y92710D01*
X246455Y92780D01*
X246479Y92861D01*
X246480Y92946D01*
X246491Y93015D01*
X246491Y110492D01*
X246482Y110556D01*
X246483Y110620D01*
X246462Y110695D01*
X246451Y110771D01*
X246425Y110830D01*
X246408Y110892D01*
X246367Y110958D01*
X246335Y111028D01*
X246293Y111077D01*
X246260Y111132D01*
X246202Y111184D01*
X246152Y111242D01*
X246098Y111278D01*
X246050Y111321D01*
X245981Y111354D01*
X245916Y111397D01*
X245854Y111416D01*
X245797Y111444D01*
X245727Y111455D01*
X245646Y111479D01*
X245561Y111480D01*
X245492Y111491D01*
X190000Y111491D01*
X189936Y111482D01*
X189872Y111483D01*
X189797Y111462D01*
X189721Y111451D01*
X189662Y111425D01*
X189600Y111408D01*
X189534Y111367D01*
X189464Y111335D01*
X189415Y111293D01*
X189360Y111260D01*
X189308Y111202D01*
X189250Y111152D01*
X189214Y111098D01*
X189171Y111050D01*
X189138Y110981D01*
X189095Y110916D01*
X189076Y110854D01*
X189048Y110797D01*
X189037Y110727D01*
X189013Y110646D01*
X189012Y110561D01*
X189001Y110492D01*
X189001Y86005D01*
X189014Y85910D01*
X189019Y85814D01*
X189034Y85771D01*
X189041Y85726D01*
X189080Y85639D01*
X189112Y85548D01*
X189137Y85513D01*
X189157Y85469D01*
X189240Y85372D01*
X189293Y85299D01*
X190750Y83842D01*
X191783Y81349D01*
X191783Y78651D01*
X190750Y76158D01*
X188842Y74250D01*
X186349Y73217D01*
X183651Y73217D01*
X181158Y74250D01*
X179250Y76158D01*
X178217Y78651D01*
X178217Y81349D01*
X179250Y83842D01*
X180707Y85299D01*
X180764Y85376D01*
X180829Y85447D01*
X180849Y85488D01*
X180876Y85524D01*
X180910Y85614D01*
X180952Y85701D01*
X180958Y85743D01*
X180975Y85788D01*
X180985Y85916D01*
X180999Y86005D01*
X180999Y88254D01*
X180987Y88340D01*
X180984Y88427D01*
X180967Y88479D01*
X180959Y88533D01*
X180924Y88612D01*
X180897Y88695D01*
X180866Y88740D01*
X180843Y88790D01*
X180787Y88856D01*
X180738Y88928D01*
X180696Y88963D01*
X180660Y89005D01*
X180587Y89052D01*
X180520Y89107D01*
X180470Y89129D01*
X180424Y89159D01*
X180341Y89184D01*
X180261Y89219D01*
X180207Y89225D01*
X180154Y89241D01*
X180067Y89243D01*
X179981Y89253D01*
X179927Y89245D01*
X179872Y89245D01*
X179788Y89222D01*
X179703Y89208D01*
X179653Y89185D01*
X179600Y89170D01*
X179527Y89124D01*
X179448Y89087D01*
X179407Y89051D01*
X179360Y89022D01*
X179302Y88957D01*
X179237Y88900D01*
X179211Y88856D01*
X179171Y88813D01*
X179122Y88710D01*
X179077Y88637D01*
X178050Y86158D01*
X176518Y84626D01*
X176464Y84554D01*
X176403Y84488D01*
X176379Y84441D01*
X176349Y84400D01*
X176317Y84316D01*
X176277Y84235D01*
X176269Y84188D01*
X176249Y84136D01*
X176241Y84038D01*
X176236Y84022D01*
X176236Y83996D01*
X176225Y83931D01*
X175956Y62379D01*
X175958Y62363D01*
X175956Y62348D01*
X175976Y62224D01*
X175992Y62099D01*
X175998Y62085D01*
X176001Y62069D01*
X176055Y61956D01*
X176105Y61841D01*
X176115Y61829D01*
X176122Y61815D01*
X176205Y61721D01*
X176286Y61624D01*
X176299Y61616D01*
X176309Y61604D01*
X176384Y61558D01*
X176520Y61467D01*
X176549Y61458D01*
X176573Y61443D01*
X178823Y60511D01*
X182311Y57023D01*
X183577Y53968D01*
X183593Y53940D01*
X183603Y53909D01*
X183665Y53819D01*
X183720Y53725D01*
X183744Y53703D01*
X183762Y53676D01*
X183847Y53607D01*
X183926Y53532D01*
X183955Y53517D01*
X183980Y53497D01*
X184080Y53454D01*
X184178Y53404D01*
X184209Y53398D01*
X184239Y53386D01*
X184347Y53372D01*
X184455Y53352D01*
X184487Y53355D01*
X184519Y53351D01*
X184627Y53368D01*
X184735Y53379D01*
X184765Y53391D01*
X184797Y53396D01*
X184896Y53443D01*
X184997Y53483D01*
X185023Y53503D01*
X185052Y53517D01*
X185134Y53590D01*
X185220Y53657D01*
X185239Y53683D01*
X185263Y53704D01*
X185310Y53782D01*
X185385Y53886D01*
X185401Y53931D01*
X185423Y53968D01*
X186689Y57023D01*
X190177Y60511D01*
X194734Y62399D01*
X199666Y62399D01*
X204223Y60511D01*
X207711Y57023D01*
X209599Y52466D01*
X209599Y47534D01*
X207711Y42977D01*
X204223Y39489D01*
X201168Y38223D01*
X201140Y38207D01*
X201109Y38197D01*
X201019Y38135D01*
X200925Y38080D01*
X200903Y38056D01*
X200876Y38038D01*
X200807Y37954D01*
X200732Y37874D01*
X200717Y37845D01*
X200697Y37820D01*
X200654Y37720D01*
X200604Y37622D01*
X200598Y37591D01*
X200586Y37561D01*
X200572Y37453D01*
X200552Y37345D01*
X200555Y37313D01*
X200551Y37281D01*
X200568Y37173D01*
X200579Y37065D01*
X200591Y37035D01*
X200596Y37003D01*
X200643Y36904D01*
X200683Y36803D01*
X200703Y36777D01*
X200717Y36748D01*
X200790Y36666D01*
X200857Y36580D01*
X200883Y36561D01*
X200904Y36537D01*
X200982Y36490D01*
X201086Y36415D01*
X201131Y36399D01*
X201168Y36377D01*
X204223Y35111D01*
X207711Y31623D01*
X208977Y28568D01*
X208993Y28540D01*
X209003Y28509D01*
X209065Y28419D01*
X209120Y28325D01*
X209144Y28303D01*
X209162Y28276D01*
X209247Y28207D01*
X209326Y28132D01*
X209355Y28117D01*
X209380Y28097D01*
X209480Y28054D01*
X209578Y28004D01*
X209609Y27998D01*
X209639Y27986D01*
X209747Y27972D01*
X209855Y27952D01*
X209887Y27955D01*
X209919Y27951D01*
X210027Y27968D01*
X210135Y27979D01*
X210165Y27991D01*
X210197Y27996D01*
X210296Y28043D01*
X210397Y28083D01*
X210423Y28103D01*
X210452Y28117D01*
X210534Y28190D01*
X210620Y28257D01*
X210639Y28283D01*
X210663Y28304D01*
X210710Y28382D01*
X210785Y28486D01*
X210801Y28531D01*
X210823Y28568D01*
X212089Y31623D01*
X215577Y35111D01*
X220134Y36999D01*
X225066Y36999D01*
X229623Y35111D01*
X233111Y31623D01*
X234999Y27066D01*
X234999Y22134D01*
X233111Y17577D01*
X229623Y14089D01*
X226621Y12845D01*
X226546Y12801D01*
X226467Y12765D01*
X226425Y12730D01*
X226378Y12702D01*
X226319Y12638D01*
X226253Y12582D01*
X226223Y12536D01*
X226185Y12496D01*
X226146Y12419D01*
X226098Y12346D01*
X226082Y12293D01*
X226057Y12244D01*
X226041Y12159D01*
X226016Y12076D01*
X226015Y12021D01*
X226005Y11967D01*
X226013Y11881D01*
X226012Y11794D01*
X226027Y11741D01*
X226032Y11687D01*
X226064Y11606D01*
X226087Y11522D01*
X226116Y11475D01*
X226136Y11425D01*
X226190Y11356D01*
X226235Y11282D01*
X226276Y11246D01*
X226310Y11202D01*
X226380Y11151D01*
X226445Y11093D01*
X226494Y11069D01*
X226539Y11037D01*
X226620Y11008D01*
X226699Y10970D01*
X226749Y10962D01*
X226804Y10943D01*
X226918Y10936D01*
X227003Y10923D01*
X255492Y10923D01*
X255556Y10932D01*
G37*
G36*
X318575Y10924D02*
X318575Y10924D01*
X318580Y10923D01*
X318673Y10944D01*
X318767Y10962D01*
X318771Y10965D01*
X318776Y10966D01*
X318854Y11022D01*
X318932Y11075D01*
X318935Y11079D01*
X318939Y11082D01*
X318990Y11164D01*
X319042Y11243D01*
X319042Y11248D01*
X319045Y11253D01*
X319077Y11430D01*
X319077Y65000D01*
X319076Y65005D01*
X319077Y65010D01*
X319056Y65103D01*
X319038Y65197D01*
X319035Y65201D01*
X319034Y65206D01*
X318978Y65284D01*
X318925Y65362D01*
X318921Y65365D01*
X318918Y65369D01*
X318836Y65420D01*
X318757Y65472D01*
X318752Y65472D01*
X318747Y65475D01*
X318570Y65507D01*
X316208Y65507D01*
X316203Y65506D01*
X316198Y65507D01*
X316105Y65486D01*
X316011Y65468D01*
X316007Y65465D01*
X316002Y65464D01*
X315924Y65408D01*
X315846Y65355D01*
X315843Y65351D01*
X315839Y65348D01*
X315788Y65266D01*
X315736Y65187D01*
X315736Y65182D01*
X315733Y65177D01*
X315701Y65000D01*
X315701Y64552D01*
X313943Y62794D01*
X286057Y62794D01*
X284299Y64552D01*
X284299Y65000D01*
X284298Y65005D01*
X284299Y65010D01*
X284278Y65103D01*
X284260Y65197D01*
X284257Y65201D01*
X284256Y65206D01*
X284200Y65284D01*
X284147Y65362D01*
X284143Y65365D01*
X284140Y65369D01*
X284058Y65420D01*
X283979Y65472D01*
X283974Y65472D01*
X283969Y65475D01*
X283792Y65507D01*
X240000Y65507D01*
X239995Y65506D01*
X239990Y65507D01*
X239897Y65486D01*
X239804Y65468D01*
X239799Y65465D01*
X239794Y65464D01*
X239716Y65408D01*
X239638Y65355D01*
X239635Y65351D01*
X239631Y65348D01*
X239580Y65266D01*
X239528Y65187D01*
X239528Y65182D01*
X239525Y65177D01*
X239493Y65000D01*
X239493Y40000D01*
X239494Y39995D01*
X239493Y39990D01*
X239514Y39897D01*
X239532Y39804D01*
X239535Y39799D01*
X239536Y39794D01*
X239592Y39716D01*
X239645Y39638D01*
X239649Y39635D01*
X239652Y39631D01*
X239734Y39580D01*
X239813Y39528D01*
X239818Y39528D01*
X239823Y39525D01*
X240000Y39493D01*
X254790Y39493D01*
X259493Y34790D01*
X259493Y29354D01*
X259495Y29345D01*
X259493Y29336D01*
X259531Y29160D01*
X260399Y27066D01*
X260399Y22134D01*
X259531Y20040D01*
X259530Y20031D01*
X259525Y20023D01*
X259493Y19846D01*
X259493Y11430D01*
X259494Y11425D01*
X259493Y11420D01*
X259514Y11327D01*
X259532Y11233D01*
X259535Y11229D01*
X259536Y11224D01*
X259592Y11146D01*
X259645Y11068D01*
X259649Y11065D01*
X259652Y11061D01*
X259734Y11010D01*
X259813Y10958D01*
X259818Y10958D01*
X259823Y10955D01*
X260000Y10923D01*
X318570Y10923D01*
X318575Y10924D01*
G37*
%LPC*%
G36*
X156537Y227984D02*
X156537Y227984D01*
X154779Y229742D01*
X154779Y230623D01*
X154775Y230655D01*
X154777Y230687D01*
X154755Y230794D01*
X154739Y230902D01*
X154726Y230932D01*
X154720Y230963D01*
X154668Y231060D01*
X154623Y231159D01*
X154602Y231184D01*
X154587Y231212D01*
X154511Y231291D01*
X154440Y231374D01*
X154413Y231391D01*
X154390Y231414D01*
X154295Y231468D01*
X154204Y231528D01*
X154173Y231538D01*
X154145Y231553D01*
X154039Y231579D01*
X153934Y231610D01*
X153902Y231611D01*
X153871Y231618D01*
X153761Y231613D01*
X153652Y231614D01*
X153621Y231606D01*
X153589Y231604D01*
X153486Y231568D01*
X153380Y231539D01*
X153353Y231522D01*
X153322Y231512D01*
X153249Y231458D01*
X153140Y231391D01*
X153108Y231355D01*
X153073Y231330D01*
X151243Y229499D01*
X133757Y229499D01*
X131999Y231257D01*
X131999Y248743D01*
X133757Y250501D01*
X151243Y250501D01*
X153073Y248670D01*
X153099Y248651D01*
X153120Y248626D01*
X153212Y248566D01*
X153299Y248501D01*
X153329Y248490D01*
X153356Y248472D01*
X153461Y248440D01*
X153563Y248401D01*
X153595Y248399D01*
X153626Y248390D01*
X153735Y248388D01*
X153844Y248380D01*
X153876Y248386D01*
X153908Y248386D01*
X154013Y248415D01*
X154120Y248437D01*
X154149Y248452D01*
X154180Y248461D01*
X154273Y248518D01*
X154369Y248570D01*
X154392Y248592D01*
X154420Y248609D01*
X154493Y248690D01*
X154571Y248766D01*
X154587Y248794D01*
X154609Y248818D01*
X154656Y248917D01*
X154710Y249012D01*
X154718Y249043D01*
X154732Y249072D01*
X154746Y249161D01*
X154775Y249286D01*
X154773Y249335D01*
X154779Y249377D01*
X154779Y250258D01*
X156537Y252016D01*
X175023Y252016D01*
X176781Y250258D01*
X176781Y229742D01*
X175023Y227984D01*
X156537Y227984D01*
G37*
%LPD*%
%LPC*%
G36*
X98757Y229499D02*
X98757Y229499D01*
X96999Y231257D01*
X96999Y248743D01*
X98757Y250501D01*
X116243Y250501D01*
X118001Y248743D01*
X118001Y231257D01*
X116243Y229499D01*
X98757Y229499D01*
G37*
%LPD*%
%LPC*%
G36*
X113651Y148217D02*
X113651Y148217D01*
X111158Y149250D01*
X109250Y151158D01*
X108217Y153651D01*
X108217Y156349D01*
X109250Y158842D01*
X110835Y160427D01*
X110839Y160433D01*
X110845Y160438D01*
X110894Y160517D01*
X110946Y160594D01*
X110947Y160602D01*
X110951Y160608D01*
X110983Y160786D01*
X110983Y161764D01*
X111751Y162531D01*
X111755Y162538D01*
X111761Y162542D01*
X111810Y162621D01*
X111862Y162698D01*
X111863Y162706D01*
X111867Y162713D01*
X111899Y162890D01*
X111899Y171743D01*
X113657Y173501D01*
X127143Y173501D01*
X128901Y171743D01*
X128901Y159257D01*
X127143Y157499D01*
X122065Y157499D01*
X122062Y157498D01*
X122058Y157499D01*
X121964Y157479D01*
X121869Y157460D01*
X121866Y157457D01*
X121862Y157457D01*
X121783Y157401D01*
X121703Y157347D01*
X121701Y157344D01*
X121698Y157341D01*
X121646Y157259D01*
X121594Y157179D01*
X121593Y157175D01*
X121591Y157172D01*
X121575Y157076D01*
X121558Y156982D01*
X121559Y156978D01*
X121559Y156974D01*
X121597Y156798D01*
X121783Y156349D01*
X121783Y153651D01*
X120750Y151158D01*
X118842Y149250D01*
X118109Y148946D01*
X116884Y148439D01*
X116349Y148217D01*
X113651Y148217D01*
G37*
%LPD*%
%LPC*%
G36*
X49090Y184395D02*
X49090Y184395D01*
X45559Y185858D01*
X42858Y188559D01*
X41395Y192089D01*
X41395Y195910D01*
X42858Y199441D01*
X45559Y202142D01*
X49090Y203605D01*
X52910Y203605D01*
X56441Y202142D01*
X59142Y199441D01*
X60605Y195910D01*
X60605Y192089D01*
X59142Y188559D01*
X56441Y185858D01*
X52910Y184395D01*
X49090Y184395D01*
G37*
%LPD*%
%LPC*%
G36*
X49090Y209287D02*
X49090Y209287D01*
X45559Y210750D01*
X42858Y213451D01*
X41395Y216981D01*
X41395Y220802D01*
X42858Y224333D01*
X45559Y227034D01*
X49090Y228497D01*
X52910Y228497D01*
X56441Y227034D01*
X59142Y224333D01*
X60605Y220802D01*
X60605Y216981D01*
X59142Y213451D01*
X56441Y210750D01*
X52910Y209287D01*
X49090Y209287D01*
G37*
%LPD*%
%LPC*%
G36*
X249957Y193217D02*
X249957Y193217D01*
X247464Y194250D01*
X245556Y196158D01*
X244523Y198651D01*
X244523Y201349D01*
X245556Y203842D01*
X247464Y205750D01*
X247674Y205837D01*
X247675Y205837D01*
X248899Y206345D01*
X249957Y206783D01*
X252655Y206783D01*
X255148Y205750D01*
X257056Y203842D01*
X258089Y201349D01*
X258089Y198651D01*
X257056Y196158D01*
X255148Y194250D01*
X254766Y194091D01*
X254765Y194091D01*
X253541Y193584D01*
X252655Y193217D01*
X249957Y193217D01*
G37*
%LPD*%
%LPC*%
G36*
X209957Y193217D02*
X209957Y193217D01*
X207464Y194250D01*
X205556Y196158D01*
X204523Y198651D01*
X204523Y201349D01*
X205556Y203842D01*
X207464Y205750D01*
X207674Y205837D01*
X207675Y205837D01*
X208899Y206345D01*
X209957Y206783D01*
X212655Y206783D01*
X215148Y205750D01*
X217056Y203842D01*
X218089Y201349D01*
X218089Y198651D01*
X217056Y196158D01*
X215148Y194250D01*
X214766Y194091D01*
X214765Y194091D01*
X213541Y193584D01*
X212655Y193217D01*
X209957Y193217D01*
G37*
%LPD*%
%LPC*%
G36*
X213651Y148217D02*
X213651Y148217D01*
X211158Y149250D01*
X209250Y151158D01*
X208217Y153651D01*
X208217Y156349D01*
X209250Y158842D01*
X211158Y160750D01*
X212242Y161199D01*
X212243Y161199D01*
X213467Y161707D01*
X213651Y161783D01*
X216349Y161783D01*
X218842Y160750D01*
X220750Y158842D01*
X221783Y156349D01*
X221783Y153651D01*
X220750Y151158D01*
X218842Y149250D01*
X218109Y148946D01*
X216884Y148439D01*
X216349Y148217D01*
X213651Y148217D01*
G37*
%LPD*%
%LPC*%
G36*
X211015Y130015D02*
X211015Y130015D01*
X211015Y139541D01*
X219335Y139541D01*
X219981Y139368D01*
X220560Y139033D01*
X221033Y138560D01*
X221368Y137981D01*
X221541Y137335D01*
X221541Y130015D01*
X211015Y130015D01*
G37*
%LPD*%
%LPC*%
G36*
X198459Y130015D02*
X198459Y130015D01*
X198459Y137335D01*
X198632Y137981D01*
X198967Y138560D01*
X199440Y139033D01*
X200019Y139368D01*
X200665Y139541D01*
X208985Y139541D01*
X208985Y130015D01*
X198459Y130015D01*
G37*
%LPD*%
%LPC*%
G36*
X211015Y118459D02*
X211015Y118459D01*
X211015Y127985D01*
X221541Y127985D01*
X221541Y120665D01*
X221368Y120019D01*
X221033Y119440D01*
X220560Y118967D01*
X219981Y118632D01*
X219335Y118459D01*
X211015Y118459D01*
G37*
%LPD*%
%LPC*%
G36*
X200665Y118459D02*
X200665Y118459D01*
X200019Y118632D01*
X199440Y118967D01*
X198967Y119440D01*
X198632Y120019D01*
X198459Y120665D01*
X198459Y127985D01*
X208985Y127985D01*
X208985Y118459D01*
X200665Y118459D01*
G37*
%LPD*%
%LPC*%
G36*
X296515Y198415D02*
X296515Y198415D01*
X296515Y207446D01*
X297860Y207233D01*
X299370Y206742D01*
X300783Y206022D01*
X302067Y205089D01*
X303189Y203967D01*
X304122Y202683D01*
X304842Y201270D01*
X305333Y199760D01*
X305546Y198415D01*
X296515Y198415D01*
G37*
%LPD*%
%LPC*%
G36*
X285454Y198415D02*
X285454Y198415D01*
X285667Y199760D01*
X286158Y201270D01*
X286878Y202683D01*
X287811Y203967D01*
X288933Y205089D01*
X290217Y206022D01*
X291630Y206742D01*
X293140Y207233D01*
X294485Y207446D01*
X294485Y198415D01*
X285454Y198415D01*
G37*
%LPD*%
%LPC*%
G36*
X296515Y196385D02*
X296515Y196385D01*
X305546Y196385D01*
X305333Y195040D01*
X304842Y193530D01*
X304122Y192117D01*
X303189Y190833D01*
X302067Y189711D01*
X300783Y188778D01*
X299370Y188058D01*
X297860Y187567D01*
X296515Y187354D01*
X296515Y196385D01*
G37*
%LPD*%
%LPC*%
G36*
X293140Y187567D02*
X293140Y187567D01*
X291630Y188058D01*
X290217Y188778D01*
X288933Y189711D01*
X287811Y190833D01*
X286878Y192117D01*
X286158Y193530D01*
X285667Y195040D01*
X285454Y196385D01*
X294485Y196385D01*
X294485Y187354D01*
X293140Y187567D01*
G37*
%LPD*%
%LPC*%
G36*
X121415Y183515D02*
X121415Y183515D01*
X121415Y190041D01*
X126235Y190041D01*
X126881Y189868D01*
X127460Y189533D01*
X127933Y189060D01*
X128268Y188481D01*
X128441Y187835D01*
X128441Y183515D01*
X121415Y183515D01*
G37*
%LPD*%
%LPC*%
G36*
X112359Y183515D02*
X112359Y183515D01*
X112359Y187835D01*
X112532Y188481D01*
X112867Y189060D01*
X113340Y189533D01*
X113919Y189868D01*
X114565Y190041D01*
X119385Y190041D01*
X119385Y183515D01*
X112359Y183515D01*
G37*
%LPD*%
%LPC*%
G36*
X161215Y174959D02*
X161215Y174959D01*
X161215Y181485D01*
X168241Y181485D01*
X168241Y177165D01*
X168068Y176519D01*
X167733Y175940D01*
X167260Y175467D01*
X166681Y175132D01*
X166035Y174959D01*
X161215Y174959D01*
G37*
%LPD*%
%LPC*%
G36*
X121415Y174959D02*
X121415Y174959D01*
X121415Y181485D01*
X128441Y181485D01*
X128441Y177165D01*
X128268Y176519D01*
X127933Y175940D01*
X127460Y175467D01*
X126881Y175132D01*
X126235Y174959D01*
X121415Y174959D01*
G37*
%LPD*%
%LPC*%
G36*
X141615Y157459D02*
X141615Y157459D01*
X141615Y164485D01*
X148141Y164485D01*
X148141Y159665D01*
X147968Y159019D01*
X147633Y158440D01*
X147160Y157967D01*
X146581Y157632D01*
X145935Y157459D01*
X141615Y157459D01*
G37*
%LPD*%
%LPC*%
G36*
X135265Y157459D02*
X135265Y157459D01*
X134619Y157632D01*
X134040Y157967D01*
X133567Y158440D01*
X133232Y159019D01*
X133059Y159665D01*
X133059Y164485D01*
X139585Y164485D01*
X139585Y157459D01*
X135265Y157459D01*
G37*
%LPD*%
%LPC*%
G36*
X154365Y174959D02*
X154365Y174959D01*
X153719Y175132D01*
X153140Y175467D01*
X152667Y175940D01*
X152332Y176519D01*
X152159Y177165D01*
X152159Y181485D01*
X159185Y181485D01*
X159185Y174959D01*
X154365Y174959D01*
G37*
%LPD*%
%LPC*%
G36*
X114565Y174959D02*
X114565Y174959D01*
X113919Y175132D01*
X113340Y175467D01*
X112867Y175940D01*
X112532Y176519D01*
X112359Y177165D01*
X112359Y181485D01*
X119385Y181485D01*
X119385Y174959D01*
X114565Y174959D01*
G37*
%LPD*%
%LPC*%
G36*
X295499Y197399D02*
X295499Y197399D01*
X295499Y197401D01*
X295501Y197401D01*
X295501Y197399D01*
X295499Y197399D01*
G37*
%LPD*%
%LPC*%
G36*
X209999Y128999D02*
X209999Y128999D01*
X209999Y129001D01*
X210001Y129001D01*
X210001Y128999D01*
X209999Y128999D01*
G37*
%LPD*%
%LPC*%
G36*
X120399Y182499D02*
X120399Y182499D01*
X120399Y182501D01*
X120401Y182501D01*
X120401Y182499D01*
X120399Y182499D01*
G37*
%LPD*%
D10*
X179800Y165500D03*
X179800Y182500D03*
X199000Y165500D03*
X199000Y182500D03*
X140600Y165500D03*
X140600Y182500D03*
D11*
X120400Y182500D03*
X120400Y165500D03*
X160200Y182500D03*
X160200Y165500D03*
D12*
X51000Y194000D03*
X51000Y218892D03*
X51000Y244038D03*
D10*
X68500Y285000D03*
X51500Y285000D03*
D13*
X295500Y146600D03*
D14*
X295500Y172000D03*
X295500Y197400D03*
D15*
X236000Y101000D03*
X264000Y101000D03*
D16*
X210000Y101000D03*
X210000Y129000D03*
D17*
X170000Y105780D03*
X170000Y134220D03*
D11*
X110000Y111500D03*
X110000Y128500D03*
D18*
X151000Y120000D03*
X129000Y129500D03*
X129000Y110500D03*
D10*
X68500Y310000D03*
X51500Y310000D03*
X33500Y310000D03*
X16500Y310000D03*
X33500Y285000D03*
X16500Y285000D03*
D19*
X300000Y78495D03*
X300000Y31505D03*
D20*
X265220Y80000D03*
X236780Y80000D03*
D21*
X237500Y240000D03*
X272500Y240000D03*
D20*
X194220Y240000D03*
X165780Y240000D03*
D21*
X107500Y240000D03*
X142500Y240000D03*
D22*
X75000Y150000D03*
X20000Y150000D03*
X110000Y75000D03*
X20000Y110000D03*
D23*
X248000Y50000D03*
X248000Y24600D03*
X222600Y50000D03*
X222600Y24600D03*
X197200Y50000D03*
X197200Y24600D03*
X171800Y50000D03*
X171800Y24600D03*
X146400Y50000D03*
X146400Y24600D03*
X121000Y50000D03*
X121000Y24600D03*
X101000Y280000D03*
X101000Y305400D03*
X126400Y280000D03*
X126400Y305400D03*
X151800Y280000D03*
X151800Y305400D03*
X177200Y280000D03*
X177200Y305400D03*
X202600Y280000D03*
X202600Y305400D03*
X228000Y280000D03*
X228000Y305400D03*
D24*
X95000Y182380D03*
X95000Y197620D03*
D25*
X120400Y182500D02*
X137400Y165500D01*
X140600Y165500D01*
X157600Y182500D01*
X160200Y182500D01*
D26*
X145000Y140000D03*
D25*
X140600Y144400D01*
X140600Y165500D01*
X128000Y111500D02*
X110000Y111500D01*
X128000Y111500D02*
X129000Y110500D01*
X201000Y129000D02*
X210000Y129000D01*
X201000Y129000D02*
X200000Y130000D01*
D26*
X200000Y130000D03*
D27*
X140600Y122100D02*
X129000Y110500D01*
X140600Y122100D02*
X140600Y130000D01*
X140600Y144400D01*
D25*
X140600Y182500D02*
X140600Y190600D01*
X145000Y195000D01*
X150000Y195000D01*
X180000Y195000D02*
X190000Y195000D01*
X195000Y195000D01*
X199000Y191000D01*
X199000Y182500D01*
X179800Y182500D02*
X179800Y194800D01*
X180000Y195000D01*
D26*
X215000Y155000D03*
X190000Y195000D03*
X150000Y195000D03*
D25*
X180000Y195000D01*
X16500Y285000D02*
X16500Y288500D01*
X15000Y290000D01*
D26*
X15000Y290000D03*
D25*
X210000Y101000D02*
X225000Y101000D01*
X236000Y101000D01*
D26*
X225000Y101000D03*
D27*
X231306Y233806D02*
X237500Y240000D01*
X231306Y233806D02*
X231306Y200000D01*
D26*
X231306Y200000D03*
X251306Y200000D03*
X211306Y200000D03*
D27*
X170000Y105780D02*
X172300Y103480D01*
X172300Y90000D01*
X171800Y50000D01*
X194220Y240000D02*
X225000Y240000D01*
X225000Y220000D01*
D26*
X225000Y220000D03*
X172300Y90000D03*
X195000Y165000D03*
D27*
X198500Y165000D02*
X199000Y165500D01*
X198500Y165000D02*
X195000Y165000D01*
D26*
X155000Y140000D03*
D25*
X155000Y160300D01*
X160200Y165500D01*
X111000Y129500D02*
X110000Y128500D01*
X111000Y129500D02*
X129000Y129500D01*
D27*
X101822Y129500D01*
X101322Y130000D01*
D26*
X101322Y130000D03*
X130000Y140000D03*
D25*
X95000Y140000D02*
X95000Y182380D01*
D26*
X95000Y140000D03*
D25*
X95000Y75000D01*
X110000Y75000D01*
D27*
X120000Y50000D02*
X121000Y50000D01*
X120000Y50000D02*
X120000Y75000D01*
X110000Y75000D01*
D26*
X115000Y155000D03*
D25*
X115000Y160100D01*
X120400Y165500D01*
X51500Y244538D02*
X51500Y285000D01*
X51500Y244538D02*
X51000Y244038D01*
D26*
X175000Y165000D03*
D25*
X175500Y165500D01*
X179800Y165500D01*
D27*
X185000Y160300D01*
X185000Y80000D01*
D26*
X185000Y80000D03*
X145000Y80000D03*
D27*
X146900Y78100D01*
X146400Y50000D01*
D25*
X151000Y120000D02*
X165220Y134220D01*
X170000Y134220D01*
X51500Y310000D02*
X33500Y310000D01*
X33500Y293000D02*
X33500Y285000D01*
X33500Y293000D02*
X16500Y310000D01*
D27*
X236780Y80000D02*
X230000Y73220D01*
X230000Y70000D01*
D26*
X230000Y70000D03*
X240000Y220000D03*
D27*
X270000Y220000D01*
X272500Y222500D01*
X272500Y240000D01*
X165780Y240000D02*
X142500Y240000D01*
D25*
X68500Y285000D02*
X68500Y310000D01*
X68500Y285000D02*
X70880Y282620D01*
X70880Y197620D01*
X95000Y197620D01*
M02*
