G04 EAGLE Gerber RS-274X export*
G75*
%MOMM*%
%FSLAX34Y34*%
%LPD*%
%IN*%
%IPPOS*%
%AMOC8*
5,1,8,0,0,1.08239X$1,22.5*%
G01*
%ADD10C,0.254000*%


D10*
X0Y10000D02*
X38Y9128D01*
X152Y8264D01*
X341Y7412D01*
X603Y6580D01*
X937Y5774D01*
X1340Y5000D01*
X1808Y4264D01*
X2340Y3572D01*
X2929Y2929D01*
X3572Y2340D01*
X4264Y1808D01*
X5000Y1340D01*
X5774Y937D01*
X6580Y603D01*
X7412Y341D01*
X8264Y152D01*
X9128Y38D01*
X10000Y0D01*
X320000Y0D01*
X320872Y38D01*
X321736Y152D01*
X322588Y341D01*
X323420Y603D01*
X324226Y937D01*
X325000Y1340D01*
X325736Y1808D01*
X326428Y2340D01*
X327071Y2929D01*
X327660Y3572D01*
X328192Y4264D01*
X328660Y5000D01*
X329063Y5774D01*
X329397Y6580D01*
X329659Y7412D01*
X329848Y8264D01*
X329962Y9128D01*
X330000Y10000D01*
X330000Y320000D01*
X329962Y320872D01*
X329848Y321736D01*
X329659Y322588D01*
X329397Y323420D01*
X329063Y324226D01*
X328660Y325000D01*
X328192Y325736D01*
X327660Y326428D01*
X327071Y327071D01*
X326428Y327660D01*
X325736Y328192D01*
X325000Y328660D01*
X324226Y329063D01*
X323420Y329397D01*
X322588Y329659D01*
X321736Y329848D01*
X320872Y329962D01*
X320000Y330000D01*
X10000Y330000D01*
X9128Y329962D01*
X8264Y329848D01*
X7412Y329659D01*
X6580Y329397D01*
X5774Y329063D01*
X5000Y328660D01*
X4264Y328192D01*
X3572Y327660D01*
X2929Y327071D01*
X2340Y326428D01*
X1808Y325736D01*
X1340Y325000D01*
X937Y324226D01*
X603Y323420D01*
X341Y322588D01*
X152Y321736D01*
X38Y320872D01*
X0Y320000D01*
X0Y10000D01*
X21500Y39394D02*
X21579Y38186D01*
X21737Y36985D01*
X21974Y35797D01*
X22287Y34627D01*
X22676Y33480D01*
X23140Y32361D01*
X23676Y31275D01*
X24281Y30226D01*
X24954Y29218D01*
X25692Y28257D01*
X26490Y27347D01*
X27347Y26490D01*
X28257Y25692D01*
X29218Y24954D01*
X30226Y24281D01*
X31275Y23676D01*
X32361Y23140D01*
X33480Y22676D01*
X34627Y22287D01*
X35797Y21974D01*
X36985Y21737D01*
X38186Y21579D01*
X39394Y21500D01*
X40606Y21500D01*
X41814Y21579D01*
X43015Y21737D01*
X44203Y21974D01*
X45373Y22287D01*
X46520Y22676D01*
X47639Y23140D01*
X48726Y23676D01*
X49775Y24281D01*
X50782Y24954D01*
X51743Y25692D01*
X52653Y26490D01*
X53510Y27347D01*
X54308Y28257D01*
X55046Y29218D01*
X55719Y30226D01*
X56324Y31275D01*
X56860Y32361D01*
X57324Y33480D01*
X57713Y34627D01*
X58026Y35797D01*
X58263Y36985D01*
X58421Y38186D01*
X58500Y39394D01*
X58500Y40606D01*
X58421Y41814D01*
X58263Y43015D01*
X58026Y44203D01*
X57713Y45373D01*
X57324Y46520D01*
X56860Y47639D01*
X56324Y48726D01*
X55719Y49775D01*
X55046Y50782D01*
X54308Y51743D01*
X53510Y52653D01*
X52653Y53510D01*
X51743Y54308D01*
X50782Y55046D01*
X49775Y55719D01*
X48726Y56324D01*
X47639Y56860D01*
X46520Y57324D01*
X45373Y57713D01*
X44203Y58026D01*
X43015Y58263D01*
X41814Y58421D01*
X40606Y58500D01*
X39394Y58500D01*
X38186Y58421D01*
X36985Y58263D01*
X35797Y58026D01*
X34627Y57713D01*
X33480Y57324D01*
X32361Y56860D01*
X31275Y56324D01*
X30226Y55719D01*
X29218Y55046D01*
X28257Y54308D01*
X27347Y53510D01*
X26490Y52653D01*
X25692Y51743D01*
X24954Y50782D01*
X24281Y49775D01*
X23676Y48726D01*
X23140Y47639D01*
X22676Y46520D01*
X22287Y45373D01*
X21974Y44203D01*
X21737Y43015D01*
X21579Y41814D01*
X21500Y40606D01*
X21500Y39394D01*
X271500Y289394D02*
X271579Y288186D01*
X271737Y286985D01*
X271974Y285797D01*
X272287Y284627D01*
X272676Y283480D01*
X273140Y282361D01*
X273676Y281275D01*
X274281Y280226D01*
X274954Y279218D01*
X275692Y278257D01*
X276490Y277347D01*
X277347Y276490D01*
X278257Y275692D01*
X279218Y274954D01*
X280226Y274281D01*
X281275Y273676D01*
X282361Y273140D01*
X283480Y272676D01*
X284627Y272287D01*
X285797Y271974D01*
X286985Y271737D01*
X288186Y271579D01*
X289394Y271500D01*
X290606Y271500D01*
X291814Y271579D01*
X293015Y271737D01*
X294203Y271974D01*
X295373Y272287D01*
X296520Y272676D01*
X297639Y273140D01*
X298726Y273676D01*
X299775Y274281D01*
X300782Y274954D01*
X301743Y275692D01*
X302653Y276490D01*
X303510Y277347D01*
X304308Y278257D01*
X305046Y279218D01*
X305719Y280226D01*
X306324Y281275D01*
X306860Y282361D01*
X307324Y283480D01*
X307713Y284627D01*
X308026Y285797D01*
X308263Y286985D01*
X308421Y288186D01*
X308500Y289394D01*
X308500Y290606D01*
X308421Y291814D01*
X308263Y293015D01*
X308026Y294203D01*
X307713Y295373D01*
X307324Y296520D01*
X306860Y297639D01*
X306324Y298726D01*
X305719Y299775D01*
X305046Y300782D01*
X304308Y301743D01*
X303510Y302653D01*
X302653Y303510D01*
X301743Y304308D01*
X300782Y305046D01*
X299775Y305719D01*
X298726Y306324D01*
X297639Y306860D01*
X296520Y307324D01*
X295373Y307713D01*
X294203Y308026D01*
X293015Y308263D01*
X291814Y308421D01*
X290606Y308500D01*
X289394Y308500D01*
X288186Y308421D01*
X286985Y308263D01*
X285797Y308026D01*
X284627Y307713D01*
X283480Y307324D01*
X282361Y306860D01*
X281275Y306324D01*
X280226Y305719D01*
X279218Y305046D01*
X278257Y304308D01*
X277347Y303510D01*
X276490Y302653D01*
X275692Y301743D01*
X274954Y300782D01*
X274281Y299775D01*
X273676Y298726D01*
X273140Y297639D01*
X272676Y296520D01*
X272287Y295373D01*
X271974Y294203D01*
X271737Y293015D01*
X271579Y291814D01*
X271500Y290606D01*
X271500Y289394D01*
M02*
