G04 EAGLE Gerber RS-274X export*
G75*
%MOMM*%
%FSLAX34Y34*%
%LPD*%
%INSilkscreen Bottom*%
%IPPOS*%
%AMOC8*
5,1,8,0,0,1.08239X$1,22.5*%
G01*
%ADD10C,0.076200*%
%ADD11C,0.152400*%
%ADD12C,0.508000*%
%ADD13C,0.203200*%

G36*
X198657Y140082D02*
X198657Y140082D01*
X198659Y140081D01*
X198702Y140101D01*
X198746Y140119D01*
X198746Y140121D01*
X198748Y140122D01*
X198781Y140207D01*
X198781Y142747D01*
X198780Y142749D01*
X198781Y142751D01*
X198761Y142794D01*
X198743Y142838D01*
X198741Y142838D01*
X198740Y142840D01*
X198655Y142873D01*
X194845Y142873D01*
X194843Y142872D01*
X194841Y142873D01*
X194798Y142853D01*
X194754Y142835D01*
X194754Y142833D01*
X194752Y142832D01*
X194719Y142747D01*
X194719Y140207D01*
X194720Y140205D01*
X194719Y140203D01*
X194739Y140160D01*
X194757Y140116D01*
X194759Y140116D01*
X194760Y140114D01*
X194845Y140081D01*
X198655Y140081D01*
X198657Y140082D01*
G37*
D10*
X305881Y13191D02*
X315119Y13191D01*
X311013Y13191D02*
X311013Y18323D01*
X315119Y18323D02*
X305881Y18323D01*
X305881Y25057D02*
X315119Y21977D01*
X315119Y28136D02*
X305881Y25057D01*
X305881Y37057D02*
X315119Y37057D01*
X305881Y36030D02*
X305881Y38083D01*
X315119Y38083D02*
X315119Y36030D01*
X305881Y44470D02*
X305883Y44560D01*
X305889Y44649D01*
X305899Y44738D01*
X305912Y44826D01*
X305930Y44914D01*
X305951Y45001D01*
X305976Y45087D01*
X306005Y45172D01*
X306037Y45256D01*
X306073Y45338D01*
X306113Y45418D01*
X306156Y45497D01*
X306203Y45573D01*
X306252Y45648D01*
X306305Y45720D01*
X306361Y45790D01*
X306420Y45857D01*
X306482Y45922D01*
X306547Y45984D01*
X306614Y46043D01*
X306684Y46099D01*
X306756Y46152D01*
X306831Y46201D01*
X306908Y46248D01*
X306986Y46291D01*
X307066Y46331D01*
X307148Y46367D01*
X307232Y46399D01*
X307317Y46428D01*
X307403Y46453D01*
X307490Y46474D01*
X307578Y46492D01*
X307666Y46505D01*
X307755Y46515D01*
X307844Y46521D01*
X307934Y46523D01*
X305881Y44470D02*
X305883Y44343D01*
X305888Y44216D01*
X305898Y44090D01*
X305911Y43964D01*
X305927Y43838D01*
X305948Y43713D01*
X305972Y43588D01*
X305999Y43465D01*
X306030Y43342D01*
X306065Y43220D01*
X306103Y43099D01*
X306145Y42979D01*
X306191Y42861D01*
X306239Y42744D01*
X306292Y42628D01*
X306347Y42514D01*
X306406Y42402D01*
X306468Y42291D01*
X306533Y42182D01*
X306602Y42076D01*
X306673Y41971D01*
X306748Y41868D01*
X306826Y41768D01*
X306906Y41670D01*
X306989Y41574D01*
X307075Y41481D01*
X307164Y41390D01*
X313066Y41647D02*
X313156Y41649D01*
X313245Y41655D01*
X313334Y41665D01*
X313423Y41678D01*
X313510Y41696D01*
X313597Y41717D01*
X313683Y41742D01*
X313768Y41771D01*
X313852Y41803D01*
X313934Y41839D01*
X314014Y41879D01*
X314093Y41922D01*
X314169Y41969D01*
X314244Y42018D01*
X314316Y42071D01*
X314386Y42127D01*
X314453Y42186D01*
X314518Y42248D01*
X314580Y42313D01*
X314639Y42380D01*
X314695Y42450D01*
X314748Y42522D01*
X314797Y42597D01*
X314844Y42674D01*
X314887Y42752D01*
X314927Y42832D01*
X314963Y42914D01*
X314995Y42998D01*
X315024Y43083D01*
X315049Y43169D01*
X315070Y43256D01*
X315088Y43344D01*
X315101Y43432D01*
X315111Y43521D01*
X315117Y43610D01*
X315119Y43700D01*
X315117Y43824D01*
X315111Y43948D01*
X315101Y44071D01*
X315087Y44194D01*
X315069Y44317D01*
X315047Y44438D01*
X315022Y44560D01*
X314992Y44680D01*
X314959Y44799D01*
X314921Y44917D01*
X314880Y45034D01*
X314836Y45149D01*
X314787Y45263D01*
X314735Y45376D01*
X314679Y45486D01*
X314620Y45595D01*
X314557Y45702D01*
X314491Y45807D01*
X314422Y45909D01*
X314349Y46009D01*
X311270Y42673D02*
X311317Y42597D01*
X311368Y42522D01*
X311422Y42450D01*
X311479Y42380D01*
X311539Y42313D01*
X311602Y42248D01*
X311667Y42186D01*
X311735Y42127D01*
X311806Y42071D01*
X311879Y42018D01*
X311954Y41968D01*
X312032Y41922D01*
X312111Y41879D01*
X312192Y41839D01*
X312275Y41803D01*
X312359Y41771D01*
X312444Y41742D01*
X312531Y41717D01*
X312619Y41696D01*
X312707Y41678D01*
X312796Y41665D01*
X312886Y41655D01*
X312976Y41649D01*
X313066Y41647D01*
X309730Y45496D02*
X309683Y45573D01*
X309632Y45648D01*
X309578Y45720D01*
X309521Y45790D01*
X309461Y45857D01*
X309398Y45922D01*
X309333Y45984D01*
X309265Y46043D01*
X309194Y46099D01*
X309121Y46152D01*
X309046Y46202D01*
X308968Y46248D01*
X308889Y46291D01*
X308808Y46331D01*
X308725Y46367D01*
X308641Y46399D01*
X308556Y46428D01*
X308469Y46453D01*
X308382Y46474D01*
X308293Y46492D01*
X308204Y46505D01*
X308114Y46515D01*
X308024Y46521D01*
X307934Y46523D01*
X309730Y45496D02*
X311270Y42674D01*
X312553Y50091D02*
X308447Y50091D01*
X312553Y50091D02*
X312652Y50093D01*
X312752Y50099D01*
X312851Y50108D01*
X312949Y50122D01*
X313047Y50139D01*
X313145Y50160D01*
X313241Y50185D01*
X313336Y50214D01*
X313431Y50246D01*
X313523Y50282D01*
X313615Y50321D01*
X313705Y50364D01*
X313793Y50410D01*
X313879Y50460D01*
X313963Y50513D01*
X314045Y50569D01*
X314125Y50629D01*
X314202Y50691D01*
X314277Y50757D01*
X314350Y50825D01*
X314419Y50896D01*
X314486Y50970D01*
X314550Y51046D01*
X314611Y51125D01*
X314669Y51206D01*
X314724Y51289D01*
X314775Y51374D01*
X314823Y51461D01*
X314868Y51550D01*
X314909Y51641D01*
X314947Y51733D01*
X314981Y51826D01*
X315011Y51921D01*
X315038Y52017D01*
X315061Y52114D01*
X315080Y52211D01*
X315095Y52310D01*
X315107Y52409D01*
X315115Y52508D01*
X315119Y52607D01*
X315119Y52707D01*
X315115Y52806D01*
X315107Y52905D01*
X315095Y53004D01*
X315080Y53103D01*
X315061Y53200D01*
X315038Y53297D01*
X315011Y53393D01*
X314981Y53488D01*
X314947Y53581D01*
X314909Y53673D01*
X314868Y53764D01*
X314823Y53853D01*
X314775Y53940D01*
X314724Y54025D01*
X314669Y54108D01*
X314611Y54189D01*
X314550Y54268D01*
X314486Y54344D01*
X314419Y54418D01*
X314350Y54489D01*
X314277Y54557D01*
X314202Y54623D01*
X314125Y54685D01*
X314045Y54745D01*
X313963Y54801D01*
X313879Y54854D01*
X313793Y54904D01*
X313705Y54950D01*
X313615Y54993D01*
X313523Y55032D01*
X313431Y55068D01*
X313336Y55100D01*
X313241Y55129D01*
X313145Y55154D01*
X313047Y55175D01*
X312949Y55192D01*
X312851Y55206D01*
X312752Y55215D01*
X312652Y55221D01*
X312553Y55223D01*
X308447Y55223D01*
X308348Y55221D01*
X308248Y55215D01*
X308149Y55206D01*
X308051Y55192D01*
X307953Y55175D01*
X307855Y55154D01*
X307759Y55129D01*
X307664Y55100D01*
X307569Y55068D01*
X307477Y55032D01*
X307385Y54993D01*
X307295Y54950D01*
X307207Y54904D01*
X307121Y54854D01*
X307037Y54801D01*
X306955Y54745D01*
X306875Y54685D01*
X306798Y54623D01*
X306723Y54557D01*
X306650Y54489D01*
X306581Y54418D01*
X306514Y54344D01*
X306450Y54268D01*
X306389Y54189D01*
X306331Y54108D01*
X306276Y54025D01*
X306225Y53940D01*
X306177Y53853D01*
X306132Y53764D01*
X306091Y53673D01*
X306053Y53581D01*
X306019Y53488D01*
X305989Y53393D01*
X305962Y53297D01*
X305939Y53200D01*
X305920Y53103D01*
X305905Y53004D01*
X305893Y52905D01*
X305885Y52806D01*
X305881Y52707D01*
X305881Y52607D01*
X305885Y52508D01*
X305893Y52409D01*
X305905Y52310D01*
X305920Y52211D01*
X305939Y52114D01*
X305962Y52017D01*
X305989Y51921D01*
X306019Y51826D01*
X306053Y51733D01*
X306091Y51641D01*
X306132Y51550D01*
X306177Y51461D01*
X306225Y51374D01*
X306276Y51289D01*
X306331Y51206D01*
X306389Y51125D01*
X306450Y51046D01*
X306514Y50970D01*
X306581Y50896D01*
X306650Y50825D01*
X306723Y50757D01*
X306798Y50691D01*
X306875Y50629D01*
X306955Y50569D01*
X307037Y50513D01*
X307121Y50460D01*
X307207Y50410D01*
X307295Y50364D01*
X307385Y50321D01*
X307477Y50282D01*
X307569Y50246D01*
X307664Y50214D01*
X307759Y50185D01*
X307855Y50160D01*
X307953Y50139D01*
X308051Y50122D01*
X308149Y50108D01*
X308248Y50099D01*
X308348Y50093D01*
X308447Y50091D01*
X305881Y65918D02*
X305881Y67971D01*
X305881Y65918D02*
X305883Y65828D01*
X305889Y65739D01*
X305899Y65650D01*
X305912Y65562D01*
X305930Y65474D01*
X305951Y65387D01*
X305976Y65301D01*
X306005Y65216D01*
X306037Y65132D01*
X306073Y65050D01*
X306113Y64970D01*
X306156Y64892D01*
X306203Y64815D01*
X306252Y64740D01*
X306305Y64668D01*
X306361Y64598D01*
X306420Y64531D01*
X306482Y64466D01*
X306547Y64404D01*
X306614Y64345D01*
X306684Y64289D01*
X306756Y64236D01*
X306831Y64187D01*
X306908Y64140D01*
X306986Y64097D01*
X307066Y64057D01*
X307148Y64021D01*
X307232Y63989D01*
X307317Y63960D01*
X307403Y63935D01*
X307490Y63914D01*
X307578Y63896D01*
X307666Y63883D01*
X307755Y63873D01*
X307844Y63867D01*
X307934Y63865D01*
X313066Y63865D01*
X313156Y63867D01*
X313245Y63873D01*
X313334Y63883D01*
X313422Y63896D01*
X313510Y63914D01*
X313597Y63935D01*
X313683Y63960D01*
X313768Y63989D01*
X313852Y64021D01*
X313934Y64057D01*
X314014Y64097D01*
X314092Y64140D01*
X314169Y64187D01*
X314244Y64236D01*
X314316Y64289D01*
X314386Y64345D01*
X314453Y64404D01*
X314518Y64466D01*
X314580Y64531D01*
X314639Y64598D01*
X314695Y64668D01*
X314748Y64740D01*
X314797Y64815D01*
X314844Y64891D01*
X314887Y64970D01*
X314927Y65050D01*
X314963Y65132D01*
X314995Y65216D01*
X315024Y65301D01*
X315049Y65387D01*
X315070Y65474D01*
X315088Y65561D01*
X315101Y65650D01*
X315111Y65739D01*
X315117Y65828D01*
X315119Y65918D01*
X315119Y67971D01*
X312040Y71604D02*
X307421Y71604D01*
X307421Y71603D02*
X307345Y71605D01*
X307270Y71610D01*
X307195Y71620D01*
X307121Y71633D01*
X307047Y71649D01*
X306974Y71669D01*
X306902Y71693D01*
X306832Y71720D01*
X306763Y71751D01*
X306695Y71785D01*
X306629Y71822D01*
X306565Y71863D01*
X306504Y71906D01*
X306444Y71953D01*
X306387Y72002D01*
X306332Y72054D01*
X306280Y72109D01*
X306231Y72166D01*
X306184Y72226D01*
X306141Y72287D01*
X306100Y72351D01*
X306063Y72417D01*
X306029Y72485D01*
X305998Y72554D01*
X305971Y72624D01*
X305947Y72696D01*
X305927Y72769D01*
X305911Y72843D01*
X305898Y72917D01*
X305888Y72992D01*
X305883Y73067D01*
X305881Y73143D01*
X305881Y75709D01*
X312040Y75709D01*
X312040Y80055D02*
X305881Y80055D01*
X312040Y80055D02*
X312040Y83134D01*
X311013Y83134D01*
X312040Y86355D02*
X305881Y86355D01*
X312040Y86355D02*
X312040Y89434D01*
X311013Y89434D01*
X305881Y93843D02*
X305881Y96409D01*
X305881Y93843D02*
X305883Y93767D01*
X305888Y93692D01*
X305898Y93617D01*
X305911Y93543D01*
X305927Y93469D01*
X305947Y93396D01*
X305971Y93324D01*
X305998Y93254D01*
X306029Y93185D01*
X306063Y93117D01*
X306100Y93051D01*
X306141Y92987D01*
X306184Y92926D01*
X306231Y92866D01*
X306280Y92809D01*
X306332Y92754D01*
X306387Y92702D01*
X306444Y92653D01*
X306504Y92606D01*
X306565Y92563D01*
X306629Y92522D01*
X306695Y92485D01*
X306763Y92451D01*
X306832Y92420D01*
X306902Y92393D01*
X306974Y92369D01*
X307047Y92349D01*
X307121Y92333D01*
X307195Y92320D01*
X307270Y92310D01*
X307345Y92305D01*
X307421Y92303D01*
X307421Y92304D02*
X309987Y92304D01*
X310077Y92306D01*
X310166Y92312D01*
X310255Y92322D01*
X310343Y92335D01*
X310431Y92353D01*
X310518Y92374D01*
X310604Y92399D01*
X310689Y92428D01*
X310773Y92460D01*
X310855Y92496D01*
X310935Y92536D01*
X311014Y92579D01*
X311090Y92626D01*
X311165Y92675D01*
X311237Y92728D01*
X311307Y92784D01*
X311374Y92843D01*
X311439Y92905D01*
X311501Y92970D01*
X311560Y93037D01*
X311616Y93107D01*
X311669Y93179D01*
X311718Y93254D01*
X311765Y93331D01*
X311808Y93409D01*
X311848Y93489D01*
X311884Y93571D01*
X311916Y93655D01*
X311945Y93740D01*
X311970Y93826D01*
X311991Y93913D01*
X312009Y94001D01*
X312022Y94089D01*
X312032Y94178D01*
X312038Y94267D01*
X312040Y94357D01*
X312038Y94447D01*
X312032Y94536D01*
X312022Y94625D01*
X312009Y94713D01*
X311991Y94801D01*
X311970Y94888D01*
X311945Y94974D01*
X311916Y95059D01*
X311884Y95143D01*
X311848Y95225D01*
X311808Y95305D01*
X311765Y95384D01*
X311718Y95460D01*
X311669Y95535D01*
X311616Y95607D01*
X311560Y95677D01*
X311501Y95744D01*
X311439Y95809D01*
X311374Y95871D01*
X311307Y95930D01*
X311237Y95986D01*
X311165Y96039D01*
X311090Y96088D01*
X311014Y96135D01*
X310935Y96178D01*
X310855Y96218D01*
X310773Y96254D01*
X310689Y96286D01*
X310604Y96315D01*
X310518Y96340D01*
X310431Y96361D01*
X310343Y96379D01*
X310255Y96392D01*
X310166Y96402D01*
X310077Y96408D01*
X309987Y96410D01*
X309987Y96409D02*
X308960Y96409D01*
X308960Y92304D01*
X305881Y100404D02*
X312040Y100404D01*
X312040Y102970D01*
X312038Y103046D01*
X312033Y103121D01*
X312023Y103196D01*
X312010Y103270D01*
X311994Y103344D01*
X311974Y103417D01*
X311950Y103489D01*
X311923Y103559D01*
X311892Y103628D01*
X311858Y103696D01*
X311821Y103762D01*
X311780Y103826D01*
X311737Y103887D01*
X311690Y103947D01*
X311641Y104004D01*
X311589Y104059D01*
X311534Y104111D01*
X311477Y104160D01*
X311417Y104207D01*
X311356Y104250D01*
X311292Y104291D01*
X311226Y104328D01*
X311158Y104362D01*
X311089Y104393D01*
X311019Y104420D01*
X310947Y104444D01*
X310874Y104464D01*
X310800Y104480D01*
X310726Y104493D01*
X310651Y104503D01*
X310576Y104508D01*
X310500Y104510D01*
X310500Y104509D02*
X305881Y104509D01*
X312040Y107746D02*
X312040Y110825D01*
X315119Y108772D02*
X307421Y108772D01*
X307345Y108774D01*
X307270Y108779D01*
X307195Y108789D01*
X307121Y108802D01*
X307047Y108818D01*
X306974Y108838D01*
X306902Y108862D01*
X306832Y108889D01*
X306763Y108920D01*
X306695Y108954D01*
X306629Y108991D01*
X306565Y109032D01*
X306504Y109075D01*
X306444Y109122D01*
X306387Y109171D01*
X306332Y109223D01*
X306280Y109278D01*
X306231Y109335D01*
X306184Y109395D01*
X306141Y109456D01*
X306100Y109520D01*
X306063Y109586D01*
X306029Y109654D01*
X305998Y109723D01*
X305971Y109793D01*
X305947Y109865D01*
X305927Y109938D01*
X305911Y110012D01*
X305898Y110086D01*
X305888Y110161D01*
X305883Y110236D01*
X305881Y110312D01*
X305881Y110825D01*
X300119Y22427D02*
X290881Y22427D01*
X294987Y25507D02*
X300119Y22427D01*
X294987Y25507D02*
X300119Y28586D01*
X290881Y28586D01*
X292934Y32754D02*
X294987Y32754D01*
X295077Y32756D01*
X295166Y32762D01*
X295255Y32772D01*
X295343Y32785D01*
X295431Y32803D01*
X295518Y32824D01*
X295604Y32849D01*
X295689Y32878D01*
X295773Y32910D01*
X295855Y32946D01*
X295935Y32986D01*
X296014Y33029D01*
X296090Y33076D01*
X296165Y33125D01*
X296237Y33178D01*
X296307Y33234D01*
X296374Y33293D01*
X296439Y33355D01*
X296501Y33420D01*
X296560Y33487D01*
X296616Y33557D01*
X296669Y33629D01*
X296718Y33704D01*
X296765Y33781D01*
X296808Y33859D01*
X296848Y33939D01*
X296884Y34021D01*
X296916Y34105D01*
X296945Y34190D01*
X296970Y34276D01*
X296991Y34363D01*
X297009Y34451D01*
X297022Y34539D01*
X297032Y34628D01*
X297038Y34717D01*
X297040Y34807D01*
X297038Y34897D01*
X297032Y34986D01*
X297022Y35075D01*
X297009Y35163D01*
X296991Y35251D01*
X296970Y35338D01*
X296945Y35424D01*
X296916Y35509D01*
X296884Y35593D01*
X296848Y35675D01*
X296808Y35755D01*
X296765Y35833D01*
X296718Y35910D01*
X296669Y35985D01*
X296616Y36057D01*
X296560Y36127D01*
X296501Y36194D01*
X296439Y36259D01*
X296374Y36321D01*
X296307Y36380D01*
X296237Y36436D01*
X296165Y36489D01*
X296090Y36538D01*
X296014Y36585D01*
X295935Y36628D01*
X295855Y36668D01*
X295773Y36704D01*
X295689Y36736D01*
X295604Y36765D01*
X295518Y36790D01*
X295431Y36811D01*
X295343Y36829D01*
X295255Y36842D01*
X295166Y36852D01*
X295077Y36858D01*
X294987Y36860D01*
X292934Y36860D01*
X292844Y36858D01*
X292755Y36852D01*
X292666Y36842D01*
X292578Y36829D01*
X292490Y36811D01*
X292403Y36790D01*
X292317Y36765D01*
X292232Y36736D01*
X292148Y36704D01*
X292066Y36668D01*
X291986Y36628D01*
X291908Y36585D01*
X291831Y36538D01*
X291756Y36489D01*
X291684Y36436D01*
X291614Y36380D01*
X291547Y36321D01*
X291482Y36259D01*
X291420Y36194D01*
X291361Y36127D01*
X291305Y36057D01*
X291252Y35985D01*
X291203Y35910D01*
X291156Y35834D01*
X291113Y35755D01*
X291073Y35675D01*
X291037Y35593D01*
X291005Y35509D01*
X290976Y35424D01*
X290951Y35338D01*
X290930Y35251D01*
X290912Y35163D01*
X290899Y35075D01*
X290889Y34986D01*
X290883Y34897D01*
X290881Y34807D01*
X290883Y34717D01*
X290889Y34628D01*
X290899Y34539D01*
X290912Y34451D01*
X290930Y34363D01*
X290951Y34276D01*
X290976Y34190D01*
X291005Y34105D01*
X291037Y34021D01*
X291073Y33939D01*
X291113Y33859D01*
X291156Y33781D01*
X291203Y33704D01*
X291252Y33629D01*
X291305Y33557D01*
X291361Y33487D01*
X291420Y33420D01*
X291482Y33355D01*
X291547Y33293D01*
X291614Y33234D01*
X291684Y33178D01*
X291756Y33125D01*
X291831Y33076D01*
X291908Y33029D01*
X291986Y32986D01*
X292066Y32946D01*
X292148Y32910D01*
X292232Y32878D01*
X292317Y32849D01*
X292403Y32824D01*
X292490Y32803D01*
X292578Y32785D01*
X292666Y32772D01*
X292755Y32762D01*
X292844Y32756D01*
X292934Y32754D01*
X290881Y40854D02*
X297040Y40854D01*
X297040Y43420D01*
X297038Y43496D01*
X297033Y43571D01*
X297023Y43646D01*
X297010Y43720D01*
X296994Y43794D01*
X296974Y43867D01*
X296950Y43939D01*
X296923Y44009D01*
X296892Y44078D01*
X296858Y44146D01*
X296821Y44212D01*
X296780Y44276D01*
X296737Y44337D01*
X296690Y44397D01*
X296641Y44454D01*
X296589Y44509D01*
X296534Y44561D01*
X296477Y44610D01*
X296417Y44657D01*
X296356Y44700D01*
X296292Y44741D01*
X296226Y44778D01*
X296158Y44812D01*
X296089Y44843D01*
X296019Y44870D01*
X295947Y44894D01*
X295874Y44914D01*
X295800Y44930D01*
X295726Y44943D01*
X295651Y44953D01*
X295576Y44958D01*
X295500Y44960D01*
X290881Y44960D01*
X290881Y48907D02*
X297040Y48907D01*
X299606Y48650D02*
X300119Y48650D01*
X300119Y49163D01*
X299606Y49163D01*
X299606Y48650D01*
X297040Y51796D02*
X297040Y54875D01*
X300119Y52822D02*
X292421Y52822D01*
X292345Y52824D01*
X292270Y52829D01*
X292195Y52839D01*
X292121Y52852D01*
X292047Y52868D01*
X291974Y52888D01*
X291902Y52912D01*
X291832Y52939D01*
X291763Y52970D01*
X291695Y53004D01*
X291629Y53041D01*
X291565Y53082D01*
X291504Y53125D01*
X291444Y53172D01*
X291387Y53221D01*
X291332Y53273D01*
X291280Y53328D01*
X291231Y53385D01*
X291184Y53445D01*
X291141Y53506D01*
X291100Y53570D01*
X291063Y53636D01*
X291029Y53704D01*
X290998Y53773D01*
X290971Y53843D01*
X290947Y53915D01*
X290927Y53988D01*
X290911Y54062D01*
X290898Y54136D01*
X290888Y54211D01*
X290883Y54286D01*
X290881Y54362D01*
X290881Y54875D01*
X292934Y58254D02*
X294987Y58254D01*
X295077Y58256D01*
X295166Y58262D01*
X295255Y58272D01*
X295343Y58285D01*
X295431Y58303D01*
X295518Y58324D01*
X295604Y58349D01*
X295689Y58378D01*
X295773Y58410D01*
X295855Y58446D01*
X295935Y58486D01*
X296014Y58529D01*
X296090Y58576D01*
X296165Y58625D01*
X296237Y58678D01*
X296307Y58734D01*
X296374Y58793D01*
X296439Y58855D01*
X296501Y58920D01*
X296560Y58987D01*
X296616Y59057D01*
X296669Y59129D01*
X296718Y59204D01*
X296765Y59281D01*
X296808Y59359D01*
X296848Y59439D01*
X296884Y59521D01*
X296916Y59605D01*
X296945Y59690D01*
X296970Y59776D01*
X296991Y59863D01*
X297009Y59951D01*
X297022Y60039D01*
X297032Y60128D01*
X297038Y60217D01*
X297040Y60307D01*
X297038Y60397D01*
X297032Y60486D01*
X297022Y60575D01*
X297009Y60663D01*
X296991Y60751D01*
X296970Y60838D01*
X296945Y60924D01*
X296916Y61009D01*
X296884Y61093D01*
X296848Y61175D01*
X296808Y61255D01*
X296765Y61333D01*
X296718Y61410D01*
X296669Y61485D01*
X296616Y61557D01*
X296560Y61627D01*
X296501Y61694D01*
X296439Y61759D01*
X296374Y61821D01*
X296307Y61880D01*
X296237Y61936D01*
X296165Y61989D01*
X296090Y62038D01*
X296014Y62085D01*
X295935Y62128D01*
X295855Y62168D01*
X295773Y62204D01*
X295689Y62236D01*
X295604Y62265D01*
X295518Y62290D01*
X295431Y62311D01*
X295343Y62329D01*
X295255Y62342D01*
X295166Y62352D01*
X295077Y62358D01*
X294987Y62360D01*
X292934Y62360D01*
X292844Y62358D01*
X292755Y62352D01*
X292666Y62342D01*
X292578Y62329D01*
X292490Y62311D01*
X292403Y62290D01*
X292317Y62265D01*
X292232Y62236D01*
X292148Y62204D01*
X292066Y62168D01*
X291986Y62128D01*
X291908Y62085D01*
X291831Y62038D01*
X291756Y61989D01*
X291684Y61936D01*
X291614Y61880D01*
X291547Y61821D01*
X291482Y61759D01*
X291420Y61694D01*
X291361Y61627D01*
X291305Y61557D01*
X291252Y61485D01*
X291203Y61410D01*
X291156Y61334D01*
X291113Y61255D01*
X291073Y61175D01*
X291037Y61093D01*
X291005Y61009D01*
X290976Y60924D01*
X290951Y60838D01*
X290930Y60751D01*
X290912Y60663D01*
X290899Y60575D01*
X290889Y60486D01*
X290883Y60397D01*
X290881Y60307D01*
X290883Y60217D01*
X290889Y60128D01*
X290899Y60039D01*
X290912Y59951D01*
X290930Y59863D01*
X290951Y59776D01*
X290976Y59690D01*
X291005Y59605D01*
X291037Y59521D01*
X291073Y59439D01*
X291113Y59359D01*
X291156Y59281D01*
X291203Y59204D01*
X291252Y59129D01*
X291305Y59057D01*
X291361Y58987D01*
X291420Y58920D01*
X291482Y58855D01*
X291547Y58793D01*
X291614Y58734D01*
X291684Y58678D01*
X291756Y58625D01*
X291831Y58576D01*
X291908Y58529D01*
X291986Y58486D01*
X292066Y58446D01*
X292148Y58410D01*
X292232Y58378D01*
X292317Y58349D01*
X292403Y58324D01*
X292490Y58303D01*
X292578Y58285D01*
X292666Y58272D01*
X292755Y58262D01*
X292844Y58256D01*
X292934Y58254D01*
X290881Y66405D02*
X297040Y66405D01*
X297040Y69484D01*
X296013Y69484D01*
X295500Y77240D02*
X295682Y77242D01*
X295863Y77249D01*
X296045Y77260D01*
X296226Y77275D01*
X296407Y77294D01*
X296587Y77318D01*
X296766Y77346D01*
X296945Y77378D01*
X297123Y77415D01*
X297300Y77456D01*
X297476Y77501D01*
X297651Y77550D01*
X297825Y77604D01*
X297997Y77661D01*
X298168Y77723D01*
X298338Y77789D01*
X298506Y77858D01*
X298672Y77932D01*
X298836Y78010D01*
X298836Y78011D02*
X298915Y78040D01*
X298992Y78072D01*
X299069Y78108D01*
X299143Y78147D01*
X299216Y78190D01*
X299286Y78236D01*
X299355Y78284D01*
X299421Y78336D01*
X299485Y78391D01*
X299547Y78448D01*
X299605Y78508D01*
X299662Y78571D01*
X299715Y78636D01*
X299765Y78703D01*
X299813Y78773D01*
X299857Y78844D01*
X299898Y78918D01*
X299936Y78993D01*
X299970Y79070D01*
X300001Y79148D01*
X300028Y79227D01*
X300052Y79308D01*
X300073Y79390D01*
X300089Y79472D01*
X300102Y79555D01*
X300112Y79639D01*
X300117Y79723D01*
X300119Y79807D01*
X300117Y79891D01*
X300112Y79975D01*
X300102Y80059D01*
X300089Y80142D01*
X300073Y80224D01*
X300052Y80306D01*
X300028Y80387D01*
X300001Y80466D01*
X299970Y80544D01*
X299936Y80621D01*
X299898Y80696D01*
X299857Y80770D01*
X299813Y80841D01*
X299765Y80911D01*
X299715Y80978D01*
X299662Y81043D01*
X299605Y81106D01*
X299546Y81166D01*
X299485Y81223D01*
X299421Y81278D01*
X299355Y81330D01*
X299286Y81378D01*
X299216Y81424D01*
X299143Y81467D01*
X299068Y81506D01*
X298992Y81542D01*
X298915Y81574D01*
X298836Y81603D01*
X298672Y81681D01*
X298506Y81755D01*
X298338Y81824D01*
X298168Y81890D01*
X297997Y81952D01*
X297825Y82009D01*
X297651Y82063D01*
X297476Y82112D01*
X297300Y82157D01*
X297123Y82198D01*
X296945Y82235D01*
X296766Y82267D01*
X296587Y82295D01*
X296407Y82319D01*
X296226Y82338D01*
X296045Y82353D01*
X295863Y82364D01*
X295682Y82371D01*
X295500Y82373D01*
X295500Y77241D02*
X295318Y77243D01*
X295137Y77250D01*
X294955Y77261D01*
X294774Y77276D01*
X294593Y77295D01*
X294413Y77319D01*
X294234Y77347D01*
X294055Y77379D01*
X293877Y77416D01*
X293700Y77457D01*
X293524Y77502D01*
X293349Y77551D01*
X293175Y77605D01*
X293003Y77662D01*
X292832Y77724D01*
X292662Y77790D01*
X292495Y77859D01*
X292328Y77933D01*
X292164Y78011D01*
X292085Y78040D01*
X292008Y78072D01*
X291931Y78108D01*
X291857Y78147D01*
X291784Y78190D01*
X291714Y78236D01*
X291645Y78284D01*
X291579Y78336D01*
X291515Y78391D01*
X291453Y78448D01*
X291395Y78508D01*
X291338Y78571D01*
X291285Y78636D01*
X291235Y78703D01*
X291187Y78773D01*
X291143Y78844D01*
X291102Y78918D01*
X291064Y78993D01*
X291030Y79070D01*
X290999Y79148D01*
X290972Y79227D01*
X290948Y79308D01*
X290927Y79390D01*
X290911Y79472D01*
X290898Y79555D01*
X290888Y79639D01*
X290883Y79723D01*
X290881Y79807D01*
X292164Y81603D02*
X292328Y81681D01*
X292494Y81755D01*
X292662Y81824D01*
X292832Y81890D01*
X293003Y81952D01*
X293175Y82009D01*
X293349Y82063D01*
X293524Y82112D01*
X293700Y82157D01*
X293877Y82198D01*
X294055Y82235D01*
X294234Y82267D01*
X294413Y82295D01*
X294593Y82319D01*
X294774Y82338D01*
X294955Y82353D01*
X295137Y82364D01*
X295318Y82371D01*
X295500Y82373D01*
X292164Y81603D02*
X292085Y81574D01*
X292008Y81542D01*
X291931Y81506D01*
X291857Y81467D01*
X291784Y81424D01*
X291714Y81378D01*
X291645Y81330D01*
X291579Y81278D01*
X291515Y81223D01*
X291453Y81166D01*
X291395Y81106D01*
X291338Y81043D01*
X291285Y80978D01*
X291235Y80911D01*
X291187Y80841D01*
X291143Y80770D01*
X291102Y80696D01*
X291064Y80621D01*
X291030Y80544D01*
X290999Y80466D01*
X290972Y80387D01*
X290948Y80306D01*
X290927Y80224D01*
X290911Y80142D01*
X290898Y80059D01*
X290888Y79975D01*
X290883Y79891D01*
X290881Y79807D01*
X292934Y77754D02*
X298066Y81860D01*
X291394Y85850D02*
X290881Y85850D01*
X291394Y85850D02*
X291394Y86363D01*
X290881Y86363D01*
X290881Y85850D01*
X295500Y89840D02*
X295682Y89842D01*
X295863Y89849D01*
X296045Y89860D01*
X296226Y89875D01*
X296407Y89894D01*
X296587Y89918D01*
X296766Y89946D01*
X296945Y89978D01*
X297123Y90015D01*
X297300Y90056D01*
X297476Y90101D01*
X297651Y90150D01*
X297825Y90204D01*
X297997Y90261D01*
X298168Y90323D01*
X298338Y90389D01*
X298506Y90458D01*
X298672Y90532D01*
X298836Y90610D01*
X298836Y90611D02*
X298915Y90640D01*
X298992Y90672D01*
X299069Y90708D01*
X299143Y90747D01*
X299216Y90790D01*
X299286Y90836D01*
X299355Y90884D01*
X299421Y90936D01*
X299485Y90991D01*
X299547Y91048D01*
X299605Y91108D01*
X299662Y91171D01*
X299715Y91236D01*
X299765Y91303D01*
X299813Y91373D01*
X299857Y91444D01*
X299898Y91518D01*
X299936Y91593D01*
X299970Y91670D01*
X300001Y91748D01*
X300028Y91827D01*
X300052Y91908D01*
X300073Y91990D01*
X300089Y92072D01*
X300102Y92155D01*
X300112Y92239D01*
X300117Y92323D01*
X300119Y92407D01*
X300117Y92491D01*
X300112Y92575D01*
X300102Y92659D01*
X300089Y92742D01*
X300073Y92824D01*
X300052Y92906D01*
X300028Y92987D01*
X300001Y93066D01*
X299970Y93144D01*
X299936Y93221D01*
X299898Y93296D01*
X299857Y93370D01*
X299813Y93441D01*
X299765Y93511D01*
X299715Y93578D01*
X299662Y93643D01*
X299605Y93706D01*
X299546Y93766D01*
X299485Y93823D01*
X299421Y93878D01*
X299355Y93930D01*
X299286Y93978D01*
X299216Y94024D01*
X299143Y94067D01*
X299068Y94106D01*
X298992Y94142D01*
X298915Y94174D01*
X298836Y94203D01*
X298672Y94281D01*
X298506Y94355D01*
X298338Y94424D01*
X298168Y94490D01*
X297997Y94552D01*
X297825Y94609D01*
X297651Y94663D01*
X297476Y94712D01*
X297300Y94757D01*
X297123Y94798D01*
X296945Y94835D01*
X296766Y94867D01*
X296587Y94895D01*
X296407Y94919D01*
X296226Y94938D01*
X296045Y94953D01*
X295863Y94964D01*
X295682Y94971D01*
X295500Y94973D01*
X295500Y89841D02*
X295318Y89843D01*
X295137Y89850D01*
X294955Y89861D01*
X294774Y89876D01*
X294593Y89895D01*
X294413Y89919D01*
X294234Y89947D01*
X294055Y89979D01*
X293877Y90016D01*
X293700Y90057D01*
X293524Y90102D01*
X293349Y90151D01*
X293175Y90205D01*
X293003Y90262D01*
X292832Y90324D01*
X292662Y90390D01*
X292495Y90459D01*
X292328Y90533D01*
X292164Y90611D01*
X292085Y90640D01*
X292008Y90672D01*
X291931Y90708D01*
X291857Y90747D01*
X291784Y90790D01*
X291714Y90836D01*
X291645Y90884D01*
X291579Y90936D01*
X291515Y90991D01*
X291453Y91048D01*
X291395Y91108D01*
X291338Y91171D01*
X291285Y91236D01*
X291235Y91303D01*
X291187Y91373D01*
X291143Y91444D01*
X291102Y91518D01*
X291064Y91593D01*
X291030Y91670D01*
X290999Y91748D01*
X290972Y91827D01*
X290948Y91908D01*
X290927Y91990D01*
X290911Y92072D01*
X290898Y92155D01*
X290888Y92239D01*
X290883Y92323D01*
X290881Y92407D01*
X292164Y94203D02*
X292328Y94281D01*
X292494Y94355D01*
X292662Y94424D01*
X292832Y94490D01*
X293003Y94552D01*
X293175Y94609D01*
X293349Y94663D01*
X293524Y94712D01*
X293700Y94757D01*
X293877Y94798D01*
X294055Y94835D01*
X294234Y94867D01*
X294413Y94895D01*
X294593Y94919D01*
X294774Y94938D01*
X294955Y94953D01*
X295137Y94964D01*
X295318Y94971D01*
X295500Y94973D01*
X292164Y94203D02*
X292085Y94174D01*
X292008Y94142D01*
X291931Y94106D01*
X291857Y94067D01*
X291784Y94024D01*
X291714Y93978D01*
X291645Y93930D01*
X291579Y93878D01*
X291515Y93823D01*
X291453Y93766D01*
X291395Y93706D01*
X291338Y93643D01*
X291285Y93578D01*
X291235Y93511D01*
X291187Y93441D01*
X291143Y93370D01*
X291102Y93296D01*
X291064Y93221D01*
X291030Y93144D01*
X290999Y93066D01*
X290972Y92987D01*
X290948Y92906D01*
X290927Y92824D01*
X290911Y92742D01*
X290898Y92659D01*
X290888Y92575D01*
X290883Y92491D01*
X290881Y92407D01*
X292934Y90354D02*
X298066Y94459D01*
X291394Y98450D02*
X290881Y98450D01*
X291394Y98450D02*
X291394Y98963D01*
X290881Y98963D01*
X290881Y98450D01*
X298066Y102440D02*
X300119Y105006D01*
X290881Y105006D01*
X290881Y102440D02*
X290881Y107573D01*
X108414Y250549D02*
X104435Y250549D01*
X108414Y250549D02*
X111399Y248228D01*
X108414Y250549D02*
X111399Y252871D01*
X108414Y250549D02*
X107088Y246902D01*
X108414Y250549D02*
X107088Y254197D01*
D11*
X218594Y241116D02*
X218594Y162884D01*
X215292Y162884D01*
X111406Y162884D02*
X111406Y241116D01*
X114708Y241116D01*
X215292Y241116D02*
X218594Y241116D01*
X114708Y162884D02*
X111406Y162884D01*
D10*
X194531Y169615D02*
X194531Y174921D01*
X194531Y169615D02*
X206469Y169615D01*
X206469Y174921D01*
X201163Y173594D02*
X201163Y169615D01*
X206469Y179521D02*
X194531Y179521D01*
X206469Y179521D02*
X206469Y184827D01*
X201163Y184827D02*
X201163Y179521D01*
X197847Y189407D02*
X206469Y189407D01*
X197847Y189407D02*
X197733Y189409D01*
X197618Y189415D01*
X197504Y189425D01*
X197391Y189439D01*
X197277Y189456D01*
X197165Y189478D01*
X197053Y189503D01*
X196943Y189533D01*
X196833Y189566D01*
X196725Y189603D01*
X196618Y189643D01*
X196512Y189688D01*
X196408Y189735D01*
X196306Y189787D01*
X196206Y189842D01*
X196107Y189900D01*
X196011Y189962D01*
X195916Y190027D01*
X195825Y190095D01*
X195735Y190167D01*
X195648Y190241D01*
X195564Y190318D01*
X195482Y190399D01*
X195403Y190482D01*
X195327Y190567D01*
X195254Y190656D01*
X195185Y190746D01*
X195118Y190839D01*
X195055Y190935D01*
X194995Y191032D01*
X194938Y191132D01*
X194885Y191233D01*
X194835Y191336D01*
X194789Y191441D01*
X194746Y191547D01*
X194708Y191655D01*
X194673Y191764D01*
X194642Y191874D01*
X194614Y191985D01*
X194591Y192097D01*
X194571Y192210D01*
X194555Y192323D01*
X194543Y192437D01*
X194535Y192551D01*
X194531Y192666D01*
X194531Y192780D01*
X194535Y192895D01*
X194543Y193009D01*
X194555Y193123D01*
X194571Y193236D01*
X194591Y193349D01*
X194614Y193461D01*
X194642Y193572D01*
X194673Y193682D01*
X194708Y193791D01*
X194746Y193899D01*
X194789Y194005D01*
X194835Y194110D01*
X194885Y194213D01*
X194938Y194314D01*
X194995Y194414D01*
X195055Y194511D01*
X195118Y194607D01*
X195185Y194700D01*
X195254Y194790D01*
X195327Y194879D01*
X195403Y194964D01*
X195482Y195047D01*
X195564Y195128D01*
X195648Y195205D01*
X195735Y195279D01*
X195825Y195351D01*
X195916Y195419D01*
X196011Y195484D01*
X196107Y195546D01*
X196206Y195604D01*
X196306Y195659D01*
X196408Y195711D01*
X196512Y195758D01*
X196618Y195803D01*
X196725Y195843D01*
X196833Y195880D01*
X196943Y195913D01*
X197053Y195943D01*
X197165Y195968D01*
X197277Y195990D01*
X197391Y196007D01*
X197504Y196021D01*
X197618Y196031D01*
X197733Y196037D01*
X197847Y196039D01*
X206469Y196039D01*
X197184Y207469D02*
X197082Y207467D01*
X196981Y207461D01*
X196880Y207451D01*
X196779Y207438D01*
X196679Y207420D01*
X196580Y207399D01*
X196481Y207374D01*
X196384Y207345D01*
X196287Y207313D01*
X196192Y207277D01*
X196099Y207237D01*
X196007Y207194D01*
X195917Y207147D01*
X195828Y207096D01*
X195742Y207043D01*
X195658Y206986D01*
X195576Y206926D01*
X195496Y206863D01*
X195419Y206797D01*
X195344Y206728D01*
X195272Y206656D01*
X195203Y206581D01*
X195137Y206504D01*
X195074Y206424D01*
X195014Y206342D01*
X194957Y206258D01*
X194904Y206172D01*
X194853Y206083D01*
X194806Y205993D01*
X194763Y205901D01*
X194723Y205808D01*
X194687Y205713D01*
X194655Y205616D01*
X194626Y205519D01*
X194601Y205420D01*
X194580Y205321D01*
X194562Y205221D01*
X194549Y205120D01*
X194539Y205019D01*
X194533Y204918D01*
X194531Y204816D01*
X194533Y204669D01*
X194539Y204521D01*
X194548Y204374D01*
X194562Y204227D01*
X194579Y204081D01*
X194601Y203935D01*
X194626Y203789D01*
X194655Y203645D01*
X194687Y203501D01*
X194724Y203358D01*
X194764Y203216D01*
X194808Y203075D01*
X194856Y202936D01*
X194907Y202798D01*
X194962Y202661D01*
X195021Y202525D01*
X195083Y202391D01*
X195148Y202259D01*
X195217Y202129D01*
X195290Y202000D01*
X195365Y201874D01*
X195444Y201749D01*
X195527Y201627D01*
X195612Y201507D01*
X195701Y201389D01*
X195793Y201274D01*
X195887Y201160D01*
X195985Y201050D01*
X196086Y200942D01*
X196189Y200837D01*
X203816Y201169D02*
X203918Y201171D01*
X204019Y201177D01*
X204120Y201187D01*
X204221Y201200D01*
X204321Y201218D01*
X204420Y201239D01*
X204519Y201264D01*
X204616Y201293D01*
X204713Y201325D01*
X204808Y201361D01*
X204901Y201401D01*
X204993Y201444D01*
X205083Y201491D01*
X205172Y201542D01*
X205258Y201595D01*
X205342Y201652D01*
X205424Y201712D01*
X205504Y201775D01*
X205581Y201841D01*
X205656Y201910D01*
X205728Y201982D01*
X205797Y202057D01*
X205863Y202134D01*
X205926Y202214D01*
X205986Y202296D01*
X206043Y202380D01*
X206096Y202466D01*
X206147Y202555D01*
X206194Y202645D01*
X206237Y202737D01*
X206277Y202830D01*
X206313Y202925D01*
X206345Y203022D01*
X206374Y203119D01*
X206399Y203218D01*
X206420Y203317D01*
X206438Y203417D01*
X206451Y203518D01*
X206461Y203619D01*
X206467Y203720D01*
X206469Y203822D01*
X206467Y203961D01*
X206461Y204100D01*
X206451Y204239D01*
X206438Y204378D01*
X206420Y204516D01*
X206399Y204653D01*
X206374Y204790D01*
X206345Y204926D01*
X206312Y205061D01*
X206276Y205196D01*
X206235Y205329D01*
X206191Y205461D01*
X206144Y205592D01*
X206092Y205721D01*
X206037Y205849D01*
X205979Y205975D01*
X205917Y206100D01*
X205851Y206222D01*
X205783Y206343D01*
X205710Y206462D01*
X205635Y206579D01*
X205556Y206694D01*
X205474Y206806D01*
X201495Y202495D02*
X201547Y202410D01*
X201603Y202327D01*
X201661Y202246D01*
X201723Y202167D01*
X201787Y202091D01*
X201854Y202017D01*
X201924Y201945D01*
X201996Y201877D01*
X202071Y201810D01*
X202148Y201747D01*
X202228Y201687D01*
X202310Y201629D01*
X202394Y201575D01*
X202479Y201524D01*
X202567Y201476D01*
X202656Y201431D01*
X202747Y201390D01*
X202840Y201352D01*
X202934Y201318D01*
X203028Y201287D01*
X203125Y201259D01*
X203222Y201235D01*
X203319Y201215D01*
X203418Y201199D01*
X203517Y201186D01*
X203616Y201176D01*
X203716Y201171D01*
X203816Y201169D01*
X199505Y206143D02*
X199453Y206228D01*
X199397Y206311D01*
X199339Y206392D01*
X199277Y206471D01*
X199213Y206547D01*
X199146Y206621D01*
X199076Y206693D01*
X199004Y206761D01*
X198929Y206828D01*
X198852Y206891D01*
X198772Y206951D01*
X198690Y207009D01*
X198606Y207063D01*
X198521Y207114D01*
X198433Y207162D01*
X198344Y207207D01*
X198253Y207248D01*
X198160Y207286D01*
X198067Y207320D01*
X197972Y207351D01*
X197875Y207379D01*
X197778Y207403D01*
X197681Y207423D01*
X197582Y207439D01*
X197483Y207452D01*
X197384Y207462D01*
X197284Y207467D01*
X197184Y207469D01*
X199505Y206143D02*
X201495Y202495D01*
X194531Y212287D02*
X194531Y217593D01*
X194531Y212287D02*
X206469Y212287D01*
X206469Y217593D01*
X201163Y216266D02*
X201163Y212287D01*
X206470Y225440D02*
X206468Y225547D01*
X206462Y225653D01*
X206453Y225759D01*
X206440Y225865D01*
X206423Y225970D01*
X206402Y226075D01*
X206377Y226178D01*
X206349Y226281D01*
X206317Y226383D01*
X206282Y226483D01*
X206243Y226582D01*
X206200Y226680D01*
X206154Y226776D01*
X206105Y226871D01*
X206052Y226963D01*
X205996Y227054D01*
X205937Y227142D01*
X205875Y227229D01*
X205809Y227313D01*
X205741Y227395D01*
X205670Y227474D01*
X205596Y227551D01*
X205519Y227625D01*
X205440Y227696D01*
X205358Y227764D01*
X205274Y227830D01*
X205187Y227892D01*
X205099Y227951D01*
X205008Y228007D01*
X204916Y228060D01*
X204821Y228109D01*
X204725Y228155D01*
X204627Y228198D01*
X204528Y228237D01*
X204428Y228272D01*
X204326Y228304D01*
X204223Y228332D01*
X204120Y228357D01*
X204015Y228378D01*
X203910Y228395D01*
X203804Y228408D01*
X203698Y228417D01*
X203592Y228423D01*
X203485Y228425D01*
X206469Y225440D02*
X206467Y225319D01*
X206461Y225199D01*
X206452Y225079D01*
X206439Y224959D01*
X206422Y224840D01*
X206401Y224721D01*
X206377Y224603D01*
X206348Y224486D01*
X206317Y224370D01*
X206281Y224254D01*
X206242Y224140D01*
X206199Y224028D01*
X206153Y223916D01*
X206104Y223806D01*
X206050Y223698D01*
X205994Y223592D01*
X205934Y223487D01*
X205871Y223384D01*
X205805Y223284D01*
X205736Y223185D01*
X205663Y223089D01*
X205588Y222995D01*
X205510Y222903D01*
X205428Y222814D01*
X205344Y222727D01*
X205258Y222644D01*
X205169Y222562D01*
X205077Y222484D01*
X204983Y222409D01*
X204886Y222337D01*
X204788Y222267D01*
X204687Y222201D01*
X204584Y222138D01*
X204479Y222079D01*
X204373Y222022D01*
X204264Y221969D01*
X204155Y221920D01*
X204043Y221874D01*
X203930Y221831D01*
X203816Y221793D01*
X201163Y227430D02*
X201243Y227510D01*
X201325Y227588D01*
X201409Y227662D01*
X201497Y227734D01*
X201587Y227802D01*
X201679Y227868D01*
X201773Y227930D01*
X201869Y227988D01*
X201968Y228043D01*
X202068Y228095D01*
X202170Y228143D01*
X202274Y228188D01*
X202379Y228228D01*
X202486Y228265D01*
X202594Y228299D01*
X202703Y228328D01*
X202813Y228354D01*
X202924Y228375D01*
X203035Y228393D01*
X203147Y228407D01*
X203259Y228417D01*
X203372Y228423D01*
X203485Y228425D01*
X201163Y227429D02*
X194531Y221792D01*
X194531Y228424D01*
D12*
X51000Y155646D02*
X51122Y155644D01*
X51244Y155638D01*
X51366Y155628D01*
X51487Y155615D01*
X51608Y155597D01*
X51728Y155576D01*
X51848Y155550D01*
X51966Y155521D01*
X52084Y155489D01*
X52201Y155452D01*
X52316Y155412D01*
X52430Y155368D01*
X52542Y155320D01*
X52653Y155269D01*
X52762Y155214D01*
X52870Y155156D01*
X52975Y155094D01*
X53078Y155029D01*
X53180Y154961D01*
X53279Y154889D01*
X53375Y154815D01*
X53470Y154737D01*
X53561Y154656D01*
X53651Y154573D01*
X53737Y154487D01*
X53820Y154397D01*
X53901Y154306D01*
X53979Y154211D01*
X54053Y154115D01*
X54125Y154016D01*
X54193Y153914D01*
X54258Y153811D01*
X54320Y153706D01*
X54378Y153598D01*
X54433Y153489D01*
X54484Y153378D01*
X54532Y153266D01*
X54576Y153152D01*
X54616Y153037D01*
X54653Y152920D01*
X54685Y152802D01*
X54714Y152684D01*
X54740Y152564D01*
X54761Y152444D01*
X54779Y152323D01*
X54792Y152202D01*
X54802Y152080D01*
X54808Y151958D01*
X54810Y151836D01*
X54808Y151714D01*
X54802Y151592D01*
X54792Y151470D01*
X54779Y151349D01*
X54761Y151228D01*
X54740Y151108D01*
X54714Y150988D01*
X54685Y150870D01*
X54653Y150752D01*
X54616Y150635D01*
X54576Y150520D01*
X54532Y150406D01*
X54484Y150294D01*
X54433Y150183D01*
X54378Y150074D01*
X54320Y149966D01*
X54258Y149861D01*
X54193Y149758D01*
X54125Y149656D01*
X54053Y149557D01*
X53979Y149461D01*
X53901Y149366D01*
X53820Y149275D01*
X53737Y149185D01*
X53651Y149099D01*
X53561Y149016D01*
X53470Y148935D01*
X53375Y148857D01*
X53279Y148783D01*
X53180Y148711D01*
X53078Y148643D01*
X52975Y148578D01*
X52870Y148516D01*
X52762Y148458D01*
X52653Y148403D01*
X52542Y148352D01*
X52430Y148304D01*
X52316Y148260D01*
X52201Y148220D01*
X52084Y148183D01*
X51966Y148151D01*
X51848Y148122D01*
X51728Y148096D01*
X51608Y148075D01*
X51487Y148057D01*
X51366Y148044D01*
X51244Y148034D01*
X51122Y148028D01*
X51000Y148026D01*
X50878Y148028D01*
X50756Y148034D01*
X50634Y148044D01*
X50513Y148057D01*
X50392Y148075D01*
X50272Y148096D01*
X50152Y148122D01*
X50034Y148151D01*
X49916Y148183D01*
X49799Y148220D01*
X49684Y148260D01*
X49570Y148304D01*
X49458Y148352D01*
X49347Y148403D01*
X49238Y148458D01*
X49130Y148516D01*
X49025Y148578D01*
X48922Y148643D01*
X48820Y148711D01*
X48721Y148783D01*
X48625Y148857D01*
X48530Y148935D01*
X48439Y149016D01*
X48349Y149099D01*
X48263Y149185D01*
X48180Y149275D01*
X48099Y149366D01*
X48021Y149461D01*
X47947Y149557D01*
X47875Y149656D01*
X47807Y149758D01*
X47742Y149861D01*
X47680Y149966D01*
X47622Y150074D01*
X47567Y150183D01*
X47516Y150294D01*
X47468Y150406D01*
X47424Y150520D01*
X47384Y150635D01*
X47347Y150752D01*
X47315Y150870D01*
X47286Y150988D01*
X47260Y151108D01*
X47239Y151228D01*
X47221Y151349D01*
X47208Y151470D01*
X47198Y151592D01*
X47192Y151714D01*
X47190Y151836D01*
X47192Y151958D01*
X47198Y152080D01*
X47208Y152202D01*
X47221Y152323D01*
X47239Y152444D01*
X47260Y152564D01*
X47286Y152684D01*
X47315Y152802D01*
X47347Y152920D01*
X47384Y153037D01*
X47424Y153152D01*
X47468Y153266D01*
X47516Y153378D01*
X47567Y153489D01*
X47622Y153598D01*
X47680Y153706D01*
X47742Y153811D01*
X47807Y153914D01*
X47875Y154016D01*
X47947Y154115D01*
X48021Y154211D01*
X48099Y154306D01*
X48180Y154397D01*
X48263Y154487D01*
X48349Y154573D01*
X48439Y154656D01*
X48530Y154737D01*
X48625Y154815D01*
X48721Y154889D01*
X48820Y154961D01*
X48922Y155029D01*
X49025Y155094D01*
X49130Y155156D01*
X49238Y155214D01*
X49347Y155269D01*
X49458Y155320D01*
X49570Y155368D01*
X49684Y155412D01*
X49799Y155452D01*
X49916Y155489D01*
X50034Y155521D01*
X50152Y155550D01*
X50272Y155576D01*
X50392Y155597D01*
X50513Y155615D01*
X50634Y155628D01*
X50756Y155638D01*
X50878Y155644D01*
X51000Y155646D01*
D13*
X241650Y66510D02*
X254350Y66510D01*
X107350Y263490D02*
X94650Y263490D01*
D10*
X76519Y66111D02*
X69874Y59465D01*
X70612Y64634D02*
X76519Y66111D01*
X70612Y64634D02*
X72089Y70541D01*
X65443Y63896D01*
X60392Y68946D02*
X60329Y69012D01*
X60269Y69080D01*
X60212Y69151D01*
X60158Y69225D01*
X60107Y69301D01*
X60060Y69379D01*
X60016Y69458D01*
X59976Y69540D01*
X59939Y69624D01*
X59906Y69709D01*
X59877Y69795D01*
X59851Y69882D01*
X59830Y69971D01*
X59812Y70060D01*
X59798Y70150D01*
X59788Y70241D01*
X59782Y70332D01*
X59780Y70423D01*
X59782Y70514D01*
X59788Y70605D01*
X59798Y70696D01*
X59812Y70786D01*
X59830Y70875D01*
X59851Y70964D01*
X59877Y71051D01*
X59906Y71137D01*
X59939Y71222D01*
X59976Y71306D01*
X60016Y71388D01*
X60060Y71467D01*
X60107Y71545D01*
X60158Y71621D01*
X60212Y71695D01*
X60269Y71766D01*
X60329Y71834D01*
X60392Y71900D01*
X60393Y68947D02*
X60485Y68857D01*
X60580Y68770D01*
X60678Y68686D01*
X60778Y68604D01*
X60881Y68526D01*
X60985Y68450D01*
X61092Y68378D01*
X61201Y68309D01*
X61312Y68243D01*
X61424Y68180D01*
X61539Y68121D01*
X61655Y68065D01*
X61773Y68012D01*
X61892Y67963D01*
X62013Y67918D01*
X62135Y67875D01*
X62258Y67837D01*
X62382Y67802D01*
X62507Y67771D01*
X62633Y67743D01*
X62760Y67720D01*
X62888Y67699D01*
X63016Y67683D01*
X63144Y67670D01*
X63273Y67661D01*
X63402Y67656D01*
X63531Y67655D01*
X67591Y72085D02*
X67653Y72149D01*
X67711Y72215D01*
X67767Y72284D01*
X67820Y72355D01*
X67869Y72429D01*
X67916Y72504D01*
X67959Y72582D01*
X67999Y72661D01*
X68035Y72742D01*
X68069Y72824D01*
X68098Y72907D01*
X68124Y72992D01*
X68146Y73078D01*
X68165Y73165D01*
X68180Y73252D01*
X68191Y73340D01*
X68199Y73428D01*
X68203Y73517D01*
X68203Y73605D01*
X68199Y73694D01*
X68191Y73782D01*
X68180Y73870D01*
X68165Y73957D01*
X68146Y74044D01*
X68124Y74130D01*
X68098Y74215D01*
X68069Y74298D01*
X68035Y74380D01*
X67999Y74461D01*
X67959Y74540D01*
X67916Y74618D01*
X67869Y74693D01*
X67820Y74767D01*
X67767Y74838D01*
X67711Y74907D01*
X67653Y74973D01*
X67591Y75037D01*
X67592Y75038D02*
X67506Y75122D01*
X67417Y75202D01*
X67326Y75281D01*
X67233Y75356D01*
X67137Y75428D01*
X67039Y75498D01*
X66939Y75564D01*
X66837Y75627D01*
X66733Y75687D01*
X66628Y75744D01*
X66520Y75798D01*
X66411Y75848D01*
X66301Y75895D01*
X66189Y75939D01*
X66076Y75979D01*
X65962Y76016D01*
X65847Y76049D01*
X65730Y76078D01*
X65613Y76104D01*
X65495Y76127D01*
X65377Y76146D01*
X65561Y71530D02*
X65651Y71509D01*
X65741Y71492D01*
X65832Y71479D01*
X65923Y71470D01*
X66014Y71464D01*
X66106Y71463D01*
X66198Y71466D01*
X66289Y71472D01*
X66381Y71483D01*
X66471Y71497D01*
X66561Y71516D01*
X66650Y71538D01*
X66738Y71564D01*
X66825Y71594D01*
X66910Y71627D01*
X66994Y71664D01*
X67076Y71705D01*
X67157Y71750D01*
X67235Y71797D01*
X67311Y71848D01*
X67385Y71903D01*
X67457Y71960D01*
X67526Y72021D01*
X67592Y72084D01*
X62423Y72454D02*
X62333Y72475D01*
X62243Y72492D01*
X62152Y72505D01*
X62061Y72514D01*
X61970Y72520D01*
X61878Y72521D01*
X61786Y72518D01*
X61695Y72512D01*
X61603Y72501D01*
X61513Y72487D01*
X61423Y72468D01*
X61334Y72446D01*
X61246Y72420D01*
X61159Y72390D01*
X61074Y72357D01*
X60990Y72320D01*
X60908Y72279D01*
X60827Y72234D01*
X60749Y72187D01*
X60673Y72136D01*
X60599Y72081D01*
X60527Y72024D01*
X60459Y71963D01*
X60392Y71900D01*
X62423Y72454D02*
X65561Y71531D01*
X61526Y78150D02*
X61157Y81473D01*
X54511Y74827D01*
X56357Y72982D02*
X52665Y76673D01*
X266874Y250465D02*
X273519Y257111D01*
X267612Y255634D01*
X269089Y261541D01*
X262443Y254896D01*
X257392Y259946D02*
X257329Y260012D01*
X257269Y260080D01*
X257212Y260151D01*
X257158Y260225D01*
X257107Y260301D01*
X257060Y260379D01*
X257016Y260458D01*
X256976Y260540D01*
X256939Y260624D01*
X256906Y260709D01*
X256877Y260795D01*
X256851Y260882D01*
X256830Y260971D01*
X256812Y261060D01*
X256798Y261150D01*
X256788Y261241D01*
X256782Y261332D01*
X256780Y261423D01*
X256782Y261514D01*
X256788Y261605D01*
X256798Y261696D01*
X256812Y261786D01*
X256830Y261875D01*
X256851Y261964D01*
X256877Y262051D01*
X256906Y262137D01*
X256939Y262222D01*
X256976Y262306D01*
X257016Y262388D01*
X257060Y262467D01*
X257107Y262545D01*
X257158Y262621D01*
X257212Y262695D01*
X257269Y262766D01*
X257329Y262834D01*
X257392Y262900D01*
X257393Y259947D02*
X257485Y259857D01*
X257580Y259770D01*
X257678Y259686D01*
X257778Y259604D01*
X257881Y259526D01*
X257985Y259450D01*
X258092Y259378D01*
X258201Y259309D01*
X258312Y259243D01*
X258424Y259180D01*
X258539Y259121D01*
X258655Y259065D01*
X258773Y259012D01*
X258892Y258963D01*
X259013Y258918D01*
X259135Y258875D01*
X259258Y258837D01*
X259382Y258802D01*
X259507Y258771D01*
X259633Y258743D01*
X259760Y258720D01*
X259888Y258699D01*
X260016Y258683D01*
X260144Y258670D01*
X260273Y258661D01*
X260402Y258656D01*
X260531Y258655D01*
X264591Y263085D02*
X264653Y263149D01*
X264711Y263215D01*
X264767Y263284D01*
X264820Y263355D01*
X264869Y263429D01*
X264916Y263504D01*
X264959Y263582D01*
X264999Y263661D01*
X265035Y263742D01*
X265069Y263824D01*
X265098Y263907D01*
X265124Y263992D01*
X265146Y264078D01*
X265165Y264165D01*
X265180Y264252D01*
X265191Y264340D01*
X265199Y264428D01*
X265203Y264517D01*
X265203Y264605D01*
X265199Y264694D01*
X265191Y264782D01*
X265180Y264870D01*
X265165Y264957D01*
X265146Y265044D01*
X265124Y265130D01*
X265098Y265215D01*
X265069Y265298D01*
X265035Y265380D01*
X264999Y265461D01*
X264959Y265540D01*
X264916Y265618D01*
X264869Y265693D01*
X264820Y265767D01*
X264767Y265838D01*
X264711Y265907D01*
X264653Y265973D01*
X264591Y266037D01*
X264592Y266038D02*
X264506Y266122D01*
X264417Y266202D01*
X264326Y266281D01*
X264233Y266356D01*
X264137Y266428D01*
X264039Y266498D01*
X263939Y266564D01*
X263837Y266627D01*
X263733Y266687D01*
X263628Y266744D01*
X263520Y266798D01*
X263411Y266848D01*
X263301Y266895D01*
X263189Y266939D01*
X263076Y266979D01*
X262962Y267016D01*
X262847Y267049D01*
X262730Y267078D01*
X262613Y267104D01*
X262495Y267127D01*
X262377Y267146D01*
X262561Y262530D02*
X262651Y262509D01*
X262741Y262492D01*
X262832Y262479D01*
X262923Y262470D01*
X263014Y262464D01*
X263106Y262463D01*
X263198Y262466D01*
X263289Y262472D01*
X263381Y262483D01*
X263471Y262497D01*
X263561Y262516D01*
X263650Y262538D01*
X263738Y262564D01*
X263825Y262594D01*
X263910Y262627D01*
X263994Y262664D01*
X264076Y262705D01*
X264157Y262750D01*
X264235Y262797D01*
X264311Y262848D01*
X264385Y262903D01*
X264457Y262960D01*
X264526Y263021D01*
X264592Y263084D01*
X259423Y263454D02*
X259333Y263475D01*
X259243Y263492D01*
X259152Y263505D01*
X259061Y263514D01*
X258970Y263520D01*
X258878Y263521D01*
X258786Y263518D01*
X258695Y263512D01*
X258603Y263501D01*
X258513Y263487D01*
X258423Y263468D01*
X258334Y263446D01*
X258246Y263420D01*
X258159Y263390D01*
X258074Y263357D01*
X257990Y263320D01*
X257908Y263279D01*
X257827Y263234D01*
X257749Y263187D01*
X257673Y263136D01*
X257599Y263081D01*
X257527Y263024D01*
X257459Y262963D01*
X257392Y262900D01*
X259423Y263454D02*
X262561Y262531D01*
X257973Y272658D02*
X257904Y272723D01*
X257834Y272786D01*
X257760Y272846D01*
X257685Y272903D01*
X257607Y272957D01*
X257527Y273007D01*
X257445Y273054D01*
X257361Y273098D01*
X257275Y273139D01*
X257188Y273176D01*
X257100Y273210D01*
X257010Y273240D01*
X256919Y273266D01*
X256827Y273289D01*
X256735Y273308D01*
X256641Y273323D01*
X256547Y273334D01*
X256453Y273342D01*
X256358Y273346D01*
X256264Y273346D01*
X256169Y273342D01*
X256075Y273334D01*
X255981Y273323D01*
X255887Y273308D01*
X255795Y273289D01*
X255703Y273266D01*
X255612Y273240D01*
X255522Y273210D01*
X255434Y273176D01*
X255347Y273139D01*
X255261Y273098D01*
X255177Y273054D01*
X255095Y273007D01*
X255015Y272957D01*
X254937Y272903D01*
X254862Y272846D01*
X254788Y272786D01*
X254718Y272723D01*
X254649Y272658D01*
X257972Y272657D02*
X258047Y272579D01*
X258120Y272498D01*
X258189Y272415D01*
X258256Y272329D01*
X258319Y272241D01*
X258379Y272151D01*
X258436Y272059D01*
X258490Y271964D01*
X258540Y271868D01*
X258586Y271770D01*
X258629Y271671D01*
X258669Y271570D01*
X258704Y271467D01*
X258736Y271364D01*
X258765Y271259D01*
X258789Y271154D01*
X258810Y271047D01*
X258827Y270940D01*
X258840Y270832D01*
X258849Y270724D01*
X258855Y270616D01*
X258856Y270508D01*
X258853Y270399D01*
X258847Y270291D01*
X258837Y270183D01*
X258823Y270075D01*
X258805Y269969D01*
X258783Y269862D01*
X258757Y269757D01*
X258728Y269653D01*
X258695Y269549D01*
X258658Y269447D01*
X258617Y269347D01*
X258573Y269248D01*
X258526Y269150D01*
X253912Y270811D02*
X253911Y270909D01*
X253915Y271006D01*
X253922Y271103D01*
X253932Y271200D01*
X253947Y271296D01*
X253965Y271392D01*
X253987Y271486D01*
X254012Y271580D01*
X254041Y271673D01*
X254074Y271765D01*
X254110Y271855D01*
X254150Y271944D01*
X254193Y272031D01*
X254239Y272117D01*
X254288Y272200D01*
X254341Y272282D01*
X254397Y272362D01*
X254456Y272439D01*
X254518Y272514D01*
X254583Y272587D01*
X254650Y272657D01*
X253911Y270811D02*
X253357Y263982D01*
X249665Y267673D01*
M02*
