G04 EAGLE Gerber RS-274X export*
G75*
%MOMM*%
%FSLAX34Y34*%
%LPD*%
%INSoldermask Bottom*%
%IPPOS*%
%AMOC8*
5,1,8,0,0,1.08239X$1,22.5*%
G01*
%ADD10R,0.710400X2.077200*%
%ADD11C,1.524000*%
%ADD12R,1.711200X1.711200*%
%ADD13C,1.711200*%
%ADD14C,2.963200*%
%ADD15C,2.082800*%
%ADD16C,3.903200*%
%ADD17C,6.203200*%
%ADD18C,0.959600*%


D10*
X120550Y249343D03*
X133250Y249343D03*
X145950Y249343D03*
X158650Y249343D03*
X171350Y249343D03*
X184050Y249343D03*
X196750Y249343D03*
X209450Y249343D03*
X209450Y154657D03*
X196750Y154657D03*
X184050Y154657D03*
X171350Y154657D03*
X158650Y154657D03*
X145950Y154657D03*
X133250Y154657D03*
X120550Y154657D03*
D11*
X51000Y194000D03*
X51000Y218892D03*
X51000Y244038D03*
D12*
X295500Y146600D03*
D13*
X295500Y172000D03*
X295500Y197400D03*
D14*
X75000Y150000D03*
X20000Y150000D03*
X110000Y75000D03*
X20000Y110000D03*
D15*
X248000Y50000D03*
X248000Y24600D03*
X222600Y50000D03*
X222600Y24600D03*
X197200Y50000D03*
X197200Y24600D03*
X171800Y50000D03*
X171800Y24600D03*
X146400Y50000D03*
X146400Y24600D03*
X121000Y50000D03*
X121000Y24600D03*
X101000Y280000D03*
X101000Y305400D03*
X126400Y280000D03*
X126400Y305400D03*
X151800Y280000D03*
X151800Y305400D03*
X177200Y280000D03*
X177200Y305400D03*
X202600Y280000D03*
X202600Y305400D03*
X228000Y280000D03*
X228000Y305400D03*
D16*
X40000Y40000D03*
D17*
X40000Y40000D03*
D16*
X290000Y290000D03*
D17*
X290000Y290000D03*
D18*
X145000Y140000D03*
X200000Y130000D03*
X215000Y155000D03*
X190000Y195000D03*
X150000Y195000D03*
X15000Y290000D03*
X225000Y101000D03*
X231306Y200000D03*
X251306Y200000D03*
X211306Y200000D03*
X225000Y220000D03*
X172300Y90000D03*
X195000Y165000D03*
X155000Y140000D03*
X101322Y130000D03*
X130000Y140000D03*
X95000Y140000D03*
X115000Y155000D03*
X175000Y165000D03*
X185000Y80000D03*
X145000Y80000D03*
X230000Y70000D03*
X240000Y220000D03*
M02*
