M48
;GenerationSoftware,Autodesk,EAGLE,9.6.2*%
;CreationDate,2022-07-09T19:13:58Z*%
FMAT,2
ICI,OFF
METRIC,TZ,000.000
T5C0.250
T4C0.350
T3C1.016
T2C1.840
T1C3.700
%
G90
M71
T1
X65000Y51500
X4000Y51500
X65000Y4000
T2
X59900Y9300
X62900Y43600
X57000Y31500
X31500Y17000
T3
X53700Y52540
X53700Y50000
X51160Y52540
X51160Y50000
X48620Y52540
X48620Y50000
X46080Y52540
X46080Y50000
X43540Y52540
X43540Y50000
X41000Y52540
X41000Y50000
X17400Y6240
X17400Y3700
X14860Y6240
X14860Y3700
X12320Y6240
X12320Y3700
X9780Y6240
X9780Y3700
X7240Y6240
X7240Y3700
X4700Y6240
X4700Y3700
T4
X40000Y7000
X46200Y7000
X61900Y30800
X16000Y12800
X55000Y11500
X53000Y33000
X52000Y33000
X51000Y33000
X50000Y33000
X50000Y32000
X51000Y32000
X52000Y32000
X53000Y32000
X53000Y31000
X52000Y31000
X51000Y31000
X50000Y31000
X50000Y30000
X50000Y29000
X53000Y28000
X52000Y28000
X51000Y28000
X50000Y28000
X56000Y46500
X55000Y46500
X54000Y46500
X53000Y46500
X52000Y46500
X51000Y46500
X50000Y46500
X50000Y45500
X51000Y45500
X52000Y45500
X53000Y45500
X54000Y45500
X56000Y41500
X55000Y45500
X55000Y44500
X56000Y45500
X56000Y44500
X50000Y41500
X51000Y41500
X52000Y41500
X53000Y41500
X54000Y41500
X55000Y41500
X55000Y43500
X56000Y43500
X56000Y42500
X55000Y42500
X57200Y5500
X51500Y5000
X2400Y21300
X2500Y46000
X2500Y40700
X2500Y39700
X2500Y34400
X2500Y33400
X2500Y27800
X2500Y26800
X36000Y10865
X29800Y6800
X3600Y10600
X61000Y21000
T5
X43000Y42000
X43000Y43000
X43000Y44000
X43000Y45000
X43000Y46000
X44000Y46000
X44000Y45000
X44000Y44000
X44000Y43000
X44000Y42000
X44000Y41000
X44000Y40000
X44000Y39000
X44000Y38000
X44000Y37000
X44000Y36000
X44000Y35000
X44000Y34000
X36000Y32000
X36000Y31000
X36000Y30000
X36000Y29000
X36000Y28000
X36000Y27000
X36000Y26000
X36000Y25000
X36000Y24000
X36000Y23000
X36000Y22000
X36000Y21000
X37000Y21000
X37000Y22000
X37000Y23000
X37000Y24000
X37000Y25000
X37000Y26000
X37000Y27000
X37000Y28000
X37000Y29000
X37000Y30000
X37000Y31000
X38000Y32000
X38000Y31000
X38000Y30000
X38000Y29000
X38000Y28000
X38000Y27000
X38000Y26000
X38000Y25000
X38000Y24000
X38000Y23000
X38000Y22000
X38000Y21000
X39000Y33000
X39000Y32000
X39000Y31000
X39000Y30000
X39000Y29000
X39000Y28000
X39000Y27000
X39000Y26000
X39000Y25000
X39000Y24000
X39000Y23000
X39000Y22000
X39000Y21000
X40000Y21000
X40000Y22000
X40000Y23000
X40000Y24000
X40000Y25000
X40000Y26000
X40000Y27000
X40000Y28000
X40000Y29000
X40000Y30000
X40000Y31000
X40000Y32000
X40000Y33000
X41000Y33000
X41000Y32000
X41000Y31000
X41000Y30000
X41000Y29000
X41000Y28000
X41000Y27000
X41000Y26000
X41000Y25000
X41000Y24000
X41000Y23000
X41000Y22000
X41000Y21000
X42000Y33000
X42000Y32000
X42000Y31000
X42000Y30000
X42000Y29000
X42000Y28000
X42000Y27000
X42000Y26000
X42000Y25000
X42000Y24000
X42000Y23000
X42000Y22000
X42000Y21000
X43000Y21000
X43000Y22000
X43000Y23000
X43000Y24000
X43000Y25000
X43000Y26000
X43000Y27000
X43000Y28000
X43000Y29000
X43000Y30000
X43000Y31000
X43000Y32000
X43000Y33000
X44000Y33000
X44000Y32000
X44000Y31000
X44000Y30000
X44000Y29000
X44000Y28000
X44000Y27000
X44000Y26000
X44000Y25000
X44000Y24000
X44000Y23000
X44000Y22000
X44000Y21000
X43000Y41000
X29000Y33000
X28000Y33000
X27000Y33000
X27000Y32000
X28000Y32000
X29000Y32000
X29000Y31000
X28000Y31000
X27000Y31000
X27000Y42000
X28000Y42000
X29000Y42000
X30000Y42000
X31000Y42000
X31000Y43000
X31000Y44000
X31000Y45000
X30000Y45000
X29000Y45000
X28000Y45000
X27000Y45000
X27000Y46000
X28000Y46000
X29000Y46000
X30000Y46000
X31000Y46000
X32000Y46000
X32000Y45000
X32000Y44000
X32000Y43000
X32000Y42000
X29000Y28000
X28000Y28000
X27000Y28000
X26000Y28000
X25000Y28000
X25000Y29000
X25000Y30000
X25000Y31000
X26000Y31000
X26000Y32000
X25000Y32000
X25000Y33000
X26000Y33000
X34500Y15000
X35500Y15000
X35500Y16000
X34500Y16000
X34500Y17000
X35500Y17000
X30000Y13000
X12000Y46000
X12000Y45000
X12000Y44000
X12000Y43000
X12000Y42000
X12000Y41000
X12000Y40000
X12000Y39000
X12000Y38000
X12000Y37000
X12000Y36000
X13000Y34000
X13000Y35000
X13000Y36000
X13000Y37000
X13000Y38000
X13000Y39000
X13000Y40000
X13000Y41000
X13000Y42000
X13000Y43000
X13000Y44000
X13000Y45000
X13000Y46000
X14000Y46000
X14000Y45000
X14000Y44000
X36000Y46000
X14000Y42000
X14000Y41000
X14000Y40000
X14000Y39000
X14000Y38000
X14000Y37000
X14000Y36000
X14000Y35000
X14000Y34000
X15000Y46000
X15000Y45000
X15000Y44000
X15000Y43000
X15000Y42000
X15000Y41000
X15000Y40000
X15000Y39000
X15000Y38000
X15000Y37000
X15000Y36000
X15000Y35000
X15000Y34000
X16000Y34000
X16000Y35000
X16000Y36000
X16000Y37000
X16000Y38000
X16000Y39000
X16000Y40000
X16000Y41000
X16000Y42000
X16000Y43000
X16000Y44000
X16000Y45000
X16000Y46000
X17000Y46000
X17000Y45000
X17000Y44000
X17000Y43000
X17000Y42000
X17000Y41000
X17000Y40000
X17000Y39000
X17000Y38000
X17000Y37000
X17000Y36000
X17000Y35000
X17000Y34000
X18000Y46000
X18000Y45000
X18000Y44000
X18000Y43000
X18000Y42000
X18000Y41000
X18000Y40000
X18000Y39000
X18000Y38000
X18000Y37000
X18000Y36000
X18000Y35000
X18000Y34000
X19000Y34000
X19000Y35000
X19000Y36000
X19000Y37000
X19000Y38000
X19000Y39000
X19000Y40000
X19000Y41000
X19000Y42000
X19000Y43000
X19000Y44000
X19000Y45000
X19000Y46000
X20000Y46000
X20000Y45000
X20000Y44000
X20000Y43000
X20000Y42000
X20000Y41000
X20000Y40000
X20000Y39000
X20000Y38000
X20000Y37000
X20000Y36000
X20000Y35000
X20000Y34000
X12000Y32000
X12000Y31000
X12000Y30000
X12000Y29000
X12000Y28000
X12000Y27000
X12000Y26000
X12000Y25000
X12000Y24000
X12000Y23000
X12000Y22000
X12000Y21000
X13000Y21000
X13000Y22000
X13000Y23000
X13000Y24000
X13000Y25000
X13000Y26000
X13000Y27000
X13000Y28000
X13000Y29000
X13000Y30000
X13000Y31000
X13000Y32000
X13000Y33000
X14000Y33000
X14000Y32000
X14000Y31000
X14000Y30000
X14000Y29000
X14000Y28000
X14000Y27000
X14000Y26000
X14000Y25000
X14000Y24000
X14000Y23000
X14000Y22000
X14000Y21000
X15000Y33000
X15000Y32000
X15000Y31000
X15000Y30000
X15000Y29000
X15000Y28000
X15000Y27000
X15000Y26000
X15000Y25000
X15000Y24000
X15000Y23000
X15000Y22000
X15000Y21000
X16000Y21000
X16000Y22000
X16000Y23000
X16000Y24000
X16000Y25000
X16000Y26000
X16000Y27000
X16000Y28000
X16000Y29000
X16000Y30000
X16000Y31000
X16000Y32000
X16000Y33000
X17000Y33000
X17000Y32000
X17000Y31000
X17000Y30000
X17000Y29000
X17000Y28000
X17000Y27000
X17000Y26000
X17000Y25000
X17000Y24000
X17000Y23000
X17000Y22000
X17000Y21000
X18000Y33000
X18000Y32000
X18000Y31000
X18000Y30000
X18000Y29000
X18000Y28000
X18000Y27000
X18000Y26000
X18000Y25000
X18000Y24000
X18000Y23000
X18000Y22000
X18000Y21000
X19000Y21000
X19000Y22000
X19000Y23000
X19000Y24000
X19000Y25000
X19000Y26000
X19000Y27000
X19000Y28000
X19000Y29000
X19000Y30000
X19000Y31000
X19000Y32000
X19000Y33000
X20000Y33000
X20000Y32000
X20000Y31000
X20000Y30000
X20000Y29000
X20000Y28000
X20000Y27000
X20000Y26000
X20000Y25000
X20000Y24000
X20000Y23000
X20000Y22000
X20000Y21000
X43000Y40000
X43000Y39000
X43000Y38000
X50000Y17000
X43000Y37000
X43000Y36000
X43000Y35000
X43000Y34000
X42000Y34000
X42000Y35000
X42000Y36000
X42000Y37000
X42000Y38000
X42000Y39000
X42000Y12100
X45100Y12100
X42800Y17100
X42000Y17100
X47000Y18700
X49500Y36400
X57200Y4700
X42000Y40000
X42000Y41000
X42000Y42000
X42000Y43000
X42000Y44000
X42000Y45000
X42000Y46000
X41000Y34000
X41000Y35000
X41000Y36000
X41000Y37000
X41000Y38000
X41000Y39000
X41000Y40000
X41000Y41000
X41000Y42000
X41000Y43000
X41000Y44000
X41000Y45000
X41000Y46000
X40000Y46000
X40000Y45000
X40000Y44000
X40000Y43000
X40000Y42000
X40000Y41000
X40000Y40000
X40000Y39000
X40000Y38000
X40000Y37000
X40000Y36000
X40000Y35000
X40000Y34000
X39000Y34000
X39000Y35000
X39000Y36000
X39000Y37000
X39000Y38000
X39000Y39000
X39000Y40000
X39000Y41000
X39000Y42000
X39000Y43000
X39000Y44000
X39000Y45000
X39000Y46000
X38000Y35000
X38000Y36000
X38000Y37000
X38000Y38000
X38000Y39000
X38000Y40000
X38000Y41000
X38000Y42000
X38000Y43000
X38000Y44000
X38000Y45000
X38000Y46000
X37000Y46000
X37000Y45000
X37000Y44000
X37000Y43000
X37000Y42000
X37000Y41000
X37000Y40000
X37000Y39000
X37000Y38000
X37000Y37000
X37000Y36000
X36000Y35000
X36000Y36000
X36000Y37000
X36000Y38000
X36000Y39000
X36000Y40000
X36000Y41000
X36000Y42000
X36000Y43000
X36000Y44000
X36000Y45000
X14000Y43000
M30