G04*
G04 #@! TF.GenerationSoftware,Altium Limited,Altium Designer,18.1.7 (191)*
G04*
G04 Layer_Color=8388736*
%FSLAX44Y44*%
%MOMM*%
G71*
G01*
G75*
%ADD40O,2.7016X0.8016*%
%ADD41O,2.7016X0.7620*%
%ADD42R,0.7016X0.7016*%
%ADD43R,1.9016X1.7016*%
%ADD44R,1.0816X1.0316*%
%ADD45R,3.5016X1.9016*%
%ADD46R,10.2616X9.6016*%
%ADD47R,4.6016X1.3516*%
%ADD48R,2.3016X1.9016*%
%ADD49R,0.5516X1.1016*%
%ADD50R,1.0316X1.0816*%
%ADD51R,1.6016X1.3016*%
%ADD52R,2.6016X4.7016*%
%ADD53R,1.6016X1.6016*%
%ADD54R,2.7016X1.8016*%
%ADD55R,1.8016X1.0016*%
%ADD56R,2.6016X1.0016*%
G04:AMPARAMS|DCode=57|XSize=1.5716mm|YSize=0.5816mm|CornerRadius=0.1108mm|HoleSize=0mm|Usage=FLASHONLY|Rotation=90.000|XOffset=0mm|YOffset=0mm|HoleType=Round|Shape=RoundedRectangle|*
%AMROUNDEDRECTD57*
21,1,1.5716,0.3600,0,0,90.0*
21,1,1.3500,0.5816,0,0,90.0*
1,1,0.2216,0.1800,0.6750*
1,1,0.2216,0.1800,-0.6750*
1,1,0.2216,-0.1800,-0.6750*
1,1,0.2216,-0.1800,0.6750*
%
%ADD57ROUNDEDRECTD57*%
%ADD58R,5.5016X3.0016*%
%ADD59R,0.7016X0.7016*%
%ADD60R,1.9016X3.5016*%
%ADD61R,1.9016X2.3016*%
%ADD62R,4.1016X4.1016*%
%ADD63O,3.1016X2.1016*%
%ADD64R,2.1016X1.9016*%
D40*
X1189000Y627550D02*
D03*
Y551350D02*
D03*
Y538650D02*
D03*
Y525950D02*
D03*
Y513250D02*
D03*
Y500550D02*
D03*
D41*
Y614850D02*
D03*
Y602150D02*
D03*
Y589450D02*
D03*
Y576750D02*
D03*
Y564050D02*
D03*
Y487850D02*
D03*
Y475150D02*
D03*
Y462450D02*
D03*
X1281000Y627550D02*
D03*
Y614850D02*
D03*
Y602150D02*
D03*
Y589450D02*
D03*
Y576750D02*
D03*
Y564050D02*
D03*
Y551350D02*
D03*
Y538650D02*
D03*
Y525950D02*
D03*
Y513250D02*
D03*
Y500550D02*
D03*
Y487850D02*
D03*
Y475150D02*
D03*
Y462450D02*
D03*
D42*
X1098920Y484000D02*
D03*
X1109080D02*
D03*
X1317080Y589000D02*
D03*
X1306920D02*
D03*
X1317080Y602000D02*
D03*
X1306920D02*
D03*
X1318080Y488000D02*
D03*
X1307920D02*
D03*
X1098920Y474000D02*
D03*
X1109080D02*
D03*
X1164080Y615000D02*
D03*
X1153920D02*
D03*
X1050000Y502000D02*
D03*
X1039840D02*
D03*
X1050000Y490000D02*
D03*
X1039840D02*
D03*
X1045080Y597000D02*
D03*
X1034920D02*
D03*
X1045080Y608000D02*
D03*
X1034920D02*
D03*
X1075080Y502000D02*
D03*
X1064920D02*
D03*
X1075080Y490000D02*
D03*
X1064920D02*
D03*
X1076080Y597000D02*
D03*
X1065920D02*
D03*
X1076080Y608000D02*
D03*
X1065920D02*
D03*
X1165080Y552000D02*
D03*
X1154920D02*
D03*
X1317080Y614000D02*
D03*
X1306920D02*
D03*
X1318080Y476000D02*
D03*
X1307920D02*
D03*
X1153920Y603000D02*
D03*
X1164080D02*
D03*
X1098920Y465000D02*
D03*
X1109080D02*
D03*
X1098920Y493000D02*
D03*
X1109080D02*
D03*
X1737080Y808000D02*
D03*
X1726920D02*
D03*
X1737080Y780000D02*
D03*
X1726920D02*
D03*
Y792000D02*
D03*
X1737080D02*
D03*
X1726920Y840000D02*
D03*
X1737080D02*
D03*
X1703920Y847000D02*
D03*
X1714080D02*
D03*
Y858000D02*
D03*
X1703920D02*
D03*
X1703920Y869000D02*
D03*
X1714080D02*
D03*
X1318080Y501000D02*
D03*
X1307920D02*
D03*
D43*
X750000Y629000D02*
D03*
Y601000D02*
D03*
Y501000D02*
D03*
Y529000D02*
D03*
D44*
X1524000Y579700D02*
D03*
Y564300D02*
D03*
X1505000Y772300D02*
D03*
Y787700D02*
D03*
X1520000Y772300D02*
D03*
Y787700D02*
D03*
X1524000Y611700D02*
D03*
Y596300D02*
D03*
D45*
X1477000Y789000D02*
D03*
Y841000D02*
D03*
D46*
X910000Y630000D02*
D03*
X970000Y785000D02*
D03*
X910000Y470000D02*
D03*
X970000Y315000D02*
D03*
D47*
X1001440Y604600D02*
D03*
Y655400D02*
D03*
X878560Y810400D02*
D03*
Y759600D02*
D03*
X1001440Y444600D02*
D03*
Y495400D02*
D03*
X878560Y340400D02*
D03*
Y289600D02*
D03*
D48*
X866000Y705000D02*
D03*
X904000Y706000D02*
D03*
X1729000Y759000D02*
D03*
X1691000Y758000D02*
D03*
X871000Y864000D02*
D03*
X909000Y865000D02*
D03*
X904000Y550000D02*
D03*
X866000Y549000D02*
D03*
X871000Y391000D02*
D03*
X909000Y392000D02*
D03*
D49*
X1076000Y622000D02*
D03*
Y644000D02*
D03*
X1040000Y476000D02*
D03*
Y454000D02*
D03*
X1045000Y622000D02*
D03*
Y644000D02*
D03*
X1065000Y476000D02*
D03*
Y454000D02*
D03*
D50*
X1164700Y488000D02*
D03*
X1149300D02*
D03*
X1149300Y577000D02*
D03*
X1164700D02*
D03*
D51*
X1080000Y858954D02*
D03*
Y831046D02*
D03*
X1160000Y696046D02*
D03*
Y723954D02*
D03*
X1055034Y289002D02*
D03*
Y261094D02*
D03*
X1230000Y260046D02*
D03*
Y287954D02*
D03*
X1054968Y408906D02*
D03*
Y380998D02*
D03*
X1079968Y408906D02*
D03*
Y380998D02*
D03*
X1129967Y408906D02*
D03*
Y380998D02*
D03*
X1105000Y858954D02*
D03*
Y831046D02*
D03*
X1055000Y858954D02*
D03*
Y831046D02*
D03*
X1179000Y408954D02*
D03*
Y381046D02*
D03*
X1185000Y696046D02*
D03*
Y723954D02*
D03*
X1104967Y408906D02*
D03*
Y380998D02*
D03*
X1205000Y260046D02*
D03*
Y287954D02*
D03*
X1154967Y408906D02*
D03*
Y380998D02*
D03*
X1180000Y261046D02*
D03*
Y288954D02*
D03*
X1155033Y261094D02*
D03*
Y289002D02*
D03*
X1130034Y261094D02*
D03*
Y289002D02*
D03*
X1105034Y261094D02*
D03*
Y289002D02*
D03*
X1080034Y261094D02*
D03*
Y289002D02*
D03*
X1130000Y858954D02*
D03*
Y831046D02*
D03*
X1155000Y858954D02*
D03*
Y831046D02*
D03*
X1180000Y858954D02*
D03*
Y831046D02*
D03*
X1135000Y697046D02*
D03*
Y724954D02*
D03*
X1110000Y697046D02*
D03*
Y724954D02*
D03*
X1085000Y697046D02*
D03*
Y724954D02*
D03*
X1060000Y697046D02*
D03*
Y724954D02*
D03*
X1205000Y857954D02*
D03*
Y830046D02*
D03*
X1229966Y857906D02*
D03*
Y829998D02*
D03*
D52*
X1430000Y765000D02*
D03*
Y855000D02*
D03*
X1310000Y355000D02*
D03*
Y265000D02*
D03*
X1430000Y355000D02*
D03*
Y265000D02*
D03*
X1310000Y765000D02*
D03*
Y855000D02*
D03*
D53*
X772954Y655000D02*
D03*
X747046D02*
D03*
X772954Y475000D02*
D03*
X747046D02*
D03*
D54*
X1219000Y701000D02*
D03*
D55*
X1245000Y716000D02*
D03*
Y685000D02*
D03*
D56*
X1241000Y701000D02*
D03*
D57*
X1691250Y786500D02*
D03*
X1697750D02*
D03*
X1704250D02*
D03*
X1710750D02*
D03*
Y829500D02*
D03*
X1704250D02*
D03*
X1697750D02*
D03*
X1691250D02*
D03*
D58*
X1610000Y857000D02*
D03*
Y757000D02*
D03*
D59*
X1671000Y722080D02*
D03*
Y711920D02*
D03*
X1015000Y475080D02*
D03*
Y464920D02*
D03*
Y624920D02*
D03*
Y635080D02*
D03*
X860000Y790080D02*
D03*
Y779920D02*
D03*
Y304920D02*
D03*
Y315080D02*
D03*
X1119000Y473920D02*
D03*
Y484080D02*
D03*
X1264000Y707920D02*
D03*
Y718080D02*
D03*
Y694080D02*
D03*
Y683920D02*
D03*
X1627000Y711920D02*
D03*
Y722080D02*
D03*
X1616000Y711920D02*
D03*
Y722080D02*
D03*
X1605000Y712000D02*
D03*
Y722160D02*
D03*
X1594000Y711920D02*
D03*
Y722080D02*
D03*
X1583000Y711920D02*
D03*
Y722080D02*
D03*
X1693000Y847920D02*
D03*
Y858080D02*
D03*
X1572000Y722080D02*
D03*
Y711920D02*
D03*
X1550000Y722080D02*
D03*
Y711920D02*
D03*
X1737000Y829080D02*
D03*
Y818920D02*
D03*
X1726000Y829080D02*
D03*
Y818920D02*
D03*
X1561000Y711920D02*
D03*
Y722080D02*
D03*
X1638000Y722080D02*
D03*
Y711920D02*
D03*
X1649000Y722080D02*
D03*
Y711920D02*
D03*
X1660000Y722080D02*
D03*
Y711920D02*
D03*
X1328000Y602920D02*
D03*
Y613080D02*
D03*
D60*
X1044000Y545000D02*
D03*
X1096000D02*
D03*
D61*
X751000Y686000D02*
D03*
X750000Y724000D02*
D03*
X749000Y444000D02*
D03*
X750000Y406000D02*
D03*
D62*
X1590000Y276500D02*
D03*
Y348500D02*
D03*
D63*
X1650000Y245000D02*
D03*
Y380000D02*
D03*
D64*
X1638800Y673800D02*
D03*
X1638400Y444500D02*
D03*
Y495300D02*
D03*
Y546100D02*
D03*
Y520700D02*
D03*
Y647700D02*
D03*
Y622300D02*
D03*
Y571500D02*
D03*
Y596900D02*
D03*
Y469900D02*
D03*
M02*
