M48
;Layer_Color=9474304
;FILE_FORMAT=4:4
METRIC,LZ
;TYPE=PLATED
T1F00S00C0.2540
T2F00S00C0.6000
T3F00S00C0.9000
T5F00S00C2.8000
%
T01
X0116Y00502
X0115Y00526
X01155Y00539
X01172Y00552
X0116Y0059
X01155Y00586
X013Y00513
X01326Y00488
X01524Y00588
X01145Y0059
X0114Y00585
Y00514
X01135Y00488
X01145Y00475
X01091Y00474
Y00465
Y00484
Y00493
X01074Y00545
X01067
X01135Y00596
X0115
X01172Y00602
X01171Y00653
X01177Y0066
X0115Y00667
X01281Y0066
X01286Y0064
X01292Y00635
X01299Y00701
X01286Y00712
X01281Y00718
X01291Y0072
X01337Y00603
X0155Y00704
X01583
X01605
X01616
X01627
X01638
X01649
X0166
X01671
X01712Y00745
X01718
X01724
X01724Y00773
X01714Y00773
X01728Y00849
X01686Y00858
T02
X01155Y00245
X0118
X01205
X0123
X01255Y0026
X01265Y0025
Y0027
X01255Y0028
X0128
Y0026
X0129Y0025
Y0027
X0133Y0026
X0134Y0025
Y0027
X0133Y0028
X01355
Y0026
X01365Y0025
Y0027
X0138Y0026
X0139Y0025
Y0027
X0138Y0028
X01405
Y0026
X01415Y0025
Y0027
X0141Y0032
X014Y0033
X0141Y0034
X014Y0035
Y0037
X0141Y0036
X01385
X01375Y0037
Y0035
Y0033
X01385Y0032
Y0034
X0136
Y0032
X0135Y0033
Y0035
Y0037
X0136Y0036
X01335
Y0034
Y0032
X01285
X01275Y0033
X01285Y0034
X01275Y0035
Y0037
X01285Y0036
X0126
X0125Y0037
Y0035
Y0033
X0126Y0032
Y0034
X01235
Y0032
X01225Y0033
Y0035
Y0037
X01235Y0036
X0121
X012Y0037
Y0035
Y0033
X0121Y0032
Y0034
X01155Y00425
X0113
X01105
X0108
X01055
X0102Y00505
X0101Y0051
Y00525
X0102Y0052
Y00535
X0101Y0054
Y00555
X0102Y0055
X01
X0099Y00555
X0098Y0055
Y00535
X0099Y0054
X01Y00535
Y0052
X0099Y00525
X0098Y0052
Y00505
X0099Y0051
X01Y00505
X01088Y00521
X011
X01112
X01124
Y00533
X01112
Y00545
X01124
Y00557
X01112
Y00569
X01124
X011
X01088Y00569
X0108Y00245
X01055
X01105
X0113
X0075Y0037
Y00385
Y00555
Y00575
Y00745
Y0076
X0098Y007
X0099Y00705
X01Y007
X0101Y00705
X0102Y007
Y00685
X0101Y0069
Y00675
X0102Y0067
X01
X0099Y00675
Y0069
X0098Y00685
Y0067
X01Y00685
X0106Y0068
X01085
X0111
X01135
X0113Y00875
X01105
X0108
X01055
X01155
X0118
X01205
X0123
X01255
X01265Y0086
Y00835
X01255Y00845
X0128
X0129Y00835
Y0086
X0128Y00875
X0133
X0134Y0086
Y00835
X0133Y00845
X01355
X01365Y00835
X0139
X0138Y00845
X01405
X01415Y00835
Y0086
X0139
X01365
X01355Y00875
X0138
X01405
X0141Y00805
X0142Y00795
X0141Y00785
X0142Y00775
X0141Y00765
X0142Y00755
X01395
Y00775
Y00795
X01385Y00805
Y00785
Y00765
X0137Y00775
Y00795
X0136Y00805
Y00785
Y00765
X0137Y00755
X01345
Y00775
Y00795
X01295
X01285Y00805
Y00785
X01295Y00775
X01285Y00765
X01295Y00755
X0127
Y00775
Y00795
X0126Y00805
Y00785
Y00765
X01245Y00775
Y00795
X01235Y00805
Y00785
Y00765
X01245Y00755
X0122
Y00775
Y00795
X0121Y00805
Y00785
Y00765
X01185Y0068
X0116
T03
X016384Y004445
Y004699
Y004953
Y005207
Y005461
Y005715
Y005969
Y006223
Y006477
X016388Y006738
T05
X0159Y002765
Y003485
M30
