G04*
G04 #@! TF.GenerationSoftware,Altium Limited,Altium Designer,18.1.7 (191)*
G04*
G04 Layer_Color=16711935*
%FSLAX44Y44*%
%MOMM*%
G71*
G01*
G75*
%ADD76R,4.2032X4.2032*%
%ADD77O,3.2032X2.2032*%
%ADD78C,0.2032*%
%ADD79R,2.2032X1.4032*%
%ADD80R,2.5032X1.4032*%
D76*
X310000Y301000D02*
D03*
Y229000D02*
D03*
D77*
X250000Y332500D02*
D03*
Y197500D02*
D03*
D78*
X1865000Y470648D02*
D03*
Y1023352D02*
D03*
X1689000Y1023000D02*
D03*
X1688000Y388000D02*
D03*
X2041000Y471000D02*
D03*
X650000Y469648D02*
D03*
Y1022352D02*
D03*
X474000Y1022000D02*
D03*
X473000Y387000D02*
D03*
X826000Y470000D02*
D03*
X1460000Y470648D02*
D03*
Y1023352D02*
D03*
X1284000Y1023000D02*
D03*
X1283000Y388000D02*
D03*
X1636000Y471000D02*
D03*
X1055000Y469648D02*
D03*
Y1022352D02*
D03*
X879000Y1022000D02*
D03*
X878000Y387000D02*
D03*
X1231000Y470000D02*
D03*
X289190Y491000D02*
D03*
Y431000D02*
D03*
X3080000Y469648D02*
D03*
Y1022352D02*
D03*
X2904000Y1022000D02*
D03*
X2903000Y387000D02*
D03*
X3256000Y470000D02*
D03*
X2675000Y469648D02*
D03*
Y1022352D02*
D03*
X2499000Y1022000D02*
D03*
X2498000Y387000D02*
D03*
X2851000Y470000D02*
D03*
X2270000Y469648D02*
D03*
Y1022352D02*
D03*
X2094000Y1022000D02*
D03*
X2093000Y387000D02*
D03*
X2446000Y470000D02*
D03*
D79*
X296360Y504200D02*
D03*
Y417700D02*
D03*
D80*
X257760Y504200D02*
D03*
Y417700D02*
D03*
M02*
