G04*
G04 #@! TF.GenerationSoftware,Altium Limited,Altium Designer,18.1.7 (191)*
G04*
G04 Layer_Color=8421504*
%FSLAX44Y44*%
%MOMM*%
G71*
G01*
G75*
%ADD21R,1.0000X0.4500*%
%ADD22R,0.8000X0.8000*%
%ADD23R,0.6000X0.6000*%
%ADD24R,6.0000X6.0000*%
G04:AMPARAMS|DCode=25|XSize=2mm|YSize=1mm|CornerRadius=0mm|HoleSize=0mm|Usage=FLASHONLY|Rotation=180.000|XOffset=0mm|YOffset=0mm|HoleType=Round|Shape=Octagon|*
%AMOCTAGOND25*
4,1,8,-1.0000,0.2500,-1.0000,-0.2500,-0.7500,-0.5000,0.7500,-0.5000,1.0000,-0.2500,1.0000,0.2500,0.7500,0.5000,-0.7500,0.5000,-1.0000,0.2500,0.0*
%
%ADD25OCTAGOND25*%

%ADD26R,2.0000X1.0000*%
%ADD27R,7.0000X5.0000*%
%ADD28R,6.0000X6.0000*%
G04:AMPARAMS|DCode=29|XSize=2mm|YSize=1mm|CornerRadius=0mm|HoleSize=0mm|Usage=FLASHONLY|Rotation=90.000|XOffset=0mm|YOffset=0mm|HoleType=Round|Shape=Octagon|*
%AMOCTAGOND29*
4,1,8,0.2500,1.0000,-0.2500,1.0000,-0.5000,0.7500,-0.5000,-0.7500,-0.2500,-1.0000,0.2500,-1.0000,0.5000,-0.7500,0.5000,0.7500,0.2500,1.0000,0.0*
%
%ADD29OCTAGOND29*%

%ADD30R,1.0000X2.0000*%
%ADD31R,0.6000X0.6000*%
%ADD32R,2.0000X1.1000*%
%ADD33R,0.5500X0.8000*%
%ADD34R,1.4500X0.3000*%
%ADD35R,1.1000X0.7000*%
%ADD36R,0.7000X1.1000*%
%ADD37R,0.9800X0.9300*%
%ADD38R,1.1500X0.6000*%
%ADD39R,1.1500X0.3000*%
%ADD40R,0.6000X0.2000*%
%ADD41R,1.8000X3.4000*%
%ADD42O,1.3500X0.3500*%
%ADD43R,1.2000X0.3000*%
%ADD44R,0.3000X1.2000*%
%ADD45R,0.8000X0.5500*%
%ADD46R,0.4500X1.0000*%
%ADD47R,1.7000X2.4000*%
%ADD48R,1.1000X2.0000*%
D21*
X342000Y396000D02*
D03*
X320000D02*
D03*
X359000Y958000D02*
D03*
X337000D02*
D03*
X365000Y755000D02*
D03*
X343000D02*
D03*
X365000Y777000D02*
D03*
X343000D02*
D03*
D22*
X254000Y727000D02*
D03*
Y713000D02*
D03*
Y813000D02*
D03*
Y827000D02*
D03*
Y913000D02*
D03*
Y927000D02*
D03*
Y1013000D02*
D03*
Y1027000D02*
D03*
D23*
Y691920D02*
D03*
Y702080D02*
D03*
X1093000Y191920D02*
D03*
Y202080D02*
D03*
X320000Y1100920D02*
D03*
Y1111080D02*
D03*
X596000Y206080D02*
D03*
Y195920D02*
D03*
X576000Y206080D02*
D03*
Y195920D02*
D03*
X586000D02*
D03*
Y206080D02*
D03*
X596000Y246080D02*
D03*
Y235920D02*
D03*
X254000Y789920D02*
D03*
Y800080D02*
D03*
Y889920D02*
D03*
Y900080D02*
D03*
X800000Y196920D02*
D03*
Y207080D02*
D03*
X254000Y989920D02*
D03*
Y1000080D02*
D03*
X367000Y1105203D02*
D03*
Y1095043D02*
D03*
Y1127203D02*
D03*
Y1117043D02*
D03*
X310000Y1111203D02*
D03*
Y1101043D02*
D03*
X298000Y832080D02*
D03*
Y821920D02*
D03*
X425000Y645110D02*
D03*
Y655270D02*
D03*
X347000Y1150920D02*
D03*
Y1161080D02*
D03*
X353000Y1095043D02*
D03*
Y1105203D02*
D03*
X353000Y1117110D02*
D03*
Y1127270D02*
D03*
X300000Y1111203D02*
D03*
Y1101043D02*
D03*
X440000Y972110D02*
D03*
Y982270D02*
D03*
X436000Y644920D02*
D03*
Y655080D02*
D03*
X401000Y482920D02*
D03*
Y493080D02*
D03*
X413000Y482920D02*
D03*
Y493080D02*
D03*
X290000Y1100920D02*
D03*
Y1111080D02*
D03*
X1207000Y215080D02*
D03*
Y204920D02*
D03*
X288000Y1009080D02*
D03*
Y998920D02*
D03*
X378000Y482920D02*
D03*
Y493080D02*
D03*
X389000Y482920D02*
D03*
Y493080D02*
D03*
X375000Y1154203D02*
D03*
Y1144043D02*
D03*
X298000Y853080D02*
D03*
Y842920D02*
D03*
X325000Y677920D02*
D03*
Y688080D02*
D03*
Y708080D02*
D03*
Y697920D02*
D03*
X872000Y207080D02*
D03*
Y196920D02*
D03*
X321000Y440080D02*
D03*
Y429920D02*
D03*
Y481920D02*
D03*
Y492080D02*
D03*
X3217000Y1162080D02*
D03*
Y1151920D02*
D03*
Y340080D02*
D03*
Y329920D02*
D03*
X1597000Y1160080D02*
D03*
Y1149920D02*
D03*
X2133000Y1160080D02*
D03*
Y1149920D02*
D03*
X1513000Y341080D02*
D03*
Y330920D02*
D03*
X2217000Y340080D02*
D03*
Y329920D02*
D03*
X513000Y1160080D02*
D03*
Y1149920D02*
D03*
X1192000Y1161080D02*
D03*
Y1150920D02*
D03*
X1108000Y341080D02*
D03*
Y330920D02*
D03*
X597000Y341080D02*
D03*
Y330920D02*
D03*
X2943000Y1161080D02*
D03*
Y1150920D02*
D03*
X3027000Y340080D02*
D03*
Y329920D02*
D03*
X2812000Y1161080D02*
D03*
Y1150920D02*
D03*
X2538000Y1161080D02*
D03*
Y1150920D02*
D03*
X2728000Y340080D02*
D03*
Y329920D02*
D03*
X2622000Y340080D02*
D03*
Y329920D02*
D03*
X2407000Y1160080D02*
D03*
Y1149920D02*
D03*
X2323000Y340080D02*
D03*
Y329920D02*
D03*
X2002000Y1160080D02*
D03*
Y1149920D02*
D03*
X1918000Y341080D02*
D03*
Y330920D02*
D03*
X1728000Y1160080D02*
D03*
Y1149920D02*
D03*
X1812000Y341080D02*
D03*
Y330920D02*
D03*
X1323000Y1160080D02*
D03*
Y1149920D02*
D03*
X1407000Y341080D02*
D03*
Y330920D02*
D03*
X918000Y1161080D02*
D03*
Y1150920D02*
D03*
X1002000Y341080D02*
D03*
Y330920D02*
D03*
X786000Y1161080D02*
D03*
Y1150920D02*
D03*
X703000Y341080D02*
D03*
Y330920D02*
D03*
X811000Y207080D02*
D03*
Y196920D02*
D03*
D24*
X1495000Y210000D02*
D03*
X1325000Y212000D02*
D03*
X1745000Y210000D02*
D03*
X1575000Y212000D02*
D03*
X1995000Y210000D02*
D03*
X1825000Y212000D02*
D03*
X2245000Y210000D02*
D03*
X2075000Y212000D02*
D03*
X2495000Y210000D02*
D03*
X2325000Y212000D02*
D03*
X2745000Y210000D02*
D03*
X2575000Y212000D02*
D03*
X2995000Y210000D02*
D03*
X2825000Y212000D02*
D03*
X3245000Y210000D02*
D03*
X3075000Y212000D02*
D03*
X490000Y221000D02*
D03*
X646000Y221000D02*
D03*
D25*
X1427500Y234000D02*
D03*
X1392500Y188000D02*
D03*
X1677500Y234000D02*
D03*
X1642500Y188000D02*
D03*
X1927500Y234000D02*
D03*
X1892500Y188000D02*
D03*
X2177500Y234000D02*
D03*
X2142500Y188000D02*
D03*
X2427500Y234000D02*
D03*
X2392500Y188000D02*
D03*
X2677500Y234000D02*
D03*
X2642500Y188000D02*
D03*
X2927500Y234000D02*
D03*
X2892500Y188000D02*
D03*
X3177500Y234000D02*
D03*
X3142500Y188000D02*
D03*
X557500Y197000D02*
D03*
X713500Y197000D02*
D03*
D26*
X1428500Y188000D02*
D03*
X1391500Y234000D02*
D03*
X1678500Y188000D02*
D03*
X1641500Y234000D02*
D03*
X1928500Y188000D02*
D03*
X1891500Y234000D02*
D03*
X2178500Y188000D02*
D03*
X2141500Y234000D02*
D03*
X2428500Y188000D02*
D03*
X2391500Y234000D02*
D03*
X2678500Y188000D02*
D03*
X2641500Y234000D02*
D03*
X2928500Y188000D02*
D03*
X2891500Y234000D02*
D03*
X3178500Y188000D02*
D03*
X3141500Y234000D02*
D03*
X556500Y243000D02*
D03*
X712500Y243000D02*
D03*
D27*
X1770000Y337000D02*
D03*
X1770000Y1157000D02*
D03*
X1960000D02*
D03*
Y337000D02*
D03*
X555000Y336000D02*
D03*
X555000Y1156000D02*
D03*
X745000D02*
D03*
Y336000D02*
D03*
X1365000Y337000D02*
D03*
X1365000Y1157000D02*
D03*
X1555000D02*
D03*
Y337000D02*
D03*
X960000Y336000D02*
D03*
X960000Y1156000D02*
D03*
X1150000D02*
D03*
Y336000D02*
D03*
X2985000Y336000D02*
D03*
X2985000Y1156000D02*
D03*
X3175000D02*
D03*
Y336000D02*
D03*
X2580000D02*
D03*
X2580000Y1156000D02*
D03*
X2770000D02*
D03*
Y336000D02*
D03*
X2175000D02*
D03*
X2175000Y1156000D02*
D03*
X2365000D02*
D03*
Y336000D02*
D03*
D28*
X995000Y215500D02*
D03*
D29*
X1019000Y283000D02*
D03*
D30*
X973000Y282000D02*
D03*
D31*
X1040920D02*
D03*
X1051080D02*
D03*
X1123080Y179000D02*
D03*
X1112920D02*
D03*
X408080Y1026123D02*
D03*
X397920D02*
D03*
X576080Y226000D02*
D03*
X565920D02*
D03*
X586080Y246000D02*
D03*
X575920D02*
D03*
X586080Y216000D02*
D03*
X575920D02*
D03*
X586080Y236000D02*
D03*
X575920D02*
D03*
X596080Y226000D02*
D03*
X585920D02*
D03*
X751080Y187000D02*
D03*
X740920D02*
D03*
X751080Y196000D02*
D03*
X740920D02*
D03*
X740920Y255000D02*
D03*
X751080D02*
D03*
X740920Y214000D02*
D03*
X751080D02*
D03*
X740920Y205000D02*
D03*
X751080D02*
D03*
X740920Y243000D02*
D03*
X751080D02*
D03*
Y233000D02*
D03*
X740920D02*
D03*
X740920Y224000D02*
D03*
X751080D02*
D03*
X1256080Y183000D02*
D03*
X1245920D02*
D03*
X418920Y1142190D02*
D03*
X429080D02*
D03*
X429080Y1120123D02*
D03*
X418920D02*
D03*
X429080Y1098123D02*
D03*
X418920D02*
D03*
X397920Y1120123D02*
D03*
X408080D02*
D03*
X397920Y1098123D02*
D03*
X408080D02*
D03*
X418920Y1018123D02*
D03*
X429080D02*
D03*
X397920Y1037123D02*
D03*
X408080D02*
D03*
X369080Y367000D02*
D03*
X358920D02*
D03*
X429080Y957123D02*
D03*
X418920D02*
D03*
X429080Y936124D02*
D03*
X418920D02*
D03*
X429160Y914123D02*
D03*
X419000D02*
D03*
X397920Y957123D02*
D03*
X408080D02*
D03*
X397920Y936123D02*
D03*
X408080D02*
D03*
X418920Y837190D02*
D03*
X429080D02*
D03*
X418920Y795190D02*
D03*
X429080D02*
D03*
X397920Y816190D02*
D03*
X408080D02*
D03*
X1206920Y194000D02*
D03*
X1217080D02*
D03*
X273920Y1053000D02*
D03*
X284080D02*
D03*
X349080Y367000D02*
D03*
X338920D02*
D03*
X307920Y953000D02*
D03*
X318080D02*
D03*
X371080Y708000D02*
D03*
X360920D02*
D03*
X391080Y708000D02*
D03*
X380920D02*
D03*
X340920D02*
D03*
X351080D02*
D03*
X271920Y705000D02*
D03*
X282080D02*
D03*
X429000Y1131123D02*
D03*
X418840D02*
D03*
X397920D02*
D03*
X408080D02*
D03*
X429080Y1109123D02*
D03*
X418920D02*
D03*
X397920D02*
D03*
X408080D02*
D03*
X429080Y1087123D02*
D03*
X418920D02*
D03*
X397920D02*
D03*
X408080D02*
D03*
X418920Y1075123D02*
D03*
X429080D02*
D03*
X418920Y1063123D02*
D03*
X429080D02*
D03*
X273920Y1042000D02*
D03*
X284080D02*
D03*
X418920Y1052123D02*
D03*
X429080D02*
D03*
X418920Y1041123D02*
D03*
X429080D02*
D03*
X273920Y1032000D02*
D03*
X284080D02*
D03*
X389080Y367000D02*
D03*
X378920D02*
D03*
X418920Y1029123D02*
D03*
X429080D02*
D03*
X284080Y1021000D02*
D03*
X273920D02*
D03*
X429080Y1004123D02*
D03*
X418920D02*
D03*
X397920Y1015123D02*
D03*
X408080D02*
D03*
X397920Y1004123D02*
D03*
X408080D02*
D03*
X429080Y993123D02*
D03*
X418920D02*
D03*
Y982123D02*
D03*
X429080D02*
D03*
X418920Y971123D02*
D03*
X429080D02*
D03*
X429080Y947123D02*
D03*
X418920D02*
D03*
X397920Y947123D02*
D03*
X408080D02*
D03*
X429080Y925123D02*
D03*
X418920D02*
D03*
X397920Y925123D02*
D03*
X408080D02*
D03*
X418920Y904123D02*
D03*
X429080D02*
D03*
X418920Y892190D02*
D03*
X429080D02*
D03*
X418920Y880190D02*
D03*
X429080D02*
D03*
X397920Y886190D02*
D03*
X408080D02*
D03*
X418920Y865190D02*
D03*
X429080D02*
D03*
X397920Y872190D02*
D03*
X408080D02*
D03*
X397920Y858190D02*
D03*
X408080D02*
D03*
X418920Y851190D02*
D03*
X429080D02*
D03*
X397920Y844190D02*
D03*
X408080D02*
D03*
X418920Y823190D02*
D03*
X429080D02*
D03*
X397920Y830190D02*
D03*
X408080D02*
D03*
X419000Y809190D02*
D03*
X429160D02*
D03*
X397920Y802190D02*
D03*
X408080D02*
D03*
X279080Y541000D02*
D03*
X268920D02*
D03*
X408270Y1145000D02*
D03*
X398110D02*
D03*
X340080Y1122000D02*
D03*
X329920D02*
D03*
X299920Y1122000D02*
D03*
X310080D02*
D03*
X307920Y963000D02*
D03*
X318080D02*
D03*
D32*
X1073000Y242000D02*
D03*
Y282000D02*
D03*
X1073000Y184000D02*
D03*
Y224000D02*
D03*
X1265000Y236000D02*
D03*
Y196000D02*
D03*
X1238000D02*
D03*
Y236000D02*
D03*
D33*
X1118000Y213500D02*
D03*
X1127500Y190500D02*
D03*
X1108500D02*
D03*
X777000Y183500D02*
D03*
X767500Y206500D02*
D03*
X786500D02*
D03*
X1187500Y213500D02*
D03*
X1168500D02*
D03*
X1178000Y190500D02*
D03*
X401500Y773500D02*
D03*
X382500D02*
D03*
X392000Y750500D02*
D03*
X437500Y773500D02*
D03*
X418500D02*
D03*
X428000Y750500D02*
D03*
D34*
X302500Y890373D02*
D03*
Y896873D02*
D03*
Y903373D02*
D03*
Y909873D02*
D03*
Y916373D02*
D03*
Y922873D02*
D03*
Y935873D02*
D03*
Y929373D02*
D03*
X357000Y929323D02*
D03*
Y935823D02*
D03*
Y922823D02*
D03*
Y916323D02*
D03*
Y909823D02*
D03*
Y903323D02*
D03*
Y896823D02*
D03*
Y890323D02*
D03*
Y883823D02*
D03*
Y877323D02*
D03*
Y870823D02*
D03*
Y864323D02*
D03*
X302500Y864373D02*
D03*
Y870873D02*
D03*
Y877373D02*
D03*
Y883873D02*
D03*
D35*
X369500Y203500D02*
D03*
X428500D02*
D03*
Y240500D02*
D03*
X369500D02*
D03*
D36*
X271500Y778500D02*
D03*
Y719500D02*
D03*
X308500D02*
D03*
Y778500D02*
D03*
D37*
X309000Y694700D02*
D03*
Y679300D02*
D03*
D38*
X300160Y492000D02*
D03*
Y484500D02*
D03*
X300190Y437500D02*
D03*
X300160Y430000D02*
D03*
D39*
Y478500D02*
D03*
Y473500D02*
D03*
Y468500D02*
D03*
Y463500D02*
D03*
X300190Y458500D02*
D03*
X300160Y453500D02*
D03*
Y448500D02*
D03*
Y443500D02*
D03*
D40*
X873000Y441000D02*
D03*
Y445000D02*
D03*
X1267000Y439000D02*
D03*
Y443000D02*
D03*
X586000Y356000D02*
D03*
Y360000D02*
D03*
X2077000Y440000D02*
D03*
Y444000D02*
D03*
X2676000Y1162000D02*
D03*
Y1158000D02*
D03*
X3080000Y1168000D02*
D03*
Y1164000D02*
D03*
X652000Y1134000D02*
D03*
Y1138000D02*
D03*
X1054000Y1140000D02*
D03*
Y1144000D02*
D03*
X1460000Y1140000D02*
D03*
Y1144000D02*
D03*
X1671000Y439000D02*
D03*
Y443000D02*
D03*
X1864000Y1150000D02*
D03*
Y1146000D02*
D03*
X2270000Y1156000D02*
D03*
Y1152000D02*
D03*
X2473000Y439000D02*
D03*
Y443000D02*
D03*
X2878000Y437000D02*
D03*
Y441000D02*
D03*
X3176000Y368000D02*
D03*
Y372000D02*
D03*
X436000Y928000D02*
D03*
Y932000D02*
D03*
D41*
X435000Y335000D02*
D03*
X383000D02*
D03*
D42*
X358750Y975623D02*
D03*
Y980623D02*
D03*
Y985623D02*
D03*
Y990623D02*
D03*
Y995623D02*
D03*
Y1000623D02*
D03*
Y1005623D02*
D03*
Y1010623D02*
D03*
Y1015623D02*
D03*
Y1020623D02*
D03*
Y1025623D02*
D03*
Y1030623D02*
D03*
Y1035623D02*
D03*
Y1040623D02*
D03*
Y1045623D02*
D03*
Y1050623D02*
D03*
Y1055623D02*
D03*
Y1060623D02*
D03*
Y1065623D02*
D03*
Y1070623D02*
D03*
Y1075623D02*
D03*
Y1080623D02*
D03*
X305250Y975623D02*
D03*
Y980623D02*
D03*
Y985623D02*
D03*
Y990623D02*
D03*
Y995623D02*
D03*
Y1000623D02*
D03*
Y1005623D02*
D03*
Y1010623D02*
D03*
Y1015623D02*
D03*
Y1020623D02*
D03*
Y1025623D02*
D03*
Y1030623D02*
D03*
Y1035623D02*
D03*
Y1040623D02*
D03*
Y1045623D02*
D03*
Y1050623D02*
D03*
Y1055623D02*
D03*
Y1060623D02*
D03*
Y1065623D02*
D03*
Y1070623D02*
D03*
Y1075623D02*
D03*
Y1080623D02*
D03*
D43*
X410000Y554123D02*
D03*
Y559123D02*
D03*
Y564123D02*
D03*
Y569123D02*
D03*
Y574123D02*
D03*
Y579123D02*
D03*
Y584123D02*
D03*
Y589123D02*
D03*
Y594123D02*
D03*
Y599123D02*
D03*
Y604123D02*
D03*
Y609123D02*
D03*
X326500Y554123D02*
D03*
Y559123D02*
D03*
Y564123D02*
D03*
Y569123D02*
D03*
Y574123D02*
D03*
Y579123D02*
D03*
Y584123D02*
D03*
Y589123D02*
D03*
Y594123D02*
D03*
Y599123D02*
D03*
Y604123D02*
D03*
Y609123D02*
D03*
D44*
X340750Y539873D02*
D03*
X345750D02*
D03*
X350750D02*
D03*
X355750D02*
D03*
X360750D02*
D03*
X365750D02*
D03*
X370750D02*
D03*
X375750D02*
D03*
X380750D02*
D03*
X385750D02*
D03*
X390750D02*
D03*
X395750D02*
D03*
X340750Y623373D02*
D03*
X345750D02*
D03*
X350750D02*
D03*
X355750Y623373D02*
D03*
X360750Y623373D02*
D03*
X365750D02*
D03*
X370750D02*
D03*
X375750D02*
D03*
X380750D02*
D03*
X385750Y623373D02*
D03*
X390750Y623373D02*
D03*
X395750Y623373D02*
D03*
D45*
X315500Y1138690D02*
D03*
Y1157690D02*
D03*
X292500Y1148191D02*
D03*
X308500Y832500D02*
D03*
Y813500D02*
D03*
X331500Y823000D02*
D03*
X859500Y188500D02*
D03*
Y207500D02*
D03*
X836500Y198000D02*
D03*
D46*
X332000Y1159190D02*
D03*
Y1137190D02*
D03*
X404000Y1071123D02*
D03*
Y1049123D02*
D03*
X402000Y992123D02*
D03*
Y970123D02*
D03*
D47*
X384500Y685123D02*
D03*
X347500D02*
D03*
D48*
X829000Y256000D02*
D03*
X869000D02*
D03*
X774000D02*
D03*
X814000D02*
D03*
X869000Y228000D02*
D03*
X829000D02*
D03*
X814000Y231000D02*
D03*
X774000D02*
D03*
M02*
