M48
;Layer_Color=9474304
;FILE_FORMAT=4:4
METRIC,LZ
;TYPE=PLATED
T1F00S00C0.2540
T3F00S00C0.6000
T5F00S00C2.8000
;TYPE=NON_PLATED
T6F00S00C0.6500
T7F00S00C2.3876
T8F00S00C3.1750
T9F00S00C3.4544
%
T01
X00394Y0019
X00384Y00356
X00389Y00375
X00331Y00367
X00433Y00366
X00428Y00181
X00406Y00191
X00531
X00597Y00316
X00703
X00785Y00187
X0082Y00191
X01002Y00321
X01108
X013Y00239
X0131
X0132
X0133
X0134
X0135
Y00229
Y00219
Y00209
Y00199
X0134
Y00209
Y00219
Y00229
X0133
Y00219
X0132
Y00229
X0131
Y00219
Y00209
X0132
X0133
Y00199
X0132
X0131
X013
Y00209
Y00219
Y00229
X01272Y00184
X01414Y00187
X01407Y00321
X01513
X0155Y00238
Y00228
Y00218
Y00208
Y00198
X0156
Y00208
Y00218
Y00228
Y00238
X0157
X0158
Y00228
X0157
Y00218
X0158
Y00208
X0157
Y00198
X0158
X0159
Y00208
Y00218
Y00228
Y00238
X016
Y00228
Y00218
Y00208
Y00198
X01664Y00187
X018Y00198
X0181
X0182
X0183
X0184
X0185
Y00208
Y00218
Y00228
Y00238
X0184
Y00228
Y00218
Y00208
X0183
X0182
Y00218
X0183
Y00228
X0182
Y00238
X0183
X0181
Y00228
Y00218
Y00208
X018
Y00218
Y00228
Y00238
X01812Y00321
X01918
X01914Y00187
X0205Y00197
Y00207
Y00217
Y00227
Y00237
X0206
Y00227
Y00217
Y00207
Y00197
X0207
X0208
Y00207
X0207
Y00217
Y00227
X0208
Y00217
X0209
Y00227
Y00237
X0208
X0207
X021
Y00227
Y00217
Y00207
X0209
Y00197
X021
X02163Y00187
X023Y00197
Y00207
Y00217
Y00227
Y00237
X0231
Y00227
Y00217
Y00207
Y00197
X0232
X0233
Y00207
X0232
Y00217
Y00227
X0233
Y00217
X0234
Y00227
Y00237
X0233
X0232
X0235
Y00227
Y00217
Y00207
X0234
Y00197
X0235
X02316Y00351
X02224Y00347
X02414Y00187
X0255Y00197
Y00207
Y00217
Y00227
Y00237
X0256
Y00227
Y00217
Y00207
Y00197
X0257
X0258
Y00207
X0257
Y00217
Y00227
X0258
Y00217
X0259
Y00227
Y00237
X0258
X0257
X026
Y00227
Y00217
Y00207
X0259
Y00197
X026
X02664Y00187
X02629Y00357
X02721Y00358
X028Y00237
Y00227
Y00217
Y00207
Y00197
X0281
Y00207
Y00217
Y00227
Y00237
X0282
X0283
Y00227
X0282
Y00217
X0283
Y00207
X0282
Y00197
X0283
X0284
Y00207
Y00217
Y00227
Y00237
X0285
Y00227
Y00217
Y00207
Y00197
X02914Y00187
X0305Y00197
X0306
X0307
X0308
X0309
X031
Y00207
Y00217
Y00227
Y00237
X0309
Y00227
Y00217
Y00207
X0308
X0307
Y00217
X0308
Y00227
X0307
Y00237
X0308
X0306
Y00227
Y00217
Y00207
X0305
Y00217
Y00227
Y00237
X03032Y00363
X03164Y00187
X03217Y0031619
X03176Y00432
X03217Y00526
X03025
X02878Y00438
X02728Y00526
X02621Y00526
X02473Y00444
X02324Y00526
X02217Y00526
X02077Y00501
X01918Y00526
X01812
X01671Y00507
X01513Y00526
X01407
X01267Y00513
X01108Y00526
X01002
X00873Y00519
X00703Y00526
X00596
X00588
X0058Y00472
X00596Y00472
X00481Y00472
X00454Y00486
X00445
X00436Y00663
X00425
X00481Y007
X00476Y00725
X00468
X00437Y00791
X00368Y00742
X00356
X00357Y00749
X00342Y00748
X00356Y00715
X00361Y00701
X00366Y00688
Y00676
X0038Y00701
X00333Y00708
X00317Y00708
X00296Y00723
X00282Y00697
Y00688
X00272Y00697
X00266Y0068
X00249Y00673
X00235Y00659
X00309Y0067
X00334Y00644
X00341Y00559
X00391Y0055419
X00396Y00589
Y00604
X00393Y00507
X00391Y00467
X00366Y00474
X0036Y00483
X00349Y00492
X00344Y005
X00312Y00485
X00289Y00549
X00269
X0025Y00558
X00241Y00553
X0025Y00579
X00266Y00579
X00254Y00736
Y00745
X00282Y00781
X00299
X00385Y00404
X0039Y00802
X00386Y00809
X0039Y00816
Y0083
Y00844
X00391Y00858
Y00872
X00391Y00879123
X00326Y00917
Y00953
Y00963
X00341Y00968
X00336Y00947
X003Y00953
X00267Y00938
X00254
Y00955
Y00975
Y01036
X00265Y01053
X00288Y01074
X00281Y01101
X0029Y01122
X0032Y01093
X00344
X00344Y0110519
X00335Y01043
X00324Y01036
Y0101
X00346Y00996
X0038Y01000123
X00385Y01036
X00389Y01138
Y01151
X00305Y00858
X00268Y00846
X00254Y00837
X00319Y00822
X00318Y00813
X00398Y00823
Y00837
Y00851
Y00865
X00398Y0089419
X00402Y009
X00437Y0093619
Y0095719
Y0100419
Y0101819
Y0108719
X00437Y0110919
Y0113119
X00513Y01127
X00504Y01116
X00513Y01175
X00545Y01056
X0051Y00917
X00486Y0084
X00479Y00833
X00473Y00827
X00467Y00821
X00461Y00815
X00455Y00809
X00449Y00803
X00443Y00797
X00409Y00795
X00651Y01133
X00786
Y01175
X00918
Y01133
X01055Y01139
X01192
Y01175
X01323
Y01139
X0146Y01145
X01597Y01142
Y01175
X01728
Y01142
X01865Y01151
X02002Y01142
Y01176
X02133Y01175
Y01142
X0227Y01157
X02407Y01142
Y01175
X02538
Y01143
X02675Y01163
X02812Y01175
Y01143
X02943Y01142
Y01175
X0308Y01169
X03217Y01175
Y01143
T03
X00355Y00335
X00357Y00396
X00423Y00386
X0042Y00401
X00415Y00435
X00465Y00414
X00436Y00526
Y00623
X00425Y00695
X00365Y0058
X0028Y00635
X00279Y00526
X00357Y00445
T05
X0031Y00229
Y00301
T06
X0028919Y00431
Y00491
T07
X00473Y00387
X00878Y00387
X01283Y00388
X01688Y00388
X02093Y00387
X02498
X02903
T08
X0308Y00469648
X02675
X0227
X01865Y00470648
X0146Y00470648
X01055Y00469648
X0065Y00469648
Y01022352
X01055Y01022352
X0146Y01023352
X01865Y01023352
X0227Y01022352
X02675
X0308
T09
X03256Y0047
X02851
X02446
X02041Y00471
X01636Y00471
X01231Y0047
X00826Y0047
X00474Y01022
X00879Y01022
X01284Y01023
X01689Y01023
X02094Y01022
X02499
X02904
M30
