G04*
G04 #@! TF.GenerationSoftware,Altium Limited,Altium Designer,18.1.7 (191)*
G04*
G04 Layer_Physical_Order=1*
G04 Layer_Color=255*
%FSLAX44Y44*%
%MOMM*%
G71*
G01*
G75*
%ADD11C,0.2000*%
%ADD21R,1.0000X0.4500*%
%ADD22R,0.8000X0.8000*%
%ADD23R,0.6000X0.6000*%
%ADD24R,6.0000X6.0000*%
G04:AMPARAMS|DCode=25|XSize=2mm|YSize=1mm|CornerRadius=0mm|HoleSize=0mm|Usage=FLASHONLY|Rotation=180.000|XOffset=0mm|YOffset=0mm|HoleType=Round|Shape=Octagon|*
%AMOCTAGOND25*
4,1,8,-1.0000,0.2500,-1.0000,-0.2500,-0.7500,-0.5000,0.7500,-0.5000,1.0000,-0.2500,1.0000,0.2500,0.7500,0.5000,-0.7500,0.5000,-1.0000,0.2500,0.0*
%
%ADD25OCTAGOND25*%

%ADD26R,2.0000X1.0000*%
%ADD27R,7.0000X5.0000*%
%ADD28R,6.0000X6.0000*%
G04:AMPARAMS|DCode=29|XSize=2mm|YSize=1mm|CornerRadius=0mm|HoleSize=0mm|Usage=FLASHONLY|Rotation=90.000|XOffset=0mm|YOffset=0mm|HoleType=Round|Shape=Octagon|*
%AMOCTAGOND29*
4,1,8,0.2500,1.0000,-0.2500,1.0000,-0.5000,0.7500,-0.5000,-0.7500,-0.2500,-1.0000,0.2500,-1.0000,0.5000,-0.7500,0.5000,0.7500,0.2500,1.0000,0.0*
%
%ADD29OCTAGOND29*%

%ADD30R,1.0000X2.0000*%
%ADD31R,0.6000X0.6000*%
%ADD32R,2.0000X1.1000*%
%ADD33R,0.5500X0.8000*%
%ADD34R,1.4500X0.3000*%
%ADD35R,1.1000X0.7000*%
%ADD36R,0.7000X1.1000*%
%ADD37R,0.9800X0.9300*%
%ADD38R,1.1500X0.6000*%
%ADD39R,1.1500X0.3000*%
%ADD40R,0.6000X0.2000*%
%ADD41R,1.8000X3.4000*%
%ADD42O,1.3500X0.3500*%
%ADD43R,1.2000X0.3000*%
%ADD44R,0.3000X1.2000*%
%ADD45R,0.8000X0.5500*%
%ADD46R,0.4500X1.0000*%
%ADD47R,1.7000X2.4000*%
%ADD48R,1.1000X2.0000*%
%ADD81C,0.4000*%
%ADD82C,0.3000*%
%ADD83C,0.5000*%
%ADD84C,1.0000*%
%ADD85C,0.6000*%
%ADD86R,5.0000X3.0000*%
%ADD87R,3.0000X4.0000*%
%ADD88R,76.5000X1.4000*%
%ADD89R,26.5000X3.0000*%
%ADD90R,5.0000X5.0000*%
%ADD91R,9.5000X5.8000*%
%ADD92R,24.0000X3.0000*%
%ADD93R,11.2190X5.8000*%
%ADD94R,2.4000X3.2000*%
%ADD95R,9.5000X5.8000*%
%ADD96R,14.5000X5.8000*%
%ADD97R,13.7000X5.8000*%
%ADD98R,28.5000X3.7000*%
%ADD99R,9.5000X5.8000*%
%ADD100R,8.5000X8.4000*%
%ADD101R,4.5000X14.6000*%
%ADD102R,17.3000X7.7000*%
%ADD103R,9.9000X12.3000*%
%ADD104R,0.6000X0.4000*%
%ADD105R,7.4000X4.4000*%
%ADD106R,6.4000X5.0000*%
%ADD107R,6.6000X5.8000*%
%ADD108R,8.6000X3.5000*%
%ADD109R,14.0000X5.2000*%
%ADD110R,5.0000X7.2000*%
%ADD111R,26.0000X4.5000*%
%ADD112R,197.5000X5.7000*%
%ADD113R,25.9810X3.0000*%
%ADD114R,4.0000X4.0000*%
%ADD115O,3.0000X2.0000*%
%ADD116R,2.0000X1.2000*%
%ADD117R,2.3000X1.2000*%
%ADD118C,0.4800*%
%ADD119C,0.5080*%
%ADD120C,1.2700*%
G36*
X288467Y1178730D02*
X288422Y1178500D01*
X288422Y1178500D01*
Y1152940D01*
X286500D01*
Y1143440D01*
X298500D01*
Y1152940D01*
X296578D01*
Y1171902D01*
X303832D01*
X304482Y1170632D01*
X304174Y1170171D01*
X303941Y1169000D01*
Y1146000D01*
X303941Y1146000D01*
X304174Y1144829D01*
X304837Y1143837D01*
X309500Y1139174D01*
Y1133940D01*
X321500D01*
Y1143440D01*
X313885D01*
X310059Y1147267D01*
Y1152940D01*
X321500D01*
Y1155132D01*
X327750D01*
Y1152190D01*
X336250D01*
Y1157565D01*
X342000D01*
Y1156080D01*
X342000D01*
Y1155920D01*
X342000D01*
Y1145920D01*
X343941D01*
Y1143191D01*
X343941Y1143190D01*
X343941Y1143190D01*
Y1140249D01*
X336250D01*
Y1144190D01*
X327750D01*
Y1130190D01*
X327941D01*
Y1127000D01*
X324920D01*
Y1117385D01*
X324647Y1117104D01*
X323862Y1116489D01*
X323059Y1116718D01*
Y1122000D01*
X322826Y1123171D01*
X322163Y1124163D01*
X321171Y1124826D01*
X320000Y1125059D01*
X320000Y1125059D01*
X315080D01*
Y1127000D01*
X305460D01*
Y1127540D01*
X301190D01*
Y1122000D01*
X299920D01*
Y1120730D01*
X294380D01*
Y1116460D01*
X293267Y1116080D01*
X285000D01*
Y1106460D01*
X284460D01*
Y1102190D01*
X290000D01*
Y1100920D01*
X291270D01*
Y1095380D01*
X295540D01*
Y1096043D01*
X296941D01*
Y1091000D01*
X296941Y1091000D01*
X297174Y1089829D01*
X297837Y1088837D01*
X300837Y1085837D01*
X300837Y1085837D01*
X301017Y1085717D01*
X300632Y1084447D01*
X300250D01*
X298787Y1084156D01*
X297546Y1083327D01*
X296717Y1082086D01*
X296427Y1080623D01*
X296717Y1079160D01*
X297410Y1078123D01*
X296717Y1077086D01*
X296427Y1075623D01*
X296717Y1074160D01*
X297086Y1073609D01*
X296209Y1072297D01*
X295876Y1070623D01*
X295981Y1070094D01*
X295863Y1069959D01*
X294827Y1069387D01*
X294171Y1069826D01*
X293000Y1070059D01*
X293000Y1070059D01*
X258000D01*
X258000Y1070059D01*
X256829Y1069826D01*
X255837Y1069163D01*
X255837Y1069163D01*
X241173Y1054499D01*
X240000Y1054985D01*
Y1180000D01*
X287425D01*
X288467Y1178730D01*
D02*
G37*
G36*
X347000Y1097635D02*
X345880Y1097036D01*
X345717Y1097145D01*
X344000Y1097486D01*
X342283Y1097145D01*
X340828Y1096172D01*
X339855Y1094717D01*
X339514Y1093000D01*
X339855Y1091283D01*
X339941Y1091155D01*
Y1037267D01*
X337837Y1035163D01*
X337174Y1034171D01*
X336941Y1033000D01*
X336941Y1033000D01*
Y990000D01*
X336941Y990000D01*
X337174Y988829D01*
X337837Y987837D01*
X343941Y981733D01*
Y972000D01*
X343941Y972000D01*
X344174Y970829D01*
X344837Y969837D01*
X346941Y967733D01*
Y952000D01*
X346941Y952000D01*
X347174Y950829D01*
X347837Y949837D01*
X353837Y943837D01*
X354829Y943174D01*
X356000Y942941D01*
X356000Y942941D01*
X364733D01*
X366541Y941133D01*
X366015Y939863D01*
X358270D01*
Y935823D01*
X357000D01*
Y934553D01*
X347210D01*
Y932182D01*
X338144D01*
X323318Y947007D01*
X323420Y948135D01*
X324470Y948818D01*
X326000Y948514D01*
X327717Y948855D01*
X329172Y949828D01*
X330145Y951283D01*
X330486Y953000D01*
X331102Y953750D01*
X344000D01*
Y962250D01*
X337059D01*
Y975000D01*
X337059Y975000D01*
X336826Y976171D01*
X336163Y977163D01*
X325163Y988163D01*
X324170Y988826D01*
X323000Y989059D01*
X323000Y989059D01*
X318640D01*
X317901Y990329D01*
X318059Y991123D01*
Y1000123D01*
X317826Y1001294D01*
X317163Y1002286D01*
X316171Y1002949D01*
X315000Y1003182D01*
X314540D01*
X313840Y1004452D01*
X314073Y1005623D01*
X314007Y1005959D01*
X314812Y1006941D01*
X320752D01*
X320828Y1006828D01*
X322283Y1005855D01*
X324000Y1005514D01*
X325717Y1005855D01*
X327172Y1006828D01*
X328145Y1008283D01*
X328486Y1010000D01*
X328145Y1011717D01*
X327172Y1013172D01*
X325717Y1014145D01*
X324000Y1014486D01*
X322283Y1014145D01*
X320828Y1013172D01*
X320752Y1013059D01*
X319422D01*
X318743Y1014329D01*
X318826Y1014453D01*
X319059Y1015623D01*
Y1026123D01*
X318826Y1027294D01*
X318163Y1028286D01*
X317171Y1028949D01*
X316000Y1029182D01*
X314788D01*
X313982Y1030164D01*
X314073Y1030623D01*
X313865Y1031671D01*
X314622Y1032941D01*
X320752D01*
X320828Y1032828D01*
X322283Y1031855D01*
X324000Y1031514D01*
X325717Y1031855D01*
X327172Y1032828D01*
X328145Y1034283D01*
X328486Y1036000D01*
X328145Y1037717D01*
X327172Y1039172D01*
X327059Y1039248D01*
Y1040733D01*
X334163Y1047837D01*
X334163Y1047837D01*
X334163Y1047837D01*
X336163Y1049837D01*
X336163Y1049837D01*
X336826Y1050829D01*
X337059Y1052000D01*
X337059Y1052000D01*
Y1102733D01*
X343267Y1108941D01*
X347000D01*
Y1097635D01*
D02*
G37*
G36*
X302920Y958000D02*
X302920D01*
Y958000D01*
X302112Y957298D01*
X301873Y957150D01*
X301650Y957158D01*
X300000Y957486D01*
X298283Y957145D01*
X296828Y956172D01*
X296752Y956059D01*
X290000D01*
X290000Y956059D01*
X288829Y955826D01*
X287837Y955163D01*
X287837Y955163D01*
X265837Y933163D01*
X265174Y932170D01*
X264941Y931000D01*
X264941Y931000D01*
Y854000D01*
X264941Y854000D01*
X265174Y852830D01*
X265837Y851837D01*
X272941Y844733D01*
Y805000D01*
X272941Y805000D01*
X273174Y803829D01*
X273837Y802837D01*
X291837Y784837D01*
X292829Y784174D01*
X294000Y783941D01*
X294000Y783941D01*
X303000D01*
Y771000D01*
X305941D01*
Y727000D01*
X303000D01*
Y726059D01*
X299416D01*
X299273Y726273D01*
X297771Y727277D01*
X296000Y727629D01*
X294229Y727277D01*
X292727Y726273D01*
X291723Y724771D01*
X291371Y723000D01*
X291723Y721229D01*
X292727Y719727D01*
X294229Y718723D01*
X296000Y718371D01*
X297771Y718723D01*
X299273Y719727D01*
X299417Y719941D01*
X303000D01*
Y712000D01*
X314000D01*
Y727000D01*
X312059D01*
Y732819D01*
X313329Y733345D01*
X327837Y718837D01*
X327837Y718837D01*
X328829Y718174D01*
X330000Y717941D01*
X330000Y717941D01*
X351158D01*
X351677Y716971D01*
X351703Y716671D01*
X351371Y715000D01*
X351466Y714522D01*
X350661Y713540D01*
X345540D01*
Y713000D01*
X335920D01*
Y712856D01*
X334988Y712358D01*
X334650Y712301D01*
X333000Y712629D01*
X331810Y712392D01*
X330540Y713228D01*
Y713620D01*
X326270D01*
Y708080D01*
X325000D01*
Y706810D01*
X319460D01*
Y702540D01*
X320000D01*
Y699683D01*
X318730Y698914D01*
X318000Y699059D01*
X315900D01*
Y701350D01*
X302100D01*
Y688050D01*
X314941D01*
Y685950D01*
X302100D01*
Y672650D01*
X304412D01*
Y670205D01*
X304371Y670000D01*
X304681Y668441D01*
X304135Y667939D01*
X303634Y667692D01*
X285804Y685522D01*
X286277Y686229D01*
X286629Y688000D01*
X286277Y689771D01*
X285273Y691273D01*
X283771Y692277D01*
X282000Y692629D01*
X280229Y692277D01*
X278727Y691273D01*
X277723Y689771D01*
X277661Y689460D01*
X276283Y689042D01*
X273794Y691532D01*
X274147Y692975D01*
X275273Y693727D01*
X276277Y695229D01*
X276629Y697000D01*
X276379Y698257D01*
X277136Y699330D01*
X277336Y699460D01*
X280810D01*
Y705000D01*
Y710540D01*
X276540D01*
Y710000D01*
X274979D01*
Y712000D01*
X277000D01*
Y727000D01*
X274059D01*
Y771000D01*
X277000D01*
Y786000D01*
X268059D01*
Y840000D01*
X267826Y841171D01*
X267163Y842163D01*
X267163Y842163D01*
X263059Y846267D01*
Y941000D01*
X263059Y941000D01*
X262826Y942170D01*
X262163Y943163D01*
X262163Y943163D01*
X257059Y948267D01*
Y951752D01*
X257172Y951828D01*
X258145Y953283D01*
X258486Y955000D01*
X258145Y956717D01*
X257172Y958172D01*
X256425Y958671D01*
X256811Y959941D01*
X302920D01*
Y958000D01*
D02*
G37*
G36*
X268380Y1054270D02*
X273920D01*
Y1051730D01*
X268380D01*
Y1047460D01*
Y1043270D01*
X273920D01*
Y1040730D01*
X268380D01*
Y1036460D01*
Y1033270D01*
X273920D01*
Y1030730D01*
X268380D01*
Y1026460D01*
X268380D01*
X268920Y1026000D01*
Y1016000D01*
X270941D01*
Y1015000D01*
X271174Y1013829D01*
X271837Y1012837D01*
X272829Y1012174D01*
X274000Y1011941D01*
X283000D01*
Y1004080D01*
X283000D01*
Y1003920D01*
X283000D01*
Y993920D01*
X293000D01*
Y997565D01*
X295626D01*
X296560Y996295D01*
X296427Y995623D01*
X296717Y994160D01*
X297410Y993123D01*
X296717Y992086D01*
X296427Y990623D01*
X296717Y989160D01*
X297410Y988123D01*
X296717Y987086D01*
X296427Y985623D01*
X296717Y984160D01*
X297410Y983123D01*
X296717Y982086D01*
X296427Y980623D01*
X296717Y979160D01*
X297410Y978123D01*
X296717Y977086D01*
X296427Y975623D01*
X296717Y974160D01*
X297546Y972920D01*
X298787Y972091D01*
X300250Y971800D01*
X310250D01*
X311713Y972091D01*
X312954Y972920D01*
X313782Y974160D01*
X314073Y975623D01*
X313782Y977086D01*
X313090Y978123D01*
X313782Y979160D01*
X314073Y980623D01*
X313865Y981671D01*
X314622Y982941D01*
X321733D01*
X330941Y973733D01*
Y962250D01*
X330000D01*
Y957045D01*
X328730Y956468D01*
X327717Y957145D01*
X326000Y957486D01*
X324802Y957248D01*
X323730Y958032D01*
X323620Y958209D01*
Y961730D01*
X318080D01*
Y963000D01*
X316810D01*
Y968540D01*
X312540D01*
Y968000D01*
X302920D01*
Y966059D01*
X253000D01*
X251829Y965826D01*
X250837Y965163D01*
X250837Y965163D01*
X247232Y961558D01*
X246059Y962044D01*
Y1038733D01*
X263267Y1055941D01*
X268380D01*
Y1054270D01*
D02*
G37*
G36*
X299837Y644837D02*
X299837Y644837D01*
X300830Y644174D01*
X302000Y643941D01*
X302000Y643941D01*
X323441D01*
Y612623D01*
X318500D01*
Y607182D01*
X263059D01*
Y675158D01*
X264029Y675677D01*
X264329Y675704D01*
X266000Y675371D01*
X267771Y675723D01*
X268478Y676196D01*
X299837Y644837D01*
D02*
G37*
G36*
X450000Y699674D02*
Y602182D01*
X418540D01*
Y602853D01*
X410000D01*
X401460D01*
Y600083D01*
X402000D01*
Y593163D01*
X401460D01*
Y590393D01*
X410000D01*
Y587853D01*
X401460D01*
Y585083D01*
X402000D01*
Y580623D01*
Y570623D01*
Y560623D01*
Y550623D01*
X418000D01*
Y551064D01*
X450000D01*
Y488975D01*
X448730Y488590D01*
X448273Y489273D01*
X446771Y490277D01*
X445000Y490629D01*
X443229Y490277D01*
X441858Y489361D01*
X441260Y489512D01*
X440588Y489855D01*
Y518996D01*
X441955Y520045D01*
X443294Y521789D01*
X444135Y523820D01*
X444422Y526000D01*
X444135Y528180D01*
X443294Y530211D01*
X441955Y531955D01*
X440211Y533294D01*
X438180Y534135D01*
X436000Y534422D01*
X433820Y534135D01*
X431789Y533294D01*
X430045Y531955D01*
X428706Y530211D01*
X427865Y528180D01*
X427578Y526000D01*
X427865Y523820D01*
X428706Y521789D01*
X430045Y520045D01*
X431412Y518996D01*
Y515059D01*
X413267D01*
X398809Y529517D01*
Y531873D01*
X399250D01*
Y547873D01*
X394790D01*
Y548413D01*
X392020D01*
Y539873D01*
Y531333D01*
X392691D01*
Y528250D01*
X392691Y528250D01*
X392924Y527080D01*
X393587Y526087D01*
X409837Y509837D01*
X410830Y509174D01*
X412000Y508941D01*
X431412D01*
Y486059D01*
X418000D01*
Y487540D01*
X418540D01*
Y491810D01*
X413000D01*
Y493080D01*
X411730D01*
Y498620D01*
X407460D01*
Y494847D01*
X406190Y494168D01*
X406000Y494295D01*
Y498080D01*
X396000D01*
Y493071D01*
X394891Y492597D01*
X394000Y493332D01*
Y498080D01*
X392059D01*
Y500000D01*
X392059Y500000D01*
X391826Y501171D01*
X391719Y501331D01*
X392482Y502474D01*
X393000Y502371D01*
X394771Y502723D01*
X396273Y503727D01*
X397277Y505229D01*
X397629Y507000D01*
X397277Y508771D01*
X396273Y510273D01*
X394771Y511277D01*
X393000Y511629D01*
X392747Y511579D01*
X389059Y515267D01*
Y531333D01*
X389480D01*
Y539873D01*
Y548413D01*
X386710D01*
Y547873D01*
X337250D01*
Y531873D01*
X337691D01*
Y526017D01*
X329733Y518059D01*
X284453D01*
X284022Y519329D01*
X284955Y520045D01*
X286294Y521789D01*
X287135Y523820D01*
X287422Y526000D01*
X287135Y528180D01*
X286294Y530211D01*
X284955Y531955D01*
X283211Y533294D01*
X282139Y533738D01*
Y536000D01*
X284080D01*
Y537941D01*
X288000D01*
X288000Y537941D01*
X294000D01*
X294000Y537941D01*
X295171Y538174D01*
X296163Y538837D01*
X298163Y540837D01*
X298163Y540837D01*
X308267Y550941D01*
X318500D01*
Y550623D01*
X334500D01*
Y555083D01*
X335040D01*
Y557853D01*
X326500D01*
X317960D01*
Y557059D01*
X307000D01*
X307000Y557059D01*
X305830Y556826D01*
X304837Y556163D01*
X293837Y545163D01*
X293837Y545163D01*
X292733Y544059D01*
X284080D01*
Y546000D01*
X274460D01*
Y546540D01*
X270190D01*
Y541000D01*
Y535460D01*
X274460D01*
Y536000D01*
X276021D01*
Y533804D01*
X274789Y533294D01*
X273045Y531955D01*
X271706Y530211D01*
X270865Y528180D01*
X270578Y526000D01*
X270865Y523820D01*
X271706Y521789D01*
X273045Y520045D01*
X273978Y519329D01*
X273547Y518059D01*
X255267D01*
X253059Y520267D01*
Y554584D01*
X253273Y554727D01*
X254277Y556229D01*
X254629Y558000D01*
X254297Y559671D01*
X254323Y559971D01*
X254842Y560941D01*
X317960D01*
Y560393D01*
X326500D01*
X335040D01*
Y563163D01*
X334500D01*
Y570623D01*
Y580623D01*
Y590623D01*
Y600623D01*
Y612623D01*
X329559D01*
Y647000D01*
X330331Y647941D01*
X337691D01*
Y631373D01*
X337250D01*
Y615373D01*
X352250D01*
Y615373D01*
X359250D01*
Y615373D01*
X382250D01*
Y615373D01*
X389250D01*
Y615373D01*
X392250D01*
Y615373D01*
X399250D01*
Y631373D01*
X399059D01*
Y641941D01*
X420000D01*
Y640110D01*
X430000D01*
Y640110D01*
X431000Y639920D01*
X431000Y639920D01*
X431191Y639920D01*
X432941D01*
Y630771D01*
X431789Y630294D01*
X430045Y628955D01*
X428706Y627211D01*
X427865Y625180D01*
X427578Y623000D01*
X427865Y620820D01*
X428706Y618789D01*
X430045Y617045D01*
X431789Y615706D01*
X432941Y615229D01*
Y612059D01*
X418000D01*
Y612623D01*
X402000D01*
Y608163D01*
X401460D01*
Y605393D01*
X410000D01*
X418540D01*
Y605941D01*
X436000D01*
X437171Y606174D01*
X438163Y606837D01*
X438826Y607829D01*
X439059Y609000D01*
Y615229D01*
X440211Y615706D01*
X441955Y617045D01*
X443294Y618789D01*
X444135Y620820D01*
X444422Y623000D01*
X444135Y625180D01*
X443294Y627211D01*
X441955Y628955D01*
X440211Y630294D01*
X439059Y630771D01*
Y639920D01*
X441000D01*
Y649540D01*
X441540D01*
Y653810D01*
X436000D01*
Y655080D01*
X434730D01*
Y660620D01*
X430540D01*
Y660810D01*
X426270D01*
Y655270D01*
X425000D01*
Y654000D01*
X419460D01*
Y649730D01*
X420000D01*
Y648059D01*
X396000D01*
X395329Y647925D01*
X394059Y648722D01*
Y652733D01*
X404163Y662837D01*
X404163Y662837D01*
X404826Y663829D01*
X405059Y665000D01*
Y716000D01*
X405059Y716000D01*
X404826Y717170D01*
X404163Y718163D01*
X404163Y718163D01*
X401558Y720768D01*
X402044Y721941D01*
X427733D01*
X450000Y699674D01*
D02*
G37*
G36*
X347941Y508267D02*
X344253Y504579D01*
X344000Y504629D01*
X342229Y504277D01*
X340727Y503273D01*
X339723Y501771D01*
X339371Y500000D01*
X339723Y498229D01*
X340727Y496727D01*
X342229Y495723D01*
X344000Y495371D01*
X344305Y495432D01*
X345069Y494289D01*
X344723Y493771D01*
X344371Y492000D01*
X344723Y490229D01*
X345727Y488727D01*
X347229Y487723D01*
X349000Y487371D01*
X350771Y487723D01*
X352273Y488727D01*
X353277Y490229D01*
X353629Y492000D01*
X353579Y492253D01*
X356768Y495442D01*
X357941Y494956D01*
Y487085D01*
X356727Y486273D01*
X355723Y484771D01*
X355371Y483000D01*
X355723Y481229D01*
X356727Y479727D01*
X358229Y478723D01*
X360000Y478371D01*
X361312Y478632D01*
X362460Y477820D01*
X362556Y477017D01*
X361723Y475771D01*
X361371Y474000D01*
X361703Y472329D01*
X361677Y472029D01*
X361158Y471059D01*
X324504D01*
X323825Y472329D01*
X323826Y472329D01*
X324059Y473500D01*
Y476920D01*
X326000D01*
Y486540D01*
X326540D01*
Y490810D01*
X321000D01*
X315460D01*
Y489676D01*
X314190Y488997D01*
X313771Y489277D01*
X312000Y489629D01*
X310229Y489277D01*
X309720Y488937D01*
X308450Y489616D01*
Y490730D01*
X300160D01*
Y493270D01*
X308450D01*
Y495660D01*
X308900D01*
Y502930D01*
X283820D01*
Y495660D01*
X284603D01*
X285141Y494390D01*
X284245Y493049D01*
X283838Y491000D01*
X284245Y488952D01*
X285329Y487329D01*
X285024Y486059D01*
X280000D01*
X278829Y485826D01*
X277837Y485163D01*
X277174Y484171D01*
X276941Y483000D01*
Y439000D01*
X276941Y439000D01*
Y396000D01*
X277174Y394829D01*
X277837Y393837D01*
X278829Y393174D01*
X280000Y392941D01*
X313000D01*
Y391750D01*
X327000D01*
Y400250D01*
X313000D01*
Y399059D01*
X283059D01*
Y408205D01*
X283820Y409160D01*
X295090D01*
Y417700D01*
X296360D01*
Y418970D01*
X308900D01*
Y426240D01*
X308450D01*
Y428730D01*
X300160D01*
Y431270D01*
X308450D01*
Y435540D01*
X307940D01*
Y440441D01*
X315233D01*
X316000Y439674D01*
Y435460D01*
X315460D01*
Y431190D01*
X326540D01*
Y435460D01*
X326000D01*
Y445080D01*
X327120Y445441D01*
X331233D01*
X374837Y401837D01*
X375830Y401174D01*
X377000Y400941D01*
X381584D01*
X381727Y400727D01*
X383229Y399723D01*
X385000Y399371D01*
X386771Y399723D01*
X388273Y400727D01*
X389277Y402229D01*
X389629Y404000D01*
X389277Y405771D01*
X388273Y407273D01*
X386771Y408277D01*
X385000Y408629D01*
X383229Y408277D01*
X381727Y407273D01*
X381584Y407059D01*
X378267D01*
X335163Y450163D01*
X335163Y450163D01*
X334663Y450663D01*
X333671Y451326D01*
X332500Y451559D01*
X332500Y451559D01*
X320722D01*
X319925Y452829D01*
X320059Y453500D01*
Y460941D01*
X323000D01*
X323000Y460941D01*
X385000D01*
X386171Y461174D01*
X387163Y461837D01*
X387504Y462348D01*
X389028Y462858D01*
X389229Y462723D01*
X391000Y462371D01*
X391253Y462421D01*
X396941Y456733D01*
Y370000D01*
X394620D01*
Y372540D01*
X390350D01*
Y367000D01*
X387810D01*
Y372540D01*
X383540D01*
Y372000D01*
X364080D01*
Y372000D01*
X363920D01*
Y372000D01*
X344080D01*
Y372000D01*
X343920D01*
Y372000D01*
X333920D01*
Y371800D01*
X332873Y371149D01*
X332650Y371158D01*
X331000Y371486D01*
X329283Y371145D01*
X327828Y370172D01*
X327713Y370000D01*
X243059D01*
Y408164D01*
X243720Y409160D01*
X244329Y409160D01*
X256490D01*
Y417700D01*
Y426240D01*
X244329D01*
X243720Y426240D01*
X243059Y427236D01*
Y494664D01*
X243720Y495660D01*
X256490D01*
Y504200D01*
X257760D01*
Y505470D01*
X271800D01*
Y511941D01*
X283820D01*
Y505470D01*
X308900D01*
Y511941D01*
X331000D01*
X331000Y511941D01*
X332171Y512174D01*
X333163Y512837D01*
X342913Y522587D01*
X342913Y522587D01*
X343576Y523579D01*
X343809Y524750D01*
Y531873D01*
X347941D01*
Y508267D01*
D02*
G37*
G36*
X396000Y482668D02*
Y477920D01*
X406000D01*
Y482929D01*
X407109Y483403D01*
X408000Y482668D01*
Y477920D01*
X418000D01*
Y479941D01*
X431412D01*
Y436900D01*
X404232Y409721D01*
X403059Y410207D01*
Y458000D01*
X402826Y459170D01*
X402163Y460163D01*
X402163Y460163D01*
X395579Y466747D01*
X395629Y467000D01*
X395277Y468771D01*
X394273Y470273D01*
X392771Y471277D01*
X391000Y471629D01*
X389329Y471297D01*
X389029Y471323D01*
X388059Y471842D01*
Y475733D01*
X390246Y477920D01*
X394000D01*
Y482929D01*
X395109Y483403D01*
X396000Y482668D01*
D02*
G37*
G36*
X441941Y481350D02*
Y394267D01*
X420837Y373163D01*
X420174Y372170D01*
X419941Y371000D01*
X419198Y370000D01*
X415569D01*
Y392522D01*
X416471Y393424D01*
X417820Y392865D01*
X420000Y392578D01*
X422180Y392865D01*
X424211Y393706D01*
X425955Y395045D01*
X427294Y396789D01*
X428135Y398820D01*
X428422Y401000D01*
X428135Y403180D01*
X427294Y405211D01*
X425955Y406955D01*
X424211Y408294D01*
X422180Y409135D01*
X420000Y409422D01*
X418511Y409226D01*
X417918Y410429D01*
X439244Y431756D01*
X440239Y433244D01*
X440588Y435000D01*
Y480779D01*
X441826Y481543D01*
X441941Y481350D01*
D02*
G37*
G36*
X1874000Y256000D02*
X1219001Y256000D01*
X1219000Y263000D01*
X1263000Y307000D01*
X1874000D01*
X1874000Y256000D01*
D02*
G37*
%LPC*%
G36*
X298650Y1127540D02*
X294380D01*
Y1123270D01*
X298650D01*
Y1127540D01*
D02*
G37*
G36*
X288730Y1099650D02*
X284460D01*
Y1095380D01*
X288730D01*
Y1099650D01*
D02*
G37*
G36*
X355730Y939863D02*
X347210D01*
Y937093D01*
X355730D01*
Y939863D01*
D02*
G37*
G36*
X323730Y713620D02*
X319460D01*
Y709350D01*
X323730D01*
Y713620D01*
D02*
G37*
G36*
X287620Y710540D02*
X283350D01*
Y706270D01*
X287620D01*
Y710540D01*
D02*
G37*
G36*
Y703730D02*
X283350D01*
Y699460D01*
X287620D01*
Y703730D01*
D02*
G37*
G36*
X260540Y1033540D02*
X255270D01*
Y1028270D01*
X260540D01*
Y1033540D01*
D02*
G37*
G36*
X252730D02*
X247460D01*
Y1028270D01*
X252730D01*
Y1033540D01*
D02*
G37*
G36*
X260540Y1025730D02*
X255270D01*
Y1020460D01*
X260540D01*
Y1025730D01*
D02*
G37*
G36*
X252730D02*
X247460D01*
Y1020460D01*
X252730D01*
Y1025730D01*
D02*
G37*
G36*
X260000Y1019000D02*
X248000D01*
Y1007000D01*
X250941D01*
Y1005080D01*
X249000D01*
Y996190D01*
X249000Y995080D01*
X249000Y993810D01*
Y984920D01*
X250941D01*
Y978248D01*
X250828Y978172D01*
X249855Y976717D01*
X249514Y975000D01*
X249855Y973283D01*
X250828Y971828D01*
X252283Y970855D01*
X254000Y970514D01*
X255717Y970855D01*
X257172Y971828D01*
X258145Y973283D01*
X258486Y975000D01*
X258145Y976717D01*
X257172Y978172D01*
X257059Y978248D01*
Y984920D01*
X259000D01*
Y993810D01*
X259000Y994920D01*
X259000Y996190D01*
Y1005080D01*
X257059D01*
Y1007000D01*
X260000D01*
Y1019000D01*
D02*
G37*
G36*
X323620Y968540D02*
X319350D01*
Y964270D01*
X323620D01*
Y968540D01*
D02*
G37*
G36*
X423730Y660810D02*
X419460D01*
Y656540D01*
X423730D01*
Y660810D01*
D02*
G37*
G36*
X441540Y660620D02*
X437270D01*
Y656350D01*
X441540D01*
Y660620D01*
D02*
G37*
G36*
X267650Y546540D02*
X263380D01*
Y542270D01*
X267650D01*
Y546540D01*
D02*
G37*
G36*
Y539730D02*
X263380D01*
Y535460D01*
X267650D01*
Y539730D01*
D02*
G37*
G36*
X418540Y498620D02*
X414270D01*
Y494350D01*
X418540D01*
Y498620D01*
D02*
G37*
G36*
X271800Y502930D02*
X259030D01*
Y495660D01*
X271800D01*
Y502930D01*
D02*
G37*
G36*
X326540Y497620D02*
X322270D01*
Y493350D01*
X326540D01*
Y497620D01*
D02*
G37*
G36*
X319730D02*
X315460D01*
Y493350D01*
X319730D01*
Y497620D01*
D02*
G37*
G36*
X326540Y428650D02*
X322270D01*
Y424380D01*
X326540D01*
Y428650D01*
D02*
G37*
G36*
X319730D02*
X315460D01*
Y424380D01*
X319730D01*
Y428650D01*
D02*
G37*
G36*
X259030Y426240D02*
Y418970D01*
X271800D01*
Y426240D01*
X259030D01*
D02*
G37*
G36*
X308900Y416430D02*
X297630D01*
Y409160D01*
X308900D01*
Y416430D01*
D02*
G37*
G36*
X271800D02*
X259030D01*
Y409160D01*
X271800D01*
Y416430D01*
D02*
G37*
G36*
X357000Y404422D02*
X354820Y404135D01*
X352789Y403294D01*
X351045Y401955D01*
X350105Y400731D01*
X349000Y400250D01*
X349000Y400250D01*
X349000Y400250D01*
X335000D01*
Y391750D01*
X349000D01*
X349000Y391750D01*
X350083Y391298D01*
X351045Y390045D01*
X352789Y388706D01*
X354820Y387865D01*
X357000Y387578D01*
X359180Y387865D01*
X361211Y388706D01*
X362955Y390045D01*
X364294Y391789D01*
X365135Y393820D01*
X365422Y396000D01*
X365135Y398180D01*
X364294Y400211D01*
X362955Y401955D01*
X361211Y403294D01*
X359180Y404135D01*
X357000Y404422D01*
D02*
G37*
%LPD*%
D11*
X419000Y1131123D02*
Y1141000D01*
X418810Y1141190D02*
X419000D01*
X418920Y1131043D02*
Y1131123D01*
X418000Y1130123D02*
X418920Y1131043D01*
X435000Y655190D02*
X436000Y656190D01*
X424000Y655190D02*
X425000Y656190D01*
X415000Y1145000D02*
X418810Y1141190D01*
X360920Y700080D02*
Y708000D01*
X391000Y522000D02*
Y540000D01*
X740920Y213920D02*
X741000Y214000D01*
X1168500Y204000D02*
X1208000D01*
X1127000Y190000D02*
X1129000D01*
X766000Y207000D02*
X767000Y206000D01*
X586080Y246920D02*
X586920Y246080D01*
X586000Y236000D02*
X586080Y236080D01*
X586000Y216000D02*
Y234000D01*
X351000Y936000D02*
X357000D01*
X281000Y1100840D02*
X281080Y1100920D01*
X273920Y1032080D02*
X275000Y1031000D01*
X264000Y849000D02*
X268000Y845000D01*
X350080Y708000D02*
X360920D01*
X316000Y708000D02*
X317000Y707000D01*
X300190Y492000D02*
Y492000D01*
X314000Y430000D02*
X321000D01*
X295890Y504300D02*
X296190Y504000D01*
X257760Y504300D02*
X295890D01*
X282080Y781000D02*
Y781920D01*
Y705000D02*
Y781000D01*
X269000Y540000D02*
Y547920D01*
X257760Y503570D02*
X258190Y504000D01*
X257390Y417800D02*
X257760D01*
X556000Y246000D02*
X575920D01*
X417000Y172000D02*
X1034000D01*
X400000Y189000D02*
X417000Y172000D01*
X400000Y189000D02*
Y458000D01*
X395000Y190000D02*
X396000Y191000D01*
Y361000D01*
X424080Y644920D02*
X435000D01*
X410000Y609373D02*
X410250Y609123D01*
X408877Y609000D02*
X436000D01*
X575920Y216000D02*
Y226920D01*
Y206080D02*
Y216000D01*
X412000Y483000D02*
X434000D01*
X396000Y623000D02*
Y645000D01*
X296000Y723000D02*
X309000D01*
X395750Y539750D02*
X396000Y540000D01*
X307000Y554000D02*
X327000D01*
X277000Y528000D02*
X279080Y530080D01*
X277000Y528000D02*
X279000D01*
X391000Y467000D02*
X400000Y458000D01*
X377000Y361000D02*
X396000D01*
X1097000Y225000D02*
X1177000D01*
X1077000Y205000D02*
X1097000Y225000D01*
X1055000Y205000D02*
X1077000D01*
X1099000Y221000D02*
X1142000D01*
X1079000Y201000D02*
X1099000Y221000D01*
X1057000Y201000D02*
X1079000D01*
X1186000Y216000D02*
X1187000D01*
X1177000Y225000D02*
X1186000Y216000D01*
X1030000Y180000D02*
X1055000Y205000D01*
X1032000Y176000D02*
X1057000Y201000D01*
X1086080Y185000D02*
X1093000Y191920D01*
X1083000Y185000D02*
X1086080D01*
X1081000Y187000D02*
X1083000Y185000D01*
X1067000Y282000D02*
X1071000Y286000D01*
X1051000Y282000D02*
X1067000D01*
X1051000D02*
Y289000D01*
X1019000Y292000D02*
X1021000D01*
X1024000Y289000D02*
X1051000D01*
X1021000Y292000D02*
X1024000Y289000D01*
X1041000Y260000D02*
Y280920D01*
X1073000Y226000D02*
Y242000D01*
X1100000Y172000D02*
X1107000Y179000D01*
X1034000Y172000D02*
X1100000D01*
X1034000Y172000D02*
X1034000Y172000D01*
X941000Y180000D02*
X1030000D01*
X879000Y242000D02*
X941000Y180000D01*
X758000Y176000D02*
X1025000D01*
X758000D02*
Y197000D01*
X386000Y514000D02*
Y540000D01*
X280000Y483000D02*
X300160D01*
X280000Y439000D02*
X296190D01*
X280000D02*
X280000D01*
X280000D02*
Y483000D01*
X299000Y468000D02*
X381000D01*
X280000Y396000D02*
X318000D01*
X280000D02*
Y439000D01*
X333000Y448000D02*
X377000Y404000D01*
X385000D01*
Y464000D02*
Y477000D01*
X323000Y464000D02*
X385000D01*
X300190Y458500D02*
X300500D01*
X290000D02*
X300190D01*
X300500D02*
X301000Y458000D01*
X290000Y458500D02*
Y468500D01*
X381000Y468000D02*
Y477000D01*
X366000Y474000D02*
Y535000D01*
X331000Y515000D02*
X340750Y524750D01*
X254000Y515000D02*
X331000D01*
X250000Y519000D02*
X254000Y515000D01*
X373000Y357000D02*
X377000Y361000D01*
X236000Y357000D02*
X373000D01*
X266000Y579000D02*
X327000D01*
X369080Y361000D02*
Y367000D01*
X240000Y361000D02*
X369080D01*
X240000D02*
Y552000D01*
X236000Y357000D02*
Y658000D01*
X250000Y519000D02*
Y556000D01*
Y579000D02*
Y579000D01*
X250000D02*
X250000D01*
X248000Y581000D02*
X250000Y579000D01*
X240000Y552000D02*
X241000Y553000D01*
X302000Y1100043D02*
Y1101123D01*
X300000Y1099190D02*
X301000Y1099190D01*
X251000Y564000D02*
X327000D01*
X236000Y666000D02*
X236000D01*
X235000Y667000D02*
X236000Y666000D01*
X235000Y667000D02*
Y1044000D01*
X236000Y666000D02*
X240000Y662000D01*
Y575000D02*
Y662000D01*
X252000Y569000D02*
X327000D01*
X244000Y577000D02*
Y664000D01*
X239000Y669000D02*
X244000Y664000D01*
X239000Y669000D02*
Y1042000D01*
X248000Y581000D02*
Y666000D01*
X243000Y671000D02*
X248000Y666000D01*
X243000Y1040000D02*
X243000Y671000D01*
X235000Y659000D02*
X236000Y658000D01*
X389000Y373000D02*
Y375000D01*
Y373000D02*
X389080Y372920D01*
Y367000D02*
Y372920D01*
X384000Y343000D02*
Y356000D01*
X244000Y577000D02*
X245000Y576000D01*
X244000Y577000D02*
X244000D01*
X252000Y569000D01*
X254000Y683000D02*
X260000Y677000D01*
Y604123D02*
Y677000D01*
Y604123D02*
X326500D01*
X307920Y953080D02*
X308000Y953000D01*
X247000Y684000D02*
X256000Y675000D01*
Y599000D02*
Y675000D01*
Y599000D02*
X321000D01*
X271000Y717000D02*
Y774000D01*
X271920Y697000D02*
Y705000D01*
X263000Y574000D02*
X328000D01*
X249000Y672000D02*
X252000Y669000D01*
Y585000D02*
Y669000D01*
Y585000D02*
X263000Y574000D01*
X240000Y575000D02*
X251000Y564000D01*
X243000Y1040000D02*
X262000Y1059000D01*
X282000Y685000D02*
Y688000D01*
X350750Y623373D02*
Y659000D01*
X308000D02*
X350750D01*
X282000Y685000D02*
X308000Y659000D01*
X346000Y623000D02*
Y655000D01*
X254000Y989000D02*
X255000Y990000D01*
X306000Y655000D02*
X346000D01*
X265000Y696000D02*
X306000Y655000D01*
X340750Y623373D02*
Y651000D01*
X304000D02*
X340750D01*
X261000Y694000D02*
X304000Y651000D01*
X255000Y789920D02*
Y790000D01*
X254000Y787000D02*
X255500Y788500D01*
X326500Y609123D02*
Y647000D01*
X302000D02*
X326500D01*
X269000Y680000D02*
X302000Y647000D01*
X410000Y599123D02*
X454877D01*
X410000Y594123D02*
X454877D01*
X410000Y584123D02*
X454877D01*
X410000Y579123D02*
X454877D01*
X266000Y680000D02*
X269000D01*
X254000Y691920D02*
Y692000D01*
Y683000D02*
Y691920D01*
X253000Y714000D02*
X254000Y713000D01*
Y702080D02*
Y713000D01*
X247000Y684000D02*
Y785000D01*
X249000Y672000D02*
Y673000D01*
X254000Y745000D02*
Y787000D01*
Y727000D02*
Y735000D01*
X255500Y788500D02*
X256000Y789000D01*
X255500Y788500D02*
X256000Y788000D01*
X255000Y789000D02*
X255500Y788500D01*
X247000Y785000D02*
X247000Y785000D01*
X1237000Y176000D02*
Y197000D01*
Y176000D02*
Y176000D01*
X1287000Y176000D02*
X1295000D01*
X1237000D02*
X1287000D01*
X1237000Y176000D02*
X1237000Y176000D01*
X1428000Y235000D02*
Y246000D01*
X1370000D02*
X1428000D01*
X1370000Y188000D02*
X1390000D01*
X1370000Y176000D02*
Y188000D01*
Y246000D01*
X1620000Y188000D02*
Y246000D01*
Y176000D02*
Y188000D01*
X1640000D01*
X1620000Y246000D02*
X1678000D01*
Y235000D02*
Y246000D01*
X1928000Y235000D02*
Y246000D01*
X1870000D02*
X1928000D01*
X1870000Y188000D02*
X1890000D01*
X1870000Y176000D02*
Y188000D01*
Y246000D01*
X2677000Y234000D02*
Y246000D01*
X2427000Y234000D02*
Y246000D01*
X1032000Y176000D02*
X1032000Y176000D01*
X1032000D02*
Y176000D01*
Y176000D02*
Y176000D01*
X1032000D01*
X959000D02*
X1032000D01*
X428000Y262000D02*
X428500Y261500D01*
X428000Y262000D02*
X428000Y262000D01*
X428500Y240500D02*
Y261500D01*
X785000Y183000D02*
X859000D01*
X777000D02*
X785000D01*
Y187000D01*
X859000Y188000D02*
X859500D01*
X777000Y183000D02*
Y184000D01*
X428000Y203000D02*
X429000Y202000D01*
X820000Y191000D02*
Y204000D01*
X428000Y181000D02*
Y201000D01*
X429000Y202000D01*
X879000Y242000D02*
Y242000D01*
X872000Y183000D02*
Y196920D01*
X859500Y188000D02*
Y188500D01*
Y183000D02*
Y188000D01*
Y183000D02*
X872000D01*
X859000D02*
Y188000D01*
X423000Y269000D02*
X849000D01*
X423000D02*
Y371000D01*
X332500Y448500D02*
X333000Y448000D01*
X297160Y448500D02*
X332500D01*
X323000Y464000D02*
X326000D01*
X320000Y464000D02*
X326000D01*
X300660D02*
X320000D01*
X326000D02*
X326000Y464000D01*
X475000Y726000D02*
X476000D01*
X468000Y725000D02*
X470000Y727000D01*
X474000D02*
X475000Y726000D01*
X377000Y493000D02*
X378000Y494000D01*
X375750Y503250D02*
X378000Y501000D01*
Y494000D02*
Y501000D01*
X375750Y503250D02*
Y539873D01*
X387000Y495000D02*
X389000D01*
X400000Y483000D02*
X402000D01*
X381000Y519873D02*
Y540000D01*
X389000Y495000D02*
Y500000D01*
X381000Y508000D02*
X389000Y500000D01*
X381000Y508000D02*
Y519873D01*
X312000Y481000D02*
Y485000D01*
X309500Y478500D02*
X312000Y481000D01*
X300160Y478500D02*
X309500D01*
X410000Y554123D02*
X454000D01*
Y486000D02*
Y554123D01*
X319000Y441000D02*
X322000D01*
X316500Y443500D02*
X319000Y441000D01*
X300160Y443500D02*
X316500D01*
X300160Y473500D02*
X321000D01*
X314000Y430000D02*
Y430000D01*
X317000Y453500D02*
Y464000D01*
X321000Y473500D02*
Y481000D01*
X429000Y914123D02*
Y915123D01*
X1118000Y212000D02*
Y213000D01*
X1108080Y202080D02*
X1118000Y212000D01*
X1093000Y202080D02*
X1108080D01*
X1107000Y179000D02*
X1112920D01*
X1107000Y189000D02*
X1108000Y190000D01*
X1107000Y179000D02*
Y189000D01*
X300190Y492000D02*
X320000Y492000D01*
X300160Y430000D02*
X314000D01*
X1159000Y204000D02*
X1168500D01*
X1142000Y221000D02*
X1159000Y204000D01*
X258000Y1067000D02*
X293000D01*
X235000Y1044000D02*
X258000Y1067000D01*
X1128000Y191000D02*
Y220000D01*
X391000Y467000D02*
Y467000D01*
X320000Y464000D02*
Y464000D01*
X300160Y453500D02*
X317000D01*
X320000Y480920D02*
X321000Y481920D01*
X332000Y367000D02*
X338920D01*
X349080D02*
X358000D01*
X369080D02*
X378000D01*
X438000Y761000D02*
Y776000D01*
X368000Y742000D02*
Y761000D01*
X356000Y499000D02*
Y540000D01*
X361000Y484000D02*
Y535000D01*
X360000Y483000D02*
X361000Y484000D01*
X377000Y481000D02*
X381000Y477000D01*
X385000D02*
X389000Y481000D01*
X423000Y371000D02*
X445000Y393000D01*
X1129000Y179000D02*
Y190000D01*
X1123080Y179000D02*
X1129000D01*
X849000Y242000D02*
Y269000D01*
X260000Y845000D02*
Y941000D01*
X254000Y947000D02*
X260000Y941000D01*
X254000Y947000D02*
Y955000D01*
X268000Y845000D02*
Y846000D01*
X433000Y351000D02*
Y366000D01*
Y351000D02*
X436000Y348000D01*
X434000Y346000D02*
X436000Y348000D01*
X1168500Y204000D02*
Y213500D01*
X1188000Y214000D02*
Y215080D01*
X1207000D01*
X1208000Y195920D02*
X1208920Y195000D01*
X1179000Y193000D02*
X1207080D01*
X1128000Y191000D02*
X1129000Y192000D01*
X1127500Y190500D02*
X1128000Y191000D01*
X1117000Y211000D02*
Y213000D01*
X431000Y1029123D02*
Y1030123D01*
X407000Y1039123D02*
X420000D01*
X431000Y1029123D02*
Y1029123D01*
X429000Y1029123D02*
X431000D01*
X429000D02*
Y1030123D01*
X418000Y1086123D02*
X419000Y1087123D01*
X1192000Y1160000D02*
Y1175000D01*
X918000Y1160000D02*
Y1175000D01*
X786000Y1160000D02*
Y1175000D01*
X361000Y622000D02*
Y668000D01*
X253000Y963000D02*
X307920D01*
X247000Y957000D02*
X253000Y963000D01*
X267000Y937000D02*
Y938000D01*
X264000Y934000D02*
X267000Y937000D01*
X264000Y849000D02*
Y934000D01*
X254000Y927000D02*
Y938000D01*
X265000Y696000D02*
Y840000D01*
X260000Y845000D02*
X265000Y840000D01*
X261000Y694000D02*
Y838000D01*
X254000Y845000D02*
X261000Y838000D01*
X254000Y845000D02*
Y889000D01*
Y827000D02*
Y837000D01*
X596000Y343000D02*
Y472000D01*
X2620000Y526000D02*
X2621000Y525000D01*
X2216000Y526000D02*
X2217000Y525000D01*
X3025000Y340080D02*
X3026000Y341080D01*
X2621000Y340080D02*
Y525000D01*
X2324000Y340080D02*
Y527000D01*
X1406000Y526000D02*
X1407000Y525000D01*
X465000Y574000D02*
Y689000D01*
X429000Y725000D02*
X465000Y689000D01*
X332000Y725000D02*
X429000D01*
X469000Y569000D02*
Y691000D01*
X431000Y729000D02*
X469000Y691000D01*
X334000Y729000D02*
X431000D01*
X473000Y564123D02*
Y693000D01*
X433000Y733000D02*
X473000Y693000D01*
X336000Y733000D02*
X433000D01*
X477000Y559000D02*
Y695000D01*
X435000Y737000D02*
X477000Y695000D01*
X338000Y737000D02*
X435000D01*
X386000Y623000D02*
Y655000D01*
X296000Y822000D02*
X298000D01*
X397000Y715000D02*
X398000Y714000D01*
X356000Y715000D02*
X397000D01*
X391000Y623000D02*
Y654000D01*
X397000Y721000D02*
X402000Y716000D01*
Y665000D02*
Y716000D01*
X391000Y654000D02*
X402000Y665000D01*
X398000Y667000D02*
Y714000D01*
X386000Y655000D02*
X398000Y667000D01*
X330000Y822000D02*
Y833000D01*
X331000Y823000D02*
X339000D01*
X373000Y789000D01*
X786000Y1149000D02*
X786000D01*
X398000Y886190D02*
Y894190D01*
X357000Y910123D02*
X357933Y909190D01*
X918000Y1150000D02*
X919000D01*
X390000Y879190D02*
X418000D01*
X357000Y903123D02*
X372877D01*
X1192000Y1139000D02*
Y1151000D01*
X391000Y872000D02*
X399000D01*
X1323000Y1149000D02*
X1323000D01*
X390000Y865000D02*
X420000D01*
X357000Y890123D02*
X369877D01*
X357000Y884123D02*
X367877D01*
X1727000Y1149000D02*
X1728000Y1148000D01*
X1812000Y331000D02*
X1812000D01*
X387810Y851190D02*
X418920D01*
X326000Y918000D02*
X327000Y917000D01*
X346000Y866000D02*
Y917000D01*
X327000D02*
X346000D01*
X326000D02*
Y918000D01*
X276000Y805000D02*
Y846000D01*
X268000Y854000D02*
X276000Y846000D01*
X268000Y854000D02*
Y931000D01*
X280000Y807000D02*
Y848000D01*
X272000Y856000D02*
X280000Y848000D01*
X272000Y856000D02*
Y928000D01*
X284000Y809000D02*
Y850000D01*
X276000Y858000D02*
X284000Y850000D01*
X276000Y858000D02*
Y925000D01*
X288000Y811000D02*
Y852000D01*
X280000Y860000D02*
X288000Y852000D01*
X280000Y860000D02*
Y923000D01*
X292000Y813000D02*
Y854000D01*
X284000Y862000D02*
X292000Y854000D01*
X284000Y862000D02*
Y920000D01*
X343000Y778000D02*
X344000D01*
X305000Y859000D02*
X306000Y858000D01*
X293000Y859000D02*
X305000D01*
X288000Y864000D02*
X293000Y859000D01*
X288000Y864000D02*
Y918000D01*
X290000Y946000D02*
X320000D01*
X272000Y928000D02*
X290000Y946000D01*
X293000Y942000D02*
X317000D01*
X276000Y925000D02*
X293000Y942000D01*
X293190Y936190D02*
X301000D01*
X280000Y923000D02*
X293190Y936190D01*
X293000Y929000D02*
X298000D01*
X284000Y920000D02*
X293000Y929000D01*
X293000Y923000D02*
X302373D01*
X288000Y918000D02*
X293000Y923000D01*
X384000Y878000D02*
Y884000D01*
X370877Y897123D02*
X384000Y884000D01*
X358000Y897123D02*
X370877D01*
X380000Y875000D02*
Y880000D01*
X369877Y890123D02*
X380000Y880000D01*
X376000Y872000D02*
Y876000D01*
X367877Y884123D02*
X376000Y876000D01*
X372000Y867000D02*
Y872000D01*
X367000Y877000D02*
X372000Y872000D01*
X357323Y877000D02*
X367000D01*
X1918000Y321000D02*
Y331000D01*
X357000Y871123D02*
X365877D01*
X385000Y844000D02*
X397730D01*
X368000Y861000D02*
Y869000D01*
X365877Y871123D02*
X368000Y869000D01*
X268000Y931000D02*
X290000Y953000D01*
X428000Y892190D02*
X429000Y891190D01*
Y872190D02*
Y886190D01*
Y865190D02*
Y870190D01*
Y858190D02*
Y865190D01*
Y851190D02*
Y858190D01*
Y823190D02*
Y830190D01*
Y802190D02*
Y809190D01*
X408080Y814190D02*
X410080Y816190D01*
X343000Y1036000D02*
Y1094000D01*
X299203Y1111203D02*
X310000D01*
X292000Y915000D02*
X293000Y916000D01*
X292000Y866000D02*
Y915000D01*
Y866000D02*
X293627Y864373D01*
X2622000Y330000D02*
X2629000D01*
X2621000Y329000D02*
X2622000Y330000D01*
X418000Y823190D02*
X419000Y822190D01*
X302500Y896873D02*
X331000D01*
Y863000D02*
Y896873D01*
Y863000D02*
X371000Y823000D01*
X397920Y814190D02*
X398000D01*
X395920Y816190D02*
X397920Y814190D01*
X302500Y890373D02*
X327000D01*
Y861000D02*
Y890373D01*
Y861000D02*
X372000Y816000D01*
X302500Y883873D02*
X323000D01*
Y859000D02*
Y883873D01*
Y859000D02*
X373000Y809000D01*
X3217000Y316000D02*
Y329920D01*
X395810Y802000D02*
X398000Y804190D01*
X319000Y857000D02*
X374000Y802000D01*
X319000Y877373D02*
X319000Y857000D01*
X302500Y877373D02*
X319000D01*
X418000Y795190D02*
Y797190D01*
X302500Y870873D02*
X315000D01*
Y855000D02*
Y870873D01*
Y855000D02*
X375000Y795000D01*
X311000Y852000D02*
X311000D01*
X300000D02*
X311000D01*
X308000Y864000D02*
X311000Y861000D01*
Y852000D02*
Y861000D01*
X302500Y903373D02*
X336000D01*
Y864000D02*
Y903373D01*
Y864000D02*
X370000Y830000D01*
X302500Y909873D02*
X341000D01*
Y865000D02*
Y909873D01*
Y865000D02*
X369000Y837000D01*
X311000Y852000D02*
X330000Y833000D01*
X373000Y789000D02*
Y789000D01*
X375000Y795000D02*
X409000D01*
X374000Y802000D02*
X390000D01*
X373000Y809000D02*
X386000D01*
X372000Y816000D02*
X390000D01*
X371000Y823000D02*
X398000D01*
X370000Y830000D02*
X390000D01*
X369000Y837000D02*
X398000D01*
X348000Y864000D02*
X353000D01*
X346000Y866000D02*
X348000Y864000D01*
X293000Y916000D02*
X302000D01*
X293627Y864373D02*
X302500D01*
X373000Y789000D02*
X429080D01*
X373000Y789000D02*
X373000Y789000D01*
X429080D02*
Y795190D01*
X398000Y837000D02*
X418730D01*
X390000Y830000D02*
X397730D01*
X395730Y816000D02*
X395920Y816190D01*
X417810Y823000D02*
X418000Y823190D01*
X429000D02*
X429080D01*
X430000D01*
X355000Y741000D02*
X356000Y742000D01*
X340000Y741000D02*
X355000D01*
X401000Y765000D02*
Y774000D01*
X351000Y507000D02*
Y540000D01*
X368000Y761000D02*
X438000D01*
X418000Y777000D02*
Y782000D01*
X382500D02*
X418000D01*
X382500Y775500D02*
Y782000D01*
X352000D02*
X382500D01*
X352000Y752000D02*
Y782000D01*
X366000Y765000D02*
X401000D01*
X363000Y768000D02*
X366000Y765000D01*
X348000Y748000D02*
X352000Y752000D01*
X342000Y748000D02*
X348000D01*
X319000Y822000D02*
Y822000D01*
X326000Y815000D02*
X336000D01*
X319000Y822000D02*
X326000Y815000D01*
X294000Y787000D02*
X315000D01*
X276000Y805000D02*
X294000Y787000D01*
X296000Y791000D02*
X319000D01*
X280000Y807000D02*
X296000Y791000D01*
X298000Y795000D02*
X323000D01*
X284000Y809000D02*
X298000Y795000D01*
X300000Y799000D02*
X327000D01*
X288000Y811000D02*
X300000Y799000D01*
X302000Y803000D02*
X331000D01*
X292000Y813000D02*
X302000Y803000D01*
X304000Y807000D02*
X335000D01*
X298000Y813000D02*
X304000Y807000D01*
X298000Y813000D02*
Y821920D01*
X335000Y746000D02*
Y807000D01*
X331000Y744000D02*
Y803000D01*
X327000Y742000D02*
Y799000D01*
X323000Y740000D02*
Y795000D01*
X319000Y738000D02*
Y791000D01*
X282080Y781000D02*
X299000D01*
X282000D02*
X282080D01*
X315000Y736000D02*
Y787000D01*
X306000Y864000D02*
X308000D01*
X300000Y852000D02*
X300000Y852000D01*
X429080Y983123D02*
X440000D01*
X429000Y946204D02*
Y947123D01*
X408005Y947373D02*
X419087Y936291D01*
X419127Y936251D01*
X474000Y1111000D02*
X537000Y1048000D01*
Y993000D02*
Y1048000D01*
X499000Y955000D02*
X537000Y993000D01*
X470000Y1109000D02*
X533000Y1046000D01*
Y995000D02*
Y1046000D01*
X495000Y957000D02*
X533000Y995000D01*
X499000Y824000D02*
Y955000D01*
X474000Y799000D02*
X499000Y824000D01*
X495000Y826000D02*
Y957000D01*
X470000Y801000D02*
X495000Y826000D01*
X408000Y1131123D02*
Y1138000D01*
X418920Y1109123D02*
X429920Y1120123D01*
X429000D02*
X429920Y1121043D01*
X408000Y1110123D02*
X409000Y1109123D01*
X282080Y697080D02*
Y705000D01*
X304123Y559123D02*
X326500D01*
X294000Y549000D02*
X304123Y559123D01*
X289000Y549000D02*
X294000D01*
X271920Y705000D02*
Y717000D01*
X296000Y705000D02*
X299000Y708000D01*
X282080Y705000D02*
X296000D01*
X299000Y708000D02*
X316000D01*
X309000Y725000D02*
Y773000D01*
X357000Y751000D02*
Y768000D01*
X340750Y524750D02*
Y539873D01*
X312000Y1092000D02*
Y1099000D01*
X445000Y393000D02*
Y485000D01*
X254000Y900080D02*
Y910000D01*
Y1001080D02*
Y1011000D01*
X430000Y1120190D02*
X437000D01*
X470000Y1109000D02*
Y1127000D01*
X474000Y1111000D02*
Y1129000D01*
X413000Y496080D02*
Y500000D01*
X391000Y522000D02*
X413000Y500000D01*
X349000Y492000D02*
X356000Y499000D01*
X349000Y492000D02*
X349000D01*
X345000Y501000D02*
X351000Y507000D01*
X345000Y501000D02*
Y501000D01*
X412000Y512000D02*
X435667D01*
X395750Y528250D02*
X412000Y512000D01*
X395750Y528250D02*
Y539750D01*
X386000Y514000D02*
X393000Y507000D01*
X247000Y785000D02*
Y957000D01*
X317000Y942000D02*
X335877Y923123D01*
X320000Y946000D02*
X336877Y929123D01*
X353000D01*
X335877Y923123D02*
X352000D01*
X369000Y958000D02*
X374000Y953000D01*
Y935000D02*
Y953000D01*
Y935000D02*
X393000Y916000D01*
X406123D01*
X418000Y904123D01*
X368000Y861000D02*
X385000Y844000D01*
X397730D02*
X397920Y844190D01*
X388000Y851000D02*
X398000D01*
X387810Y851190D02*
X388000Y851000D01*
X372000Y867000D02*
X387810Y851190D01*
X390000Y858000D02*
X391000D01*
X376000Y872000D02*
X390000Y858000D01*
X587000Y410000D02*
X588000D01*
X384000Y343000D02*
X386000Y341000D01*
X2217000Y329920D02*
X2224080D01*
X2224000Y330000D02*
X2224080Y329920D01*
X2224000Y330000D02*
Y347000D01*
X2316000Y329920D02*
Y349000D01*
Y329920D02*
X2323000D01*
X2721000D02*
X2728000D01*
X2721000D02*
Y358000D01*
X2629000Y330000D02*
Y357000D01*
X3025000Y342080D02*
Y525000D01*
X2728000Y342000D02*
Y526000D01*
X2324000Y527000D02*
X2324000Y527000D01*
X406080Y1016123D02*
X419000D01*
Y1002123D02*
Y1011190D01*
X1918000Y331000D02*
X1918000Y331000D01*
X1812000Y330920D02*
Y331000D01*
Y321000D02*
Y330920D01*
X1812000Y331000D02*
X1812000Y331000D01*
X1513000Y321000D02*
Y330920D01*
X1513000Y330920D01*
X1407000Y321000D02*
Y330920D01*
X1108000Y321000D02*
Y330920D01*
X1108000Y330920D01*
X1002000Y321000D02*
Y330000D01*
X1002000Y330000D01*
X2217000Y340080D02*
Y525000D01*
X1513000Y341080D02*
Y526000D01*
X1513000Y526000D02*
X1513000Y526000D01*
X1407000Y341080D02*
Y525000D01*
X1108000Y341080D02*
Y526000D01*
X1108000Y526000D02*
X1108000Y526000D01*
X1002000Y526000D02*
Y527000D01*
Y341080D02*
Y526000D01*
X1002000Y527000D02*
X1002000Y527000D01*
X703000Y525000D02*
X703000Y525000D01*
X1002000Y526000D02*
X1002000Y526000D01*
X703000Y341080D02*
Y525000D01*
X703000Y526000D02*
X703000Y526000D01*
X596000Y343000D02*
X597000Y342000D01*
X3025000Y342080D02*
X3026000Y341080D01*
X3217000Y340080D02*
Y526000D01*
X1918000Y341080D02*
Y526000D01*
X310080Y1122000D02*
X320000D01*
X320000Y1122000D01*
Y1111080D02*
Y1122000D01*
X310000Y1088000D02*
X315000Y1083000D01*
X303000Y1088000D02*
X310000D01*
X300000Y1091000D02*
X303000Y1088000D01*
X288000Y1074000D02*
X292000D01*
X295377Y1070623D01*
X305250D01*
X320000Y1093000D02*
Y1100920D01*
X326000Y1056000D02*
Y1111000D01*
X347810Y1112000D02*
X353000Y1117190D01*
X404000Y1051123D02*
X419000D01*
X429080Y1041043D01*
X395123Y1046123D02*
X405000D01*
X283000Y1023000D02*
X285000Y1021000D01*
X342000Y1112000D02*
X347810D01*
X334000Y1104000D02*
X342000Y1112000D01*
X300000Y1091000D02*
Y1099190D01*
X319000Y1060623D02*
Y1085000D01*
X305250Y1060623D02*
X319000D01*
X312000Y1092000D02*
X319000Y1085000D01*
X315000Y1065000D02*
Y1083000D01*
X307000Y1065000D02*
X315000D01*
X310000Y1111000D02*
X320000Y1101000D01*
Y1100920D02*
Y1101000D01*
X310000Y1122000D02*
X310080D01*
X325920Y1111080D02*
X326000Y1111000D01*
X320000Y1111080D02*
X325920D01*
X340000Y1116000D02*
Y1121000D01*
X330000Y1106000D02*
X340000Y1116000D01*
X290000Y1111080D02*
X299080D01*
X331000Y1125080D02*
Y1137000D01*
X273920Y1042000D02*
Y1053000D01*
Y1032080D02*
Y1042000D01*
Y1053000D02*
X274000D01*
X265000D02*
X273920D01*
X292377Y1050623D02*
X305250D01*
X291000Y1052000D02*
X292377Y1050623D01*
X285000Y1052000D02*
X291000D01*
X289000Y1043000D02*
X291623Y1045623D01*
X286000Y1043000D02*
X289000D01*
X285000Y1042000D02*
X286000Y1043000D01*
X291623Y1045623D02*
X305250D01*
X285000Y1033000D02*
X292623Y1040623D01*
X274000Y1015000D02*
Y1022000D01*
X292623Y1040623D02*
X305250D01*
X294000Y1036000D02*
X301000D01*
X290000Y1032000D02*
X294000Y1036000D01*
X300623Y1035623D02*
X305250D01*
X290000Y1021000D02*
Y1032000D01*
X285000Y1021000D02*
X290000D01*
X295000Y1015000D02*
Y1026123D01*
X274000Y1015000D02*
X295000D01*
X295000Y1065000D02*
X302000D01*
X293000Y1067000D02*
X295000Y1065000D01*
X293377Y1060623D02*
X305250D01*
X291000Y1063000D02*
X293377Y1060623D01*
X260000Y1063000D02*
X291000D01*
X239000Y1042000D02*
X260000Y1063000D01*
X292377Y1055623D02*
X305250D01*
X289000Y1059000D02*
X292377Y1055623D01*
X262000Y1059000D02*
X289000D01*
X338000Y1099190D02*
X344000Y1105190D01*
X338000Y1047000D02*
Y1099190D01*
X335000Y1044000D02*
X338000Y1047000D01*
X335000Y1043000D02*
Y1044000D01*
Y984000D02*
Y1043000D01*
X340000Y1033000D02*
X343000Y1036000D01*
X340000Y990000D02*
Y1033000D01*
Y990000D02*
X347000Y983000D01*
X335000Y984000D02*
X341000Y978000D01*
X348000Y1081000D02*
X358373D01*
X348000Y998000D02*
Y1081000D01*
X346000Y996000D02*
X348000Y998000D01*
X291000Y1122000D02*
X299000D01*
X334000Y1052000D02*
Y1104000D01*
X332000Y1050000D02*
X334000Y1052000D01*
X330000Y1054123D02*
Y1106000D01*
X317000Y1041123D02*
X330000Y1054123D01*
X332000Y1050000D02*
Y1050000D01*
X324000Y1042000D02*
X332000Y1050000D01*
X324000Y1036000D02*
Y1042000D01*
X305627Y1036000D02*
X324000D01*
X347000Y972000D02*
Y983000D01*
Y972000D02*
X350000Y969000D01*
Y952000D02*
Y969000D01*
Y952000D02*
X356000Y946000D01*
X366000D01*
X370000Y942000D01*
Y932000D02*
Y942000D01*
X345000Y947000D02*
Y964000D01*
Y942000D02*
Y947000D01*
X336000D02*
X345000D01*
X341000Y968000D02*
X345000Y964000D01*
Y942000D02*
X351000Y936000D01*
X373000Y966000D02*
Y981123D01*
X373000Y965000D02*
X378000Y960000D01*
X373000Y965000D02*
X373000Y965000D01*
Y966000D01*
X373000Y965000D02*
Y966000D01*
X373000Y966000D01*
X382000Y940000D02*
Y956000D01*
X373877Y964123D02*
X382000Y956000D01*
X386000Y947000D02*
Y958000D01*
X377000Y967000D02*
X386000Y958000D01*
X377000Y967000D02*
Y983123D01*
X396810Y947190D02*
X397987D01*
X391000Y953000D02*
Y959000D01*
X381000Y969000D02*
X391000Y959000D01*
X381000Y969000D02*
Y985123D01*
X382000Y940000D02*
X396000Y926000D01*
X370000Y932000D02*
X392000Y910000D01*
X402000D01*
X414000Y898000D01*
X396810Y936190D02*
X397000D01*
X386000Y947000D02*
X396810Y936190D01*
X391000Y953000D02*
X396810Y947190D01*
X401000Y972123D02*
X406920D01*
X390000Y977000D02*
Y989123D01*
X395000Y972000D02*
X404000D01*
X390000Y977000D02*
X395000Y972000D01*
X396067Y957190D02*
X397000Y958123D01*
X396000Y957000D02*
Y957190D01*
Y960000D01*
X385000Y971000D02*
X396000Y960000D01*
X385000Y971000D02*
Y987123D01*
X396000Y957190D02*
X396067D01*
X414000Y898000D02*
X429000D01*
X429080Y897920D01*
Y892190D02*
Y897920D01*
X392000Y900000D02*
X402000D01*
X408810Y893190D01*
X417920D01*
X254000Y975000D02*
Y989000D01*
X314000Y1138000D02*
Y1139000D01*
X307000Y1169000D02*
X354000D01*
X307000Y1146000D02*
Y1169000D01*
X354000Y1129190D02*
Y1169000D01*
X353000Y1128190D02*
X354000Y1129190D01*
X347000Y1143190D02*
X347000Y1143190D01*
Y1137190D02*
Y1143190D01*
X334067Y1137190D02*
X347000D01*
X300000Y1099190D02*
X300000D01*
X281080Y1100920D02*
X289000D01*
X316123Y1046123D02*
X326000Y1056000D01*
X301000Y1099123D02*
Y1099190D01*
X300000Y1099190D02*
Y1101000D01*
X290000Y953000D02*
X300000D01*
X343000Y778000D02*
Y808000D01*
X336000Y815000D02*
X343000Y808000D01*
X315000Y736000D02*
X330000Y721000D01*
X319000Y738000D02*
X332000Y725000D01*
X323000Y740000D02*
X334000Y729000D01*
X327000Y742000D02*
X336000Y733000D01*
X331000Y744000D02*
X338000Y737000D01*
X335000Y746000D02*
X338500Y742500D01*
X343000Y756000D02*
Y777000D01*
X341000Y756000D02*
X343000D01*
X341000Y777000D02*
X343000D01*
X357000Y768000D02*
X363000D01*
X254000Y1027000D02*
Y1036000D01*
Y800080D02*
Y811000D01*
X255000Y799000D02*
Y800080D01*
X295000Y1000623D02*
X305250D01*
X289000D02*
X295000D01*
X289000Y1000000D02*
Y1000623D01*
X340000Y777000D02*
X341000Y778000D01*
X302373Y923000D02*
X302500Y922873D01*
X474000Y727000D02*
Y799000D01*
X470000Y727000D02*
Y801000D01*
X435000Y1168000D02*
X474000Y1129000D01*
X433000Y1164000D02*
X470000Y1127000D01*
X373000Y1168000D02*
X435000D01*
X376000Y1164000D02*
X433000D01*
X367000Y1162000D02*
X373000Y1168000D01*
X375000Y1163000D02*
X376000Y1164000D01*
X758000Y210000D02*
Y224000D01*
Y207000D02*
Y210000D01*
X758000D02*
Y213000D01*
Y197000D02*
Y210000D01*
X758000D01*
X740920Y205000D02*
Y213920D01*
X361000Y668000D02*
X361000Y668000D01*
X333000Y668000D02*
X361000D01*
X333000D02*
Y688000D01*
X327000D02*
X333000D01*
X332000Y698000D02*
X333000D01*
X327000D02*
X332000D01*
X333000Y688000D02*
Y698000D01*
X356000Y622000D02*
Y663000D01*
X325000D02*
X356000D01*
X325000D02*
Y670000D01*
X318000Y663000D02*
X325000D01*
X318000D02*
Y696000D01*
X312000D02*
X318000D01*
X325000Y666000D02*
Y670000D01*
X410000Y564123D02*
X473000D01*
X414000Y574000D02*
X465000D01*
X412000Y569000D02*
X469000D01*
X413000Y559000D02*
X477000D01*
X436000Y663000D02*
X447000D01*
Y604123D02*
Y663000D01*
X410000Y604123D02*
X447000D01*
X305250Y1035623D02*
X305627Y1036000D01*
X436000Y609000D02*
Y623000D01*
X396000Y645000D02*
X423000D01*
X378000Y482920D02*
Y483000D01*
X401920Y493080D02*
X412000Y483000D01*
X401000Y493080D02*
X401920D01*
X389920D02*
X400000Y483000D01*
X389000Y493080D02*
X389920D01*
X434000Y483000D02*
X436000Y485000D01*
X317000Y1158190D02*
X331000D01*
X307000Y1146000D02*
X314000Y1139000D01*
X3027000Y329920D02*
X3033000D01*
X2869000Y176000D02*
X3119000D01*
X281000Y541000D02*
X294000D01*
X296000Y543000D01*
X296000D01*
X279080Y528000D02*
Y530080D01*
X298000Y821920D02*
Y822000D01*
X816920Y207080D02*
X820000Y204000D01*
X811000Y207080D02*
X816920D01*
X809920D02*
X810000Y207000D01*
X800000Y207080D02*
X809920D01*
X296190Y439000D02*
X298190Y437000D01*
X290000Y468500D02*
X300160D01*
X321000Y481920D02*
Y482000D01*
X279080Y530080D02*
Y541000D01*
X344000Y1105190D02*
X352987D01*
X436000Y623000D02*
X438000D01*
X435000Y622000D02*
X436000Y623000D01*
Y644000D01*
X376000Y622000D02*
Y673000D01*
X378190Y675190D02*
X379000D01*
X376000Y673000D02*
X378190Y675190D01*
X325000Y670000D02*
X325000Y670000D01*
X424000Y645000D02*
X424080Y644920D01*
X436000Y656190D02*
Y663000D01*
X439000Y972123D02*
X440000Y973123D01*
X439000Y970123D02*
X441000Y972123D01*
X439000D02*
X441000D01*
X379500Y999623D02*
X390000Y989123D01*
X305873Y1010000D02*
X324000D01*
X341000Y968000D02*
Y978000D01*
X387877Y1030000D02*
X394000Y1036123D01*
X377123Y1030000D02*
X387877D01*
X376500Y1030623D02*
X377123Y1030000D01*
X385000Y1036000D02*
X395123Y1046123D01*
X384123Y1035123D02*
X385000Y1036000D01*
X305750Y1041123D02*
X317000D01*
X309000Y1046123D02*
X316123D01*
X330000Y721000D02*
X397000D01*
X307920Y953080D02*
Y963000D01*
X332000Y698000D02*
X333000Y699000D01*
Y708000D01*
X319080Y963000D02*
X325000D01*
X334000Y958000D02*
Y975000D01*
X307000Y986000D02*
X323000D01*
X334000Y975000D01*
X319080Y953000D02*
X326000D01*
X334000Y958000D02*
X337000D01*
X358373Y1081000D02*
X358750Y1080623D01*
X338500Y742500D02*
X340000Y741000D01*
X397000Y1015123D02*
X398000Y1016123D01*
X391877Y1015123D02*
X396000D01*
X386377Y1020623D02*
X391877Y1015123D01*
X359750Y1020623D02*
X386377D01*
X390000Y1001123D02*
Y1005000D01*
X384377Y1010623D02*
X390000Y1005000D01*
X358750Y1010623D02*
X384377D01*
X395750Y1005873D02*
X396000Y1006123D01*
X395127Y1005873D02*
X395750D01*
X395127D02*
X395188Y1005812D01*
X385377Y1015623D02*
X395127Y1005873D01*
X359750Y1015623D02*
X385377D01*
X376000Y916000D02*
X391810Y900190D01*
X361000Y916000D02*
X376000D01*
X389810Y894190D02*
X398000D01*
X374810Y909190D02*
X389810Y894190D01*
X357933Y909190D02*
X374810D01*
X390000Y879190D02*
Y886000D01*
X372877Y903123D02*
X390000Y886000D01*
X380000Y875000D02*
X390000Y865000D01*
X384000Y878000D02*
X388810Y873190D01*
X317080Y708080D02*
X325000D01*
X396000Y604000D02*
X397000D01*
X397000Y604000D01*
X396123Y589123D02*
X410000D01*
X390750Y539873D02*
Y553750D01*
X326500Y559123D02*
X338877D01*
X363000Y768000D02*
Y776000D01*
X363000Y776000D01*
X305250Y1065623D02*
X314623D01*
X280000Y594000D02*
X327000D01*
X280000Y589000D02*
X327000D01*
X305250Y1010623D02*
X305873Y1010000D01*
X297920Y916080D02*
X298000Y916000D01*
X301000Y833000D02*
X309500D01*
X299000Y841000D02*
X300000Y842000D01*
X309500Y833000D02*
Y833500D01*
X298000Y835000D02*
Y842920D01*
X586080Y246920D02*
Y261000D01*
X859500Y208000D02*
X872000D01*
Y221000D01*
Y207080D02*
Y208000D01*
X869000Y225000D02*
X872000Y222000D01*
X856500Y208000D02*
X859500D01*
X865750Y231000D02*
X868000D01*
X865750Y231000D02*
X865750Y231000D01*
X849000Y242000D02*
X879000D01*
X680000Y188000D02*
X740000D01*
X671000Y197000D02*
X680000Y188000D01*
X670000Y197000D02*
X671000D01*
X758000D02*
X758080Y196920D01*
X800000D01*
X787000Y207000D02*
X787080Y207080D01*
X800000D01*
X758000Y207000D02*
X766000D01*
X670000Y197000D02*
Y206000D01*
X565000Y196000D02*
Y200000D01*
X608000Y189000D02*
Y246000D01*
X586000Y189000D02*
X608000D01*
X586000D02*
Y195920D01*
X596080Y246000D02*
X608000D01*
X597000Y225000D02*
X598000Y226000D01*
X595920Y196000D02*
X603000D01*
Y226000D01*
X598000D02*
X603000D01*
X595920Y196000D02*
X596000Y195920D01*
X586000Y205920D02*
X595920Y196000D01*
X595000D02*
X595920D01*
X596000Y195920D02*
X596960Y194960D01*
X596000Y246080D02*
X596080Y246000D01*
X728000Y233000D02*
Y249000D01*
X586000Y247000D02*
X586080Y246920D01*
Y246000D02*
Y246920D01*
X576000Y195920D02*
X586000D01*
X517000Y226000D02*
X565920D01*
X513000D02*
X517000D01*
X510000Y229000D02*
X513000Y226000D01*
X596000Y235000D02*
X596080Y234920D01*
Y226000D02*
Y234920D01*
X560080Y195920D02*
X576000D01*
X560000Y196000D02*
X560080Y195920D01*
X586000Y205920D02*
Y206000D01*
X575920Y206080D02*
X576000D01*
X575920Y226920D02*
Y236000D01*
Y226920D02*
X576000Y227000D01*
X586080Y216000D02*
X596000D01*
X586000Y234000D02*
X587000Y235000D01*
X596000Y216000D02*
X596080D01*
X596000Y206080D02*
Y216000D01*
X586080Y236080D02*
Y246000D01*
X596000Y195000D02*
X596080Y194920D01*
X516000Y227000D02*
X517000Y226000D01*
Y222000D02*
X518000Y221000D01*
X557000Y243000D02*
X559000Y245000D01*
X557500Y197000D02*
X558500Y196000D01*
X557500Y197000D02*
X563000D01*
X325000Y670000D02*
Y677920D01*
X379920Y701080D02*
Y708000D01*
X360920D02*
X363000D01*
X379000Y675190D02*
X380933Y677123D01*
X366000Y621000D02*
Y676000D01*
Y688000D02*
Y692000D01*
Y687000D02*
Y688000D01*
X371000Y622000D02*
Y682000D01*
X347877Y686123D02*
X352000Y682000D01*
X371000D01*
X353000Y686123D02*
X354067D01*
X347877D02*
X353000D01*
X354000Y686190D02*
X354067Y686123D01*
X366000Y692000D02*
X371080Y697080D01*
Y708000D01*
X390000Y692000D02*
Y704920D01*
X342000Y695000D02*
Y707920D01*
X345000Y695000D02*
X347000Y693000D01*
X296000Y543000D02*
X307000Y554000D01*
X425000Y656190D02*
Y663000D01*
X425627Y643627D02*
X426000Y644000D01*
X396000Y623000D02*
X396000Y623000D01*
X391000Y623000D02*
X391000Y623000D01*
X386000Y623000D02*
X386000Y623000D01*
X376000Y622000D02*
X376000Y622000D01*
X371000Y622000D02*
X371000Y622000D01*
X361000D02*
X361000Y622000D01*
X386000Y540000D02*
X386000Y540000D01*
X391000Y540000D02*
X391000Y540000D01*
X381000Y540000D02*
X381000Y540000D01*
X376000Y541000D02*
X376000Y541000D01*
X326500Y604123D02*
X327000D01*
X279810Y584000D02*
X326000D01*
X386000Y692000D02*
X387080Y693080D01*
X279080Y541000D02*
X288000D01*
X381000Y519873D02*
X381000Y519873D01*
X398000Y604000D02*
X398123Y604123D01*
X410000D01*
X396000Y589000D02*
X396123Y589123D01*
X429080Y993123D02*
X437000D01*
X367000Y1135190D02*
Y1162000D01*
X375000Y1154203D02*
Y1163000D01*
X429080Y936124D02*
X437000D01*
Y932690D02*
Y936124D01*
X409000Y935123D02*
X419000Y925123D01*
X438000Y957123D02*
Y957190D01*
X431000Y957123D02*
X438000D01*
X430000Y958123D02*
X431000Y957123D01*
X417000Y947123D02*
X418000Y946124D01*
X429000Y1003123D02*
Y1004123D01*
X406540Y1002663D02*
X408460D01*
X430080Y1018123D02*
X438000D01*
X429500Y1017623D02*
X430000Y1018123D01*
X429080Y1017203D02*
X429920D01*
X419500Y1027623D02*
X429500Y1017623D01*
X429080Y1087190D02*
X437000D01*
X429080Y1053110D02*
X430000Y1052190D01*
X429000Y1063123D02*
Y1065190D01*
X429080D01*
X429000Y1053190D02*
Y1063123D01*
X427920Y1109043D02*
X429000Y1110123D01*
X428933Y1131190D02*
X437000D01*
X428500Y1131623D02*
X429000Y1132123D01*
X3033000Y329920D02*
Y361000D01*
X3025000Y340080D02*
X3027000D01*
X3027000Y340080D01*
X2728000Y329920D02*
X2729000D01*
X758000Y225000D02*
Y249000D01*
X740920D02*
X758000D01*
X758000Y224000D02*
Y226000D01*
X728000Y249000D02*
X740920D01*
Y255000D01*
X734000Y245000D02*
X740920D01*
X734000Y196000D02*
Y245000D01*
X751080Y214000D02*
Y215000D01*
Y205000D02*
Y214000D01*
X872000Y196920D02*
Y197000D01*
X751000Y262000D02*
X751080D01*
Y255000D02*
Y262000D01*
X752080Y224000D02*
X758000D01*
X741920Y262000D02*
X742000D01*
X773000Y256000D02*
X774000D01*
Y255000D02*
Y256000D01*
Y231000D02*
Y255000D01*
X827000Y231000D02*
X829000Y233000D01*
X814000Y231000D02*
X829000D01*
X813000Y254000D02*
Y255000D01*
X814000D02*
X831000D01*
X813000D02*
X814000D01*
X1287000Y176000D02*
X2120000Y176000D01*
X1238000Y235000D02*
X1269000D01*
X1238000D02*
Y236000D01*
X1272000Y184000D02*
Y194000D01*
X1245920Y193000D02*
X1247000D01*
X1245920Y184000D02*
Y193000D01*
X1256000D02*
X1256080D01*
Y184000D02*
Y193000D01*
X2120000Y188000D02*
Y246000D01*
X2369000Y176000D02*
X2619000D01*
X2120000D02*
Y188000D01*
Y176000D02*
X2369000D01*
Y188000D02*
Y246000D01*
X2619000Y176000D02*
X2869000D01*
X2369000D02*
Y188000D01*
X2619000D02*
Y246000D01*
Y176000D02*
Y188000D01*
X3119000Y188000D02*
Y246000D01*
Y176000D02*
Y188000D01*
X2869000Y176000D02*
Y188000D01*
X2140000D02*
X2141000Y189000D01*
X2120000Y188000D02*
X2140000D01*
X2120000Y246000D02*
X2178000D01*
X2369000D02*
X2427000D01*
X2178000Y235000D02*
Y246000D01*
X2369000Y188000D02*
X2392000D01*
X2619000Y246000D02*
X2677000D01*
X2619000Y188000D02*
X2642000D01*
X2869000Y246000D02*
X2928000D01*
X2869000Y188000D02*
Y246000D01*
X2928000Y235000D02*
Y246000D01*
X2869000Y188000D02*
X2889000D01*
X3178000Y236000D02*
Y246000D01*
X3119000D02*
X3178000D01*
X3119000Y188000D02*
X3142500D01*
X740920Y214000D02*
X750920Y224000D01*
X740920Y214000D02*
X740920Y214000D01*
Y214920D01*
Y213920D02*
Y214000D01*
X859500Y207500D02*
Y208000D01*
X1220080Y193000D02*
X1233000D01*
X1240000Y195000D02*
X1240080D01*
X740920Y244000D02*
X742920D01*
X713500Y197000D02*
Y198000D01*
X751000Y244000D02*
X751080Y243920D01*
Y234000D02*
Y243920D01*
X740920Y233920D02*
X741000Y234000D01*
X740920Y224000D02*
Y233920D01*
X751000Y214000D02*
X751080D01*
X300160Y468500D02*
Y469000D01*
X298920Y842920D02*
X299000Y843000D01*
X357000Y935823D02*
Y936000D01*
X357000Y936000D01*
X359000Y958000D02*
X369000D01*
X368933Y960123D02*
X369000Y960190D01*
X409000Y795000D02*
X417810D01*
X357000Y877323D02*
X357323Y877000D01*
X390000Y816000D02*
X395730D01*
X386000Y809000D02*
X418810D01*
X390000Y802000D02*
X395810D01*
X406000Y1073123D02*
X419920D01*
X403877Y1069000D02*
X405000D01*
X375500Y1040623D02*
X403877Y1069000D01*
X367000Y1127203D02*
Y1135000D01*
X391000Y858000D02*
X396810D01*
X397000Y858190D01*
X418730Y837000D02*
X418920Y837190D01*
X397730Y830000D02*
X397920Y830190D01*
X398000Y823000D02*
X417810D01*
X418810Y809000D02*
X419000Y809190D01*
X417810Y795000D02*
X418000Y795190D01*
X389000Y1151000D02*
X429000D01*
X388810D02*
X389000D01*
X429000Y1143190D02*
Y1151000D01*
X409000Y1145000D02*
X415000D01*
X418810Y1141190D02*
X419000Y1141000D01*
X417000Y1141190D02*
X418810D01*
X408000Y1138000D02*
X408000D01*
X389000D02*
X408000D01*
X408000Y1137000D02*
Y1138000D01*
X1812000Y341080D02*
Y526000D01*
X597000Y330920D02*
Y331000D01*
Y316000D02*
Y330920D01*
X703000Y316000D02*
Y330000D01*
X1108000Y330920D02*
Y331000D01*
X1407000Y330920D02*
Y332000D01*
X1513000Y330920D02*
Y331000D01*
X1917000D02*
X1918000D01*
X419000Y1141000D02*
Y1141190D01*
X2943000Y1150920D02*
Y1151000D01*
Y1142000D02*
Y1150920D01*
X2133000Y1160080D02*
Y1175000D01*
X3217000Y1162080D02*
Y1175000D01*
Y1160080D02*
Y1162080D01*
X2943000Y1161080D02*
Y1175000D01*
Y1160080D02*
Y1161080D01*
X2812000D02*
Y1175000D01*
Y1160080D02*
Y1161080D01*
X2538000D02*
Y1175000D01*
Y1160080D02*
Y1161080D01*
X1728000Y1160080D02*
Y1175000D01*
Y1160000D02*
Y1160080D01*
X1597000D02*
Y1175000D01*
Y1160000D02*
Y1160080D01*
X1323000D02*
Y1175000D01*
Y1160000D02*
Y1160080D01*
X513000D02*
Y1175000D01*
Y1160000D02*
Y1160080D01*
X2407000D02*
Y1175000D01*
X3217000Y1143000D02*
Y1149920D01*
X2812000Y1143000D02*
Y1150920D01*
X2538000Y1143000D02*
Y1150920D01*
X2407000Y1142000D02*
Y1149920D01*
X2133000Y1142000D02*
Y1149000D01*
X2002000Y1142000D02*
Y1149920D01*
X1728000Y1142000D02*
Y1148000D01*
X1597000Y1142000D02*
Y1149000D01*
X1323000Y1139000D02*
Y1149000D01*
X1323000Y1149000D02*
X1323000Y1149000D01*
X1192000Y1151000D02*
X1192000Y1151000D01*
X918000Y1133000D02*
Y1150000D01*
X918000Y1150000D02*
X918000Y1150000D01*
X786000Y1133000D02*
Y1149000D01*
X786000Y1149000D02*
X786000Y1149000D01*
X2407000Y1149920D02*
Y1150000D01*
X2002000Y1149920D02*
Y1152000D01*
Y1161000D02*
Y1176000D01*
X1192000Y1151000D02*
X1192000D01*
X513000Y1127000D02*
Y1148000D01*
X437000Y925123D02*
X437000D01*
X408000Y925123D02*
X419000Y914123D01*
X437000Y925123D02*
Y928690D01*
X437000Y928690D02*
X437000Y928690D01*
X371500Y1055623D02*
X387000Y1071123D01*
X373000Y1051123D02*
X391000Y1069123D01*
X395000Y1066123D02*
Y1083123D01*
X391000Y1069123D02*
Y1091123D01*
X371500Y1000623D02*
X385000Y987123D01*
X429080Y823190D02*
Y837190D01*
X418920Y1098123D02*
X429000Y1108203D01*
X418920Y1120123D02*
X428000Y1129203D01*
X383000Y1095123D02*
X386000Y1098123D01*
X366500Y1075623D02*
X370000Y1079123D01*
X407000Y1098123D02*
X408000D01*
X407000Y1097123D02*
X408000Y1098123D01*
X407000Y1120123D02*
X408080D01*
X387000Y1071123D02*
Y1093123D01*
X386000Y1098123D02*
Y1106123D01*
X386000Y1106123D02*
Y1120190D01*
X397000D01*
X419000Y993123D02*
X429000Y1003123D01*
X420000Y1039123D02*
X429000Y1030123D01*
X386000Y999123D02*
X394000Y991123D01*
X376500Y1035623D02*
X401000Y1060123D01*
X374500Y1045623D02*
X395000Y1066123D01*
X427920Y956123D02*
X429000D01*
X418920Y947123D02*
X427920Y956123D01*
X419087Y936291D02*
X429000Y946204D01*
X419000Y914123D02*
X429000Y924124D01*
X429080Y1098123D02*
X429080Y1098123D01*
X429080Y1097203D02*
Y1098123D01*
X429080Y1120123D02*
X429920D01*
X429080Y1075123D02*
Y1085043D01*
Y1098123D02*
X430147Y1099190D01*
X429080Y1098123D02*
X436000D01*
X418920Y1120123D02*
X419000D01*
X408000Y1098123D02*
X408080D01*
X418000D01*
X408080Y1120123D02*
X418920D01*
X397920Y1098043D02*
Y1098123D01*
X399000D01*
X399000Y1098123D01*
X397920Y1120123D02*
X398000D01*
Y1120123D02*
Y1120123D01*
X397000Y1118123D02*
Y1120190D01*
X398000Y1120123D02*
Y1120123D01*
X390000Y1096123D02*
Y1109190D01*
X379000Y1097123D02*
X382000Y1100123D01*
X383000Y1073123D02*
Y1095123D01*
X379000Y1075123D02*
Y1097123D01*
X370000Y1079123D02*
Y1092123D01*
X374000Y1076123D02*
Y1142123D01*
X382000Y1108123D02*
Y1131190D01*
X360000Y1095123D02*
Y1110123D01*
X430080Y1018123D02*
X430080Y1018123D01*
X429500Y1017623D02*
X429920Y1017203D01*
X429080D02*
X429500Y1017623D01*
X429080Y1053110D02*
Y1063123D01*
X430080Y1018123D02*
X430080Y1018123D01*
X429080D02*
X430000D01*
X430080D01*
X408460Y1002663D02*
X416000Y995123D01*
X419000Y1017190D02*
X419000Y1017190D01*
X419000Y1016123D02*
Y1017190D01*
X390000Y1001123D02*
X396000Y995123D01*
X315000Y991123D02*
Y1000123D01*
X316000Y1015623D02*
Y1026123D01*
X429080Y971123D02*
Y982123D01*
X429080Y957123D02*
X431000D01*
X418920Y936124D02*
X419000D01*
X418920D02*
X419087Y936291D01*
X419000Y936124D02*
X419127Y936251D01*
X420000Y937123D01*
X419000Y936124D02*
X419255D01*
X419127Y936251D02*
X419255Y936124D01*
X418920Y957123D02*
Y963203D01*
X408000Y981123D02*
X416000Y973123D01*
X397000Y936190D02*
Y938123D01*
X369000Y960190D02*
Y979123D01*
X357000Y916123D02*
X357067Y916190D01*
X300933Y936123D02*
X301000Y936190D01*
X298000Y936123D02*
X300933D01*
X429080Y851190D02*
Y865190D01*
Y809270D02*
Y823190D01*
X353000Y686123D02*
Y694123D01*
X331000Y1160623D02*
X347500D01*
X408080Y886190D02*
X429000D01*
X408080Y872190D02*
X429000D01*
X408080Y858190D02*
X429000D01*
X408080Y844190D02*
X429000D01*
X408080Y830190D02*
X429000D01*
X410080Y816190D02*
X429000D01*
X408080Y802190D02*
X429000D01*
X257760Y417800D02*
Y503570D01*
X385920Y1144043D02*
X386000Y1144123D01*
X375000Y1144043D02*
X385920D01*
X397000D01*
X382000Y1131190D02*
X396460D01*
X365000Y1105203D02*
X367000D01*
X386000Y1106123D02*
X386000Y1106123D01*
X419000Y1087123D02*
X429080Y1097203D01*
X353000Y1095043D02*
X366000D01*
X387000Y1093123D02*
X390000Y1096123D01*
X366000Y1094123D02*
X368000D01*
X401000Y1060123D02*
X407000D01*
X358750Y1075623D02*
X366500D01*
X359750Y1060623D02*
X370500D01*
X358750Y1070623D02*
X368500D01*
X359750Y1065623D02*
X369500D01*
X407000Y1060123D02*
X410000Y1063123D01*
X359750Y1040623D02*
X375500D01*
X359750Y1050623D02*
X372500D01*
X358750Y1050623D02*
X371500D01*
X359750Y1055623D02*
X371500D01*
X359750Y1045623D02*
X374500D01*
X305250Y1040623D02*
X305750Y1041123D01*
X359750Y1030623D02*
X376500D01*
X355250Y1025123D02*
X397920D01*
X359750Y1035623D02*
X376500D01*
X407000Y1026123D02*
X408080D01*
X295500Y1025623D02*
X305250D01*
X419000Y1011190D02*
X437000D01*
X359750Y1005623D02*
X382500D01*
X386000Y999123D02*
Y1002123D01*
X382500Y1005623D02*
X386000Y1002123D01*
X359750Y1000623D02*
X371500D01*
X289433Y1010623D02*
X305250D01*
Y1015623D02*
X316000D01*
X295000Y1005623D02*
X305250D01*
X359750Y990623D02*
X369500D01*
X359750Y995623D02*
X370500D01*
X359750Y985623D02*
X368500D01*
X396000Y981123D02*
X408000D01*
X359750Y980623D02*
X367500D01*
X403067Y989190D02*
X406933D01*
X414000Y982123D01*
X305250Y990623D02*
X305750Y991123D01*
X304750Y996123D02*
X305250Y995623D01*
X305750Y991123D02*
X315000D01*
X418000Y964123D02*
X441000D01*
X407000Y972123D02*
X415000Y964123D01*
X419000Y925123D02*
X428000Y934124D01*
X300160Y420000D02*
X301190D01*
X300190Y492000D02*
Y502000D01*
X429080Y1142190D02*
X437000D01*
X398043Y1145000D02*
X398110D01*
X398190D01*
X406190D02*
X407190D01*
X374000Y1144043D02*
X375000D01*
X347000Y1143190D02*
Y1150190D01*
X428500Y1131623D02*
X428920Y1131203D01*
X428080D02*
X428920D01*
X428000Y1131123D02*
X428080Y1131203D01*
X428000Y1129203D02*
Y1130123D01*
X429000Y1132123D02*
X430000Y1133123D01*
X428920Y1131203D02*
X428933Y1131190D01*
X418920Y1132203D02*
X419000Y1132123D01*
X418840Y1131123D02*
Y1131963D01*
Y1131123D02*
X418920D01*
X408000D02*
X408080D01*
X418920D02*
X419000D01*
X420000D01*
X397920D02*
X398000D01*
X396460Y1129663D02*
X396500Y1129623D01*
X396460Y1129663D02*
Y1131190D01*
X429000Y1108203D02*
X429080D01*
X429000Y1109123D02*
X429080D01*
X436933D01*
X418920D02*
X419000D01*
X408000D02*
X408080D01*
X409000D01*
X418920D01*
X398000Y1109123D02*
X399000D01*
X390000Y1109190D02*
X396933D01*
X397000Y1109123D01*
X372920Y1105203D02*
X373000Y1105123D01*
X367000Y1105203D02*
X372920D01*
X382000Y1100123D02*
Y1108123D01*
X382000Y1108123D01*
X360000Y1110123D02*
X364420Y1114543D01*
X352987Y1105190D02*
X353000Y1105203D01*
X429000Y1085123D02*
X429080Y1085043D01*
X429000Y1085123D02*
X429080Y1085043D01*
Y1085043D01*
Y1087123D01*
Y1087190D01*
X418920Y1087123D02*
X419000D01*
X417000Y1086123D02*
X418000D01*
X419000Y1087123D02*
X420000D01*
X408000D02*
X408080D01*
X418920D01*
X391000Y1091123D02*
X396420Y1096543D01*
X397920Y1087043D02*
Y1087123D01*
X398000D01*
X399000Y1088123D01*
X395000Y1083123D02*
X397000Y1085123D01*
X368000Y1094123D02*
X370000Y1092123D01*
X351000Y1095043D02*
X353000D01*
X429080Y1063497D02*
X429097Y1063496D01*
X429080Y1063123D02*
Y1063497D01*
X428000Y1063123D02*
X429000D01*
X429080D01*
Y1063497D02*
Y1065190D01*
Y1075123D01*
X410000Y1063123D02*
X418000D01*
X369500Y1065623D02*
X377000Y1073123D01*
X381000Y1071123D02*
X383000Y1073123D01*
X381000Y1071123D02*
X381000D01*
X377000Y1073123D02*
X379000Y1075123D01*
X377000Y1073123D02*
X377000D01*
X368500Y1070623D02*
X374000Y1076123D01*
X370500Y1060623D02*
X381000Y1071123D01*
X429080Y1051123D02*
Y1052123D01*
X429000Y1053190D02*
X429080Y1053110D01*
Y1052123D02*
Y1053110D01*
X418920Y1040203D02*
Y1041123D01*
Y1040203D02*
X420000Y1039123D01*
X420000D01*
X372500Y1050623D02*
X377000Y1055123D01*
X372500Y1050623D02*
X372500D01*
X371500Y1050623D02*
X372500Y1050623D01*
X431000Y1029123D02*
X431000Y1029123D01*
X431000Y1028123D02*
Y1029123D01*
X428080D02*
X429000D01*
Y1027123D02*
Y1029123D01*
X429080Y1029123D02*
X431000D01*
X435933D01*
X435000Y1029190D02*
X437000D01*
X417000Y1027123D02*
Y1027123D01*
X409080Y1027123D02*
X417000D01*
X408080Y1026123D02*
X409080Y1027123D01*
X397920Y1025123D02*
X400000D01*
X394000Y1036123D02*
X395000D01*
X400000Y1025123D02*
X400000Y1025123D01*
X388500Y1030623D02*
X394000Y1036123D01*
X354750Y1025623D02*
X355250Y1025123D01*
X311000Y1026123D02*
X316000D01*
X295000D02*
X295500Y1025623D01*
X295000Y1026123D02*
Y1030123D01*
X300000D01*
X429080Y1004123D02*
X429080Y1004123D01*
X429080Y1004123D02*
X435933D01*
X419000Y1011190D02*
Y1016123D01*
X396000Y1015123D02*
X396000Y1015123D01*
X310000Y1000123D02*
X315000D01*
X295000Y1000623D02*
Y1005623D01*
X429080Y983123D02*
Y993123D01*
X429080Y993123D01*
X429080Y993123D02*
Y993123D01*
X428000Y991203D02*
Y992123D01*
X429080Y982123D02*
Y983123D01*
X418920Y993123D02*
X419000D01*
X416000Y995123D02*
X418000D01*
X414000Y982123D02*
X418920D01*
X396000Y995123D02*
X401000D01*
X396000Y981123D02*
X396000Y981123D01*
Y981123D01*
X394000D02*
Y991123D01*
Y981123D02*
X396000D01*
X396000D01*
X369500Y990623D02*
X377000Y983123D01*
X370500Y995623D02*
X381000Y985123D01*
X368500Y985623D02*
X373000Y981123D01*
X367500Y980623D02*
X369000Y979123D01*
X441000Y972123D02*
X441067D01*
X441000D02*
X442000Y973123D01*
X441000Y972056D02*
X441067Y972123D01*
X441000Y964123D02*
Y972056D01*
X430000Y958123D02*
X430000D01*
X415000Y964123D02*
X418000D01*
X418920Y963203D01*
X416000Y973123D02*
X419000D01*
X369000Y960123D02*
X369000Y960124D01*
X369000Y960190D02*
X369000Y960190D01*
X369000Y960123D02*
Y960190D01*
X369000Y958000D02*
Y960124D01*
X430000Y947123D02*
X430000Y947123D01*
X429080Y947123D02*
X430000D01*
X430000Y947123D02*
X436000D01*
X410000Y955123D02*
X418000Y947123D01*
X417000D02*
X418000D01*
X418000Y946123D02*
Y947043D01*
X397987Y947190D02*
X398460Y947663D01*
X437000Y925123D02*
Y925190D01*
X429080Y925123D02*
X437000D01*
X418920D02*
X419000D01*
X419000D01*
X396933Y926190D02*
X397000Y926123D01*
X429000Y905124D02*
Y914123D01*
X429002D01*
X429000D02*
X429001Y914111D01*
X429002Y914123D02*
X429160D01*
Y912123D02*
Y914123D01*
Y914123D01*
X429001Y914111D02*
X429002Y914123D01*
X429160D02*
X436000D01*
X419000Y914123D02*
X419000D01*
X429000Y886190D02*
Y891190D01*
X418920Y892190D02*
X420000D01*
X417920Y893190D02*
X418920Y892190D01*
X397920Y886190D02*
X398000D01*
X429000Y865190D02*
X429080D01*
X429000Y870190D02*
X429080D01*
Y865190D02*
Y870190D01*
X429000D02*
Y872190D01*
X418920Y865190D02*
X419000D01*
X429000Y851190D02*
X429080D01*
Y837190D02*
Y851190D01*
X418920Y837190D02*
X419000D01*
X397920Y844190D02*
X398000D01*
X429000Y816190D02*
Y822190D01*
X397920Y830190D02*
X398000D01*
X429000Y797190D02*
Y802190D01*
X391000Y677123D02*
X391080Y677043D01*
X385000Y680123D02*
X386000Y679123D01*
X424000Y645123D02*
X424000Y645123D01*
X300160Y420000D02*
Y430000D01*
Y463500D02*
X300660Y464000D01*
X300160Y483000D02*
Y484500D01*
Y492000D02*
X300190D01*
X301190D01*
X300160D02*
Y492000D01*
X300190D01*
X257760Y417700D02*
Y417800D01*
X257190Y418000D02*
X257390Y417800D01*
D21*
X342000Y396000D02*
D03*
X320000D02*
D03*
X359000Y958000D02*
D03*
X337000D02*
D03*
X365000Y755000D02*
D03*
X343000D02*
D03*
X365000Y777000D02*
D03*
X343000D02*
D03*
D22*
X254000Y727000D02*
D03*
Y713000D02*
D03*
Y813000D02*
D03*
Y827000D02*
D03*
Y913000D02*
D03*
Y927000D02*
D03*
Y1013000D02*
D03*
Y1027000D02*
D03*
D23*
Y691920D02*
D03*
Y702080D02*
D03*
X1093000Y191920D02*
D03*
Y202080D02*
D03*
X320000Y1100920D02*
D03*
Y1111080D02*
D03*
X596000Y206080D02*
D03*
Y195920D02*
D03*
X576000Y206080D02*
D03*
Y195920D02*
D03*
X586000D02*
D03*
Y206080D02*
D03*
X596000Y246080D02*
D03*
Y235920D02*
D03*
X254000Y789920D02*
D03*
Y800080D02*
D03*
Y889920D02*
D03*
Y900080D02*
D03*
X800000Y196920D02*
D03*
Y207080D02*
D03*
X254000Y989920D02*
D03*
Y1000080D02*
D03*
X367000Y1105203D02*
D03*
Y1095043D02*
D03*
Y1127203D02*
D03*
Y1117043D02*
D03*
X310000Y1111203D02*
D03*
Y1101043D02*
D03*
X298000Y832080D02*
D03*
Y821920D02*
D03*
X425000Y645110D02*
D03*
Y655270D02*
D03*
X347000Y1150920D02*
D03*
Y1161080D02*
D03*
X353000Y1095043D02*
D03*
Y1105203D02*
D03*
X353000Y1117110D02*
D03*
Y1127270D02*
D03*
X300000Y1111203D02*
D03*
Y1101043D02*
D03*
X440000Y972110D02*
D03*
Y982270D02*
D03*
X436000Y644920D02*
D03*
Y655080D02*
D03*
X401000Y482920D02*
D03*
Y493080D02*
D03*
X413000Y482920D02*
D03*
Y493080D02*
D03*
X290000Y1100920D02*
D03*
Y1111080D02*
D03*
X1207000Y215080D02*
D03*
Y204920D02*
D03*
X288000Y1009080D02*
D03*
Y998920D02*
D03*
X378000Y482920D02*
D03*
Y493080D02*
D03*
X389000Y482920D02*
D03*
Y493080D02*
D03*
X375000Y1154203D02*
D03*
Y1144043D02*
D03*
X298000Y853080D02*
D03*
Y842920D02*
D03*
X325000Y677920D02*
D03*
Y688080D02*
D03*
Y708080D02*
D03*
Y697920D02*
D03*
X872000Y207080D02*
D03*
Y196920D02*
D03*
X321000Y440080D02*
D03*
Y429920D02*
D03*
Y481920D02*
D03*
Y492080D02*
D03*
X3217000Y1162080D02*
D03*
Y1151920D02*
D03*
Y340080D02*
D03*
Y329920D02*
D03*
X1597000Y1160080D02*
D03*
Y1149920D02*
D03*
X2133000Y1160080D02*
D03*
Y1149920D02*
D03*
X1513000Y341080D02*
D03*
Y330920D02*
D03*
X2217000Y340080D02*
D03*
Y329920D02*
D03*
X513000Y1160080D02*
D03*
Y1149920D02*
D03*
X1192000Y1161080D02*
D03*
Y1150920D02*
D03*
X1108000Y341080D02*
D03*
Y330920D02*
D03*
X597000Y341080D02*
D03*
Y330920D02*
D03*
X2943000Y1161080D02*
D03*
Y1150920D02*
D03*
X3027000Y340080D02*
D03*
Y329920D02*
D03*
X2812000Y1161080D02*
D03*
Y1150920D02*
D03*
X2538000Y1161080D02*
D03*
Y1150920D02*
D03*
X2728000Y340080D02*
D03*
Y329920D02*
D03*
X2622000Y340080D02*
D03*
Y329920D02*
D03*
X2407000Y1160080D02*
D03*
Y1149920D02*
D03*
X2323000Y340080D02*
D03*
Y329920D02*
D03*
X2002000Y1160080D02*
D03*
Y1149920D02*
D03*
X1918000Y341080D02*
D03*
Y330920D02*
D03*
X1728000Y1160080D02*
D03*
Y1149920D02*
D03*
X1812000Y341080D02*
D03*
Y330920D02*
D03*
X1323000Y1160080D02*
D03*
Y1149920D02*
D03*
X1407000Y341080D02*
D03*
Y330920D02*
D03*
X918000Y1161080D02*
D03*
Y1150920D02*
D03*
X1002000Y341080D02*
D03*
Y330920D02*
D03*
X786000Y1161080D02*
D03*
Y1150920D02*
D03*
X703000Y341080D02*
D03*
Y330920D02*
D03*
X811000Y207080D02*
D03*
Y196920D02*
D03*
D24*
X1495000Y210000D02*
D03*
X1325000Y212000D02*
D03*
X1745000Y210000D02*
D03*
X1575000Y212000D02*
D03*
X1995000Y210000D02*
D03*
X1825000Y212000D02*
D03*
X2245000Y210000D02*
D03*
X2075000Y212000D02*
D03*
X2495000Y210000D02*
D03*
X2325000Y212000D02*
D03*
X2745000Y210000D02*
D03*
X2575000Y212000D02*
D03*
X2995000Y210000D02*
D03*
X2825000Y212000D02*
D03*
X3245000Y210000D02*
D03*
X3075000Y212000D02*
D03*
X490000Y221000D02*
D03*
X646000Y221000D02*
D03*
D25*
X1427500Y234000D02*
D03*
X1392500Y188000D02*
D03*
X1677500Y234000D02*
D03*
X1642500Y188000D02*
D03*
X1927500Y234000D02*
D03*
X1892500Y188000D02*
D03*
X2177500Y234000D02*
D03*
X2142500Y188000D02*
D03*
X2427500Y234000D02*
D03*
X2392500Y188000D02*
D03*
X2677500Y234000D02*
D03*
X2642500Y188000D02*
D03*
X2927500Y234000D02*
D03*
X2892500Y188000D02*
D03*
X3177500Y234000D02*
D03*
X3142500Y188000D02*
D03*
X557500Y197000D02*
D03*
X713500Y197000D02*
D03*
D26*
X1428500Y188000D02*
D03*
X1391500Y234000D02*
D03*
X1678500Y188000D02*
D03*
X1641500Y234000D02*
D03*
X1928500Y188000D02*
D03*
X1891500Y234000D02*
D03*
X2178500Y188000D02*
D03*
X2141500Y234000D02*
D03*
X2428500Y188000D02*
D03*
X2391500Y234000D02*
D03*
X2678500Y188000D02*
D03*
X2641500Y234000D02*
D03*
X2928500Y188000D02*
D03*
X2891500Y234000D02*
D03*
X3178500Y188000D02*
D03*
X3141500Y234000D02*
D03*
X556500Y243000D02*
D03*
X712500Y243000D02*
D03*
D27*
X1770000Y337000D02*
D03*
X1770000Y1157000D02*
D03*
X1960000D02*
D03*
Y337000D02*
D03*
X555000Y336000D02*
D03*
X555000Y1156000D02*
D03*
X745000D02*
D03*
Y336000D02*
D03*
X1365000Y337000D02*
D03*
X1365000Y1157000D02*
D03*
X1555000D02*
D03*
Y337000D02*
D03*
X960000Y336000D02*
D03*
X960000Y1156000D02*
D03*
X1150000D02*
D03*
Y336000D02*
D03*
X2985000Y336000D02*
D03*
X2985000Y1156000D02*
D03*
X3175000D02*
D03*
Y336000D02*
D03*
X2580000D02*
D03*
X2580000Y1156000D02*
D03*
X2770000D02*
D03*
Y336000D02*
D03*
X2175000D02*
D03*
X2175000Y1156000D02*
D03*
X2365000D02*
D03*
Y336000D02*
D03*
D28*
X995000Y215500D02*
D03*
D29*
X1019000Y283000D02*
D03*
D30*
X973000Y282000D02*
D03*
D31*
X1040920D02*
D03*
X1051080D02*
D03*
X1123080Y179000D02*
D03*
X1112920D02*
D03*
X408080Y1026123D02*
D03*
X397920D02*
D03*
X576080Y226000D02*
D03*
X565920D02*
D03*
X586080Y246000D02*
D03*
X575920D02*
D03*
X586080Y216000D02*
D03*
X575920D02*
D03*
X586080Y236000D02*
D03*
X575920D02*
D03*
X596080Y226000D02*
D03*
X585920D02*
D03*
X751080Y187000D02*
D03*
X740920D02*
D03*
X751080Y196000D02*
D03*
X740920D02*
D03*
X740920Y255000D02*
D03*
X751080D02*
D03*
X740920Y214000D02*
D03*
X751080D02*
D03*
X740920Y205000D02*
D03*
X751080D02*
D03*
X740920Y243000D02*
D03*
X751080D02*
D03*
Y233000D02*
D03*
X740920D02*
D03*
X740920Y224000D02*
D03*
X751080D02*
D03*
X1256080Y183000D02*
D03*
X1245920D02*
D03*
X418920Y1142190D02*
D03*
X429080D02*
D03*
X429080Y1120123D02*
D03*
X418920D02*
D03*
X429080Y1098123D02*
D03*
X418920D02*
D03*
X397920Y1120123D02*
D03*
X408080D02*
D03*
X397920Y1098123D02*
D03*
X408080D02*
D03*
X418920Y1018123D02*
D03*
X429080D02*
D03*
X397920Y1037123D02*
D03*
X408080D02*
D03*
X369080Y367000D02*
D03*
X358920D02*
D03*
X429080Y957123D02*
D03*
X418920D02*
D03*
X429080Y936124D02*
D03*
X418920D02*
D03*
X429160Y914123D02*
D03*
X419000D02*
D03*
X397920Y957123D02*
D03*
X408080D02*
D03*
X397920Y936123D02*
D03*
X408080D02*
D03*
X418920Y837190D02*
D03*
X429080D02*
D03*
X418920Y795190D02*
D03*
X429080D02*
D03*
X397920Y816190D02*
D03*
X408080D02*
D03*
X1206920Y194000D02*
D03*
X1217080D02*
D03*
X273920Y1053000D02*
D03*
X284080D02*
D03*
X349080Y367000D02*
D03*
X338920D02*
D03*
X307920Y953000D02*
D03*
X318080D02*
D03*
X371080Y708000D02*
D03*
X360920D02*
D03*
X391080Y708000D02*
D03*
X380920D02*
D03*
X340920D02*
D03*
X351080D02*
D03*
X271920Y705000D02*
D03*
X282080D02*
D03*
X429000Y1131123D02*
D03*
X418840D02*
D03*
X397920D02*
D03*
X408080D02*
D03*
X429080Y1109123D02*
D03*
X418920D02*
D03*
X397920D02*
D03*
X408080D02*
D03*
X429080Y1087123D02*
D03*
X418920D02*
D03*
X397920D02*
D03*
X408080D02*
D03*
X418920Y1075123D02*
D03*
X429080D02*
D03*
X418920Y1063123D02*
D03*
X429080D02*
D03*
X273920Y1042000D02*
D03*
X284080D02*
D03*
X418920Y1052123D02*
D03*
X429080D02*
D03*
X418920Y1041123D02*
D03*
X429080D02*
D03*
X273920Y1032000D02*
D03*
X284080D02*
D03*
X389080Y367000D02*
D03*
X378920D02*
D03*
X418920Y1029123D02*
D03*
X429080D02*
D03*
X284080Y1021000D02*
D03*
X273920D02*
D03*
X429080Y1004123D02*
D03*
X418920D02*
D03*
X397920Y1015123D02*
D03*
X408080D02*
D03*
X397920Y1004123D02*
D03*
X408080D02*
D03*
X429080Y993123D02*
D03*
X418920D02*
D03*
Y982123D02*
D03*
X429080D02*
D03*
X418920Y971123D02*
D03*
X429080D02*
D03*
X429080Y947123D02*
D03*
X418920D02*
D03*
X397920Y947123D02*
D03*
X408080D02*
D03*
X429080Y925123D02*
D03*
X418920D02*
D03*
X397920Y925123D02*
D03*
X408080D02*
D03*
X418920Y904123D02*
D03*
X429080D02*
D03*
X418920Y892190D02*
D03*
X429080D02*
D03*
X418920Y880190D02*
D03*
X429080D02*
D03*
X397920Y886190D02*
D03*
X408080D02*
D03*
X418920Y865190D02*
D03*
X429080D02*
D03*
X397920Y872190D02*
D03*
X408080D02*
D03*
X397920Y858190D02*
D03*
X408080D02*
D03*
X418920Y851190D02*
D03*
X429080D02*
D03*
X397920Y844190D02*
D03*
X408080D02*
D03*
X418920Y823190D02*
D03*
X429080D02*
D03*
X397920Y830190D02*
D03*
X408080D02*
D03*
X419000Y809190D02*
D03*
X429160D02*
D03*
X397920Y802190D02*
D03*
X408080D02*
D03*
X279080Y541000D02*
D03*
X268920D02*
D03*
X408270Y1145000D02*
D03*
X398110D02*
D03*
X340080Y1122000D02*
D03*
X329920D02*
D03*
X299920Y1122000D02*
D03*
X310080D02*
D03*
X307920Y963000D02*
D03*
X318080D02*
D03*
D32*
X1073000Y242000D02*
D03*
Y282000D02*
D03*
X1073000Y184000D02*
D03*
Y224000D02*
D03*
X1265000Y236000D02*
D03*
Y196000D02*
D03*
X1238000D02*
D03*
Y236000D02*
D03*
D33*
X1118000Y213500D02*
D03*
X1127500Y190500D02*
D03*
X1108500D02*
D03*
X777000Y183500D02*
D03*
X767500Y206500D02*
D03*
X786500D02*
D03*
X1187500Y213500D02*
D03*
X1168500D02*
D03*
X1178000Y190500D02*
D03*
X401500Y773500D02*
D03*
X382500D02*
D03*
X392000Y750500D02*
D03*
X437500Y773500D02*
D03*
X418500D02*
D03*
X428000Y750500D02*
D03*
D34*
X302500Y890373D02*
D03*
Y896873D02*
D03*
Y903373D02*
D03*
Y909873D02*
D03*
Y916373D02*
D03*
Y922873D02*
D03*
Y935873D02*
D03*
Y929373D02*
D03*
X357000Y929323D02*
D03*
Y935823D02*
D03*
Y922823D02*
D03*
Y916323D02*
D03*
Y909823D02*
D03*
Y903323D02*
D03*
Y896823D02*
D03*
Y890323D02*
D03*
Y883823D02*
D03*
Y877323D02*
D03*
Y870823D02*
D03*
Y864323D02*
D03*
X302500Y864373D02*
D03*
Y870873D02*
D03*
Y877373D02*
D03*
Y883873D02*
D03*
D35*
X369500Y203500D02*
D03*
X428500D02*
D03*
Y240500D02*
D03*
X369500D02*
D03*
D36*
X271500Y778500D02*
D03*
Y719500D02*
D03*
X308500D02*
D03*
Y778500D02*
D03*
D37*
X309000Y694700D02*
D03*
Y679300D02*
D03*
D38*
X300160Y492000D02*
D03*
Y484500D02*
D03*
X300190Y437500D02*
D03*
X300160Y430000D02*
D03*
D39*
Y478500D02*
D03*
Y473500D02*
D03*
Y468500D02*
D03*
Y463500D02*
D03*
X300190Y458500D02*
D03*
X300160Y453500D02*
D03*
Y448500D02*
D03*
Y443500D02*
D03*
D40*
X873000Y441000D02*
D03*
Y445000D02*
D03*
X1267000Y439000D02*
D03*
Y443000D02*
D03*
X586000Y356000D02*
D03*
Y360000D02*
D03*
X2077000Y440000D02*
D03*
Y444000D02*
D03*
X2676000Y1162000D02*
D03*
Y1158000D02*
D03*
X3080000Y1168000D02*
D03*
Y1164000D02*
D03*
X652000Y1134000D02*
D03*
Y1138000D02*
D03*
X1054000Y1140000D02*
D03*
Y1144000D02*
D03*
X1460000Y1140000D02*
D03*
Y1144000D02*
D03*
X1671000Y439000D02*
D03*
Y443000D02*
D03*
X1864000Y1150000D02*
D03*
Y1146000D02*
D03*
X2270000Y1156000D02*
D03*
Y1152000D02*
D03*
X2473000Y439000D02*
D03*
Y443000D02*
D03*
X2878000Y437000D02*
D03*
Y441000D02*
D03*
X3176000Y368000D02*
D03*
Y372000D02*
D03*
X436000Y928000D02*
D03*
Y932000D02*
D03*
D41*
X435000Y335000D02*
D03*
X383000D02*
D03*
D42*
X358750Y975623D02*
D03*
Y980623D02*
D03*
Y985623D02*
D03*
Y990623D02*
D03*
Y995623D02*
D03*
Y1000623D02*
D03*
Y1005623D02*
D03*
Y1010623D02*
D03*
Y1015623D02*
D03*
Y1020623D02*
D03*
Y1025623D02*
D03*
Y1030623D02*
D03*
Y1035623D02*
D03*
Y1040623D02*
D03*
Y1045623D02*
D03*
Y1050623D02*
D03*
Y1055623D02*
D03*
Y1060623D02*
D03*
Y1065623D02*
D03*
Y1070623D02*
D03*
Y1075623D02*
D03*
Y1080623D02*
D03*
X305250Y975623D02*
D03*
Y980623D02*
D03*
Y985623D02*
D03*
Y990623D02*
D03*
Y995623D02*
D03*
Y1000623D02*
D03*
Y1005623D02*
D03*
Y1010623D02*
D03*
Y1015623D02*
D03*
Y1020623D02*
D03*
Y1025623D02*
D03*
Y1030623D02*
D03*
Y1035623D02*
D03*
Y1040623D02*
D03*
Y1045623D02*
D03*
Y1050623D02*
D03*
Y1055623D02*
D03*
Y1060623D02*
D03*
Y1065623D02*
D03*
Y1070623D02*
D03*
Y1075623D02*
D03*
Y1080623D02*
D03*
D43*
X410000Y554123D02*
D03*
Y559123D02*
D03*
Y564123D02*
D03*
Y569123D02*
D03*
Y574123D02*
D03*
Y579123D02*
D03*
Y584123D02*
D03*
Y589123D02*
D03*
Y594123D02*
D03*
Y599123D02*
D03*
Y604123D02*
D03*
Y609123D02*
D03*
X326500Y554123D02*
D03*
Y559123D02*
D03*
Y564123D02*
D03*
Y569123D02*
D03*
Y574123D02*
D03*
Y579123D02*
D03*
Y584123D02*
D03*
Y589123D02*
D03*
Y594123D02*
D03*
Y599123D02*
D03*
Y604123D02*
D03*
Y609123D02*
D03*
D44*
X340750Y539873D02*
D03*
X345750D02*
D03*
X350750D02*
D03*
X355750D02*
D03*
X360750D02*
D03*
X365750D02*
D03*
X370750D02*
D03*
X375750D02*
D03*
X380750D02*
D03*
X385750D02*
D03*
X390750D02*
D03*
X395750D02*
D03*
X340750Y623373D02*
D03*
X345750D02*
D03*
X350750D02*
D03*
X355750Y623373D02*
D03*
X360750Y623373D02*
D03*
X365750D02*
D03*
X370750D02*
D03*
X375750D02*
D03*
X380750D02*
D03*
X385750Y623373D02*
D03*
X390750Y623373D02*
D03*
X395750Y623373D02*
D03*
D45*
X315500Y1138690D02*
D03*
Y1157690D02*
D03*
X292500Y1148191D02*
D03*
X308500Y832500D02*
D03*
Y813500D02*
D03*
X331500Y823000D02*
D03*
X859500Y188500D02*
D03*
Y207500D02*
D03*
X836500Y198000D02*
D03*
D46*
X332000Y1159190D02*
D03*
Y1137190D02*
D03*
X404000Y1071123D02*
D03*
Y1049123D02*
D03*
X402000Y992123D02*
D03*
Y970123D02*
D03*
D47*
X384500Y685123D02*
D03*
X347500D02*
D03*
D48*
X829000Y256000D02*
D03*
X869000D02*
D03*
X774000D02*
D03*
X814000D02*
D03*
X869000Y228000D02*
D03*
X829000D02*
D03*
X814000Y231000D02*
D03*
X774000D02*
D03*
D81*
X866000Y263000D02*
X872000Y257000D01*
X870000Y258000D02*
X872000Y257000D01*
X872000Y257000D01*
X873672Y251985D02*
X996000Y252180D01*
X1494991Y252974D01*
X870000Y258000D02*
X870000Y258000D01*
X996000Y252180D02*
Y259000D01*
Y239000D02*
Y252180D01*
X1494991Y252974D02*
X1500000Y258000D01*
X420000Y386000D02*
Y389000D01*
X588000Y349000D02*
Y410000D01*
X418000Y384000D02*
X420000Y386000D01*
X418000Y262000D02*
Y384000D01*
Y262000D02*
X428000D01*
X546080Y206080D02*
X575920D01*
X531000Y191000D02*
X546080Y206080D01*
X420000Y386000D02*
X423000D01*
X428000Y262000D02*
X672000D01*
X292500Y1178500D02*
X294000Y1177000D01*
X292500Y1148191D02*
Y1178500D01*
X481000Y472000D02*
X580000D01*
X2257000Y261000D02*
X2272000Y276000D01*
X2249000Y261000D02*
X2257000D01*
X1671000Y443000D02*
Y507000D01*
Y442000D02*
Y443000D01*
X504000Y1175000D02*
X513000D01*
X504000Y1117000D02*
Y1175000D01*
X580000Y472000D02*
X580000Y472000D01*
X596000D02*
Y526000D01*
X392000Y742000D02*
Y753000D01*
X545000Y986000D02*
Y1056000D01*
X510000Y951000D02*
X545000Y986000D01*
X510000Y917000D02*
Y951000D01*
X430000Y751000D02*
X439000D01*
X447000Y759000D01*
X392000Y742000D02*
X439000D01*
X481000Y700000D01*
X311000Y813000D02*
X318000D01*
X521000Y1002000D02*
Y1041000D01*
X479000Y960000D02*
X521000Y1002000D01*
X479000Y833000D02*
Y960000D01*
X515000Y1005000D02*
Y1038000D01*
X473000Y963000D02*
X515000Y1005000D01*
X473000Y963000D02*
X473000Y827000D01*
X1267000Y443000D02*
Y513000D01*
X509000Y1008000D02*
Y1035000D01*
X467000Y966000D02*
X509000Y1008000D01*
X467000Y821000D02*
Y966000D01*
X503000Y1011000D02*
Y1032000D01*
X461000Y969000D02*
X503000Y1011000D01*
X461000Y815000D02*
Y969000D01*
X481000Y700000D02*
X481000D01*
X437000Y1120000D02*
X452000Y1105000D01*
Y1101000D02*
Y1105000D01*
X446000Y1098000D02*
X487000Y1057000D01*
X437000Y1098000D02*
X446000D01*
X487000Y1057000D02*
X487000D01*
X485000Y1050000D02*
X503000Y1032000D01*
X463000Y1050000D02*
X485000D01*
X452000Y1101000D02*
X515000Y1038000D01*
X487000Y1057000D02*
X509000Y1035000D01*
X459095Y1102905D02*
X521000Y1041000D01*
X459095Y1102905D02*
Y1120095D01*
X442000Y1029000D02*
X463000Y1050000D01*
X437000Y1029000D02*
X442000D01*
X1938000Y276000D02*
X2272000D01*
X588000Y413000D02*
Y526000D01*
X2077000Y445000D02*
Y501000D01*
X873000Y446000D02*
Y519000D01*
X713000Y242000D02*
Y262000D01*
X835000Y198000D02*
X836500D01*
X818000Y215000D02*
X835000Y198000D01*
X764000Y215000D02*
X818000D01*
X672000Y262000D02*
X701000Y233000D01*
X764000Y215000D02*
Y262000D01*
X701000Y233000D02*
X728000D01*
X447000Y790000D02*
X486000Y829000D01*
X447000Y759000D02*
Y790000D01*
X486000Y829000D02*
Y840000D01*
X437000Y1142190D02*
X459095Y1120095D01*
X437000Y1011190D02*
X442810D01*
X455000Y999000D01*
Y809000D02*
Y999000D01*
X437000Y791000D02*
Y914190D01*
X443000Y797000D02*
Y947000D01*
X443000Y947000D01*
X443000Y947000D02*
X443000Y947000D01*
X449000Y803000D02*
Y993000D01*
X751080Y262000D02*
X764000D01*
X713000Y240000D02*
Y242000D01*
X742000Y262000D02*
X751000D01*
X713000D02*
X741920D01*
X713000Y242000D02*
X716000D01*
X449000Y993000D02*
X449000Y993000D01*
X437000Y993000D02*
X449000D01*
X437000Y947000D02*
X443000D01*
D82*
X751080Y185000D02*
Y205000D01*
X412000Y394000D02*
X419000Y401000D01*
X412000Y225000D02*
Y394000D01*
Y225000D02*
X454000D01*
X342000Y396000D02*
X355000D01*
X454000Y225000D02*
Y256000D01*
Y181000D02*
Y225000D01*
X751080Y181000D02*
Y187000D01*
X454000Y181000D02*
X751080Y181000D01*
X454000Y256000D02*
X524000D01*
X537000Y243000D02*
X556000D01*
X524000Y256000D02*
X537000Y243000D01*
X734000Y196000D02*
X740920D01*
X716500D02*
X734000D01*
D83*
X436000Y524000D02*
X437000D01*
X406000Y405000D02*
X436000Y435000D01*
X406000Y192000D02*
Y405000D01*
X436000Y435000D02*
Y485000D01*
X309000Y679300D02*
Y680000D01*
Y670000D02*
Y679300D01*
Y680000D02*
X310000Y681000D01*
X436000Y485000D02*
Y522000D01*
Y524000D01*
Y526000D01*
X435667Y521667D02*
X436000Y522000D01*
D84*
X1505000Y543000D02*
X3250000D01*
X1048000D02*
X1505000D01*
X975000Y285000D02*
X990000D01*
X1025000Y320000D01*
Y520000D01*
X1048000Y543000D01*
X495000Y552833D02*
Y795000D01*
X465000Y527833D02*
X495000Y552833D01*
X465000Y414000D02*
Y527833D01*
X563000Y959000D02*
X3032000Y959000D01*
X563000Y943000D02*
Y959000D01*
Y943000D02*
X3250000D01*
Y543000D02*
Y559000D01*
X525000Y799000D02*
X3250000D01*
X525000Y783000D02*
Y799000D01*
Y783000D02*
X3250000D01*
X525000Y910000D02*
Y945000D01*
X520000Y905000D02*
X525000Y910000D01*
X520000Y820000D02*
Y905000D01*
X3250000Y959000D02*
Y975000D01*
X555000Y975000D02*
X3250000Y975000D01*
X525000Y945000D02*
X555000Y975000D01*
X540000Y927000D02*
X3250000D01*
X540000Y911000D02*
Y927000D01*
Y911000D02*
X3250000D01*
X535000Y831000D02*
X3250000D01*
X535000Y815000D02*
Y831000D01*
Y815000D02*
X3250000D01*
X535000Y863000D02*
X3250000D01*
X535000Y847000D02*
Y863000D01*
Y847000D02*
X3250000D01*
X535000Y895000D02*
X3250000D01*
X535000Y879000D02*
Y895000D01*
Y879000D02*
X3250000D01*
X495000Y795000D02*
X520000Y820000D01*
X3032000Y959000D02*
X3250000Y959000D01*
Y927000D02*
Y943000D01*
Y895000D02*
Y911000D01*
Y863000D02*
Y879000D01*
Y831000D02*
Y847000D01*
Y799000D02*
Y815000D01*
Y767000D02*
Y783000D01*
X511000Y767000D02*
X3250000D01*
Y735000D02*
Y751000D01*
X511000Y735000D02*
X3250000D01*
X511000Y751000D02*
X3250000D01*
Y703000D02*
Y719000D01*
X511000Y703000D02*
X3250000D01*
X511000Y719000D02*
X3250000D01*
Y671000D02*
Y687000D01*
X511000Y671000D02*
X3250000D01*
X511000Y687000D02*
X3250000D01*
Y639000D02*
Y655000D01*
X511000Y639000D02*
X3250000D01*
X511000Y655000D02*
X3250000D01*
Y607000D02*
Y623000D01*
X511000Y607000D02*
X3250000D01*
X511000Y623000D02*
X3250000D01*
Y575000D02*
Y591000D01*
X511000Y575000D02*
X3250000D01*
X511000Y591000D02*
X3250000D01*
X511000Y559000D02*
X3250000D01*
X511000D02*
Y575000D01*
Y751000D02*
Y767000D01*
Y719000D02*
Y735000D01*
Y591000D02*
Y607000D01*
Y623000D02*
Y639000D01*
Y655000D02*
Y671000D01*
Y687000D02*
Y703000D01*
D85*
X528000Y1070000D02*
X3267000D01*
X483000Y1115000D02*
X528000Y1070000D01*
X483000Y1115000D02*
Y1133000D01*
X439000Y1177000D02*
X483000Y1133000D01*
X294000Y1177000D02*
X439000D01*
X3267000Y527000D02*
X3267000Y1070000D01*
X3267000Y527000D02*
Y530000D01*
Y521000D02*
Y527000D01*
X3228000Y482000D02*
X3267000Y521000D01*
X3267000D02*
X3267000D01*
X3228000Y430000D02*
Y482000D01*
D86*
X1495000Y247000D02*
D03*
X1745000D02*
D03*
X1995000D02*
D03*
X2245000Y245000D02*
D03*
X2495000D02*
D03*
X2745000D02*
D03*
X2995000D02*
D03*
X3245000D02*
D03*
D87*
X1424000Y203000D02*
D03*
X1396000Y219000D02*
D03*
X1646000D02*
D03*
X1674000Y203000D02*
D03*
X1924000D02*
D03*
X1896000Y219000D02*
D03*
X2146000D02*
D03*
X2174000Y203000D02*
D03*
X2396000Y219000D02*
D03*
X2424000Y203000D02*
D03*
X2646000Y219000D02*
D03*
X2674000Y203000D02*
D03*
X2896000Y219000D02*
D03*
X2924000Y203000D02*
D03*
X3174000D02*
D03*
X3146000Y219000D02*
D03*
D88*
X1348500Y257000D02*
D03*
D89*
X852500Y335000D02*
D03*
X1257500D02*
D03*
X1662500D02*
D03*
X2067500D02*
D03*
X2472500D02*
D03*
X2877500D02*
D03*
D90*
X745000Y345000D02*
D03*
X960000D02*
D03*
X1150000D02*
D03*
X1365000D02*
D03*
X1555000D02*
D03*
X1770000D02*
D03*
X1960000D02*
D03*
X2175000D02*
D03*
X2365000D02*
D03*
X2580000D02*
D03*
X2770000D02*
D03*
X2985000Y345000D02*
D03*
X3175000Y1145000D02*
D03*
X2985000Y1145000D02*
D03*
X2770000Y1145000D02*
D03*
X2580000Y1145000D02*
D03*
X2365000Y1145000D02*
D03*
X2175000Y1145000D02*
D03*
X1960000Y1145000D02*
D03*
X1770000Y1145000D02*
D03*
X1555000Y1145000D02*
D03*
X1365000Y1145000D02*
D03*
X1150000Y1145000D02*
D03*
X960000Y1145000D02*
D03*
X745000Y1145000D02*
D03*
X555000Y1145000D02*
D03*
D91*
X947500Y394000D02*
D03*
X1352500Y395000D02*
D03*
X1757500Y394000D02*
D03*
D92*
X3080000Y1155000D02*
D03*
X2675000D02*
D03*
X2270000D02*
D03*
X1865000D02*
D03*
X1460000D02*
D03*
X1055000D02*
D03*
X650000D02*
D03*
D93*
X1459905Y1153000D02*
D03*
X3079905Y1152000D02*
D03*
X2674905D02*
D03*
X2269905D02*
D03*
X1864905D02*
D03*
X1054905D02*
D03*
X649905D02*
D03*
D94*
X372000Y335000D02*
D03*
X448000D02*
D03*
D95*
X2972500Y394000D02*
D03*
X2567500D02*
D03*
D96*
X2807500D02*
D03*
X2402500D02*
D03*
X782500D02*
D03*
X1187500Y395000D02*
D03*
X1592500D02*
D03*
X1997500Y394000D02*
D03*
D97*
X2877500Y340000D02*
D03*
X2472500D02*
D03*
X852500D02*
D03*
X1257500Y341000D02*
D03*
X1662500D02*
D03*
X2067500Y340000D02*
D03*
D98*
X2877500Y423500D02*
D03*
X2472500D02*
D03*
X852500D02*
D03*
X1257500Y424500D02*
D03*
X1662500Y423500D02*
D03*
X2067500D02*
D03*
D99*
X2162500Y394000D02*
D03*
D100*
X327500Y312000D02*
D03*
D101*
X3247500Y369000D02*
D03*
D102*
X3123500Y403500D02*
D03*
D103*
X3086500Y355500D02*
D03*
D104*
X873000Y443000D02*
D03*
X1266998Y441000D02*
D03*
X586001Y358000D02*
D03*
X2077001Y442000D02*
D03*
X2676000Y1160000D02*
D03*
X3080000Y1165999D02*
D03*
X651998Y1136000D02*
D03*
X1054000Y1142000D02*
D03*
X1460000Y1142000D02*
D03*
X1670998Y441000D02*
D03*
X1864000Y1147999D02*
D03*
X2270000Y1154000D02*
D03*
X2473001Y441000D02*
D03*
X2878001Y439000D02*
D03*
X3176000Y370000D02*
D03*
X436000Y929999D02*
D03*
D105*
X540000Y336000D02*
D03*
D106*
X484000D02*
D03*
D107*
X3103000Y340000D02*
D03*
D108*
X3133000Y337500D02*
D03*
D109*
X3140000Y391000D02*
D03*
D110*
X3175000Y336000D02*
D03*
D111*
X3079810Y1104500D02*
D03*
X2674810D02*
D03*
X2269810D02*
D03*
X1864810D02*
D03*
X1459810D02*
D03*
X1054810D02*
D03*
D112*
X2282500Y278500D02*
D03*
D113*
X649905Y1112000D02*
D03*
D114*
X310000Y301000D02*
D03*
Y229000D02*
D03*
D115*
X250000Y332500D02*
D03*
Y197500D02*
D03*
D116*
X296360Y504200D02*
D03*
Y417700D02*
D03*
D117*
X257760Y504200D02*
D03*
Y417700D02*
D03*
D118*
X406000Y191000D02*
D03*
X394000Y190000D02*
D03*
X241000Y553000D02*
D03*
X389000Y375000D02*
D03*
X384000Y356000D02*
D03*
X1914000Y187000D02*
D03*
X1664000D02*
D03*
X1414000D02*
D03*
X1350000Y229000D02*
D03*
Y219000D02*
D03*
Y209000D02*
D03*
Y199000D02*
D03*
Y239000D02*
D03*
X1340000Y229000D02*
D03*
Y219000D02*
D03*
Y209000D02*
D03*
Y199000D02*
D03*
Y239000D02*
D03*
X1330000Y229000D02*
D03*
Y219000D02*
D03*
Y209000D02*
D03*
Y199000D02*
D03*
Y239000D02*
D03*
X1320000Y229000D02*
D03*
Y219000D02*
D03*
Y209000D02*
D03*
Y199000D02*
D03*
Y239000D02*
D03*
X1310000Y229000D02*
D03*
Y219000D02*
D03*
Y209000D02*
D03*
Y199000D02*
D03*
Y239000D02*
D03*
X1300000Y229000D02*
D03*
Y219000D02*
D03*
Y209000D02*
D03*
Y199000D02*
D03*
Y239000D02*
D03*
X1550000Y238000D02*
D03*
Y198000D02*
D03*
Y208000D02*
D03*
Y218000D02*
D03*
Y228000D02*
D03*
X1560000Y238000D02*
D03*
Y198000D02*
D03*
Y208000D02*
D03*
Y218000D02*
D03*
Y228000D02*
D03*
X1570000Y238000D02*
D03*
Y198000D02*
D03*
Y208000D02*
D03*
Y218000D02*
D03*
Y228000D02*
D03*
X1580000Y238000D02*
D03*
Y198000D02*
D03*
Y208000D02*
D03*
Y218000D02*
D03*
Y228000D02*
D03*
X1590000Y238000D02*
D03*
Y198000D02*
D03*
Y208000D02*
D03*
Y218000D02*
D03*
Y228000D02*
D03*
X1600000Y238000D02*
D03*
Y198000D02*
D03*
Y208000D02*
D03*
Y218000D02*
D03*
Y228000D02*
D03*
X1850000D02*
D03*
Y218000D02*
D03*
Y208000D02*
D03*
Y198000D02*
D03*
Y238000D02*
D03*
X1840000Y228000D02*
D03*
Y218000D02*
D03*
Y208000D02*
D03*
Y198000D02*
D03*
Y238000D02*
D03*
X1830000Y228000D02*
D03*
Y218000D02*
D03*
Y208000D02*
D03*
Y198000D02*
D03*
Y238000D02*
D03*
X1820000Y228000D02*
D03*
Y218000D02*
D03*
Y208000D02*
D03*
Y198000D02*
D03*
Y238000D02*
D03*
X1810000Y228000D02*
D03*
Y218000D02*
D03*
Y208000D02*
D03*
Y198000D02*
D03*
Y238000D02*
D03*
X1800000Y228000D02*
D03*
Y218000D02*
D03*
Y208000D02*
D03*
Y198000D02*
D03*
Y238000D02*
D03*
X785000Y187000D02*
D03*
X820000Y191000D02*
D03*
X428000Y181000D02*
D03*
X531000Y191000D02*
D03*
X476000Y725000D02*
D03*
X468000D02*
D03*
X268000Y846000D02*
D03*
X481000Y472000D02*
D03*
X433000Y366000D02*
D03*
X331000Y367000D02*
D03*
X504000Y1116000D02*
D03*
X254000Y938000D02*
D03*
X267000D02*
D03*
X254000Y837000D02*
D03*
Y955000D02*
D03*
X580000Y472000D02*
D03*
X596000Y472000D02*
D03*
X326000Y917000D02*
D03*
X398000Y837000D02*
D03*
X390000Y830000D02*
D03*
X398000Y823000D02*
D03*
X390000Y816000D02*
D03*
X386000Y809000D02*
D03*
X390000Y802000D02*
D03*
X319000Y822000D02*
D03*
X318000Y813000D02*
D03*
X305000Y858000D02*
D03*
X545000Y1056000D02*
D03*
X510000Y917000D02*
D03*
X266000Y579000D02*
D03*
X481000Y700000D02*
D03*
X254000Y975000D02*
D03*
X3176000Y432000D02*
D03*
X2878000Y438000D02*
D03*
X2224000Y347000D02*
D03*
X2316000Y351000D02*
D03*
X2721000Y358000D02*
D03*
X2629000Y357000D02*
D03*
X1267000Y513000D02*
D03*
X2473000Y444000D02*
D03*
X1918000Y321000D02*
D03*
X1812000D02*
D03*
X1513000D02*
D03*
X1407000D02*
D03*
X1108000D02*
D03*
X1002000D02*
D03*
X873000Y519000D02*
D03*
X588000Y526000D02*
D03*
X2077000Y501000D02*
D03*
X3217000Y526000D02*
D03*
X3025000D02*
D03*
X2728000D02*
D03*
X2217000D02*
D03*
X1671000Y507000D02*
D03*
X596000Y526000D02*
D03*
X1002000D02*
D03*
X703000D02*
D03*
X2324000D02*
D03*
X2621000D02*
D03*
X1918000D02*
D03*
X1812000D02*
D03*
X1513000D02*
D03*
X1407000D02*
D03*
X1108000D02*
D03*
X288000Y1074000D02*
D03*
X344000Y1093000D02*
D03*
X320000D02*
D03*
X265000Y1053000D02*
D03*
X335000Y1043000D02*
D03*
X290000Y1122000D02*
D03*
X324000Y1036000D02*
D03*
X336000Y947000D02*
D03*
X281000Y1101000D02*
D03*
X300000Y953000D02*
D03*
X254000Y1036000D02*
D03*
X324000Y1010000D02*
D03*
X346000Y996000D02*
D03*
X385000Y1036000D02*
D03*
X341000Y968000D02*
D03*
X326000Y963000D02*
D03*
Y953000D02*
D03*
X437000Y791000D02*
D03*
X443000Y797000D02*
D03*
X449000Y803000D02*
D03*
X455000Y809000D02*
D03*
X461000Y815000D02*
D03*
X467000Y821000D02*
D03*
X473000Y827000D02*
D03*
X479000Y833000D02*
D03*
X486000Y840000D02*
D03*
X3032000Y363000D02*
D03*
X1272000Y184000D02*
D03*
X3164000Y187000D02*
D03*
X2914000D02*
D03*
X2163000D02*
D03*
X2664000D02*
D03*
X2414000D02*
D03*
X2050000Y237000D02*
D03*
Y197000D02*
D03*
Y207000D02*
D03*
Y217000D02*
D03*
Y227000D02*
D03*
X2060000Y237000D02*
D03*
Y197000D02*
D03*
Y207000D02*
D03*
Y217000D02*
D03*
Y227000D02*
D03*
X2070000Y237000D02*
D03*
Y197000D02*
D03*
Y207000D02*
D03*
Y217000D02*
D03*
Y227000D02*
D03*
X2080000Y237000D02*
D03*
Y197000D02*
D03*
Y207000D02*
D03*
Y217000D02*
D03*
Y227000D02*
D03*
X2090000Y237000D02*
D03*
Y197000D02*
D03*
Y207000D02*
D03*
Y217000D02*
D03*
Y227000D02*
D03*
X2100000Y237000D02*
D03*
Y197000D02*
D03*
Y207000D02*
D03*
Y217000D02*
D03*
Y227000D02*
D03*
X2300000Y237000D02*
D03*
Y197000D02*
D03*
Y207000D02*
D03*
Y217000D02*
D03*
Y227000D02*
D03*
X2310000Y237000D02*
D03*
Y197000D02*
D03*
Y207000D02*
D03*
Y217000D02*
D03*
Y227000D02*
D03*
X2320000Y237000D02*
D03*
Y197000D02*
D03*
Y207000D02*
D03*
Y217000D02*
D03*
Y227000D02*
D03*
X2330000Y237000D02*
D03*
Y197000D02*
D03*
Y207000D02*
D03*
Y217000D02*
D03*
Y227000D02*
D03*
X2340000Y237000D02*
D03*
Y197000D02*
D03*
Y207000D02*
D03*
Y217000D02*
D03*
Y227000D02*
D03*
X2350000Y237000D02*
D03*
Y197000D02*
D03*
Y207000D02*
D03*
Y217000D02*
D03*
Y227000D02*
D03*
X2550000Y237000D02*
D03*
Y197000D02*
D03*
Y207000D02*
D03*
Y217000D02*
D03*
Y227000D02*
D03*
X2560000Y237000D02*
D03*
Y197000D02*
D03*
Y207000D02*
D03*
Y217000D02*
D03*
Y227000D02*
D03*
X2570000Y237000D02*
D03*
Y197000D02*
D03*
Y207000D02*
D03*
Y217000D02*
D03*
Y227000D02*
D03*
X2580000Y237000D02*
D03*
Y197000D02*
D03*
Y207000D02*
D03*
Y217000D02*
D03*
Y227000D02*
D03*
X2590000Y237000D02*
D03*
Y197000D02*
D03*
Y207000D02*
D03*
Y217000D02*
D03*
Y227000D02*
D03*
X2600000Y237000D02*
D03*
Y197000D02*
D03*
Y207000D02*
D03*
Y217000D02*
D03*
Y227000D02*
D03*
X2800000Y237000D02*
D03*
Y197000D02*
D03*
Y207000D02*
D03*
Y217000D02*
D03*
Y227000D02*
D03*
X2810000Y237000D02*
D03*
Y197000D02*
D03*
Y207000D02*
D03*
Y217000D02*
D03*
Y227000D02*
D03*
X2820000Y237000D02*
D03*
Y197000D02*
D03*
Y207000D02*
D03*
Y217000D02*
D03*
Y227000D02*
D03*
X2830000Y237000D02*
D03*
Y197000D02*
D03*
Y207000D02*
D03*
Y217000D02*
D03*
Y227000D02*
D03*
X2840000Y237000D02*
D03*
Y197000D02*
D03*
Y207000D02*
D03*
Y217000D02*
D03*
Y227000D02*
D03*
X2850000Y237000D02*
D03*
Y197000D02*
D03*
Y207000D02*
D03*
Y217000D02*
D03*
Y227000D02*
D03*
X3100000D02*
D03*
Y217000D02*
D03*
Y207000D02*
D03*
Y197000D02*
D03*
Y237000D02*
D03*
X3090000Y227000D02*
D03*
Y217000D02*
D03*
Y207000D02*
D03*
Y197000D02*
D03*
Y237000D02*
D03*
X3080000Y227000D02*
D03*
Y217000D02*
D03*
Y207000D02*
D03*
Y197000D02*
D03*
Y237000D02*
D03*
X3070000Y227000D02*
D03*
Y217000D02*
D03*
Y207000D02*
D03*
Y197000D02*
D03*
Y237000D02*
D03*
X3060000Y227000D02*
D03*
Y217000D02*
D03*
Y207000D02*
D03*
Y197000D02*
D03*
Y237000D02*
D03*
X3050000Y227000D02*
D03*
Y217000D02*
D03*
Y207000D02*
D03*
Y197000D02*
D03*
Y237000D02*
D03*
X409000Y795000D02*
D03*
X390000Y844000D02*
D03*
X391000Y872000D02*
D03*
X398000Y865000D02*
D03*
X391000Y858000D02*
D03*
X398000Y851000D02*
D03*
X389000Y1151000D02*
D03*
Y1138000D02*
D03*
X3217000Y316190D02*
D03*
X703000Y316000D02*
D03*
X597000D02*
D03*
X2133000Y1175000D02*
D03*
X3217000D02*
D03*
X2943000D02*
D03*
X2812000D02*
D03*
X2538000D02*
D03*
X2407000D02*
D03*
X3217000Y1143000D02*
D03*
X2943000Y1142000D02*
D03*
X2812000Y1143000D02*
D03*
X2538000D02*
D03*
X2407000Y1142000D02*
D03*
X2133000D02*
D03*
X2002000D02*
D03*
X1728000D02*
D03*
X1597000D02*
D03*
X1323000Y1139000D02*
D03*
X1192000D02*
D03*
X918000Y1133000D02*
D03*
X786000D02*
D03*
X513000Y1175000D02*
D03*
X786000D02*
D03*
X918000D02*
D03*
X1192000D02*
D03*
X1323000D02*
D03*
X1597000D02*
D03*
X1728000D02*
D03*
X2002000Y1176000D02*
D03*
X513000Y1127000D02*
D03*
X437000Y1004190D02*
D03*
X3080000Y1169000D02*
D03*
X437000Y936190D02*
D03*
Y957190D02*
D03*
Y1018190D02*
D03*
X2675000Y1163000D02*
D03*
X2270000Y1157000D02*
D03*
X1865000Y1151000D02*
D03*
X1460000Y1145000D02*
D03*
X1055000Y1139000D02*
D03*
X651000Y1133000D02*
D03*
X437000Y1087190D02*
D03*
X437000Y1109190D02*
D03*
Y1131190D02*
D03*
X344000Y1105190D02*
D03*
X402000Y900000D02*
D03*
X391000Y879123D02*
D03*
X398000Y894190D02*
D03*
X380000Y1000123D02*
D03*
D119*
X366000Y474000D02*
D03*
X250000Y558000D02*
D03*
Y579000D02*
D03*
X235000Y659000D02*
D03*
X282000Y688000D02*
D03*
X266000Y680000D02*
D03*
X249000Y673000D02*
D03*
X254000Y745000D02*
D03*
Y736000D02*
D03*
X312000Y485000D02*
D03*
X385000Y404000D02*
D03*
X454000Y486000D02*
D03*
X391000Y467000D02*
D03*
X360000Y483000D02*
D03*
X334000Y644000D02*
D03*
X357000Y749000D02*
D03*
X368000Y742000D02*
D03*
X356000D02*
D03*
Y715000D02*
D03*
X282000Y781000D02*
D03*
X299000D02*
D03*
X282000Y697000D02*
D03*
X289000Y549000D02*
D03*
X269000D02*
D03*
X272000Y697000D02*
D03*
X342000Y748000D02*
D03*
X349000Y492000D02*
D03*
X344000Y500000D02*
D03*
X393000Y507000D02*
D03*
X296000Y723000D02*
D03*
X309000Y670000D02*
D03*
X445000Y486000D02*
D03*
X436000Y663000D02*
D03*
X333000Y708000D02*
D03*
X317000Y708000D02*
D03*
X341000Y559000D02*
D03*
X396000Y589000D02*
D03*
Y604000D02*
D03*
X391000Y554190D02*
D03*
X361000Y701000D02*
D03*
X380000D02*
D03*
X366000Y688000D02*
D03*
Y676000D02*
D03*
X425000Y663000D02*
D03*
D120*
X423000Y386000D02*
D03*
X357000Y396000D02*
D03*
X420000Y401000D02*
D03*
X415000Y435000D02*
D03*
X357000Y445000D02*
D03*
X365000Y580000D02*
D03*
X280000Y635000D02*
D03*
X425000Y695000D02*
D03*
X465000Y414000D02*
D03*
X355000Y335000D02*
D03*
X436000Y526000D02*
D03*
X279000D02*
D03*
X436000Y623000D02*
D03*
M02*
