G04*
G04 #@! TF.GenerationSoftware,Altium Limited,Altium Designer,18.1.7 (191)*
G04*
G04 Layer_Physical_Order=2*
G04 Layer_Color=16711680*
%FSLAX44Y44*%
%MOMM*%
G71*
G01*
G75*
%ADD11C,0.2000*%
%ADD81C,0.4000*%
%ADD82C,0.3000*%
%ADD83C,0.5000*%
%ADD84C,1.0000*%
%ADD114R,4.0000X4.0000*%
%ADD115O,3.0000X2.0000*%
%ADD116R,2.0000X1.2000*%
%ADD117R,2.3000X1.2000*%
%ADD118C,0.4800*%
%ADD119C,0.5080*%
%ADD120C,1.2700*%
%ADD121R,29.5000X6.5000*%
%ADD122R,277.1000X11.5000*%
%ADD123R,117.9000X11.8000*%
G36*
X450000Y1173078D02*
X401000D01*
X399439Y1172768D01*
X398116Y1171884D01*
X397232Y1170561D01*
X396922Y1169000D01*
Y1085000D01*
X396922Y1085000D01*
X397232Y1083439D01*
X398116Y1082116D01*
X407922Y1072311D01*
Y1009000D01*
X407922Y1009000D01*
X408232Y1007439D01*
X409116Y1006116D01*
X418922Y996311D01*
Y950000D01*
X418922Y950000D01*
X419232Y948439D01*
X420116Y947116D01*
X433050Y934183D01*
X433828Y933018D01*
X435283Y932046D01*
X437000Y931704D01*
X438717Y932046D01*
X439671Y932683D01*
X440941Y932057D01*
Y909267D01*
X434923Y903249D01*
X405057D01*
X403717Y904145D01*
X402000Y904486D01*
X400283Y904145D01*
X398943Y903249D01*
X396190D01*
X395020Y903016D01*
X394027Y902353D01*
X394027Y902353D01*
X365837Y874163D01*
X365174Y873170D01*
X364941Y872000D01*
X364941Y872000D01*
Y866267D01*
X356635Y857961D01*
X356635Y857961D01*
X356635Y857960D01*
X334837Y836163D01*
X334174Y835171D01*
X333941Y834000D01*
X333941Y834000D01*
Y784000D01*
X333941Y784000D01*
X334174Y782830D01*
X334837Y781837D01*
X368937Y747738D01*
X368311Y746567D01*
X368000Y746629D01*
X366229Y746277D01*
X365495Y745786D01*
X364249Y746034D01*
X364163Y746163D01*
X361579Y748747D01*
X361629Y749000D01*
X361277Y750771D01*
X360273Y752273D01*
X358771Y753277D01*
X357000Y753629D01*
X355229Y753277D01*
X353727Y752273D01*
X352723Y750771D01*
X352371Y749000D01*
X352723Y747229D01*
X353628Y745875D01*
X352727Y745273D01*
X351723Y743771D01*
X351371Y742000D01*
X351723Y740229D01*
X352727Y738727D01*
X352941Y738584D01*
Y718416D01*
X352727Y718273D01*
X351723Y716771D01*
X351371Y715000D01*
X351723Y713229D01*
X352727Y711727D01*
X354229Y710723D01*
X356000Y710371D01*
X357771Y710723D01*
X359273Y711727D01*
X360277Y713229D01*
X360629Y715000D01*
X360423Y716034D01*
X361509Y717039D01*
X362000Y716941D01*
X436733D01*
X450000Y703674D01*
Y502059D01*
X396063D01*
X395677Y503329D01*
X396273Y503727D01*
X397277Y505229D01*
X397629Y507000D01*
X397277Y508771D01*
X396273Y510273D01*
X394771Y511277D01*
X393000Y511629D01*
X391229Y511277D01*
X389727Y510273D01*
X389584Y510059D01*
X334000D01*
X334000Y510059D01*
X332830Y509826D01*
X331837Y509163D01*
X331837Y509163D01*
X312253Y489579D01*
X312000Y489629D01*
X310229Y489277D01*
X308727Y488273D01*
X307723Y486771D01*
X307371Y485000D01*
X307723Y483228D01*
X308727Y481727D01*
X310229Y480723D01*
X312000Y480371D01*
X313771Y480723D01*
X315273Y481727D01*
X316277Y483228D01*
X316629Y485000D01*
X316579Y485253D01*
X335267Y503941D01*
X339646D01*
X340325Y502671D01*
X339723Y501771D01*
X339371Y500000D01*
X339723Y498229D01*
X340727Y496727D01*
X342229Y495723D01*
X344000Y495371D01*
X344305Y495432D01*
X345069Y494289D01*
X344723Y493771D01*
X344371Y492000D01*
X344723Y490229D01*
X345727Y488727D01*
X347229Y487723D01*
X349000Y487371D01*
X350771Y487723D01*
X352273Y488727D01*
X353277Y490229D01*
X353617Y491941D01*
X450000D01*
Y488975D01*
X448730Y488590D01*
X448273Y489273D01*
X446771Y490277D01*
X445000Y490629D01*
X443229Y490277D01*
X441727Y489273D01*
X441584Y489059D01*
X363000D01*
X363000Y489059D01*
X361829Y488826D01*
X360837Y488163D01*
X360837Y488163D01*
X360253Y487579D01*
X360000Y487629D01*
X358229Y487277D01*
X356727Y486273D01*
X355723Y484771D01*
X355371Y483000D01*
X355723Y481229D01*
X356727Y479727D01*
X358229Y478723D01*
X360000Y478371D01*
X361771Y478723D01*
X363273Y479727D01*
X364277Y481229D01*
X364617Y482941D01*
X441584D01*
X441727Y482727D01*
X443229Y481723D01*
X443540Y481661D01*
X443958Y480284D01*
X426837Y463163D01*
X426174Y462170D01*
X425941Y461000D01*
X425941Y461000D01*
Y429267D01*
X403733Y407059D01*
X388416D01*
X388273Y407273D01*
X386771Y408277D01*
X385000Y408629D01*
X383229Y408277D01*
X381727Y407273D01*
X380723Y405771D01*
X380371Y404000D01*
X380723Y402229D01*
X381652Y400839D01*
X381523Y400300D01*
X381174Y399569D01*
X364560D01*
X364294Y400211D01*
X362955Y401955D01*
X361211Y403294D01*
X359180Y404135D01*
X357000Y404422D01*
X354820Y404135D01*
X352789Y403294D01*
X351045Y401955D01*
X349706Y400211D01*
X348865Y398180D01*
X348578Y396000D01*
X348865Y393820D01*
X349706Y391789D01*
X351045Y390045D01*
X352789Y388706D01*
X354820Y387865D01*
X357000Y387578D01*
X359180Y387865D01*
X361211Y388706D01*
X362955Y390045D01*
X364294Y391789D01*
X364560Y392431D01*
X411000D01*
X412366Y392703D01*
X413523Y393477D01*
X414637Y394590D01*
X415789Y393706D01*
X417820Y392865D01*
X420000Y392578D01*
X422180Y392865D01*
X424211Y393706D01*
X425955Y395045D01*
X427294Y396789D01*
X427730Y397842D01*
X429000Y397590D01*
Y370000D01*
X334287D01*
X334172Y370172D01*
X332717Y371145D01*
X331000Y371486D01*
X329283Y371145D01*
X327828Y370172D01*
X327713Y370000D01*
X240000D01*
Y547712D01*
X240982Y548517D01*
X241000Y548514D01*
X242717Y548855D01*
X244172Y549828D01*
X244248Y549941D01*
X258000D01*
X258000Y549941D01*
X259171Y550174D01*
X260163Y550837D01*
X268163Y558837D01*
X268826Y559829D01*
X269059Y561000D01*
Y575752D01*
X269172Y575828D01*
X270145Y577283D01*
X270486Y579000D01*
X270145Y580717D01*
X269172Y582172D01*
X267717Y583145D01*
X266000Y583486D01*
X264283Y583145D01*
X262828Y582172D01*
X261855Y580717D01*
X261514Y579000D01*
X261855Y577283D01*
X262828Y575828D01*
X262941Y575752D01*
Y562267D01*
X256757Y556082D01*
X255488Y556119D01*
X254496Y557329D01*
X254629Y558000D01*
X254277Y559771D01*
X253273Y561273D01*
X253059Y561416D01*
Y575584D01*
X253273Y575727D01*
X254277Y577229D01*
X254629Y579000D01*
X254277Y580771D01*
X253273Y582273D01*
X251772Y583277D01*
X250000Y583629D01*
X248229Y583277D01*
X246727Y582273D01*
X245723Y580771D01*
X245371Y579000D01*
X245723Y577229D01*
X246727Y575727D01*
X246941Y575584D01*
Y561416D01*
X246727Y561273D01*
X245723Y559771D01*
X245371Y558000D01*
X245505Y557329D01*
X245168Y556918D01*
X244172Y556172D01*
X242717Y557145D01*
X241000Y557486D01*
X240982Y557483D01*
X240000Y558288D01*
Y655941D01*
X253000D01*
X253000Y655941D01*
X254171Y656174D01*
X255163Y656837D01*
X281747Y683421D01*
X282000Y683371D01*
X283771Y683723D01*
X285273Y684727D01*
X286277Y686229D01*
X286629Y688000D01*
X286277Y689771D01*
X285273Y691273D01*
X283771Y692277D01*
X282000Y692629D01*
X281329Y692495D01*
X280059Y693538D01*
Y723000D01*
X280059Y723000D01*
X279826Y724171D01*
X279163Y725163D01*
X279163Y725163D01*
X258663Y745663D01*
X258472Y745791D01*
X258277Y746771D01*
X257273Y748273D01*
X255771Y749277D01*
X254000Y749629D01*
X252229Y749277D01*
X250727Y748273D01*
X249723Y746771D01*
X249371Y745000D01*
X249723Y743229D01*
X250727Y741727D01*
X252229Y740723D01*
X254000Y740371D01*
X254426Y740456D01*
X254500Y740441D01*
X255233D01*
X273941Y721733D01*
Y702538D01*
X272671Y701495D01*
X272000Y701629D01*
X270229Y701277D01*
X268727Y700273D01*
X267723Y698771D01*
X267371Y697000D01*
X267421Y696747D01*
X248130Y677456D01*
X247229Y677277D01*
X245727Y676273D01*
X244723Y674771D01*
X244371Y673000D01*
X244723Y671229D01*
X245727Y669727D01*
X247229Y668723D01*
X249000Y668371D01*
X250771Y668723D01*
X252273Y669727D01*
X253277Y671229D01*
X253629Y673000D01*
X253413Y674087D01*
X260263Y680937D01*
X261433Y680311D01*
X261371Y680000D01*
X261723Y678229D01*
X262727Y676727D01*
X263853Y675975D01*
X264206Y674532D01*
X251733Y662059D01*
X240000D01*
Y1180000D01*
X450000D01*
Y1173078D01*
D02*
G37*
%LPC*%
G36*
X389000Y1155486D02*
X387283Y1155145D01*
X385828Y1154172D01*
X384855Y1152717D01*
X384514Y1151000D01*
X384855Y1149283D01*
X384922Y1149184D01*
Y1139816D01*
X384855Y1139717D01*
X384514Y1138000D01*
X384855Y1136283D01*
X385828Y1134828D01*
X387283Y1133855D01*
X389000Y1133514D01*
X390717Y1133855D01*
X392172Y1134828D01*
X393145Y1136283D01*
X393486Y1138000D01*
X393145Y1139717D01*
X393078Y1139816D01*
Y1149184D01*
X393145Y1149283D01*
X393486Y1151000D01*
X393145Y1152717D01*
X392172Y1154172D01*
X390717Y1155145D01*
X389000Y1155486D01*
D02*
G37*
G36*
X344000Y1097486D02*
X342283Y1097145D01*
X340828Y1096172D01*
X340752Y1096059D01*
X323248D01*
X323172Y1096172D01*
X321717Y1097145D01*
X320000Y1097486D01*
X318283Y1097145D01*
X316828Y1096172D01*
X315855Y1094717D01*
X315514Y1093000D01*
X315855Y1091283D01*
X316828Y1089828D01*
X318283Y1088855D01*
X320000Y1088514D01*
X321717Y1088855D01*
X323172Y1089828D01*
X323248Y1089941D01*
X340752D01*
X340828Y1089828D01*
X342283Y1088855D01*
X344000Y1088514D01*
X345717Y1088855D01*
X347172Y1089828D01*
X348145Y1091283D01*
X348486Y1093000D01*
X348145Y1094717D01*
X347172Y1096172D01*
X345717Y1097145D01*
X344000Y1097486D01*
D02*
G37*
G36*
X385000Y1040486D02*
X383283Y1040145D01*
X381828Y1039172D01*
X381752Y1039059D01*
X327248D01*
X327172Y1039172D01*
X325717Y1040145D01*
X324000Y1040486D01*
X322283Y1040145D01*
X320828Y1039172D01*
X319855Y1037717D01*
X319514Y1036000D01*
X319855Y1034283D01*
X320828Y1032828D01*
X322283Y1031855D01*
X324000Y1031514D01*
X325717Y1031855D01*
X327172Y1032828D01*
X327248Y1032941D01*
X381752D01*
X381828Y1032828D01*
X383283Y1031855D01*
X385000Y1031514D01*
X386717Y1031855D01*
X388172Y1032828D01*
X389145Y1034283D01*
X389486Y1036000D01*
X389145Y1037717D01*
X388172Y1039172D01*
X386717Y1040145D01*
X385000Y1040486D01*
D02*
G37*
G36*
X324000Y1014486D02*
X322283Y1014145D01*
X320828Y1013172D01*
X319855Y1011717D01*
X319514Y1010000D01*
X319855Y1008283D01*
X320828Y1006828D01*
X322283Y1005855D01*
X324000Y1005514D01*
X325717Y1005855D01*
X327172Y1006828D01*
X327248Y1006941D01*
X368733D01*
X375520Y1000154D01*
X375514Y1000123D01*
X375855Y998407D01*
X376828Y996951D01*
X378283Y995979D01*
X380000Y995637D01*
X381717Y995979D01*
X383172Y996951D01*
X384145Y998407D01*
X384486Y1000123D01*
X384145Y1001840D01*
X383172Y1003296D01*
X381717Y1004268D01*
X380000Y1004610D01*
X379763Y1004562D01*
X372163Y1012163D01*
X371171Y1012826D01*
X370000Y1013059D01*
X370000Y1013059D01*
X327248D01*
X327172Y1013172D01*
X325717Y1014145D01*
X324000Y1014486D01*
D02*
G37*
G36*
X346000Y1000486D02*
X344283Y1000145D01*
X342828Y999172D01*
X342752Y999059D01*
X320000D01*
X318829Y998826D01*
X317837Y998163D01*
X298837Y979163D01*
X298837Y979163D01*
X297837Y978163D01*
X297174Y977170D01*
X296941Y976000D01*
X296941Y976000D01*
Y956248D01*
X296828Y956172D01*
X295855Y954717D01*
X295514Y953000D01*
X295855Y951283D01*
X296828Y949828D01*
X298283Y948855D01*
X300000Y948514D01*
X301717Y948855D01*
X303172Y949828D01*
X304145Y951283D01*
X304486Y953000D01*
X304145Y954717D01*
X303172Y956172D01*
X303059Y956248D01*
Y974733D01*
X303163Y974837D01*
X303163Y974837D01*
X321267Y992941D01*
X342752D01*
X342828Y992828D01*
X344283Y991855D01*
X346000Y991514D01*
X347717Y991855D01*
X349172Y992828D01*
X350145Y994283D01*
X350486Y996000D01*
X350145Y997717D01*
X349172Y999172D01*
X347717Y1000145D01*
X346000Y1000486D01*
D02*
G37*
G36*
X254000Y979486D02*
X252283Y979145D01*
X250828Y978172D01*
X249855Y976717D01*
X249514Y975000D01*
X249855Y973283D01*
X250828Y971828D01*
X250941Y971752D01*
Y958248D01*
X250828Y958172D01*
X249855Y956717D01*
X249514Y955000D01*
X249855Y953283D01*
X250828Y951828D01*
X252283Y950855D01*
X254000Y950514D01*
X255717Y950855D01*
X257172Y951828D01*
X258145Y953283D01*
X258486Y955000D01*
X258145Y956717D01*
X257172Y958172D01*
X257059Y958248D01*
Y971752D01*
X257172Y971828D01*
X258145Y973283D01*
X258486Y975000D01*
X258145Y976717D01*
X257172Y978172D01*
X255717Y979145D01*
X254000Y979486D01*
D02*
G37*
G36*
X326000Y957486D02*
X324283Y957145D01*
X322828Y956172D01*
X321855Y954717D01*
X321514Y953000D01*
X321855Y951283D01*
X322828Y949828D01*
X322941Y949752D01*
Y920248D01*
X322828Y920172D01*
X321855Y918717D01*
X321514Y917000D01*
X321855Y915283D01*
X322828Y913828D01*
X324283Y912855D01*
X326000Y912514D01*
X327717Y912855D01*
X329172Y913828D01*
X330145Y915283D01*
X330486Y917000D01*
X330145Y918717D01*
X329172Y920172D01*
X329059Y920248D01*
Y949752D01*
X329172Y949828D01*
X330145Y951283D01*
X330486Y953000D01*
X330145Y954717D01*
X329172Y956172D01*
X327717Y957145D01*
X326000Y957486D01*
D02*
G37*
G36*
X342000Y752629D02*
X340229Y752277D01*
X338727Y751273D01*
X337723Y749771D01*
X337371Y748000D01*
X337723Y746229D01*
X338727Y744727D01*
X338941Y744584D01*
Y717267D01*
X334087Y712413D01*
X333000Y712629D01*
X331229Y712277D01*
X329727Y711273D01*
X328723Y709771D01*
X328371Y708000D01*
X328723Y706229D01*
X329727Y704727D01*
X331229Y703723D01*
X333000Y703371D01*
X334771Y703723D01*
X336273Y704727D01*
X337277Y706229D01*
X337456Y707130D01*
X344163Y713837D01*
X344163Y713837D01*
X344826Y714829D01*
X345059Y716000D01*
X345059Y716000D01*
Y744584D01*
X345273Y744727D01*
X346277Y746229D01*
X346629Y748000D01*
X346277Y749771D01*
X345273Y751273D01*
X343771Y752277D01*
X342000Y752629D01*
D02*
G37*
G36*
X305000Y862486D02*
X303283Y862145D01*
X301828Y861172D01*
X300855Y859717D01*
X300514Y858000D01*
X300855Y856283D01*
X301828Y854828D01*
X303283Y853855D01*
X305000Y853514D01*
X305134Y853540D01*
X315941Y842733D01*
Y825248D01*
X315828Y825172D01*
X314855Y823717D01*
X314514Y822000D01*
X314855Y820283D01*
X315828Y818828D01*
X316262Y818537D01*
X316254Y817907D01*
X316082Y817131D01*
X314756Y816244D01*
X313761Y814756D01*
X313412Y813000D01*
Y746900D01*
X292901Y726389D01*
X292727Y726273D01*
X291723Y724771D01*
X291371Y723000D01*
X291723Y721229D01*
X292727Y719727D01*
X292901Y719611D01*
X304412Y708100D01*
Y672000D01*
X304590Y671103D01*
X304371Y670000D01*
X304723Y668229D01*
X305727Y666727D01*
X307229Y665723D01*
X309000Y665371D01*
X309205Y665412D01*
X387099D01*
X427803Y624709D01*
X427578Y623000D01*
X427865Y620820D01*
X428706Y618789D01*
X430045Y617045D01*
X431412Y615996D01*
Y533004D01*
X430045Y531955D01*
X428996Y530588D01*
X286004D01*
X284955Y531955D01*
X283211Y533294D01*
X281180Y534135D01*
X279000Y534422D01*
X276820Y534135D01*
X274789Y533294D01*
X273045Y531955D01*
X271706Y530211D01*
X270865Y528180D01*
X270578Y526000D01*
X270865Y523820D01*
X271706Y521789D01*
X273045Y520045D01*
X274789Y518706D01*
X276820Y517865D01*
X279000Y517578D01*
X281180Y517865D01*
X283211Y518706D01*
X284955Y520045D01*
X286004Y521412D01*
X428996D01*
X430045Y520045D01*
X431789Y518706D01*
X433820Y517865D01*
X436000Y517578D01*
X438180Y517865D01*
X440211Y518706D01*
X441955Y520045D01*
X443294Y521789D01*
X444135Y523820D01*
X444422Y526000D01*
X444135Y528180D01*
X443294Y530211D01*
X441955Y531955D01*
X440588Y533004D01*
Y615996D01*
X441955Y617045D01*
X443294Y618789D01*
X444135Y620820D01*
X444422Y623000D01*
X444135Y625180D01*
X443294Y627211D01*
X441955Y628955D01*
X440211Y630294D01*
X438180Y631135D01*
X436000Y631422D01*
X434291Y631197D01*
X392244Y673244D01*
X390756Y674239D01*
X389000Y674588D01*
X371349D01*
X370543Y675570D01*
X370629Y676000D01*
X370277Y677771D01*
X369273Y679273D01*
X369059Y679416D01*
Y684584D01*
X369273Y684727D01*
X370277Y686229D01*
X370629Y688000D01*
X370277Y689771D01*
X369273Y691273D01*
X367771Y692277D01*
X366000Y692629D01*
X364229Y692277D01*
X362727Y691273D01*
X361723Y689771D01*
X361371Y688000D01*
X361723Y686229D01*
X362727Y684727D01*
X362941Y684584D01*
Y679416D01*
X362727Y679273D01*
X361723Y677771D01*
X361371Y676000D01*
X361457Y675570D01*
X360651Y674588D01*
X313588D01*
Y710000D01*
X313239Y711756D01*
X312244Y713244D01*
X302489Y723000D01*
X321244Y741756D01*
X322239Y743244D01*
X322588Y745000D01*
Y813000D01*
X322239Y814756D01*
X321244Y816244D01*
X320759Y816569D01*
X320741Y817117D01*
X320918Y817990D01*
X322172Y818828D01*
X323145Y820283D01*
X323486Y822000D01*
X323145Y823717D01*
X322172Y825172D01*
X322059Y825248D01*
Y844000D01*
X321826Y845171D01*
X321163Y846163D01*
X321163Y846163D01*
X309460Y857866D01*
X309486Y858000D01*
X309145Y859717D01*
X308172Y861172D01*
X306717Y862145D01*
X305000Y862486D01*
D02*
G37*
G36*
X308900Y512740D02*
X297630D01*
Y505470D01*
X308900D01*
Y512740D01*
D02*
G37*
G36*
X295090D02*
X283820D01*
Y505470D01*
X295090D01*
Y512740D01*
D02*
G37*
G36*
X271800D02*
X259030D01*
Y505470D01*
X271800D01*
Y512740D01*
D02*
G37*
G36*
X256490D02*
X243720D01*
Y505470D01*
X256490D01*
Y512740D01*
D02*
G37*
G36*
X308900Y502930D02*
X297630D01*
Y495660D01*
X308900D01*
Y502930D01*
D02*
G37*
G36*
X271800D02*
X259030D01*
Y495660D01*
X271800D01*
Y502930D01*
D02*
G37*
G36*
X256490D02*
X243720D01*
Y495660D01*
X256490D01*
Y502930D01*
D02*
G37*
G36*
X295090D02*
X283820D01*
Y495660D01*
X284603D01*
X285141Y494390D01*
X284245Y493049D01*
X283838Y491000D01*
X284245Y488952D01*
X285405Y487215D01*
X287142Y486055D01*
X289190Y485647D01*
X291239Y486055D01*
X292975Y487215D01*
X294136Y488952D01*
X294543Y491000D01*
X294136Y493049D01*
X293239Y494390D01*
X293778Y495660D01*
X295090D01*
Y502930D01*
D02*
G37*
G36*
X366000Y478629D02*
X364229Y478277D01*
X362727Y477273D01*
X361723Y475771D01*
X361371Y474000D01*
X361723Y472229D01*
X362727Y470727D01*
X364229Y469723D01*
X366000Y469371D01*
X367771Y469723D01*
X369273Y470727D01*
X369417Y470941D01*
X382733D01*
X386421Y467253D01*
X386371Y467000D01*
X386723Y465229D01*
X387727Y463727D01*
X389229Y462723D01*
X391000Y462371D01*
X392771Y462723D01*
X394273Y463727D01*
X395277Y465229D01*
X395629Y467000D01*
X395277Y468771D01*
X394273Y470273D01*
X392771Y471277D01*
X391000Y471629D01*
X390747Y471579D01*
X386163Y476163D01*
X385171Y476826D01*
X384000Y477059D01*
X384000Y477059D01*
X369417D01*
X369273Y477273D01*
X367771Y478277D01*
X366000Y478629D01*
D02*
G37*
G36*
X308900Y426240D02*
X297630D01*
Y418970D01*
X308900D01*
Y426240D01*
D02*
G37*
G36*
X289190Y436353D02*
X287142Y435946D01*
X285405Y434785D01*
X284245Y433049D01*
X283838Y431000D01*
X284245Y428952D01*
X285208Y427510D01*
X284753Y426240D01*
X283820D01*
Y418970D01*
X295090D01*
Y426240D01*
X293628D01*
X293172Y427510D01*
X294136Y428952D01*
X294543Y431000D01*
X294136Y433049D01*
X292975Y434785D01*
X291239Y435946D01*
X289190Y436353D01*
D02*
G37*
G36*
X271800Y426240D02*
X259030D01*
Y418970D01*
X271800D01*
Y426240D01*
D02*
G37*
G36*
X256490D02*
X243720D01*
Y418970D01*
X256490D01*
Y426240D01*
D02*
G37*
G36*
X308900Y416430D02*
X297630D01*
Y409160D01*
X308900D01*
Y416430D01*
D02*
G37*
G36*
X295090D02*
X283820D01*
Y409160D01*
X295090D01*
Y416430D01*
D02*
G37*
G36*
X271800D02*
X259030D01*
Y409160D01*
X271800D01*
Y416430D01*
D02*
G37*
G36*
X256490D02*
X243720D01*
Y409160D01*
X256490D01*
Y416430D01*
D02*
G37*
%LPD*%
D11*
X492000Y872000D02*
Y924000D01*
X429000Y809000D02*
X492000Y872000D01*
Y924000D02*
X646000Y1078000D01*
X379000Y701000D02*
X380000Y700000D01*
X434000Y365000D02*
Y456000D01*
X342500Y1105190D02*
X344000Y1106690D01*
X265000Y938000D02*
X266000Y937000D01*
X247000Y944000D02*
X254000Y937000D01*
X398000Y186000D02*
X535000D01*
X394000Y190000D02*
X398000Y186000D01*
X334000Y507000D02*
X393000D01*
X312000Y485000D02*
X334000Y507000D01*
X312000Y484000D02*
Y485000D01*
X366000Y474000D02*
X384000D01*
X391000Y467000D01*
X249000Y579000D02*
X250000Y578000D01*
X429000Y428000D02*
Y461000D01*
X405000Y404000D02*
X429000Y428000D01*
X385000Y404000D02*
X405000D01*
X250000Y558000D02*
Y578000D01*
X241000Y553000D02*
X258000D01*
X389000Y375000D02*
X409000D01*
X419000Y385000D01*
X384000Y356000D02*
Y357000D01*
X235000Y659000D02*
X253000D01*
X282000Y688000D01*
X280000Y635000D02*
X288000Y643000D01*
Y691000D01*
X282000Y697000D02*
X288000Y691000D01*
X269000Y549000D02*
X288000D01*
X249000Y674000D02*
X271500Y696500D01*
X249000Y673000D02*
Y674000D01*
X266000Y680000D02*
X277000Y691000D01*
X266000Y680000D02*
X266000D01*
X282000Y753000D02*
Y781000D01*
Y697000D02*
Y753000D01*
X252000D02*
X282000D01*
X248000Y749000D02*
X252000Y753000D01*
X248000Y742000D02*
Y749000D01*
Y742000D02*
X254000Y736000D01*
X277000Y691000D02*
Y723000D01*
X256500Y743500D02*
X277000Y723000D01*
X254500Y743500D02*
X256500D01*
X1276000Y187000D02*
X2163000D01*
X1272000Y183000D02*
X1276000Y187000D01*
X545000Y188000D02*
X785000D01*
Y187000D02*
Y188000D01*
X819000Y192000D02*
X820000Y191000D01*
X817000Y192000D02*
X819000D01*
X539000Y182000D02*
X545000Y188000D01*
X428000Y181000D02*
X429000Y182000D01*
X427000Y180000D02*
X428000Y181000D01*
X429000Y182000D02*
X539000D01*
X535000Y186000D02*
X541000Y192000D01*
X817000Y192000D01*
X331000Y367000D02*
X340000Y358000D01*
Y305000D02*
Y358000D01*
X474000Y723000D02*
X476000Y725000D01*
X468000D02*
X470000Y723000D01*
X429000Y461000D02*
X454000Y486000D01*
X281000Y1113000D02*
X290000Y1122000D01*
X281000Y1101000D02*
Y1113000D01*
X352000Y495000D02*
X459000D01*
X349000Y492000D02*
X352000Y495000D01*
X349000Y492000D02*
X349000D01*
X360000Y483000D02*
X363000Y486000D01*
X268000Y841000D02*
X272000Y837000D01*
X263000Y846000D02*
X268000D01*
X254000Y837000D02*
X263000Y846000D01*
X268000Y841000D02*
Y846000D01*
X474000Y490000D02*
Y723000D01*
X438000Y454000D02*
X474000Y490000D01*
X438000Y351000D02*
Y454000D01*
X470000Y492000D02*
Y723000D01*
X434000Y456000D02*
X470000Y492000D01*
X389000Y351000D02*
X438000D01*
X433000Y366000D02*
X434000Y365000D01*
X384000Y356000D02*
X389000Y351000D01*
X342000Y716000D02*
Y748000D01*
X334000Y708000D02*
X342000Y716000D01*
X333000Y708000D02*
X334000D01*
X324000Y701000D02*
X349000D01*
X317000Y708000D02*
X324000Y701000D01*
X307000Y1105000D02*
X342310D01*
X290000Y1122000D02*
X307000Y1105000D01*
X290000Y1122000D02*
Y1122000D01*
X254000Y837000D02*
Y937000D01*
Y938000D01*
X265000D01*
X266000Y937000D02*
X267000Y938000D01*
X290000D01*
X291000Y939000D01*
Y1043000D01*
Y927000D02*
Y939000D01*
X272000Y837000D02*
X312000Y877000D01*
X291000Y1043000D02*
X291000D01*
X281000Y1053000D02*
X291000Y1043000D01*
X281000Y1053000D02*
Y1053000D01*
X247000Y1029000D02*
X254000Y1036000D01*
X247000Y944000D02*
Y1029000D01*
X253000Y976000D02*
X254000Y975000D01*
Y955000D02*
Y975000D01*
X512000Y1127000D02*
X513000Y1126000D01*
X578000Y317000D02*
X597000D01*
X396190Y900190D02*
X436190D01*
X388000Y733000D02*
X488000D01*
X337000Y784000D02*
X388000Y733000D01*
X337000Y784000D02*
Y834000D01*
X390000Y737000D02*
X459000D01*
X341000Y786000D02*
X390000Y737000D01*
X341000Y786000D02*
Y832000D01*
X392000Y741000D02*
X463000D01*
X345000Y788000D02*
X392000Y741000D01*
X345000Y788000D02*
Y830000D01*
X394000Y745000D02*
X467000D01*
X349000Y790000D02*
X394000Y745000D01*
X349000Y790000D02*
Y828000D01*
X395000Y749000D02*
X471000D01*
X353000Y791000D02*
X395000Y749000D01*
X353000Y791000D02*
Y826000D01*
X396000Y753000D02*
X475000D01*
X357000Y792000D02*
X396000Y753000D01*
X357000Y792000D02*
Y824000D01*
X397000Y757000D02*
X479000D01*
X361000Y793000D02*
X397000Y757000D01*
X361000Y793000D02*
Y822000D01*
X325500Y953500D02*
X326000Y954000D01*
X325000Y953000D02*
X326000Y952000D01*
Y917000D02*
Y952000D01*
X312000Y906000D02*
X327000D01*
X312000Y877000D02*
Y906000D01*
X312000D01*
X291000Y927000D02*
X312000Y906000D01*
X2315000Y353000D02*
X2317000Y351000D01*
X2224000Y349000D02*
X2225000Y348000D01*
X594000Y349000D02*
X2224000D01*
X398000Y761000D02*
X483000D01*
X365000Y794000D02*
X398000Y761000D01*
X365000Y794000D02*
Y820000D01*
X399000Y765000D02*
X487000D01*
X369000Y795000D02*
X399000Y765000D01*
X369000Y795000D02*
Y818000D01*
X400000Y769000D02*
X491000D01*
X373000Y796000D02*
X400000Y769000D01*
X373000Y796000D02*
Y816000D01*
X401000Y773000D02*
X528000D01*
X377000Y797000D02*
X401000Y773000D01*
X377000Y797000D02*
Y814000D01*
X402000Y777000D02*
X532000D01*
X381000Y798000D02*
X402000Y777000D01*
X381000Y798000D02*
Y812000D01*
X385000Y800000D02*
X404000Y781000D01*
X385000Y800000D02*
Y808000D01*
X404000Y781000D02*
X536000D01*
X362000Y720000D02*
Y744000D01*
X357000Y749000D02*
X362000Y744000D01*
X368000Y725000D02*
X439000D01*
X368000D02*
Y742000D01*
X362000Y720000D02*
X438000D01*
X356000Y715000D02*
Y742000D01*
Y714000D02*
Y715000D01*
X349000Y701000D02*
Y758000D01*
X326000Y781000D02*
X349000Y758000D01*
X326000Y781000D02*
Y863000D01*
X312000Y877000D02*
X326000Y863000D01*
X312000Y877000D02*
X312000D01*
X390000Y872000D02*
X391000D01*
X380500Y862500D02*
X390000Y872000D01*
X380500Y859500D02*
Y862500D01*
X358798Y855798D02*
X358798D01*
X337000Y834000D02*
X358798Y855798D01*
X368000Y872000D02*
X396190Y900190D01*
X368000Y865000D02*
Y872000D01*
X358798Y855798D02*
X368000Y865000D01*
X361048Y852048D02*
Y852048D01*
X341000Y832000D02*
X361048Y852048D01*
X372000Y869000D02*
X397190Y894190D01*
X372000Y863000D02*
Y869000D01*
X361048Y852048D02*
X372000Y863000D01*
X624000Y1122000D02*
X786000D01*
X376000Y865000D02*
X390123Y879123D01*
X376000Y861000D02*
Y865000D01*
X345000Y830000D02*
X376000Y861000D01*
X349000Y828000D02*
X380500Y859500D01*
X385000Y858000D02*
Y860000D01*
X353000Y826000D02*
X385000Y858000D01*
X357000Y824000D02*
X391000Y858000D01*
X385000Y860000D02*
X390000Y865000D01*
X398000D01*
X390000Y851000D02*
X398000D01*
X361000Y822000D02*
X390000Y851000D01*
X319000Y822000D02*
Y844000D01*
X282000Y781000D02*
Y782000D01*
X305000Y858000D02*
X319000Y844000D01*
X425000Y663000D02*
Y664000D01*
X388000Y701000D02*
X425000Y664000D01*
X380000Y701000D02*
X388000D01*
X266000Y561000D02*
Y579000D01*
X258000Y553000D02*
X266000Y561000D01*
X349000Y701000D02*
X361000D01*
X345000Y499000D02*
X455000D01*
X344000Y500000D02*
X345000Y499000D01*
X281000Y1074000D02*
Y1101000D01*
Y1053000D02*
Y1074000D01*
X288000D01*
X500000Y920000D02*
X650000Y1070000D01*
X500000Y920000D02*
X500000Y920000D01*
Y866000D02*
Y920000D01*
X650000Y1070000D02*
X3217000D01*
X496000Y922000D02*
X648000Y1074000D01*
X3217000D01*
X496000Y869000D02*
Y922000D01*
X429190Y795190D02*
X500000Y866000D01*
X3217000Y1074000D02*
Y1142000D01*
X550000Y416000D02*
X3032000D01*
X646000Y1078000D02*
X2943000D01*
Y1142000D01*
X488000Y875000D02*
Y926000D01*
X644000Y1082000D01*
X2812000D01*
X642000Y1086000D02*
X2538000D01*
X484000Y928000D02*
X642000Y1086000D01*
X484000Y878000D02*
Y928000D01*
X2538000Y1086000D02*
Y1143000D01*
X596000Y353000D02*
X2315000D01*
X480000Y881000D02*
Y930000D01*
X640000Y1090000D01*
X2407000D01*
X476000Y884000D02*
Y932000D01*
X638000Y1094000D01*
X2133000D01*
X472000Y899000D02*
Y934000D01*
X636000Y1098000D01*
X2002000D01*
X464000Y893000D02*
Y938000D01*
X634000Y1102000D02*
X1728000D01*
X468000Y936000D02*
X634000Y1102000D01*
X590000Y341000D02*
X1812000D01*
X468000Y890000D02*
Y936000D01*
X464000Y938000D02*
X632000Y1106000D01*
X1597000D01*
X460000Y940000D02*
X630000Y1110000D01*
X460000Y896000D02*
Y940000D01*
X630000Y1110000D02*
X1323000Y1110000D01*
X628000Y1114000D02*
X1192000D01*
X456000Y899000D02*
Y942000D01*
X628000Y1114000D01*
X456000Y942000D02*
X456000Y942000D01*
X456000Y929000D02*
Y942000D01*
X452000Y944000D02*
X626000Y1118000D01*
X452000Y902000D02*
Y944000D01*
X626000Y1118000D02*
X918000D01*
X448000Y905000D02*
Y946000D01*
X624000Y1122000D01*
X786000D02*
Y1133000D01*
X552000Y420000D02*
X3217000Y420000D01*
X540000Y785000D02*
X540000Y432000D01*
X552000Y420000D02*
X555000D01*
X540000Y432000D02*
X552000Y420000D01*
X536000Y781000D02*
X536000Y430000D01*
X550000Y416000D01*
X549000Y412000D02*
X2721000Y412000D01*
Y358000D02*
Y412000D01*
X549000Y412000D02*
X551000D01*
X532000Y429000D02*
X549000Y412000D01*
X532000Y777000D02*
X532000Y429000D01*
X598000Y357000D02*
X2627000D01*
X597000D02*
X598000D01*
X528000Y427000D02*
X598000Y357000D01*
X528000Y773000D02*
X528000Y427000D01*
X524000Y425000D02*
X596000Y353000D01*
X524000Y769000D02*
X524000Y425000D01*
X520000Y423000D02*
Y765000D01*
Y423000D02*
X594000Y349000D01*
X516000Y421000D02*
Y761000D01*
Y421000D02*
X592000Y345000D01*
X1918000D01*
X512000Y757000D02*
X512000Y419000D01*
X590000Y341000D01*
X508000Y417000D02*
Y753000D01*
Y417000D02*
X588000Y337000D01*
X1513000D01*
X504000Y415000D02*
Y749000D01*
Y415000D02*
X586000Y333000D01*
X1407000D01*
X584000Y329000D02*
X1108000D01*
X583000D02*
X584000D01*
X500000Y413000D02*
X584000Y329000D01*
X500000Y745000D02*
X500000Y413000D01*
X1513000Y334000D02*
Y337000D01*
X496000Y411000D02*
Y741000D01*
Y411000D02*
X582000Y325000D01*
X1002000D01*
X492000Y409000D02*
Y737000D01*
Y409000D02*
X580000Y321000D01*
X703000D01*
X488000Y407000D02*
X578000Y317000D01*
X488000Y407000D02*
Y733000D01*
X2224000Y347000D02*
X2225000Y348000D01*
X2316000Y351000D02*
X2317000D01*
X1513000Y321000D02*
Y334000D01*
X1513000Y334000D01*
X1407000Y321000D02*
Y333000D01*
X1108000Y321000D02*
Y329000D01*
X1108000Y329000D01*
X1002000Y321000D02*
Y325000D01*
X1002000Y325000D01*
X3032000Y363000D02*
Y416000D01*
X3217000Y317000D02*
Y420000D01*
X291000Y1043000D02*
X335000D01*
X265000Y1053000D02*
X281000D01*
X344000Y1093000D02*
X345000D01*
X320000D02*
X344000D01*
X342310Y1105000D02*
X343810D01*
X324000Y1036000D02*
X384877D01*
X336000Y947000D02*
Y963000D01*
Y915000D02*
Y947000D01*
X301000Y977000D02*
Y977000D01*
X300000Y976000D02*
X301000Y977000D01*
X300000Y953000D02*
Y976000D01*
X327000Y906000D02*
X336000Y915000D01*
X325000Y953000D02*
X325500Y953500D01*
X301000Y977000D02*
X320000Y996000D01*
X438000Y720000D02*
X455000Y703000D01*
X439000Y725000D02*
X459000Y705000D01*
X320000Y996000D02*
X346000D01*
X363000Y486000D02*
X445000D01*
X459000Y495000D02*
Y705000D01*
X455000Y499000D02*
Y703000D01*
X342310Y1105000D02*
X342500Y1105190D01*
X344000D01*
X425000Y663000D02*
X436000D01*
X378810Y1001190D02*
X378933D01*
X370000Y1010000D02*
X378810Y1001190D01*
X324000Y1010000D02*
X370000D01*
X336000Y963000D02*
X336000D01*
X326000D02*
X336000D01*
X336000D02*
X341000Y968000D01*
X1812000Y321000D02*
Y341000D01*
X361000Y701000D02*
X379000D01*
X361000Y700000D02*
Y701000D01*
X366000Y676000D02*
Y688000D01*
X459000Y737000D02*
X492000D01*
X463000Y741000D02*
X496000D01*
X467000Y745000D02*
X500000Y745000D01*
X471000Y749000D02*
X504000D01*
X475000Y753000D02*
X508000D01*
X479000Y757000D02*
X512000D01*
X483000Y761000D02*
X516000D01*
X487000Y765000D02*
X520000D01*
X491000Y769000D02*
X524000Y769000D01*
X528000Y357000D02*
X528000D01*
X411000Y785000D02*
X540000D01*
X472000Y899000D02*
X472000Y899000D01*
X429000Y844000D02*
X472000Y887000D01*
Y899000D01*
Y907000D01*
X456000Y899000D02*
Y899000D01*
X444000Y908000D02*
Y1127000D01*
Y908000D02*
Y908000D01*
X403000Y793000D02*
X411000Y785000D01*
X403000Y793000D02*
Y802000D01*
X429000D01*
X390000D02*
X403000D01*
X429000D02*
X496000Y869000D01*
X2914000Y187000D02*
X3164000D01*
X2664000D02*
X2914000D01*
X2414000D02*
X2664000D01*
X2163000D02*
X2414000D01*
X409000Y795000D02*
X429000D01*
X397190Y894190D02*
X398000D01*
X390123Y879123D02*
X391000D01*
X389000Y844000D02*
X390000D01*
X429000D01*
X365000Y820000D02*
X389000Y844000D01*
X369000Y818000D02*
X388000Y837000D01*
X398000D01*
X373000Y816000D02*
X387000Y830000D01*
X390000D01*
X377000Y814000D02*
X386000Y823000D01*
X398000D01*
X381000Y812000D02*
X385000Y816000D01*
X390000D01*
X385000Y808000D02*
X386000Y809000D01*
X390000Y830000D02*
X429000D01*
X390000Y816000D02*
X429000D01*
X386000Y809000D02*
X429000D01*
X386000D02*
Y810000D01*
X390000Y802000D02*
X391000Y803000D01*
X436190Y900190D02*
X444000Y908000D01*
X437190Y894190D02*
X448000Y905000D01*
X398000Y894190D02*
X437190D01*
X429123Y879123D02*
X452000Y902000D01*
X411000Y879123D02*
X429123D01*
X429000Y872000D02*
X456000Y899000D01*
X391000Y872000D02*
X429000D01*
X429000Y865000D02*
X460000Y896000D01*
X398000Y865000D02*
X429000D01*
X429000Y858000D02*
X464000Y893000D01*
X391000Y858000D02*
X429000D01*
X429000Y851000D02*
X468000Y890000D01*
X429000Y837000D02*
X476000Y884000D01*
X398000Y837000D02*
X429000D01*
Y830000D02*
X480000Y881000D01*
X429000Y823000D02*
X484000Y878000D01*
X398000Y823000D02*
X429000D01*
X429000Y816000D02*
X488000Y875000D01*
X398000Y851000D02*
X429000D01*
X1513000Y334000D02*
X1513000Y334000D01*
X703000Y316000D02*
Y321000D01*
X1918000D02*
Y345000D01*
X2538000Y1143000D02*
Y1144000D01*
X2812000Y1082000D02*
Y1143000D01*
X2407000Y1090000D02*
Y1142000D01*
X2133000Y1094000D02*
Y1141000D01*
X2002000Y1098000D02*
Y1142000D01*
X1728000Y1102000D02*
Y1142000D01*
X1597000Y1106000D02*
Y1142000D01*
X1323000Y1110000D02*
Y1139000D01*
X1192000Y1114000D02*
Y1139000D01*
X918000Y1118000D02*
Y1133000D01*
X2407000Y1142000D02*
Y1143000D01*
X786000Y1133000D02*
Y1134000D01*
X391000Y879123D02*
X411000D01*
X444000Y1127000D02*
X512000D01*
X378933Y1001190D02*
X380000Y1000123D01*
X411000Y879123D02*
Y879190D01*
X409000D02*
X411000D01*
X299190Y422000D02*
X300160Y422970D01*
Y503970D02*
X300190Y504000D01*
X290890Y504300D02*
X291190Y504000D01*
X259190Y418000D02*
X259390Y417800D01*
D81*
X504000Y1097000D02*
X545000Y1056000D01*
X504000Y1097000D02*
Y1116000D01*
X1728000Y1175000D02*
X2133000D01*
X580000Y472000D02*
X596000D01*
X2622000Y525000D02*
X2623000Y526000D01*
X558000Y444000D02*
X2473000D01*
X558000D02*
Y803000D01*
X552000Y797000D02*
X552000Y438000D01*
X548000Y432000D02*
X3176000D01*
X546000Y434000D02*
X548000Y432000D01*
X546000Y434000D02*
Y791000D01*
X510000Y864000D02*
Y917000D01*
X486000Y840000D02*
X510000Y864000D01*
X486000Y840000D02*
X486000D01*
X552000Y438000D02*
X2878000D01*
X576000Y513000D02*
X1267000D01*
X1108000Y526000D02*
X1407000D01*
X1002000D02*
X1108000D01*
X584000Y519000D02*
X873000D01*
X583000Y520000D02*
X584000Y519000D01*
X582000D02*
X583000Y520000D01*
X1918000Y526000D02*
X2213190D01*
X1812000D02*
X1918000D01*
X1513000D02*
X1812000D01*
X1407000D02*
X1513000D01*
X564000Y501000D02*
X2077000D01*
X3025000Y526000D02*
X3217000D01*
X2728000D02*
X3025000D01*
X2623000D02*
X2728000D01*
X2621000Y526000D02*
X2622000Y525000D01*
X2217000Y526000D02*
X2320000D01*
X2213190D02*
X2217000D01*
X2320000D02*
X2324000Y526000D01*
X2213190D02*
X2213190Y526000D01*
X481000Y472000D02*
Y700000D01*
X570000Y507000D02*
X1671000D01*
X564000Y501000D02*
Y809000D01*
X570000Y815000D02*
X570000Y507000D01*
X576000Y821000D02*
X576000Y513000D01*
X582000Y827000D02*
X582000Y519000D01*
X588000Y526000D02*
X588000Y833000D01*
X588000Y833000D02*
X588000Y833000D01*
X703000Y526000D02*
X1002000D01*
X699000D02*
X703000D01*
X698905Y525905D02*
X699000Y526000D01*
X698810D02*
X698905Y525905D01*
X596000Y526000D02*
X698810D01*
X2324000D02*
X2621000D01*
X437000Y791000D02*
X546000D01*
X443000Y797000D02*
X552000D01*
X449000Y803000D02*
X558000D01*
X455000Y809000D02*
X564000D01*
X461000Y815000D02*
X570000D01*
X543000Y821000D02*
X576000Y821000D01*
X473000Y827000D02*
X582000D01*
X556000Y833000D02*
X588000D01*
X479000D02*
X556000D01*
X467000Y821000D02*
X543000D01*
X423000Y950000D02*
X437000Y936000D01*
X401000Y1085000D02*
X412000Y1074000D01*
X401000Y1085000D02*
Y1169000D01*
X3080000D01*
X430000Y964000D02*
X437000Y957000D01*
X407000Y1088000D02*
X418000Y1077000D01*
X407000Y1088000D02*
Y1163000D01*
X2675000D01*
X424000Y1017000D02*
X437000Y1004000D01*
X413000Y1092000D02*
X424000Y1081000D01*
X413000Y1092000D02*
Y1157000D01*
X424000Y1017000D02*
Y1081000D01*
X413000Y1157000D02*
X2270000D01*
X430000Y1025000D02*
X437000Y1018000D01*
X430000Y1025000D02*
Y1085000D01*
X419000Y1096000D02*
X430000Y1085000D01*
X419000Y1096000D02*
X419000Y1096000D01*
Y1151000D02*
X1865000D01*
X419000Y1096000D02*
Y1151000D01*
X425000Y1099000D02*
Y1145000D01*
Y1099000D02*
X425095Y1099095D01*
X437000Y1087190D01*
X425000Y1145000D02*
X1460000D01*
X431000Y1115190D02*
Y1139000D01*
Y1115190D02*
X437000Y1109190D01*
X431000Y1139000D02*
X1055000D01*
X437000Y1131000D02*
X439000Y1133000D01*
X651000Y1133000D01*
X2133000Y1175000D02*
X2407000D01*
X412000Y1009000D02*
Y1074000D01*
X418000Y1013000D02*
Y1077000D01*
X412000Y1009000D02*
X423000Y998000D01*
X418000Y1013000D02*
X430000Y1001000D01*
X423000Y950000D02*
Y998000D01*
X430000Y964000D02*
Y1001000D01*
X389000Y1138000D02*
Y1151000D01*
X2943000Y1175000D02*
X3217000D01*
X2812000D02*
X2943000D01*
X2538000D02*
X2812000D01*
X2407000D02*
X2538000D01*
X1597000D02*
X1728000D01*
X1323000D02*
X1597000D01*
X1192000D02*
X1323000D01*
X918000D02*
X1192000D01*
X786000D02*
X918000D01*
X513000D02*
X786000D01*
D82*
X415000Y400000D02*
X418000D01*
X411000Y396000D02*
X415000Y400000D01*
X357000Y396000D02*
X411000D01*
D83*
X396000Y554190D02*
Y589000D01*
X341000Y554000D02*
X391000D01*
X406000Y191000D02*
X531000D01*
X435000Y526000D02*
X436000Y525000D01*
X296000Y723000D02*
X309000Y710000D01*
Y672000D02*
Y710000D01*
X318000Y745000D02*
Y813000D01*
X296000Y723000D02*
X318000Y745000D01*
X296000Y723000D02*
Y723000D01*
X389000Y670000D02*
X436000Y623000D01*
X309000Y670000D02*
X389000D01*
X391000Y554190D02*
X396000D01*
X341000Y554000D02*
Y559000D01*
X436000Y526000D02*
Y622000D01*
Y525000D02*
Y526000D01*
X279000D02*
X435000D01*
X396000Y589000D02*
Y604000D01*
D84*
X250000Y400000D02*
X250000Y400000D01*
X250000Y332500D02*
Y390000D01*
Y197500D02*
Y332500D01*
X452000Y335000D02*
Y401000D01*
X465000Y414000D01*
X355000Y335000D02*
X452000D01*
D114*
X310000Y301000D02*
D03*
Y229000D02*
D03*
D115*
X250000Y332500D02*
D03*
Y197500D02*
D03*
D116*
X296360Y504200D02*
D03*
Y417700D02*
D03*
D117*
X257760Y504200D02*
D03*
Y417700D02*
D03*
D118*
X406000Y191000D02*
D03*
X394000Y190000D02*
D03*
X241000Y553000D02*
D03*
X389000Y375000D02*
D03*
X384000Y356000D02*
D03*
X1914000Y187000D02*
D03*
X1664000D02*
D03*
X1414000D02*
D03*
X1350000Y229000D02*
D03*
Y219000D02*
D03*
Y209000D02*
D03*
Y199000D02*
D03*
Y239000D02*
D03*
X1340000Y229000D02*
D03*
Y219000D02*
D03*
Y209000D02*
D03*
Y199000D02*
D03*
Y239000D02*
D03*
X1330000Y229000D02*
D03*
Y219000D02*
D03*
Y209000D02*
D03*
Y199000D02*
D03*
Y239000D02*
D03*
X1320000Y229000D02*
D03*
Y219000D02*
D03*
Y209000D02*
D03*
Y199000D02*
D03*
Y239000D02*
D03*
X1310000Y229000D02*
D03*
Y219000D02*
D03*
Y209000D02*
D03*
Y199000D02*
D03*
Y239000D02*
D03*
X1300000Y229000D02*
D03*
Y219000D02*
D03*
Y209000D02*
D03*
Y199000D02*
D03*
Y239000D02*
D03*
X1550000Y238000D02*
D03*
Y198000D02*
D03*
Y208000D02*
D03*
Y218000D02*
D03*
Y228000D02*
D03*
X1560000Y238000D02*
D03*
Y198000D02*
D03*
Y208000D02*
D03*
Y218000D02*
D03*
Y228000D02*
D03*
X1570000Y238000D02*
D03*
Y198000D02*
D03*
Y208000D02*
D03*
Y218000D02*
D03*
Y228000D02*
D03*
X1580000Y238000D02*
D03*
Y198000D02*
D03*
Y208000D02*
D03*
Y218000D02*
D03*
Y228000D02*
D03*
X1590000Y238000D02*
D03*
Y198000D02*
D03*
Y208000D02*
D03*
Y218000D02*
D03*
Y228000D02*
D03*
X1600000Y238000D02*
D03*
Y198000D02*
D03*
Y208000D02*
D03*
Y218000D02*
D03*
Y228000D02*
D03*
X1850000D02*
D03*
Y218000D02*
D03*
Y208000D02*
D03*
Y198000D02*
D03*
Y238000D02*
D03*
X1840000Y228000D02*
D03*
Y218000D02*
D03*
Y208000D02*
D03*
Y198000D02*
D03*
Y238000D02*
D03*
X1830000Y228000D02*
D03*
Y218000D02*
D03*
Y208000D02*
D03*
Y198000D02*
D03*
Y238000D02*
D03*
X1820000Y228000D02*
D03*
Y218000D02*
D03*
Y208000D02*
D03*
Y198000D02*
D03*
Y238000D02*
D03*
X1810000Y228000D02*
D03*
Y218000D02*
D03*
Y208000D02*
D03*
Y198000D02*
D03*
Y238000D02*
D03*
X1800000Y228000D02*
D03*
Y218000D02*
D03*
Y208000D02*
D03*
Y198000D02*
D03*
Y238000D02*
D03*
X785000Y187000D02*
D03*
X820000Y191000D02*
D03*
X428000Y181000D02*
D03*
X531000Y191000D02*
D03*
X476000Y725000D02*
D03*
X468000D02*
D03*
X268000Y846000D02*
D03*
X481000Y472000D02*
D03*
X433000Y366000D02*
D03*
X331000Y367000D02*
D03*
X504000Y1116000D02*
D03*
X254000Y938000D02*
D03*
X267000D02*
D03*
X254000Y837000D02*
D03*
Y955000D02*
D03*
X580000Y472000D02*
D03*
X596000Y472000D02*
D03*
X326000Y917000D02*
D03*
X398000Y837000D02*
D03*
X390000Y830000D02*
D03*
X398000Y823000D02*
D03*
X390000Y816000D02*
D03*
X386000Y809000D02*
D03*
X390000Y802000D02*
D03*
X319000Y822000D02*
D03*
X318000Y813000D02*
D03*
X305000Y858000D02*
D03*
X545000Y1056000D02*
D03*
X510000Y917000D02*
D03*
X266000Y579000D02*
D03*
X481000Y700000D02*
D03*
X254000Y975000D02*
D03*
X3176000Y432000D02*
D03*
X2878000Y438000D02*
D03*
X2224000Y347000D02*
D03*
X2316000Y351000D02*
D03*
X2721000Y358000D02*
D03*
X2629000Y357000D02*
D03*
X1267000Y513000D02*
D03*
X2473000Y444000D02*
D03*
X1918000Y321000D02*
D03*
X1812000D02*
D03*
X1513000D02*
D03*
X1407000D02*
D03*
X1108000D02*
D03*
X1002000D02*
D03*
X873000Y519000D02*
D03*
X588000Y526000D02*
D03*
X2077000Y501000D02*
D03*
X3217000Y526000D02*
D03*
X3025000D02*
D03*
X2728000D02*
D03*
X2217000D02*
D03*
X1671000Y507000D02*
D03*
X596000Y526000D02*
D03*
X1002000D02*
D03*
X703000D02*
D03*
X2324000D02*
D03*
X2621000D02*
D03*
X1918000D02*
D03*
X1812000D02*
D03*
X1513000D02*
D03*
X1407000D02*
D03*
X1108000D02*
D03*
X288000Y1074000D02*
D03*
X344000Y1093000D02*
D03*
X320000D02*
D03*
X265000Y1053000D02*
D03*
X335000Y1043000D02*
D03*
X290000Y1122000D02*
D03*
X324000Y1036000D02*
D03*
X336000Y947000D02*
D03*
X281000Y1101000D02*
D03*
X300000Y953000D02*
D03*
X254000Y1036000D02*
D03*
X324000Y1010000D02*
D03*
X346000Y996000D02*
D03*
X385000Y1036000D02*
D03*
X341000Y968000D02*
D03*
X326000Y963000D02*
D03*
Y953000D02*
D03*
X437000Y791000D02*
D03*
X443000Y797000D02*
D03*
X449000Y803000D02*
D03*
X455000Y809000D02*
D03*
X461000Y815000D02*
D03*
X467000Y821000D02*
D03*
X473000Y827000D02*
D03*
X479000Y833000D02*
D03*
X486000Y840000D02*
D03*
X3032000Y363000D02*
D03*
X1272000Y184000D02*
D03*
X3164000Y187000D02*
D03*
X2914000D02*
D03*
X2163000D02*
D03*
X2664000D02*
D03*
X2414000D02*
D03*
X2050000Y237000D02*
D03*
Y197000D02*
D03*
Y207000D02*
D03*
Y217000D02*
D03*
Y227000D02*
D03*
X2060000Y237000D02*
D03*
Y197000D02*
D03*
Y207000D02*
D03*
Y217000D02*
D03*
Y227000D02*
D03*
X2070000Y237000D02*
D03*
Y197000D02*
D03*
Y207000D02*
D03*
Y217000D02*
D03*
Y227000D02*
D03*
X2080000Y237000D02*
D03*
Y197000D02*
D03*
Y207000D02*
D03*
Y217000D02*
D03*
Y227000D02*
D03*
X2090000Y237000D02*
D03*
Y197000D02*
D03*
Y207000D02*
D03*
Y217000D02*
D03*
Y227000D02*
D03*
X2100000Y237000D02*
D03*
Y197000D02*
D03*
Y207000D02*
D03*
Y217000D02*
D03*
Y227000D02*
D03*
X2300000Y237000D02*
D03*
Y197000D02*
D03*
Y207000D02*
D03*
Y217000D02*
D03*
Y227000D02*
D03*
X2310000Y237000D02*
D03*
Y197000D02*
D03*
Y207000D02*
D03*
Y217000D02*
D03*
Y227000D02*
D03*
X2320000Y237000D02*
D03*
Y197000D02*
D03*
Y207000D02*
D03*
Y217000D02*
D03*
Y227000D02*
D03*
X2330000Y237000D02*
D03*
Y197000D02*
D03*
Y207000D02*
D03*
Y217000D02*
D03*
Y227000D02*
D03*
X2340000Y237000D02*
D03*
Y197000D02*
D03*
Y207000D02*
D03*
Y217000D02*
D03*
Y227000D02*
D03*
X2350000Y237000D02*
D03*
Y197000D02*
D03*
Y207000D02*
D03*
Y217000D02*
D03*
Y227000D02*
D03*
X2550000Y237000D02*
D03*
Y197000D02*
D03*
Y207000D02*
D03*
Y217000D02*
D03*
Y227000D02*
D03*
X2560000Y237000D02*
D03*
Y197000D02*
D03*
Y207000D02*
D03*
Y217000D02*
D03*
Y227000D02*
D03*
X2570000Y237000D02*
D03*
Y197000D02*
D03*
Y207000D02*
D03*
Y217000D02*
D03*
Y227000D02*
D03*
X2580000Y237000D02*
D03*
Y197000D02*
D03*
Y207000D02*
D03*
Y217000D02*
D03*
Y227000D02*
D03*
X2590000Y237000D02*
D03*
Y197000D02*
D03*
Y207000D02*
D03*
Y217000D02*
D03*
Y227000D02*
D03*
X2600000Y237000D02*
D03*
Y197000D02*
D03*
Y207000D02*
D03*
Y217000D02*
D03*
Y227000D02*
D03*
X2800000Y237000D02*
D03*
Y197000D02*
D03*
Y207000D02*
D03*
Y217000D02*
D03*
Y227000D02*
D03*
X2810000Y237000D02*
D03*
Y197000D02*
D03*
Y207000D02*
D03*
Y217000D02*
D03*
Y227000D02*
D03*
X2820000Y237000D02*
D03*
Y197000D02*
D03*
Y207000D02*
D03*
Y217000D02*
D03*
Y227000D02*
D03*
X2830000Y237000D02*
D03*
Y197000D02*
D03*
Y207000D02*
D03*
Y217000D02*
D03*
Y227000D02*
D03*
X2840000Y237000D02*
D03*
Y197000D02*
D03*
Y207000D02*
D03*
Y217000D02*
D03*
Y227000D02*
D03*
X2850000Y237000D02*
D03*
Y197000D02*
D03*
Y207000D02*
D03*
Y217000D02*
D03*
Y227000D02*
D03*
X3100000D02*
D03*
Y217000D02*
D03*
Y207000D02*
D03*
Y197000D02*
D03*
Y237000D02*
D03*
X3090000Y227000D02*
D03*
Y217000D02*
D03*
Y207000D02*
D03*
Y197000D02*
D03*
Y237000D02*
D03*
X3080000Y227000D02*
D03*
Y217000D02*
D03*
Y207000D02*
D03*
Y197000D02*
D03*
Y237000D02*
D03*
X3070000Y227000D02*
D03*
Y217000D02*
D03*
Y207000D02*
D03*
Y197000D02*
D03*
Y237000D02*
D03*
X3060000Y227000D02*
D03*
Y217000D02*
D03*
Y207000D02*
D03*
Y197000D02*
D03*
Y237000D02*
D03*
X3050000Y227000D02*
D03*
Y217000D02*
D03*
Y207000D02*
D03*
Y197000D02*
D03*
Y237000D02*
D03*
X409000Y795000D02*
D03*
X390000Y844000D02*
D03*
X391000Y872000D02*
D03*
X398000Y865000D02*
D03*
X391000Y858000D02*
D03*
X398000Y851000D02*
D03*
X389000Y1151000D02*
D03*
Y1138000D02*
D03*
X3217000Y316190D02*
D03*
X703000Y316000D02*
D03*
X597000D02*
D03*
X2133000Y1175000D02*
D03*
X3217000D02*
D03*
X2943000D02*
D03*
X2812000D02*
D03*
X2538000D02*
D03*
X2407000D02*
D03*
X3217000Y1143000D02*
D03*
X2943000Y1142000D02*
D03*
X2812000Y1143000D02*
D03*
X2538000D02*
D03*
X2407000Y1142000D02*
D03*
X2133000D02*
D03*
X2002000D02*
D03*
X1728000D02*
D03*
X1597000D02*
D03*
X1323000Y1139000D02*
D03*
X1192000D02*
D03*
X918000Y1133000D02*
D03*
X786000D02*
D03*
X513000Y1175000D02*
D03*
X786000D02*
D03*
X918000D02*
D03*
X1192000D02*
D03*
X1323000D02*
D03*
X1597000D02*
D03*
X1728000D02*
D03*
X2002000Y1176000D02*
D03*
X513000Y1127000D02*
D03*
X437000Y1004190D02*
D03*
X3080000Y1169000D02*
D03*
X437000Y936190D02*
D03*
Y957190D02*
D03*
Y1018190D02*
D03*
X2675000Y1163000D02*
D03*
X2270000Y1157000D02*
D03*
X1865000Y1151000D02*
D03*
X1460000Y1145000D02*
D03*
X1055000Y1139000D02*
D03*
X651000Y1133000D02*
D03*
X437000Y1087190D02*
D03*
X437000Y1109190D02*
D03*
Y1131190D02*
D03*
X344000Y1105190D02*
D03*
X402000Y900000D02*
D03*
X391000Y879123D02*
D03*
X398000Y894190D02*
D03*
X380000Y1000123D02*
D03*
D119*
X366000Y474000D02*
D03*
X250000Y558000D02*
D03*
Y579000D02*
D03*
X235000Y659000D02*
D03*
X282000Y688000D02*
D03*
X266000Y680000D02*
D03*
X249000Y673000D02*
D03*
X254000Y745000D02*
D03*
Y736000D02*
D03*
X312000Y485000D02*
D03*
X385000Y404000D02*
D03*
X454000Y486000D02*
D03*
X391000Y467000D02*
D03*
X360000Y483000D02*
D03*
X334000Y644000D02*
D03*
X357000Y749000D02*
D03*
X368000Y742000D02*
D03*
X356000D02*
D03*
Y715000D02*
D03*
X282000Y781000D02*
D03*
X299000D02*
D03*
X282000Y697000D02*
D03*
X289000Y549000D02*
D03*
X269000D02*
D03*
X272000Y697000D02*
D03*
X342000Y748000D02*
D03*
X349000Y492000D02*
D03*
X344000Y500000D02*
D03*
X393000Y507000D02*
D03*
X296000Y723000D02*
D03*
X309000Y670000D02*
D03*
X445000Y486000D02*
D03*
X436000Y663000D02*
D03*
X333000Y708000D02*
D03*
X317000Y708000D02*
D03*
X341000Y559000D02*
D03*
X396000Y589000D02*
D03*
Y604000D02*
D03*
X391000Y554190D02*
D03*
X361000Y701000D02*
D03*
X380000D02*
D03*
X366000Y688000D02*
D03*
Y676000D02*
D03*
X425000Y663000D02*
D03*
D120*
X423000Y386000D02*
D03*
X357000Y396000D02*
D03*
X420000Y401000D02*
D03*
X415000Y435000D02*
D03*
X357000Y445000D02*
D03*
X365000Y580000D02*
D03*
X280000Y635000D02*
D03*
X425000Y695000D02*
D03*
X465000Y414000D02*
D03*
X355000Y335000D02*
D03*
X436000Y526000D02*
D03*
X279000D02*
D03*
X436000Y623000D02*
D03*
D121*
X432500Y227500D02*
D03*
D122*
X1724500Y252500D02*
D03*
D123*
X2520500Y280000D02*
D03*
M02*
