G04*
G04 #@! TF.GenerationSoftware,Altium Limited,Altium Designer,18.1.7 (191)*
G04*
G04 Layer_Color=8388736*
%FSLAX44Y44*%
%MOMM*%
G71*
G01*
G75*
%ADD54R,0.8032X0.8032*%
%ADD55R,1.4032X1.7032*%
%ADD56R,2.2032X1.3032*%
%ADD57R,0.8032X0.8032*%
%ADD58R,0.7532X1.0032*%
%ADD59R,1.0032X0.7532*%
%ADD60R,5.6032X3.1032*%
%ADD61R,7.2032X5.2032*%
%ADD62R,1.7032X1.4032*%
%ADD63R,3.4032X1.9032*%
%ADD64R,1.1032X1.9032*%
%ADD65R,0.5532X1.2032*%
%ADD66R,0.5532X1.2032*%
%ADD67R,2.2032X1.2032*%
G04:AMPARAMS|DCode=68|XSize=2.2032mm|YSize=1.2032mm|CornerRadius=0mm|HoleSize=0mm|Usage=FLASHONLY|Rotation=180.000|XOffset=0mm|YOffset=0mm|HoleType=Round|Shape=Octagon|*
%AMOCTAGOND68*
4,1,8,-1.1016,0.3008,-1.1016,-0.3008,-0.8008,-0.6016,0.8008,-0.6016,1.1016,-0.3008,1.1016,0.3008,0.8008,0.6016,-0.8008,0.6016,-1.1016,0.3008,0.0*
%
%ADD68OCTAGOND68*%

%ADD69R,6.2032X6.2032*%
G04:AMPARAMS|DCode=70|XSize=1.6732mm|YSize=0.6832mm|CornerRadius=0.1616mm|HoleSize=0mm|Usage=FLASHONLY|Rotation=90.000|XOffset=0mm|YOffset=0mm|HoleType=Round|Shape=RoundedRectangle|*
%AMROUNDEDRECTD70*
21,1,1.6732,0.3600,0,0,90.0*
21,1,1.3500,0.6832,0,0,90.0*
1,1,0.3232,0.1800,0.6750*
1,1,0.3232,0.1800,-0.6750*
1,1,0.3232,-0.1800,-0.6750*
1,1,0.3232,-0.1800,0.6750*
%
%ADD70ROUNDEDRECTD70*%
%ADD71R,2.4032X2.0032*%
%ADD72R,1.6532X0.5032*%
%ADD73R,1.1332X1.1832*%
%ADD74R,1.2032X0.6532*%
%ADD75R,1.3032X2.2032*%
G04:AMPARAMS|DCode=76|XSize=0.5032mm|YSize=1.0032mm|CornerRadius=0.1766mm|HoleSize=0mm|Usage=FLASHONLY|Rotation=0.000|XOffset=0mm|YOffset=0mm|HoleType=Round|Shape=RoundedRectangle|*
%AMROUNDEDRECTD76*
21,1,0.5032,0.6500,0,0,0.0*
21,1,0.1500,1.0032,0,0,0.0*
1,1,0.3532,0.0750,-0.3250*
1,1,0.3532,-0.0750,-0.3250*
1,1,0.3532,-0.0750,0.3250*
1,1,0.3532,0.0750,0.3250*
%
%ADD76ROUNDEDRECTD76*%
G04:AMPARAMS|DCode=77|XSize=0.5032mm|YSize=1.0032mm|CornerRadius=0.1766mm|HoleSize=0mm|Usage=FLASHONLY|Rotation=90.000|XOffset=0mm|YOffset=0mm|HoleType=Round|Shape=RoundedRectangle|*
%AMROUNDEDRECTD77*
21,1,0.5032,0.6500,0,0,90.0*
21,1,0.1500,1.0032,0,0,90.0*
1,1,0.3532,0.3250,0.0750*
1,1,0.3532,0.3250,-0.0750*
1,1,0.3532,-0.3250,-0.0750*
1,1,0.3532,-0.3250,0.0750*
%
%ADD77ROUNDEDRECTD77*%
%ADD78R,1.0032X1.0032*%
%ADD79R,0.9032X1.3032*%
%ADD80R,1.1832X1.1332*%
%ADD81R,1.3532X0.8032*%
%ADD82R,1.3532X0.5032*%
%ADD83R,2.0032X3.6032*%
%ADD84R,1.9032X2.6032*%
%ADD85C,0.2032*%
%ADD86R,4.2032X4.2032*%
%ADD87O,3.2032X2.2032*%
%ADD88R,2.2032X1.4032*%
%ADD89R,2.5032X1.4032*%
D54*
X791000Y455080D02*
D03*
Y444920D02*
D03*
X683000Y448080D02*
D03*
Y437920D02*
D03*
X754000Y510920D02*
D03*
Y521080D02*
D03*
X893000Y871920D02*
D03*
Y882080D02*
D03*
Y915920D02*
D03*
Y926080D02*
D03*
Y959920D02*
D03*
Y970080D02*
D03*
Y1003920D02*
D03*
Y1014080D02*
D03*
Y695920D02*
D03*
Y706080D02*
D03*
Y739920D02*
D03*
Y750080D02*
D03*
Y783920D02*
D03*
Y794080D02*
D03*
Y827920D02*
D03*
Y838080D02*
D03*
Y1047920D02*
D03*
Y1058080D02*
D03*
Y1091920D02*
D03*
Y1102080D02*
D03*
Y1136920D02*
D03*
Y1147080D02*
D03*
Y574080D02*
D03*
Y563920D02*
D03*
Y607920D02*
D03*
Y618080D02*
D03*
Y651840D02*
D03*
Y662000D02*
D03*
X568000Y387920D02*
D03*
Y398080D02*
D03*
X543000Y965920D02*
D03*
Y976080D02*
D03*
X493000Y995920D02*
D03*
Y1006080D02*
D03*
X480000Y995920D02*
D03*
Y1006080D02*
D03*
X442000Y995920D02*
D03*
Y1006080D02*
D03*
X430000Y995920D02*
D03*
Y1006080D02*
D03*
X418000Y996000D02*
D03*
Y1006160D02*
D03*
X406000Y995920D02*
D03*
Y1006080D02*
D03*
X394000Y995920D02*
D03*
Y1006080D02*
D03*
X550000Y1046920D02*
D03*
Y1057080D02*
D03*
X543000Y998080D02*
D03*
Y987920D02*
D03*
X729000Y595080D02*
D03*
Y584920D02*
D03*
X717000Y1014920D02*
D03*
Y1025080D02*
D03*
X324000Y692920D02*
D03*
Y703080D02*
D03*
X449000Y668920D02*
D03*
Y679080D02*
D03*
X605000Y525920D02*
D03*
Y536080D02*
D03*
X467000Y1006080D02*
D03*
Y995920D02*
D03*
X596000Y497080D02*
D03*
Y486920D02*
D03*
Y460920D02*
D03*
Y471080D02*
D03*
X467000Y1118920D02*
D03*
Y1129080D02*
D03*
X370000Y1006080D02*
D03*
Y995920D02*
D03*
X346000Y1006080D02*
D03*
Y995920D02*
D03*
X511000Y1102080D02*
D03*
Y1091920D02*
D03*
X500000Y1102080D02*
D03*
Y1091920D02*
D03*
X358000Y995920D02*
D03*
Y1006080D02*
D03*
X741000Y575080D02*
D03*
Y564920D02*
D03*
Y619080D02*
D03*
Y608920D02*
D03*
Y663080D02*
D03*
Y652920D02*
D03*
Y707080D02*
D03*
Y696920D02*
D03*
Y751080D02*
D03*
Y740920D02*
D03*
Y795080D02*
D03*
Y784920D02*
D03*
Y839080D02*
D03*
Y828920D02*
D03*
Y883080D02*
D03*
Y872920D02*
D03*
Y927080D02*
D03*
Y916920D02*
D03*
Y971080D02*
D03*
Y960920D02*
D03*
Y1015080D02*
D03*
Y1004920D02*
D03*
Y1059080D02*
D03*
Y1048920D02*
D03*
Y1103080D02*
D03*
Y1092920D02*
D03*
Y1147080D02*
D03*
Y1136920D02*
D03*
X729000Y1092920D02*
D03*
Y1103080D02*
D03*
Y1167080D02*
D03*
Y1156920D02*
D03*
X717000Y1157080D02*
D03*
Y1146920D02*
D03*
X729000Y1136920D02*
D03*
Y1147080D02*
D03*
X893000Y1156920D02*
D03*
Y1167080D02*
D03*
X881000Y1140920D02*
D03*
Y1151080D02*
D03*
X717000Y1113080D02*
D03*
Y1102920D02*
D03*
X729000Y1123080D02*
D03*
Y1112920D02*
D03*
X893000Y1111920D02*
D03*
Y1122080D02*
D03*
X881000Y1096920D02*
D03*
Y1107080D02*
D03*
Y1052920D02*
D03*
Y1063080D02*
D03*
X893000Y1067920D02*
D03*
Y1078080D02*
D03*
X729000Y1048920D02*
D03*
Y1059080D02*
D03*
X717000Y1069080D02*
D03*
Y1058920D02*
D03*
X729000Y1079080D02*
D03*
Y1068920D02*
D03*
X881000Y1009920D02*
D03*
Y1020080D02*
D03*
X893000Y1023920D02*
D03*
Y1034080D02*
D03*
X729000Y1004920D02*
D03*
Y1015080D02*
D03*
Y1035080D02*
D03*
Y1024920D02*
D03*
X881000Y964920D02*
D03*
Y975080D02*
D03*
X893000Y979920D02*
D03*
Y990080D02*
D03*
X729000Y960920D02*
D03*
Y971080D02*
D03*
X717000Y981080D02*
D03*
Y970920D02*
D03*
X729000Y991080D02*
D03*
Y980920D02*
D03*
X881000Y920920D02*
D03*
Y931080D02*
D03*
X893000Y935920D02*
D03*
Y946080D02*
D03*
X729000Y916920D02*
D03*
Y927080D02*
D03*
X717000Y937080D02*
D03*
Y926920D02*
D03*
X729000Y947080D02*
D03*
Y936920D02*
D03*
X881000Y877920D02*
D03*
Y888080D02*
D03*
X893000Y891920D02*
D03*
Y902080D02*
D03*
X729000Y872920D02*
D03*
Y883080D02*
D03*
X717000Y893080D02*
D03*
Y882920D02*
D03*
X729000Y903080D02*
D03*
Y892920D02*
D03*
X881000Y832920D02*
D03*
Y843080D02*
D03*
X893000Y847920D02*
D03*
Y858080D02*
D03*
X729000Y828920D02*
D03*
Y839080D02*
D03*
X717000Y849080D02*
D03*
Y838920D02*
D03*
X729000Y859080D02*
D03*
Y848920D02*
D03*
Y815080D02*
D03*
Y804920D02*
D03*
X717000Y805080D02*
D03*
Y794920D02*
D03*
X729000Y784920D02*
D03*
Y795080D02*
D03*
X893000Y803920D02*
D03*
Y814080D02*
D03*
X881000Y789920D02*
D03*
Y800080D02*
D03*
X717000Y761080D02*
D03*
Y750920D02*
D03*
X729000Y740920D02*
D03*
Y751080D02*
D03*
Y771080D02*
D03*
Y760920D02*
D03*
X893000Y759920D02*
D03*
Y770080D02*
D03*
X881000Y745920D02*
D03*
Y756080D02*
D03*
X717000Y717080D02*
D03*
Y706920D02*
D03*
X729000Y696920D02*
D03*
Y707080D02*
D03*
Y727080D02*
D03*
Y716920D02*
D03*
X893000Y715920D02*
D03*
Y726080D02*
D03*
X881000Y701920D02*
D03*
Y712080D02*
D03*
Y657920D02*
D03*
Y668080D02*
D03*
X893000Y671920D02*
D03*
Y682080D02*
D03*
X729000Y683080D02*
D03*
Y672920D02*
D03*
Y652920D02*
D03*
Y663080D02*
D03*
X717000Y673080D02*
D03*
Y662920D02*
D03*
Y629080D02*
D03*
Y618920D02*
D03*
X729000Y608920D02*
D03*
Y619080D02*
D03*
Y639080D02*
D03*
Y628920D02*
D03*
X893000Y627920D02*
D03*
Y638080D02*
D03*
X881000Y613920D02*
D03*
Y624080D02*
D03*
X893000Y584920D02*
D03*
Y595080D02*
D03*
X881000Y570920D02*
D03*
Y581080D02*
D03*
X294000Y811920D02*
D03*
Y822080D02*
D03*
X382000Y995920D02*
D03*
Y1006080D02*
D03*
X294000Y919920D02*
D03*
Y930080D02*
D03*
Y1019920D02*
D03*
Y1030080D02*
D03*
Y1119920D02*
D03*
Y1130080D02*
D03*
X717000Y574920D02*
D03*
Y585080D02*
D03*
X656000Y399080D02*
D03*
Y388920D02*
D03*
X560000Y365080D02*
D03*
Y354920D02*
D03*
X809000Y429080D02*
D03*
Y418920D02*
D03*
X460000Y668920D02*
D03*
Y679080D02*
D03*
X471000D02*
D03*
Y668920D02*
D03*
X729000Y575080D02*
D03*
Y564920D02*
D03*
X549000Y440920D02*
D03*
Y451080D02*
D03*
X335000Y703080D02*
D03*
Y692920D02*
D03*
X419000Y640920D02*
D03*
Y651080D02*
D03*
X429000Y640920D02*
D03*
Y651080D02*
D03*
X618000Y354920D02*
D03*
Y365080D02*
D03*
X798000Y429080D02*
D03*
Y418920D02*
D03*
X366000Y840920D02*
D03*
Y851080D02*
D03*
X361000Y480080D02*
D03*
Y469920D02*
D03*
Y521920D02*
D03*
Y532080D02*
D03*
X2633000Y1160080D02*
D03*
Y1149920D02*
D03*
X2717000Y340080D02*
D03*
Y329920D02*
D03*
X2097000Y1160080D02*
D03*
Y1149920D02*
D03*
X3717000Y1159080D02*
D03*
Y1148920D02*
D03*
X2013000Y341080D02*
D03*
Y330920D02*
D03*
X3717000Y339080D02*
D03*
Y328920D02*
D03*
X1013000Y1160080D02*
D03*
Y1149920D02*
D03*
X1692000Y1161080D02*
D03*
Y1150920D02*
D03*
X1608000Y341080D02*
D03*
Y330920D02*
D03*
X1097000Y341080D02*
D03*
Y330920D02*
D03*
X2907000Y1160080D02*
D03*
Y1149920D02*
D03*
X2824000Y340080D02*
D03*
Y329920D02*
D03*
X3038000Y1160080D02*
D03*
Y1149920D02*
D03*
X3312000Y1160080D02*
D03*
Y1149920D02*
D03*
X3121000Y340080D02*
D03*
Y329920D02*
D03*
X3228000Y340080D02*
D03*
Y329920D02*
D03*
X3443000Y1160080D02*
D03*
Y1149920D02*
D03*
X3526000Y340080D02*
D03*
Y329920D02*
D03*
X2502000Y1160080D02*
D03*
Y1149920D02*
D03*
X2418000Y341080D02*
D03*
Y330920D02*
D03*
X2228000Y1160080D02*
D03*
Y1149920D02*
D03*
X2312000Y341080D02*
D03*
Y330920D02*
D03*
X1823000Y1160080D02*
D03*
Y1149920D02*
D03*
X1907000Y341080D02*
D03*
Y330920D02*
D03*
X1418000Y1161080D02*
D03*
Y1150920D02*
D03*
X1502000Y341080D02*
D03*
Y330920D02*
D03*
X1286000Y1161080D02*
D03*
Y1150920D02*
D03*
X1203000Y341080D02*
D03*
Y330920D02*
D03*
D55*
X361092Y1163000D02*
D03*
X389000D02*
D03*
X517046Y1163000D02*
D03*
X544954D02*
D03*
X465046D02*
D03*
X492954D02*
D03*
X413046D02*
D03*
X440954D02*
D03*
D56*
X532000Y1050000D02*
D03*
Y1090000D02*
D03*
D57*
X536080Y1103000D02*
D03*
X525920D02*
D03*
X510080Y1081000D02*
D03*
X499920D02*
D03*
X509080Y1053000D02*
D03*
X498920D02*
D03*
Y1065000D02*
D03*
X509080D02*
D03*
X500920Y1113000D02*
D03*
X511080D02*
D03*
X477920Y1118000D02*
D03*
X488080D02*
D03*
X510080Y1129000D02*
D03*
X499920D02*
D03*
X488080D02*
D03*
X477920D02*
D03*
X500080Y1140000D02*
D03*
X489920D02*
D03*
X592920Y789000D02*
D03*
X603080D02*
D03*
X577080D02*
D03*
X566920D02*
D03*
X592920Y1141000D02*
D03*
X603080D02*
D03*
X577080D02*
D03*
X566920D02*
D03*
X592920Y1097000D02*
D03*
X603080D02*
D03*
X577080D02*
D03*
X566920D02*
D03*
X592920Y1053000D02*
D03*
X603080D02*
D03*
X577080D02*
D03*
X566920D02*
D03*
X592920Y1009000D02*
D03*
X603080D02*
D03*
X577080D02*
D03*
X566920D02*
D03*
X592920Y965000D02*
D03*
X603080D02*
D03*
X577080D02*
D03*
X566920D02*
D03*
X592920Y921000D02*
D03*
X603080D02*
D03*
X577080D02*
D03*
X566920D02*
D03*
X592920Y877000D02*
D03*
X603080D02*
D03*
X577080D02*
D03*
X566920D02*
D03*
X592920Y833000D02*
D03*
X603080D02*
D03*
X577080D02*
D03*
X566920D02*
D03*
X592920Y745000D02*
D03*
X603080D02*
D03*
X577080D02*
D03*
X566920D02*
D03*
X592920Y701000D02*
D03*
X603080D02*
D03*
X577080D02*
D03*
X566920D02*
D03*
X592920Y657000D02*
D03*
X603080D02*
D03*
X577080D02*
D03*
X566920D02*
D03*
X592920Y613000D02*
D03*
X603080D02*
D03*
X577080D02*
D03*
X566920D02*
D03*
X592920Y569000D02*
D03*
X603080D02*
D03*
X577080D02*
D03*
X566920D02*
D03*
Y1158000D02*
D03*
X577080D02*
D03*
X566920Y1114000D02*
D03*
X577080D02*
D03*
X566920Y1070000D02*
D03*
X577080D02*
D03*
X566920Y1026000D02*
D03*
X577080D02*
D03*
X566920Y982000D02*
D03*
X577080D02*
D03*
X566920Y938000D02*
D03*
X577080D02*
D03*
X566920Y894000D02*
D03*
X577080D02*
D03*
X566920Y850000D02*
D03*
X577080D02*
D03*
X566920Y806000D02*
D03*
X577080D02*
D03*
X566920Y763000D02*
D03*
X577080D02*
D03*
X566920Y719000D02*
D03*
X577080D02*
D03*
X566920Y675000D02*
D03*
X577080D02*
D03*
X566920Y631000D02*
D03*
X577080D02*
D03*
X566920Y587000D02*
D03*
X577080D02*
D03*
X796920Y1137000D02*
D03*
X807080D02*
D03*
X796920Y1093000D02*
D03*
X807080D02*
D03*
X796920Y1049000D02*
D03*
X807080D02*
D03*
X796920Y1005000D02*
D03*
X807080D02*
D03*
X796920Y961000D02*
D03*
X807080D02*
D03*
X796920Y917000D02*
D03*
X807080D02*
D03*
X796920Y873000D02*
D03*
X807080D02*
D03*
X796920Y829000D02*
D03*
X807080D02*
D03*
X796920Y785000D02*
D03*
X807080D02*
D03*
X796920Y741000D02*
D03*
X807080D02*
D03*
X796920Y697000D02*
D03*
X807080D02*
D03*
X796920Y653000D02*
D03*
X807080D02*
D03*
X796920Y609000D02*
D03*
X807080D02*
D03*
X796920Y566000D02*
D03*
X807080D02*
D03*
X582080Y464000D02*
D03*
X571920D02*
D03*
X321920Y925000D02*
D03*
X332080D02*
D03*
X321920Y949000D02*
D03*
X332080D02*
D03*
X321920Y937000D02*
D03*
X332080D02*
D03*
X463920Y436000D02*
D03*
X474080D02*
D03*
X594080Y366000D02*
D03*
X583920D02*
D03*
X581080Y355000D02*
D03*
X570920D02*
D03*
X398080Y407000D02*
D03*
X387920D02*
D03*
X902920Y464000D02*
D03*
X913080D02*
D03*
X902920Y422000D02*
D03*
X913080D02*
D03*
X923920Y443000D02*
D03*
X934080D02*
D03*
X449840Y817000D02*
D03*
X460000D02*
D03*
X549080Y428000D02*
D03*
X538920D02*
D03*
X376080Y407000D02*
D03*
X365920D02*
D03*
X332080Y961000D02*
D03*
X321920D02*
D03*
X400920Y880000D02*
D03*
X411080D02*
D03*
X433080D02*
D03*
X422920D02*
D03*
X378920Y880000D02*
D03*
X389080D02*
D03*
X286920Y598000D02*
D03*
X297080D02*
D03*
X420080Y407000D02*
D03*
X409920D02*
D03*
X923920Y526000D02*
D03*
X934080D02*
D03*
X923920Y513000D02*
D03*
X934080D02*
D03*
X902920Y520000D02*
D03*
X913080D02*
D03*
X923920Y499190D02*
D03*
X934080D02*
D03*
X902920Y506000D02*
D03*
X913080D02*
D03*
X902920Y492000D02*
D03*
X913080D02*
D03*
X923920Y485000D02*
D03*
X934080D02*
D03*
X902920Y478000D02*
D03*
X913080D02*
D03*
X902920Y450000D02*
D03*
X913080D02*
D03*
X923920Y457000D02*
D03*
X934080D02*
D03*
X902920Y436000D02*
D03*
X913080D02*
D03*
X923920Y429000D02*
D03*
X934080D02*
D03*
X596920Y355000D02*
D03*
X607080D02*
D03*
X690000Y414000D02*
D03*
X679840D02*
D03*
X354920Y862000D02*
D03*
X365080D02*
D03*
D58*
X535000Y1114500D02*
D03*
X525500Y1137500D02*
D03*
X544500D02*
D03*
X765000Y567500D02*
D03*
X755500Y590500D02*
D03*
X774500D02*
D03*
X765000Y609500D02*
D03*
X755500Y632500D02*
D03*
X774500D02*
D03*
X765000Y653500D02*
D03*
X755500Y676500D02*
D03*
X774500D02*
D03*
X765000Y697500D02*
D03*
X755500Y720500D02*
D03*
X774500D02*
D03*
X765000Y741500D02*
D03*
X755500Y764500D02*
D03*
X774500D02*
D03*
X765000Y785500D02*
D03*
X755500Y808500D02*
D03*
X774500D02*
D03*
X765000Y829500D02*
D03*
X755500Y852500D02*
D03*
X774500D02*
D03*
X765000Y873500D02*
D03*
X755500Y896500D02*
D03*
X774500D02*
D03*
X765000Y917500D02*
D03*
X755500Y940500D02*
D03*
X774500D02*
D03*
X765000Y961500D02*
D03*
X755500Y984500D02*
D03*
X774500D02*
D03*
X765000Y1005500D02*
D03*
X755500Y1028500D02*
D03*
X774500D02*
D03*
X765000Y1049500D02*
D03*
X755500Y1072500D02*
D03*
X774500D02*
D03*
X765000Y1093500D02*
D03*
X755500Y1116500D02*
D03*
X774500D02*
D03*
X765000Y1137500D02*
D03*
X755500Y1160500D02*
D03*
X774500D02*
D03*
X858000Y1165500D02*
D03*
X867500Y1142500D02*
D03*
X848500D02*
D03*
X858000Y1121500D02*
D03*
X867500Y1098500D02*
D03*
X848500D02*
D03*
X858000Y1077500D02*
D03*
X867500Y1054500D02*
D03*
X848500D02*
D03*
X858000Y1033500D02*
D03*
X867500Y1010500D02*
D03*
X848500D02*
D03*
X858000Y989500D02*
D03*
X867500Y966500D02*
D03*
X848500D02*
D03*
X858000Y945500D02*
D03*
X867500Y922500D02*
D03*
X848500D02*
D03*
X858000Y901500D02*
D03*
X867500Y878500D02*
D03*
X848500D02*
D03*
X858000Y857500D02*
D03*
X867500Y834500D02*
D03*
X848500D02*
D03*
X858000Y813500D02*
D03*
X867500Y790500D02*
D03*
X848500D02*
D03*
X858000Y769500D02*
D03*
X867500Y746500D02*
D03*
X848500D02*
D03*
X858000Y725500D02*
D03*
X867500Y702500D02*
D03*
X848500D02*
D03*
X858000Y681500D02*
D03*
X867500Y658500D02*
D03*
X848500D02*
D03*
X858000Y637500D02*
D03*
X867500Y614500D02*
D03*
X848500D02*
D03*
X858000Y594500D02*
D03*
X867500Y571500D02*
D03*
X848500D02*
D03*
X572000Y499500D02*
D03*
X581500Y476500D02*
D03*
X562500D02*
D03*
X581500Y450500D02*
D03*
X562500D02*
D03*
X572000Y427500D02*
D03*
X925500Y400500D02*
D03*
X906500D02*
D03*
X916000Y377500D02*
D03*
X886500Y400500D02*
D03*
X867500D02*
D03*
X877000Y377500D02*
D03*
D59*
X545000Y1023000D02*
D03*
X522000Y1013500D02*
D03*
Y1032500D02*
D03*
X641500Y535000D02*
D03*
X618500Y525500D02*
D03*
Y544500D02*
D03*
X676500Y535000D02*
D03*
X653500Y525500D02*
D03*
Y544500D02*
D03*
X557500Y535000D02*
D03*
X580500Y544500D02*
D03*
Y525500D02*
D03*
X668500Y399500D02*
D03*
Y380500D02*
D03*
X691500Y390000D02*
D03*
D60*
X384000Y1130000D02*
D03*
Y1030000D02*
D03*
D61*
X3080000Y336000D02*
D03*
X3080000Y1156000D02*
D03*
X3270000D02*
D03*
Y336000D02*
D03*
X2675000D02*
D03*
X2675000Y1156000D02*
D03*
X2865000D02*
D03*
Y336000D02*
D03*
X1055000Y336000D02*
D03*
X1055000Y1156000D02*
D03*
X1245000D02*
D03*
Y336000D02*
D03*
X2270000Y336000D02*
D03*
X2270000Y1156000D02*
D03*
X2460000D02*
D03*
Y336000D02*
D03*
X1865000Y336000D02*
D03*
X1865000Y1156000D02*
D03*
X2055000D02*
D03*
Y336000D02*
D03*
X1460000Y336000D02*
D03*
X1460000Y1156000D02*
D03*
X1650000D02*
D03*
Y336000D02*
D03*
X3485000Y336000D02*
D03*
X3485000Y1156000D02*
D03*
X3675000D02*
D03*
Y336000D02*
D03*
D62*
X663000Y1137046D02*
D03*
Y1164954D02*
D03*
Y1093046D02*
D03*
Y1120954D02*
D03*
Y1049046D02*
D03*
Y1076954D02*
D03*
Y1005046D02*
D03*
Y1032954D02*
D03*
Y961046D02*
D03*
Y988954D02*
D03*
Y917046D02*
D03*
Y944954D02*
D03*
Y873046D02*
D03*
Y900954D02*
D03*
Y829046D02*
D03*
Y856954D02*
D03*
Y785046D02*
D03*
Y812954D02*
D03*
Y741046D02*
D03*
Y768954D02*
D03*
Y697046D02*
D03*
Y724954D02*
D03*
Y653046D02*
D03*
Y680954D02*
D03*
Y609046D02*
D03*
Y636954D02*
D03*
Y565046D02*
D03*
Y592954D02*
D03*
D63*
X490000Y918000D02*
D03*
D64*
X467000Y979000D02*
D03*
X490000D02*
D03*
X513000D02*
D03*
D65*
X583500Y382500D02*
D03*
X590000Y401500D02*
D03*
X583500D02*
D03*
X590000Y382500D02*
D03*
X596500D02*
D03*
D66*
X596500Y401500D02*
D03*
D67*
X350500Y927000D02*
D03*
X1083500Y245998D02*
D03*
X1046500Y291998D02*
D03*
X1488500Y245998D02*
D03*
X1451500Y291998D02*
D03*
X1893500Y245998D02*
D03*
X1856500Y291998D02*
D03*
X2298500Y245998D02*
D03*
X2261500Y291998D02*
D03*
X2703500Y245998D02*
D03*
X2666500Y291998D02*
D03*
X3108500Y245998D02*
D03*
X3071500Y291998D02*
D03*
X3518500Y246000D02*
D03*
X3481500Y292000D02*
D03*
D68*
X349500Y973000D02*
D03*
X1082500Y291998D02*
D03*
X1047500Y245998D02*
D03*
X1487500Y291998D02*
D03*
X1452500Y245998D02*
D03*
X1892500Y291998D02*
D03*
X1857500Y245998D02*
D03*
X2297500Y291998D02*
D03*
X2262500Y245998D02*
D03*
X2702500Y291998D02*
D03*
X2667500Y245998D02*
D03*
X3107500Y291998D02*
D03*
X3072500Y245998D02*
D03*
X3517500Y292000D02*
D03*
X3482500Y246000D02*
D03*
D69*
X417000Y949000D02*
D03*
X1150000Y267998D02*
D03*
X980000Y269998D02*
D03*
X1555000Y267998D02*
D03*
X1385000Y269998D02*
D03*
X1960000Y267998D02*
D03*
X1790000Y269998D02*
D03*
X2365000Y267998D02*
D03*
X2195000Y269998D02*
D03*
X2770000Y267998D02*
D03*
X2600000Y269998D02*
D03*
X3175000Y267998D02*
D03*
X3005000Y269998D02*
D03*
X3585000Y268000D02*
D03*
X3415000Y270000D02*
D03*
D70*
X465250Y1059500D02*
D03*
X471750D02*
D03*
X478250D02*
D03*
X484750D02*
D03*
Y1102500D02*
D03*
X478250D02*
D03*
X471750D02*
D03*
X465250D02*
D03*
D71*
X502000Y1032000D02*
D03*
X464000Y1031000D02*
D03*
D72*
X668500Y470750D02*
D03*
Y464250D02*
D03*
Y457750D02*
D03*
Y451250D02*
D03*
Y444750D02*
D03*
Y438250D02*
D03*
Y425250D02*
D03*
Y431750D02*
D03*
X614000Y431800D02*
D03*
Y425300D02*
D03*
Y438300D02*
D03*
Y444800D02*
D03*
Y451300D02*
D03*
Y457800D02*
D03*
Y464300D02*
D03*
Y470800D02*
D03*
Y477300D02*
D03*
Y483800D02*
D03*
Y490300D02*
D03*
Y496800D02*
D03*
X668500Y496750D02*
D03*
Y490250D02*
D03*
Y483750D02*
D03*
Y477250D02*
D03*
X755500Y470750D02*
D03*
Y464250D02*
D03*
Y457750D02*
D03*
Y451250D02*
D03*
Y444750D02*
D03*
Y438250D02*
D03*
Y425250D02*
D03*
Y431750D02*
D03*
X701000Y431800D02*
D03*
Y425300D02*
D03*
Y438300D02*
D03*
Y444800D02*
D03*
Y451300D02*
D03*
Y457800D02*
D03*
Y464300D02*
D03*
Y470800D02*
D03*
Y477300D02*
D03*
Y483800D02*
D03*
Y490300D02*
D03*
Y496800D02*
D03*
X755500Y496750D02*
D03*
Y490250D02*
D03*
Y483750D02*
D03*
Y477250D02*
D03*
X805500Y481373D02*
D03*
Y487873D02*
D03*
Y494373D02*
D03*
Y500873D02*
D03*
Y507373D02*
D03*
Y513873D02*
D03*
Y526873D02*
D03*
Y520373D02*
D03*
X860000Y520323D02*
D03*
Y526823D02*
D03*
Y513823D02*
D03*
Y507323D02*
D03*
Y500823D02*
D03*
Y494323D02*
D03*
Y487823D02*
D03*
Y481323D02*
D03*
Y474823D02*
D03*
Y468323D02*
D03*
Y461823D02*
D03*
Y455323D02*
D03*
X805500Y455373D02*
D03*
Y461873D02*
D03*
Y468373D02*
D03*
Y474873D02*
D03*
D73*
X605700Y1160000D02*
D03*
X590300D02*
D03*
X605700Y1116000D02*
D03*
X590300D02*
D03*
X605700Y1072000D02*
D03*
X590300D02*
D03*
X605700Y1028000D02*
D03*
X590300D02*
D03*
X605700Y984000D02*
D03*
X590300D02*
D03*
X605700Y940000D02*
D03*
X590300D02*
D03*
X605700Y896000D02*
D03*
X590300D02*
D03*
X605700Y852000D02*
D03*
X590300D02*
D03*
X605700Y808000D02*
D03*
X590300D02*
D03*
X605700Y721000D02*
D03*
X590300D02*
D03*
X605700Y765000D02*
D03*
X590300D02*
D03*
X605700Y677000D02*
D03*
X590300D02*
D03*
X605700Y633000D02*
D03*
X590300D02*
D03*
X605700Y589000D02*
D03*
X590300D02*
D03*
D74*
X681000Y1162000D02*
D03*
X703000D02*
D03*
X703000Y1141000D02*
D03*
X681000D02*
D03*
X643000Y1163000D02*
D03*
X621000D02*
D03*
X621000Y1141000D02*
D03*
X643000D02*
D03*
X681000Y1118000D02*
D03*
X703000D02*
D03*
X703000Y1097000D02*
D03*
X681000D02*
D03*
X643000Y1119000D02*
D03*
X621000D02*
D03*
X621000Y1097000D02*
D03*
X643000D02*
D03*
X681000Y1074000D02*
D03*
X703000D02*
D03*
X703000Y1053000D02*
D03*
X681000D02*
D03*
X643000Y1075000D02*
D03*
X621000D02*
D03*
X621000Y1053000D02*
D03*
X643000D02*
D03*
X681000Y1030000D02*
D03*
X703000D02*
D03*
X703000Y1009000D02*
D03*
X681000D02*
D03*
X643000Y1031000D02*
D03*
X621000D02*
D03*
X621000Y1009000D02*
D03*
X643000D02*
D03*
X621000Y965000D02*
D03*
X643000D02*
D03*
X643000Y987000D02*
D03*
X621000D02*
D03*
X703000Y965000D02*
D03*
X681000D02*
D03*
X681000Y986000D02*
D03*
X703000D02*
D03*
X621000Y921000D02*
D03*
X643000D02*
D03*
X643000Y943000D02*
D03*
X621000D02*
D03*
X703000Y921000D02*
D03*
X681000D02*
D03*
X681000Y942000D02*
D03*
X703000D02*
D03*
X621000Y877000D02*
D03*
X643000D02*
D03*
X643000Y899000D02*
D03*
X621000D02*
D03*
X703000Y877000D02*
D03*
X681000D02*
D03*
X681000Y898000D02*
D03*
X703000D02*
D03*
X681000Y854000D02*
D03*
X703000D02*
D03*
X703000Y833000D02*
D03*
X681000D02*
D03*
X643000Y855000D02*
D03*
X621000D02*
D03*
X621000Y833000D02*
D03*
X643000D02*
D03*
X621000Y789000D02*
D03*
X643000D02*
D03*
X643000Y811000D02*
D03*
X621000D02*
D03*
X703000Y789000D02*
D03*
X681000D02*
D03*
X681000Y810000D02*
D03*
X703000D02*
D03*
X681000Y766000D02*
D03*
X703000D02*
D03*
X703000Y745000D02*
D03*
X681000D02*
D03*
X643000Y767000D02*
D03*
X621000D02*
D03*
X621000Y745000D02*
D03*
X643000D02*
D03*
X621000Y701000D02*
D03*
X643000D02*
D03*
X643000Y723000D02*
D03*
X621000D02*
D03*
X703000Y701000D02*
D03*
X681000D02*
D03*
X681000Y722000D02*
D03*
X703000D02*
D03*
X621000Y657000D02*
D03*
X643000D02*
D03*
X643000Y679000D02*
D03*
X621000D02*
D03*
X703000Y657000D02*
D03*
X681000D02*
D03*
X681000Y678000D02*
D03*
X703000D02*
D03*
X681000Y634000D02*
D03*
X703000D02*
D03*
X703000Y613000D02*
D03*
X681000D02*
D03*
X643000Y635000D02*
D03*
X621000D02*
D03*
X621000Y613000D02*
D03*
X643000D02*
D03*
X621000Y591000D02*
D03*
X643000D02*
D03*
X681000Y569000D02*
D03*
X703000D02*
D03*
X643000Y569000D02*
D03*
X621000D02*
D03*
X703000Y590000D02*
D03*
X681000D02*
D03*
X288000Y582000D02*
D03*
X310000D02*
D03*
X851000Y398000D02*
D03*
X829000D02*
D03*
X851000Y377000D02*
D03*
X829000D02*
D03*
D75*
X791000Y1159000D02*
D03*
X831000D02*
D03*
X791000Y1110000D02*
D03*
X831000D02*
D03*
X791000Y1071000D02*
D03*
X831000D02*
D03*
X791000Y1022000D02*
D03*
X831000D02*
D03*
X791000Y978000D02*
D03*
X831000D02*
D03*
X791000Y934000D02*
D03*
X831000D02*
D03*
X791000Y890000D02*
D03*
X831000D02*
D03*
X791000Y846000D02*
D03*
X831000D02*
D03*
X791000Y802000D02*
D03*
X831000D02*
D03*
X791000Y758000D02*
D03*
X831000D02*
D03*
X791000Y714000D02*
D03*
X831000D02*
D03*
X791000Y670000D02*
D03*
X831000D02*
D03*
X791000Y626000D02*
D03*
X831000D02*
D03*
X791000Y583000D02*
D03*
X831000D02*
D03*
X529000Y446000D02*
D03*
X489000D02*
D03*
X529000Y471000D02*
D03*
X489000D02*
D03*
D76*
X431000Y691750D02*
D03*
X436000D02*
D03*
X426000D02*
D03*
X441000D02*
D03*
X416000D02*
D03*
X421000D02*
D03*
X406000D02*
D03*
X411000D02*
D03*
X391000D02*
D03*
X401000D02*
D03*
X396000D02*
D03*
X371000D02*
D03*
X376000D02*
D03*
X366000D02*
D03*
X386000D02*
D03*
X381000D02*
D03*
X441000Y806170D02*
D03*
X436000D02*
D03*
X431000D02*
D03*
X426000D02*
D03*
X406000D02*
D03*
X411000D02*
D03*
X401000D02*
D03*
X421000D02*
D03*
X416000D02*
D03*
X396000D02*
D03*
X391000D02*
D03*
X386000D02*
D03*
X371000D02*
D03*
X366000D02*
D03*
X381000D02*
D03*
X376000D02*
D03*
X431500Y790750D02*
D03*
X426500Y790750D02*
D03*
X421500Y790750D02*
D03*
X416500Y790750D02*
D03*
X411500D02*
D03*
X406500D02*
D03*
X401500D02*
D03*
X396500D02*
D03*
X391500Y790750D02*
D03*
X386500Y790750D02*
D03*
X381500D02*
D03*
X376500D02*
D03*
X431500Y707250D02*
D03*
X426500D02*
D03*
X421500D02*
D03*
X416500D02*
D03*
X411500D02*
D03*
X406500D02*
D03*
X401500D02*
D03*
X396500D02*
D03*
X391500D02*
D03*
X386500D02*
D03*
X381500D02*
D03*
X376500D02*
D03*
D77*
X460500Y711250D02*
D03*
Y721250D02*
D03*
Y726250D02*
D03*
Y716250D02*
D03*
Y736250D02*
D03*
Y731250D02*
D03*
Y741250D02*
D03*
Y746250D02*
D03*
Y751250D02*
D03*
X346500Y736250D02*
D03*
Y741250D02*
D03*
Y731250D02*
D03*
Y751250D02*
D03*
Y746250D02*
D03*
Y716250D02*
D03*
Y711250D02*
D03*
Y726250D02*
D03*
Y721250D02*
D03*
X460500Y761250D02*
D03*
Y766250D02*
D03*
Y756250D02*
D03*
Y786250D02*
D03*
Y771250D02*
D03*
Y776250D02*
D03*
Y781250D02*
D03*
X346500Y761250D02*
D03*
Y766250D02*
D03*
Y756250D02*
D03*
Y776250D02*
D03*
Y781250D02*
D03*
Y771250D02*
D03*
Y786250D02*
D03*
X362250Y776500D02*
D03*
Y771500D02*
D03*
Y766500D02*
D03*
Y761500D02*
D03*
Y756500D02*
D03*
Y751500D02*
D03*
Y746500D02*
D03*
Y741500D02*
D03*
Y736500D02*
D03*
Y731500D02*
D03*
Y726500D02*
D03*
Y721500D02*
D03*
X445750Y776500D02*
D03*
Y771500D02*
D03*
Y766500D02*
D03*
Y761500D02*
D03*
Y756500D02*
D03*
Y751500D02*
D03*
Y746500D02*
D03*
Y741500D02*
D03*
Y736500D02*
D03*
Y731500D02*
D03*
Y726500D02*
D03*
Y721500D02*
D03*
D78*
X294000Y857000D02*
D03*
Y843000D02*
D03*
Y943000D02*
D03*
Y957000D02*
D03*
Y1043000D02*
D03*
Y1057000D02*
D03*
Y1143000D02*
D03*
Y1157000D02*
D03*
D79*
X286500Y672500D02*
D03*
Y613500D02*
D03*
X323500D02*
D03*
Y672500D02*
D03*
D80*
X349000Y849700D02*
D03*
Y834300D02*
D03*
D81*
X340160Y532000D02*
D03*
Y524500D02*
D03*
X340190Y477500D02*
D03*
X340160Y470000D02*
D03*
D82*
Y518500D02*
D03*
Y513500D02*
D03*
Y508500D02*
D03*
Y503500D02*
D03*
X340190Y498500D02*
D03*
X340160Y493500D02*
D03*
Y488500D02*
D03*
Y483500D02*
D03*
D83*
X615000Y330000D02*
D03*
X563000D02*
D03*
D84*
X424500Y855123D02*
D03*
X387500D02*
D03*
D85*
X3175000Y469648D02*
D03*
Y1022352D02*
D03*
X2999000Y1022000D02*
D03*
X2998000Y387000D02*
D03*
X3351000Y470000D02*
D03*
X2770000Y469648D02*
D03*
Y1022352D02*
D03*
X2594000Y1022000D02*
D03*
X2593000Y387000D02*
D03*
X2946000Y470000D02*
D03*
X1150000Y469648D02*
D03*
Y1022352D02*
D03*
X974000Y1022000D02*
D03*
X973000Y387000D02*
D03*
X1326000Y470000D02*
D03*
X2365000Y469648D02*
D03*
Y1022352D02*
D03*
X2189000Y1022000D02*
D03*
X2188000Y387000D02*
D03*
X2541000Y470000D02*
D03*
X1960000Y469648D02*
D03*
Y1022352D02*
D03*
X1784000Y1022000D02*
D03*
X1783000Y387000D02*
D03*
X2136000Y470000D02*
D03*
X1555000Y469648D02*
D03*
Y1022352D02*
D03*
X1379000Y1022000D02*
D03*
X1378000Y387000D02*
D03*
X1731000Y470000D02*
D03*
X329190Y531000D02*
D03*
Y471000D02*
D03*
X3580000Y469648D02*
D03*
Y1022352D02*
D03*
X3404000Y1022000D02*
D03*
X3403000Y387000D02*
D03*
X3756000Y470000D02*
D03*
D86*
X433000Y351500D02*
D03*
Y279500D02*
D03*
D87*
X373000Y383000D02*
D03*
Y248000D02*
D03*
D88*
X336360Y544200D02*
D03*
Y457700D02*
D03*
D89*
X297760Y544200D02*
D03*
Y457700D02*
D03*
M02*
