M48
;Layer_Color=9474304
;FILE_FORMAT=4:4
METRIC,LZ
;TYPE=PLATED
T1F00S00C0.2540
T3F00S00C0.6000
T5F00S00C2.8000
;TYPE=NON_PLATED
T6F00S00C0.6500
T7F00S00C2.3876
T8F00S00C3.1750
T9F00S00C3.4544
%
T01
X0042Y00392
X00501Y00392
X00553Y00392
X00597
X00627
Y00353
X00589
X00656Y00367
X00667Y0036
X00704Y00392
X0075Y00387
Y00377
X00755Y00382
Y00392
Y00372
X00827Y00366
X00833Y0037
X0082Y00391
X00955Y00290998
Y00280998
Y00270998
Y00260998
Y00250998
X00965
Y00260998
Y00270998
Y00280998
Y00290998
X00975
X00985
Y00280998
X00975
Y00270998
X00985
Y00260998
X00975
Y00250998
X00985
X00995
Y00260998
Y00270998
Y00280998
Y00290998
X01005
Y00280998
Y00270998
Y00260998
Y00250998
X01055Y00313
X01065Y00305
X01104Y00361
X01196Y00366
X01357Y00319
X0136Y00290998
X0137
X0138
X0139
X014
X0141
Y00280998
Y00270998
Y00260998
Y00250998
X014
Y00260998
Y00270998
Y00280998
X0139
Y00270998
X0138
Y00280998
X0137
Y00270998
Y00260998
X0138
X0139
Y00250998
X0138
X0137
X0136
Y00260998
Y00270998
Y00280998
X0147Y00305
X01509Y00371
X01767Y00325
X01765Y00289998
Y00279998
Y00269998
Y00259998
Y00249998
X01775
Y00259998
Y00269998
Y00279998
Y00289998
X01785
X01795
Y00279998
X01785
Y00269998
X01795
Y00259998
X01785
Y00249998
X01795
X01805
Y00259998
Y00269998
Y00279998
Y00289998
X01815
Y00279998
Y00269998
Y00259998
Y00249998
X01875Y00305
X0217Y00289998
Y00279998
Y00269998
Y00259998
Y00249998
X0218
Y00259998
Y00269998
Y00279998
Y00289998
X0219
X022
Y00279998
X0219
Y00269998
X022
Y00259998
X0219
Y00249998
X022
X0221
Y00259998
Y00269998
Y00279998
Y00289998
X0222
Y00279998
Y00269998
Y00259998
Y00249998
X0228Y00305
X02166Y00331
X02569Y00337
X02575Y00289998
Y00279998
Y00269998
Y00259998
Y00249998
X02585
Y00259998
Y00269998
Y00279998
Y00289998
X02595
X02605
Y00279998
X02595
Y00269998
X02605
Y00259998
X02595
Y00249998
X02605
X02615
Y00259998
Y00269998
Y00279998
Y00289998
X02625
Y00279998
Y00269998
Y00259998
Y00249998
X02685Y00305
X0298Y00289998
Y00279998
Y00269998
Y00259998
Y00249998
X0299
Y00259998
Y00269998
Y00279998
Y00289998
X03
X0301
Y00279998
X03
Y00269998
X0301
Y00259998
X03
Y00249998
X0301
X0302
Y00259998
Y00269998
Y00279998
Y00289998
X0303
Y00279998
Y00269998
Y00259998
Y00249998
X0309Y00305
X02975Y00343
X03381Y00349
X0339Y0029
X034
X0341
X0342
X0343
X0344
Y0028
Y0027
Y0026
Y0025
X0343
Y0026
Y0027
Y0028
X0342
Y0027
X0341
Y0028
X034
Y0027
Y0026
X0341
X0342
Y0025
X0341
X034
X0339
Y0026
Y0027
Y0028
X035Y00305
X03588Y0035519
X03724Y00434
X03717Y00449
X03526
X03533Y00438
X03228Y00449
X03221Y00443
X03128Y00455
X03121Y00449
X02824
X02817Y00455
Y00488
Y00498
X02724Y0050319
Y00488
Y00455
X02717Y00449
X02418
X02412Y00423
X02318Y00418
X02312Y00449
X02013
X02007Y00413
X01913Y00408
X01907Y00449
X01608
X01601Y00403
X01502Y00449
X01203
X01096
X00946
X00895Y0045
Y00443
Y00436
Y00429
X00895Y00423
X00895Y00457
Y00464
X00895Y00471
Y00478
X00895Y00485
Y00492
Y00499
Y00506
Y00513
Y0052
Y00527
X00875
X00879Y00539
X00844Y00504
X00836Y00496
X00826Y00558
X0082Y00597
X00832Y00602
X00838Y00646
X00815Y00641
X0081Y00685
X00844Y0069
X0085Y00733
X00805Y00729
X008Y00773
X00856Y00778
X00827Y00416
X00821Y00419
X0075Y00417
Y00407
X00755Y00412
Y00402
X0075Y00397
X00743Y00402
X00738Y00397
X00718Y00407
X00713Y00412
Y00445
X00717Y00451
X00713Y00458
X00717Y00464
X00713Y00471
X00717Y00477
X00713Y00483
Y0049
Y00499
X00719Y00504
X00725Y00509
X00731Y00515
X00737Y00521
X00743Y00527
X00707Y00525
Y00506
X0068Y0049
Y00483
X00685Y00477
X00681Y0047
X00685Y00464
X00681Y00458
X00683Y0043
X00637Y00422
X00631Y00407
X00626Y00412
X00642Y00397
X00647Y00402
X00631Y00445
X00626Y00451
X00631Y00458
X00636Y00464
X00641Y00471
X00646Y00477
X00651Y00484
X00656Y0049
X00666Y00526
X00707Y00554
X00741Y00588
X00747Y00632
Y00676
Y0072
Y00764
X00601Y00754
X00576Y00737
X00558Y00719
X00576Y00693
X00558Y00675
X00541Y0066
X00531Y00645
X00526Y0064
X00521Y00635
X00558Y00631
X00576Y00649
X00591Y00666
X00596Y0071
X00576Y00781
X00558Y00763
X00496Y00767
X00491Y00772
X00486Y00777
X00476Y00751
Y00741
X0047Y00746
X00476Y00716
X00486Y0071
X00491Y00705
X00496Y0071
X00471Y00692
X0045
X00446Y00713
X00432Y00721
X00421
X00426Y00756
X00437
X00421Y00778
X00397Y00772
X00416Y0066
X00426Y00668
X00442
X00436Y00675
X00453Y0066
X00453Y0065
Y0064
X00458Y00635
X00459Y00645
Y00655
X00486
X00481Y0065
X00479Y00669
X00406Y0062
X00411Y00615
X00576Y00605
X00586Y00622
X00581Y00578
X00577Y0056
X00603Y00554
X00594Y0053
X00558Y00519
X00541Y00525
X00521Y00493
X00572Y00474
Y0045
X00596Y00453
Y00432
Y00479
X00558Y00587
X00457Y00443
X00462Y00428
X00452Y00415
X00447Y0041
X00437Y0042
X00398Y00421
X00469Y00405
X00358Y00494
X00325
X00316Y00599
X00316Y00636
X00366Y0064
X00371Y00645
X00376Y0065
X00381Y00655
X00335Y00684
X00346Y00702
X00322Y00721
X00286Y00726
Y00733
Y00792
X00306Y00786
X00311Y00771
X00316Y00766
X00332Y00781
X00337Y00776
X00373Y00752
X00378Y00746
X00277Y00582
X00296Y00801
X00302Y00805
X00317Y00801
X00317Y00821
X00349Y00824
X00359Y00827
X00375
X00369Y0082
X00359Y00796
X00345Y00862
X00349Y00889
X00389Y00889
X00324Y0085
X00285Y00857
X00349Y01159
X00401
X00401Y01167
X00453
Y01159
X00467Y01138
X00505Y01159
Y01167
X00557Y01167
X00576Y01133
Y01089
Y01045
X00558Y01026
Y00982
X00571Y00992
X00576Y00998
Y00957
X00558Y00938
X00576Y00913
X00558Y00894
X00576Y00869
X00558Y0085
X00576Y00825
X00558Y00806
X00606Y00798
X00611Y00842
X00616Y00886
X00621Y0093
X00626Y00974
X00631Y01018
X00636Y01062
X00641Y01106
X00646Y0115
X00747Y0116
X00755Y0114
X0076Y01125
X00747Y01116
Y01072
X00765Y01081
X0077Y01037
X00747Y01028
Y00984
X00775Y00993
X0078Y00949
X00747Y0094
Y00896
Y00852
Y00808
X0079Y00861
X00785Y00905
X00505Y00956
X00451Y01006
X00423Y00889
X00406Y00869
X00406Y00836
X00469Y00817
X00461Y00797
X00795Y00817
X00862Y00822
X00868Y00866
X00874Y0091
X0088Y00954
X00886Y00998
X00892Y01041
X00898Y01085
X0091Y01112
X00916Y01116
X00922Y01112
X00904Y01122
X00952Y01164
X00959
X01003
X01013Y01115
X01152Y01158
X01295Y01164
X01286Y0111
X01418Y01105
X01409Y01164
X01555Y01152
X01701Y01164
X01692Y011
X01823Y01095
X01813Y01164
X0196Y01146
X02107Y01164
X02097Y0109
X02228Y01085
X02218Y01164
X02365Y0114
X02512Y01164
X02502Y0108
X02633Y01045
X02623Y01164
X02769Y01134
X02917Y01164
X03028
X03038Y01055
X02907Y0105
X03175Y01128
X03322Y01164
X03433
X03443Y01065
X03312Y0106
X0357Y01122
X03726Y01164
X03717Y0107
T03
X0035Y00942
X00395Y00927
Y00971
X00439
X00491Y01032
X00526Y01124
X0049Y00899
X03766Y01176
T05
X00433Y002795
Y003515
T06
X0032919Y00471
Y00531
T07
X00973Y00387
X01378Y00387
X01783Y00387
X02188Y00387
X02593
X02998
X03403
T08
X0358Y00469648
X03175
X0277
X02365
X0196Y00469648
X01555Y00469648
X0115Y00469648
Y01022352
X01555Y01022352
X0196Y01022352
X02365Y01022352
X0277
X03175
X0358
T09
X03756Y0047
X03351
X02946
X02541
X02136Y0047
X01731Y0047
X01326Y0047
X00974Y01022
X01379Y01022
X01784Y01022
X02189Y01022
X02594
X02999
X03404
M30
