G04*
G04 #@! TF.GenerationSoftware,Altium Limited,Altium Designer,18.1.7 (191)*
G04*
G04 Layer_Color=32896*
%FSLAX44Y44*%
%MOMM*%
G71*
G01*
G75*
G36*
X871320Y1004371D02*
X876529Y1004024D01*
X882431Y1003677D01*
X888681Y1002982D01*
X895278Y1001941D01*
X895973D01*
X897709Y1001593D01*
X900487Y1000899D01*
X904306Y999857D01*
X909167Y998468D01*
X914723Y996732D01*
X920973Y994649D01*
X927917Y991871D01*
X935556Y988746D01*
X943542Y985274D01*
X951875Y980760D01*
X960208Y975899D01*
X969236Y970344D01*
X977916Y963747D01*
X986944Y956802D01*
X995624Y948816D01*
X995972Y948469D01*
X997013Y947428D01*
X998402Y946039D01*
X1000485Y943955D01*
X1002916Y941178D01*
X1005347Y938053D01*
X1008471Y934580D01*
X1011596Y930414D01*
X1015069Y925900D01*
X1018541Y921386D01*
X1025138Y910622D01*
X1031388Y899164D01*
X1033818Y892914D01*
X1036249Y886664D01*
Y886317D01*
X1036943Y885275D01*
X1037290Y883192D01*
X1038332Y880762D01*
X1039027Y877637D01*
X1040068Y873817D01*
X1041457Y869651D01*
X1042499Y864790D01*
X1043540Y859581D01*
X1044582Y853679D01*
X1045624Y847776D01*
X1046665Y841526D01*
X1047707Y827637D01*
X1048054Y813401D01*
Y810276D01*
X1047707Y807846D01*
Y805068D01*
X1047360Y801596D01*
X1047013Y797776D01*
X1046318Y793610D01*
X1044929Y784582D01*
X1042499Y774513D01*
X1039374Y764096D01*
X1034860Y753680D01*
Y753333D01*
X1034166Y752638D01*
X1033471Y750902D01*
X1032430Y749166D01*
X1031041Y746736D01*
X1029305Y743958D01*
X1027568Y740833D01*
X1025485Y737361D01*
X1020277Y729722D01*
X1014027Y721736D01*
X1006735Y713055D01*
X998402Y704375D01*
X998055Y704028D01*
X996666Y702986D01*
X995277Y701250D01*
X993541Y699167D01*
X993194Y698819D01*
X991805Y697778D01*
X990069Y696389D01*
X988333Y695000D01*
X987986Y694306D01*
X987638Y693611D01*
X986944Y692570D01*
Y691528D01*
X986249Y690139D01*
X985555Y688403D01*
Y688056D01*
X986249Y687708D01*
X987986Y685972D01*
X990416Y683542D01*
X993541Y681111D01*
X993888Y680764D01*
X994236Y680417D01*
X996319Y678681D01*
X999097Y676250D01*
X1002222Y673125D01*
X1002569Y672778D01*
X1003263Y672084D01*
X1004305Y671042D01*
X1005694Y669653D01*
X1007777Y667570D01*
X1009860Y665139D01*
X1011944Y662709D01*
X1014374Y659584D01*
X1019930Y652639D01*
X1025138Y645001D01*
X1030346Y635973D01*
X1034860Y626598D01*
Y626251D01*
X1035207Y625556D01*
X1035902Y624168D01*
X1036596Y622084D01*
X1037290Y619654D01*
X1038332Y616876D01*
X1039027Y613751D01*
X1040068Y610279D01*
X1042499Y602293D01*
X1044235Y592918D01*
X1045971Y582849D01*
X1047360Y572085D01*
Y568613D01*
X1047707Y565835D01*
Y558891D01*
X1047360Y554724D01*
Y550210D01*
X1047013Y545002D01*
X1046665Y539794D01*
X1045624Y527988D01*
X1043540Y515835D01*
X1040763Y503683D01*
Y503336D01*
X1040415Y502294D01*
X1039721Y500558D01*
X1039027Y498127D01*
X1037985Y495350D01*
X1036596Y491878D01*
X1034860Y488058D01*
X1033124Y483891D01*
X1028610Y474517D01*
X1022707Y464447D01*
X1015763Y454031D01*
X1007430Y443614D01*
X1007083Y443267D01*
X1006735Y442573D01*
X1005694Y441531D01*
X1004305Y440142D01*
X1000833Y436323D01*
X996319Y431461D01*
X990416Y426253D01*
X984166Y420351D01*
X976875Y414795D01*
X968889Y409240D01*
X968541D01*
X967847Y408545D01*
X966805Y407851D01*
X965069Y406809D01*
X963333Y405767D01*
X960903Y404379D01*
X958125Y402990D01*
X955000Y401601D01*
X948055Y398129D01*
X940070Y395004D01*
X931042Y391879D01*
X921667Y389101D01*
X920973Y388754D01*
X919584Y388406D01*
X917153Y387712D01*
X914028Y387018D01*
X910209Y386323D01*
X906389Y385976D01*
X901876Y385282D01*
X897709D01*
X897362D01*
X896667D01*
X895278D01*
X893889Y385629D01*
X891806D01*
X889376Y385976D01*
X883473Y387018D01*
X876529Y388406D01*
X869237Y390837D01*
X861251Y393962D01*
X853265Y398476D01*
X852918Y398823D01*
X851876Y399518D01*
X850487Y400559D01*
X848404Y402295D01*
X845626Y404379D01*
X842849Y406809D01*
X839724Y409934D01*
X836599Y413406D01*
X833474Y417226D01*
X830001Y421739D01*
X826529Y426600D01*
X823404Y432156D01*
X820627Y437711D01*
X817849Y443961D01*
X815765Y450559D01*
X814029Y457850D01*
Y458197D01*
X813682Y459586D01*
X813335Y461322D01*
Y464100D01*
X812988Y467225D01*
X812641Y471044D01*
X812293Y475211D01*
X811946Y480072D01*
Y490489D01*
X812641Y501947D01*
X814377Y513752D01*
X815765Y519655D01*
X817502Y525558D01*
Y525905D01*
X817849Y526946D01*
X818543Y528683D01*
X819585Y530766D01*
X820627Y533544D01*
X822015Y537016D01*
X823752Y540488D01*
X825835Y544655D01*
X828265Y548821D01*
X831043Y553335D01*
X834515Y558196D01*
X837987Y563057D01*
X841807Y567918D01*
X845973Y572779D01*
X850835Y577293D01*
X856043Y582154D01*
X856390Y582501D01*
X857779Y583543D01*
X859515Y584932D01*
X862293Y587015D01*
X865070Y589099D01*
X868543Y591182D01*
X872362Y592918D01*
X876529Y594654D01*
X877223D01*
X878612Y595348D01*
X880695Y596043D01*
X883820Y596390D01*
X887292Y597085D01*
X891459Y597432D01*
X895973Y597779D01*
X900487Y597432D01*
X901181D01*
X902917Y597085D01*
X905348Y596737D01*
X908473Y595696D01*
X912292Y594654D01*
X916112Y593265D01*
X919931Y591182D01*
X923750Y588751D01*
X924098Y588404D01*
X925139Y587362D01*
X926875Y585626D01*
X928611Y583543D01*
X930695Y580765D01*
X933125Y577293D01*
X935208Y573474D01*
X936945Y569307D01*
Y568613D01*
X937292Y567224D01*
X937986Y565140D01*
Y562363D01*
X938333Y558891D01*
X937986Y555418D01*
X937292Y551599D01*
X935903Y548127D01*
X935556Y547780D01*
X935208Y546391D01*
X934167Y544655D01*
X932778Y542571D01*
X931042Y539794D01*
X928611Y537016D01*
X926181Y534238D01*
X923056Y531460D01*
X922709Y531113D01*
X922014Y530766D01*
X920973Y529724D01*
X919584Y528683D01*
X916112Y526252D01*
X911945Y523474D01*
X911598Y523127D01*
X910903Y522780D01*
X909514Y521738D01*
X908125Y520697D01*
X904306Y518266D01*
X899792Y515488D01*
X899098Y515141D01*
X897362Y513752D01*
X894931Y512016D01*
X891806Y509586D01*
X888681Y506461D01*
X885556Y502641D01*
X882778Y498475D01*
X880695Y493614D01*
Y492919D01*
X880348Y491183D01*
X880001Y488753D01*
X879654Y485280D01*
X880001Y481461D01*
X880695Y476947D01*
X881737Y472433D01*
X883820Y467572D01*
X884167Y466878D01*
X885209Y465489D01*
X886945Y463058D01*
X889028Y460628D01*
X892153Y457850D01*
X895626Y455072D01*
X899792Y452642D01*
X904653Y450906D01*
X905348Y450559D01*
X907084Y450211D01*
X909514Y449864D01*
X913334Y449517D01*
X917500D01*
X922361Y449864D01*
X927570Y450906D01*
X933125Y452989D01*
X933472Y453336D01*
X934861Y453684D01*
X936597Y454725D01*
X939375Y456114D01*
X942500Y458197D01*
X945972Y460628D01*
X949792Y463406D01*
X954305Y466878D01*
X958472Y470697D01*
X962986Y474864D01*
X967500Y479725D01*
X972013Y485280D01*
X976527Y491530D01*
X980694Y498127D01*
X984166Y505072D01*
X987638Y513058D01*
X987986Y513405D01*
X988333Y515141D01*
X989027Y517224D01*
X990069Y520349D01*
X991111Y524169D01*
X992152Y528683D01*
X992847Y533891D01*
X993888Y539446D01*
X994583Y545696D01*
X994930Y551946D01*
Y558891D01*
X994236Y565488D01*
X993541Y572779D01*
X991805Y579724D01*
X989722Y587015D01*
X986944Y593960D01*
Y594307D01*
X986597Y594654D01*
X985902Y595696D01*
X985208Y597085D01*
X983124Y600557D01*
X980347Y604723D01*
X976875Y609584D01*
X972708Y614445D01*
X967847Y619306D01*
X962291Y623820D01*
X961597Y624168D01*
X959514Y625556D01*
X956389Y627640D01*
X951875Y630070D01*
X946667Y632848D01*
X940764Y635626D01*
X934167Y638404D01*
X927222Y640487D01*
X926875D01*
X925834Y640834D01*
X924445Y641181D01*
X922361Y641528D01*
X919931Y642223D01*
X917153Y642917D01*
X913681Y643612D01*
X909862Y643959D01*
X901528Y645348D01*
X892153Y646737D01*
X881737Y647431D01*
X871320Y647778D01*
X870973D01*
X869931D01*
X868543D01*
X866459D01*
X864029Y647431D01*
X861251Y647084D01*
X857779D01*
X854307Y646389D01*
X845626Y645348D01*
X836599Y643612D01*
X826529Y641181D01*
X816113Y638056D01*
X815418Y637709D01*
X814029Y637362D01*
X811599Y636320D01*
X808821Y635279D01*
X806043Y633890D01*
X803613Y632501D01*
X801529Y630765D01*
X800141Y629376D01*
Y629029D01*
X799793Y628681D01*
Y627640D01*
X799446Y625904D01*
Y620695D01*
X800141Y616876D01*
X800835Y612015D01*
Y611668D01*
X801182Y610973D01*
Y609932D01*
X801529Y608543D01*
X801877Y606807D01*
X802224Y604723D01*
X802918Y599515D01*
X803613Y593612D01*
X803960Y587015D01*
X803613Y580071D01*
X802918Y572779D01*
Y572085D01*
X802571Y571043D01*
Y569654D01*
X801877Y565835D01*
X800835Y560974D01*
X799446Y555418D01*
X797363Y548821D01*
X795280Y541877D01*
X792155Y534933D01*
X791807Y534585D01*
X791460Y533544D01*
Y533196D01*
X791113Y532849D01*
X790766Y531460D01*
X790418Y531113D01*
X789377Y529724D01*
X787988Y527641D01*
X785905Y525210D01*
X783821Y522433D01*
X781044Y519308D01*
X774794Y512363D01*
X774446Y512016D01*
X773405Y510975D01*
X771321Y509933D01*
X768891Y508197D01*
X765766Y506808D01*
X761947Y505766D01*
X757780Y504725D01*
X752919Y504377D01*
X752225D01*
X750489D01*
X747711Y504725D01*
X744239Y505419D01*
X740419Y506461D01*
X736600Y508197D01*
X733128Y510280D01*
X729655Y513058D01*
X729308Y513405D01*
X728267Y514794D01*
X726530Y516877D01*
X724794Y519308D01*
X722364Y522433D01*
X720281Y526252D01*
X717850Y530071D01*
X715767Y534238D01*
Y534585D01*
X715419Y535280D01*
X714725Y536669D01*
X714031Y538405D01*
X713336Y540835D01*
X712294Y543613D01*
X711600Y546391D01*
X710558Y549863D01*
X708475Y557502D01*
X707086Y565835D01*
X706045Y574515D01*
X705697Y583543D01*
Y584585D01*
X706045Y585974D01*
Y587710D01*
X706392Y589793D01*
X706739Y592571D01*
X708128Y598473D01*
X710211Y605765D01*
X713336Y613751D01*
X717503Y622431D01*
X720281Y626598D01*
X723058Y631112D01*
X723406Y631459D01*
X723753Y632154D01*
X724447Y633195D01*
X725489Y634931D01*
X726878Y638404D01*
X727225Y640140D01*
X727572Y641876D01*
Y642223D01*
X727225Y642570D01*
X726530Y644653D01*
X725489Y645695D01*
X724100Y647431D01*
X722364Y648820D01*
X720281Y650556D01*
X719933D01*
X719239Y651251D01*
X718197Y651945D01*
X716461Y652987D01*
X714378Y654028D01*
X712294Y655417D01*
X706392Y658542D01*
X699795Y662014D01*
X692156Y665487D01*
X683823Y668959D01*
X675142Y671736D01*
X674795D01*
X674100Y672084D01*
X672712Y672431D01*
X670975Y672778D01*
X668892Y673125D01*
X666462Y673473D01*
X663684Y674167D01*
X660212Y674514D01*
X652920Y675209D01*
X644934Y675556D01*
X635906D01*
X626532Y674514D01*
X626184D01*
X625837D01*
X624795Y674167D01*
X623407Y673820D01*
X619935Y673125D01*
X615768Y671389D01*
X610560Y669653D01*
X605351Y666875D01*
X600143Y663403D01*
X595282Y659237D01*
X594935Y658542D01*
X593546Y657153D01*
X591463Y654376D01*
X589032Y650903D01*
X586602Y646389D01*
X584518Y641181D01*
X582435Y635279D01*
X581393Y628681D01*
Y622779D01*
X581740Y618265D01*
X582435Y613404D01*
X584171Y607501D01*
X586602Y601251D01*
X590074Y594654D01*
Y594307D01*
X590421Y593960D01*
X591810Y591876D01*
X594240Y588751D01*
X597018Y584932D01*
X600838Y580765D01*
X605004Y576946D01*
X609518Y573474D01*
X614726Y570696D01*
X615073D01*
X616115Y570349D01*
X617851Y570001D01*
X619935Y569654D01*
X622365D01*
X624795D01*
X627226Y570349D01*
X629309Y571390D01*
X629657Y571738D01*
X630351Y572085D01*
X631393Y573126D01*
X632434Y574515D01*
X633823Y576599D01*
X634518Y578682D01*
X635212Y581460D01*
Y587710D01*
X634518Y590835D01*
X633823Y594654D01*
Y595001D01*
X633476Y595348D01*
X632782Y597779D01*
X632087Y600904D01*
X630698Y604029D01*
Y604376D01*
X630351Y605070D01*
Y606459D01*
X630004Y608195D01*
Y617570D01*
X630351Y618612D01*
X630698Y620001D01*
X631393Y621390D01*
X632434Y623126D01*
X633823Y624862D01*
X635906Y626598D01*
X636254Y626945D01*
X636948Y627293D01*
X637990Y627987D01*
X639726Y628681D01*
X643545Y630418D01*
X645976Y630765D01*
X648406Y631112D01*
X648754D01*
X649448D01*
X650837Y630765D01*
X652573D01*
X656392Y629723D01*
X660559Y627987D01*
X660906Y627640D01*
X661948Y627293D01*
X663684Y626598D01*
X665767Y625209D01*
X668198Y623820D01*
X670628Y621737D01*
X673059Y619306D01*
X675142Y616529D01*
X675489Y616181D01*
X675837Y615140D01*
X676531Y613404D01*
X677573Y611320D01*
X678614Y608890D01*
X679656Y606112D01*
X681045Y599862D01*
Y598821D01*
X681392Y597779D01*
Y596390D01*
X681739Y594307D01*
Y592224D01*
X682086Y586668D01*
Y573474D01*
X681392Y566182D01*
X680350Y558891D01*
Y558543D01*
X680003Y557849D01*
Y556807D01*
X679656Y555418D01*
X678267Y551946D01*
X676878Y547085D01*
X674448Y541530D01*
X671323Y535280D01*
X667503Y529030D01*
X662990Y522780D01*
X662295Y522085D01*
X660906Y520349D01*
X658476Y517919D01*
X655004Y515141D01*
X651184Y512016D01*
X646670Y509238D01*
X641809Y506808D01*
X636601Y505072D01*
X635906D01*
X634518Y504725D01*
X631740Y504377D01*
X628268Y504725D01*
X624101Y505419D01*
X618893Y506808D01*
X613685Y508891D01*
X607782Y512363D01*
X607087Y512711D01*
X605351Y514099D01*
X602226Y516183D01*
X598407Y518613D01*
X593893Y521738D01*
X588685Y525558D01*
X583477Y529377D01*
X577921Y533544D01*
X577227Y533891D01*
X575491Y535280D01*
X572713Y537710D01*
X568894Y540488D01*
X564727Y543960D01*
X559866Y547780D01*
X554658Y552293D01*
X549449Y556807D01*
X549102Y557155D01*
X548060Y558196D01*
X545977Y559585D01*
X543546Y561668D01*
X540422Y564446D01*
X536949Y567571D01*
X532783Y571390D01*
X528269Y575210D01*
X523408Y579724D01*
X518200Y584238D01*
X507089Y594654D01*
X494936Y605765D01*
X482783Y617223D01*
X482436Y617570D01*
X481395Y618612D01*
X479658Y620348D01*
X477228Y622779D01*
X474450Y625556D01*
X470978Y629029D01*
X467159Y632848D01*
X462992Y637015D01*
X458478Y641876D01*
X453270Y646737D01*
X442853Y657848D01*
X431742Y670000D01*
X420631Y682500D01*
X420284Y682847D01*
X419590Y683195D01*
X418895Y684236D01*
X418201Y685278D01*
X417854Y685625D01*
X417506Y686667D01*
X416465Y688056D01*
X415423Y689792D01*
X415770Y690139D01*
X417159Y691875D01*
X419243Y693958D01*
X421673Y697083D01*
X424451Y700555D01*
X427576Y704722D01*
X434520Y713055D01*
X434867Y713403D01*
X436256Y715139D01*
X438340Y717222D01*
X441117Y720000D01*
X444242Y723472D01*
X447714Y727291D01*
X455006Y735624D01*
X455700Y736319D01*
X457089Y738055D01*
X459867Y740833D01*
X463339Y744305D01*
X467853Y748819D01*
X473061Y754374D01*
X478964Y760624D01*
X485908Y767221D01*
X493200Y774513D01*
X500839Y782152D01*
X509172Y790485D01*
X517852Y798818D01*
X536255Y816526D01*
X555352Y834234D01*
X556046Y834929D01*
X557783Y836318D01*
X560560Y838748D01*
X564380Y842220D01*
X569241Y846387D01*
X574796Y851595D01*
X581393Y857151D01*
X588685Y863401D01*
X596324Y869998D01*
X605004Y876942D01*
X613685Y884581D01*
X623060Y892220D01*
X632782Y900206D01*
X642851Y908192D01*
X663684Y924164D01*
X664031Y924511D01*
X665073Y925206D01*
X666462Y926247D01*
X668545Y927636D01*
X670975Y929719D01*
X673753Y931803D01*
X677225Y934233D01*
X681045Y937011D01*
X689725Y942914D01*
X699100Y949511D01*
X709517Y956455D01*
X720281Y963400D01*
X720628Y963747D01*
X721669Y964094D01*
X723406Y965136D01*
X725489Y966525D01*
X728267Y967913D01*
X731392Y969649D01*
X735211Y971733D01*
X739378Y973816D01*
X743891Y976247D01*
X748752Y978330D01*
X759169Y983191D01*
X770627Y988052D01*
X782780Y992566D01*
X783127D01*
X784516Y992913D01*
X786599Y993607D01*
X789724Y994302D01*
X793196Y995344D01*
X797363Y996385D01*
X802224Y997427D01*
X807432Y998468D01*
X813335Y999857D01*
X819238Y1000899D01*
X832432Y1002635D01*
X846321Y1004024D01*
X860557Y1004718D01*
X860904D01*
X861251D01*
X862293D01*
X863681D01*
X866806D01*
X871320Y1004371D01*
D02*
G37*
%LPC*%
G36*
X858473Y952289D02*
X856043D01*
X853265D01*
X850140D01*
X846668D01*
X842501D01*
X837987D01*
X833474Y951941D01*
X823057Y951247D01*
X812293Y949858D01*
X800835Y947428D01*
X800141Y947080D01*
X798057Y946733D01*
X794932Y946039D01*
X790418Y944650D01*
X784863Y943261D01*
X778613Y941178D01*
X771669Y939094D01*
X764030Y936317D01*
X755697Y933192D01*
X746669Y929719D01*
X737641Y925900D01*
X728267Y921733D01*
X718544Y917219D01*
X709169Y912011D01*
X699795Y906456D01*
X690420Y900553D01*
X689725Y900206D01*
X688336Y898817D01*
X685559Y897081D01*
X682086Y894303D01*
X677920Y891178D01*
X672712Y887359D01*
X667156Y882498D01*
X660906Y877290D01*
X654309Y871734D01*
X647018Y865484D01*
X639726Y858540D01*
X632434Y851248D01*
X624795Y843262D01*
X616810Y835276D01*
X609518Y826596D01*
X601879Y817568D01*
X601532Y817221D01*
X601185Y816526D01*
X600143Y815137D01*
X598754Y813401D01*
X597365Y811318D01*
X595629Y808887D01*
X592504Y803332D01*
X592157Y802985D01*
X591810Y801943D01*
X590768Y800554D01*
X589379Y798818D01*
X586602Y793957D01*
X583477Y788749D01*
Y788402D01*
X583129Y787707D01*
X582782Y786318D01*
X582088Y784930D01*
X581740Y782846D01*
X581046Y780416D01*
X580352Y774513D01*
X580004Y767916D01*
X580699Y760624D01*
X581740Y756805D01*
X582782Y752638D01*
X584518Y748819D01*
X586602Y744999D01*
Y744652D01*
X587296Y743958D01*
X587990Y742916D01*
X589032Y741527D01*
X591810Y738055D01*
X595976Y734236D01*
X601185Y730069D01*
X607782Y726597D01*
X615421Y723819D01*
X619935Y722777D01*
X624448Y722430D01*
X625143D01*
X626532D01*
X628962D01*
X632087D01*
X635559D01*
X639726Y722777D01*
X648406Y723819D01*
X649101D01*
X650490Y724513D01*
X652573Y725208D01*
X655698Y725902D01*
X659170Y727291D01*
X662990Y728333D01*
X671670Y731805D01*
X672017D01*
X672364Y732152D01*
X673406Y732847D01*
X674795Y733541D01*
X678267Y735972D01*
X682434Y739444D01*
X687295Y744305D01*
X692156Y750208D01*
X694586Y753680D01*
X696670Y757499D01*
X699100Y761666D01*
X701183Y766180D01*
Y766527D01*
X701531Y767221D01*
X702225Y768610D01*
X702920Y770346D01*
X703614Y772430D01*
X704308Y775207D01*
X705697Y781110D01*
X706392Y788054D01*
X706045Y795693D01*
X705697Y799513D01*
X704656Y803332D01*
X703267Y807499D01*
X701183Y811318D01*
Y811665D01*
X700836Y812707D01*
X700142Y814096D01*
X699100Y815485D01*
Y815832D01*
X698753Y816873D01*
X698406Y818610D01*
X697711Y820693D01*
X697364Y821387D01*
X697017Y823123D01*
X696322Y826248D01*
X695975Y830068D01*
Y834234D01*
X696670Y839096D01*
X698058Y843957D01*
X700489Y848818D01*
X700836Y849512D01*
X701878Y850901D01*
X703614Y852984D01*
X706045Y855762D01*
X709517Y858540D01*
X713336Y860970D01*
X718197Y863401D01*
X723753Y864790D01*
X724100D01*
X724447D01*
X726183Y865137D01*
X729308D01*
X733128Y865484D01*
X737294D01*
X741808Y864790D01*
X746669Y864095D01*
X751530Y862706D01*
X752225Y862359D01*
X753613Y862012D01*
X756391Y860623D01*
X759516Y859234D01*
X762988Y856804D01*
X766808Y854026D01*
X770974Y850901D01*
X774794Y846734D01*
X775141Y846040D01*
X776530Y844304D01*
X778266Y841873D01*
X780349Y838401D01*
X782432Y834234D01*
X784516Y829721D01*
X785905Y824512D01*
X786946Y819304D01*
Y818610D01*
X787294Y816873D01*
X787641Y813749D01*
Y805762D01*
X787294Y800554D01*
X786599Y794999D01*
X785557Y789443D01*
Y789096D01*
X785210Y788402D01*
X784863Y787013D01*
X784516Y785277D01*
X783821Y783193D01*
X783127Y780763D01*
X781391Y774860D01*
X778613Y767916D01*
X775141Y760971D01*
X770627Y753680D01*
X765419Y746388D01*
Y746041D01*
X764724Y745694D01*
X764030Y744652D01*
X762988Y743263D01*
X759863Y739791D01*
X755697Y735624D01*
X750489Y730416D01*
X744933Y724861D01*
X738336Y719305D01*
X731044Y713750D01*
X730697D01*
X730350Y713403D01*
X729308Y712708D01*
X727919Y712014D01*
X724794Y709930D01*
X720975Y707153D01*
X720628D01*
X719933Y706805D01*
X719239Y706111D01*
X717850Y705069D01*
X714378Y702986D01*
X710906Y699861D01*
X711600Y699514D01*
X713336Y698472D01*
X716114Y697083D01*
X719933Y695347D01*
X724100Y692917D01*
X728961Y690486D01*
X739030Y685278D01*
X739725Y684931D01*
X741461Y684236D01*
X743891Y682847D01*
X747364Y681459D01*
X751530Y679375D01*
X756044Y677292D01*
X760905Y674861D01*
X766113Y672431D01*
X766460Y672084D01*
X767502Y671736D01*
X768891Y671389D01*
X770974Y671736D01*
X771321D01*
X771669D01*
X773058D01*
X775141Y672431D01*
X776877Y673125D01*
X777571Y673473D01*
X779308Y674167D01*
X782432Y675209D01*
X785905Y676945D01*
X790418Y679028D01*
X795280Y681111D01*
X806043Y686320D01*
X806738Y686667D01*
X808474Y687361D01*
X811252Y688750D01*
X815071Y690486D01*
X819585Y692222D01*
X824446Y694653D01*
X830001Y697083D01*
X835904Y699861D01*
X835557Y700555D01*
X834515Y701944D01*
X833126Y704375D01*
X832085Y706458D01*
X831738Y707153D01*
X831043Y708541D01*
X830001Y710625D01*
X828613Y713055D01*
X828265Y713403D01*
X827571Y714791D01*
X826529Y716875D01*
X825140Y719652D01*
X823752Y723125D01*
X822015Y727291D01*
X820627Y731805D01*
X818890Y737013D01*
X817502Y742916D01*
X816460Y749166D01*
X815418Y755416D01*
X815071Y762360D01*
Y769652D01*
X815765Y776944D01*
X817154Y784582D01*
X819238Y792221D01*
Y792568D01*
X819932Y793957D01*
X820627Y796040D01*
X821668Y799165D01*
X823057Y802290D01*
X824793Y806457D01*
X826876Y810624D01*
X829654Y815485D01*
X832432Y820346D01*
X835557Y825554D01*
X839029Y830762D01*
X842849Y835971D01*
X847362Y841179D01*
X851876Y846040D01*
X857084Y850554D01*
X862640Y854720D01*
X862987Y855068D01*
X864376Y855762D01*
X866112Y856804D01*
X868543Y858193D01*
X871667Y859929D01*
X874792Y861317D01*
X878612Y863054D01*
X882431Y864095D01*
X882778D01*
X884167Y864442D01*
X886598Y864790D01*
X889376Y865484D01*
X892501D01*
X896320Y865831D01*
X900487Y865484D01*
X904653Y864790D01*
X905348D01*
X906737Y864442D01*
X909167Y863748D01*
X912292Y862706D01*
X915764Y861317D01*
X919584Y859581D01*
X923056Y857498D01*
X926528Y854720D01*
X926875Y854373D01*
X927917Y853331D01*
X929653Y851595D01*
X931389Y849512D01*
X933472Y846387D01*
X935556Y842915D01*
X937292Y838748D01*
X939028Y834234D01*
Y833887D01*
X939375Y832151D01*
X939722Y830068D01*
X940070Y827290D01*
Y821040D01*
X939028Y817568D01*
X937639Y814096D01*
X937292Y813749D01*
X936597Y812360D01*
X935556Y810624D01*
X933820Y808540D01*
X932084Y806110D01*
X929653Y803332D01*
X926875Y800554D01*
X923750Y798124D01*
X923403Y797776D01*
X922709Y797082D01*
X921320Y796388D01*
X919584Y794999D01*
X915417Y791874D01*
X910556Y788749D01*
X910209Y788402D01*
X909167Y788054D01*
X907778Y787013D01*
X906042Y785971D01*
X901528Y783193D01*
X896667Y780068D01*
X896320Y779721D01*
X894931Y778332D01*
X892848Y776596D01*
X890764Y774166D01*
X888334Y771041D01*
X885903Y767569D01*
X883820Y763749D01*
X882431Y759583D01*
Y758888D01*
X882084Y757499D01*
X881737Y755069D01*
Y748124D01*
X882431Y744305D01*
X883473Y739791D01*
X885209Y735624D01*
X885556Y734930D01*
X886598Y733194D01*
X888681Y730763D01*
X891112Y727986D01*
X894237Y724861D01*
X898403Y721736D01*
X903264Y719305D01*
X908473Y717569D01*
X908820D01*
X909167D01*
X911250Y717222D01*
X914375Y716875D01*
X918542D01*
X923056Y717569D01*
X928264Y718611D01*
X934167Y720694D01*
X939722Y723819D01*
X940070Y724166D01*
X941111Y724861D01*
X942847Y725902D01*
X944930Y727638D01*
X947708Y729722D01*
X950486Y732152D01*
X953958Y734930D01*
X957778Y738402D01*
X961250Y741874D01*
X965416Y746041D01*
X973055Y754722D01*
X980694Y765138D01*
X983819Y770346D01*
X986944Y776249D01*
X987291Y776596D01*
X987638Y777638D01*
X988333Y779374D01*
X989027Y781805D01*
X990069Y784930D01*
X991111Y788402D01*
X992152Y792568D01*
X993194Y797082D01*
X994236Y802290D01*
X994930Y807846D01*
X995277Y813749D01*
X995624Y820346D01*
X995277Y827290D01*
X994930Y834234D01*
X993888Y841873D01*
X992152Y849512D01*
Y849859D01*
X991805Y850901D01*
X991458Y852290D01*
X990763Y854373D01*
X990069Y857151D01*
X989027Y859929D01*
X987638Y863401D01*
X986249Y866873D01*
X982777Y874859D01*
X977916Y883192D01*
X972013Y891873D01*
X965069Y899859D01*
X964722Y900206D01*
X964027Y900553D01*
X962986Y901942D01*
X961597Y903331D01*
X959861Y904720D01*
X957430Y906803D01*
X952222Y911664D01*
X945278Y916872D01*
X937639Y922775D01*
X928959Y928678D01*
X919236Y934233D01*
X918889D01*
X917848Y934928D01*
X916459Y935622D01*
X914375Y936664D01*
X911945Y937705D01*
X908820Y939094D01*
X905695Y940483D01*
X901876Y942219D01*
X897709Y943608D01*
X893195Y945344D01*
X883126Y948122D01*
X872362Y950553D01*
X861251Y951941D01*
X860904D01*
X859862D01*
X858473Y952289D01*
D02*
G37*
G36*
X531394Y748819D02*
Y748472D01*
X530700Y748124D01*
X528963Y746041D01*
X525838Y743263D01*
X522366Y739444D01*
X517852Y735277D01*
X513339Y730416D01*
X503616Y720347D01*
X502922Y719652D01*
X501533Y717916D01*
X499103Y715486D01*
X495630Y712361D01*
X491811Y708194D01*
X487644Y704028D01*
X478964Y695000D01*
X478617Y694306D01*
X477575Y692917D01*
X476186Y690833D01*
X474797Y688403D01*
Y688056D01*
X474450Y687708D01*
Y684931D01*
X474797Y683542D01*
X475839Y682500D01*
X476881Y681111D01*
X477575Y680417D01*
X478964Y678681D01*
X481742Y676250D01*
X484867Y673125D01*
X489033Y668959D01*
X493200Y664792D01*
X502922Y655764D01*
X503616Y655070D01*
X505005Y653681D01*
X507436Y650903D01*
X510561Y647778D01*
X514380Y643959D01*
X518547Y639792D01*
X527575Y631112D01*
X527922Y631806D01*
X529311Y633542D01*
X531047Y636667D01*
X533477Y640487D01*
X536255Y645001D01*
X539380Y649862D01*
X545977Y660625D01*
X546324Y661320D01*
X547713Y663056D01*
X549449Y665834D01*
X551880Y669653D01*
X554658Y674167D01*
X557783Y679028D01*
X564727Y689792D01*
X564032Y690139D01*
X562296Y691528D01*
X559866Y693611D01*
X556741Y696389D01*
X553269Y700208D01*
X549796Y704028D01*
X545977Y708889D01*
X542852Y713750D01*
X542505Y714444D01*
X541463Y716180D01*
X540074Y719305D01*
X538338Y723472D01*
X536602Y728333D01*
X534519Y734236D01*
X532783Y741180D01*
X531394Y748819D01*
D02*
G37*
G36*
X762294Y606807D02*
X761947Y606459D01*
X760558Y605070D01*
X758475Y602987D01*
X755697Y600210D01*
X752919Y596390D01*
X750141Y592224D01*
X747364Y587015D01*
X744933Y581460D01*
Y581113D01*
X744586Y580765D01*
X744239Y579029D01*
X743197Y575904D01*
X742503Y572432D01*
X741808Y567918D01*
X741461Y563404D01*
X741808Y558543D01*
X742850Y554030D01*
Y553682D01*
X743544Y552988D01*
X743891Y551599D01*
X744933Y550210D01*
X747364Y547432D01*
X749100Y546044D01*
X750836Y545349D01*
X751183D01*
X751530Y545002D01*
X752572D01*
X753961D01*
X755350D01*
X757086Y545696D01*
X758822Y547085D01*
X760905Y548821D01*
X761252Y549168D01*
X762641Y550557D01*
X764377Y552988D01*
X766460Y556113D01*
X768197Y560279D01*
X769933Y565140D01*
X771321Y570696D01*
X771669Y577293D01*
Y580418D01*
X771321Y583543D01*
X770974Y587710D01*
X769933Y592571D01*
X768197Y597432D01*
X765766Y602293D01*
X762294Y606807D01*
D02*
G37*
%LPD*%
M02*
