M48
;Layer_Color=9474304
;FILE_FORMAT=4:4
METRIC,LZ
;TYPE=PLATED
T1F00S00C0.2540
T3F00S00C0.6000
T5F00S00C2.8000
;TYPE=NON_PLATED
T6F00S00C0.6500
T7F00S00C2.3876
T8F00S00C3.1750
T9F00S00C3.4544
%
T01
X00589Y00373
X00755Y00392
X00819Y00386
X00827Y0039
X00833Y00382
X00955Y00280998
Y00270998
Y00260998
Y00250998
Y00240998
X00965
Y00250998
Y00260998
Y00270998
Y00280998
X00975
X00985
Y00270998
X00975
Y00260998
X00985
Y00250998
X00975
Y00240998
X00985
X00995
Y00250998
Y00260998
Y00270998
Y00280998
X01005
Y00270998
Y00260998
Y00250998
Y00240998
X01065Y00305
X01055Y00319
X01104Y00361
X01196Y00366
X01357Y00325
X0136Y00280998
X0137
X0138
X0139
X014
X0141
Y00270998
Y00260998
Y00250998
Y00240998
X014
Y00250998
Y00260998
Y00270998
X0139
Y00260998
X0138
Y00270998
X0137
Y00260998
Y00250998
X0138
X0139
Y00240998
X0138
X0137
X0136
Y00250998
Y00260998
Y00270998
X0147Y00305
X01509Y00371
X016Y00376
X01766Y00331
X01765Y00279998
Y00269998
Y00259998
Y00249998
Y00239998
X01775
Y00249998
Y00259998
Y00269998
Y00279998
X01785
X01795
Y00269998
X01785
Y00259998
X01795
Y00249998
X01785
Y00239998
X01795
X01805
Y00249998
Y00259998
Y00269998
Y00279998
X01815
Y00269998
Y00259998
Y00249998
Y00239998
X01875Y00305
X01913Y00381
X02007Y00386
X02166Y00337
X0217Y00279998
Y00269998
Y00259998
Y00249998
Y00239998
X0218
Y00249998
Y00259998
Y00269998
Y00279998
X0219
X022
Y00269998
X0219
Y00259998
X022
Y00249998
X0219
Y00239998
X022
X0221
Y00249998
Y00259998
Y00269998
Y00279998
X0222
Y00269998
Y00259998
Y00249998
Y00239998
X0228Y00305
X02318Y00391
X02411Y00396
X02569Y00343
X02575Y00279998
Y00269998
Y00259998
Y00249998
Y00239998
X02585
Y00249998
Y00259998
Y00269998
Y00279998
X02595
X02605
Y00269998
X02595
Y00259998
X02605
Y00249998
X02595
Y00239998
X02605
X02615
Y00249998
Y00259998
Y00269998
Y00279998
X02625
Y00269998
Y00259998
Y00249998
Y00239998
X02685Y00305
X0298Y00279998
Y00269998
Y00259998
Y00249998
Y00239998
X0299
Y00249998
Y00259998
Y00269998
Y00279998
X03
X0301
Y00269998
X03
Y00259998
X0301
Y00249998
X03
Y00239998
X0301
X0302
Y00249998
Y00259998
Y00269998
Y00279998
X0303
Y00269998
Y00259998
Y00249998
Y00239998
X0309Y00305
X02975Y00349
X03181Y00355
X03312Y00422
X03319Y00416
X03128Y00428
X03121Y00422
X02824
X02817Y00433
X02724Y00437
X02717Y00422
X02418
X02312
X02013
X01907
X01608
X01502
X01203
X01096
X00948
X00895Y00443
X00895Y00449
Y00456
Y00463
Y0047
Y00477
Y00484
X00895Y00491
Y00498
X00895Y00505
Y00512
Y00519
Y00526
Y00533
Y0054
Y00547
X00875
X00867Y00561
X00879Y00566
X00833Y00517
X00828Y00522
X00811Y00468
X00812Y00457
X00827Y00445
X00819Y00429
X00826Y00643
X00832Y00664
X0082Y00669
X00832Y00687
X00838Y00708
Y00731
X00844Y00755
Y00775
X0081Y0077
X00815Y00713
X00747Y00717
Y00761
X00741Y00673
X00707Y0064
X0069Y00627
X00712Y00609
X0072Y00587
X00739
X00726Y00571
X00731Y00534
X00737Y00539
X00743Y00545
X00725Y00529
X00719Y00524
X00713Y00519
Y0051
Y00503
X00717Y00497
X00713Y00491
X00717Y00484
X00713Y00478
X00717Y00471
X00713Y00465
Y00432
X00718Y00427
X00704Y00412
X00738Y00417
X00743Y00422
X0075Y00417
X00755Y00412
Y00422
X0075Y00427
Y00437
X00755Y00432
Y00402
X00761Y00397
Y00407
X00685Y00437
X00681Y00478
Y00486
Y00496
Y00504
Y00512
X00656Y0051
X00651Y00504
X00646Y00497
X0065Y00491
X00641Y00491
X00636Y00484
X00631Y00478
X00626Y00471
X00631Y00465
X00626Y00432
X00631Y00427
X00627Y00412
X00642Y00417
X00647Y00422
X00596Y00471
Y00497
X0058Y0052
X00576Y00532
X00567Y00538
X00576Y00565
X006Y00549
X00616Y00532
X00542Y00526
X00536Y00545
X00521Y00532
Y00514
Y00493
X00474Y00485
Y00449
X00468Y00433
X00462Y00426
X00474Y00412
X00501
X00527
X00553Y00412
X00554Y00448
X00452Y00443
X00447Y00438
X00431Y00457
Y00412
X00436Y00403
X00398Y00431
X00462Y00539
X00457Y00549
X00458Y00635
X00453Y0064
Y0065
X00453Y0066
X00459Y00655
Y00645
X00468Y0067
X00447Y00678
X00436
X00426Y0067
X00416Y0066
X00406Y0062
X00411Y00615
X00421Y00721
X00432
X00446Y00713
X00437Y00749
X00426
X00421Y00778
X00496Y00767
X00505Y00757
X00484Y00751
X00479Y00746
X00501Y00716
Y0065
X00506Y00655
X00511Y0064
X00516Y00645
X00521Y00635
Y00608
Y0059
X00548Y00578
X00567Y00618
X00576Y00646
X00581Y00663
X00567Y0068
X00576Y0069
X00586Y00707
X00567Y00724
X00576Y00734
X00591Y00751
X00567Y00768
X00576Y00778
X00536Y0066
X00381Y00655
X00376Y0065
X00371Y00645
X00366Y0064
X00319Y00636
X00316Y00587
X00346Y00599
X0036Y00594
X00276Y0058
X00325Y00494
X00375
Y00481
X00335Y00684
X00346Y00702
X00324Y00721
X00336Y00738
X00333Y00776
X00338Y00781
X00314Y00771
X00319Y00766
X00309Y00786
X00287Y00726
X00378Y00746
X00374Y00752
X00396Y00757
X00359Y00796
Y0082
X00366
X00349Y00819
X00304Y00822
X00299Y00801
X00317
X00282Y00796
X00285Y00857
X00321Y00844
X00372Y00857
X00377Y0116
X00367Y01167
X00315Y0116
X00429Y01167
X00438Y0116
X00467Y0114
X00491Y01167
X005Y0116
X00553Y01167
X00567Y01163
X00576Y0113
X00567Y01119
Y01075
X00576Y01083
Y01042
X00567Y01031
X00576Y00998
X00567Y00987
X00576Y00954
X00567Y00943
X00576Y0091
X00567Y00899
X00576Y00866
X00567Y00856
X00576Y00822
X00567Y00812
X00596Y00795
X00601Y00839
X00606Y00883
X00611Y00927
X00616Y00971
X00636Y01015
X00631Y01059
X00626Y01103
X00621Y01147
X00747Y01157
X00765Y01147
X0077Y01121
X00747Y01113
Y01069
X00775Y01078
X0078Y01034
X00747Y01025
Y00981
Y00937
Y00893
Y00849
Y00805
X0079Y00946
X00785Y0099
X00535Y0091
X0053Y00905
X00518Y00889
X00506Y00877
Y0087
X00499Y00877
X00423Y00874
X00402
X00414Y00857
X00411Y00818
X00469Y00817
X00461Y00797
X00805Y00814
X008Y00858
X00795Y00902
X00862Y00907
X00867Y00951
X00874Y00995
X0088Y01039
X00886Y01083
X00892Y01127
X00941Y01122
X00948Y01121
Y01114
X00959Y01107
X00959Y01164
X00948
X01003Y01164
X01013Y01079
X01152Y01158
X00856Y00863
X0085Y00818
X01286Y01074
X01295Y01164
X01409
X01418Y01069
X01555Y01152
X01701Y01164
X01692Y01064
X01823Y01059
X01813Y01164
X0196Y01146
X02107Y01164
X02218
X02228Y01049
X02097Y01054
X02365Y0114
X02512Y01164
X02623
X02769Y01134
X02633Y00955
X02502Y0099
X02907Y0096
X03038Y00965
X03028Y01164
X02917
X03175Y01128
X03322Y01164
X03312Y0097
T03
X0042Y00395
X00909Y00593
Y00627
X00732Y00465
X0065Y00464
X00405Y00525
X00453Y00694
X00403Y00744
X00356Y00661
X0033Y0083
X00338Y0087
X00322Y00901
X00305Y0117
X00524Y01124
X00486Y01031
X00442Y01007
X00427Y0094
X004Y0096
Y0092
X00484Y00889
X00495Y0085
Y00824
X00465Y0084
X0054
Y0087
X00518Y00935
X00513Y00949
X03367Y01174
T05
X00433Y002795
Y003515
T06
X0032919Y00471
Y00531
T07
X01327Y01105
X01732Y01105
X02137Y01105
X02542Y01105
X02947
X03352Y01105352
T08
X03175Y0047
X0277Y00469648
X02365
X0196Y00469648
X01555Y00469648
X0115Y00469648
Y01022352
X01555Y01022352
X0196Y01022352
X02365Y01022352
X0277
X03175Y01022704
T09
X03351Y00470352
X02946Y0047
X02541
X02136Y0047
X01731Y0047
X01326Y0047
X00974Y01022
X01379Y01022
X01784Y01022
X02189Y01022
X02594
X02999Y01022352
M30
