G04*
G04 #@! TF.GenerationSoftware,Altium Limited,Altium Designer,18.1.7 (191)*
G04*
G04 Layer_Color=16711935*
%FSLAX44Y44*%
%MOMM*%
G71*
G01*
G75*
%ADD87C,0.2032*%
%ADD88R,4.2032X4.2032*%
%ADD89O,3.2032X2.2032*%
%ADD90R,2.2032X1.4032*%
%ADD91R,2.5032X1.4032*%
D87*
X3175000Y469648D02*
D03*
Y1022352D02*
D03*
X2999000Y1022000D02*
D03*
X2998000Y387000D02*
D03*
X3351000Y470000D02*
D03*
X2770000Y469648D02*
D03*
Y1022352D02*
D03*
X2594000Y1022000D02*
D03*
X2593000Y387000D02*
D03*
X2946000Y470000D02*
D03*
X1150000Y469648D02*
D03*
Y1022352D02*
D03*
X974000Y1022000D02*
D03*
X973000Y387000D02*
D03*
X1326000Y470000D02*
D03*
X2365000Y469648D02*
D03*
Y1022352D02*
D03*
X2189000Y1022000D02*
D03*
X2188000Y387000D02*
D03*
X2541000Y470000D02*
D03*
X1960000Y469648D02*
D03*
Y1022352D02*
D03*
X1784000Y1022000D02*
D03*
X1783000Y387000D02*
D03*
X2136000Y470000D02*
D03*
X1555000Y469648D02*
D03*
Y1022352D02*
D03*
X1379000Y1022000D02*
D03*
X1378000Y387000D02*
D03*
X1731000Y470000D02*
D03*
X329190Y531000D02*
D03*
Y471000D02*
D03*
X3580000Y469648D02*
D03*
Y1022352D02*
D03*
X3404000Y1022000D02*
D03*
X3403000Y387000D02*
D03*
X3756000Y470000D02*
D03*
D88*
X433000Y351500D02*
D03*
Y279500D02*
D03*
D89*
X373000Y383000D02*
D03*
Y248000D02*
D03*
D90*
X336360Y544200D02*
D03*
Y457700D02*
D03*
D91*
X297760Y544200D02*
D03*
Y457700D02*
D03*
M02*
