G04*
G04 #@! TF.GenerationSoftware,Altium Limited,Altium Designer,18.1.7 (191)*
G04*
G04 Layer_Physical_Order=2*
G04 Layer_Color=16711680*
%FSLAX44Y44*%
%MOMM*%
G71*
G01*
G75*
%ADD11C,0.2000*%
%ADD96C,0.4000*%
%ADD98C,0.5000*%
%ADD99C,1.0000*%
%ADD141R,4.0000X4.0000*%
%ADD142O,3.0000X2.0000*%
%ADD143R,2.0000X1.2000*%
%ADD144R,2.3000X1.2000*%
%ADD145C,1.2000*%
%ADD146C,0.5080*%
%ADD147C,0.4800*%
%ADD148C,1.2700*%
%ADD149R,19.2000X0.9000*%
%ADD150R,300.9000X1.2000*%
%ADD151R,297.0000X9.0000*%
G36*
X361961Y1179730D02*
Y1173000D01*
Y1164000D01*
X362116Y1163220D01*
X362558Y1162558D01*
X363220Y1162116D01*
X364000Y1161961D01*
X519412D01*
Y1130563D01*
X518294Y1129706D01*
X517012Y1128035D01*
X516206Y1126088D01*
X515931Y1124000D01*
X516206Y1121911D01*
X517012Y1119966D01*
X518294Y1118294D01*
X519966Y1117012D01*
X521912Y1116206D01*
X524000Y1115931D01*
X526088Y1116206D01*
X528035Y1117012D01*
X529706Y1118294D01*
X530988Y1119966D01*
X531794Y1121911D01*
X532069Y1124000D01*
X531794Y1126088D01*
X530988Y1128035D01*
X529706Y1129706D01*
X528588Y1130563D01*
Y1161961D01*
X556000D01*
X556780Y1162116D01*
X557442Y1162558D01*
X557884Y1163220D01*
X558039Y1164000D01*
Y1166961D01*
X562896D01*
X563506Y1165691D01*
X562855Y1164717D01*
X562514Y1163000D01*
X562855Y1161283D01*
X562922Y1161184D01*
Y1120816D01*
X562855Y1120717D01*
X562514Y1119000D01*
X562855Y1117283D01*
X562922Y1117184D01*
Y1076816D01*
X562855Y1076717D01*
X562514Y1075000D01*
X562855Y1073283D01*
X562922Y1073184D01*
Y1032816D01*
X562855Y1032717D01*
X562514Y1031000D01*
X562855Y1029283D01*
X562922Y1029184D01*
Y988816D01*
X562855Y988717D01*
X562514Y987000D01*
X562855Y985283D01*
X562922Y985184D01*
Y944816D01*
X562855Y944717D01*
X562514Y943000D01*
X562855Y941283D01*
X562922Y941184D01*
Y900816D01*
X562855Y900717D01*
X562514Y899000D01*
X562855Y897283D01*
X562922Y897184D01*
Y857816D01*
X562855Y857717D01*
X562514Y856000D01*
X562855Y854283D01*
X562922Y854184D01*
Y813816D01*
X562855Y813717D01*
X562514Y812000D01*
X562855Y810283D01*
X562922Y810184D01*
Y769816D01*
X562855Y769717D01*
X562514Y768000D01*
X562855Y766283D01*
X562922Y766184D01*
Y725816D01*
X562855Y725717D01*
X562514Y724000D01*
X562855Y722283D01*
X562922Y722184D01*
Y681816D01*
X562855Y681717D01*
X562514Y680000D01*
X562855Y678283D01*
X562922Y678184D01*
Y619816D01*
X562855Y619717D01*
X562514Y618000D01*
X562855Y616283D01*
X562922Y616184D01*
Y615000D01*
Y540068D01*
X562723Y539771D01*
X562371Y538000D01*
X562723Y536229D01*
X563727Y534727D01*
X565229Y533723D01*
X567000Y533371D01*
X568771Y533723D01*
X570273Y534727D01*
X571277Y536229D01*
X571629Y538000D01*
X571277Y539771D01*
X571078Y540068D01*
Y615000D01*
Y616184D01*
X571145Y616283D01*
X571486Y618000D01*
X571145Y619717D01*
X571078Y619816D01*
Y678184D01*
X571145Y678283D01*
X571486Y680000D01*
X571145Y681717D01*
X571078Y681816D01*
Y722184D01*
X571145Y722283D01*
X571486Y724000D01*
X571145Y725717D01*
X571078Y725816D01*
Y766184D01*
X571145Y766283D01*
X571486Y768000D01*
X571145Y769717D01*
X571078Y769816D01*
Y810184D01*
X571145Y810283D01*
X571486Y812000D01*
X571145Y813717D01*
X571078Y813816D01*
Y854184D01*
X571145Y854283D01*
X571486Y856000D01*
X571145Y857717D01*
X571078Y857816D01*
Y897184D01*
X571145Y897283D01*
X571486Y899000D01*
X571145Y900717D01*
X571078Y900816D01*
Y941184D01*
X571145Y941283D01*
X571486Y943000D01*
X571145Y944717D01*
X571078Y944816D01*
Y985184D01*
X571145Y985283D01*
X571486Y987000D01*
X571145Y988717D01*
X571078Y988816D01*
Y1029184D01*
X571145Y1029283D01*
X571486Y1031000D01*
X571145Y1032717D01*
X571078Y1032816D01*
Y1073184D01*
X571145Y1073283D01*
X571486Y1075000D01*
X571145Y1076717D01*
X571078Y1076816D01*
Y1117184D01*
X571145Y1117283D01*
X571486Y1119000D01*
X571145Y1120717D01*
X571078Y1120816D01*
Y1161184D01*
X571145Y1161283D01*
X571486Y1163000D01*
X571145Y1164717D01*
X570494Y1165691D01*
X571104Y1166961D01*
X950000D01*
Y1162078D01*
X832000D01*
X832000Y1162078D01*
X830439Y1161768D01*
X830012Y1161482D01*
X829000Y1160946D01*
X827988Y1161482D01*
X827561Y1161768D01*
X826000Y1162078D01*
X824439Y1161768D01*
X823116Y1160884D01*
X822232Y1159561D01*
X821922Y1158000D01*
Y1148735D01*
X820652Y1147929D01*
X820000Y1148059D01*
X818829Y1147826D01*
X818427Y1147557D01*
X817163Y1147163D01*
X816171Y1147826D01*
X815000Y1148059D01*
X813829Y1147826D01*
X812837Y1147163D01*
X811573Y1147557D01*
X811170Y1147826D01*
X810000Y1148059D01*
X808829Y1147826D01*
X807837Y1147163D01*
X807163D01*
X806170Y1147826D01*
X805000Y1148059D01*
X803829Y1147826D01*
X802837Y1147163D01*
X802163D01*
X801170Y1147826D01*
X800000Y1148059D01*
X798829Y1147826D01*
X797837Y1147163D01*
X797163D01*
X796170Y1147826D01*
X795000Y1148059D01*
X793829Y1147826D01*
X792837Y1147163D01*
X792163D01*
X791171Y1147826D01*
X790000Y1148059D01*
X788829Y1147826D01*
X787837Y1147163D01*
X787163D01*
X786171Y1147826D01*
X785000Y1148059D01*
X783829Y1147826D01*
X783427Y1147557D01*
X782500Y1147268D01*
X781573Y1147557D01*
X781171Y1147826D01*
X780000Y1148059D01*
X778829Y1147826D01*
X777837Y1147163D01*
X777163D01*
X776171Y1147826D01*
X775000Y1148059D01*
X773829Y1147826D01*
X773427Y1147557D01*
X772500Y1147268D01*
X771573Y1147557D01*
X771171Y1147826D01*
X770000Y1148059D01*
X769329Y1148507D01*
X769277Y1148771D01*
X768273Y1150273D01*
X766771Y1151277D01*
X765000Y1151629D01*
X763229Y1151277D01*
X761727Y1150273D01*
X760723Y1148771D01*
X760671Y1148507D01*
X760000Y1148059D01*
X758829Y1147826D01*
X758427Y1147557D01*
X757163Y1147163D01*
X756170Y1147826D01*
X755000Y1148059D01*
X753829Y1147826D01*
X752837Y1147163D01*
X752174Y1146171D01*
X751941Y1145000D01*
X751941Y589267D01*
X710837Y548163D01*
X710174Y547170D01*
X709941Y546000D01*
X709941Y546000D01*
Y522416D01*
X709727Y522273D01*
X708723Y520771D01*
X708371Y519000D01*
X708723Y517229D01*
X709727Y515727D01*
X710420Y515264D01*
Y513736D01*
X709727Y513273D01*
X708723Y511771D01*
X708371Y510000D01*
X708723Y508229D01*
X709727Y506727D01*
Y506273D01*
X708723Y504771D01*
X708371Y503000D01*
X708723Y501229D01*
X709727Y499727D01*
X711229Y498723D01*
X712657Y498439D01*
X712371Y497000D01*
X712657Y495561D01*
X711229Y495277D01*
X709727Y494273D01*
X708723Y492771D01*
X708371Y491000D01*
X708723Y489229D01*
X709727Y487727D01*
X711229Y486723D01*
X711761Y486617D01*
X712723Y485771D01*
X712620Y485250D01*
X712371Y484000D01*
X712657Y482561D01*
X711229Y482277D01*
X709727Y481273D01*
X708723Y479771D01*
X708371Y478000D01*
X708723Y476229D01*
X709727Y474727D01*
X711229Y473723D01*
X711761Y473617D01*
X712723Y472771D01*
X712620Y472250D01*
X712371Y471000D01*
X712657Y469561D01*
X711229Y469277D01*
X709727Y468273D01*
X708723Y466771D01*
X708371Y465000D01*
X708723Y463229D01*
X709727Y461727D01*
X711229Y460723D01*
X713000Y460371D01*
X714771Y460723D01*
X716273Y461727D01*
X716416Y461941D01*
X764000D01*
X764922Y461185D01*
Y411367D01*
X763652Y410689D01*
X762771Y411277D01*
X761000Y411629D01*
X759229Y411277D01*
X757727Y410273D01*
X757584Y410059D01*
X499059D01*
Y413278D01*
X500329Y414075D01*
X501000Y413941D01*
X638584D01*
X638727Y413727D01*
X640229Y412723D01*
X642000Y412371D01*
X643771Y412723D01*
X645273Y413727D01*
X645416Y413941D01*
X734584D01*
X734727Y413727D01*
X736229Y412723D01*
X738000Y412371D01*
X739771Y412723D01*
X741273Y413727D01*
X741416Y413941D01*
X746584D01*
X746727Y413727D01*
X748229Y412723D01*
X750000Y412371D01*
X751771Y412723D01*
X753273Y413727D01*
X754277Y415229D01*
X754629Y417000D01*
X755000Y417371D01*
X756771Y417723D01*
X758273Y418727D01*
X759277Y420229D01*
X759629Y422000D01*
X759277Y423771D01*
X758273Y425273D01*
X756771Y426277D01*
X756389Y426353D01*
Y427647D01*
X756771Y427723D01*
X758273Y428727D01*
X759277Y430229D01*
X759629Y432000D01*
X759277Y433771D01*
X758273Y435273D01*
X756771Y436277D01*
X755000Y436629D01*
X754629Y437000D01*
X754277Y438771D01*
X753273Y440273D01*
X751771Y441277D01*
X750000Y441629D01*
X748229Y441277D01*
X746727Y440273D01*
X746584Y440059D01*
X688416D01*
X688273Y440273D01*
X686771Y441277D01*
X685000Y441629D01*
X683229Y441277D01*
X681727Y440273D01*
X681584Y440059D01*
X599722D01*
X598925Y441329D01*
X599059Y442000D01*
Y467584D01*
X599273Y467727D01*
X600277Y469229D01*
X600629Y471000D01*
X600277Y472771D01*
X599273Y474273D01*
X597771Y475277D01*
X596000Y475629D01*
X594229Y475277D01*
X592727Y474273D01*
X591723Y472771D01*
X591371Y471000D01*
X591723Y469229D01*
X592727Y467727D01*
X592941Y467584D01*
Y445059D01*
X558842D01*
X558323Y446029D01*
X558297Y446329D01*
X558629Y448000D01*
X558277Y449771D01*
X558078Y450068D01*
Y572000D01*
Y779000D01*
X557768Y780561D01*
X556884Y781884D01*
X555561Y782768D01*
X554000Y783078D01*
X522078D01*
Y886932D01*
X522277Y887229D01*
X522629Y889000D01*
X522277Y890771D01*
X521273Y892273D01*
X519771Y893277D01*
X518000Y893629D01*
X516229Y893277D01*
X514727Y892273D01*
X514595Y892076D01*
X513561Y892768D01*
X512000Y893078D01*
X490954D01*
X489706Y894706D01*
X488035Y895988D01*
X486088Y896794D01*
X484000Y897069D01*
X481912Y896794D01*
X479966Y895988D01*
X478294Y894706D01*
X477012Y893035D01*
X476206Y891088D01*
X475931Y889000D01*
X476206Y886912D01*
X477012Y884966D01*
X478294Y883294D01*
X479922Y882046D01*
Y801078D01*
X463068D01*
X462771Y801277D01*
X461000Y801629D01*
X459229Y801277D01*
X458932Y801078D01*
X390000D01*
X390000Y801078D01*
X388439Y800768D01*
X387116Y799884D01*
X387116Y799884D01*
X379311Y792078D01*
X363367D01*
X362688Y793348D01*
X363277Y794229D01*
X363629Y796000D01*
X363277Y797771D01*
X362273Y799273D01*
X362059Y799416D01*
Y815646D01*
X363329Y816325D01*
X364229Y815723D01*
X366000Y815371D01*
X367771Y815723D01*
X369273Y816727D01*
X370277Y818229D01*
X370629Y820000D01*
X370277Y821771D01*
X369273Y823273D01*
X369059Y823416D01*
Y901941D01*
X526584D01*
X526727Y901727D01*
X528229Y900723D01*
X530000Y900371D01*
X531771Y900723D01*
X533273Y901727D01*
X534277Y903229D01*
X534466Y904182D01*
X534885Y905115D01*
X535818Y905534D01*
X536771Y905723D01*
X538273Y906727D01*
X539277Y908229D01*
X539629Y910000D01*
X539277Y911771D01*
X538273Y913273D01*
X536771Y914277D01*
X535000Y914629D01*
X533229Y914277D01*
X531727Y913273D01*
X531584Y913059D01*
X359000D01*
X357830Y912826D01*
X356837Y912163D01*
X356174Y911171D01*
X355941Y910000D01*
Y823416D01*
X355727Y823273D01*
X354723Y821771D01*
X354548Y820890D01*
X353481Y820790D01*
X353240Y820826D01*
X352273Y822273D01*
X350771Y823277D01*
X349000Y823629D01*
X347229Y823277D01*
X345727Y822273D01*
X344723Y820771D01*
X344371Y819000D01*
X344723Y817229D01*
X344922Y816932D01*
Y788000D01*
X344922Y788000D01*
X344922Y788000D01*
Y780078D01*
X335068D01*
X334771Y780277D01*
X333000Y780629D01*
X331229Y780277D01*
X329727Y779273D01*
X328723Y777771D01*
X328371Y776000D01*
X328723Y774229D01*
X329727Y772727D01*
X331229Y771723D01*
X333000Y771371D01*
X334771Y771723D01*
X335068Y771922D01*
X344922D01*
Y721000D01*
X345232Y719439D01*
X346116Y718116D01*
X347439Y717232D01*
X349000Y716922D01*
X418932D01*
X419229Y716723D01*
X421000Y716371D01*
X422771Y716723D01*
X423068Y716922D01*
X429932D01*
X430229Y716723D01*
X432000Y716371D01*
X433094Y716589D01*
X433424Y716414D01*
X433545Y716047D01*
X433636Y714863D01*
X433174Y714171D01*
X432941Y713000D01*
Y681416D01*
X432727Y681273D01*
X431723Y679771D01*
X431371Y678000D01*
X431723Y676229D01*
X432727Y674727D01*
X433322Y674329D01*
X432937Y673059D01*
X429416D01*
X429273Y673273D01*
X427771Y674277D01*
X426000Y674629D01*
X424229Y674277D01*
X422727Y673273D01*
X421723Y671771D01*
X421371Y670000D01*
X421723Y668229D01*
X422727Y666727D01*
X424229Y665723D01*
X426000Y665371D01*
X427771Y665723D01*
X429273Y666727D01*
X429416Y666941D01*
X439000D01*
X439000Y666941D01*
X440171Y667174D01*
X441163Y667837D01*
X446747Y673421D01*
X447000Y673371D01*
X448771Y673723D01*
X450273Y674727D01*
X451277Y676229D01*
X451629Y678000D01*
X451277Y679771D01*
X450273Y681273D01*
X448771Y682277D01*
X447000Y682629D01*
X445229Y682277D01*
X443727Y681273D01*
X442723Y679771D01*
X442394Y678113D01*
X441860Y677679D01*
X441239Y677841D01*
X440572Y678288D01*
X440277Y679771D01*
X439273Y681273D01*
X439059Y681416D01*
Y709941D01*
X442584D01*
X442727Y709727D01*
X444229Y708723D01*
X446000Y708371D01*
X447771Y708723D01*
X449273Y709727D01*
X450277Y711229D01*
X450629Y713000D01*
X450277Y714771D01*
X449688Y715652D01*
X450367Y716922D01*
X454311D01*
X464922Y706311D01*
Y698078D01*
X459954D01*
X458706Y699706D01*
X457034Y700988D01*
X455088Y701794D01*
X453000Y702069D01*
X450912Y701794D01*
X448965Y700988D01*
X447294Y699706D01*
X446012Y698035D01*
X445206Y696088D01*
X444931Y694000D01*
X445206Y691912D01*
X446012Y689966D01*
X447294Y688294D01*
X448965Y687012D01*
X450912Y686206D01*
X453000Y685931D01*
X455088Y686206D01*
X457034Y687012D01*
X458706Y688294D01*
X459954Y689922D01*
X463831D01*
X464710Y689005D01*
X464010Y672200D01*
X463723Y671771D01*
X463371Y670000D01*
X463723Y668229D01*
X463922Y667932D01*
Y658092D01*
X462652Y657707D01*
X462273Y658273D01*
X460771Y659277D01*
X459000Y659629D01*
X458741Y659577D01*
X457504Y660626D01*
X457277Y661771D01*
X456273Y663273D01*
X454771Y664277D01*
X453000Y664629D01*
X451229Y664277D01*
X449727Y663273D01*
X449584Y663059D01*
X419417D01*
X419273Y663273D01*
X417771Y664277D01*
X416000Y664629D01*
X414229Y664277D01*
X412727Y663273D01*
X411723Y661771D01*
X411371Y660000D01*
X411505Y659329D01*
X410462Y658059D01*
X384417D01*
X384273Y658273D01*
X382771Y659277D01*
X381000Y659629D01*
X379229Y659277D01*
X377727Y658273D01*
X376723Y656771D01*
X376371Y655000D01*
X375182Y654466D01*
X374229Y654277D01*
X372727Y653273D01*
X371723Y651771D01*
X371534Y650818D01*
X371000Y649629D01*
X369229Y649277D01*
X367727Y648273D01*
X366723Y646771D01*
X366371Y645000D01*
X365182Y644466D01*
X364229Y644277D01*
X362727Y643273D01*
X361723Y641771D01*
X361371Y640000D01*
X361505Y639329D01*
X360462Y638059D01*
X327059D01*
Y717584D01*
X327273Y717727D01*
X328277Y719229D01*
X328629Y721000D01*
X328277Y722771D01*
X327273Y724273D01*
X325771Y725277D01*
X324000Y725629D01*
X323329Y725496D01*
X322059Y726538D01*
Y762584D01*
X322273Y762727D01*
X323277Y764229D01*
X323629Y766000D01*
X323277Y767771D01*
X322273Y769273D01*
X320771Y770277D01*
X319818Y770466D01*
X318629Y771000D01*
X318277Y772771D01*
X317273Y774273D01*
X315771Y775277D01*
X314000Y775629D01*
X313329Y775496D01*
X312059Y776538D01*
Y782584D01*
X312273Y782727D01*
X313277Y784229D01*
X313629Y786000D01*
X313277Y787771D01*
X312273Y789273D01*
X310771Y790277D01*
X309000Y790629D01*
X308329Y790495D01*
X307059Y791538D01*
Y818584D01*
X307273Y818727D01*
X308277Y820229D01*
X308629Y822000D01*
X308277Y823771D01*
X307273Y825273D01*
X305771Y826277D01*
X304000Y826629D01*
X302229Y826277D01*
X300727Y825273D01*
X299723Y823771D01*
X299371Y822000D01*
X299723Y820229D01*
X300727Y818727D01*
X300941Y818584D01*
Y806538D01*
X299671Y805495D01*
X299000Y805629D01*
X298348Y805499D01*
X297078Y806542D01*
Y839922D01*
X318407D01*
X319439Y839232D01*
X321000Y838922D01*
X322561Y839232D01*
X323884Y840116D01*
X324768Y841439D01*
X324776Y841479D01*
X325277Y842229D01*
X325629Y844000D01*
X325277Y845771D01*
X324273Y847273D01*
X322771Y848277D01*
X321000Y848629D01*
X319229Y848277D01*
X318932Y848078D01*
X293000D01*
X291439Y847768D01*
X290116Y846884D01*
X289232Y845561D01*
X288922Y844000D01*
Y731542D01*
X287652Y730499D01*
X287000Y730629D01*
X286329Y730495D01*
X285059Y731538D01*
Y792584D01*
X285273Y792727D01*
X286277Y794229D01*
X286629Y796000D01*
X286277Y797771D01*
X285273Y799273D01*
X283771Y800277D01*
X282000Y800629D01*
X281570Y800543D01*
X280588Y801349D01*
Y897412D01*
X314827D01*
X315012Y896965D01*
X316294Y895294D01*
X317966Y894012D01*
X319912Y893206D01*
X322000Y892931D01*
X324088Y893206D01*
X326035Y894012D01*
X327706Y895294D01*
X328988Y896965D01*
X329794Y898912D01*
X330069Y901000D01*
X329794Y903088D01*
X328988Y905034D01*
X327706Y906706D01*
X326035Y907988D01*
X324088Y908794D01*
X322000Y909069D01*
X319912Y908794D01*
X317966Y907988D01*
X316294Y906706D01*
X316204Y906588D01*
X280000D01*
Y1181000D01*
X360691D01*
X361961Y1179730D01*
D02*
G37*
G36*
X950000Y1111078D02*
X920000D01*
X918439Y1110768D01*
X917116Y1109884D01*
X916232Y1108561D01*
X915922Y1107000D01*
X915922Y557078D01*
X890000D01*
X888439Y556768D01*
X887116Y555884D01*
X887116Y555884D01*
X830116Y498884D01*
X829232Y497561D01*
X828922Y496000D01*
X828922Y496000D01*
Y383816D01*
X828855Y383717D01*
X828514Y382000D01*
X828855Y380283D01*
X828964Y380120D01*
X828366Y379000D01*
X809078D01*
Y462458D01*
X810348Y463501D01*
X811000Y463371D01*
X812771Y463723D01*
X814273Y464727D01*
X814671Y465322D01*
X815941Y464937D01*
Y432248D01*
X815828Y432172D01*
X814855Y430717D01*
X814514Y429000D01*
X814855Y427283D01*
X815828Y425828D01*
X817283Y424855D01*
X819000Y424514D01*
X820717Y424855D01*
X822172Y425828D01*
X823145Y427283D01*
X823486Y429000D01*
X823145Y430717D01*
X822172Y432172D01*
X822059Y432248D01*
Y501733D01*
X832866Y512540D01*
X833000Y512514D01*
X834717Y512855D01*
X836172Y513828D01*
X837145Y515283D01*
X837486Y517000D01*
X837145Y518717D01*
X836172Y520172D01*
X834717Y521145D01*
X834533Y521181D01*
X834164Y522397D01*
X868600Y556832D01*
X868717Y556855D01*
X870172Y557828D01*
X871145Y559283D01*
X871486Y561000D01*
X871145Y562717D01*
X870172Y564172D01*
X869666Y564510D01*
X869542Y565774D01*
X900884Y597116D01*
X900884Y597116D01*
X901768Y598439D01*
X902078Y600000D01*
X902078Y1103000D01*
Y1117922D01*
X939184D01*
X939283Y1117855D01*
X941000Y1117514D01*
X942717Y1117855D01*
X944172Y1118828D01*
X945145Y1120283D01*
X945486Y1122000D01*
X945357Y1122652D01*
X946399Y1123922D01*
X950000D01*
Y1111078D01*
D02*
G37*
G36*
X507922Y882542D02*
X506652Y881499D01*
X506000Y881629D01*
X504229Y881277D01*
X503932Y881078D01*
X501068D01*
X500771Y881277D01*
X499000Y881629D01*
X497229Y881277D01*
X495727Y880273D01*
X494723Y878771D01*
X494371Y877000D01*
X494723Y875229D01*
X495727Y873727D01*
X497229Y872723D01*
X499000Y872371D01*
X500652Y872700D01*
X500883Y872662D01*
X501384Y872384D01*
X501662Y871883D01*
X501700Y871652D01*
X501371Y870000D01*
X501723Y868229D01*
X501922Y867932D01*
Y767000D01*
X501292Y766503D01*
X500629Y767000D01*
X500277Y768771D01*
X499273Y770273D01*
X497771Y771277D01*
X496000Y771629D01*
X494229Y771277D01*
X492727Y770273D01*
X492584Y770059D01*
X389000D01*
X389000Y770059D01*
X387830Y769826D01*
X386837Y769163D01*
X386837Y769163D01*
X374253Y756579D01*
X374000Y756629D01*
X372229Y756277D01*
X370727Y755273D01*
X369723Y753771D01*
X369371Y752000D01*
X369723Y750229D01*
X370727Y748727D01*
X372229Y747723D01*
X373657Y747439D01*
X373371Y746000D01*
X373723Y744229D01*
X374727Y742727D01*
X376229Y741723D01*
X378000Y741371D01*
X379771Y741723D01*
X381273Y742727D01*
X382277Y744229D01*
X382629Y746000D01*
X382579Y746253D01*
X390740Y754414D01*
X392375Y754253D01*
X392727Y753727D01*
X394229Y752723D01*
X396000Y752371D01*
X397771Y752723D01*
X398068Y752922D01*
X478458D01*
X479428Y751740D01*
X478945Y750618D01*
X477229Y750277D01*
X475727Y749273D01*
X474723Y747771D01*
X474371Y746000D01*
X474723Y744229D01*
X475727Y742727D01*
X475941Y742584D01*
Y392000D01*
X476071Y391348D01*
X475265Y390078D01*
X472078D01*
Y430932D01*
X472277Y431229D01*
X472629Y433000D01*
X472277Y434771D01*
X472078Y435068D01*
Y667932D01*
X472277Y668229D01*
X472629Y670000D01*
X472277Y671771D01*
X472163Y671942D01*
X473075Y693830D01*
X473061Y693915D01*
X473078Y694000D01*
Y708000D01*
X472768Y709561D01*
X471884Y710884D01*
X471884Y710884D01*
X458884Y723884D01*
X457561Y724768D01*
X456000Y725078D01*
X456000Y725078D01*
X434068D01*
X433771Y725277D01*
X432000Y725629D01*
X430229Y725277D01*
X429932Y725078D01*
X423068D01*
X422771Y725277D01*
X421000Y725629D01*
X419229Y725277D01*
X418932Y725078D01*
X353078D01*
Y783922D01*
X381000D01*
X381000Y783922D01*
X382561Y784232D01*
X383884Y785116D01*
X391689Y792922D01*
X458932D01*
X459229Y792723D01*
X461000Y792371D01*
X462771Y792723D01*
X463068Y792922D01*
X484000D01*
X485561Y793232D01*
X486884Y794116D01*
X487768Y795439D01*
X488078Y797000D01*
Y882046D01*
X489706Y883294D01*
X490954Y884922D01*
X507922D01*
Y882542D01*
D02*
G37*
G36*
X432941Y406416D02*
X432727Y406273D01*
X431723Y404771D01*
X431371Y403000D01*
X431723Y401229D01*
X432727Y399727D01*
X434229Y398723D01*
X436000Y398371D01*
X437771Y398723D01*
X439273Y399727D01*
X440277Y401229D01*
X440629Y403000D01*
X440277Y404771D01*
X439273Y406273D01*
X439059Y406416D01*
Y436075D01*
X440329Y437055D01*
X441000Y436922D01*
X442525Y437225D01*
X442723Y436229D01*
X443727Y434727D01*
X445229Y433723D01*
X447000Y433371D01*
X448771Y433723D01*
X450273Y434727D01*
X451277Y436229D01*
X451624Y437975D01*
X452735Y438452D01*
X453941Y437462D01*
Y379000D01*
X391153D01*
X390289Y380270D01*
X390481Y381730D01*
X373000D01*
Y383000D01*
X371730D01*
Y395648D01*
X368000D01*
X364726Y395217D01*
X361676Y393954D01*
X361139Y393542D01*
X360000Y394103D01*
Y420000D01*
X280000D01*
Y426941D01*
X395903D01*
X396229Y426723D01*
X398000Y426371D01*
X399771Y426723D01*
X401273Y427727D01*
X402277Y429229D01*
X402629Y431000D01*
X402277Y432771D01*
X401273Y434273D01*
X399771Y435277D01*
X398000Y435629D01*
X396229Y435277D01*
X394727Y434273D01*
X393915Y433059D01*
X280059D01*
Y556733D01*
X307267Y583941D01*
X312584D01*
X312727Y583727D01*
X314229Y582723D01*
X316000Y582371D01*
X317771Y582723D01*
X319273Y583727D01*
X320277Y585229D01*
X320629Y587000D01*
X320277Y588771D01*
X319675Y589671D01*
X320354Y590941D01*
X356584D01*
X356727Y590727D01*
X358229Y589723D01*
X360000Y589371D01*
X361771Y589723D01*
X363273Y590727D01*
X364277Y592229D01*
X364629Y594000D01*
X364277Y595771D01*
X363273Y597273D01*
X361771Y598277D01*
X360000Y598629D01*
X358229Y598277D01*
X356727Y597273D01*
X356584Y597059D01*
X351538D01*
X350495Y598329D01*
X350629Y599000D01*
X350495Y599671D01*
X351538Y600941D01*
X432941D01*
Y406416D01*
D02*
G37*
G36*
X521000Y603371D02*
X521671Y603505D01*
X522941Y602462D01*
Y437000D01*
X523075Y436329D01*
X522278Y435059D01*
X519059D01*
X519059Y602462D01*
X520329Y603505D01*
X521000Y603371D01*
D02*
G37*
%LPC*%
G36*
X621000Y1151629D02*
X619229Y1151277D01*
X617727Y1150273D01*
X616723Y1148771D01*
X616371Y1147000D01*
X616723Y1145229D01*
X617727Y1143727D01*
X617941Y1143584D01*
Y1130722D01*
X616671Y1129925D01*
X616000Y1130059D01*
X614829Y1129826D01*
X614427Y1129557D01*
X613500Y1129268D01*
X612573Y1129557D01*
X612170Y1129826D01*
X611000Y1130059D01*
X609829Y1129826D01*
X608837Y1129163D01*
X608163D01*
X607170Y1129826D01*
X606000Y1130059D01*
X604829Y1129826D01*
X603837Y1129163D01*
X603163D01*
X602170Y1129826D01*
X601000Y1130059D01*
X599829Y1129826D01*
X599427Y1129557D01*
X598500Y1129268D01*
X597573Y1129557D01*
X597170Y1129826D01*
X596000Y1130059D01*
X594829Y1129826D01*
X593837Y1129163D01*
X593163D01*
X592170Y1129826D01*
X591000Y1130059D01*
X589829Y1129826D01*
X588837Y1129163D01*
X588163D01*
X587170Y1129826D01*
X586000Y1130059D01*
X584829Y1129826D01*
X583837Y1129163D01*
X583163D01*
X582170Y1129826D01*
X581000Y1130059D01*
X579829Y1129826D01*
X578837Y1129163D01*
X578174Y1128170D01*
X577941Y1127000D01*
X577941Y666416D01*
X577727Y666273D01*
X576723Y664771D01*
X576371Y663000D01*
X576723Y661229D01*
X577727Y659727D01*
X577941Y659584D01*
Y643000D01*
Y575000D01*
X578174Y573829D01*
X578837Y572837D01*
X579829Y572174D01*
X581000Y571941D01*
X617941D01*
Y465000D01*
X618174Y463829D01*
X618837Y462837D01*
X619829Y462174D01*
X621000Y461941D01*
X627584D01*
X627727Y461727D01*
X629229Y460723D01*
X631000Y460371D01*
X632771Y460723D01*
X634273Y461727D01*
X635277Y463229D01*
X635629Y465000D01*
X635277Y466771D01*
X634273Y468273D01*
X632771Y469277D01*
X631455Y469538D01*
X630578Y470741D01*
X630629Y471000D01*
X630391Y472197D01*
X630888Y473155D01*
X631340Y473439D01*
X632771Y473723D01*
X634273Y474727D01*
X635277Y476229D01*
X635629Y478000D01*
X635577Y478259D01*
X636455Y479462D01*
X637771Y479723D01*
X639273Y480727D01*
X640277Y482229D01*
X640629Y484000D01*
X640391Y485197D01*
X640888Y486155D01*
X641340Y486439D01*
X642771Y486723D01*
X644273Y487727D01*
X644736Y488420D01*
X646264D01*
X646727Y487727D01*
X648229Y486723D01*
X650000Y486371D01*
X651771Y486723D01*
X653273Y487727D01*
X654277Y489229D01*
X654629Y491000D01*
X654579Y491253D01*
X663163Y499837D01*
X663826Y500830D01*
X664059Y502000D01*
X664059Y502000D01*
Y506956D01*
X665232Y507442D01*
X676421Y496253D01*
X676371Y496000D01*
X676723Y494229D01*
X677727Y492727D01*
X679229Y491723D01*
X679611Y491647D01*
Y490353D01*
X679229Y490277D01*
X677727Y489273D01*
X676723Y487771D01*
X676371Y486000D01*
X676723Y484229D01*
X677727Y482727D01*
X677864Y482635D01*
Y481365D01*
X677727Y481273D01*
X676723Y479771D01*
X676371Y478000D01*
X676723Y476229D01*
X677727Y474727D01*
X679229Y473723D01*
X681000Y473371D01*
X682771Y473723D01*
X684273Y474727D01*
X685277Y476229D01*
X685629Y478000D01*
X685579Y478253D01*
X697163Y489837D01*
X697163Y489837D01*
X697826Y490830D01*
X698059Y492000D01*
X698059Y492000D01*
Y605941D01*
X708584D01*
X708727Y605727D01*
X710229Y604723D01*
X712000Y604371D01*
X713771Y604723D01*
X715273Y605727D01*
X716277Y607229D01*
X716629Y609000D01*
X716277Y610771D01*
X715273Y612273D01*
X713771Y613277D01*
X712000Y613629D01*
X710229Y613277D01*
X708727Y612273D01*
X708584Y612059D01*
X695000D01*
X694329Y611925D01*
X693059Y612722D01*
Y623584D01*
X693273Y623727D01*
X694277Y625229D01*
X694629Y627000D01*
X694277Y628771D01*
X693273Y630273D01*
X691771Y631277D01*
X690000Y631629D01*
X688229Y631277D01*
X686727Y630273D01*
X685723Y628771D01*
X685371Y627000D01*
X685723Y625229D01*
X686727Y623727D01*
X686941Y623584D01*
Y497498D01*
X686666Y497297D01*
X685295Y497765D01*
X685238Y497828D01*
X684273Y499273D01*
X684136Y499365D01*
Y500635D01*
X684273Y500727D01*
X685277Y502229D01*
X685629Y504000D01*
X685277Y505771D01*
X684273Y507273D01*
X684136Y507365D01*
Y508635D01*
X684273Y508727D01*
X685277Y510229D01*
X685629Y512000D01*
X685277Y513771D01*
X684273Y515273D01*
X682771Y516277D01*
X681000Y516629D01*
X680747Y516579D01*
X679059Y518267D01*
Y619000D01*
X678826Y620171D01*
X678163Y621163D01*
X677170Y621826D01*
X676000Y622059D01*
X639059D01*
X639059Y980000D01*
X639059Y980000D01*
Y995000D01*
Y1011584D01*
X639273Y1011727D01*
X640277Y1013229D01*
X640629Y1015000D01*
X640277Y1016771D01*
X639273Y1018273D01*
X637771Y1019277D01*
X636000Y1019629D01*
X635329Y1019495D01*
X634059Y1020538D01*
Y1034000D01*
X634059Y1034000D01*
Y1055584D01*
X634273Y1055727D01*
X635277Y1057229D01*
X635629Y1059000D01*
X635277Y1060771D01*
X634273Y1062273D01*
X632771Y1063277D01*
X631000Y1063629D01*
X630329Y1063495D01*
X629059Y1064538D01*
Y1078000D01*
X629059Y1078000D01*
Y1099584D01*
X629273Y1099727D01*
X630277Y1101229D01*
X630629Y1103000D01*
X630277Y1104771D01*
X629273Y1106273D01*
X627771Y1107277D01*
X626000Y1107629D01*
X625329Y1107495D01*
X624059Y1108538D01*
Y1143584D01*
X624273Y1143727D01*
X625277Y1145229D01*
X625629Y1147000D01*
X625277Y1148771D01*
X624273Y1150273D01*
X622771Y1151277D01*
X621000Y1151629D01*
D02*
G37*
G36*
X442000Y1015069D02*
X439912Y1014794D01*
X437966Y1013988D01*
X436294Y1012706D01*
X435012Y1011034D01*
X434206Y1009088D01*
X433931Y1007000D01*
X434206Y1004912D01*
X434940Y1003140D01*
Y935000D01*
X435180Y933173D01*
X435886Y931470D01*
X437008Y930008D01*
X438470Y928885D01*
X440173Y928180D01*
X442000Y927940D01*
X514140D01*
X515912Y927206D01*
X518000Y926931D01*
X520088Y927206D01*
X522034Y928012D01*
X523706Y929294D01*
X524988Y930965D01*
X525794Y932912D01*
X526069Y935000D01*
X525794Y937088D01*
X524988Y939035D01*
X523706Y940706D01*
X522034Y941988D01*
X520088Y942794D01*
X518000Y943069D01*
X515912Y942794D01*
X514140Y942060D01*
X449060D01*
Y1003140D01*
X449794Y1004912D01*
X450069Y1007000D01*
X449794Y1009088D01*
X448988Y1011034D01*
X447706Y1012706D01*
X446035Y1013988D01*
X444088Y1014794D01*
X442000Y1015069D01*
D02*
G37*
G36*
X414000Y861629D02*
X412229Y861277D01*
X410727Y860273D01*
X409723Y858771D01*
X409371Y857000D01*
X409723Y855229D01*
X410727Y853727D01*
X410941Y853584D01*
Y822617D01*
X409229Y822277D01*
X407727Y821273D01*
X406723Y819771D01*
X406371Y818000D01*
X406723Y816229D01*
X407727Y814727D01*
X409229Y813723D01*
X411000Y813371D01*
X412771Y813723D01*
X414273Y814727D01*
X415277Y816229D01*
X415629Y818000D01*
X415579Y818253D01*
X416163Y818837D01*
X416826Y819829D01*
X417059Y821000D01*
Y853584D01*
X417273Y853727D01*
X418277Y855229D01*
X418629Y857000D01*
X418277Y858771D01*
X417273Y860273D01*
X415771Y861277D01*
X414000Y861629D01*
D02*
G37*
G36*
X346000Y706629D02*
X344229Y706277D01*
X342727Y705273D01*
X341723Y703771D01*
X341371Y702000D01*
X341723Y700229D01*
X342727Y698727D01*
X344229Y697723D01*
X346000Y697371D01*
X347771Y697723D01*
X349273Y698727D01*
X350277Y700229D01*
X350629Y702000D01*
X350277Y703771D01*
X349273Y705273D01*
X347771Y706277D01*
X346000Y706629D01*
D02*
G37*
G36*
X600000Y553629D02*
X598229Y553277D01*
X596727Y552273D01*
X595723Y550771D01*
X595371Y549000D01*
X595723Y547229D01*
X596727Y545727D01*
X596941Y545584D01*
Y523059D01*
X583416D01*
X583273Y523273D01*
X581771Y524277D01*
X580000Y524629D01*
X578229Y524277D01*
X576727Y523273D01*
X575723Y521771D01*
X575371Y520000D01*
X575723Y518229D01*
X576727Y516727D01*
X578229Y515723D01*
X580000Y515371D01*
X581771Y515723D01*
X583273Y516727D01*
X583416Y516941D01*
X600000D01*
X601171Y517174D01*
X602163Y517837D01*
X602826Y518829D01*
X603059Y520000D01*
Y545584D01*
X603273Y545727D01*
X604277Y547229D01*
X604629Y549000D01*
X604277Y550771D01*
X603273Y552273D01*
X601771Y553277D01*
X600000Y553629D01*
D02*
G37*
G36*
X421000Y782629D02*
X419229Y782277D01*
X417727Y781273D01*
X416723Y779771D01*
X416371Y778000D01*
X416723Y776229D01*
X417727Y774727D01*
X419229Y773723D01*
X421000Y773371D01*
X422771Y773723D01*
X424273Y774727D01*
X425277Y776229D01*
X425629Y778000D01*
X425277Y779771D01*
X424273Y781273D01*
X422771Y782277D01*
X421000Y782629D01*
D02*
G37*
G36*
X348900Y552740D02*
X337630D01*
Y545470D01*
X348900D01*
Y552740D01*
D02*
G37*
G36*
X335090D02*
X323820D01*
Y545470D01*
X335090D01*
Y552740D01*
D02*
G37*
G36*
X311800D02*
X299030D01*
Y545470D01*
X311800D01*
Y552740D01*
D02*
G37*
G36*
X296490D02*
X283720D01*
Y545470D01*
X296490D01*
Y552740D01*
D02*
G37*
G36*
X348900Y542930D02*
X337630D01*
Y535660D01*
X348900D01*
Y542930D01*
D02*
G37*
G36*
X311800D02*
X299030D01*
Y535660D01*
X311800D01*
Y542930D01*
D02*
G37*
G36*
X296490D02*
X283720D01*
Y535660D01*
X296490D01*
Y542930D01*
D02*
G37*
G36*
X335090D02*
X323820D01*
Y535660D01*
X324603D01*
X325141Y534390D01*
X324245Y533049D01*
X323838Y531000D01*
X324245Y528952D01*
X325405Y527215D01*
X327142Y526055D01*
X329190Y525647D01*
X331239Y526055D01*
X332975Y527215D01*
X334136Y528952D01*
X334543Y531000D01*
X334136Y533049D01*
X333239Y534390D01*
X333778Y535660D01*
X335090D01*
Y542930D01*
D02*
G37*
G36*
X375000Y498629D02*
X373229Y498277D01*
X371727Y497273D01*
X371584Y497059D01*
X328416D01*
X328273Y497273D01*
X326771Y498277D01*
X325000Y498629D01*
X323229Y498277D01*
X321727Y497273D01*
X320723Y495771D01*
X320371Y494000D01*
X320723Y492229D01*
X321727Y490727D01*
X323229Y489723D01*
X325000Y489371D01*
X326771Y489723D01*
X328273Y490727D01*
X328416Y490941D01*
X371584D01*
X371727Y490727D01*
X371941Y490584D01*
Y484416D01*
X371727Y484273D01*
X370723Y482771D01*
X370371Y481000D01*
X370723Y479229D01*
X371727Y477727D01*
X373229Y476723D01*
X375000Y476371D01*
X376771Y476723D01*
X378273Y477727D01*
X379277Y479229D01*
X379629Y481000D01*
X379277Y482771D01*
X378273Y484273D01*
X378059Y484416D01*
Y490584D01*
X378273Y490727D01*
X379277Y492229D01*
X379629Y494000D01*
X379277Y495771D01*
X378273Y497273D01*
X376771Y498277D01*
X375000Y498629D01*
D02*
G37*
G36*
X348900Y466240D02*
X337630D01*
Y458970D01*
X348900D01*
Y466240D01*
D02*
G37*
G36*
X329190Y476353D02*
X327142Y475946D01*
X325405Y474785D01*
X324245Y473049D01*
X323838Y471000D01*
X324245Y468952D01*
X325208Y467510D01*
X324753Y466240D01*
X323820D01*
Y458970D01*
X335090D01*
Y466240D01*
X333628D01*
X333172Y467510D01*
X334136Y468952D01*
X334543Y471000D01*
X334136Y473049D01*
X332975Y474785D01*
X331239Y475946D01*
X329190Y476353D01*
D02*
G37*
G36*
X311800Y466240D02*
X299030D01*
Y458970D01*
X311800D01*
Y466240D01*
D02*
G37*
G36*
X296490D02*
X283720D01*
Y458970D01*
X296490D01*
Y466240D01*
D02*
G37*
G36*
X348900Y456430D02*
X337630D01*
Y449160D01*
X348900D01*
Y456430D01*
D02*
G37*
G36*
X335090D02*
X323820D01*
Y449160D01*
X335090D01*
Y456430D01*
D02*
G37*
G36*
X311800D02*
X299030D01*
Y449160D01*
X311800D01*
Y456430D01*
D02*
G37*
G36*
X296490D02*
X283720D01*
Y449160D01*
X296490D01*
Y456430D01*
D02*
G37*
G36*
X378000Y395648D02*
X374270D01*
Y384270D01*
X390481D01*
X390217Y386274D01*
X388954Y389324D01*
X386944Y391944D01*
X384324Y393954D01*
X381274Y395217D01*
X378000Y395648D01*
D02*
G37*
%LPD*%
D11*
X723000Y571000D02*
X747000Y595000D01*
X723000Y571000D02*
X726000D01*
X575000Y565000D02*
X576000Y564000D01*
X469000Y817000D02*
Y874000D01*
X527000Y412000D02*
X704000D01*
X373000Y382000D02*
X373000D01*
X521000Y633000D02*
X522000Y634000D01*
X375000Y481000D02*
Y494000D01*
X325000D02*
X375000D01*
X505000Y756000D02*
Y757000D01*
X496000Y747000D02*
X505000Y756000D01*
X374000Y753000D02*
X375000D01*
X496000Y710000D02*
Y747000D01*
X426000Y749000D02*
X436000D01*
X394000Y762000D02*
X531000D01*
X474000Y449000D02*
Y485000D01*
Y412000D02*
Y449000D01*
X526000Y437000D02*
Y716000D01*
X501000D02*
X526000D01*
X431000Y412000D02*
Y457000D01*
X616000Y532000D02*
Y565000D01*
Y497000D02*
Y532000D01*
X521000Y493000D02*
X522000D01*
X521000D02*
Y514000D01*
X502000Y412000D02*
X527000D01*
X521000Y608000D02*
Y633000D01*
X576000Y532000D02*
Y564000D01*
X575000Y565000D02*
X576000D01*
Y646000D01*
Y565000D02*
X616000D01*
X616000Y565000D01*
X521000Y532000D02*
Y590000D01*
Y514000D02*
Y532000D01*
X600000Y549000D02*
Y550000D01*
Y520000D02*
Y549000D01*
X580000Y520000D02*
X600000D01*
X596000Y442000D02*
Y471000D01*
X531000Y442000D02*
X596000D01*
X531000D02*
Y762000D01*
X616000Y452000D02*
Y497000D01*
X596000D02*
X616000D01*
X436000Y405000D02*
Y603000D01*
X462000Y428000D02*
Y539000D01*
Y373000D02*
Y428000D01*
X457000Y368000D02*
Y549000D01*
X435000Y604000D02*
X436000Y603000D01*
X511000Y427000D02*
X750000D01*
X1025000Y438000D02*
X3312000D01*
X299000Y615000D02*
Y801000D01*
X304000Y620000D02*
Y822000D01*
X891000Y547000D02*
X925000D01*
X925000Y1079000D02*
X925000Y547000D01*
X925000Y1079000D02*
X927000D01*
X941000Y1059000D02*
X1823000D01*
X940993D02*
X941000D01*
Y1059000D01*
Y519000D02*
Y1059000D01*
X929000Y1074000D02*
X929000Y540000D01*
Y540000D02*
Y540000D01*
X895000D02*
X929000D01*
X933000Y1069000D02*
X3322000D01*
X896000Y533000D02*
X933000D01*
X933000Y1069000D02*
X933000Y533000D01*
X895000Y519000D02*
X941000D01*
X945000Y512000D02*
Y518000D01*
X900000Y512000D02*
X945000D01*
X895000Y526000D02*
X937000D01*
Y1064000D01*
Y526000D02*
Y526000D01*
X936000Y526000D02*
X937000D01*
X933000Y1069000D02*
X933000Y1069000D01*
X929000Y1074000D02*
X1286000D01*
X937000Y1064000D02*
X1692000D01*
X1599000Y376000D02*
X1601000Y378000D01*
X949000Y1049000D02*
X951000D01*
X949000D02*
X949000Y505000D01*
X895000D02*
X949000D01*
X763000Y305000D02*
Y368000D01*
X457000D02*
X763000D01*
X890000Y433000D02*
X2817000D01*
X886000Y428000D02*
Y456000D01*
X1013000Y970000D02*
X1013000Y463000D01*
X899000D02*
X1013000D01*
X899000Y463000D02*
X899000Y463000D01*
X1017000Y965000D02*
X1017000Y456000D01*
X899000D02*
X1017000D01*
X1021000Y960000D02*
X1021000Y449000D01*
X899000D02*
X1021000D01*
X899000Y449000D02*
X899000Y449000D01*
X1025000Y443000D02*
Y464000D01*
Y438000D02*
Y443000D01*
X895000D02*
X1025000D01*
X882000Y416000D02*
Y457000D01*
X878000Y411000D02*
Y459000D01*
Y411000D02*
X3312000D01*
X874000Y406000D02*
X999000D01*
X874000D02*
Y460000D01*
X891000Y484000D02*
X896000D01*
X870000Y401000D02*
Y463000D01*
Y401000D02*
X995000D01*
X991000Y396000D02*
X2413000D01*
X991000Y396000D02*
Y396000D01*
X866000Y396000D02*
X991000D01*
X866000D02*
Y473000D01*
X862000Y391000D02*
Y476000D01*
Y391000D02*
X987000D01*
X858000Y386000D02*
Y479000D01*
X945000Y1054000D02*
X947000Y1054000D01*
X945000Y518000D02*
Y1054000D01*
X858000Y386000D02*
X983000D01*
X854000Y381000D02*
X979000D01*
X854000D02*
Y482000D01*
X850000Y376000D02*
X975000D01*
X850000D02*
Y485000D01*
X838000Y361000D02*
Y494000D01*
X842000Y366000D02*
Y491000D01*
X521000Y635000D02*
X522000Y634000D01*
X900000Y512000D02*
X900000Y512000D01*
X997000Y990000D02*
X997000Y498000D01*
X900000D02*
X997000D01*
X900000Y498000D02*
X900000Y498000D01*
X1001000Y985000D02*
X1001000Y484000D01*
X899000D02*
X1001000D01*
X899000D02*
Y484000D01*
X1005000Y980000D02*
X1005000Y477000D01*
X895000D02*
X1005000D01*
X1009000Y975000D02*
X1009000Y470000D01*
X899000D02*
X1009000D01*
X975000Y376000D02*
X1599000Y376000D01*
X979000Y381000D02*
X1913000Y381000D01*
X983000Y386000D02*
X2007000Y386000D01*
X987000Y391000D02*
X2318000Y391000D01*
X995000Y401000D02*
X3312000Y401000D01*
X999000Y406000D02*
X3312000Y406000D01*
X882000Y416000D02*
X3319000D01*
X886000Y428000D02*
X3128000D01*
X1025000Y464000D02*
X1025000Y955000D01*
X1025000Y464000D02*
X1025000Y464000D01*
X462000Y373000D02*
X589000D01*
X479000Y392000D02*
X755000D01*
X479000D02*
Y746000D01*
X484000Y397000D02*
X761000D01*
X484000Y625000D02*
X484000Y397000D01*
X496000Y407000D02*
X761000D01*
X496000Y710000D02*
X496000Y407000D01*
X501000Y417000D02*
X642000D01*
X501000Y650000D02*
X501000Y417000D01*
X506000Y422000D02*
X647000D01*
X506000D02*
Y655000D01*
X511000Y640000D02*
X511000Y427000D01*
X516000Y432000D02*
X626000D01*
X516000Y645000D02*
X516000Y432000D01*
X597000Y410000D02*
X597000Y410000D01*
X685000Y437000D02*
X750000D01*
X526000D02*
X685000D01*
X397000Y431000D02*
X398000Y430000D01*
X306000Y587000D02*
X316000D01*
X277000Y558000D02*
X306000Y587000D01*
X277000Y430000D02*
Y558000D01*
X282000Y599000D02*
Y796000D01*
Y599000D02*
X346000D01*
X276000Y594000D02*
X360000D01*
X287000Y604000D02*
X435000D01*
X287000D02*
Y726000D01*
X304000Y620000D02*
X406000D01*
X299000Y615000D02*
X411000D01*
X309000Y625000D02*
Y786000D01*
Y625000D02*
X447000D01*
X314000Y630000D02*
Y771000D01*
Y630000D02*
X452000D01*
X319000Y636000D02*
Y766000D01*
X324000Y635000D02*
Y721000D01*
X324000Y635000D02*
X324000Y635000D01*
X324000Y635000D02*
X458000Y635000D01*
X819000Y503000D02*
X833000Y517000D01*
X819000Y431000D02*
Y503000D01*
X833000Y517000D02*
X833000D01*
X695000Y609000D02*
X711000D01*
X695000Y492000D02*
Y609000D01*
X576000Y646000D02*
Y690000D01*
X536000Y545000D02*
Y660000D01*
X484000Y625000D02*
Y751000D01*
X747000Y595000D02*
Y717000D01*
X828000Y522000D02*
Y523000D01*
X755000Y1145000D02*
X755000Y588000D01*
X713000Y546000D02*
X755000Y588000D01*
X713000Y519000D02*
Y546000D01*
X718000Y524000D02*
Y545000D01*
X760000Y587000D02*
X760000Y1145000D01*
X718000Y545000D02*
X760000Y587000D01*
X724000Y529000D02*
X725000Y530000D01*
Y546000D02*
X765000Y586000D01*
X725000Y530000D02*
Y546000D01*
X765000Y1122000D02*
Y1147000D01*
X765000Y586000D02*
X765000Y1122000D01*
X770000Y593000D02*
Y616000D01*
Y585000D02*
Y593000D01*
X770000Y1056000D02*
Y1145000D01*
X731000Y546000D02*
X770000Y585000D01*
X731000Y535000D02*
Y546000D01*
X775000Y1013000D02*
Y1145000D01*
Y1013000D02*
X775000Y584000D01*
X737000Y546000D02*
X775000Y584000D01*
X737000Y541000D02*
Y546000D01*
X780000Y1034000D02*
Y1145000D01*
Y969000D02*
Y1034000D01*
X780000Y582000D02*
X780000Y969000D01*
X745000Y547000D02*
X780000Y582000D01*
X785000Y990000D02*
Y1145000D01*
Y925000D02*
Y990000D01*
X736000Y531000D02*
X785000Y580000D01*
X736000Y510000D02*
Y531000D01*
X713000Y510000D02*
X736000D01*
X790000Y946000D02*
Y966000D01*
Y946000D02*
X790000Y881000D01*
X740000Y529000D02*
X790000Y579000D01*
X740000Y503000D02*
Y529000D01*
X713000Y503000D02*
X740000D01*
X795000Y902000D02*
Y922000D01*
Y902000D02*
X795000Y837000D01*
X744000Y527000D02*
X795000Y578000D01*
X744000Y497000D02*
Y527000D01*
X717000Y497000D02*
X744000D01*
X800000Y858000D02*
Y878000D01*
Y858000D02*
X800000Y793000D01*
X748000Y526000D02*
X800000Y578000D01*
X748000Y491000D02*
Y526000D01*
X713000Y491000D02*
X748000D01*
X805000Y814000D02*
Y834000D01*
Y814000D02*
X805000Y749000D01*
X752000Y525000D02*
X805000Y578000D01*
X752000Y484000D02*
Y525000D01*
X717000Y484000D02*
X752000D01*
X810000Y770000D02*
Y790000D01*
Y770000D02*
X810000Y705000D01*
X756000Y524000D02*
X810000Y578000D01*
X756000Y478000D02*
Y524000D01*
X713000Y478000D02*
X756000D01*
X815000Y713000D02*
Y1145000D01*
Y578000D02*
Y713000D01*
X760000Y523000D02*
X815000Y578000D01*
X760000Y471000D02*
Y523000D01*
X717000Y471000D02*
X760000D01*
X820000Y669000D02*
Y689000D01*
Y669000D02*
X820000Y617000D01*
X764000Y522000D02*
X820000Y578000D01*
X764000Y465000D02*
Y522000D01*
X713000Y465000D02*
X764000D01*
X747000Y1025000D02*
Y1069000D01*
Y1113000D02*
Y1137000D01*
Y1069000D02*
Y1113000D01*
Y981000D02*
Y1025000D01*
Y937000D02*
Y981000D01*
Y893000D02*
Y937000D01*
Y849000D02*
Y893000D01*
Y761000D02*
Y805000D01*
Y849000D01*
X576000Y1083000D02*
Y1130000D01*
Y1042000D02*
Y1083000D01*
Y998000D02*
Y1042000D01*
Y954000D02*
Y998000D01*
Y910000D02*
Y954000D01*
Y866000D02*
Y910000D01*
Y778000D02*
Y822000D01*
Y866000D01*
X747000Y717000D02*
Y761000D01*
X576000Y734000D02*
Y778000D01*
Y690000D02*
Y734000D01*
X790000Y1145000D02*
X790000Y966000D01*
X795000Y1145000D02*
X795000Y922000D01*
X800000Y1145000D02*
X800000Y878000D01*
X805000Y1145000D02*
X805000Y834000D01*
X810000Y1145000D02*
X810000Y790000D01*
X820000Y1145000D02*
X820000Y689000D01*
X681000Y478000D02*
Y478000D01*
Y478000D02*
Y478000D01*
Y478000D02*
X695000Y492000D01*
X681000Y486000D02*
X690000Y495000D01*
Y627000D01*
X666000Y511000D02*
X680000Y497000D01*
X666000Y511000D02*
X666000Y511000D01*
X666000Y511000D02*
Y611000D01*
X671000Y513000D02*
X680000Y504000D01*
X671000Y513000D02*
Y615000D01*
X676000Y517000D02*
X679000Y514000D01*
X676000Y517000D02*
Y619000D01*
X636000D02*
X676000D01*
X661000Y502000D02*
Y607000D01*
X650000Y491000D02*
X661000Y502000D01*
X621000Y1147000D02*
X621000Y607000D01*
X626000Y1078000D02*
Y1103000D01*
X626000Y1078000D02*
X626000Y1078000D01*
X631000Y1034000D02*
Y1059000D01*
X631000Y1034000D02*
X631000Y1034000D01*
X636000Y980000D02*
Y995000D01*
X636000Y980000D02*
X636000Y980000D01*
Y995000D02*
Y1015000D01*
X631000Y615000D02*
X671000D01*
X631000Y1034000D02*
X631000Y615000D01*
X626000Y1078000D02*
X626000Y611000D01*
X666000D01*
X621000Y607000D02*
X661000D01*
X636000Y980000D02*
X636000Y619000D01*
X616000Y452000D02*
X762000D01*
X646000Y498000D02*
X647000Y497000D01*
X581000Y575000D02*
X621000D01*
X581000D02*
Y643000D01*
X621000Y465000D02*
Y575000D01*
X635000Y484000D02*
X636000Y485000D01*
X650000Y504000D02*
X651000Y505000D01*
X616000Y951000D02*
Y1127000D01*
Y603000D02*
Y951000D01*
X656000Y510000D02*
Y603000D01*
X616000D02*
X656000D01*
X611000Y1127000D02*
X611000Y907000D01*
Y599000D02*
Y907000D01*
X651000Y505000D02*
Y599000D01*
X611000D02*
X651000D01*
X646000Y498000D02*
Y595000D01*
X606000Y1127000D02*
X606000Y863000D01*
Y595000D02*
Y863000D01*
Y595000D02*
X646000D01*
X601000Y1127000D02*
X601000Y819000D01*
Y591000D02*
Y819000D01*
X641000Y491000D02*
Y591000D01*
X601000D02*
X641000D01*
X596000Y1127000D02*
X596000Y775000D01*
Y587000D02*
Y775000D01*
X636000Y485000D02*
Y587000D01*
X596000D02*
X636000D01*
X631000Y478000D02*
Y583000D01*
X591000Y1127000D02*
X591000Y731000D01*
Y583000D02*
Y731000D01*
Y583000D02*
X631000D01*
X586000Y1127000D02*
X586000Y687000D01*
Y579000D02*
Y687000D01*
X626000Y471000D02*
Y579000D01*
X586000D02*
X626000D01*
X581000Y1127000D02*
X581000Y643000D01*
X3312000Y970000D02*
X3320000D01*
X1013000D02*
X3312000D01*
X895000Y463000D02*
X899000D01*
X888000D02*
X895000D01*
X2413000Y396000D02*
X3312000D01*
X2411000D02*
X2413000D01*
X2413000Y396000D01*
X2318000Y391000D02*
X3312000D01*
X2318000D02*
Y391000D01*
X2320000D01*
X2007000Y386000D02*
X3312000D01*
X1913000Y381000D02*
X3312000D01*
X2007000Y386000D02*
Y386000D01*
X2007000D01*
X1913000Y381000D02*
Y381000D01*
X1918000D01*
X3090000Y305000D02*
X3312000D01*
X3090000Y305000D02*
X3090000Y305000D01*
X1005000Y980000D02*
X3320000D01*
X846000Y371000D02*
X1509000D01*
X927000Y1079000D02*
X1013000D01*
X891000Y526000D02*
X895000D01*
X1600000Y376000D02*
X3312000D01*
X2817000Y433000D02*
X3312000Y433000D01*
X3128000Y428000D02*
X3312000D01*
X1196000Y366000D02*
X3312000D01*
X1104000Y361000D02*
X3312000D01*
X1509000Y371000D02*
X3312000D01*
X2685000Y305000D02*
X3090000D01*
X2280000D02*
X2685000D01*
X1875000D02*
X2280000D01*
X1470000D02*
X1875000D01*
X1065000D02*
X1470000D01*
X1001000Y985000D02*
X3320000D01*
X1013000Y1079000D02*
X3322000D01*
X1286000Y1074000D02*
X3322000D01*
X1692000Y1064000D02*
X3322000D01*
X1823000Y1059000D02*
X3320000D01*
X2097000Y1054000D02*
X3322000D01*
X945000D02*
X2097000D01*
X2228000Y1049000D02*
X3322000D01*
X951000D02*
X2228000D01*
X1025000Y955000D02*
X2633000D01*
X997000Y990000D02*
X2502000D01*
X1021000Y960000D02*
X2907000D01*
X1017000Y965000D02*
X3038000D01*
X1009000Y975000D02*
X3320000D01*
X2633000Y955000D02*
X3320000D01*
X2907000Y960000D02*
X3320000D01*
X3038000Y965000D02*
X3320000D01*
X2502000Y990000D02*
X3320000D01*
X359000Y910000D02*
X535000D01*
X366000Y905000D02*
X530000D01*
X366000Y820000D02*
Y905000D01*
X359000Y820000D02*
Y910000D01*
X680000Y478000D02*
X681000D01*
X680000Y478000D02*
X680000Y478000D01*
X467000Y1140000D02*
Y1159000D01*
X338000Y781000D02*
Y868000D01*
X436000Y713000D02*
X446000D01*
X436000Y678000D02*
Y713000D01*
X389000Y767000D02*
X496000D01*
X375000Y753000D02*
X389000Y767000D01*
X374000Y752000D02*
Y753000D01*
X359000Y796000D02*
Y819000D01*
X411000Y818000D02*
X414000Y821000D01*
Y857000D01*
X277000Y430000D02*
X397000D01*
X820000Y578000D02*
Y617000D01*
X439000Y670000D02*
X447000Y678000D01*
X426000Y670000D02*
X439000D01*
X770000Y1056000D02*
X770000Y593000D01*
X423000Y874000D02*
X469000D01*
X468000Y817000D02*
X469000D01*
X452000Y445000D02*
Y630000D01*
X447000Y438000D02*
Y625000D01*
X373000Y248000D02*
Y382000D01*
X394000Y762000D02*
X394000D01*
X763000Y305000D02*
X1065000D01*
X453000Y660000D02*
X453000Y660000D01*
X416000Y660000D02*
X453000D01*
X371000Y645000D02*
X459000D01*
X378000Y746000D02*
X394000Y762000D01*
X762000Y412000D02*
Y452000D01*
X755000Y412000D02*
X762000D01*
X705000D02*
X755000D01*
X805000Y578000D02*
Y749000D01*
X366000Y640000D02*
X453000D01*
X376000Y650000D02*
X453000D01*
X381000Y655000D02*
X459000D01*
X651000Y504000D02*
Y505000D01*
X640000Y490000D02*
X641000Y491000D01*
X631000Y477000D02*
Y478000D01*
Y477000D02*
X631000Y477000D01*
X371000Y645000D02*
Y645000D01*
X795000Y578000D02*
Y837000D01*
Y578000D02*
Y578000D01*
X820000Y578000D02*
Y578000D01*
X895000Y498000D02*
X900000D01*
X895000Y512000D02*
X900000D01*
X790000Y579000D02*
X790000Y881000D01*
X785000Y580000D02*
X785000Y925000D01*
X626000Y432000D02*
X713000D01*
X642000Y417000D02*
X738000D01*
X647000Y422000D02*
X743000D01*
X713000Y432000D02*
X755000D01*
X738000Y417000D02*
X750000D01*
X743000Y422000D02*
X755000D01*
X838000Y361000D02*
X1104000D01*
X842000Y366000D02*
X1196000D01*
X621000Y465000D02*
X631000D01*
X800000Y578000D02*
Y793000D01*
X810000Y578000D02*
Y705000D01*
X891000Y484000D02*
X895000D01*
X891000D02*
X891000Y484000D01*
X870000Y463000D02*
X891000Y484000D01*
X889000Y470000D02*
X895000D01*
X878000Y459000D02*
X889000Y470000D01*
X891000Y477000D02*
X895000D01*
X874000Y460000D02*
X891000Y477000D01*
Y498000D02*
X895000D01*
X866000Y473000D02*
X891000Y498000D01*
Y505000D02*
X895000D01*
X862000Y476000D02*
X891000Y505000D01*
Y512000D02*
X895000D01*
X858000Y479000D02*
X891000Y512000D01*
X891000Y519000D02*
X895000D01*
X854000Y482000D02*
X891000Y519000D01*
X850000Y485000D02*
X891000Y526000D01*
X891000Y533000D02*
X895000D01*
X846000Y488000D02*
X891000Y533000D01*
X846000Y371000D02*
Y488000D01*
X891000Y540000D02*
X895000D01*
X842000Y491000D02*
X891000Y540000D01*
X838000Y494000D02*
X891000Y547000D01*
X882000Y457000D02*
X888000Y463000D01*
X890000Y433000D02*
Y449000D01*
X897000Y484000D02*
X899000D01*
X895000Y449000D02*
X899000D01*
X895000Y456000D02*
X899000D01*
X899000Y484000D02*
X899000Y484000D01*
X895000Y470000D02*
X899000D01*
X895000Y484000D02*
X899000D01*
X890000Y449000D02*
X895000D01*
X886000Y456000D02*
X894000D01*
X895000Y540000D02*
Y541000D01*
X339190Y462000D02*
X340160Y462970D01*
Y543970D02*
X340190Y544000D01*
X299190Y458000D02*
X299390Y457800D01*
D96*
X868000Y926000D02*
Y951000D01*
X868000Y1140000D02*
X868000Y951000D01*
X892000Y1053000D02*
Y1128000D01*
X920000Y1107000D02*
X920000Y553000D01*
X890000D02*
X920000D01*
X910000Y1114000D02*
X910000Y627000D01*
Y596000D02*
Y627000D01*
X879000Y565000D02*
X910000Y596000D01*
X827000Y501000D02*
X879000Y553000D01*
X467000Y1159000D02*
X501000D01*
X396000Y757000D02*
X490000D01*
Y705000D02*
Y757000D01*
X468000Y386000D02*
X747000D01*
X468000D02*
Y433000D01*
X554000Y449000D02*
Y572000D01*
X439000Y1159000D02*
X467000D01*
X781000Y331000D02*
X1893000D01*
X1766000Y331000D02*
X3306000D01*
X805000Y355000D02*
X3181000D01*
X3306000D01*
X799000Y349000D02*
X2975000D01*
X3306000D01*
X2569000Y343000D02*
X3306000D01*
X793000D02*
X2569000D01*
X787000Y337000D02*
X2166000D01*
X3306000D01*
X1357000Y325000D02*
X3306000D01*
X775000D02*
X1357000D01*
X769000Y319000D02*
X1055000D01*
X769000D02*
Y519000D01*
X775000Y325000D02*
Y517000D01*
X781000Y331000D02*
Y515000D01*
X787000Y337000D02*
Y513000D01*
X793000Y343000D02*
Y511000D01*
X799000Y349000D02*
Y509000D01*
X805000Y355000D02*
Y507000D01*
X377000Y1160000D02*
X438000D01*
X439000Y1159000D01*
X542000Y526000D02*
Y767000D01*
X920000Y1107000D02*
X959000D01*
X948000Y422000D02*
X1096000D01*
X833000Y496000D02*
X890000Y553000D01*
X910000Y1114000D02*
X947000D01*
X833000Y382000D02*
Y496000D01*
X349000Y721000D02*
X433000D01*
X320000Y844000D02*
X321000Y843000D01*
X512000Y773000D02*
Y889000D01*
X484000D02*
X512000D01*
X490000Y402000D02*
X755000D01*
X490000Y705000D02*
X490000Y402000D01*
X548000Y578000D02*
Y773000D01*
X832000Y1158000D02*
X832000Y687000D01*
Y664000D02*
Y687000D01*
X844000Y1152000D02*
X1555000D01*
X844000Y775000D02*
Y1152000D01*
Y755000D02*
Y775000D01*
X856000Y863000D02*
X856000Y1146000D01*
X856000Y798000D02*
Y863000D01*
X880000Y1134000D02*
X880000Y1039000D01*
Y795000D02*
Y1039000D01*
X898000Y1103000D02*
Y1122000D01*
X899000D02*
X941000D01*
X892000Y1128000D02*
X963000D01*
X886000Y596000D02*
Y1083000D01*
X874000Y1134000D02*
X874000Y995000D01*
Y837000D02*
Y995000D01*
X862000Y1140000D02*
X862000Y907000D01*
Y588000D02*
Y907000D01*
X850000Y1146000D02*
X850000Y818000D01*
Y584000D02*
Y818000D01*
X838000Y1152000D02*
X838000Y731000D01*
Y708000D02*
Y731000D01*
Y580000D02*
Y708000D01*
X826000Y1158000D02*
X826000Y643000D01*
X441000Y441000D02*
Y609000D01*
X293000D02*
X441000D01*
X293000D02*
Y844000D01*
X320000D01*
X879000Y553000D02*
Y565000D01*
X827000Y445000D02*
Y501000D01*
X793000Y511000D02*
X874000Y592000D01*
X827000Y390000D02*
Y445000D01*
X554000Y572000D02*
Y779000D01*
X518000D02*
X554000D01*
X512000Y773000D02*
X548000D01*
X518000Y779000D02*
Y889000D01*
X567000Y538000D02*
Y615000D01*
X506000Y767000D02*
X542000D01*
X506000D02*
Y870000D01*
X490000Y703000D02*
Y705000D01*
X567000Y615000D02*
Y680000D01*
X811000Y468000D02*
Y505000D01*
X499000Y877000D02*
X506000D01*
Y870000D02*
Y877000D01*
X828000Y522000D02*
X867000Y561000D01*
X811000Y505000D02*
X828000Y522000D01*
X567000Y1119000D02*
Y1163000D01*
Y1075000D02*
Y1119000D01*
Y1031000D02*
Y1075000D01*
Y987000D02*
Y1031000D01*
Y943000D02*
Y987000D01*
Y899000D02*
Y943000D01*
Y856000D02*
Y899000D01*
Y812000D02*
Y856000D01*
Y768000D02*
Y812000D01*
Y724000D02*
Y768000D01*
Y680000D02*
Y724000D01*
X461000Y797000D02*
X484000D01*
Y889000D01*
X349000Y721000D02*
Y788000D01*
X898000Y1103000D02*
X898000Y600000D01*
X898000D02*
X898000D01*
X805000Y507000D02*
X898000Y600000D01*
X886000Y596000D02*
X886000D01*
X799000Y509000D02*
X886000Y596000D01*
X874000Y592000D02*
Y865000D01*
X468000Y433000D02*
Y670000D01*
X3121000Y422000D02*
X3312000D01*
X2824000D02*
X3121000D01*
X2717000D02*
X2824000D01*
X2418000D02*
X2717000D01*
X2312000D02*
X2418000D01*
X2013000D02*
X2312000D01*
X1907000D02*
X2013000D01*
X1608000D02*
X1907000D01*
X1502000D02*
X1608000D01*
X1203000D02*
X1502000D01*
X1096000D02*
X1203000D01*
X826000Y576000D02*
Y643000D01*
X868000Y597000D02*
X868000Y926000D01*
X844000Y605000D02*
Y755000D01*
X832000Y599000D02*
Y664000D01*
X1140000Y1158000D02*
X1152000D01*
X832000D02*
X1140000D01*
X1960000Y1146000D02*
X3322000D01*
X856000D02*
X1960000D01*
X868000Y1140000D02*
X2365000D01*
X2769000Y1134000D02*
X3322000D01*
X880000D02*
X2769000D01*
X975000Y1128000D02*
X1591000Y1128000D01*
X963000D02*
X975000Y1128000D01*
X1584000Y1128000D02*
X1591000D01*
X1555000Y1152000D02*
X3322000D01*
X1140000Y1158000D02*
X1140000Y1158000D01*
X1152000D02*
X3322000D01*
X1295000Y1164000D02*
X1409000D01*
X1701000D01*
X1591000Y1128000D02*
X3175000D01*
X3322000D01*
X2623000Y1164000D02*
X2917000D01*
X3028000D01*
X1055000Y319000D02*
X3303000D01*
X1003000Y1164000D02*
X1295000D01*
X1701000D02*
X1813000D01*
X2107000D01*
X2218000D01*
X2512000D01*
X2623000D01*
X3028000D02*
X3322000D01*
X959000D02*
X1003000D01*
X2365000Y1140000D02*
X3322000D01*
X333000Y776000D02*
X348000D01*
X349000Y788000D02*
Y819000D01*
Y788000D02*
X349000Y788000D01*
X468000Y670000D02*
X469000Y694000D01*
X456000Y721000D02*
X469000Y708000D01*
X433000Y721000D02*
X456000D01*
X469000Y694000D02*
Y708000D01*
X453000Y694000D02*
X469000D01*
X452000D02*
X453000D01*
X450000Y692000D02*
X452000Y694000D01*
X390000Y797000D02*
X461000D01*
X381000Y788000D02*
X390000Y797000D01*
X349000Y788000D02*
X381000D01*
X769000Y519000D02*
X826000Y576000D01*
X775000Y517000D02*
X838000Y580000D01*
X781000Y515000D02*
X850000Y584000D01*
X787000Y513000D02*
X862000Y588000D01*
X432000Y721000D02*
X433000D01*
X421000D02*
X432000D01*
X433000D02*
X433000Y721000D01*
X856000Y599000D02*
X856000Y798000D01*
X892000Y1053000D02*
X892000Y701000D01*
X880000Y795000D02*
X880000Y795000D01*
X880000Y600000D02*
Y795000D01*
X892000Y701000D02*
Y704000D01*
Y605000D02*
Y701000D01*
D98*
X276000Y902000D02*
X322000D01*
X524000Y1124000D02*
Y1172000D01*
X276000Y580000D02*
Y594000D01*
Y595000D02*
Y902000D01*
D99*
X442000Y935000D02*
X518000D01*
X442000D02*
Y1007000D01*
D141*
X433000Y351500D02*
D03*
Y279500D02*
D03*
D142*
X373000Y383000D02*
D03*
Y248000D02*
D03*
D143*
X336360Y544200D02*
D03*
Y457700D02*
D03*
D144*
X297760Y544200D02*
D03*
Y457700D02*
D03*
D145*
X909000Y593000D02*
D03*
X732000Y465000D02*
D03*
X650000Y464000D02*
D03*
X909000Y627000D02*
D03*
X305000Y1170000D02*
D03*
X405000Y525000D02*
D03*
X465000Y840000D02*
D03*
X540000D02*
D03*
X518000Y935000D02*
D03*
X338000Y870000D02*
D03*
X495000Y850000D02*
D03*
X484000Y889000D02*
D03*
X442000Y1007000D02*
D03*
X513000Y949000D02*
D03*
X486000Y1031000D02*
D03*
X322000Y901000D02*
D03*
X420000Y395000D02*
D03*
X400000Y920000D02*
D03*
X427000Y940000D02*
D03*
X400000Y960000D02*
D03*
X540000Y870000D02*
D03*
X495000Y824000D02*
D03*
X330000Y830000D02*
D03*
X453000Y694000D02*
D03*
X356000Y661000D02*
D03*
X403000Y744000D02*
D03*
X524000Y1124000D02*
D03*
D146*
X739000Y587000D02*
D03*
X720000D02*
D03*
X726000Y571000D02*
D03*
X375000Y494000D02*
D03*
Y481000D02*
D03*
X505000Y757000D02*
D03*
X426000Y749000D02*
D03*
X396000Y757000D02*
D03*
X437000Y749000D02*
D03*
X501000Y716000D02*
D03*
X474000Y449000D02*
D03*
X431000Y457000D02*
D03*
X474000Y412000D02*
D03*
Y485000D02*
D03*
X521000Y493000D02*
D03*
X431000Y412000D02*
D03*
X501000D02*
D03*
X521000Y608000D02*
D03*
X616000Y532000D02*
D03*
X576000D02*
D03*
Y565000D02*
D03*
X521000Y532000D02*
D03*
X580000Y520000D02*
D03*
X554000Y448000D02*
D03*
X527000Y412000D02*
D03*
X596000Y497000D02*
D03*
Y471000D02*
D03*
X542000Y526000D02*
D03*
X521000Y590000D02*
D03*
Y514000D02*
D03*
X436000Y403000D02*
D03*
X462000Y426000D02*
D03*
X457000Y549000D02*
D03*
X462000Y539000D02*
D03*
X336000Y738000D02*
D03*
X299000Y801000D02*
D03*
X304000Y822000D02*
D03*
X548000Y578000D02*
D03*
X360000Y594000D02*
D03*
X346000Y599000D02*
D03*
X321000Y844000D02*
D03*
X319000Y636000D02*
D03*
X324000Y721000D02*
D03*
X319000Y766000D02*
D03*
X314000Y771000D02*
D03*
X309000Y786000D02*
D03*
X812000Y457000D02*
D03*
X827000Y390000D02*
D03*
X518000Y889000D02*
D03*
X567000Y538000D02*
D03*
X536000Y545000D02*
D03*
Y660000D02*
D03*
X761000Y397000D02*
D03*
Y407000D02*
D03*
X479000Y746000D02*
D03*
X484000Y751000D02*
D03*
X690000Y627000D02*
D03*
X600000Y549000D02*
D03*
X811000Y468000D02*
D03*
X506000Y870000D02*
D03*
X499000Y877000D02*
D03*
X506000D02*
D03*
X685000Y437000D02*
D03*
X316000Y587000D02*
D03*
X712000Y609000D02*
D03*
X511000Y640000D02*
D03*
X516000Y645000D02*
D03*
X501000Y650000D02*
D03*
X506000Y655000D02*
D03*
X765000Y1147000D02*
D03*
X790000Y946000D02*
D03*
X681000Y504000D02*
D03*
Y512000D02*
D03*
Y486000D02*
D03*
Y496000D02*
D03*
X650000Y491000D02*
D03*
X621000Y1147000D02*
D03*
X626000Y1103000D02*
D03*
X631000Y1059000D02*
D03*
X636000Y1015000D02*
D03*
X276000Y580000D02*
D03*
X535000Y910000D02*
D03*
X372000Y857000D02*
D03*
X366000Y820000D02*
D03*
X359000D02*
D03*
X282000Y796000D02*
D03*
X287000Y726000D02*
D03*
X681000Y478000D02*
D03*
X333000Y776000D02*
D03*
X338000Y781000D02*
D03*
X374000Y752000D02*
D03*
X530000Y905000D02*
D03*
X436000Y678000D02*
D03*
X349000Y819000D02*
D03*
X402000Y874000D02*
D03*
X411000Y818000D02*
D03*
X414000Y857000D02*
D03*
X819000Y386000D02*
D03*
X468000Y670000D02*
D03*
X447000Y678000D02*
D03*
X426000Y670000D02*
D03*
X815000Y713000D02*
D03*
X820000Y669000D02*
D03*
X770000Y1121000D02*
D03*
X398000Y431000D02*
D03*
X359000Y796000D02*
D03*
X317000Y801000D02*
D03*
X468000Y433000D02*
D03*
X576000Y1083000D02*
D03*
X496000Y767000D02*
D03*
X423000Y874000D02*
D03*
X335000Y684000D02*
D03*
X469000Y817000D02*
D03*
X461000Y797000D02*
D03*
X346000Y702000D02*
D03*
X576000Y646000D02*
D03*
X627000Y412000D02*
D03*
X447000Y438000D02*
D03*
X452000Y443000D02*
D03*
X411000Y615000D02*
D03*
X406000Y620000D02*
D03*
X378000Y746000D02*
D03*
X755000Y412000D02*
D03*
Y392000D02*
D03*
Y402000D02*
D03*
X576000Y1130000D02*
D03*
Y1042000D02*
D03*
Y998000D02*
D03*
Y954000D02*
D03*
Y910000D02*
D03*
Y866000D02*
D03*
Y822000D02*
D03*
Y778000D02*
D03*
Y734000D02*
D03*
Y690000D02*
D03*
X458000Y635000D02*
D03*
X521000D02*
D03*
X453000Y660000D02*
D03*
X416000D02*
D03*
X285000Y857000D02*
D03*
X707000Y640000D02*
D03*
X713000Y519000D02*
D03*
X719000Y524000D02*
D03*
X725000Y529000D02*
D03*
X743000Y545000D02*
D03*
X731000Y534000D02*
D03*
X737000Y539000D02*
D03*
X421000Y778000D02*
D03*
X459000Y655000D02*
D03*
X453000Y650000D02*
D03*
X381000Y655000D02*
D03*
X376000Y650000D02*
D03*
X453000Y640000D02*
D03*
X459000Y645000D02*
D03*
X366000Y640000D02*
D03*
X371000Y645000D02*
D03*
X432000Y721000D02*
D03*
X421000D02*
D03*
X325000Y494000D02*
D03*
X446000Y713000D02*
D03*
X704000Y412000D02*
D03*
X631000Y427000D02*
D03*
X626000Y432000D02*
D03*
X642000Y417000D02*
D03*
X647000Y422000D02*
D03*
X750000Y437000D02*
D03*
X713000Y432000D02*
D03*
X718000Y427000D02*
D03*
X738000Y417000D02*
D03*
X743000Y422000D02*
D03*
X750000Y417000D02*
D03*
X755000Y422000D02*
D03*
X750000Y427000D02*
D03*
X755000Y432000D02*
D03*
X741000Y673000D02*
D03*
X616000Y971000D02*
D03*
X611000Y927000D02*
D03*
X606000Y883000D02*
D03*
X601000Y839000D02*
D03*
X596000Y795000D02*
D03*
X591000Y751000D02*
D03*
X586000Y707000D02*
D03*
X581000Y663000D02*
D03*
X631000Y465000D02*
D03*
X626000Y471000D02*
D03*
X631000Y478000D02*
D03*
X636000Y484000D02*
D03*
X641000Y491000D02*
D03*
X646000Y497000D02*
D03*
X651000Y504000D02*
D03*
X656000Y510000D02*
D03*
X747000Y761000D02*
D03*
Y805000D02*
D03*
Y849000D02*
D03*
Y893000D02*
D03*
Y937000D02*
D03*
Y981000D02*
D03*
Y1025000D02*
D03*
Y1069000D02*
D03*
Y1113000D02*
D03*
Y1157000D02*
D03*
X713000Y465000D02*
D03*
X717000Y471000D02*
D03*
Y484000D02*
D03*
Y497000D02*
D03*
X713000Y503000D02*
D03*
Y491000D02*
D03*
Y478000D02*
D03*
Y510000D02*
D03*
X747000Y717000D02*
D03*
X775000Y1078000D02*
D03*
X785000Y990000D02*
D03*
X780000Y1034000D02*
D03*
X795000Y902000D02*
D03*
X800000Y858000D02*
D03*
X805000Y814000D02*
D03*
X810000Y770000D02*
D03*
D147*
X867000Y561000D02*
D03*
X3181000Y355000D02*
D03*
X2975000Y349000D02*
D03*
X2569000Y343000D02*
D03*
X2166000Y337000D02*
D03*
X1357000Y325000D02*
D03*
X500000Y1160000D02*
D03*
X438000D02*
D03*
X377000D02*
D03*
X315000D02*
D03*
X553000Y1167000D02*
D03*
X948000Y422000D02*
D03*
X833000Y382000D02*
D03*
X948000Y1164000D02*
D03*
X959000D02*
D03*
X941000Y1122000D02*
D03*
X833000Y517000D02*
D03*
X948000Y1121000D02*
D03*
Y1114000D02*
D03*
X827000Y445000D02*
D03*
X828000Y522000D02*
D03*
X567000Y1163000D02*
D03*
Y1119000D02*
D03*
Y1075000D02*
D03*
Y1031000D02*
D03*
Y987000D02*
D03*
Y943000D02*
D03*
Y899000D02*
D03*
Y856000D02*
D03*
Y812000D02*
D03*
Y768000D02*
D03*
Y724000D02*
D03*
Y680000D02*
D03*
Y618000D02*
D03*
X879000Y566000D02*
D03*
X3319000Y416000D02*
D03*
X2817000Y433000D02*
D03*
X3128000Y428000D02*
D03*
X2724000Y437000D02*
D03*
X3312000Y422000D02*
D03*
X3121000D02*
D03*
X2824000D02*
D03*
X2717000D02*
D03*
X2418000D02*
D03*
X2312000D02*
D03*
X2411000Y396000D02*
D03*
X2013000Y422000D02*
D03*
X1907000D02*
D03*
X1608000D02*
D03*
X1502000D02*
D03*
X1203000D02*
D03*
X1096000D02*
D03*
X2318000Y391000D02*
D03*
X2007000Y386000D02*
D03*
X1913000Y381000D02*
D03*
X1600000Y376000D02*
D03*
X1418000Y1069000D02*
D03*
X3090000Y305000D02*
D03*
X1766000Y331000D02*
D03*
X1104000Y361000D02*
D03*
X1196000Y366000D02*
D03*
X1509000Y371000D02*
D03*
X2769000Y1134000D02*
D03*
X1555000Y1152000D02*
D03*
X1152000Y1158000D02*
D03*
X1003000Y1164000D02*
D03*
X1409000D02*
D03*
X1295000D02*
D03*
X1701000D02*
D03*
X1813000D02*
D03*
X2107000D02*
D03*
X2218000D02*
D03*
X2623000D02*
D03*
X2512000D02*
D03*
X2917000D02*
D03*
X3028000D02*
D03*
X3322000D02*
D03*
X3175000Y1128000D02*
D03*
X1055000Y319000D02*
D03*
X2685000Y305000D02*
D03*
X2280000D02*
D03*
X1875000D02*
D03*
X1470000D02*
D03*
X1065000D02*
D03*
X1960000Y1146000D02*
D03*
X2365000Y1140000D02*
D03*
X959000Y1107000D02*
D03*
X1013000Y1079000D02*
D03*
X1286000Y1074000D02*
D03*
X1692000Y1064000D02*
D03*
X1823000Y1059000D02*
D03*
X2097000Y1054000D02*
D03*
X2228000Y1049000D02*
D03*
X2633000Y955000D02*
D03*
X2502000Y990000D02*
D03*
X2907000Y960000D02*
D03*
X3038000Y965000D02*
D03*
X3312000Y970000D02*
D03*
X467000Y1140000D02*
D03*
X844000Y755000D02*
D03*
X832000Y664000D02*
D03*
X838000Y708000D02*
D03*
X892000Y1127000D02*
D03*
X589000Y373000D02*
D03*
X367000Y1167000D02*
D03*
X429000D02*
D03*
X491000D02*
D03*
X553000Y412000D02*
D03*
X826000Y643000D02*
D03*
X819000Y429000D02*
D03*
X875000Y547000D02*
D03*
X880000Y1039000D02*
D03*
X886000Y1083000D02*
D03*
X862000Y907000D02*
D03*
X867000Y951000D02*
D03*
X832000Y687000D02*
D03*
X844000Y775000D02*
D03*
X838000Y731000D02*
D03*
X874000Y995000D02*
D03*
X856000Y863000D02*
D03*
X850000Y818000D02*
D03*
X895000Y443000D02*
D03*
X895000Y449000D02*
D03*
Y463000D02*
D03*
Y470000D02*
D03*
Y477000D02*
D03*
Y484000D02*
D03*
X895000Y491000D02*
D03*
X895000Y547000D02*
D03*
Y540000D02*
D03*
Y533000D02*
D03*
Y526000D02*
D03*
Y519000D02*
D03*
Y512000D02*
D03*
Y505000D02*
D03*
Y456000D02*
D03*
X955000Y280998D02*
D03*
Y240998D02*
D03*
Y250998D02*
D03*
Y260998D02*
D03*
Y270998D02*
D03*
X965000Y280998D02*
D03*
Y240998D02*
D03*
Y250998D02*
D03*
Y260998D02*
D03*
Y270998D02*
D03*
X975000Y280998D02*
D03*
Y240998D02*
D03*
Y250998D02*
D03*
Y260998D02*
D03*
Y270998D02*
D03*
X985000Y280998D02*
D03*
Y240998D02*
D03*
Y250998D02*
D03*
Y260998D02*
D03*
Y270998D02*
D03*
X995000Y280998D02*
D03*
Y240998D02*
D03*
Y250998D02*
D03*
Y260998D02*
D03*
Y270998D02*
D03*
X1005000Y280998D02*
D03*
Y240998D02*
D03*
Y250998D02*
D03*
Y260998D02*
D03*
Y270998D02*
D03*
X1410000Y270998D02*
D03*
Y260998D02*
D03*
Y250998D02*
D03*
Y240998D02*
D03*
Y280998D02*
D03*
X1400000Y270998D02*
D03*
Y260998D02*
D03*
Y250998D02*
D03*
Y240998D02*
D03*
Y280998D02*
D03*
X1390000Y270998D02*
D03*
Y260998D02*
D03*
Y250998D02*
D03*
Y240998D02*
D03*
Y280998D02*
D03*
X1380000Y270998D02*
D03*
Y260998D02*
D03*
Y250998D02*
D03*
Y240998D02*
D03*
Y280998D02*
D03*
X1370000Y270998D02*
D03*
Y260998D02*
D03*
Y250998D02*
D03*
Y240998D02*
D03*
Y280998D02*
D03*
X1360000Y270998D02*
D03*
Y260998D02*
D03*
Y250998D02*
D03*
Y240998D02*
D03*
Y280998D02*
D03*
X1765000Y279998D02*
D03*
Y239998D02*
D03*
Y249998D02*
D03*
Y259998D02*
D03*
Y269998D02*
D03*
X1775000Y279998D02*
D03*
Y239998D02*
D03*
Y249998D02*
D03*
Y259998D02*
D03*
Y269998D02*
D03*
X1785000Y279998D02*
D03*
Y239998D02*
D03*
Y249998D02*
D03*
Y259998D02*
D03*
Y269998D02*
D03*
X1795000Y279998D02*
D03*
Y239998D02*
D03*
Y249998D02*
D03*
Y259998D02*
D03*
Y269998D02*
D03*
X1805000Y279998D02*
D03*
Y239998D02*
D03*
Y249998D02*
D03*
Y259998D02*
D03*
Y269998D02*
D03*
X1815000Y279998D02*
D03*
Y239998D02*
D03*
Y249998D02*
D03*
Y259998D02*
D03*
Y269998D02*
D03*
X2170000Y279998D02*
D03*
Y239998D02*
D03*
Y249998D02*
D03*
Y259998D02*
D03*
Y269998D02*
D03*
X2180000Y279998D02*
D03*
Y239998D02*
D03*
Y249998D02*
D03*
Y259998D02*
D03*
Y269998D02*
D03*
X2190000Y279998D02*
D03*
Y239998D02*
D03*
Y249998D02*
D03*
Y259998D02*
D03*
Y269998D02*
D03*
X2200000Y279998D02*
D03*
Y239998D02*
D03*
Y249998D02*
D03*
Y259998D02*
D03*
Y269998D02*
D03*
X2210000Y279998D02*
D03*
Y239998D02*
D03*
Y249998D02*
D03*
Y259998D02*
D03*
Y269998D02*
D03*
X2220000Y279998D02*
D03*
Y239998D02*
D03*
Y249998D02*
D03*
Y259998D02*
D03*
Y269998D02*
D03*
X2575000Y279998D02*
D03*
Y239998D02*
D03*
Y249998D02*
D03*
Y259998D02*
D03*
Y269998D02*
D03*
X2585000Y279998D02*
D03*
Y239998D02*
D03*
Y249998D02*
D03*
Y259998D02*
D03*
Y269998D02*
D03*
X2595000Y279998D02*
D03*
Y239998D02*
D03*
Y249998D02*
D03*
Y259998D02*
D03*
Y269998D02*
D03*
X2605000Y279998D02*
D03*
Y239998D02*
D03*
Y249998D02*
D03*
Y259998D02*
D03*
Y269998D02*
D03*
X2615000Y279998D02*
D03*
Y239998D02*
D03*
Y249998D02*
D03*
Y259998D02*
D03*
Y269998D02*
D03*
X2625000Y279998D02*
D03*
Y239998D02*
D03*
Y249998D02*
D03*
Y259998D02*
D03*
Y269998D02*
D03*
X2980000Y279998D02*
D03*
Y239998D02*
D03*
Y249998D02*
D03*
Y259998D02*
D03*
Y269998D02*
D03*
X2990000Y279998D02*
D03*
Y239998D02*
D03*
Y249998D02*
D03*
Y259998D02*
D03*
Y269998D02*
D03*
X3000000Y279998D02*
D03*
Y239998D02*
D03*
Y249998D02*
D03*
Y259998D02*
D03*
Y269998D02*
D03*
X3010000Y279998D02*
D03*
Y239998D02*
D03*
Y249998D02*
D03*
Y259998D02*
D03*
Y269998D02*
D03*
X3020000Y279998D02*
D03*
Y239998D02*
D03*
Y249998D02*
D03*
Y259998D02*
D03*
Y269998D02*
D03*
X3030000Y279998D02*
D03*
Y239998D02*
D03*
Y249998D02*
D03*
Y259998D02*
D03*
Y269998D02*
D03*
X895000Y498000D02*
D03*
D148*
X3367000Y1174000D02*
D03*
D149*
X460000Y1168500D02*
D03*
D150*
X1868500Y1175000D02*
D03*
D151*
X1885000Y255000D02*
D03*
M02*
