G04*
G04 #@! TF.GenerationSoftware,Altium Limited,Altium Designer,18.1.7 (191)*
G04*
G04 Layer_Color=8421504*
%FSLAX44Y44*%
%MOMM*%
G71*
G01*
G75*
%ADD22R,1.6000X1.8000*%
%ADD23R,0.6000X0.6000*%
%ADD24R,2.0000X2.0000*%
%ADD25R,6.0000X6.0000*%
G04:AMPARAMS|DCode=26|XSize=2mm|YSize=1mm|CornerRadius=0mm|HoleSize=0mm|Usage=FLASHONLY|Rotation=180.000|XOffset=0mm|YOffset=0mm|HoleType=Round|Shape=Octagon|*
%AMOCTAGOND26*
4,1,8,-1.0000,0.2500,-1.0000,-0.2500,-0.7500,-0.5000,0.7500,-0.5000,1.0000,-0.2500,1.0000,0.2500,0.7500,0.5000,-0.7500,0.5000,-1.0000,0.2500,0.0*
%
%ADD26OCTAGOND26*%

%ADD27R,2.0000X1.0000*%
%ADD28R,0.6000X0.6000*%
%ADD29R,7.0000X5.0000*%
%ADD30R,0.4500X1.0000*%
%ADD31R,0.2000X0.6000*%
%ADD32R,1.2000X1.5000*%
%ADD33R,2.0000X1.1000*%
%ADD34R,0.5500X0.8000*%
%ADD35R,0.8000X0.5500*%
%ADD36R,5.4000X2.9000*%
%ADD37R,1.5000X1.2000*%
%ADD38R,3.2000X1.7000*%
%ADD39R,0.9000X1.7000*%
%ADD40R,0.3500X1.0000*%
%ADD41R,0.3500X1.0000*%
G04:AMPARAMS|DCode=42|XSize=1.47mm|YSize=0.48mm|CornerRadius=0.06mm|HoleSize=0mm|Usage=FLASHONLY|Rotation=90.000|XOffset=0mm|YOffset=0mm|HoleType=Round|Shape=RoundedRectangle|*
%AMROUNDEDRECTD42*
21,1,1.4700,0.3600,0,0,90.0*
21,1,1.3500,0.4800,0,0,90.0*
1,1,0.1200,0.1800,0.6750*
1,1,0.1200,0.1800,-0.6750*
1,1,0.1200,-0.1800,-0.6750*
1,1,0.1200,-0.1800,0.6750*
%
%ADD42ROUNDEDRECTD42*%
%ADD43R,2.2000X1.8000*%
%ADD44R,1.4500X0.3000*%
%ADD45R,0.9300X0.9800*%
%ADD46R,1.0000X0.4500*%
G04:AMPARAMS|DCode=47|XSize=0.3mm|YSize=0.8mm|CornerRadius=0.075mm|HoleSize=0mm|Usage=FLASHONLY|Rotation=0.000|XOffset=0mm|YOffset=0mm|HoleType=Round|Shape=RoundedRectangle|*
%AMROUNDEDRECTD47*
21,1,0.3000,0.6500,0,0,0.0*
21,1,0.1500,0.8000,0,0,0.0*
1,1,0.1500,0.0750,-0.3250*
1,1,0.1500,-0.0750,-0.3250*
1,1,0.1500,-0.0750,0.3250*
1,1,0.1500,0.0750,0.3250*
%
%ADD47ROUNDEDRECTD47*%
G04:AMPARAMS|DCode=48|XSize=0.3mm|YSize=0.8mm|CornerRadius=0.075mm|HoleSize=0mm|Usage=FLASHONLY|Rotation=90.000|XOffset=0mm|YOffset=0mm|HoleType=Round|Shape=RoundedRectangle|*
%AMROUNDEDRECTD48*
21,1,0.3000,0.6500,0,0,90.0*
21,1,0.1500,0.8000,0,0,90.0*
1,1,0.1500,0.3250,0.0750*
1,1,0.1500,0.3250,-0.0750*
1,1,0.1500,-0.3250,-0.0750*
1,1,0.1500,-0.3250,0.0750*
%
%ADD48ROUNDEDRECTD48*%
%ADD49R,0.8000X0.8000*%
%ADD50R,0.7000X1.1000*%
%ADD51R,0.9800X0.9300*%
%ADD52R,1.1500X0.6000*%
%ADD53R,1.1500X0.3000*%
%ADD54R,1.8000X3.4000*%
%ADD55R,1.1000X2.0000*%
%ADD56R,1.7000X2.4000*%
D22*
X914000Y711000D02*
D03*
X886000D02*
D03*
X914000Y667000D02*
D03*
X886000D02*
D03*
X914000Y975000D02*
D03*
X886000D02*
D03*
X914000Y931000D02*
D03*
X886000D02*
D03*
X914000Y887000D02*
D03*
X886000D02*
D03*
X914000Y843000D02*
D03*
X886000D02*
D03*
X914000Y798000D02*
D03*
X886000D02*
D03*
X914000Y754000D02*
D03*
X886000D02*
D03*
X914000Y1019000D02*
D03*
X886000D02*
D03*
X914000Y1063000D02*
D03*
X886000D02*
D03*
X914000Y1107000D02*
D03*
X886000D02*
D03*
X914000Y1151000D02*
D03*
X886000D02*
D03*
D23*
X715000Y555920D02*
D03*
Y566080D02*
D03*
X704000Y555920D02*
D03*
Y566080D02*
D03*
X693000Y555920D02*
D03*
Y566080D02*
D03*
X729000Y649920D02*
D03*
Y660080D02*
D03*
Y669920D02*
D03*
Y680080D02*
D03*
Y704080D02*
D03*
Y693920D02*
D03*
Y713920D02*
D03*
Y724080D02*
D03*
Y748080D02*
D03*
Y737920D02*
D03*
Y757920D02*
D03*
Y768080D02*
D03*
Y792080D02*
D03*
Y781920D02*
D03*
Y801920D02*
D03*
Y812080D02*
D03*
Y836080D02*
D03*
Y825920D02*
D03*
Y845920D02*
D03*
Y856080D02*
D03*
Y880080D02*
D03*
Y869920D02*
D03*
Y889920D02*
D03*
Y900080D02*
D03*
Y924080D02*
D03*
Y913920D02*
D03*
Y933920D02*
D03*
Y944080D02*
D03*
Y968080D02*
D03*
Y957920D02*
D03*
Y977920D02*
D03*
Y988080D02*
D03*
Y1012080D02*
D03*
Y1001920D02*
D03*
Y1021920D02*
D03*
Y1032080D02*
D03*
Y1056080D02*
D03*
Y1045920D02*
D03*
X729000Y1065920D02*
D03*
Y1076080D02*
D03*
X729000Y1100080D02*
D03*
Y1089920D02*
D03*
Y1109920D02*
D03*
Y1120080D02*
D03*
Y1144080D02*
D03*
Y1133920D02*
D03*
Y1153920D02*
D03*
Y1164080D02*
D03*
X685000Y448920D02*
D03*
Y459080D02*
D03*
X362000Y627080D02*
D03*
Y616920D02*
D03*
X369000Y605080D02*
D03*
Y594920D02*
D03*
X376000Y627080D02*
D03*
Y616920D02*
D03*
X383000Y605080D02*
D03*
Y594920D02*
D03*
X731000Y598920D02*
D03*
Y609080D02*
D03*
X720000D02*
D03*
Y598920D02*
D03*
X596000Y478920D02*
D03*
Y489080D02*
D03*
Y515080D02*
D03*
Y504920D02*
D03*
X1097000Y341080D02*
D03*
Y330920D02*
D03*
X1203000Y341080D02*
D03*
Y330920D02*
D03*
X1502000Y341080D02*
D03*
Y330920D02*
D03*
X1608000Y341080D02*
D03*
Y330920D02*
D03*
X1907000Y341080D02*
D03*
Y330920D02*
D03*
X2013000Y341080D02*
D03*
Y330920D02*
D03*
X2312000Y341080D02*
D03*
Y330920D02*
D03*
X2418000Y341080D02*
D03*
Y330920D02*
D03*
X2717000Y340080D02*
D03*
Y329920D02*
D03*
X2824000Y340080D02*
D03*
Y329920D02*
D03*
X3121000Y340080D02*
D03*
Y329920D02*
D03*
X3311000Y340080D02*
D03*
Y329920D02*
D03*
X1013000Y1160080D02*
D03*
Y1149920D02*
D03*
X1286000Y1161080D02*
D03*
Y1150920D02*
D03*
X1418000Y1161080D02*
D03*
Y1150920D02*
D03*
X1692000Y1161080D02*
D03*
Y1150920D02*
D03*
X1823000Y1160080D02*
D03*
Y1149920D02*
D03*
X2097000Y1160080D02*
D03*
Y1149920D02*
D03*
X2228000Y1160080D02*
D03*
Y1149920D02*
D03*
X2502000Y1160080D02*
D03*
Y1149920D02*
D03*
X2633000Y1160080D02*
D03*
Y1149920D02*
D03*
X2907000Y1160080D02*
D03*
Y1149920D02*
D03*
X3038000Y1160080D02*
D03*
Y1149920D02*
D03*
X3312000Y1160080D02*
D03*
Y1149920D02*
D03*
X791000Y475080D02*
D03*
Y464920D02*
D03*
X759000Y530920D02*
D03*
Y541080D02*
D03*
X568000Y415920D02*
D03*
Y426080D02*
D03*
X495000Y984920D02*
D03*
Y995080D02*
D03*
X481000Y984920D02*
D03*
Y995080D02*
D03*
X442000Y984920D02*
D03*
Y995080D02*
D03*
X430000Y984920D02*
D03*
Y995080D02*
D03*
X418000Y985000D02*
D03*
Y995160D02*
D03*
X406000Y984920D02*
D03*
Y995080D02*
D03*
X394000Y984920D02*
D03*
Y995080D02*
D03*
X552000Y1046920D02*
D03*
Y1057080D02*
D03*
X717000Y1099920D02*
D03*
Y1110080D02*
D03*
X322000Y692920D02*
D03*
Y703080D02*
D03*
X608000Y548920D02*
D03*
Y559080D02*
D03*
X467000Y995080D02*
D03*
Y984920D02*
D03*
X596000Y452920D02*
D03*
Y463080D02*
D03*
X467000Y1118920D02*
D03*
Y1129080D02*
D03*
X370000Y995080D02*
D03*
Y984920D02*
D03*
X346000Y995080D02*
D03*
Y984920D02*
D03*
X511000Y1102080D02*
D03*
Y1091920D02*
D03*
X500000Y1102080D02*
D03*
Y1091920D02*
D03*
X358000Y984920D02*
D03*
Y995080D02*
D03*
X741000Y660080D02*
D03*
Y649920D02*
D03*
Y704080D02*
D03*
Y693920D02*
D03*
Y748080D02*
D03*
Y737920D02*
D03*
Y792080D02*
D03*
Y781920D02*
D03*
Y836080D02*
D03*
Y825920D02*
D03*
Y880080D02*
D03*
Y869920D02*
D03*
Y924080D02*
D03*
Y913920D02*
D03*
Y968080D02*
D03*
Y957920D02*
D03*
Y1012080D02*
D03*
Y1001920D02*
D03*
Y1056080D02*
D03*
Y1045920D02*
D03*
Y1100080D02*
D03*
Y1089920D02*
D03*
Y1144080D02*
D03*
Y1133920D02*
D03*
X802000Y1140920D02*
D03*
Y1151080D02*
D03*
X790000D02*
D03*
Y1140920D02*
D03*
X717000Y1154080D02*
D03*
Y1143920D02*
D03*
X802000Y1096920D02*
D03*
Y1107080D02*
D03*
X790000D02*
D03*
Y1096920D02*
D03*
X802000Y1052920D02*
D03*
Y1063080D02*
D03*
X790000D02*
D03*
Y1052920D02*
D03*
X717000Y1066080D02*
D03*
Y1055920D02*
D03*
X802000Y1009920D02*
D03*
Y1020080D02*
D03*
X790000D02*
D03*
Y1009920D02*
D03*
X717000Y1022080D02*
D03*
Y1011920D02*
D03*
X802000Y965920D02*
D03*
Y976080D02*
D03*
X790000D02*
D03*
Y965920D02*
D03*
X717000Y978080D02*
D03*
Y967920D02*
D03*
X802000Y921920D02*
D03*
Y932080D02*
D03*
X790000D02*
D03*
Y921920D02*
D03*
X717000Y934080D02*
D03*
Y923920D02*
D03*
Y890080D02*
D03*
Y879920D02*
D03*
X790000Y888080D02*
D03*
Y877920D02*
D03*
X802000Y877920D02*
D03*
Y888080D02*
D03*
X717000Y846080D02*
D03*
Y835920D02*
D03*
X790000Y844080D02*
D03*
Y833920D02*
D03*
X802000D02*
D03*
Y844080D02*
D03*
X717000Y802080D02*
D03*
Y791920D02*
D03*
X790000Y800080D02*
D03*
Y789920D02*
D03*
X802000Y789920D02*
D03*
Y800080D02*
D03*
Y745920D02*
D03*
Y756080D02*
D03*
X790000Y756080D02*
D03*
Y745920D02*
D03*
X717000Y758080D02*
D03*
Y747920D02*
D03*
Y714080D02*
D03*
Y703920D02*
D03*
X790000Y712080D02*
D03*
Y701920D02*
D03*
X802000Y701920D02*
D03*
Y712080D02*
D03*
Y657920D02*
D03*
Y668080D02*
D03*
X790000Y668080D02*
D03*
Y657920D02*
D03*
X294000Y811920D02*
D03*
Y822080D02*
D03*
X810000Y599920D02*
D03*
Y610080D02*
D03*
X382000Y984920D02*
D03*
Y995080D02*
D03*
X294000Y919920D02*
D03*
Y930080D02*
D03*
Y1019920D02*
D03*
Y1030080D02*
D03*
Y1119920D02*
D03*
Y1130080D02*
D03*
X470000Y549080D02*
D03*
Y538920D02*
D03*
X717000Y659920D02*
D03*
Y670080D02*
D03*
X560000Y395080D02*
D03*
Y384920D02*
D03*
X812000Y439080D02*
D03*
Y428920D02*
D03*
X335000Y703080D02*
D03*
Y692920D02*
D03*
X419000Y641920D02*
D03*
Y652080D02*
D03*
X429000Y641920D02*
D03*
Y652080D02*
D03*
X618000Y384920D02*
D03*
Y395080D02*
D03*
X801000Y439080D02*
D03*
Y428920D02*
D03*
X378000Y834920D02*
D03*
Y845080D02*
D03*
X367000D02*
D03*
Y834920D02*
D03*
X356000Y482080D02*
D03*
Y471920D02*
D03*
X356000Y521920D02*
D03*
Y532080D02*
D03*
D24*
X435000Y475000D02*
D03*
X405000D02*
D03*
X375000D02*
D03*
X530000Y800000D02*
D03*
Y740000D02*
D03*
Y770000D02*
D03*
D25*
X555500Y482000D02*
D03*
X980000Y259998D02*
D03*
X1150000Y257998D02*
D03*
X417000Y939000D02*
D03*
X1555000Y257998D02*
D03*
X1385000Y259998D02*
D03*
X1960000Y257998D02*
D03*
X1790000Y259998D02*
D03*
X2365000Y257998D02*
D03*
X2195000Y259998D02*
D03*
X2770000Y257998D02*
D03*
X2600000Y259998D02*
D03*
X3175000Y257998D02*
D03*
X3005000Y259998D02*
D03*
D26*
X488000Y506000D02*
D03*
X1047500Y235998D02*
D03*
X1082500Y281998D02*
D03*
X349500Y963000D02*
D03*
X1487500Y281998D02*
D03*
X1452500Y235998D02*
D03*
X1892500Y281998D02*
D03*
X1857500Y235998D02*
D03*
X2297500Y281998D02*
D03*
X2262500Y235998D02*
D03*
X2702500Y281998D02*
D03*
X2667500Y235998D02*
D03*
X3107500Y281998D02*
D03*
X3072500Y235998D02*
D03*
D27*
X489000Y460000D02*
D03*
X1046500Y281998D02*
D03*
X1083500Y235998D02*
D03*
X350500Y917000D02*
D03*
X1488500Y235998D02*
D03*
X1451500Y281998D02*
D03*
X1893500Y235998D02*
D03*
X1856500Y281998D02*
D03*
X2298500Y235998D02*
D03*
X2261500Y281998D02*
D03*
X2703500Y235998D02*
D03*
X2666500Y281998D02*
D03*
X3108500Y235998D02*
D03*
X3071500Y281998D02*
D03*
D28*
X459920Y467000D02*
D03*
X470080D02*
D03*
X459920Y503000D02*
D03*
X470080D02*
D03*
Y457000D02*
D03*
X459920D02*
D03*
Y477000D02*
D03*
X470080D02*
D03*
X459920Y513000D02*
D03*
X470080D02*
D03*
X459920Y493000D02*
D03*
X470080D02*
D03*
X686920Y529000D02*
D03*
X697080D02*
D03*
X532080Y987000D02*
D03*
X521920D02*
D03*
X536080Y1103000D02*
D03*
X525920D02*
D03*
X532080Y998000D02*
D03*
X521920D02*
D03*
X482080Y682000D02*
D03*
X471920D02*
D03*
X510080Y1081000D02*
D03*
X499920D02*
D03*
X509080Y1053000D02*
D03*
X498920D02*
D03*
Y1065000D02*
D03*
X509080D02*
D03*
X500920Y1113000D02*
D03*
X511080D02*
D03*
X477920Y1118000D02*
D03*
X488080D02*
D03*
X510080Y1129000D02*
D03*
X499920D02*
D03*
X488080D02*
D03*
X477920D02*
D03*
X592920Y874000D02*
D03*
X603080D02*
D03*
X577080D02*
D03*
X566920D02*
D03*
X592920Y593000D02*
D03*
X603080D02*
D03*
X577080D02*
D03*
X566920D02*
D03*
X592920Y1138000D02*
D03*
X603080D02*
D03*
X577080D02*
D03*
X566920D02*
D03*
X592920Y1094000D02*
D03*
X603080D02*
D03*
X577080D02*
D03*
X566920D02*
D03*
X592920Y1050000D02*
D03*
X603080D02*
D03*
X577080D02*
D03*
X566920D02*
D03*
X592920Y1006000D02*
D03*
X603080D02*
D03*
X577080D02*
D03*
X566920D02*
D03*
X592920Y962000D02*
D03*
X603080D02*
D03*
X577080D02*
D03*
X566920D02*
D03*
X592920Y918000D02*
D03*
X603080D02*
D03*
X577080D02*
D03*
X566920D02*
D03*
X592920Y830000D02*
D03*
X603080D02*
D03*
X577080D02*
D03*
X566920D02*
D03*
X592920Y786000D02*
D03*
X603080D02*
D03*
X577080D02*
D03*
X566920D02*
D03*
X592920Y742000D02*
D03*
X603080D02*
D03*
X577080D02*
D03*
X566920D02*
D03*
X592920Y698000D02*
D03*
X603080D02*
D03*
X577080D02*
D03*
X566920D02*
D03*
X592920Y654000D02*
D03*
X603080D02*
D03*
X577080D02*
D03*
X566920D02*
D03*
X566920Y610000D02*
D03*
X577080D02*
D03*
X566920Y1155000D02*
D03*
X577080D02*
D03*
X566920Y1111000D02*
D03*
X577080D02*
D03*
X566920Y1067000D02*
D03*
X577080D02*
D03*
X566920Y1023000D02*
D03*
X577080D02*
D03*
X566920Y979000D02*
D03*
X577080D02*
D03*
X566920Y935000D02*
D03*
X577080D02*
D03*
X566920Y891000D02*
D03*
X577080D02*
D03*
X566920Y848000D02*
D03*
X577080D02*
D03*
X566920Y804000D02*
D03*
X577080D02*
D03*
X566920Y760000D02*
D03*
X577080D02*
D03*
X566920Y716000D02*
D03*
X577080D02*
D03*
X566920Y672000D02*
D03*
X577080D02*
D03*
X321920Y915000D02*
D03*
X332080D02*
D03*
Y939000D02*
D03*
X321920D02*
D03*
X332080Y927000D02*
D03*
X321920D02*
D03*
X594080Y396000D02*
D03*
X583920D02*
D03*
X581080Y385000D02*
D03*
X570920D02*
D03*
X398080Y417000D02*
D03*
X387920D02*
D03*
X902920Y442000D02*
D03*
X913080D02*
D03*
X923920Y463000D02*
D03*
X934080D02*
D03*
X449840Y817000D02*
D03*
X460000D02*
D03*
X502080Y426000D02*
D03*
X491920D02*
D03*
X376080Y417000D02*
D03*
X365920D02*
D03*
X321920Y951000D02*
D03*
X332080D02*
D03*
X413920Y865000D02*
D03*
X424080D02*
D03*
X446080D02*
D03*
X435920D02*
D03*
X391920Y865000D02*
D03*
X402080D02*
D03*
X286920Y597000D02*
D03*
X297080D02*
D03*
X446920Y670000D02*
D03*
X457080D02*
D03*
X471920Y694000D02*
D03*
X482080D02*
D03*
X521920Y391000D02*
D03*
X532080D02*
D03*
X420080Y417000D02*
D03*
X409920D02*
D03*
X923920Y547000D02*
D03*
X934080D02*
D03*
X923920Y533000D02*
D03*
X934080D02*
D03*
X902920Y540000D02*
D03*
X913080D02*
D03*
X923920Y519190D02*
D03*
X934080D02*
D03*
X902920Y526000D02*
D03*
X913080D02*
D03*
X902920Y512000D02*
D03*
X913080D02*
D03*
X923920Y505000D02*
D03*
X934080D02*
D03*
X902920Y498000D02*
D03*
X913080D02*
D03*
X902920Y470000D02*
D03*
X913080D02*
D03*
X902920Y456000D02*
D03*
X913080D02*
D03*
X923920Y449000D02*
D03*
X934080D02*
D03*
X596920Y385000D02*
D03*
X607080D02*
D03*
D29*
X3270000Y1156352D02*
D03*
X3270000Y336352D02*
D03*
X3080000D02*
D03*
Y1156352D02*
D03*
X2865000Y1156000D02*
D03*
X2865000Y336000D02*
D03*
X2675000D02*
D03*
Y1156000D02*
D03*
X2460000D02*
D03*
X2460000Y336000D02*
D03*
X2270000D02*
D03*
Y1156000D02*
D03*
X2055000Y1156000D02*
D03*
X2055000Y336000D02*
D03*
X1865000D02*
D03*
Y1156000D02*
D03*
X1650000Y1156000D02*
D03*
X1650000Y336000D02*
D03*
X1460000D02*
D03*
Y1156000D02*
D03*
X1245000Y1156000D02*
D03*
X1245000Y336000D02*
D03*
X1055000D02*
D03*
Y1156000D02*
D03*
D30*
X346000Y612000D02*
D03*
Y634000D02*
D03*
Y672000D02*
D03*
Y650000D02*
D03*
X819000Y678000D02*
D03*
Y656000D02*
D03*
Y722000D02*
D03*
Y700000D02*
D03*
Y766000D02*
D03*
Y744000D02*
D03*
Y810000D02*
D03*
Y788000D02*
D03*
Y854000D02*
D03*
Y832000D02*
D03*
Y898000D02*
D03*
Y876000D02*
D03*
Y942000D02*
D03*
Y920000D02*
D03*
Y986000D02*
D03*
Y964000D02*
D03*
Y1030000D02*
D03*
Y1008000D02*
D03*
Y1074000D02*
D03*
Y1052000D02*
D03*
Y1118000D02*
D03*
Y1096000D02*
D03*
Y1162000D02*
D03*
Y1140000D02*
D03*
D31*
X924000Y491000D02*
D03*
X928000D02*
D03*
D32*
X327092Y1163000D02*
D03*
X355000D02*
D03*
X513046Y1163000D02*
D03*
X540954D02*
D03*
X451046D02*
D03*
X478954D02*
D03*
X389046D02*
D03*
X416954D02*
D03*
D33*
X532000Y1050000D02*
D03*
Y1090000D02*
D03*
D34*
X535000Y1114500D02*
D03*
X525500Y1137500D02*
D03*
X544500D02*
D03*
X765000Y651500D02*
D03*
X755500Y674500D02*
D03*
X774500D02*
D03*
X765000Y694500D02*
D03*
X755500Y717500D02*
D03*
X774500D02*
D03*
X765000Y738500D02*
D03*
X755500Y761500D02*
D03*
X774500D02*
D03*
X765000Y782500D02*
D03*
X755500Y805500D02*
D03*
X774500D02*
D03*
X765000Y826500D02*
D03*
X755500Y849500D02*
D03*
X774500D02*
D03*
X765000Y870500D02*
D03*
X755500Y893500D02*
D03*
X774500D02*
D03*
X765000Y914500D02*
D03*
X755500Y937500D02*
D03*
X774500D02*
D03*
X765000Y958500D02*
D03*
X755500Y981500D02*
D03*
X774500D02*
D03*
X765000Y1002500D02*
D03*
X755500Y1025500D02*
D03*
X774500D02*
D03*
X765000Y1046500D02*
D03*
X755500Y1069500D02*
D03*
X774500D02*
D03*
X765000Y1090500D02*
D03*
X755500Y1113500D02*
D03*
X774500D02*
D03*
X765000Y1134500D02*
D03*
X755500Y1157500D02*
D03*
X774500D02*
D03*
X850000Y1162500D02*
D03*
X859500Y1139500D02*
D03*
X840500D02*
D03*
X850000Y1118500D02*
D03*
X859500Y1095500D02*
D03*
X840500D02*
D03*
X850000Y1074500D02*
D03*
X859500Y1051500D02*
D03*
X840500D02*
D03*
X850000Y1030500D02*
D03*
X859500Y1007500D02*
D03*
X840500D02*
D03*
X850000Y986500D02*
D03*
X859500Y963500D02*
D03*
X840500D02*
D03*
X850000Y942500D02*
D03*
X859500Y919500D02*
D03*
X840500D02*
D03*
X850000Y898500D02*
D03*
X859500Y875500D02*
D03*
X840500D02*
D03*
X850000Y854500D02*
D03*
X859500Y831500D02*
D03*
X840500D02*
D03*
X850000Y809500D02*
D03*
X859500Y786500D02*
D03*
X840500D02*
D03*
X850000Y766500D02*
D03*
X859500Y743500D02*
D03*
X840500D02*
D03*
X850000Y722500D02*
D03*
X859500Y699500D02*
D03*
X840500D02*
D03*
X850000Y679500D02*
D03*
X859500Y656500D02*
D03*
X840500D02*
D03*
X517500Y402500D02*
D03*
X536500D02*
D03*
X527000Y425500D02*
D03*
X925500Y420500D02*
D03*
X906500D02*
D03*
X916000Y397500D02*
D03*
X886500Y420500D02*
D03*
X867500D02*
D03*
X877000Y397500D02*
D03*
D35*
X545000Y1023000D02*
D03*
X522000Y1013500D02*
D03*
Y1032500D02*
D03*
X644500Y555000D02*
D03*
X621500Y545500D02*
D03*
Y564500D02*
D03*
X680500Y555000D02*
D03*
X657500Y545500D02*
D03*
Y564500D02*
D03*
X567500Y555000D02*
D03*
X590500Y564500D02*
D03*
Y545500D02*
D03*
X846500Y605000D02*
D03*
X823500Y595500D02*
D03*
Y614500D02*
D03*
D36*
X384000Y1130000D02*
D03*
Y1030000D02*
D03*
D37*
X663000Y589046D02*
D03*
Y616954D02*
D03*
X663000Y1134046D02*
D03*
Y1161954D02*
D03*
Y1090046D02*
D03*
Y1117954D02*
D03*
Y1046046D02*
D03*
Y1073954D02*
D03*
Y1002046D02*
D03*
Y1029954D02*
D03*
Y958046D02*
D03*
Y985954D02*
D03*
Y914046D02*
D03*
Y941954D02*
D03*
Y870046D02*
D03*
Y897954D02*
D03*
Y826046D02*
D03*
Y853954D02*
D03*
Y782046D02*
D03*
Y809954D02*
D03*
Y738046D02*
D03*
Y765954D02*
D03*
Y694046D02*
D03*
Y721954D02*
D03*
Y650046D02*
D03*
Y677954D02*
D03*
D38*
X490000Y907000D02*
D03*
D39*
X467000Y968000D02*
D03*
X490000D02*
D03*
X513000D02*
D03*
D40*
X583500Y410500D02*
D03*
X590000Y429500D02*
D03*
X583500D02*
D03*
X590000Y410500D02*
D03*
X596500D02*
D03*
D41*
X596500Y429500D02*
D03*
D42*
X465250Y1059500D02*
D03*
X471750D02*
D03*
X478250D02*
D03*
X484750D02*
D03*
Y1102500D02*
D03*
X478250D02*
D03*
X471750D02*
D03*
X465250D02*
D03*
D43*
X502000Y1032000D02*
D03*
X464000Y1031000D02*
D03*
D44*
X668500Y490750D02*
D03*
Y484250D02*
D03*
Y477750D02*
D03*
Y471250D02*
D03*
Y464750D02*
D03*
Y458250D02*
D03*
Y445250D02*
D03*
Y451750D02*
D03*
X614000Y451800D02*
D03*
Y445300D02*
D03*
Y458300D02*
D03*
Y464800D02*
D03*
Y471300D02*
D03*
Y477800D02*
D03*
Y484300D02*
D03*
Y490800D02*
D03*
Y497300D02*
D03*
Y503800D02*
D03*
Y510300D02*
D03*
Y516800D02*
D03*
X668500Y516750D02*
D03*
Y510250D02*
D03*
Y503750D02*
D03*
Y497250D02*
D03*
X755500Y490750D02*
D03*
Y484250D02*
D03*
Y477750D02*
D03*
Y471250D02*
D03*
Y464750D02*
D03*
Y458250D02*
D03*
Y445250D02*
D03*
Y451750D02*
D03*
X701000Y451800D02*
D03*
Y445300D02*
D03*
Y458300D02*
D03*
Y464800D02*
D03*
Y471300D02*
D03*
Y477800D02*
D03*
Y484300D02*
D03*
Y490800D02*
D03*
Y497300D02*
D03*
Y503800D02*
D03*
Y510300D02*
D03*
Y516800D02*
D03*
X755500Y516750D02*
D03*
Y510250D02*
D03*
Y503750D02*
D03*
Y497250D02*
D03*
X805500Y501373D02*
D03*
Y507873D02*
D03*
Y514373D02*
D03*
Y520873D02*
D03*
Y527373D02*
D03*
Y533873D02*
D03*
Y546873D02*
D03*
Y540373D02*
D03*
X860000Y540323D02*
D03*
Y546823D02*
D03*
Y533823D02*
D03*
Y527323D02*
D03*
Y520823D02*
D03*
Y514323D02*
D03*
Y507823D02*
D03*
Y501323D02*
D03*
Y494823D02*
D03*
Y488323D02*
D03*
Y481823D02*
D03*
Y475323D02*
D03*
X805500Y475373D02*
D03*
Y481873D02*
D03*
Y488373D02*
D03*
Y494873D02*
D03*
D45*
X605700Y612000D02*
D03*
X590300D02*
D03*
X605700Y1157000D02*
D03*
X590300D02*
D03*
X605700Y1113000D02*
D03*
X590300D02*
D03*
X605700Y1069000D02*
D03*
X590300D02*
D03*
X605700Y1025000D02*
D03*
X590300D02*
D03*
X605700Y981000D02*
D03*
X590300D02*
D03*
X605700Y937000D02*
D03*
X590300D02*
D03*
X605700Y893000D02*
D03*
X590300D02*
D03*
X605700Y806000D02*
D03*
X590300D02*
D03*
X605700Y850000D02*
D03*
X590300D02*
D03*
X605700Y762000D02*
D03*
X590300D02*
D03*
X605700Y718000D02*
D03*
X590300D02*
D03*
X605700Y674000D02*
D03*
X590300D02*
D03*
D46*
X681000Y614000D02*
D03*
X703000D02*
D03*
X703000Y593000D02*
D03*
X681000D02*
D03*
X643000Y615000D02*
D03*
X621000D02*
D03*
X621000Y593000D02*
D03*
X643000D02*
D03*
X681000Y1159000D02*
D03*
X703000D02*
D03*
X703000Y1138000D02*
D03*
X681000D02*
D03*
X643000Y1160000D02*
D03*
X621000D02*
D03*
X621000Y1138000D02*
D03*
X643000D02*
D03*
X681000Y1115000D02*
D03*
X703000D02*
D03*
X703000Y1094000D02*
D03*
X681000D02*
D03*
X643000Y1116000D02*
D03*
X621000D02*
D03*
X621000Y1094000D02*
D03*
X643000D02*
D03*
X621000Y1050000D02*
D03*
X643000D02*
D03*
X643000Y1072000D02*
D03*
X621000D02*
D03*
X703000Y1050000D02*
D03*
X681000D02*
D03*
X681000Y1071000D02*
D03*
X703000D02*
D03*
X621000Y1006000D02*
D03*
X643000D02*
D03*
X643000Y1028000D02*
D03*
X621000D02*
D03*
X703000Y1006000D02*
D03*
X681000D02*
D03*
X681000Y1027000D02*
D03*
X703000D02*
D03*
X621000Y962000D02*
D03*
X643000D02*
D03*
X643000Y984000D02*
D03*
X621000D02*
D03*
X703000Y962000D02*
D03*
X681000D02*
D03*
X681000Y983000D02*
D03*
X703000D02*
D03*
X681000Y939000D02*
D03*
X703000D02*
D03*
X703000Y918000D02*
D03*
X681000D02*
D03*
X643000Y940000D02*
D03*
X621000D02*
D03*
X621000Y918000D02*
D03*
X643000D02*
D03*
X621000Y874000D02*
D03*
X643000D02*
D03*
X643000Y896000D02*
D03*
X621000D02*
D03*
X703000Y874000D02*
D03*
X681000D02*
D03*
X681000Y895000D02*
D03*
X703000D02*
D03*
X681000Y851000D02*
D03*
X703000D02*
D03*
X703000Y830000D02*
D03*
X681000D02*
D03*
X643000Y852000D02*
D03*
X621000D02*
D03*
X621000Y830000D02*
D03*
X643000D02*
D03*
X621000Y786000D02*
D03*
X643000D02*
D03*
X643000Y808000D02*
D03*
X621000D02*
D03*
X703000Y786000D02*
D03*
X681000D02*
D03*
X681000Y807000D02*
D03*
X703000D02*
D03*
X621000Y742000D02*
D03*
X643000D02*
D03*
X643000Y764000D02*
D03*
X621000D02*
D03*
X703000Y742000D02*
D03*
X681000D02*
D03*
X681000Y763000D02*
D03*
X703000D02*
D03*
X681000Y719000D02*
D03*
X703000D02*
D03*
X703000Y698000D02*
D03*
X681000D02*
D03*
X643000Y720000D02*
D03*
X621000D02*
D03*
X621000Y698000D02*
D03*
X643000D02*
D03*
X621000Y676000D02*
D03*
X643000D02*
D03*
X681000Y654000D02*
D03*
X703000D02*
D03*
X643000Y654000D02*
D03*
X621000D02*
D03*
X703000Y675000D02*
D03*
X681000D02*
D03*
X288000Y580000D02*
D03*
X310000D02*
D03*
D47*
X431000Y691750D02*
D03*
X436000D02*
D03*
X426000D02*
D03*
X441000D02*
D03*
X416000D02*
D03*
X421000D02*
D03*
X406000D02*
D03*
X411000D02*
D03*
X391000D02*
D03*
X401000D02*
D03*
X396000D02*
D03*
X371000D02*
D03*
X376000D02*
D03*
X366000D02*
D03*
X386000D02*
D03*
X381000D02*
D03*
X441000Y806170D02*
D03*
X436000D02*
D03*
X431000D02*
D03*
X426000D02*
D03*
X406000D02*
D03*
X411000D02*
D03*
X401000D02*
D03*
X421000D02*
D03*
X416000D02*
D03*
X396000D02*
D03*
X391000D02*
D03*
X386000D02*
D03*
X371000D02*
D03*
X366000D02*
D03*
X381000D02*
D03*
X376000D02*
D03*
X431500Y790750D02*
D03*
X426500Y790750D02*
D03*
X421500Y790750D02*
D03*
X416500Y790750D02*
D03*
X411500D02*
D03*
X406500D02*
D03*
X401500D02*
D03*
X396500D02*
D03*
X391500Y790750D02*
D03*
X386500Y790750D02*
D03*
X381500D02*
D03*
X376500D02*
D03*
X431500Y707250D02*
D03*
X426500D02*
D03*
X421500D02*
D03*
X416500D02*
D03*
X411500D02*
D03*
X406500D02*
D03*
X401500D02*
D03*
X396500D02*
D03*
X391500D02*
D03*
X386500D02*
D03*
X381500D02*
D03*
X376500D02*
D03*
D48*
X460500Y711250D02*
D03*
Y721250D02*
D03*
Y726250D02*
D03*
Y716250D02*
D03*
Y736250D02*
D03*
Y731250D02*
D03*
Y741250D02*
D03*
Y746250D02*
D03*
Y751250D02*
D03*
X346500Y736250D02*
D03*
Y741250D02*
D03*
Y731250D02*
D03*
Y751250D02*
D03*
Y746250D02*
D03*
Y716250D02*
D03*
Y711250D02*
D03*
Y726250D02*
D03*
Y721250D02*
D03*
X460500Y761250D02*
D03*
Y766250D02*
D03*
Y756250D02*
D03*
Y786250D02*
D03*
Y771250D02*
D03*
Y776250D02*
D03*
Y781250D02*
D03*
X346500Y761250D02*
D03*
Y766250D02*
D03*
Y756250D02*
D03*
Y776250D02*
D03*
Y781250D02*
D03*
Y771250D02*
D03*
Y786250D02*
D03*
X362250Y776500D02*
D03*
Y771500D02*
D03*
Y766500D02*
D03*
Y761500D02*
D03*
Y756500D02*
D03*
Y751500D02*
D03*
Y746500D02*
D03*
Y741500D02*
D03*
Y736500D02*
D03*
Y731500D02*
D03*
Y726500D02*
D03*
Y721500D02*
D03*
X445750Y776500D02*
D03*
Y771500D02*
D03*
Y766500D02*
D03*
Y761500D02*
D03*
Y756500D02*
D03*
Y751500D02*
D03*
Y746500D02*
D03*
Y741500D02*
D03*
Y736500D02*
D03*
Y731500D02*
D03*
Y726500D02*
D03*
Y721500D02*
D03*
D49*
X294000Y857000D02*
D03*
Y843000D02*
D03*
Y943000D02*
D03*
Y957000D02*
D03*
Y1043000D02*
D03*
Y1057000D02*
D03*
Y1143000D02*
D03*
Y1157000D02*
D03*
D50*
X287500Y672500D02*
D03*
Y613500D02*
D03*
X324500D02*
D03*
Y672500D02*
D03*
D51*
X349000Y843700D02*
D03*
Y828300D02*
D03*
D52*
X340160Y532000D02*
D03*
Y524500D02*
D03*
X340190Y477500D02*
D03*
X340160Y470000D02*
D03*
D53*
Y518500D02*
D03*
Y513500D02*
D03*
Y508500D02*
D03*
Y503500D02*
D03*
X340190Y498500D02*
D03*
X340160Y493500D02*
D03*
Y488500D02*
D03*
Y483500D02*
D03*
D54*
X615000Y360000D02*
D03*
X563000D02*
D03*
D55*
X523000Y572000D02*
D03*
X483000D02*
D03*
X523000Y547000D02*
D03*
X483000D02*
D03*
D56*
X437500Y840123D02*
D03*
X400500D02*
D03*
M02*
