G04*
G04 #@! TF.GenerationSoftware,Altium Limited,Altium Designer,18.1.7 (191)*
G04*
G04 Layer_Color=8421504*
%FSLAX44Y44*%
%MOMM*%
G71*
G01*
G75*
%ADD22R,0.6000X0.6000*%
%ADD23R,0.6000X0.6000*%
%ADD24R,0.4500X1.0000*%
%ADD25R,0.2000X0.6000*%
%ADD26R,1.2000X1.5000*%
%ADD27R,2.0000X1.1000*%
%ADD28R,0.5500X0.8000*%
%ADD29R,0.8000X0.5500*%
%ADD30R,5.4000X2.9000*%
%ADD31R,7.0000X5.0000*%
%ADD32R,1.5000X1.2000*%
%ADD33R,3.2000X1.7000*%
%ADD34R,0.9000X1.7000*%
%ADD35R,0.3500X1.0000*%
%ADD36R,0.3500X1.0000*%
%ADD37R,2.0000X1.0000*%
G04:AMPARAMS|DCode=38|XSize=2mm|YSize=1mm|CornerRadius=0mm|HoleSize=0mm|Usage=FLASHONLY|Rotation=180.000|XOffset=0mm|YOffset=0mm|HoleType=Round|Shape=Octagon|*
%AMOCTAGOND38*
4,1,8,-1.0000,0.2500,-1.0000,-0.2500,-0.7500,-0.5000,0.7500,-0.5000,1.0000,-0.2500,1.0000,0.2500,0.7500,0.5000,-0.7500,0.5000,-1.0000,0.2500,0.0*
%
%ADD38OCTAGOND38*%

%ADD39R,6.0000X6.0000*%
G04:AMPARAMS|DCode=40|XSize=1.47mm|YSize=0.48mm|CornerRadius=0.06mm|HoleSize=0mm|Usage=FLASHONLY|Rotation=90.000|XOffset=0mm|YOffset=0mm|HoleType=Round|Shape=RoundedRectangle|*
%AMROUNDEDRECTD40*
21,1,1.4700,0.3600,0,0,90.0*
21,1,1.3500,0.4800,0,0,90.0*
1,1,0.1200,0.1800,0.6750*
1,1,0.1200,0.1800,-0.6750*
1,1,0.1200,-0.1800,-0.6750*
1,1,0.1200,-0.1800,0.6750*
%
%ADD40ROUNDEDRECTD40*%
%ADD41R,2.2000X1.8000*%
%ADD42R,1.4500X0.3000*%
%ADD43R,0.9300X0.9800*%
%ADD44R,1.0000X0.4500*%
G04:AMPARAMS|DCode=45|XSize=0.3mm|YSize=0.8mm|CornerRadius=0.075mm|HoleSize=0mm|Usage=FLASHONLY|Rotation=0.000|XOffset=0mm|YOffset=0mm|HoleType=Round|Shape=RoundedRectangle|*
%AMROUNDEDRECTD45*
21,1,0.3000,0.6500,0,0,0.0*
21,1,0.1500,0.8000,0,0,0.0*
1,1,0.1500,0.0750,-0.3250*
1,1,0.1500,-0.0750,-0.3250*
1,1,0.1500,-0.0750,0.3250*
1,1,0.1500,0.0750,0.3250*
%
%ADD45ROUNDEDRECTD45*%
G04:AMPARAMS|DCode=46|XSize=0.3mm|YSize=0.8mm|CornerRadius=0.075mm|HoleSize=0mm|Usage=FLASHONLY|Rotation=90.000|XOffset=0mm|YOffset=0mm|HoleType=Round|Shape=RoundedRectangle|*
%AMROUNDEDRECTD46*
21,1,0.3000,0.6500,0,0,90.0*
21,1,0.1500,0.8000,0,0,90.0*
1,1,0.1500,0.3250,0.0750*
1,1,0.1500,0.3250,-0.0750*
1,1,0.1500,-0.3250,-0.0750*
1,1,0.1500,-0.3250,0.0750*
%
%ADD46ROUNDEDRECTD46*%
%ADD47R,0.8000X0.8000*%
%ADD48R,0.7000X1.1000*%
%ADD49R,0.9800X0.9300*%
%ADD50R,1.1500X0.6000*%
%ADD51R,1.1500X0.3000*%
%ADD52R,1.8000X3.4000*%
%ADD53R,1.1000X2.0000*%
%ADD54R,1.7000X2.4000*%
D22*
X688920Y509000D02*
D03*
X699080D02*
D03*
X542080Y987000D02*
D03*
X531920D02*
D03*
X536080Y1103000D02*
D03*
X525920D02*
D03*
X542080Y998000D02*
D03*
X531920D02*
D03*
X479080Y682000D02*
D03*
X468920D02*
D03*
X510080Y1081000D02*
D03*
X499920D02*
D03*
X509080Y1053000D02*
D03*
X498920D02*
D03*
Y1065000D02*
D03*
X509080D02*
D03*
X500920Y1113000D02*
D03*
X511080D02*
D03*
X477920Y1118000D02*
D03*
X488080D02*
D03*
X510080Y1129000D02*
D03*
X499920D02*
D03*
X488080D02*
D03*
X477920D02*
D03*
X500080Y1140000D02*
D03*
X489920D02*
D03*
X592920Y789000D02*
D03*
X603080D02*
D03*
X577080D02*
D03*
X566920D02*
D03*
X592920Y1141000D02*
D03*
X603080D02*
D03*
X577080D02*
D03*
X566920D02*
D03*
X592920Y1097000D02*
D03*
X603080D02*
D03*
X577080D02*
D03*
X566920D02*
D03*
X592920Y1053000D02*
D03*
X603080D02*
D03*
X577080D02*
D03*
X566920D02*
D03*
X592920Y1009000D02*
D03*
X603080D02*
D03*
X577080D02*
D03*
X566920D02*
D03*
X592920Y965000D02*
D03*
X603080D02*
D03*
X577080D02*
D03*
X566920D02*
D03*
X592920Y921000D02*
D03*
X603080D02*
D03*
X577080D02*
D03*
X566920D02*
D03*
X592920Y877000D02*
D03*
X603080D02*
D03*
X577080D02*
D03*
X566920D02*
D03*
X592920Y833000D02*
D03*
X603080D02*
D03*
X577080D02*
D03*
X566920D02*
D03*
X592920Y745000D02*
D03*
X603080D02*
D03*
X577080D02*
D03*
X566920D02*
D03*
X592920Y701000D02*
D03*
X603080D02*
D03*
X577080D02*
D03*
X566920D02*
D03*
X592920Y657000D02*
D03*
X603080D02*
D03*
X577080D02*
D03*
X566920D02*
D03*
X592920Y613000D02*
D03*
X603080D02*
D03*
X577080D02*
D03*
X566920D02*
D03*
X592920Y569000D02*
D03*
X603080D02*
D03*
X577080D02*
D03*
X566920D02*
D03*
Y1158000D02*
D03*
X577080D02*
D03*
X566920Y1114000D02*
D03*
X577080D02*
D03*
X566920Y1070000D02*
D03*
X577080D02*
D03*
X566920Y1026000D02*
D03*
X577080D02*
D03*
X566920Y982000D02*
D03*
X577080D02*
D03*
X566920Y938000D02*
D03*
X577080D02*
D03*
X566920Y894000D02*
D03*
X577080D02*
D03*
X566920Y850000D02*
D03*
X577080D02*
D03*
X566920Y806000D02*
D03*
X577080D02*
D03*
X566920Y763000D02*
D03*
X577080D02*
D03*
X566920Y719000D02*
D03*
X577080D02*
D03*
X566920Y675000D02*
D03*
X577080D02*
D03*
X566920Y631000D02*
D03*
X577080D02*
D03*
X566920Y587000D02*
D03*
X577080D02*
D03*
X321920Y915000D02*
D03*
X332080D02*
D03*
Y939000D02*
D03*
X321920D02*
D03*
X332080Y927000D02*
D03*
X321920D02*
D03*
X463920Y436000D02*
D03*
X474080D02*
D03*
X594080Y366000D02*
D03*
X583920D02*
D03*
X581080Y355000D02*
D03*
X570920D02*
D03*
X398080Y417000D02*
D03*
X387920D02*
D03*
X902920Y464000D02*
D03*
X913080D02*
D03*
X902920Y422000D02*
D03*
X913080D02*
D03*
X923920Y443000D02*
D03*
X934080D02*
D03*
X449840Y817000D02*
D03*
X460000D02*
D03*
X549080Y428000D02*
D03*
X538920D02*
D03*
X376080Y417000D02*
D03*
X365920D02*
D03*
X321920Y951000D02*
D03*
X332080D02*
D03*
X413920Y865000D02*
D03*
X424080D02*
D03*
X446080D02*
D03*
X435920D02*
D03*
X391920Y865000D02*
D03*
X402080D02*
D03*
X286920Y597000D02*
D03*
X297080D02*
D03*
X446920Y670000D02*
D03*
X457080D02*
D03*
X468920Y694000D02*
D03*
X479080D02*
D03*
X420080Y417000D02*
D03*
X409920D02*
D03*
X923920Y526000D02*
D03*
X934080D02*
D03*
X923920Y513000D02*
D03*
X934080D02*
D03*
X902920Y520000D02*
D03*
X913080D02*
D03*
X923920Y499190D02*
D03*
X934080D02*
D03*
X902920Y506000D02*
D03*
X913080D02*
D03*
X902920Y492000D02*
D03*
X913080D02*
D03*
X923920Y485000D02*
D03*
X934080D02*
D03*
X902920Y478000D02*
D03*
X913080D02*
D03*
X902920Y450000D02*
D03*
X913080D02*
D03*
X923920Y457000D02*
D03*
X934080D02*
D03*
X902920Y436000D02*
D03*
X913080D02*
D03*
X923920Y429000D02*
D03*
X934080D02*
D03*
X596920Y355000D02*
D03*
X607080D02*
D03*
X690000Y414000D02*
D03*
X679840D02*
D03*
D23*
X883000Y1136920D02*
D03*
Y1147080D02*
D03*
Y1167080D02*
D03*
Y1156920D02*
D03*
Y1092920D02*
D03*
Y1103080D02*
D03*
Y1123080D02*
D03*
Y1112920D02*
D03*
X882000Y1048920D02*
D03*
Y1059080D02*
D03*
Y1079080D02*
D03*
Y1068920D02*
D03*
X882000Y1004920D02*
D03*
Y1015080D02*
D03*
X882000Y1035080D02*
D03*
Y1024920D02*
D03*
Y960920D02*
D03*
Y971080D02*
D03*
Y991080D02*
D03*
Y980920D02*
D03*
Y916920D02*
D03*
Y927080D02*
D03*
X882000Y947080D02*
D03*
Y936920D02*
D03*
X882000Y872920D02*
D03*
Y883080D02*
D03*
Y903080D02*
D03*
Y892920D02*
D03*
Y828920D02*
D03*
Y839080D02*
D03*
Y859080D02*
D03*
Y848920D02*
D03*
Y784920D02*
D03*
Y795080D02*
D03*
Y815080D02*
D03*
Y804920D02*
D03*
Y740920D02*
D03*
Y751080D02*
D03*
Y771080D02*
D03*
Y760920D02*
D03*
Y696920D02*
D03*
Y707080D02*
D03*
Y727080D02*
D03*
Y716920D02*
D03*
Y652920D02*
D03*
Y663080D02*
D03*
Y683080D02*
D03*
Y672920D02*
D03*
Y584920D02*
D03*
Y595080D02*
D03*
Y608920D02*
D03*
Y619080D02*
D03*
Y564920D02*
D03*
Y575080D02*
D03*
Y639080D02*
D03*
Y628920D02*
D03*
X790000Y455080D02*
D03*
Y444920D02*
D03*
X683000Y448080D02*
D03*
Y437920D02*
D03*
X754000Y510920D02*
D03*
Y521080D02*
D03*
X893000Y872920D02*
D03*
Y883080D02*
D03*
Y916920D02*
D03*
Y927080D02*
D03*
Y960920D02*
D03*
Y971080D02*
D03*
Y1004920D02*
D03*
Y1015080D02*
D03*
Y696920D02*
D03*
Y707080D02*
D03*
Y740920D02*
D03*
Y751080D02*
D03*
Y784920D02*
D03*
Y795080D02*
D03*
Y828920D02*
D03*
Y839080D02*
D03*
Y1048920D02*
D03*
Y1059080D02*
D03*
Y1092920D02*
D03*
Y1103080D02*
D03*
Y1136920D02*
D03*
Y1147080D02*
D03*
Y575080D02*
D03*
Y564920D02*
D03*
Y608920D02*
D03*
Y619080D02*
D03*
Y652840D02*
D03*
Y663000D02*
D03*
X568000Y387920D02*
D03*
Y398080D02*
D03*
X495000Y984920D02*
D03*
Y995080D02*
D03*
X481000Y984920D02*
D03*
Y995080D02*
D03*
X442000Y984920D02*
D03*
Y995080D02*
D03*
X430000Y984920D02*
D03*
Y995080D02*
D03*
X418000Y985000D02*
D03*
Y995160D02*
D03*
X406000Y984920D02*
D03*
Y995080D02*
D03*
X394000Y984920D02*
D03*
Y995080D02*
D03*
X550000Y1046920D02*
D03*
Y1057080D02*
D03*
X729000Y595080D02*
D03*
Y584920D02*
D03*
X717000Y1014920D02*
D03*
Y1025080D02*
D03*
X322000Y692920D02*
D03*
Y703080D02*
D03*
X597000Y525920D02*
D03*
Y536080D02*
D03*
X467000Y995080D02*
D03*
Y984920D02*
D03*
X596000Y497080D02*
D03*
Y486920D02*
D03*
Y460920D02*
D03*
Y471080D02*
D03*
X467000Y1118920D02*
D03*
Y1129080D02*
D03*
X370000Y995080D02*
D03*
Y984920D02*
D03*
X346000Y995080D02*
D03*
Y984920D02*
D03*
X511000Y1102080D02*
D03*
Y1091920D02*
D03*
X500000Y1102080D02*
D03*
Y1091920D02*
D03*
X358000Y984920D02*
D03*
Y995080D02*
D03*
X741000Y575080D02*
D03*
Y564920D02*
D03*
Y619080D02*
D03*
Y608920D02*
D03*
Y663080D02*
D03*
Y652920D02*
D03*
Y707080D02*
D03*
Y696920D02*
D03*
Y751080D02*
D03*
Y740920D02*
D03*
Y795080D02*
D03*
Y784920D02*
D03*
Y839080D02*
D03*
Y828920D02*
D03*
Y883080D02*
D03*
Y872920D02*
D03*
Y927080D02*
D03*
Y916920D02*
D03*
Y971080D02*
D03*
Y960920D02*
D03*
Y1015080D02*
D03*
Y1004920D02*
D03*
Y1059080D02*
D03*
Y1048920D02*
D03*
Y1103080D02*
D03*
Y1092920D02*
D03*
Y1147080D02*
D03*
Y1136920D02*
D03*
X729000Y1092920D02*
D03*
Y1103080D02*
D03*
Y1167080D02*
D03*
Y1156920D02*
D03*
X717000Y1157080D02*
D03*
Y1146920D02*
D03*
X729000Y1136920D02*
D03*
Y1147080D02*
D03*
X893000Y1156920D02*
D03*
Y1167080D02*
D03*
X790000Y1154080D02*
D03*
Y1143920D02*
D03*
X802000D02*
D03*
Y1154080D02*
D03*
X717000Y1113080D02*
D03*
Y1102920D02*
D03*
X729000Y1123080D02*
D03*
Y1112920D02*
D03*
X893000Y1112920D02*
D03*
Y1123080D02*
D03*
X790000Y1110080D02*
D03*
Y1099920D02*
D03*
X802000D02*
D03*
Y1110080D02*
D03*
Y1055920D02*
D03*
Y1066080D02*
D03*
X790000D02*
D03*
Y1055920D02*
D03*
X893000Y1068920D02*
D03*
Y1079080D02*
D03*
X729000Y1048920D02*
D03*
Y1059080D02*
D03*
X717000Y1069080D02*
D03*
Y1058920D02*
D03*
X729000Y1079080D02*
D03*
Y1068920D02*
D03*
X802000Y1011920D02*
D03*
Y1022080D02*
D03*
X790000D02*
D03*
Y1011920D02*
D03*
X893000Y1024920D02*
D03*
Y1035080D02*
D03*
X729000Y1004920D02*
D03*
Y1015080D02*
D03*
Y1035080D02*
D03*
Y1024920D02*
D03*
X802000Y967920D02*
D03*
Y978080D02*
D03*
X790000D02*
D03*
Y967920D02*
D03*
X893000Y980920D02*
D03*
Y991080D02*
D03*
X729000Y960920D02*
D03*
Y971080D02*
D03*
X717000Y981080D02*
D03*
Y970920D02*
D03*
X729000Y991080D02*
D03*
Y980920D02*
D03*
X802000Y924920D02*
D03*
Y935080D02*
D03*
X790000D02*
D03*
Y924920D02*
D03*
X893000Y936920D02*
D03*
Y947080D02*
D03*
X729000Y916920D02*
D03*
Y927080D02*
D03*
X717000Y937080D02*
D03*
Y926920D02*
D03*
X729000Y947080D02*
D03*
Y936920D02*
D03*
X802000Y880920D02*
D03*
Y891080D02*
D03*
X790000D02*
D03*
Y880920D02*
D03*
X893000Y892920D02*
D03*
Y903080D02*
D03*
X729000Y872920D02*
D03*
Y883080D02*
D03*
X717000Y893080D02*
D03*
Y882920D02*
D03*
X729000Y903080D02*
D03*
Y892920D02*
D03*
X802000Y836920D02*
D03*
Y847080D02*
D03*
X790000D02*
D03*
Y836920D02*
D03*
X893000Y848920D02*
D03*
Y859080D02*
D03*
X729000Y828920D02*
D03*
Y839080D02*
D03*
X717000Y849080D02*
D03*
Y838920D02*
D03*
X729000Y859080D02*
D03*
Y848920D02*
D03*
Y815080D02*
D03*
Y804920D02*
D03*
X717000Y805080D02*
D03*
Y794920D02*
D03*
X729000Y784920D02*
D03*
Y795080D02*
D03*
X893000Y804920D02*
D03*
Y815080D02*
D03*
X790000Y803080D02*
D03*
Y792920D02*
D03*
X802000Y792920D02*
D03*
Y803080D02*
D03*
X717000Y761080D02*
D03*
Y750920D02*
D03*
X729000Y740920D02*
D03*
Y751080D02*
D03*
Y771080D02*
D03*
Y760920D02*
D03*
X893000Y760920D02*
D03*
Y771080D02*
D03*
X790000Y759080D02*
D03*
Y748920D02*
D03*
X802000D02*
D03*
Y759080D02*
D03*
X717000Y717080D02*
D03*
Y706920D02*
D03*
X729000Y696920D02*
D03*
Y707080D02*
D03*
Y727080D02*
D03*
Y716920D02*
D03*
X893000D02*
D03*
Y727080D02*
D03*
X790000Y715080D02*
D03*
Y704920D02*
D03*
X802000Y704920D02*
D03*
Y715080D02*
D03*
Y660920D02*
D03*
Y671080D02*
D03*
X790000Y671080D02*
D03*
Y660920D02*
D03*
X893000Y672920D02*
D03*
Y683080D02*
D03*
X729000D02*
D03*
Y672920D02*
D03*
Y652920D02*
D03*
Y663080D02*
D03*
X717000Y673080D02*
D03*
Y662920D02*
D03*
Y629080D02*
D03*
Y618920D02*
D03*
X729000Y608920D02*
D03*
Y619080D02*
D03*
Y639080D02*
D03*
Y628920D02*
D03*
X893000D02*
D03*
Y639080D02*
D03*
X790000Y627080D02*
D03*
Y616920D02*
D03*
X802000Y616920D02*
D03*
Y627080D02*
D03*
X893000Y584920D02*
D03*
Y595080D02*
D03*
X802000Y572920D02*
D03*
Y583080D02*
D03*
X790000Y583080D02*
D03*
Y572920D02*
D03*
X294000Y811920D02*
D03*
Y822080D02*
D03*
X597000Y558080D02*
D03*
Y547920D02*
D03*
X382000Y984920D02*
D03*
Y995080D02*
D03*
X294000Y919920D02*
D03*
Y930080D02*
D03*
Y1019920D02*
D03*
Y1030080D02*
D03*
Y1119920D02*
D03*
Y1130080D02*
D03*
X717000Y574920D02*
D03*
Y585080D02*
D03*
X656000Y399080D02*
D03*
Y388920D02*
D03*
X560000Y365080D02*
D03*
Y354920D02*
D03*
X809000Y429080D02*
D03*
Y418920D02*
D03*
X729000Y575080D02*
D03*
Y564920D02*
D03*
X548000Y440920D02*
D03*
Y451080D02*
D03*
X335000Y703080D02*
D03*
Y692920D02*
D03*
X419000Y641920D02*
D03*
Y652080D02*
D03*
X429000Y641920D02*
D03*
Y652080D02*
D03*
X618000Y354920D02*
D03*
Y365080D02*
D03*
X798000Y429080D02*
D03*
Y418920D02*
D03*
X378000Y834920D02*
D03*
Y845080D02*
D03*
X367000D02*
D03*
Y834920D02*
D03*
X361000Y480080D02*
D03*
Y469920D02*
D03*
Y521920D02*
D03*
Y532080D02*
D03*
X2633000Y1160080D02*
D03*
Y1149920D02*
D03*
X2717000Y340080D02*
D03*
Y329920D02*
D03*
X2097000Y1160080D02*
D03*
Y1149920D02*
D03*
X3717000Y1159080D02*
D03*
Y1148920D02*
D03*
X2013000Y341080D02*
D03*
Y330920D02*
D03*
X3717000Y339080D02*
D03*
Y328920D02*
D03*
X1013000Y1160080D02*
D03*
Y1149920D02*
D03*
X1692000Y1161080D02*
D03*
Y1150920D02*
D03*
X1608000Y341080D02*
D03*
Y330920D02*
D03*
X1097000Y341080D02*
D03*
Y330920D02*
D03*
X2907000Y1160080D02*
D03*
Y1149920D02*
D03*
X2824000Y340080D02*
D03*
Y329920D02*
D03*
X3038000Y1160080D02*
D03*
Y1149920D02*
D03*
X3312000Y1160080D02*
D03*
Y1149920D02*
D03*
X3121000Y340080D02*
D03*
Y329920D02*
D03*
X3228000Y340080D02*
D03*
Y329920D02*
D03*
X3443000Y1160080D02*
D03*
Y1149920D02*
D03*
X3526000Y340080D02*
D03*
Y329920D02*
D03*
X2502000Y1160080D02*
D03*
Y1149920D02*
D03*
X2418000Y341080D02*
D03*
Y330920D02*
D03*
X2228000Y1160080D02*
D03*
Y1149920D02*
D03*
X2312000Y341080D02*
D03*
Y330920D02*
D03*
X1823000Y1160080D02*
D03*
Y1149920D02*
D03*
X1907000Y341080D02*
D03*
Y330920D02*
D03*
X1418000Y1161080D02*
D03*
Y1150920D02*
D03*
X1502000Y341080D02*
D03*
Y330920D02*
D03*
X1286000Y1161080D02*
D03*
Y1150920D02*
D03*
X1203000Y341080D02*
D03*
Y330920D02*
D03*
D24*
X819000Y593000D02*
D03*
Y571000D02*
D03*
Y637000D02*
D03*
Y615000D02*
D03*
Y681000D02*
D03*
Y659000D02*
D03*
Y725000D02*
D03*
Y703000D02*
D03*
Y769000D02*
D03*
Y747000D02*
D03*
Y813000D02*
D03*
Y791000D02*
D03*
Y857000D02*
D03*
Y835000D02*
D03*
Y901000D02*
D03*
Y879000D02*
D03*
Y945000D02*
D03*
Y923000D02*
D03*
Y989000D02*
D03*
Y967000D02*
D03*
Y1033000D02*
D03*
Y1011000D02*
D03*
Y1077000D02*
D03*
Y1055000D02*
D03*
Y1121000D02*
D03*
Y1099000D02*
D03*
Y1165000D02*
D03*
Y1143000D02*
D03*
D25*
X924000Y471000D02*
D03*
X928000D02*
D03*
X365000Y821000D02*
D03*
X369000D02*
D03*
D26*
X361092Y1163000D02*
D03*
X389000D02*
D03*
X517046Y1163000D02*
D03*
X544954D02*
D03*
X465046D02*
D03*
X492954D02*
D03*
X413046D02*
D03*
X440954D02*
D03*
D27*
X532000Y1050000D02*
D03*
Y1090000D02*
D03*
D28*
X535000Y1114500D02*
D03*
X525500Y1137500D02*
D03*
X544500D02*
D03*
X765000Y566500D02*
D03*
X755500Y589500D02*
D03*
X774500D02*
D03*
X765000Y609500D02*
D03*
X755500Y632500D02*
D03*
X774500D02*
D03*
X765000Y653500D02*
D03*
X755500Y676500D02*
D03*
X774500D02*
D03*
X765000Y697500D02*
D03*
X755500Y720500D02*
D03*
X774500D02*
D03*
X765000Y741500D02*
D03*
X755500Y764500D02*
D03*
X774500D02*
D03*
X765000Y785500D02*
D03*
X755500Y808500D02*
D03*
X774500D02*
D03*
X765000Y829500D02*
D03*
X755500Y852500D02*
D03*
X774500D02*
D03*
X765000Y873500D02*
D03*
X755500Y896500D02*
D03*
X774500D02*
D03*
X765000Y917500D02*
D03*
X755500Y940500D02*
D03*
X774500D02*
D03*
X765000Y961500D02*
D03*
X755500Y984500D02*
D03*
X774500D02*
D03*
X765000Y1005500D02*
D03*
X755500Y1028500D02*
D03*
X774500D02*
D03*
X765000Y1049500D02*
D03*
X755500Y1072500D02*
D03*
X774500D02*
D03*
X765000Y1093500D02*
D03*
X755500Y1116500D02*
D03*
X774500D02*
D03*
X765000Y1137500D02*
D03*
X755500Y1160500D02*
D03*
X774500D02*
D03*
X850000Y1165500D02*
D03*
X859500Y1142500D02*
D03*
X840500D02*
D03*
X850000Y1121500D02*
D03*
X859500Y1098500D02*
D03*
X840500D02*
D03*
X850000Y1077500D02*
D03*
X859500Y1054500D02*
D03*
X840500D02*
D03*
X850000Y1033500D02*
D03*
X859500Y1010500D02*
D03*
X840500D02*
D03*
X850000Y989500D02*
D03*
X859500Y966500D02*
D03*
X840500D02*
D03*
X850000Y945500D02*
D03*
X859500Y922500D02*
D03*
X840500D02*
D03*
X850000Y901500D02*
D03*
X859500Y878500D02*
D03*
X840500D02*
D03*
X850000Y857500D02*
D03*
X859500Y834500D02*
D03*
X840500D02*
D03*
X850000Y813500D02*
D03*
X859500Y790500D02*
D03*
X840500D02*
D03*
X850000Y769500D02*
D03*
X859500Y746500D02*
D03*
X840500D02*
D03*
X850000Y724500D02*
D03*
X859500Y701500D02*
D03*
X840500D02*
D03*
X850000Y681500D02*
D03*
X859500Y658500D02*
D03*
X840500D02*
D03*
X850000Y637500D02*
D03*
X859500Y614500D02*
D03*
X840500D02*
D03*
X850000Y594500D02*
D03*
X859500Y571500D02*
D03*
X840500D02*
D03*
X581500Y450500D02*
D03*
X562500D02*
D03*
X572000Y427500D02*
D03*
X925500Y400500D02*
D03*
X906500D02*
D03*
X916000Y377500D02*
D03*
X886500Y400500D02*
D03*
X867500D02*
D03*
X877000Y377500D02*
D03*
D29*
X545000Y1023000D02*
D03*
X522000Y1013500D02*
D03*
Y1032500D02*
D03*
X633500Y535000D02*
D03*
X610500Y525500D02*
D03*
Y544500D02*
D03*
X667500Y535000D02*
D03*
X644500Y525500D02*
D03*
Y544500D02*
D03*
X557500Y535000D02*
D03*
X580500Y544500D02*
D03*
Y525500D02*
D03*
X700500Y535000D02*
D03*
X677500Y525500D02*
D03*
Y544500D02*
D03*
X668500Y399500D02*
D03*
Y380500D02*
D03*
X691500Y390000D02*
D03*
D30*
X384000Y1130000D02*
D03*
Y1030000D02*
D03*
D31*
X3080000Y336000D02*
D03*
X3080000Y1156000D02*
D03*
X3270000D02*
D03*
Y336000D02*
D03*
X2675000D02*
D03*
X2675000Y1156000D02*
D03*
X2865000D02*
D03*
Y336000D02*
D03*
X1055000Y336000D02*
D03*
X1055000Y1156000D02*
D03*
X1245000D02*
D03*
Y336000D02*
D03*
X2270000Y336000D02*
D03*
X2270000Y1156000D02*
D03*
X2460000D02*
D03*
Y336000D02*
D03*
X1865000Y336000D02*
D03*
X1865000Y1156000D02*
D03*
X2055000D02*
D03*
Y336000D02*
D03*
X1460000Y336000D02*
D03*
X1460000Y1156000D02*
D03*
X1650000D02*
D03*
Y336000D02*
D03*
X3485000Y336000D02*
D03*
X3485000Y1156000D02*
D03*
X3675000D02*
D03*
Y336000D02*
D03*
D32*
X663000Y1137046D02*
D03*
Y1164954D02*
D03*
Y1093046D02*
D03*
Y1120954D02*
D03*
Y1049046D02*
D03*
Y1076954D02*
D03*
Y1005046D02*
D03*
Y1032954D02*
D03*
Y961046D02*
D03*
Y988954D02*
D03*
Y917046D02*
D03*
Y944954D02*
D03*
Y873046D02*
D03*
Y900954D02*
D03*
Y829046D02*
D03*
Y856954D02*
D03*
Y785046D02*
D03*
Y812954D02*
D03*
Y741046D02*
D03*
Y768954D02*
D03*
Y697046D02*
D03*
Y724954D02*
D03*
Y653046D02*
D03*
Y680954D02*
D03*
Y609046D02*
D03*
Y636954D02*
D03*
Y565046D02*
D03*
Y592954D02*
D03*
D33*
X490000Y907000D02*
D03*
D34*
X467000Y968000D02*
D03*
X490000D02*
D03*
X513000D02*
D03*
D35*
X583500Y382500D02*
D03*
X590000Y401500D02*
D03*
X583500D02*
D03*
X590000Y382500D02*
D03*
X596500D02*
D03*
D36*
X596500Y401500D02*
D03*
D37*
X350500Y917000D02*
D03*
X1083500Y235998D02*
D03*
X1046500Y281998D02*
D03*
X1488500Y235998D02*
D03*
X1451500Y281998D02*
D03*
X1893500Y235998D02*
D03*
X1856500Y281998D02*
D03*
X2298500Y235998D02*
D03*
X2261500Y281998D02*
D03*
X2703500Y235998D02*
D03*
X2666500Y281998D02*
D03*
X3108500Y235998D02*
D03*
X3071500Y281998D02*
D03*
X3518500Y236000D02*
D03*
X3481500Y282000D02*
D03*
D38*
X349500Y963000D02*
D03*
X1082500Y281998D02*
D03*
X1047500Y235998D02*
D03*
X1487500Y281998D02*
D03*
X1452500Y235998D02*
D03*
X1892500Y281998D02*
D03*
X1857500Y235998D02*
D03*
X2297500Y281998D02*
D03*
X2262500Y235998D02*
D03*
X2702500Y281998D02*
D03*
X2667500Y235998D02*
D03*
X3107500Y281998D02*
D03*
X3072500Y235998D02*
D03*
X3517500Y282000D02*
D03*
X3482500Y236000D02*
D03*
D39*
X417000Y939000D02*
D03*
X1150000Y257998D02*
D03*
X980000Y259998D02*
D03*
X1555000Y257998D02*
D03*
X1385000Y259998D02*
D03*
X1960000Y257998D02*
D03*
X1790000Y259998D02*
D03*
X2365000Y257998D02*
D03*
X2195000Y259998D02*
D03*
X2770000Y257998D02*
D03*
X2600000Y259998D02*
D03*
X3175000Y257998D02*
D03*
X3005000Y259998D02*
D03*
X3585000Y258000D02*
D03*
X3415000Y260000D02*
D03*
D40*
X465250Y1059500D02*
D03*
X471750D02*
D03*
X478250D02*
D03*
X484750D02*
D03*
Y1102500D02*
D03*
X478250D02*
D03*
X471750D02*
D03*
X465250D02*
D03*
D41*
X502000Y1032000D02*
D03*
X464000Y1031000D02*
D03*
D42*
X668500Y470750D02*
D03*
Y464250D02*
D03*
Y457750D02*
D03*
Y451250D02*
D03*
Y444750D02*
D03*
Y438250D02*
D03*
Y425250D02*
D03*
Y431750D02*
D03*
X614000Y431800D02*
D03*
Y425300D02*
D03*
Y438300D02*
D03*
Y444800D02*
D03*
Y451300D02*
D03*
Y457800D02*
D03*
Y464300D02*
D03*
Y470800D02*
D03*
Y477300D02*
D03*
Y483800D02*
D03*
Y490300D02*
D03*
Y496800D02*
D03*
X668500Y496750D02*
D03*
Y490250D02*
D03*
Y483750D02*
D03*
Y477250D02*
D03*
X755500Y470750D02*
D03*
Y464250D02*
D03*
Y457750D02*
D03*
Y451250D02*
D03*
Y444750D02*
D03*
Y438250D02*
D03*
Y425250D02*
D03*
Y431750D02*
D03*
X701000Y431800D02*
D03*
Y425300D02*
D03*
Y438300D02*
D03*
Y444800D02*
D03*
Y451300D02*
D03*
Y457800D02*
D03*
Y464300D02*
D03*
Y470800D02*
D03*
Y477300D02*
D03*
Y483800D02*
D03*
Y490300D02*
D03*
Y496800D02*
D03*
X755500Y496750D02*
D03*
Y490250D02*
D03*
Y483750D02*
D03*
Y477250D02*
D03*
X805500Y481373D02*
D03*
Y487873D02*
D03*
Y494373D02*
D03*
Y500873D02*
D03*
Y507373D02*
D03*
Y513873D02*
D03*
Y526873D02*
D03*
Y520373D02*
D03*
X860000Y520323D02*
D03*
Y526823D02*
D03*
Y513823D02*
D03*
Y507323D02*
D03*
Y500823D02*
D03*
Y494323D02*
D03*
Y487823D02*
D03*
Y481323D02*
D03*
Y474823D02*
D03*
Y468323D02*
D03*
Y461823D02*
D03*
Y455323D02*
D03*
X805500Y455373D02*
D03*
Y461873D02*
D03*
Y468373D02*
D03*
Y474873D02*
D03*
D43*
X605700Y1160000D02*
D03*
X590300D02*
D03*
X605700Y1116000D02*
D03*
X590300D02*
D03*
X605700Y1072000D02*
D03*
X590300D02*
D03*
X605700Y1028000D02*
D03*
X590300D02*
D03*
X605700Y984000D02*
D03*
X590300D02*
D03*
X605700Y940000D02*
D03*
X590300D02*
D03*
X605700Y896000D02*
D03*
X590300D02*
D03*
X605700Y852000D02*
D03*
X590300D02*
D03*
X605700Y808000D02*
D03*
X590300D02*
D03*
X605700Y721000D02*
D03*
X590300D02*
D03*
X605700Y765000D02*
D03*
X590300D02*
D03*
X605700Y677000D02*
D03*
X590300D02*
D03*
X605700Y633000D02*
D03*
X590300D02*
D03*
X605700Y589000D02*
D03*
X590300D02*
D03*
D44*
X681000Y1162000D02*
D03*
X703000D02*
D03*
X703000Y1141000D02*
D03*
X681000D02*
D03*
X643000Y1163000D02*
D03*
X621000D02*
D03*
X621000Y1141000D02*
D03*
X643000D02*
D03*
X681000Y1118000D02*
D03*
X703000D02*
D03*
X703000Y1097000D02*
D03*
X681000D02*
D03*
X643000Y1119000D02*
D03*
X621000D02*
D03*
X621000Y1097000D02*
D03*
X643000D02*
D03*
X681000Y1074000D02*
D03*
X703000D02*
D03*
X703000Y1053000D02*
D03*
X681000D02*
D03*
X643000Y1075000D02*
D03*
X621000D02*
D03*
X621000Y1053000D02*
D03*
X643000D02*
D03*
X681000Y1030000D02*
D03*
X703000D02*
D03*
X703000Y1009000D02*
D03*
X681000D02*
D03*
X643000Y1031000D02*
D03*
X621000D02*
D03*
X621000Y1009000D02*
D03*
X643000D02*
D03*
X621000Y965000D02*
D03*
X643000D02*
D03*
X643000Y987000D02*
D03*
X621000D02*
D03*
X703000Y965000D02*
D03*
X681000D02*
D03*
X681000Y986000D02*
D03*
X703000D02*
D03*
X621000Y921000D02*
D03*
X643000D02*
D03*
X643000Y943000D02*
D03*
X621000D02*
D03*
X703000Y921000D02*
D03*
X681000D02*
D03*
X681000Y942000D02*
D03*
X703000D02*
D03*
X621000Y877000D02*
D03*
X643000D02*
D03*
X643000Y899000D02*
D03*
X621000D02*
D03*
X703000Y877000D02*
D03*
X681000D02*
D03*
X681000Y898000D02*
D03*
X703000D02*
D03*
X681000Y854000D02*
D03*
X703000D02*
D03*
X703000Y833000D02*
D03*
X681000D02*
D03*
X643000Y855000D02*
D03*
X621000D02*
D03*
X621000Y833000D02*
D03*
X643000D02*
D03*
X621000Y789000D02*
D03*
X643000D02*
D03*
X643000Y811000D02*
D03*
X621000D02*
D03*
X703000Y789000D02*
D03*
X681000D02*
D03*
X681000Y810000D02*
D03*
X703000D02*
D03*
X681000Y766000D02*
D03*
X703000D02*
D03*
X703000Y745000D02*
D03*
X681000D02*
D03*
X643000Y767000D02*
D03*
X621000D02*
D03*
X621000Y745000D02*
D03*
X643000D02*
D03*
X621000Y701000D02*
D03*
X643000D02*
D03*
X643000Y723000D02*
D03*
X621000D02*
D03*
X703000Y701000D02*
D03*
X681000D02*
D03*
X681000Y722000D02*
D03*
X703000D02*
D03*
X621000Y657000D02*
D03*
X643000D02*
D03*
X643000Y679000D02*
D03*
X621000D02*
D03*
X703000Y657000D02*
D03*
X681000D02*
D03*
X681000Y678000D02*
D03*
X703000D02*
D03*
X681000Y634000D02*
D03*
X703000D02*
D03*
X703000Y613000D02*
D03*
X681000D02*
D03*
X643000Y635000D02*
D03*
X621000D02*
D03*
X621000Y613000D02*
D03*
X643000D02*
D03*
X621000Y591000D02*
D03*
X643000D02*
D03*
X681000Y569000D02*
D03*
X703000D02*
D03*
X643000Y569000D02*
D03*
X621000D02*
D03*
X703000Y590000D02*
D03*
X681000D02*
D03*
X288000Y580000D02*
D03*
X310000D02*
D03*
X851000Y398000D02*
D03*
X829000D02*
D03*
X851000Y377000D02*
D03*
X829000D02*
D03*
D45*
X431000Y691750D02*
D03*
X436000D02*
D03*
X426000D02*
D03*
X441000D02*
D03*
X416000D02*
D03*
X421000D02*
D03*
X406000D02*
D03*
X411000D02*
D03*
X391000D02*
D03*
X401000D02*
D03*
X396000D02*
D03*
X371000D02*
D03*
X376000D02*
D03*
X366000D02*
D03*
X386000D02*
D03*
X381000D02*
D03*
X441000Y806170D02*
D03*
X436000D02*
D03*
X431000D02*
D03*
X426000D02*
D03*
X406000D02*
D03*
X411000D02*
D03*
X401000D02*
D03*
X421000D02*
D03*
X416000D02*
D03*
X396000D02*
D03*
X391000D02*
D03*
X386000D02*
D03*
X371000D02*
D03*
X366000D02*
D03*
X381000D02*
D03*
X376000D02*
D03*
X431500Y790750D02*
D03*
X426500Y790750D02*
D03*
X421500Y790750D02*
D03*
X416500Y790750D02*
D03*
X411500D02*
D03*
X406500D02*
D03*
X401500D02*
D03*
X396500D02*
D03*
X391500Y790750D02*
D03*
X386500Y790750D02*
D03*
X381500D02*
D03*
X376500D02*
D03*
X431500Y707250D02*
D03*
X426500D02*
D03*
X421500D02*
D03*
X416500D02*
D03*
X411500D02*
D03*
X406500D02*
D03*
X401500D02*
D03*
X396500D02*
D03*
X391500D02*
D03*
X386500D02*
D03*
X381500D02*
D03*
X376500D02*
D03*
D46*
X460500Y711250D02*
D03*
Y721250D02*
D03*
Y726250D02*
D03*
Y716250D02*
D03*
Y736250D02*
D03*
Y731250D02*
D03*
Y741250D02*
D03*
Y746250D02*
D03*
Y751250D02*
D03*
X346500Y736250D02*
D03*
Y741250D02*
D03*
Y731250D02*
D03*
Y751250D02*
D03*
Y746250D02*
D03*
Y716250D02*
D03*
Y711250D02*
D03*
Y726250D02*
D03*
Y721250D02*
D03*
X460500Y761250D02*
D03*
Y766250D02*
D03*
Y756250D02*
D03*
Y786250D02*
D03*
Y771250D02*
D03*
Y776250D02*
D03*
Y781250D02*
D03*
X346500Y761250D02*
D03*
Y766250D02*
D03*
Y756250D02*
D03*
Y776250D02*
D03*
Y781250D02*
D03*
Y771250D02*
D03*
Y786250D02*
D03*
X362250Y776500D02*
D03*
Y771500D02*
D03*
Y766500D02*
D03*
Y761500D02*
D03*
Y756500D02*
D03*
Y751500D02*
D03*
Y746500D02*
D03*
Y741500D02*
D03*
Y736500D02*
D03*
Y731500D02*
D03*
Y726500D02*
D03*
Y721500D02*
D03*
X445750Y776500D02*
D03*
Y771500D02*
D03*
Y766500D02*
D03*
Y761500D02*
D03*
Y756500D02*
D03*
Y751500D02*
D03*
Y746500D02*
D03*
Y741500D02*
D03*
Y736500D02*
D03*
Y731500D02*
D03*
Y726500D02*
D03*
Y721500D02*
D03*
D47*
X294000Y857000D02*
D03*
Y843000D02*
D03*
Y943000D02*
D03*
Y957000D02*
D03*
Y1043000D02*
D03*
Y1057000D02*
D03*
Y1143000D02*
D03*
Y1157000D02*
D03*
D48*
X287500Y672500D02*
D03*
Y613500D02*
D03*
X324500D02*
D03*
Y672500D02*
D03*
D49*
X349000Y843700D02*
D03*
Y828300D02*
D03*
D50*
X340160Y532000D02*
D03*
Y524500D02*
D03*
X340190Y477500D02*
D03*
X340160Y470000D02*
D03*
D51*
Y518500D02*
D03*
Y513500D02*
D03*
Y508500D02*
D03*
Y503500D02*
D03*
X340190Y498500D02*
D03*
X340160Y493500D02*
D03*
Y488500D02*
D03*
Y483500D02*
D03*
D52*
X615000Y330000D02*
D03*
X563000D02*
D03*
D53*
X529000Y446000D02*
D03*
X489000D02*
D03*
X529000Y471000D02*
D03*
X489000D02*
D03*
D54*
X437500Y840123D02*
D03*
X400500D02*
D03*
M02*
