G04 EAGLE Gerber RS-274X export*
G75*
%MOMM*%
%FSLAX34Y34*%
%LPD*%
%INSoldermask Top*%
%IPPOS*%
%AMOC8*
5,1,8,0,0,1.08239X$1,22.5*%
G01*
%ADD10R,1.803200X2.003200*%
%ADD11R,2.103200X3.603200*%
%ADD12R,1.723200X0.803200*%
%ADD13R,2.743200X2.743200*%
%ADD14R,1.317800X1.564400*%
%ADD15R,4.013200X2.286000*%
%ADD16R,9.093200X11.633200*%
%ADD17R,1.803200X2.006200*%
%ADD18R,2.006200X1.803200*%
%ADD19R,2.053200X5.703200*%
%ADD20R,1.703200X1.703200*%
%ADD21C,2.963200*%
%ADD22C,2.082800*%
%ADD23R,1.503200X1.703200*%
%ADD24C,3.903200*%
%ADD25C,0.425800*%
%ADD26C,0.859600*%
%ADD27C,0.959600*%


D10*
X393000Y177000D03*
X421000Y177000D03*
X393000Y152000D03*
X421000Y152000D03*
D11*
G36*
X338386Y102908D02*
X323514Y88036D01*
X298036Y113514D01*
X312908Y128386D01*
X338386Y102908D01*
G37*
G36*
X365964Y130486D02*
X351092Y115614D01*
X325614Y141092D01*
X340486Y155964D01*
X365964Y130486D01*
G37*
D12*
X379400Y108650D03*
X379400Y121350D03*
X379400Y134050D03*
X379400Y95950D03*
X434600Y108650D03*
X434600Y121350D03*
X434600Y134050D03*
X434600Y95950D03*
D13*
X366505Y73000D03*
X413495Y73000D03*
D14*
X531996Y75000D03*
X564004Y75000D03*
X531996Y51000D03*
X564004Y51000D03*
D15*
X520400Y242900D03*
X520400Y293700D03*
D16*
X406100Y268300D03*
D17*
X548160Y213000D03*
X519720Y213000D03*
X480780Y186380D03*
X509220Y186380D03*
D15*
X520400Y382900D03*
X520400Y433700D03*
D16*
X406100Y408300D03*
D18*
X553000Y355840D03*
X553000Y384280D03*
D17*
X500780Y355380D03*
X529220Y355380D03*
D14*
X260996Y165000D03*
X293004Y165000D03*
X260996Y140000D03*
X293004Y140000D03*
D15*
X280400Y242900D03*
X280400Y293700D03*
D16*
X166100Y268300D03*
D17*
X324220Y210000D03*
X295780Y210000D03*
X245780Y210000D03*
X274220Y210000D03*
D15*
X280400Y382900D03*
X280400Y433700D03*
D16*
X166100Y408300D03*
D18*
X317680Y354840D03*
X317680Y383280D03*
D17*
X260920Y354380D03*
X289360Y354380D03*
D19*
X87000Y369000D03*
X36000Y369000D03*
X87000Y433000D03*
X36000Y433000D03*
X87000Y305000D03*
X36000Y305000D03*
X87000Y241000D03*
X36000Y241000D03*
D13*
X198000Y104505D03*
X198000Y151495D03*
X621000Y255495D03*
X621000Y208505D03*
D18*
X24000Y117780D03*
X24000Y146220D03*
D17*
X473780Y75000D03*
X502220Y75000D03*
D20*
X24000Y201500D03*
X24000Y166500D03*
X505500Y50000D03*
X470500Y50000D03*
D21*
X315000Y170000D03*
X570000Y315000D03*
X629000Y436000D03*
X599000Y93000D03*
D22*
X47000Y37000D03*
X47000Y62400D03*
X72400Y37000D03*
X72400Y62400D03*
X97800Y37000D03*
X97800Y62400D03*
X123200Y37000D03*
X123200Y62400D03*
X148600Y37000D03*
X148600Y62400D03*
X174000Y37000D03*
X174000Y62400D03*
X410000Y500000D03*
X410000Y525400D03*
X435400Y500000D03*
X435400Y525400D03*
X460800Y500000D03*
X460800Y525400D03*
X486200Y500000D03*
X486200Y525400D03*
X511600Y500000D03*
X511600Y525400D03*
X537000Y500000D03*
X537000Y525400D03*
D23*
G36*
X162618Y161575D02*
X151989Y150946D01*
X139946Y162989D01*
X150575Y173618D01*
X162618Y161575D01*
G37*
G36*
X176054Y175011D02*
X165425Y164382D01*
X153382Y176425D01*
X164011Y187054D01*
X176054Y175011D01*
G37*
D24*
X650000Y40000D03*
X40000Y515000D03*
X650000Y515000D03*
D25*
X488887Y121387D02*
X461113Y121387D01*
X488887Y121387D02*
X488887Y108613D01*
X461113Y108613D01*
X461113Y121387D01*
X461113Y112658D02*
X488887Y112658D01*
X488887Y116703D02*
X461113Y116703D01*
X461113Y120748D02*
X488887Y120748D01*
X158887Y88613D02*
X131113Y88613D01*
X131113Y101387D01*
X158887Y101387D01*
X158887Y88613D01*
X158887Y92658D02*
X131113Y92658D01*
X131113Y96703D02*
X158887Y96703D01*
X158887Y100748D02*
X131113Y100748D01*
X328613Y411113D02*
X328613Y438887D01*
X341387Y438887D01*
X341387Y411113D01*
X328613Y411113D01*
X328613Y415158D02*
X341387Y415158D01*
X341387Y419203D02*
X328613Y419203D01*
X328613Y423248D02*
X341387Y423248D01*
X341387Y427293D02*
X328613Y427293D01*
X328613Y431338D02*
X341387Y431338D01*
X341387Y435383D02*
X328613Y435383D01*
X568613Y443887D02*
X568613Y416113D01*
X568613Y443887D02*
X581387Y443887D01*
X581387Y416113D01*
X568613Y416113D01*
X568613Y420158D02*
X581387Y420158D01*
X581387Y424203D02*
X568613Y424203D01*
X568613Y428248D02*
X581387Y428248D01*
X581387Y432293D02*
X568613Y432293D01*
X568613Y436338D02*
X581387Y436338D01*
X581387Y440383D02*
X568613Y440383D01*
X591387Y363887D02*
X591387Y336113D01*
X578613Y336113D01*
X578613Y363887D01*
X591387Y363887D01*
X591387Y340158D02*
X578613Y340158D01*
X578613Y344203D02*
X591387Y344203D01*
X591387Y348248D02*
X578613Y348248D01*
X578613Y352293D02*
X591387Y352293D01*
X591387Y356338D02*
X578613Y356338D01*
X578613Y360383D02*
X591387Y360383D01*
X331387Y338887D02*
X331387Y311113D01*
X318613Y311113D01*
X318613Y338887D01*
X331387Y338887D01*
X331387Y315158D02*
X318613Y315158D01*
X318613Y319203D02*
X331387Y319203D01*
X331387Y323248D02*
X318613Y323248D01*
X318613Y327293D02*
X331387Y327293D01*
X331387Y331338D02*
X318613Y331338D01*
X318613Y335383D02*
X331387Y335383D01*
X521113Y121387D02*
X548887Y121387D01*
X548887Y108613D01*
X521113Y108613D01*
X521113Y121387D01*
X521113Y112658D02*
X548887Y112658D01*
X548887Y116703D02*
X521113Y116703D01*
X521113Y120748D02*
X548887Y120748D01*
X158887Y121613D02*
X131113Y121613D01*
X131113Y134387D01*
X158887Y134387D01*
X158887Y121613D01*
X158887Y125658D02*
X131113Y125658D01*
X131113Y129703D02*
X158887Y129703D01*
X158887Y133748D02*
X131113Y133748D01*
X613613Y316113D02*
X613613Y343887D01*
X626387Y343887D01*
X626387Y316113D01*
X613613Y316113D01*
X613613Y320158D02*
X626387Y320158D01*
X626387Y324203D02*
X613613Y324203D01*
X613613Y328248D02*
X626387Y328248D01*
X626387Y332293D02*
X613613Y332293D01*
X613613Y336338D02*
X626387Y336338D01*
X626387Y340383D02*
X613613Y340383D01*
D13*
X233505Y69000D03*
X280495Y69000D03*
X233505Y104000D03*
X280495Y104000D03*
X660000Y172495D03*
X660000Y125505D03*
X659000Y255495D03*
X659000Y208505D03*
D26*
X360000Y460000D03*
X360000Y450000D03*
X360000Y440000D03*
X360000Y430000D03*
X360000Y420000D03*
X360000Y410000D03*
X360000Y400000D03*
X360000Y390000D03*
X360000Y380000D03*
X360000Y370000D03*
X360000Y360000D03*
X360000Y350000D03*
X370000Y360000D03*
X370000Y370000D03*
X370000Y380000D03*
X370000Y390000D03*
X370000Y400000D03*
X370000Y410000D03*
X370000Y420000D03*
X370000Y430000D03*
X370000Y440000D03*
X370000Y450000D03*
X370000Y460000D03*
X380000Y460000D03*
X380000Y450000D03*
X380000Y440000D03*
X380000Y430000D03*
X380000Y420000D03*
X380000Y410000D03*
X380000Y400000D03*
X380000Y390000D03*
X380000Y380000D03*
X380000Y370000D03*
X380000Y360000D03*
X380000Y350000D03*
X390000Y460000D03*
X390000Y450000D03*
X390000Y440000D03*
X390000Y430000D03*
X390000Y420000D03*
X390000Y410000D03*
X390000Y400000D03*
X390000Y390000D03*
X390000Y380000D03*
X390000Y370000D03*
X390000Y360000D03*
X390000Y350000D03*
X390000Y340000D03*
X400000Y340000D03*
X400000Y350000D03*
X400000Y360000D03*
X400000Y370000D03*
X400000Y380000D03*
X400000Y390000D03*
X400000Y400000D03*
X400000Y410000D03*
X400000Y420000D03*
X400000Y430000D03*
X400000Y440000D03*
X400000Y450000D03*
X400000Y460000D03*
X410000Y460000D03*
X410000Y450000D03*
X410000Y440000D03*
X410000Y430000D03*
X410000Y420000D03*
X410000Y410000D03*
X410000Y400000D03*
X410000Y390000D03*
X410000Y380000D03*
X410000Y370000D03*
X410000Y360000D03*
X410000Y350000D03*
X410000Y340000D03*
X420000Y460000D03*
X420000Y450000D03*
X420000Y440000D03*
X420000Y430000D03*
X420000Y420000D03*
X420000Y410000D03*
X420000Y400000D03*
X420000Y390000D03*
X420000Y380000D03*
X420000Y370000D03*
X420000Y360000D03*
X420000Y350000D03*
X420000Y340000D03*
X430000Y340000D03*
X430000Y350000D03*
X430000Y360000D03*
X430000Y370000D03*
X430000Y380000D03*
X430000Y390000D03*
X430000Y400000D03*
X430000Y410000D03*
X430000Y420000D03*
X430000Y430000D03*
X430000Y440000D03*
X430000Y450000D03*
X430000Y460000D03*
X440000Y460000D03*
X440000Y450000D03*
X440000Y440000D03*
X440000Y430000D03*
X440000Y420000D03*
X440000Y410000D03*
X440000Y400000D03*
X440000Y390000D03*
X440000Y380000D03*
X440000Y370000D03*
X440000Y360000D03*
X440000Y350000D03*
X440000Y340000D03*
X360000Y320000D03*
X360000Y310000D03*
X360000Y300000D03*
X360000Y290000D03*
X360000Y280000D03*
X360000Y270000D03*
X360000Y260000D03*
X360000Y250000D03*
X360000Y240000D03*
X360000Y230000D03*
X360000Y220000D03*
X360000Y210000D03*
X370000Y210000D03*
X370000Y220000D03*
X370000Y230000D03*
X370000Y240000D03*
X370000Y250000D03*
X370000Y260000D03*
X370000Y270000D03*
X370000Y280000D03*
X370000Y290000D03*
X370000Y300000D03*
X370000Y310000D03*
X380000Y320000D03*
X380000Y310000D03*
X380000Y300000D03*
X380000Y290000D03*
X380000Y280000D03*
X380000Y270000D03*
X380000Y260000D03*
X380000Y250000D03*
X380000Y240000D03*
X380000Y230000D03*
X380000Y220000D03*
X380000Y210000D03*
X390000Y330000D03*
X390000Y320000D03*
X390000Y310000D03*
X390000Y300000D03*
X390000Y290000D03*
X390000Y280000D03*
X390000Y270000D03*
X390000Y260000D03*
X390000Y250000D03*
X390000Y240000D03*
X390000Y230000D03*
X390000Y220000D03*
X390000Y210000D03*
X400000Y210000D03*
X400000Y220000D03*
X400000Y230000D03*
X400000Y240000D03*
X400000Y250000D03*
X400000Y260000D03*
X400000Y270000D03*
X400000Y280000D03*
X400000Y290000D03*
X400000Y300000D03*
X400000Y310000D03*
X400000Y320000D03*
X400000Y330000D03*
X410000Y330000D03*
X410000Y320000D03*
X410000Y310000D03*
X410000Y300000D03*
X410000Y290000D03*
X410000Y280000D03*
X410000Y270000D03*
X410000Y260000D03*
X410000Y250000D03*
X410000Y240000D03*
X410000Y230000D03*
X410000Y220000D03*
X410000Y210000D03*
X420000Y330000D03*
X420000Y320000D03*
X420000Y310000D03*
X420000Y300000D03*
X420000Y290000D03*
X420000Y280000D03*
X420000Y270000D03*
X420000Y260000D03*
X420000Y250000D03*
X420000Y240000D03*
X420000Y230000D03*
X420000Y220000D03*
X420000Y210000D03*
X430000Y210000D03*
X430000Y220000D03*
X430000Y230000D03*
X430000Y240000D03*
X430000Y250000D03*
X430000Y260000D03*
X430000Y270000D03*
X430000Y280000D03*
X430000Y290000D03*
X430000Y300000D03*
X430000Y310000D03*
X430000Y320000D03*
X430000Y330000D03*
X440000Y330000D03*
X440000Y320000D03*
X440000Y310000D03*
X440000Y300000D03*
X440000Y290000D03*
X440000Y280000D03*
X440000Y270000D03*
X440000Y260000D03*
X440000Y250000D03*
X440000Y240000D03*
X440000Y230000D03*
X440000Y220000D03*
X440000Y210000D03*
D27*
X610000Y210000D03*
D26*
X290000Y330000D03*
X280000Y330000D03*
X270000Y330000D03*
X270000Y320000D03*
X280000Y320000D03*
X290000Y320000D03*
X290000Y310000D03*
X280000Y310000D03*
X270000Y310000D03*
X270000Y420000D03*
X280000Y420000D03*
X290000Y420000D03*
X300000Y420000D03*
X310000Y420000D03*
X310000Y430000D03*
X310000Y440000D03*
X310000Y450000D03*
X300000Y450000D03*
X290000Y450000D03*
X280000Y450000D03*
X270000Y450000D03*
X270000Y460000D03*
X280000Y460000D03*
X290000Y460000D03*
X300000Y460000D03*
X310000Y460000D03*
X320000Y460000D03*
X320000Y450000D03*
X320000Y440000D03*
X320000Y430000D03*
X320000Y420000D03*
X290000Y280000D03*
X280000Y280000D03*
X270000Y280000D03*
X260000Y280000D03*
X250000Y280000D03*
X250000Y290000D03*
X250000Y300000D03*
X250000Y310000D03*
X260000Y310000D03*
X260000Y320000D03*
X250000Y320000D03*
X250000Y330000D03*
X260000Y330000D03*
X345000Y150000D03*
X355000Y150000D03*
X355000Y160000D03*
X345000Y160000D03*
X345000Y170000D03*
X355000Y170000D03*
X300000Y130000D03*
X120000Y460000D03*
X120000Y450000D03*
X120000Y440000D03*
X120000Y430000D03*
X120000Y420000D03*
X120000Y410000D03*
X120000Y400000D03*
X120000Y390000D03*
X120000Y380000D03*
X120000Y370000D03*
X120000Y360000D03*
X130000Y340000D03*
X130000Y350000D03*
X130000Y360000D03*
X130000Y370000D03*
X130000Y380000D03*
X130000Y390000D03*
X130000Y400000D03*
X130000Y410000D03*
X130000Y420000D03*
X130000Y430000D03*
X130000Y440000D03*
X130000Y450000D03*
X130000Y460000D03*
X140000Y460000D03*
X140000Y450000D03*
X140000Y440000D03*
X140000Y430000D03*
X140000Y420000D03*
X140000Y410000D03*
X140000Y400000D03*
X140000Y390000D03*
X140000Y380000D03*
X140000Y370000D03*
X140000Y360000D03*
X140000Y350000D03*
X140000Y340000D03*
X150000Y460000D03*
X150000Y450000D03*
X150000Y440000D03*
X150000Y430000D03*
X150000Y420000D03*
X150000Y410000D03*
X150000Y400000D03*
X150000Y390000D03*
X150000Y380000D03*
X150000Y370000D03*
X150000Y360000D03*
X150000Y350000D03*
X150000Y340000D03*
X160000Y340000D03*
X160000Y350000D03*
X160000Y360000D03*
X160000Y370000D03*
X160000Y380000D03*
X160000Y390000D03*
X160000Y400000D03*
X160000Y410000D03*
X160000Y420000D03*
X160000Y430000D03*
X160000Y440000D03*
X160000Y450000D03*
X160000Y460000D03*
X170000Y460000D03*
X170000Y450000D03*
X170000Y440000D03*
X170000Y430000D03*
X170000Y420000D03*
X170000Y410000D03*
X170000Y400000D03*
X170000Y390000D03*
X170000Y380000D03*
X170000Y370000D03*
X170000Y360000D03*
X170000Y350000D03*
X170000Y340000D03*
X180000Y460000D03*
X180000Y450000D03*
X180000Y440000D03*
X180000Y430000D03*
X180000Y420000D03*
X180000Y410000D03*
X180000Y400000D03*
X180000Y390000D03*
X180000Y380000D03*
X180000Y370000D03*
X180000Y360000D03*
X180000Y350000D03*
X180000Y340000D03*
X190000Y340000D03*
X190000Y350000D03*
X190000Y360000D03*
X190000Y370000D03*
X190000Y380000D03*
X190000Y390000D03*
X190000Y400000D03*
X190000Y410000D03*
X190000Y420000D03*
X190000Y430000D03*
X190000Y440000D03*
X190000Y450000D03*
X190000Y460000D03*
X200000Y460000D03*
X200000Y450000D03*
X200000Y440000D03*
X200000Y430000D03*
X200000Y420000D03*
X200000Y410000D03*
X200000Y400000D03*
X200000Y390000D03*
X200000Y380000D03*
X200000Y370000D03*
X200000Y360000D03*
X200000Y350000D03*
X200000Y340000D03*
X120000Y320000D03*
X120000Y310000D03*
X120000Y300000D03*
X120000Y290000D03*
X120000Y280000D03*
X120000Y270000D03*
X120000Y260000D03*
X120000Y250000D03*
X120000Y240000D03*
X120000Y230000D03*
X120000Y220000D03*
X120000Y210000D03*
X130000Y210000D03*
X130000Y220000D03*
X130000Y230000D03*
X130000Y240000D03*
X130000Y250000D03*
X130000Y260000D03*
X130000Y270000D03*
X130000Y280000D03*
X130000Y290000D03*
X130000Y300000D03*
X130000Y310000D03*
X130000Y320000D03*
X130000Y330000D03*
X140000Y330000D03*
X140000Y320000D03*
X140000Y310000D03*
X140000Y300000D03*
X140000Y290000D03*
X140000Y280000D03*
X140000Y270000D03*
X140000Y260000D03*
X140000Y250000D03*
X140000Y240000D03*
X140000Y230000D03*
X140000Y220000D03*
X140000Y210000D03*
X150000Y330000D03*
X150000Y320000D03*
X150000Y310000D03*
X150000Y300000D03*
X150000Y290000D03*
X150000Y280000D03*
X150000Y270000D03*
X150000Y260000D03*
X150000Y250000D03*
X150000Y240000D03*
X150000Y230000D03*
X150000Y220000D03*
X150000Y210000D03*
X160000Y210000D03*
X160000Y220000D03*
X160000Y230000D03*
X160000Y240000D03*
X160000Y250000D03*
X160000Y260000D03*
X160000Y270000D03*
X160000Y280000D03*
X160000Y290000D03*
X160000Y300000D03*
X160000Y310000D03*
X160000Y320000D03*
X160000Y330000D03*
X170000Y330000D03*
X170000Y320000D03*
X170000Y310000D03*
X170000Y300000D03*
X170000Y290000D03*
X170000Y280000D03*
X170000Y270000D03*
X170000Y260000D03*
X170000Y250000D03*
X170000Y240000D03*
X170000Y230000D03*
X170000Y220000D03*
X170000Y210000D03*
X180000Y330000D03*
X180000Y320000D03*
X180000Y310000D03*
X180000Y300000D03*
X180000Y290000D03*
X180000Y280000D03*
X180000Y270000D03*
X180000Y260000D03*
X180000Y250000D03*
X180000Y240000D03*
X180000Y230000D03*
X180000Y220000D03*
X180000Y210000D03*
X190000Y210000D03*
X190000Y220000D03*
X190000Y230000D03*
X190000Y240000D03*
X190000Y250000D03*
X190000Y260000D03*
X190000Y270000D03*
X190000Y280000D03*
X190000Y290000D03*
X190000Y300000D03*
X190000Y310000D03*
X190000Y320000D03*
X190000Y330000D03*
X200000Y330000D03*
X200000Y320000D03*
X200000Y310000D03*
X200000Y300000D03*
X200000Y290000D03*
X200000Y280000D03*
X200000Y270000D03*
X200000Y260000D03*
X200000Y250000D03*
X200000Y240000D03*
X200000Y230000D03*
X200000Y220000D03*
X200000Y210000D03*
D27*
X36000Y106000D03*
X298000Y68000D03*
X360000Y108650D03*
D26*
X500000Y170000D03*
D27*
X25000Y268000D03*
X25000Y278000D03*
X25000Y334000D03*
X25000Y344000D03*
X25000Y397000D03*
X25000Y407000D03*
X25000Y460000D03*
X24000Y213000D03*
X515000Y50000D03*
X572000Y55000D03*
D26*
X420000Y121000D03*
X451000Y121000D03*
X428000Y171000D03*
X420000Y171000D03*
X470000Y187000D03*
X495000Y364000D03*
X572000Y47000D03*
D27*
X550000Y425000D03*
X560000Y425000D03*
X560000Y435000D03*
X550000Y435000D03*
X550000Y415000D03*
X540000Y415000D03*
X530000Y415000D03*
X520000Y415000D03*
X510000Y415000D03*
X500000Y415000D03*
X560000Y445000D03*
X560000Y455000D03*
X550000Y445000D03*
X550000Y455000D03*
X560000Y415000D03*
X540000Y455000D03*
X530000Y455000D03*
X520000Y455000D03*
X510000Y455000D03*
X500000Y455000D03*
X500000Y465000D03*
X510000Y465000D03*
X520000Y465000D03*
X530000Y465000D03*
X540000Y465000D03*
X550000Y465000D03*
X560000Y465000D03*
X500000Y280000D03*
X510000Y280000D03*
X520000Y280000D03*
X530000Y280000D03*
X500000Y290000D03*
X500000Y300000D03*
X500000Y310000D03*
X510000Y310000D03*
X520000Y310000D03*
X530000Y310000D03*
X530000Y320000D03*
X520000Y320000D03*
X510000Y320000D03*
X500000Y320000D03*
X500000Y330000D03*
X510000Y330000D03*
X520000Y330000D03*
X530000Y330000D03*
X550000Y115000D03*
X160000Y128000D03*
X619000Y308000D03*
X462000Y70000D03*
X400000Y70000D03*
M02*
